<svg width="20" height="16" viewBox="0 0 20 16" fill="none" xmlns="http://www.w3.org/2000/svg">
<path fill-rule="evenodd" clip-rule="evenodd" d="M17 3.96802V4.00001C17 4.55229 16.5523 5.00001 16 5.00001C15.4477 5.00001 15 4.55229 15 4.00001C15 3.52038 14.9995 3.21075 14.9833 2.97377C14.9677 2.74577 14.9411 2.65894 14.9239 2.61732C14.8224 2.37229 14.6277 2.17762 14.3827 2.07613C14.3411 2.05889 14.2542 2.03227 14.0262 2.01672C13.7893 2.00055 13.4796 2.00001 13 2.00001L5.00001 2C4.02893 2 3.40122 2.00213 2.93871 2.06431C2.50497 2.12263 2.36902 2.21677 2.2929 2.2929C2.21678 2.36902 2.12263 2.50497 2.06431 2.93871C2.00213 3.40122 2.00001 4.02893 2.00001 5L2.00001 9.00001C2.00001 9.97108 2.00213 10.5988 2.06431 11.0613C2.12263 11.495 2.21678 11.631 2.2929 11.7071C2.36902 11.7832 2.50497 11.8774 2.93871 11.9357C3.40122 11.9979 4.02893 12 5.00001 12L10 12C10.5523 12 11 12.4477 11 13C11 13.5523 10.5523 14 10 14L4.93417 14C4.04769 14.0001 3.28387 14.0001 2.67222 13.9179C2.0167 13.8297 1.38835 13.631 0.878685 13.1213C0.369024 12.6117 0.17028 11.9833 0.082148 11.3278C-8.82447e-05 10.7161 -4.72073e-05 9.95231 2.42248e-06 9.06581L2.60308e-06 4.9342C-4.69492e-05 4.0477 -8.79243e-05 3.28388 0.0821484 2.67221C0.17028 2.0167 0.369024 1.38835 0.878686 0.878685C1.38835 0.369022 2.0167 0.170277 2.67222 0.0821452C3.28388 -9.02563e-05 4.04769 -4.74255e-05 4.93418 2.44276e-06L13.032 4.46566e-06C13.4706 -7.79372e-06 13.8491 -1.86246e-05 14.1624 0.0213549C14.4922 0.0438589 14.8221 0.0933628 15.1481 0.228367C15.8831 0.532849 16.4672 1.11687 16.7716 1.85195C16.9067 2.17788 16.9562 2.50779 16.9787 2.83762C17 3.15088 17 3.52937 17 3.96802Z" fill="#484848"/>
<path fill-rule="evenodd" clip-rule="evenodd" d="M15.968 6H16.032C16.4706 5.99999 16.8491 5.99998 17.1624 6.02135C17.4922 6.04386 17.8221 6.09336 18.1481 6.22837C18.8831 6.53285 19.4672 7.11687 19.7716 7.85195C19.9067 8.17788 19.9562 8.50779 19.9787 8.83762C20 9.15088 20 9.52937 20 9.96801V12.032C20 12.4706 20 12.8491 19.9787 13.1624C19.9562 13.4922 19.9067 13.8221 19.7716 14.1481C19.4672 14.8831 18.8831 15.4672 18.1481 15.7716C17.8221 15.9066 17.4922 15.9562 17.1624 15.9787C16.8491 16 16.4706 16 16.032 16H15.968C15.5294 16 15.1509 16 14.8376 15.9787C14.5078 15.9562 14.1779 15.9066 13.852 15.7716C13.1169 15.4672 12.5329 14.8831 12.2284 14.1481C12.0934 13.8221 12.0439 13.4922 12.0214 13.1624C12 12.8491 12 12.4706 12 12.032V9.96802C12 9.52937 12 9.15088 12.0214 8.83762C12.0439 8.50779 12.0934 8.17788 12.2284 7.85195C12.5329 7.11687 13.1169 6.53285 13.852 6.22837C14.1779 6.09336 14.5078 6.04386 14.8376 6.02135C15.1509 5.99998 15.5294 5.99999 15.968 6ZM14.9738 8.01672C14.7458 8.03227 14.6589 8.05889 14.6173 8.07613C14.3723 8.17762 14.1776 8.37229 14.0761 8.61732C14.0589 8.65893 14.0323 8.74577 14.0167 8.97376C14.0005 9.21074 14 9.52038 14 10V12C14 12.4796 14.0005 12.7893 14.0167 13.0262C14.0323 13.2542 14.0589 13.3411 14.0761 13.3827C14.1776 13.6277 14.3723 13.8224 14.6173 13.9239C14.6589 13.9411 14.7458 13.9677 14.9738 13.9833C15.2107 13.9995 15.5204 14 16 14C16.4796 14 16.7893 13.9995 17.0262 13.9833C17.2542 13.9677 17.3411 13.9411 17.3827 13.9239C17.6277 13.8224 17.8224 13.6277 17.9239 13.3827C17.9411 13.3411 17.9677 13.2542 17.9833 13.0262C17.9995 12.7893 18 12.4796 18 12V10C18 9.52038 17.9995 9.21074 17.9833 8.97376C17.9677 8.74577 17.9411 8.65893 17.9239 8.61732C17.8224 8.37229 17.6277 8.17762 17.3827 8.07613C17.3411 8.05889 17.2542 8.03227 17.0262 8.01672C16.7893 8.00055 16.4796 8 16 8C15.5204 8 15.2107 8.00055 14.9738 8.01672Z" fill="#484848"/>
</svg>
