<svg width="24" height="24" viewBox="0 0 24 24" fill="none" xmlns="http://www.w3.org/2000/svg">
<path fill-rule="evenodd" clip-rule="evenodd" d="M19 7.96802V8.00001C19 8.55229 18.5523 9.00001 18 9.00001C17.4477 9.00001 17 8.55229 17 8.00001C17 7.52038 16.9995 7.21075 16.9833 6.97377C16.9677 6.74577 16.9411 6.65894 16.9239 6.61732C16.8224 6.37229 16.6277 6.17762 16.3827 6.07613C16.3411 6.05889 16.2542 6.03227 16.0262 6.01672C15.7893 6.00055 15.4796 6.00001 15 6.00001L7 6C6.02892 6 5.40121 6.00213 4.9387 6.06431C4.50496 6.12263 4.36902 6.21677 4.29289 6.2929C4.21677 6.36902 4.12262 6.50497 4.06431 6.93871C4.00212 7.40121 4 8.02893 4 9L4 13C4 13.9711 4.00212 14.5988 4.06431 15.0613C4.12262 15.495 4.21677 15.631 4.29289 15.7071C4.36902 15.7832 4.50496 15.8774 4.9387 15.9357C5.40121 15.9979 6.02892 16 7 16L12 16C12.5523 16 13 16.4477 13 17C13 17.5523 12.5523 18 12 18L6.93417 18C6.04768 18.0001 5.28387 18.0001 4.67221 17.9179C4.01669 17.8297 3.38834 17.631 2.87868 17.1213C2.36902 16.6117 2.17027 15.9833 2.08214 15.3278C1.9999 14.7161 1.99995 13.9523 1.99999 13.0658L1.99999 8.9342C1.99995 8.0477 1.9999 7.28388 2.08214 6.67221C2.17027 6.0167 2.36902 5.38835 2.87868 4.87868C3.38834 4.36902 4.01669 4.17028 4.67221 4.08215C5.28387 3.99991 6.04768 3.99995 6.93417 4L15.032 4C15.4706 3.99999 15.8491 3.99998 16.1624 4.02135C16.4922 4.04386 16.8221 4.09336 17.1481 4.22837C17.8831 4.53285 18.4672 5.11687 18.7716 5.85195C18.9066 6.17788 18.9561 6.50779 18.9786 6.83762C19 7.15088 19 7.52937 19 7.96802Z" fill="#484848"/>
<path fill-rule="evenodd" clip-rule="evenodd" d="M17.968 10H18.032C18.4706 9.99999 18.8491 9.99998 19.1624 10.0214C19.4922 10.0439 19.8221 10.0934 20.1481 10.2284C20.8831 10.5328 21.4672 11.1169 21.7716 11.852C21.9066 12.1779 21.9561 12.5078 21.9787 12.8376C22 13.1509 22 13.5294 22 13.968V16.032C22 16.4706 22 16.8491 21.9787 17.1624C21.9561 17.4922 21.9066 17.8221 21.7716 18.1481C21.4672 18.8831 20.8831 19.4672 20.1481 19.7716C19.8221 19.9066 19.4922 19.9562 19.1624 19.9787C18.8491 20 18.4706 20 18.032 20H17.968C17.5294 20 17.1509 20 16.8376 19.9787C16.5078 19.9562 16.1779 19.9066 15.8519 19.7716C15.1169 19.4672 14.5328 18.8831 14.2284 18.1481C14.0934 17.8221 14.0439 17.4922 14.0213 17.1624C14 16.8491 14 16.4706 14 16.032V13.968C14 13.5294 14 13.1509 14.0213 12.8376C14.0439 12.5078 14.0934 12.1779 14.2284 11.852C14.5328 11.1169 15.1169 10.5328 15.8519 10.2284C16.1779 10.0934 16.5078 10.0439 16.8376 10.0214C17.1509 9.99998 17.5294 9.99999 17.968 10ZM16.9738 12.0167C16.7458 12.0323 16.6589 12.0589 16.6173 12.0761C16.3723 12.1776 16.1776 12.3723 16.0761 12.6173C16.0589 12.6589 16.0323 12.7458 16.0167 12.9738C16.0005 13.2107 16 13.5204 16 14V16C16 16.4796 16.0005 16.7893 16.0167 17.0262C16.0323 17.2542 16.0589 17.3411 16.0761 17.3827C16.1776 17.6277 16.3723 17.8224 16.6173 17.9239C16.6589 17.9411 16.7458 17.9677 16.9738 17.9833C17.2107 17.9995 17.5204 18 18 18C18.4796 18 18.7893 17.9995 19.0262 17.9833C19.2542 17.9677 19.3411 17.9411 19.3827 17.9239C19.6277 17.8224 19.8224 17.6277 19.9239 17.3827C19.9411 17.3411 19.9677 17.2542 19.9833 17.0262C19.9995 16.7893 20 16.4796 20 16V14C20 13.5204 19.9995 13.2107 19.9833 12.9738C19.9677 12.7458 19.9411 12.6589 19.9239 12.6173C19.8224 12.3723 19.6277 12.1776 19.3827 12.0761C19.3411 12.0589 19.2542 12.0323 19.0262 12.0167C18.7893 12.0005 18.4796 12 18 12C17.5204 12 17.2107 12.0005 16.9738 12.0167Z" fill="#484848"/>
</svg>
