<svg width="24" height="24" viewBox="0 0 24 24" fill="none" xmlns="http://www.w3.org/2000/svg">
<path fill-rule="evenodd" clip-rule="evenodd" d="M10 20H14C15.9422 20 17.1976 19.9958 18.1226 19.8714C18.9901 19.7548 19.262 19.5665 19.4142 19.4142C19.5665 19.262 19.7548 18.9901 19.8714 18.1226C19.9958 17.1976 20 15.9422 20 14V8.82843C20 7.56186 19.9822 7.31486 19.9234 7.1086C19.8813 6.96096 19.8224 6.81865 19.7477 6.68449C19.6434 6.49706 19.4814 6.30981 18.5858 5.41421C17.6902 4.51861 17.5029 4.35656 17.3155 4.25229C17.1814 4.17764 17.039 4.1187 16.8914 4.07661C16.6851 4.01782 16.4381 4 15.1716 4H10C8.05784 4 6.80242 4.00425 5.87741 4.12861C5.00993 4.24524 4.73803 4.43354 4.58579 4.58579C4.43354 4.73804 4.24524 5.00993 4.12861 5.87741C4.00425 6.80242 4 8.05784 4 10V14C4 15.9422 4.00425 17.1976 4.12861 18.1226C4.24524 18.9901 4.43354 19.262 4.58579 19.4142C4.73803 19.5665 5.00993 19.7548 5.87741 19.8714C6.80242 19.9958 8.05784 20 10 20ZM3.17157 3.17157C2 4.34315 2 6.22876 2 10V14C2 17.7712 2 19.6569 3.17157 20.8284C4.34315 22 6.22876 22 10 22H14C17.7712 22 19.6569 22 20.8284 20.8284C22 19.6569 22 17.7712 22 14V8.82843C22 7.67474 22 7.0979 21.8468 6.56035C21.7626 6.26506 21.6447 5.98044 21.4954 5.71212C21.2237 5.22367 20.8158 4.81578 20 4C19.1842 3.18422 18.7763 2.77633 18.2879 2.50457C18.0196 2.35529 17.7349 2.2374 17.4396 2.15322C16.9021 2 16.3253 2 15.1716 2H10C6.22876 2 4.34315 2 3.17157 3.17157Z" fill="#484848"/>
<path fill-rule="evenodd" clip-rule="evenodd" d="M16 18V16C16 15.0007 15.9958 14.4523 15.9446 14.072C15.9439 14.067 15.9433 14.0621 15.9426 14.0574C15.9379 14.0567 15.933 14.0561 15.928 14.0554C15.5477 14.0042 14.9993 14 14 14H10C9.00065 14 8.45234 14.0042 8.07195 14.0554C8.06699 14.0561 8.06214 14.0567 8.05739 14.0574C8.05672 14.0621 8.05606 14.067 8.05539 14.072C8.00425 14.4523 8 15.0007 8 16L8 18C8 18.9993 8.00425 19.5477 8.05539 19.928C8.05605 19.933 8.05672 19.9379 8.05739 19.9426C8.06214 19.9433 8.06699 19.9439 8.07195 19.9446C8.45234 19.9958 9.00065 20 10 20H14C14.9993 20 15.5477 19.9958 15.928 19.9446C15.933 19.9439 15.9379 19.9433 15.9426 19.9426C15.9433 19.9379 15.9439 19.933 15.9446 19.928C15.9958 19.5477 16 18.9994 16 18ZM15.9032 20.1381C15.9032 20.1381 15.9034 20.1375 15.9039 20.1363ZM16.1363 19.9039C16.1375 19.9034 16.1381 19.9032 16.1381 19.9032ZM7.86187 19.9032C7.86189 19.9032 7.86251 19.9034 7.86368 19.9039ZM7.86187 14.0968C7.86186 14.0968 7.86244 14.0966 7.86368 14.0961ZM15.9032 13.8619C15.9032 13.8619 15.9034 13.8624 15.9039 13.8637ZM17.4142 12.5858C16.8284 12 15.8856 12 14 12L10 12C8.11438 12 7.17157 12 6.58579 12.5858C6 13.1716 6 14.1144 6 16V18C6 19.8856 6 20.8284 6.58579 21.4142C7.17157 22 8.11438 22 10 22H14C15.8856 22 16.8284 22 17.4142 21.4142C18 20.8284 18 19.8856 18 18V16C18 14.1144 18 13.1716 17.4142 12.5858Z" fill="#484848"/>
<path fill-rule="evenodd" clip-rule="evenodd" d="M11 6H13C13.4933 6 13.7631 5.99892 13.9582 5.98561C13.9672 5.98499 13.9758 5.98436 13.9837 5.98374C13.9844 5.97576 13.985 5.96724 13.9856 5.95817C13.9989 5.76312 14 5.49331 14 5C14 4.50669 13.9989 4.23688 13.9856 4.04183C13.985 4.03276 13.9844 4.02424 13.9837 4.01626C13.9758 4.01564 13.9672 4.01501 13.9582 4.01439C13.7631 4.00108 13.4933 4 13 4L11 4C10.5067 4 10.2369 4.00108 10.0418 4.01439C10.0328 4.01501 10.0242 4.01564 10.0163 4.01627C10.0156 4.02425 10.015 4.03276 10.0144 4.04183C10.0011 4.23688 10 4.50669 10 5C10 5.49331 10.0011 5.76312 10.0144 5.95817C10.015 5.96724 10.0156 5.97576 10.0163 5.98374C10.0242 5.98436 10.0328 5.98499 10.0418 5.98561C10.2369 5.99892 10.5067 6 11 6ZM14.7654 2.15224C14.3978 2 13.9319 2 13 2L11 2C10.0681 2 9.60218 2 9.23463 2.15224C8.74458 2.35523 8.35523 2.74458 8.15224 3.23463C8 3.60217 8 4.06812 8 5C8 5.93188 8 6.39783 8.15224 6.76537C8.35523 7.25542 8.74458 7.64477 9.23463 7.84776C9.60218 8 10.0681 8 11 8H13C13.9319 8 14.3978 8 14.7654 7.84776C15.2554 7.64477 15.6448 7.25542 15.8478 6.76537C16 6.39783 16 5.93188 16 5C16 4.06812 16 3.60218 15.8478 3.23463C15.6448 2.74458 15.2554 2.35523 14.7654 2.15224Z" fill="#484848"/>
</svg>
