<svg width="20" height="20" viewBox="0 0 20 20" fill="none" xmlns="http://www.w3.org/2000/svg">
<path fill-rule="evenodd" clip-rule="evenodd" d="M8 18H12C13.9422 18 15.1976 17.9958 16.1226 17.8714C16.9901 17.7548 17.262 17.5665 17.4142 17.4142C17.5665 17.262 17.7548 16.9901 17.8714 16.1226C17.9958 15.1976 18 13.9422 18 12V6.82843C18 5.56186 17.9822 5.31486 17.9234 5.1086C17.8813 4.96096 17.8224 4.81865 17.7477 4.68449C17.6434 4.49706 17.4814 4.30981 16.5858 3.41421C15.6902 2.51861 15.5029 2.35656 15.3155 2.25229C15.1814 2.17764 15.039 2.1187 14.8914 2.07661C14.6851 2.01782 14.4381 2 13.1716 2H8C6.05784 2 4.80242 2.00425 3.87741 2.12861C3.00993 2.24524 2.73803 2.43354 2.58579 2.58579C2.43354 2.73804 2.24524 3.00993 2.12861 3.87741C2.00425 4.80242 2 6.05784 2 8V12C2 13.9422 2.00425 15.1976 2.12861 16.1226C2.24524 16.9901 2.43354 17.262 2.58579 17.4142C2.73803 17.5665 3.00993 17.7548 3.87741 17.8714C4.80242 17.9958 6.05784 18 8 18ZM1.17157 1.17157C0 2.34315 0 4.22876 0 8V12C0 15.7712 0 17.6569 1.17157 18.8284C2.34315 20 4.22876 20 8 20H12C15.7712 20 17.6569 20 18.8284 18.8284C20 17.6569 20 15.7712 20 12V6.82843C20 5.67474 20 5.0979 19.8468 4.56035C19.7626 4.26506 19.6447 3.98044 19.4954 3.71212C19.2237 3.22367 18.8158 2.81578 18 2C17.1842 1.18422 16.7763 0.776331 16.2879 0.504575C16.0196 0.355289 15.7349 0.237396 15.4396 0.153225C14.9021 2.23517e-07 14.3253 2.18599e-07 13.1716 2.18599e-07H8C4.22876 2.18599e-07 2.34315 2.38419e-07 1.17157 1.17157Z" fill="#484848"/>
<path fill-rule="evenodd" clip-rule="evenodd" d="M14 16V14C14 13.0007 13.9958 12.4523 13.9446 12.072C13.9439 12.067 13.9433 12.0621 13.9426 12.0574C13.9379 12.0567 13.933 12.0561 13.928 12.0554C13.5477 12.0042 12.9993 12 12 12H8C7.00065 12 6.45234 12.0042 6.07195 12.0554C6.06699 12.0561 6.06214 12.0567 6.05739 12.0574C6.05672 12.0621 6.05606 12.067 6.05539 12.072C6.00425 12.4523 6 13.0007 6 14L6 16C6 16.9993 6.00425 17.5477 6.05539 17.928C6.05605 17.933 6.05672 17.9379 6.05739 17.9426C6.06214 17.9433 6.06699 17.9439 6.07195 17.9446C6.45234 17.9958 7.00065 18 8 18H12C12.9993 18 13.5477 17.9958 13.928 17.9446C13.933 17.9439 13.9379 17.9433 13.9426 17.9426C13.9433 17.9379 13.9439 17.933 13.9446 17.928C13.9958 17.5477 14 16.9994 14 16ZM13.9032 18.1381C13.9032 18.1381 13.9034 18.1375 13.9039 18.1363L13.9032 18.1381ZM14.1363 17.9039C14.1375 17.9034 14.1381 17.9032 14.1381 17.9032L14.1363 17.9039ZM5.86187 17.9032C5.86189 17.9032 5.86251 17.9034 5.86368 17.9039L5.86187 17.9032ZM5.86187 12.0968C5.86186 12.0968 5.86244 12.0966 5.86368 12.0961L5.86187 12.0968ZM13.9032 11.8619C13.9032 11.8619 13.9034 11.8624 13.9039 11.8637L13.9032 11.8619ZM15.4142 10.5858C14.8284 10 13.8856 10 12 10L8 10C6.11438 10 5.17157 10 4.58579 10.5858C4 11.1716 4 12.1144 4 14V16C4 17.8856 4 18.8284 4.58579 19.4142C5.17157 20 6.11438 20 8 20H12C13.8856 20 14.8284 20 15.4142 19.4142C16 18.8284 16 17.8856 16 16V14C16 12.1144 16 11.1716 15.4142 10.5858Z" fill="#484848"/>
<path fill-rule="evenodd" clip-rule="evenodd" d="M9 4H11C11.4933 4 11.7631 3.99892 11.9582 3.98561C11.9672 3.98499 11.9758 3.98436 11.9837 3.98374C11.9844 3.97576 11.985 3.96724 11.9856 3.95817C11.9989 3.76312 12 3.49331 12 3C12 2.50669 11.9989 2.23688 11.9856 2.04183C11.985 2.03276 11.9844 2.02424 11.9837 2.01626C11.9758 2.01564 11.9672 2.01501 11.9582 2.01439C11.7631 2.00108 11.4933 2 11 2L9 2C8.50669 2 8.23688 2.00108 8.04183 2.01439C8.03276 2.01501 8.02424 2.01564 8.01626 2.01627C8.01564 2.02425 8.01501 2.03276 8.01439 2.04183C8.00108 2.23688 8 2.50669 8 3C8 3.49331 8.00108 3.76312 8.01439 3.95817C8.01501 3.96724 8.01564 3.97576 8.01627 3.98374C8.02425 3.98436 8.03276 3.98499 8.04183 3.98561C8.23688 3.99892 8.50669 4 9 4ZM12.7654 0.152241C12.3978 1.49012e-07 11.9319 1.28199e-07 11 8.7465e-08L9 0C8.06812 -4.06916e-08 7.60218 -5.96046e-08 7.23463 0.152241C6.74458 0.355229 6.35523 0.744577 6.15224 1.23463C6 1.60217 6 2.06812 6 3C6 3.93188 6 4.39783 6.15224 4.76537C6.35523 5.25542 6.74458 5.64477 7.23463 5.84776C7.60218 6 8.06812 6 9 6H11C11.9319 6 12.3978 6 12.7654 5.84776C13.2554 5.64477 13.6448 5.25542 13.8478 4.76537C14 4.39783 14 3.93188 14 3C14 2.06812 14 1.60218 13.8478 1.23463C13.6448 0.744577 13.2554 0.355229 12.7654 0.152241Z" fill="#484848"/>
</svg>
