<svg width="18" height="18" viewBox="0 0 18 18" fill="none" xmlns="http://www.w3.org/2000/svg">
<path fill-rule="evenodd" clip-rule="evenodd" d="M13.5713 0C13.9861 0 14.358 0.256033 14.5059 0.643555L17.9346 9.64355C18.0517 9.95091 18.0099 10.2966 17.8232 10.5674C17.6366 10.8382 17.3289 11 17 11H14V14C14 14.5523 13.5523 15 13 15C12.4477 15 12 14.5523 12 14V11H10V16H12C12.5523 16 13 16.4477 13 17C13 17.5523 12.5523 18 12 18H6.00001C5.44773 18 5.00001 17.5523 5.00001 17C5.00001 16.4477 5.44773 16 6.00001 16H8.00001V11H1.00001C0.671125 11 0.363398 10.8382 0.176764 10.5674C-0.00986449 10.2966 -0.0516465 9.9509 0.0654363 9.64355L3.49415 0.643555L3.55958 0.504883C3.73539 0.196112 4.06568 6.56007e-06 4.42872 0H13.5713ZM2.45118 9H15.5488L12.8818 2H5.11817L2.45118 9Z" fill="#484848"/>
</svg>
