<svg width="24" height="24" viewBox="0 0 24 24" fill="none" xmlns="http://www.w3.org/2000/svg">
<path fill-rule="evenodd" clip-rule="evenodd" d="M16.5713 3C16.9861 3 17.358 3.25603 17.5059 3.64355L20.9346 12.6436C21.0517 12.9509 21.0099 13.2966 20.8232 13.5674C20.6366 13.8382 20.3289 14 20 14H17V17C17 17.5523 16.5523 18 16 18C15.4477 18 15 17.5523 15 17V14H13V19H15C15.5523 19 16 19.4477 16 20C16 20.5523 15.5523 21 15 21H9.00001C8.44773 21 8.00001 20.5523 8.00001 20C8.00001 19.4477 8.44773 19 9.00001 19H11V14H4.00001C3.67113 14 3.3634 13.8382 3.17676 13.5674C2.99014 13.2966 2.94835 12.9509 3.06544 12.6436L6.49415 3.64355L6.55958 3.50488C6.73539 3.19611 7.06568 3.00001 7.42872 3H16.5713ZM5.45118 12H18.5488L15.8818 5H8.11817L5.45118 12Z" fill="#484848"/>
</svg>
