<svg width="24" height="24" viewBox="0 0 24 24" fill="none" xmlns="http://www.w3.org/2000/svg">
<path fill-rule="evenodd" clip-rule="evenodd" d="M20 12V9C20 7.97483 19.9903 7.75432 19.9616 7.60982C19.8038 6.81644 19.1836 6.19624 18.3902 6.03843C18.2457 6.00969 18.0252 6 17 6H10C8.05784 6 6.80242 6.00425 5.87741 6.12861C5.00993 6.24524 4.73803 6.43354 4.58579 6.58579C4.43354 6.73803 4.24524 7.00993 4.12861 7.87741C4.00425 8.80242 4 10.0578 4 12C4 13.9422 4.00425 15.1976 4.12861 16.1226C4.24524 16.9901 4.43354 17.262 4.58579 17.4142C4.73803 17.5665 5.00993 17.7548 5.87741 17.8714C6.80242 17.9958 8.05784 18 10 18H14C15.9422 18 17.1976 17.9958 18.1226 17.8714C18.9901 17.7548 19.262 17.5665 19.4142 17.4142C19.5665 17.262 19.7548 16.9901 19.8714 16.1226C19.9958 15.1976 20 13.9422 20 12ZM22 9V12C22 15.7712 22 17.6569 20.8284 18.8284C19.6569 20 17.7712 20 14 20H10C6.22876 20 4.34315 20 3.17157 18.8284C2 17.6569 2 15.7712 2 12C2 8.22876 2 6.34315 3.17157 5.17157C4.34315 4 6.22876 4 10 4H17C17.9293 4 18.394 4 18.7804 4.07686C20.3671 4.39249 21.6075 5.63288 21.9231 7.21964C22 7.60603 22 8.07069 22 9Z" fill="#484848"/>
<path fill-rule="evenodd" clip-rule="evenodd" d="M16 15C16 15.5523 15.5523 16 15 16H9C8.44772 16 8 15.5523 8 15C8 14.4477 8.44772 14 9 14H15C15.5523 14 16 14.4477 16 15Z" fill="#484848"/>
<path d="M19 15C19 15.5523 18.5523 16 18 16C17.4477 16 17 15.5523 17 15C17 14.4477 17.4477 14 18 14C18.5523 14 19 14.4477 19 15Z" fill="#484848"/>
<path d="M7 15C7 15.5523 6.55228 16 6 16C5.44772 16 5 15.5523 5 15C5 14.4477 5.44772 14 6 14C6.55228 14 7 14.4477 7 15Z" fill="#484848"/>
<path d="M7 12C7 12.5523 6.55228 13 6 13C5.44772 13 5 12.5523 5 12C5 11.4477 5.44772 11 6 11C6.55228 11 7 11.4477 7 12Z" fill="#484848"/>
<path d="M7 9C7 9.55228 6.55228 10 6 10C5.44772 10 5 9.55228 5 9C5 8.44772 5.44772 8 6 8C6.55228 8 7 8.44772 7 9Z" fill="#484848"/>
<path d="M10 12C10 12.5523 9.55228 13 9 13C8.44772 13 8 12.5523 8 12C8 11.4477 8.44772 11 9 11C9.55228 11 10 11.4477 10 12Z" fill="#484848"/>
<path d="M10 9C10 9.55228 9.55228 10 9 10C8.44772 10 8 9.55228 8 9C8 8.44772 8.44772 8 9 8C9.55228 8 10 8.44772 10 9Z" fill="#484848"/>
<path d="M13 12C13 12.5523 12.5523 13 12 13C11.4477 13 11 12.5523 11 12C11 11.4477 11.4477 11 12 11C12.5523 11 13 11.4477 13 12Z" fill="#484848"/>
<path d="M13 9C13 9.55228 12.5523 10 12 10C11.4477 10 11 9.55228 11 9C11 8.44772 11.4477 8 12 8C12.5523 8 13 8.44772 13 9Z" fill="#484848"/>
<path d="M16 12C16 12.5523 15.5523 13 15 13C14.4477 13 14 12.5523 14 12C14 11.4477 14.4477 11 15 11C15.5523 11 16 11.4477 16 12Z" fill="#484848"/>
<path d="M16 9C16 9.55228 15.5523 10 15 10C14.4477 10 14 9.55228 14 9C14 8.44772 14.4477 8 15 8C15.5523 8 16 8.44772 16 9Z" fill="#484848"/>
<path d="M19 12C19 12.5523 18.5523 13 18 13C17.4477 13 17 12.5523 17 12C17 11.4477 17.4477 11 18 11C18.5523 11 19 11.4477 19 12Z" fill="#484848"/>
<path d="M19 9C19 9.55228 18.5523 10 18 10C17.4477 10 17 9.55228 17 9C17 8.44772 17.4477 8 18 8C18.5523 8 19 8.44772 19 9Z" fill="#484848"/>
</svg>
