<svg width="20" height="16" viewBox="0 0 20 16" fill="none" xmlns="http://www.w3.org/2000/svg">
<path fill-rule="evenodd" clip-rule="evenodd" d="M18 8V5C18 3.97483 17.9903 3.75432 17.9616 3.60982C17.8038 2.81644 17.1836 2.19624 16.3902 2.03843C16.2457 2.00969 16.0252 2 15 2H8C6.05784 2 4.80242 2.00425 3.87741 2.12861C3.00993 2.24524 2.73803 2.43354 2.58579 2.58579C2.43354 2.73803 2.24524 3.00993 2.12861 3.87741C2.00425 4.80242 2 6.05784 2 8C2 9.94216 2.00425 11.1976 2.12861 12.1226C2.24524 12.9901 2.43354 13.262 2.58579 13.4142C2.73803 13.5665 3.00993 13.7548 3.87741 13.8714C4.80242 13.9958 6.05784 14 8 14H12C13.9422 14 15.1976 13.9958 16.1226 13.8714C16.9901 13.7548 17.262 13.5665 17.4142 13.4142C17.5665 13.262 17.7548 12.9901 17.8714 12.1226C17.9958 11.1976 18 9.94216 18 8ZM20 5V8C20 11.7712 20 13.6569 18.8284 14.8284C17.6569 16 15.7712 16 12 16H8C4.22876 16 2.34315 16 1.17157 14.8284C0 13.6569 0 11.7712 0 8C0 4.22876 0 2.34315 1.17157 1.17157C2.34315 0 4.22876 0 8 0H15C15.9293 0 16.394 0 16.7804 0.0768589C18.3671 0.392486 19.6075 1.63288 19.9231 3.21964C20 3.60603 20 4.07069 20 5Z" fill="#484848"/>
<path fill-rule="evenodd" clip-rule="evenodd" d="M14 11C14 11.5523 13.5523 12 13 12H7C6.44772 12 6 11.5523 6 11C6 10.4477 6.44772 10 7 10H13C13.5523 10 14 10.4477 14 11Z" fill="#484848"/>
<path d="M17 11C17 11.5523 16.5523 12 16 12C15.4477 12 15 11.5523 15 11C15 10.4477 15.4477 10 16 10C16.5523 10 17 10.4477 17 11Z" fill="#484848"/>
<path d="M5 11C5 11.5523 4.55228 12 4 12C3.44772 12 3 11.5523 3 11C3 10.4477 3.44772 10 4 10C4.55228 10 5 10.4477 5 11Z" fill="#484848"/>
<path d="M5 8C5 8.55229 4.55228 9 4 9C3.44772 9 3 8.55229 3 8C3 7.44772 3.44772 7 4 7C4.55228 7 5 7.44772 5 8Z" fill="#484848"/>
<path d="M5 5C5 5.55228 4.55228 6 4 6C3.44772 6 3 5.55228 3 5C3 4.44772 3.44772 4 4 4C4.55228 4 5 4.44772 5 5Z" fill="#484848"/>
<path d="M8 8C8 8.55229 7.55228 9 7 9C6.44772 9 6 8.55229 6 8C6 7.44772 6.44772 7 7 7C7.55228 7 8 7.44772 8 8Z" fill="#484848"/>
<path d="M8 5C8 5.55228 7.55228 6 7 6C6.44772 6 6 5.55228 6 5C6 4.44772 6.44772 4 7 4C7.55228 4 8 4.44772 8 5Z" fill="#484848"/>
<path d="M11 8C11 8.55229 10.5523 9 10 9C9.44771 9 9 8.55229 9 8C9 7.44772 9.44771 7 10 7C10.5523 7 11 7.44772 11 8Z" fill="#484848"/>
<path d="M11 5C11 5.55228 10.5523 6 10 6C9.44771 6 9 5.55228 9 5C9 4.44772 9.44771 4 10 4C10.5523 4 11 4.44772 11 5Z" fill="#484848"/>
<path d="M14 8C14 8.55229 13.5523 9 13 9C12.4477 9 12 8.55229 12 8C12 7.44772 12.4477 7 13 7C13.5523 7 14 7.44772 14 8Z" fill="#484848"/>
<path d="M14 5C14 5.55228 13.5523 6 13 6C12.4477 6 12 5.55228 12 5C12 4.44772 12.4477 4 13 4C13.5523 4 14 4.44772 14 5Z" fill="#484848"/>
<path d="M17 8C17 8.55229 16.5523 9 16 9C15.4477 9 15 8.55229 15 8C15 7.44772 15.4477 7 16 7C16.5523 7 17 7.44772 17 8Z" fill="#484848"/>
<path d="M17 5C17 5.55228 16.5523 6 16 6C15.4477 6 15 5.55228 15 5C15 4.44772 15.4477 4 16 4C16.5523 4 17 4.44772 17 5Z" fill="#484848"/>
</svg>
