<svg width="16" height="20" viewBox="0 0 16 20" fill="none" xmlns="http://www.w3.org/2000/svg">
<path fill-rule="evenodd" clip-rule="evenodd" d="M14 12V8C14 6.05784 13.9958 4.80242 13.8714 3.87741C13.7548 3.00993 13.5665 2.73803 13.4142 2.58579C13.262 2.43354 12.9901 2.24524 12.1226 2.12861C11.1976 2.00425 9.94216 2 8 2C6.05784 2 4.80242 2.00425 3.87741 2.12861C3.00993 2.24524 2.73803 2.43354 2.58579 2.58579C2.43354 2.73803 2.24524 3.00993 2.12861 3.87741C2.00425 4.80242 2 6.05784 2 8V12C2 13.9422 2.00425 15.1976 2.12861 16.1226C2.24524 16.9901 2.43354 17.262 2.58579 17.4142C2.73803 17.5665 3.00993 17.7548 3.87741 17.8714C4.80242 17.9958 6.05784 18 8 18C9.94216 18 11.1976 17.9958 12.1226 17.8714C12.9901 17.7548 13.262 17.5665 13.4142 17.4142C13.5665 17.262 13.7548 16.9901 13.8714 16.1226C13.9958 15.1976 14 13.9422 14 12ZM1.17157 1.17157C0 2.34315 0 4.22876 0 8V12C0 15.7712 0 17.6569 1.17157 18.8284C2.34315 20 4.22876 20 8 20C11.7712 20 13.6569 20 14.8284 18.8284C16 17.6569 16 15.7712 16 12V8C16 4.22876 16 2.34315 14.8284 1.17157C13.6569 0 11.7712 0 8 0C4.22876 0 2.34315 0 1.17157 1.17157Z" fill="#484848"/>
<path d="M9 16C9 16.5523 8.55229 17 8 17C7.44772 17 7 16.5523 7 16C7 15.4477 7.44772 15 8 15C8.55229 15 9 15.4477 9 16Z" fill="#484848"/>
</svg>
