<svg width="24" height="24" viewBox="0 0 24 24" fill="none" xmlns="http://www.w3.org/2000/svg">
<path fill-rule="evenodd" clip-rule="evenodd" d="M20 10.5V9C20 7.97483 19.9903 7.75432 19.9616 7.60982C19.8038 6.81644 19.1836 6.19624 18.3902 6.03843C18.2457 6.00969 18.0252 6 17 6H8.5C7.29826 6 6.52227 6.00169 5.93259 6.05184C5.36775 6.09989 5.15991 6.18126 5.05721 6.23616C4.70835 6.42262 4.42262 6.70835 4.23616 7.05721C4.18126 7.15991 4.09989 7.36775 4.05184 7.93259C4.00169 8.52227 4 9.29826 4 10.5C4 11.7017 4.00169 12.4777 4.05184 13.0674C4.09989 13.6323 4.18126 13.8401 4.23616 13.9428C4.42262 14.2916 4.70835 14.5774 5.05721 14.7638C5.15991 14.8187 5.36775 14.9001 5.93259 14.9482C6.52227 14.9983 7.29826 15 8.5 15H15.5C16.7017 15 17.4777 14.9983 18.0674 14.9482C18.6323 14.9001 18.8401 14.8187 18.9428 14.7638C19.2917 14.5774 19.5774 14.2916 19.7638 13.9428C19.8187 13.8401 19.9001 13.6323 19.9482 13.0674C19.9983 12.4777 20 11.7017 20 10.5ZM22 9V10.5C22 12.8346 22 14.0019 21.5277 14.8856C21.1548 15.5833 20.5833 16.1548 19.8856 16.5277C19.0019 17 17.8346 17 15.5 17H8.5C6.16537 17 4.99805 17 4.11441 16.5277C3.4167 16.1548 2.84525 15.5833 2.47231 14.8856C2 14.0019 2 12.8346 2 10.5C2 8.16537 2 6.99805 2.47231 6.11441C2.84525 5.4167 3.4167 4.84525 4.11441 4.47231C4.99805 4 6.16537 4 8.5 4H17C17.9293 4 18.394 4 18.7804 4.07686C20.3671 4.39249 21.6075 5.63288 21.9231 7.21964C22 7.60603 22 8.07069 22 9Z" fill="#484848"/>
<path fill-rule="evenodd" clip-rule="evenodd" d="M17 19C17 19.5523 16.5523 20 16 20H8C7.44771 20 7 19.5523 7 19C7 18.4477 7.44771 18 8 18H16C16.5523 18 17 18.4477 17 19Z" fill="#484848"/>
</svg>
