<svg width="20" height="16" viewBox="0 0 20 16" fill="none" xmlns="http://www.w3.org/2000/svg">
<path fill-rule="evenodd" clip-rule="evenodd" d="M18 6.5V5C18 3.97483 17.9903 3.75432 17.9616 3.60982C17.8038 2.81644 17.1836 2.19624 16.3902 2.03843C16.2457 2.00969 16.0252 2 15 2H6.5C5.29826 2 4.52227 2.00169 3.93259 2.05184C3.36775 2.09989 3.15991 2.18126 3.05721 2.23616C2.70835 2.42262 2.42262 2.70835 2.23616 3.05721C2.18126 3.15991 2.09989 3.36775 2.05184 3.93259C2.00169 4.52227 2 5.29826 2 6.5C2 7.70174 2.00169 8.47773 2.05184 9.06741C2.09989 9.63225 2.18126 9.84009 2.23616 9.94279C2.42262 10.2916 2.70835 10.5774 3.05721 10.7638C3.15991 10.8187 3.36775 10.9001 3.93259 10.9482C4.52227 10.9983 5.29826 11 6.5 11H13.5C14.7017 11 15.4777 10.9983 16.0674 10.9482C16.6323 10.9001 16.8401 10.8187 16.9428 10.7638C17.2917 10.5774 17.5774 10.2916 17.7638 9.94279C17.8187 9.84009 17.9001 9.63225 17.9482 9.06741C17.9983 8.47773 18 7.70174 18 6.5ZM20 5V6.5C20 8.83463 20 10.0019 19.5277 10.8856C19.1548 11.5833 18.5833 12.1548 17.8856 12.5277C17.0019 13 15.8346 13 13.5 13H6.5C4.16537 13 2.99805 13 2.11441 12.5277C1.4167 12.1548 0.845249 11.5833 0.472315 10.8856C0 10.0019 0 8.83463 0 6.5C0 4.16537 0 2.99805 0.472315 2.11441C0.845249 1.4167 1.4167 0.845249 2.11441 0.472315C2.99805 0 4.16537 0 6.5 0H15C15.9293 0 16.394 0 16.7804 0.0768589C18.3671 0.392486 19.6075 1.63288 19.9231 3.21964C20 3.60603 20 4.07069 20 5Z" fill="#484848"/>
<path fill-rule="evenodd" clip-rule="evenodd" d="M15 15C15 15.5523 14.5523 16 14 16H6C5.44771 16 5 15.5523 5 15C5 14.4477 5.44771 14 6 14H14C14.5523 14 15 14.4477 15 15Z" fill="#484848"/>
</svg>
