<svg width="24" height="24" viewBox="0 0 24 24" fill="none" xmlns="http://www.w3.org/2000/svg">
<path fill-rule="evenodd" clip-rule="evenodd" d="M22 9.92932V10C22 10.5523 21.5523 11 21 11C20.4477 11 20 10.5523 20 10V9.96C20 9.4997 19.9995 9.20255 19.9846 8.9749C19.9702 8.75575 19.9456 8.67189 19.9298 8.63188C19.8281 8.37515 19.6249 8.17187 19.3681 8.07022C19.3281 8.05438 19.2442 8.02978 19.0251 8.01542C18.7974 8.0005 18.5003 8 18.04 8L5.96 8C5.4997 8 5.20255 8.0005 4.9749 8.01542C4.75575 8.02978 4.67189 8.05438 4.63188 8.07022C4.37515 8.17187 4.17187 8.37515 4.07023 8.63187C4.05438 8.67189 4.02978 8.75575 4.01542 8.9749C4.0005 9.20255 4 9.4997 4 9.96L4 15.04C4 15.5003 4.0005 15.7974 4.01542 16.0251C4.02978 16.2443 4.05438 16.3281 4.07022 16.3681C4.17187 16.6249 4.37515 16.8281 4.63187 16.9298C4.67189 16.9456 4.75575 16.9702 4.9749 16.9846C5.20255 16.9995 5.4997 17 5.96 17H7.5V19H5.9293C5.50831 19 5.14505 19 4.84413 18.9803C4.52743 18.9596 4.21034 18.9139 3.89563 18.7893C3.12544 18.4844 2.51561 17.8746 2.21067 17.1044C2.08607 16.7897 2.04045 16.4726 2.0197 16.1559C1.99998 15.855 1.99999 15.4917 2 15.0707L2 9.9293C1.99999 9.50831 1.99998 9.14505 2.0197 8.84413C2.04045 8.52743 2.08607 8.21034 2.21067 7.89563C2.51561 7.12544 3.12544 6.51561 3.89563 6.21067C4.21034 6.08607 4.52743 6.04045 4.84413 6.0197C5.14505 5.99998 5.50832 5.99999 5.92932 6L18.0707 6C18.4917 5.99999 18.8549 5.99998 19.1559 6.0197C19.4726 6.04045 19.7897 6.08607 20.1044 6.21067C20.8746 6.51561 21.4844 7.12544 21.7893 7.89563C21.9139 8.21034 21.9596 8.52743 21.9803 8.84413C22 9.14505 22 9.50832 22 9.92932Z" fill="#484848"/>
<path fill-rule="evenodd" clip-rule="evenodd" d="M9 6H15C15.4933 6 15.7631 5.99892 15.9582 5.98561C15.9672 5.98499 15.9758 5.98436 15.9837 5.98374C15.9844 5.97576 15.985 5.96724 15.9856 5.95817C15.9989 5.76312 16 5.49331 16 5C16 4.50669 15.9989 4.23688 15.9856 4.04183C15.985 4.03276 15.9844 4.02424 15.9837 4.01626C15.9758 4.01564 15.9672 4.01501 15.9582 4.01439C15.7631 4.00108 15.4933 4 15 4L9 4C8.5067 4 8.23688 4.00108 8.04183 4.01439C8.03276 4.01501 8.02425 4.01564 8.01627 4.01627C8.01564 4.02425 8.01501 4.03276 8.01439 4.04183C8.00109 4.23688 8 4.50669 8 5C8 5.49331 8.00109 5.76312 8.01439 5.95817C8.01501 5.96724 8.01564 5.97576 8.01627 5.98374C8.02425 5.98436 8.03276 5.98499 8.04183 5.98561C8.23688 5.99892 8.5067 6 9 6ZM16.7654 2.15224C16.3978 2 15.9319 2 15 2L9 2C8.06812 2 7.60218 2 7.23464 2.15224C6.74458 2.35523 6.35523 2.74458 6.15224 3.23463C6 3.60217 6 4.06812 6 5C6 5.93188 6 6.39783 6.15224 6.76537C6.35523 7.25542 6.74458 7.64477 7.23463 7.84776C7.60218 8 8.06812 8 9 8L15 8C15.9319 8 16.3978 8 16.7654 7.84776C17.2554 7.64477 17.6448 7.25542 17.8478 6.76537C18 6.39783 18 5.93188 18 5C18 4.06812 18 3.60218 17.8478 3.23463C17.6448 2.74458 17.2554 2.35523 16.7654 2.15224Z" fill="#484848"/>
<path d="M7 10C7 10.5523 6.55229 11 6 11C5.44772 11 5 10.5523 5 10C5 9.44772 5.44772 9 6 9C6.55229 9 7 9.44772 7 10Z" fill="#484848"/>
<path d="M18 17C18 17.5523 17.5523 18 17 18C16.4477 18 16 17.5523 16 17C16 16.4477 16.4477 16 17 16C17.5523 16 18 16.4477 18 17Z" fill="#484848"/>
<path fill-rule="evenodd" clip-rule="evenodd" d="M17 14.0023C16.9969 14.0036 16.9935 14.0051 16.9897 14.0068C16.9358 14.0309 16.8631 14.068 16.7194 14.1421L14.1969 15.4437C14.1283 15.4791 14.0748 15.5067 14.0287 15.5311C14.0185 15.5365 14.0091 15.5415 14.0004 15.5462C14 15.5882 14 15.6368 14 15.6987V18.3013C14 18.3632 14 18.4118 14.0004 18.4537C14.0092 18.4585 14.0187 18.4636 14.0291 18.469C14.0752 18.4935 14.1287 18.5211 14.1974 18.5565L16.7194 19.8578C16.8632 19.932 16.9359 19.9691 16.9898 19.9932C16.9936 19.9949 16.997 19.9964 17.0001 19.9977C17.0031 19.9964 17.0066 19.9949 17.0104 19.9932C17.0643 19.9691 17.137 19.932 17.2808 19.8578L19.8028 18.5565C19.8714 18.5211 19.9249 18.4935 19.971 18.4691C19.9813 18.4636 19.9908 18.4585 19.9996 18.4538C20 18.4123 20 18.3642 20 18.3032V15.6968C20 15.6358 20 15.5878 19.9996 15.5464C19.9913 15.5419 19.9824 15.5371 19.9728 15.532C19.927 15.5078 19.8739 15.4804 19.8058 15.4452L17.2803 14.1421C17.1362 14.0678 17.0637 14.0308 17.0098 14.0066C17.0062 14.005 17.0029 14.0036 17 14.0023ZM17.0056 20.0001C17.0056 20.0001 17.0056 20.0001 17.0056 20.0001ZM17.0056 20.0001C17.0053 20 17.005 19.9998 17.0047 19.9997ZM16.6214 12.0356C16.8713 11.9881 17.1288 11.9881 17.3788 12.0356C17.6711 12.0911 17.933 12.2273 18.1412 12.3357C18.1604 12.3456 18.1791 12.3554 18.1974 12.3648L20.7229 13.6679C20.7412 13.6774 20.7604 13.6871 20.7802 13.6973C20.9827 13.8007 21.2549 13.9397 21.4672 14.1504C21.6538 14.3357 21.8022 14.5613 21.8947 14.8159C22.0034 15.1147 22.0015 15.431 22.0002 15.6382C22.0001 15.6589 22 15.6784 22 15.6968V18.3032C22 18.3215 22.0001 18.3411 22.0002 18.3617C22.0015 18.5689 22.0034 18.8852 21.8947 19.1841C21.8021 19.4389 21.6536 19.6644 21.4672 19.8494C21.2544 20.0607 20.9819 20.1999 20.7772 20.3045C20.7574 20.3146 20.7382 20.3244 20.7198 20.3339L18.1978 21.6352C18.1799 21.6445 18.1615 21.654 18.1426 21.6638C17.9336 21.7725 17.6714 21.9088 17.3788 21.9644C17.1288 22.0119 16.8713 22.0119 16.6214 21.9644C16.3287 21.9088 16.0665 21.7725 15.8575 21.6638C15.8387 21.654 15.8203 21.6445 15.8023 21.6352L13.2803 20.3339C13.2618 20.3244 13.2426 20.3145 13.2228 20.3044C13.0182 20.1999 12.7456 20.0606 12.5328 19.8494C12.3461 19.6641 12.1979 19.4385 12.1054 19.1841C11.9967 18.885 11.9985 18.5683 11.9998 18.3602C11.9999 18.3394 12 18.3198 12 18.3013V15.6987C12 15.6803 11.9999 15.6606 11.9998 15.6398C11.9985 15.4317 11.9967 15.115 12.1054 14.8159C12.1978 14.5616 12.3459 14.3359 12.5328 14.1504C12.7455 13.9394 13.018 13.8002 13.222 13.696C13.242 13.6858 13.2613 13.6759 13.2798 13.6663L15.8023 12.3648C15.8202 12.3555 15.8386 12.346 15.8574 12.3362C16.0665 12.2275 16.3287 12.0912 16.6214 12.0356Z" fill="#484848"/>
<path fill-rule="evenodd" clip-rule="evenodd" d="M11 15C11 15.5523 10.5523 16 10 16C9.52037 16 9.21073 16.0005 8.97375 16.0167C8.74575 16.0323 8.65892 16.0589 8.6173 16.0761C8.37228 16.1776 8.1776 16.3723 8.07611 16.6173C8.05887 16.6589 8.03225 16.7458 8.01669 16.9738C8.00052 17.2107 7.99998 17.5204 7.99998 18C7.99997 18.4796 8.00051 18.7892 8.01668 19.0262C8.03223 19.2542 8.05885 19.3411 8.07608 19.3827C8.17758 19.6277 8.37225 19.8224 8.61728 19.9239C8.65889 19.9411 8.74573 19.9677 8.97373 19.9833C9.21071 19.9995 9.52036 20 9.99999 20C10.5523 20 11 20.4477 11 21C11 21.5523 10.5523 22 9.99999 22H9.968C9.52934 22 9.15085 22 8.83759 21.9787C8.50776 21.9561 8.17784 21.9066 7.85191 21.7716C7.11682 21.4672 6.5328 20.8831 6.22832 20.148C6.09332 19.8221 6.04382 19.4922 6.02131 19.1624C5.99994 18.8491 5.99996 18.4706 5.99997 18.032L5.99997 17.968C5.99997 17.5293 5.99996 17.1509 6.02134 16.8376C6.04384 16.5078 6.09335 16.1779 6.22835 15.8519C6.53284 15.1169 7.11686 14.5328 7.85194 14.2284C8.17787 14.0934 8.50778 14.0439 8.83761 14.0213C9.15087 14 9.52936 14 9.96802 14C9.97864 14 9.98931 14 10 14C10.5523 14 11 14.4477 11 15Z" fill="#484848"/>
</svg>
