<svg width="20" height="20" viewBox="0 0 20 20" fill="none" xmlns="http://www.w3.org/2000/svg">
<path fill-rule="evenodd" clip-rule="evenodd" d="M20 7.92932V8C20 8.55228 19.5523 9 19 9C18.4477 9 18 8.55229 18 8V7.96C18 7.4997 17.9995 7.20255 17.9846 6.9749C17.9702 6.75575 17.9456 6.67189 17.9298 6.63188C17.8281 6.37515 17.6249 6.17187 17.3681 6.07022C17.3281 6.05438 17.2442 6.02978 17.0251 6.01542C16.7974 6.0005 16.5003 6 16.04 6L3.96 6C3.4997 6 3.20255 6.0005 2.9749 6.01542C2.75575 6.02978 2.67189 6.05438 2.63188 6.07022C2.37515 6.17187 2.17187 6.37514 2.07023 6.63187C2.05438 6.67189 2.02978 6.75575 2.01542 6.9749C2.0005 7.20255 2 7.4997 2 7.96L2 13.04C2 13.5003 2.0005 13.7974 2.01542 14.0251C2.02978 14.2443 2.05438 14.3281 2.07022 14.3681C2.17187 14.6249 2.37515 14.8281 2.63187 14.9298C2.67189 14.9456 2.75575 14.9702 2.9749 14.9846C3.20255 14.9995 3.4997 15 3.96 15H5.5V17H3.9293C3.50831 17 3.14505 17 2.84413 16.9803C2.52743 16.9596 2.21034 16.9139 1.89563 16.7893C1.12544 16.4844 0.51561 15.8746 0.210671 15.1044C0.0860677 14.7897 0.0404477 14.4726 0.0196958 14.1559C-2.23704e-05 13.855 -1.09099e-05 13.4917 5.52568e-07 13.0707L7.77306e-07 7.9293C-1.06484e-05 7.50831 -2.20761e-05 7.14505 0.0196961 6.84413C0.0404481 6.52743 0.086068 6.21034 0.210671 5.89563C0.515611 5.12544 1.12544 4.51561 1.89563 4.21067C2.21034 4.08607 2.52743 4.04045 2.84413 4.0197C3.14505 3.99998 3.50832 3.99999 3.92932 4L16.0707 4C16.4917 3.99999 16.8549 3.99998 17.1559 4.0197C17.4726 4.04045 17.7897 4.08607 18.1044 4.21067C18.8746 4.51561 19.4844 5.12544 19.7893 5.89563C19.9139 6.21034 19.9596 6.52743 19.9803 6.84413C20 7.14505 20 7.50832 20 7.92932Z" fill="#484848"/>
<path fill-rule="evenodd" clip-rule="evenodd" d="M7 4H13C13.4933 4 13.7631 3.99892 13.9582 3.98561C13.9672 3.98499 13.9758 3.98436 13.9837 3.98374C13.9844 3.97576 13.985 3.96724 13.9856 3.95817C13.9989 3.76312 14 3.49331 14 3C14 2.50669 13.9989 2.23688 13.9856 2.04183C13.985 2.03276 13.9844 2.02424 13.9837 2.01626C13.9758 2.01564 13.9672 2.01501 13.9582 2.01439C13.7631 2.00108 13.4933 2 13 2L7 2C6.5067 2 6.23688 2.00108 6.04183 2.01439C6.03276 2.01501 6.02425 2.01564 6.01627 2.01627C6.01564 2.02425 6.01501 2.03276 6.01439 2.04183C6.00109 2.23688 6 2.50669 6 3C6 3.49331 6.00109 3.76312 6.01439 3.95817C6.01501 3.96724 6.01564 3.97576 6.01627 3.98374C6.02425 3.98436 6.03276 3.98499 6.04183 3.98561C6.23688 3.99892 6.5067 4 7 4ZM14.7654 0.152241C14.3978 3.27826e-07 13.9319 3.03044e-07 13 2.62311e-07L7 0C6.06812 -4.06916e-08 5.60218 -5.96046e-08 5.23464 0.152241C4.74458 0.355229 4.35523 0.744577 4.15224 1.23463C4 1.60217 4 2.06812 4 3C4 3.93188 4 4.39783 4.15224 4.76537C4.35523 5.25542 4.74458 5.64477 5.23463 5.84776C5.60218 6 6.06812 6 7 6L13 6C13.9319 6 14.3978 6 14.7654 5.84776C15.2554 5.64477 15.6448 5.25542 15.8478 4.76537C16 4.39783 16 3.93188 16 3C16 2.06812 16 1.60218 15.8478 1.23463C15.6448 0.744577 15.2554 0.355229 14.7654 0.152241Z" fill="#484848"/>
<path d="M5 8C5 8.55229 4.55229 9 4 9C3.44772 9 3 8.55229 3 8C3 7.44772 3.44772 7 4 7C4.55229 7 5 7.44772 5 8Z" fill="#484848"/>
<path d="M16 15C16 15.5523 15.5523 16 15 16C14.4477 16 14 15.5523 14 15C14 14.4477 14.4477 14 15 14C15.5523 14 16 14.4477 16 15Z" fill="#484848"/>
<path fill-rule="evenodd" clip-rule="evenodd" d="M15 12.0023C14.9969 12.0036 14.9935 12.0051 14.9897 12.0068C14.9358 12.0309 14.8631 12.068 14.7194 12.1421L12.1969 13.4437C12.1283 13.4791 12.0748 13.5067 12.0287 13.5311C12.0185 13.5365 12.0091 13.5415 12.0004 13.5462C12 13.5882 12 13.6368 12 13.6987V16.3013C12 16.3632 12 16.4118 12.0004 16.4537C12.0092 16.4585 12.0187 16.4636 12.0291 16.469C12.0752 16.4935 12.1287 16.5211 12.1974 16.5565L14.7194 17.8578C14.8632 17.932 14.9359 17.9691 14.9898 17.9932C14.9936 17.9949 14.997 17.9964 15.0001 17.9977C15.0031 17.9964 15.0066 17.9949 15.0104 17.9932C15.0643 17.9691 15.137 17.932 15.2808 17.8578L17.8028 16.5565C17.8714 16.5211 17.9249 16.4935 17.971 16.4691C17.9813 16.4636 17.9908 16.4585 17.9996 16.4538C18 16.4123 18 16.3642 18 16.3032V13.6968C18 13.6358 18 13.5878 17.9996 13.5464C17.9913 13.5419 17.9824 13.5371 17.9728 13.532C17.927 13.5078 17.8739 13.4804 17.8058 13.4452L15.2803 12.1421C15.1362 12.0678 15.0637 12.0308 15.0098 12.0066C15.0062 12.005 15.0029 12.0036 15 12.0023ZM15.0056 18.0001C15.0056 18.0001 15.0056 18.0001 15.0056 18.0001V18.0001ZM15.0056 18.0001C15.0053 18 15.005 17.9998 15.0047 17.9997L15.0056 18.0001ZM14.6214 10.0356C14.8713 9.98813 15.1288 9.98813 15.3788 10.0356C15.6711 10.0911 15.933 10.2273 16.1412 10.3357C16.1604 10.3456 16.1791 10.3554 16.1974 10.3648L18.7229 11.6679C18.7412 11.6774 18.7604 11.6871 18.7802 11.6973C18.9827 11.8007 19.2549 11.9397 19.4672 12.1504C19.6538 12.3357 19.8022 12.5613 19.8947 12.8159C20.0034 13.1147 20.0015 13.431 20.0002 13.6382C20.0001 13.6589 20 13.6784 20 13.6968V16.3032C20 16.3215 20.0001 16.3411 20.0002 16.3617C20.0015 16.5689 20.0034 16.8852 19.8947 17.1841C19.8021 17.4389 19.6536 17.6644 19.4672 17.8494C19.2544 18.0607 18.9819 18.1999 18.7772 18.3045C18.7574 18.3146 18.7382 18.3244 18.7198 18.3339L16.1978 19.6352C16.1799 19.6445 16.1615 19.654 16.1426 19.6638C15.9336 19.7725 15.6714 19.9088 15.3788 19.9644C15.1288 20.0119 14.8713 20.0119 14.6214 19.9644C14.3287 19.9088 14.0665 19.7725 13.8575 19.6638C13.8387 19.654 13.8203 19.6445 13.8023 19.6352L11.2803 18.3339C11.2618 18.3244 11.2426 18.3145 11.2228 18.3044C11.0182 18.1999 10.7456 18.0606 10.5328 17.8494C10.3461 17.6641 10.1979 17.4385 10.1054 17.1841C9.99665 16.885 9.99853 16.5683 9.99976 16.3602C9.99989 16.3394 10 16.3198 10 16.3013V13.6987C10 13.6803 9.99989 13.6606 9.99976 13.6398C9.99853 13.4317 9.99665 13.115 10.1054 12.8159C10.1978 12.5616 10.3459 12.3359 10.5328 12.1504C10.7455 11.9394 11.018 11.8002 11.222 11.696C11.242 11.6858 11.2613 11.6759 11.2798 11.6663L13.8023 10.3648C13.8202 10.3555 13.8386 10.346 13.8574 10.3362C14.0665 10.2275 14.3287 10.0912 14.6214 10.0356Z" fill="#484848"/>
<path fill-rule="evenodd" clip-rule="evenodd" d="M9 13C9 13.5523 8.55229 14 8 14C7.52037 14 7.21073 14.0005 6.97375 14.0167C6.74575 14.0323 6.65892 14.0589 6.6173 14.0761C6.37228 14.1776 6.1776 14.3723 6.07611 14.6173C6.05887 14.6589 6.03225 14.7458 6.01669 14.9738C6.00052 15.2107 5.99998 15.5204 5.99998 16C5.99997 16.4796 6.00051 16.7892 6.01668 17.0262C6.03223 17.2542 6.05885 17.3411 6.07608 17.3827C6.17758 17.6277 6.37225 17.8224 6.61728 17.9239C6.65889 17.9411 6.74573 17.9677 6.97373 17.9833C7.21071 17.9995 7.52036 18 7.99999 18C8.55227 18 8.99999 18.4477 8.99999 19C8.99999 19.5523 8.55227 20 7.99999 20H7.968C7.52934 20 7.15085 20 6.83759 19.9787C6.50776 19.9561 6.17784 19.9066 5.85191 19.7716C5.11682 19.4672 4.5328 18.8831 4.22832 18.148C4.09332 17.8221 4.04382 17.4922 4.02131 17.1624C3.99994 16.8491 3.99996 16.4706 3.99997 16.032L3.99997 15.968C3.99997 15.5293 3.99996 15.1509 4.02134 14.8376C4.04384 14.5078 4.09335 14.1779 4.22835 13.8519C4.53284 13.1169 5.11686 12.5328 5.85194 12.2284C6.17787 12.0934 6.50778 12.0439 6.83761 12.0213C7.15087 12 7.52936 12 7.96802 12C7.97864 12 7.98931 12 8 12C8.55229 12 9 12.4477 9 13Z" fill="#484848"/>
</svg>
