<svg width="20" height="20" viewBox="0 0 20 20" fill="none" xmlns="http://www.w3.org/2000/svg">
<path fill-rule="evenodd" clip-rule="evenodd" d="M20 7.92932V11C20 11.5523 19.5523 12 19 12C18.4477 12 18 11.5523 18 11V7.96C18 7.4997 17.9995 7.20255 17.9846 6.9749C17.9702 6.75575 17.9456 6.67189 17.9298 6.63188C17.8281 6.37515 17.6249 6.17187 17.3681 6.07022C17.3281 6.05438 17.2442 6.02978 17.0251 6.01542C16.7974 6.0005 16.5003 6 16.04 6L3.96 6C3.4997 6 3.20255 6.0005 2.9749 6.01542C2.75575 6.02978 2.67189 6.05438 2.63188 6.07022C2.37515 6.17187 2.17187 6.37514 2.07023 6.63187C2.05438 6.67189 2.02978 6.75575 2.01542 6.9749C2.0005 7.20255 2 7.4997 2 7.96L2 13.04C2 13.5003 2.0005 13.7974 2.01542 14.0251C2.02978 14.2443 2.05438 14.3281 2.07022 14.3681C2.17187 14.6249 2.37515 14.8281 2.63187 14.9298C2.67189 14.9456 2.75575 14.9702 2.9749 14.9846C3.20255 14.9995 3.4997 15 3.96 15H5.5V17H3.9293C3.50831 17 3.14505 17 2.84413 16.9803C2.52743 16.9596 2.21034 16.9139 1.89563 16.7893C1.12544 16.4844 0.51561 15.8746 0.210671 15.1044C0.0860677 14.7897 0.0404477 14.4726 0.0196958 14.1559C-2.23704e-05 13.855 -1.09099e-05 13.4917 5.52568e-07 13.0707L7.77306e-07 7.9293C-1.06484e-05 7.50831 -2.20761e-05 7.14505 0.0196961 6.84413C0.0404481 6.52743 0.086068 6.21034 0.210671 5.89563C0.515611 5.12544 1.12544 4.51561 1.89563 4.21067C2.21034 4.08607 2.52743 4.04045 2.84413 4.0197C3.14505 3.99998 3.50832 3.99999 3.92932 4L16.0707 4C16.4917 3.99999 16.8549 3.99998 17.1559 4.0197C17.4726 4.04045 17.7897 4.08607 18.1044 4.21067C18.8746 4.51561 19.4844 5.12544 19.7893 5.89563C19.9139 6.21034 19.9596 6.52743 19.9803 6.84413C20 7.14505 20 7.50832 20 7.92932Z" fill="#484848"/>
<path fill-rule="evenodd" clip-rule="evenodd" d="M7 4H13C13.4933 4 13.7631 3.99892 13.9582 3.98561C13.9672 3.98499 13.9758 3.98436 13.9837 3.98374C13.9844 3.97576 13.985 3.96724 13.9856 3.95817C13.9989 3.76312 14 3.49331 14 3C14 2.50669 13.9989 2.23688 13.9856 2.04183C13.985 2.03276 13.9844 2.02424 13.9837 2.01626C13.9758 2.01564 13.9672 2.01501 13.9582 2.01439C13.7631 2.00108 13.4933 2 13 2L7 2C6.5067 2 6.23688 2.00108 6.04183 2.01439C6.03276 2.01501 6.02425 2.01564 6.01627 2.01627C6.01564 2.02425 6.01501 2.03276 6.01439 2.04183C6.00109 2.23688 6 2.50669 6 3C6 3.49331 6.00109 3.76312 6.01439 3.95817C6.01501 3.96724 6.01564 3.97576 6.01627 3.98374C6.02425 3.98436 6.03276 3.98499 6.04183 3.98561C6.23688 3.99892 6.5067 4 7 4ZM14.7654 0.152241C14.3978 3.27826e-07 13.9319 3.03044e-07 13 2.62311e-07L7 0C6.06812 -4.06916e-08 5.60218 -5.96046e-08 5.23464 0.152241C4.74458 0.355229 4.35523 0.744577 4.15224 1.23463C4 1.60217 4 2.06812 4 3C4 3.93188 4 4.39783 4.15224 4.76537C4.35523 5.25542 4.74458 5.64477 5.23463 5.84776C5.60218 6 6.06812 6 7 6L13 6C13.9319 6 14.3978 6 14.7654 5.84776C15.2554 5.64477 15.6448 5.25542 15.8478 4.76537C16 4.39783 16 3.93188 16 3C16 2.06812 16 1.60218 15.8478 1.23463C15.6448 0.744577 15.2554 0.355229 14.7654 0.152241Z" fill="#484848"/>
<path d="M5 8C5 8.55229 4.55229 9 4 9C3.44772 9 3 8.55229 3 8C3 7.44772 3.44772 7 4 7C4.55229 7 5 7.44772 5 8Z" fill="#484848"/>
<path fill-rule="evenodd" clip-rule="evenodd" d="M16 13C16 13.5523 15.5523 14 15 14H7.99997C7.52035 14 7.21072 14.0005 6.97374 14.0167C6.74575 14.0323 6.65892 14.0589 6.6173 14.0761C6.37227 14.1776 6.1776 14.3723 6.07611 14.6173C6.05887 14.6589 6.03225 14.7458 6.01669 14.9737C6.00052 15.2107 5.99998 15.5204 5.99997 16C5.99997 16.4796 6.00051 16.7892 6.01668 17.0262C6.03223 17.2542 6.05885 17.3411 6.07608 17.3827C6.17758 17.6277 6.37225 17.8224 6.61728 17.9239C6.65889 17.9411 6.74573 17.9677 6.97373 17.9833C7.21071 17.9995 7.52035 18 7.99997 18H9C9.55229 18 10 18.4477 10 19C10 19.5523 9.55229 20 9 20H7.96799C7.52933 20 7.15084 20 6.83758 19.9786C6.50775 19.9561 6.17784 19.9066 5.85191 19.7716C5.11682 19.4671 4.5328 18.8831 4.22832 18.148C4.09332 17.8221 4.04381 17.4922 4.02131 17.1624C3.99994 16.8491 3.99996 16.4706 3.99997 16.032V15.968C3.99997 15.5293 3.99996 15.1508 4.02133 14.8376C4.04384 14.5078 4.09335 14.1779 4.22835 13.8519C4.53284 13.1169 5.11686 12.5328 5.85194 12.2284C6.17786 12.0934 6.50777 12.0439 6.8376 12.0213C7.15086 12 7.52934 12 7.96799 12L15 12C15.5523 12 16 12.4477 16 13Z" fill="#484848"/>
<path fill-rule="evenodd" clip-rule="evenodd" d="M19.7071 14.2929C20.0976 14.6834 20.0976 15.3166 19.7071 15.7071L16.4142 19C15.6332 19.781 14.3668 19.781 13.5858 19L12.2929 17.7071C11.9024 17.3166 11.9024 16.6834 12.2929 16.2929C12.6834 15.9024 13.3166 15.9024 13.7071 16.2929L15 17.5858L18.2929 14.2929C18.6834 13.9024 19.3166 13.9024 19.7071 14.2929Z" fill="#484848"/>
</svg>
