<svg width="24" height="24" viewBox="0 0 24 24" fill="none" xmlns="http://www.w3.org/2000/svg">
<path fill-rule="evenodd" clip-rule="evenodd" d="M22 9.92932V13C22 13.5523 21.5523 14 21 14C20.4477 14 20 13.5523 20 13V9.96C20 9.4997 19.9995 9.20255 19.9846 8.9749C19.9702 8.75575 19.9456 8.67189 19.9298 8.63188C19.8281 8.37515 19.6249 8.17187 19.3681 8.07022C19.3281 8.05438 19.2442 8.02978 19.0251 8.01542C18.7974 8.0005 18.5003 8 18.04 8L5.96 8C5.4997 8 5.20255 8.0005 4.9749 8.01542C4.75575 8.02978 4.67189 8.05438 4.63188 8.07022C4.37515 8.17187 4.17187 8.37515 4.07023 8.63187C4.05438 8.67189 4.02978 8.75575 4.01542 8.9749C4.0005 9.20255 4 9.4997 4 9.96L4 15.04C4 15.5003 4.0005 15.7974 4.01542 16.0251C4.02978 16.2443 4.05438 16.3281 4.07022 16.3681C4.17187 16.6249 4.37515 16.8281 4.63187 16.9298C4.67189 16.9456 4.75575 16.9702 4.9749 16.9846C5.20255 16.9995 5.4997 17 5.96 17H7.5V19H5.9293C5.50831 19 5.14505 19 4.84413 18.9803C4.52743 18.9596 4.21034 18.9139 3.89563 18.7893C3.12544 18.4844 2.51561 17.8746 2.21067 17.1044C2.08607 16.7897 2.04045 16.4726 2.0197 16.1559C1.99998 15.855 1.99999 15.4917 2 15.0707L2 9.9293C1.99999 9.50831 1.99998 9.14505 2.0197 8.84413C2.04045 8.52743 2.08607 8.21034 2.21067 7.89563C2.51561 7.12544 3.12544 6.51561 3.89563 6.21067C4.21034 6.08607 4.52743 6.04045 4.84413 6.0197C5.14505 5.99998 5.50832 5.99999 5.92932 6L18.0707 6C18.4917 5.99999 18.8549 5.99998 19.1559 6.0197C19.4726 6.04045 19.7897 6.08607 20.1044 6.21067C20.8746 6.51561 21.4844 7.12544 21.7893 7.89563C21.9139 8.21034 21.9596 8.52743 21.9803 8.84413C22 9.14505 22 9.50832 22 9.92932Z" fill="#484848"/>
<path fill-rule="evenodd" clip-rule="evenodd" d="M9 6H15C15.4933 6 15.7631 5.99892 15.9582 5.98561C15.9672 5.98499 15.9758 5.98436 15.9837 5.98374C15.9844 5.97576 15.985 5.96724 15.9856 5.95817C15.9989 5.76312 16 5.49331 16 5C16 4.50669 15.9989 4.23688 15.9856 4.04183C15.985 4.03276 15.9844 4.02424 15.9837 4.01626C15.9758 4.01564 15.9672 4.01501 15.9582 4.01439C15.7631 4.00108 15.4933 4 15 4L9 4C8.5067 4 8.23688 4.00108 8.04183 4.01439C8.03276 4.01501 8.02425 4.01564 8.01627 4.01627C8.01564 4.02425 8.01501 4.03276 8.01439 4.04183C8.00109 4.23688 8 4.50669 8 5C8 5.49331 8.00109 5.76312 8.01439 5.95817C8.01501 5.96724 8.01564 5.97576 8.01627 5.98374C8.02425 5.98436 8.03276 5.98499 8.04183 5.98561C8.23688 5.99892 8.5067 6 9 6ZM16.7654 2.15224C16.3978 2 15.9319 2 15 2L9 2C8.06812 2 7.60218 2 7.23464 2.15224C6.74458 2.35523 6.35523 2.74458 6.15224 3.23463C6 3.60217 6 4.06812 6 5C6 5.93188 6 6.39783 6.15224 6.76537C6.35523 7.25542 6.74458 7.64477 7.23463 7.84776C7.60218 8 8.06812 8 9 8L15 8C15.9319 8 16.3978 8 16.7654 7.84776C17.2554 7.64477 17.6448 7.25542 17.8478 6.76537C18 6.39783 18 5.93188 18 5C18 4.06812 18 3.60218 17.8478 3.23463C17.6448 2.74458 17.2554 2.35523 16.7654 2.15224Z" fill="#484848"/>
<path d="M7 10C7 10.5523 6.55229 11 6 11C5.44772 11 5 10.5523 5 10C5 9.44772 5.44772 9 6 9C6.55229 9 7 9.44772 7 10Z" fill="#484848"/>
<path fill-rule="evenodd" clip-rule="evenodd" d="M18 15C18 15.5523 17.5523 16 17 16H9.99997C9.52035 16 9.21072 16.0005 8.97374 16.0167C8.74575 16.0323 8.65892 16.0589 8.6173 16.0761C8.37227 16.1776 8.1776 16.3723 8.07611 16.6173C8.05887 16.6589 8.03225 16.7458 8.01669 16.9737C8.00052 17.2107 7.99998 17.5204 7.99997 18C7.99997 18.4796 8.00051 18.7892 8.01668 19.0262C8.03223 19.2542 8.05885 19.3411 8.07608 19.3827C8.17758 19.6277 8.37225 19.8224 8.61728 19.9239C8.65889 19.9411 8.74573 19.9677 8.97373 19.9833C9.21071 19.9995 9.52035 20 9.99997 20H11C11.5523 20 12 20.4477 12 21C12 21.5523 11.5523 22 11 22H9.96799C9.52933 22 9.15084 22 8.83758 21.9786C8.50775 21.9561 8.17784 21.9066 7.85191 21.7716C7.11682 21.4672 6.5328 20.8831 6.22832 20.148C6.09332 19.8221 6.04381 19.4922 6.02131 19.1624C5.99994 18.8491 5.99996 18.4706 5.99997 18.032V17.968C5.99997 17.5293 5.99996 17.1508 6.02133 16.8376C6.04384 16.5078 6.09335 16.1779 6.22835 15.8519C6.53284 15.1169 7.11686 14.5328 7.85194 14.2284C8.17786 14.0934 8.50777 14.0439 8.8376 14.0213C9.15086 14 9.52934 14 9.96799 14L17 14C17.5523 14 18 14.4477 18 15Z" fill="#484848"/>
<path fill-rule="evenodd" clip-rule="evenodd" d="M21.7071 16.2929C22.0976 16.6834 22.0976 17.3166 21.7071 17.7071L18.4142 21C17.6332 21.781 16.3668 21.781 15.5858 21L14.2929 19.7071C13.9024 19.3166 13.9024 18.6834 14.2929 18.2929C14.6834 17.9024 15.3166 17.9024 15.7071 18.2929L17 19.5858L20.2929 16.2929C20.6834 15.9024 21.3166 15.9024 21.7071 16.2929Z" fill="#484848"/>
</svg>
