<svg width="24" height="24" viewBox="0 0 24 24" fill="none" xmlns="http://www.w3.org/2000/svg">
<path fill-rule="evenodd" clip-rule="evenodd" d="M22 10.9342C22 10.956 22 10.978 22 11L22 14.0658C22.0001 14.9523 22.0001 15.7161 21.9179 16.3278C21.8297 16.9833 21.631 17.6117 21.1213 18.1213C20.6117 18.631 19.9833 18.8297 19.3278 18.9179C18.7161 19.0001 17.9523 19.0001 17.0658 19L16.5 19V17H17C17.9711 17 18.5988 16.9979 19.0613 16.9357C19.495 16.8774 19.631 16.7832 19.7071 16.7071C19.7832 16.631 19.8774 16.495 19.9357 16.0613C19.9979 15.5988 20 14.9711 20 14V11C20 10.0289 19.9979 9.40121 19.9357 8.9387C19.8774 8.50497 19.7832 8.36902 19.7071 8.29289C19.631 8.21677 19.495 8.12262 19.0613 8.06431C18.5988 8.00212 17.9711 8 17 8L7.00001 8C6.02893 8 5.40122 8.00212 4.93871 8.06431C4.50497 8.12262 4.36902 8.21677 4.2929 8.29289C4.21677 8.36902 4.12263 8.50496 4.06431 8.9387C4.00213 9.40121 4.00001 10.0289 4.00001 11L4.00001 14C4.00001 14.9711 4.00213 15.5988 4.06431 16.0613C4.12263 16.495 4.21677 16.631 4.2929 16.7071C4.36902 16.7832 4.50497 16.8774 4.93871 16.9357C5.40122 16.9979 6.02893 17 7.00001 17H7.50001V19L6.93417 19C6.04769 19.0001 5.28387 19.0001 4.67221 18.9179C4.0167 18.8297 3.38835 18.631 2.87869 18.1213C2.36902 17.6117 2.17028 16.9833 2.08215 16.3278C1.99991 15.7161 1.99995 14.9523 2 14.0658L2 10.9342C1.99995 10.0477 1.99991 9.28387 2.08215 8.67221C2.17028 8.01669 2.36903 7.38834 2.87869 6.87868C3.38835 6.36902 4.0167 6.17027 4.67222 6.08214C5.28388 5.9999 6.04769 5.99995 6.93418 6L17 6C17.022 6 17.044 6 17.0658 6C17.9523 5.99995 18.7161 5.99991 19.3278 6.08214C19.9833 6.17027 20.6117 6.36902 21.1213 6.87868C21.631 7.38834 21.8297 8.01669 21.9179 8.67221C22.0001 9.28387 22.0001 10.0477 22 10.9342Z" fill="#484848"/>
<path fill-rule="evenodd" clip-rule="evenodd" d="M10 20H14C14.9994 20 15.5477 19.9958 15.9281 19.9446C15.933 19.9439 15.9379 19.9433 15.9426 19.9426C15.9433 19.9379 15.944 19.933 15.9446 19.9281C15.9958 19.5477 16 18.9994 16 18C16 17.0007 15.9958 16.4523 15.9446 16.072C15.944 16.067 15.9433 16.0621 15.9426 16.0574C15.9379 16.0567 15.933 16.0561 15.9281 16.0554C15.5477 16.0042 14.9994 16 14 16L10 16C9.00066 16 8.45234 16.0042 8.07196 16.0554C8.067 16.0561 8.06215 16.0567 8.05739 16.0574C8.05673 16.0621 8.05606 16.067 8.0554 16.072C8.00426 16.4523 8.00001 17.0007 8.00001 18C8.00001 18.9993 8.00426 19.5477 8.0554 19.928C8.05606 19.933 8.05673 19.9379 8.05739 19.9426C8.06215 19.9433 8.067 19.9439 8.07196 19.9446C8.45234 19.9958 9.00066 20 10 20ZM7.86188 19.9032L7.8637 19.9039ZM7.86188 16.0968L7.86368 16.0961ZM15.9032 15.8619L15.9039 15.8637ZM15.9032 20.1381L15.9039 20.1363ZM16.1363 19.9039L16.1381 19.9032ZM17.4142 14.5858C16.8284 14 15.8856 14 14 14L10 14C8.11439 14 7.17158 14 6.5858 14.5858C6.00001 15.1716 6.00001 16.1144 6.00001 18C6.00001 19.8856 6.00001 20.8284 6.58579 21.4142C7.17158 22 8.11439 22 10 22H14C15.8856 22 16.8284 22 17.4142 21.4142C18 20.8284 18 19.8856 18 18C18 16.1144 18 15.1716 17.4142 14.5858Z" fill="#484848"/>
<path fill-rule="evenodd" clip-rule="evenodd" d="M9.00001 6H15C15.4933 6 15.7631 5.99892 15.9582 5.98561C15.9672 5.98499 15.9758 5.98436 15.9837 5.98374C15.9844 5.97576 15.985 5.96724 15.9856 5.95817C15.9989 5.76312 16 5.49331 16 5C16 4.50669 15.9989 4.23688 15.9856 4.04183C15.985 4.03276 15.9844 4.02424 15.9837 4.01626C15.9758 4.01564 15.9672 4.01501 15.9582 4.01439C15.7631 4.00108 15.4933 4 15 4L9.00001 4C8.5067 4 8.23689 4.00108 8.04184 4.01439C8.03277 4.01501 8.02425 4.01564 8.01627 4.01627C8.01565 4.02425 8.01502 4.03276 8.0144 4.04183C8.00109 4.23688 8.00001 4.50669 8.00001 5C8.00001 5.49331 8.00109 5.76312 8.0144 5.95817C8.01502 5.96724 8.01565 5.97576 8.01627 5.98374C8.02425 5.98436 8.03277 5.98499 8.04184 5.98561C8.23689 5.99892 8.5067 6 9.00001 6ZM16.7654 2.15224C16.3978 2 15.9319 2 15 2L9.00001 2C8.06813 2 7.60218 2 7.23464 2.15224C6.74459 2.35523 6.35524 2.74458 6.15225 3.23463C6.00001 3.60217 6.00001 4.06812 6.00001 5C6.00001 5.93188 6.00001 6.39783 6.15225 6.76537C6.35524 7.25542 6.74459 7.64477 7.23464 7.84776C7.60218 8 8.06813 8 9.00001 8L15 8C15.9319 8 16.3978 8 16.7654 7.84776C17.2554 7.64477 17.6448 7.25542 17.8478 6.76537C18 6.39783 18 5.93188 18 5C18 4.06812 18 3.60218 17.8478 3.23463C17.6448 2.74458 17.2554 2.35523 16.7654 2.15224Z" fill="#484848"/>
<path d="M7.00001 10C7.00001 10.5523 6.55229 11 6.00001 11C5.44772 11 5.00001 10.5523 5.00001 10C5.00001 9.44772 5.44772 9 6.00001 9C6.55229 9 7.00001 9.44772 7.00001 10Z" fill="#484848"/>
</svg>
