<svg width="20" height="20" viewBox="0 0 20 20" fill="none" xmlns="http://www.w3.org/2000/svg">
<path fill-rule="evenodd" clip-rule="evenodd" d="M20 8.93418C20 8.95605 20 8.97799 20 9L20 12.0658C20.0001 12.9523 20.0001 13.7161 19.9179 14.3278C19.8297 14.9833 19.631 15.6117 19.1213 16.1213C18.6117 16.631 17.9833 16.8297 17.3278 16.9179C16.7161 17.0001 15.9523 17.0001 15.0658 17L14.5 17V15H15C15.9711 15 16.5988 14.9979 17.0613 14.9357C17.495 14.8774 17.631 14.7832 17.7071 14.7071C17.7832 14.631 17.8774 14.495 17.9357 14.0613C17.9979 13.5988 18 12.9711 18 12V9C18 8.02892 17.9979 7.40121 17.9357 6.9387C17.8774 6.50497 17.7832 6.36902 17.7071 6.29289C17.631 6.21677 17.495 6.12262 17.0613 6.06431C16.5988 6.00212 15.9711 6 15 6L5.00001 6C4.02893 6 3.40122 6.00212 2.93871 6.06431C2.50497 6.12262 2.36902 6.21677 2.2929 6.29289C2.21677 6.36902 2.12263 6.50496 2.06431 6.9387C2.00213 7.40121 2.00001 8.02892 2.00001 9L2.00001 12C2.00001 12.9711 2.00213 13.5988 2.06431 14.0613C2.12263 14.495 2.21677 14.631 2.2929 14.7071C2.36902 14.7832 2.50497 14.8774 2.93871 14.9357C3.40122 14.9979 4.02893 15 5.00001 15H5.50001V17L4.93417 17C4.04769 17.0001 3.28387 17.0001 2.67221 16.9179C2.0167 16.8297 1.38835 16.631 0.878687 16.1213C0.369025 15.6117 0.170279 14.9833 0.0821461 14.3278C-8.91984e-05 13.7161 -4.72056e-05 12.9523 2.42418e-06 12.0658L2.56107e-06 8.93419C-4.69912e-05 8.0477 -8.89227e-05 7.28387 0.0821464 6.67221C0.170279 6.01669 0.369025 5.38834 0.878688 4.87868C1.38835 4.36902 2.0167 4.17027 2.67222 4.08214C3.28388 3.9999 4.04769 3.99995 4.93418 4L15 4C15.022 4 15.044 4 15.0658 4C15.9523 3.99995 16.7161 3.99991 17.3278 4.08214C17.9833 4.17027 18.6117 4.36902 19.1213 4.87868C19.631 5.38834 19.8297 6.01669 19.9179 6.67221C20.0001 7.28387 20.0001 8.04769 20 8.93418Z" fill="#484848"/>
<path fill-rule="evenodd" clip-rule="evenodd" d="M8.00001 18H12C12.9994 18 13.5477 17.9958 13.9281 17.9446C13.933 17.9439 13.9379 17.9433 13.9426 17.9426C13.9433 17.9379 13.944 17.933 13.9446 17.9281C13.9958 17.5477 14 16.9994 14 16C14 15.0007 13.9958 14.4523 13.9446 14.072C13.944 14.067 13.9433 14.0621 13.9426 14.0574C13.9379 14.0567 13.933 14.0561 13.9281 14.0554C13.5477 14.0042 12.9994 14 12 14L8.00001 14C7.00066 14 6.45234 14.0042 6.07196 14.0554C6.067 14.0561 6.06215 14.0567 6.05739 14.0574C6.05673 14.0621 6.05606 14.067 6.0554 14.072C6.00426 14.4523 6.00001 15.0007 6.00001 16C6.00001 16.9993 6.00426 17.5477 6.0554 17.928C6.05606 17.933 6.05673 17.9379 6.05739 17.9426C6.06215 17.9433 6.067 17.9439 6.07196 17.9446C6.45234 17.9958 7.00066 18 8.00001 18ZM5.86188 17.9032L5.8637 17.9039L5.86188 17.9032ZM5.86188 14.0968L5.86368 14.0961L5.86188 14.0968ZM13.9032 13.8619L13.9039 13.8637L13.9032 13.8619ZM13.9032 18.1381L13.9039 18.1363L13.9032 18.1381ZM14.1363 17.9039L14.1381 17.9032L14.1363 17.9039ZM15.4142 12.5858C14.8284 12 13.8856 12 12 12L8.00001 12C6.11439 12 5.17158 12 4.5858 12.5858C4.00001 13.1716 4.00001 14.1144 4.00001 16C4.00001 17.8856 4.00001 18.8284 4.58579 19.4142C5.17158 20 6.11439 20 8.00001 20H12C13.8856 20 14.8284 20 15.4142 19.4142C16 18.8284 16 17.8856 16 16C16 14.1144 16 13.1716 15.4142 12.5858Z" fill="#484848"/>
<path fill-rule="evenodd" clip-rule="evenodd" d="M7.00001 4H13C13.4933 4 13.7631 3.99892 13.9582 3.98561C13.9672 3.98499 13.9758 3.98436 13.9837 3.98374C13.9844 3.97576 13.985 3.96724 13.9856 3.95817C13.9989 3.76312 14 3.49331 14 3C14 2.50669 13.9989 2.23688 13.9856 2.04183C13.985 2.03276 13.9844 2.02424 13.9837 2.01626C13.9758 2.01564 13.9672 2.01501 13.9582 2.01439C13.7631 2.00108 13.4933 2 13 2L7.00001 2C6.5067 2 6.23689 2.00108 6.04184 2.01439C6.03277 2.01501 6.02425 2.01564 6.01627 2.01627C6.01565 2.02425 6.01502 2.03276 6.0144 2.04183C6.00109 2.23688 6.00001 2.50669 6.00001 3C6.00001 3.49331 6.00109 3.76312 6.0144 3.95817C6.01502 3.96724 6.01565 3.97576 6.01627 3.98374C6.02425 3.98436 6.03277 3.98499 6.04184 3.98561C6.23689 3.99892 6.5067 4 7.00001 4ZM14.7654 0.152241C14.3978 3.27826e-07 13.9319 3.03044e-07 13 2.62311e-07L7.00001 0C6.06813 -4.06916e-08 5.60218 -5.96046e-08 5.23464 0.152241C4.74459 0.355229 4.35524 0.744577 4.15225 1.23463C4.00001 1.60217 4.00001 2.06812 4.00001 3C4.00001 3.93188 4.00001 4.39783 4.15225 4.76537C4.35524 5.25542 4.74459 5.64477 5.23464 5.84776C5.60218 6 6.06813 6 7.00001 6L13 6C13.9319 6 14.3978 6 14.7654 5.84776C15.2554 5.64477 15.6448 5.25542 15.8478 4.76537C16 4.39783 16 3.93188 16 3C16 2.06812 16 1.60218 15.8478 1.23463C15.6448 0.744577 15.2554 0.355229 14.7654 0.152241Z" fill="#484848"/>
<path d="M5.00001 8C5.00001 8.55229 4.55229 9 4.00001 9C3.44772 9 3.00001 8.55229 3.00001 8C3.00001 7.44772 3.44772 7 4.00001 7C4.55229 7 5.00001 7.44772 5.00001 8Z" fill="#484848"/>
</svg>
