<svg width="64" height="108" viewBox="0 0 64 108" fill="none" xmlns="http://www.w3.org/2000/svg">
<rect x="0.5" y="0.5" width="63" height="107" rx="4.5" stroke="#9747FF" stroke-dasharray="10 5"/>
<path fill-rule="evenodd" clip-rule="evenodd" d="M40 36V29.3137C40 28.5882 39.4118 28 38.6863 28C37.7164 28 36.7863 27.6147 36.1005 26.9289L34.5286 25.357C34.3 25.1284 33.99 25 33.6667 25L31.1213 25C30.6208 25 30.5212 25.0028 30.4371 25.0121C30.0601 25.0538 29.7027 25.2018 29.4066 25.439C29.3406 25.4918 29.2681 25.5603 28.9142 25.9142L27.8995 26.9289C27.2137 27.6147 26.2836 28 25.3137 28C24.5882 28 24 28.5882 24 29.3137V36C24 37.0252 24.0097 37.2457 24.0384 37.3902C24.1962 38.1836 24.8164 38.8038 25.6098 38.9616C25.7543 38.9903 25.9748 39 27 39H37C38.0252 39 38.2457 38.9903 38.3902 38.9616C39.1836 38.8038 39.8038 38.1836 39.9616 37.3902C39.9903 37.2457 40 37.0252 40 36ZM42 29.3137V36C42 36.9293 42 37.394 41.9231 37.7804C41.6075 39.3671 40.3671 40.6075 38.7804 40.9231C38.394 41 37.9293 41 37 41H27C26.0707 41 25.606 41 25.2196 40.9231C23.6329 40.6075 22.3925 39.3671 22.0769 37.7804C22 37.394 22 36.9293 22 36V29.3137C22 27.4836 23.4836 26 25.3137 26C25.7531 26 26.1746 25.8254 26.4853 25.5147L27.5 24.5C27.8228 24.1772 27.9843 24.0157 28.1563 23.878C28.7485 23.4037 29.4633 23.1076 30.2174 23.0242C30.4365 23 30.6648 23 31.1213 23L33.6667 23C34.5204 23 35.3391 23.3391 35.9428 23.9428L37.5147 25.5147C37.8254 25.8254 38.2469 26 38.6863 26C40.5164 26 42 27.4836 42 29.3137Z" fill="#484848"/>
<path fill-rule="evenodd" clip-rule="evenodd" d="M32 35C33.1046 35 34 34.1046 34 33C34 31.8954 33.1046 31 32 31C30.8954 31 30 31.8954 30 33C30 34.1046 30.8954 35 32 35ZM32 37C34.2091 37 36 35.2091 36 33C36 30.7909 34.2091 29 32 29C29.7909 29 28 30.7909 28 33C28 35.2091 29.7909 37 32 37Z" fill="#484848"/>
<path fill-rule="evenodd" clip-rule="evenodd" d="M42 73.3137V80C42 80.9293 42 81.394 41.9231 81.7804C41.6075 83.3671 40.3671 84.6075 38.7804 84.9231C38.394 85 37.9293 85 37 85H27C26.0707 85 25.606 85 25.2196 84.9231C23.6329 84.6075 22.3925 83.3671 22.0769 81.7804C22 81.394 22 80.9293 22 80V73.3137C22 71.4836 23.4836 70 25.3137 70C25.7531 70 26.1746 69.8254 26.4853 69.5147L27.5 68.5C27.8228 68.1772 27.9843 68.0157 28.1563 67.878C28.7485 67.4037 29.4633 67.1076 30.2174 67.0242C30.4365 67 30.6648 67 31.1213 67L33.6667 67C34.5204 67 35.3391 67.3391 35.9428 67.9428L37.5147 69.5147C37.8254 69.8254 38.2469 70 38.6863 70C40.5164 70 42 71.4836 42 73.3137ZM30 77C30 75.8954 30.8954 75 32 75C33.1046 75 34 75.8954 34 77C34 78.1046 33.1046 79 32 79C30.8954 79 30 78.1046 30 77ZM32 73C29.7909 73 28 74.7909 28 77C28 79.2091 29.7909 81 32 81C34.2091 81 36 79.2091 36 77C36 74.7909 34.2091 73 32 73Z" fill="#484848"/>
<path fill-rule="evenodd" clip-rule="evenodd" d="M40 80V73.3137C40 72.5882 39.4118 72 38.6863 72C37.7164 72 36.7863 71.6147 36.1005 70.9289L34.5286 69.357C34.3 69.1284 33.99 69 33.6667 69L31.1213 69C30.6208 69 30.5212 69.0028 30.4371 69.0121C30.0601 69.0538 29.7027 69.2018 29.4066 69.439C29.3406 69.4918 29.2681 69.5603 28.9142 69.9142L27.8995 70.9289C27.2137 71.6147 26.2836 72 25.3137 72C24.5882 72 24 72.5882 24 73.3137V80C24 81.0252 24.0097 81.2457 24.0384 81.3902C24.1962 82.1836 24.8164 82.8038 25.6098 82.9616C25.7543 82.9903 25.9748 83 27 83H32H37C38.0252 83 38.2457 82.9903 38.3902 82.9616C39.1836 82.8038 39.8038 82.1836 39.9616 81.3902C39.9903 81.2457 40 81.0252 40 80ZM28 77C28 74.7909 29.7909 73 32 73C34.2091 73 36 74.7909 36 77C36 79.2091 34.2091 81 32 81C29.7909 81 28 79.2091 28 77ZM32 75C30.8954 75 30 75.8954 30 77C30 78.1046 30.8954 79 32 79C33.1046 79 34 78.1046 34 77C34 75.8954 33.1046 75 32 75ZM26 77C26 73.6863 28.6863 71 32 71C35.3137 71 38 73.6863 38 77C38 80.3137 35.3137 83 32 83C28.6863 83 26 80.3137 26 77ZM42 80V73.3137C42 71.4836 40.5164 70 38.6863 70C38.2469 70 37.8254 69.8254 37.5147 69.5147L35.9428 67.9428C35.3391 67.3391 34.5204 67 33.6667 67L31.1213 67C30.6648 67 30.4365 67 30.2174 67.0242C29.4633 67.1076 28.7485 67.4037 28.1563 67.878C27.9843 68.0157 27.8228 68.1772 27.5 68.5L26.4853 69.5147C26.1746 69.8254 25.7531 70 25.3137 70C23.4836 70 22 71.4836 22 73.3137V80C22 80.9293 22 81.394 22.0769 81.7804C22.3925 83.3671 23.6329 84.6075 25.2196 84.9231C25.606 85 26.0707 85 27 85H37C37.9293 85 38.394 85 38.7804 84.9231C40.3671 84.6075 41.6075 83.3671 41.9231 81.7804C42 81.394 42 80.9293 42 80Z" fill="#484848"/>
</svg>
