<svg width="64" height="108" viewBox="0 0 64 108" fill="none" xmlns="http://www.w3.org/2000/svg">
<rect x="0.5" y="0.5" width="63" height="107" rx="4.5" stroke="#9747FF" stroke-dasharray="10 5"/>
<path d="M31 29C31 30.1046 30.1046 31 29 31C27.8954 31 27 30.1046 27 29C27 27.8954 27.8954 27 29 27C30.1046 27 31 27.8954 31 29Z" fill="#484848"/>
<path fill-rule="evenodd" clip-rule="evenodd" d="M30.9268 22H33.0732C34.8966 22 36.3664 22 37.5223 22.1554C38.7225 22.3167 39.733 22.6619 40.5355 23.4645C41.3381 24.267 41.6833 25.2775 41.8446 26.4777C42.0001 27.6336 42 29.1034 42 30.9269V33C42 33.3466 41.8206 33.6684 41.5257 33.8507C41.2309 34.0329 40.8628 34.0494 40.5528 33.8944L37.1315 32.1838C36.4886 31.8623 36.0809 31.6602 35.756 31.5416C35.4553 31.4318 35.323 31.4321 35.2347 31.4464C35.1464 31.4608 35.0208 31.5024 34.7703 31.7016C34.4996 31.9168 34.1767 32.2375 33.6685 32.7457L30.3071 36.1071C30.3008 36.1134 30.2945 36.1198 30.288 36.1262C30.1901 36.2242 30.0732 36.3412 29.961 36.434C29.8299 36.5424 29.6301 36.6836 29.3535 36.7506C29.1212 36.807 28.8788 36.807 28.6465 36.7506C28.3699 36.6836 28.1701 36.5424 28.039 36.434C27.9268 36.3412 27.8099 36.2242 27.712 36.1262C27.7055 36.1198 27.6992 36.1134 27.6929 36.1071C27.2183 35.6325 26.9111 35.3268 26.6573 35.1169C26.415 34.9165 26.3003 34.8723 26.2357 34.8566C26.0808 34.819 25.9192 34.819 25.7643 34.8566C25.6998 34.8723 25.585 34.9165 25.3427 35.1169C25.0889 35.3268 24.7817 35.6325 24.3071 36.1071L24.0005 36.4137C24.0027 37.0824 24.0131 37.3613 24.0577 37.5853C24.2944 38.7753 25.2247 39.7056 26.4147 39.9424C26.6802 39.9952 27.0228 40 28 40H33C33.5523 40 34 40.4477 34 41C34 41.5523 33.5523 42 33 42H28C27.9609 42 27.9223 42 27.8843 42C27.0667 42.0002 26.5094 42.0004 26.0246 41.9039C24.0411 41.5094 22.4906 39.9589 22.0961 37.9755C21.9996 37.4907 21.9998 36.9334 22 36.1158C22 36.0777 22 36.0392 22 36L22 30.9268C22 29.1034 22 27.6336 22.1554 26.4777C22.3167 25.2775 22.6619 24.267 23.4645 23.4645C24.267 22.6619 25.2775 22.3167 26.4777 22.1554C27.6336 22 29.1034 22 30.9268 22ZM24 33.6328C24.0229 33.6134 24.0456 33.5943 24.0681 33.5757C24.4232 33.282 24.8117 33.0296 25.2929 32.9129C25.7576 32.8003 26.2424 32.8003 26.7071 32.9129C27.1883 33.0296 27.5768 33.282 27.9319 33.5757C28.2478 33.8369 28.598 34.184 29 34.5858L32.2914 31.2944C32.7516 30.8342 33.1549 30.4308 33.5256 30.1361C33.9263 29.8174 34.3654 29.5614 34.9144 29.4723C35.4634 29.3832 35.9608 29.4873 36.4418 29.6628C36.8866 29.8252 37.3969 30.0804 37.979 30.3715L40 31.382V31C40 29.0861 39.9979 27.7513 39.8625 26.7442C39.7309 25.7658 39.4903 25.2477 39.1213 24.8787C38.7523 24.5097 38.2342 24.2691 37.2558 24.1375C36.2487 24.0021 34.9139 24 33 24H31C29.0861 24 27.7513 24.0021 26.7442 24.1375C25.7658 24.2691 25.2477 24.5097 24.8787 24.8787C24.5097 25.2477 24.2691 25.7658 24.1375 26.7442C24.0021 27.7513 24 29.0861 24 31V33.6328Z" fill="#484848"/>
<path fill-rule="evenodd" clip-rule="evenodd" d="M41.7071 36.2929C42.0977 36.6834 42.0977 37.3166 41.7071 37.7071L37.7071 41.7071C37.3166 42.0976 36.6835 42.0976 36.2929 41.7071C35.9024 41.3166 35.9024 40.6834 36.2929 40.2929L40.2929 36.2929C40.6835 35.9024 41.3166 35.9024 41.7071 36.2929Z" fill="#484848"/>
<path fill-rule="evenodd" clip-rule="evenodd" d="M41.7071 41.7071C41.3166 42.0976 40.6835 42.0976 40.2929 41.7071L36.2929 37.7071C35.9024 37.3166 35.9024 36.6834 36.2929 36.2929C36.6835 35.9024 37.3166 35.9024 37.7071 36.2929L41.7071 40.2929C42.0977 40.6834 42.0977 41.3166 41.7071 41.7071Z" fill="#484848"/>
<path fill-rule="evenodd" clip-rule="evenodd" d="M41.7071 80.2929C42.0977 80.6834 42.0977 81.3166 41.7071 81.7071L37.7071 85.7071C37.3166 86.0976 36.6835 86.0976 36.2929 85.7071C35.9024 85.3166 35.9024 84.6834 36.2929 84.2929L40.2929 80.2929C40.6835 79.9024 41.3166 79.9024 41.7071 80.2929Z" fill="#484848"/>
<path fill-rule="evenodd" clip-rule="evenodd" d="M41.7071 85.7071C41.3166 86.0976 40.6835 86.0976 40.2929 85.7071L36.2929 81.7071C35.9024 81.3166 35.9024 80.6834 36.2929 80.2929C36.6835 79.9024 37.3166 79.9024 37.7071 80.2929L41.7071 84.2929C42.0977 84.6834 42.0977 85.3166 41.7071 85.7071Z" fill="#484848"/>
<path fill-rule="evenodd" clip-rule="evenodd" d="M30.9269 66H33.0732C34.8967 66 36.3664 66 37.5224 66.1554C38.7225 66.3167 39.733 66.6619 40.5356 67.4645C41.3381 68.267 41.6833 69.2775 41.8447 70.4777C42.0001 71.6336 42.0001 73.1034 42 74.9269V77C42 77.3466 41.8206 77.6684 41.5258 77.8507C41.231 78.0329 40.8628 78.0494 40.5528 77.8944L37.1315 76.1838C36.4886 75.8623 36.0809 75.6602 35.7561 75.5416C35.4554 75.4318 35.3231 75.4321 35.2348 75.4464C35.1465 75.4608 35.0209 75.5024 34.7703 75.7016C34.4996 75.9168 34.1768 76.2375 33.6685 76.7457L30.3071 80.1071C30.3009 80.1134 30.2945 80.1198 30.2881 80.1262C30.1901 80.2242 30.0732 80.3412 29.961 80.434C29.8299 80.5424 29.6301 80.6836 29.3536 80.7506C29.1213 80.807 28.8788 80.807 28.6465 80.7506C28.37 80.6836 28.1702 80.5424 28.0391 80.434C27.9268 80.3412 27.8099 80.2242 27.712 80.1262C27.7056 80.1197 27.6992 80.1134 27.6929 80.1071C27.2183 79.6325 26.9111 79.3268 26.6574 79.1169C26.4151 78.9165 26.3003 78.8723 26.2357 78.8566C26.0808 78.819 25.9192 78.819 25.7643 78.8566C25.6998 78.8723 25.585 78.9165 25.3427 79.1169C25.089 79.3268 24.7817 79.6325 24.3071 80.1071L24.0006 80.4137C24.0027 81.0824 24.0131 81.3613 24.0577 81.5853C24.2944 82.7753 25.2247 83.7056 26.4148 83.9424C26.6802 83.9952 27.0228 84 28 84H33C33.5523 84 34 84.4477 34 85C34 85.5523 33.5523 86 33 86H28C27.9609 86 27.9223 86 27.8843 86C27.0667 86.0002 26.5094 86.0004 26.0246 85.9039C24.0411 85.5094 22.4906 83.9589 22.0961 81.9755C21.9997 81.4907 21.9998 80.9334 22 80.1158C22 80.0777 22 80.0392 22 80L22 74.9268C22 73.1034 22 71.6336 22.1554 70.4777C22.3168 69.2775 22.6619 68.267 23.4645 67.4645C24.2671 66.6619 25.2776 66.3167 26.4777 66.1554C27.6337 66 29.1034 66 30.9269 66ZM24 77.6328C24.0229 77.6134 24.0456 77.5943 24.0681 77.5757C24.4232 77.282 24.8118 77.0296 25.293 76.9129C25.7576 76.8003 26.2425 76.8003 26.7071 76.9129C27.1883 77.0296 27.5769 77.282 27.932 77.5757C28.2479 77.8369 28.5981 78.184 29 78.5858L32.2914 75.2945C32.7516 74.8342 33.1549 74.4308 33.5256 74.1361C33.9264 73.8174 34.3654 73.5614 34.9144 73.4723C35.4634 73.3832 35.9609 73.4873 36.4418 73.6628C36.8867 73.8252 37.3969 74.0804 37.9791 74.3715L40 75.382V75C40 73.0861 39.9979 71.7513 39.8625 70.7442C39.731 69.7658 39.4904 69.2477 39.1214 68.8787C38.7523 68.5097 38.2342 68.2691 37.2559 68.1375C36.2487 68.0021 34.9139 68 33 68H31C29.0862 68 27.7513 68.0021 26.7442 68.1375C25.7658 68.2691 25.2477 68.5097 24.8787 68.8787C24.5097 69.2477 24.2691 69.7658 24.1376 70.7442C24.0022 71.7513 24 73.0861 24 75V77.6328Z" fill="#484848"/>
<path fill-rule="evenodd" clip-rule="evenodd" d="M41 77L37.5787 75.2893C36.3341 74.6671 35.7119 74.3559 35.0745 74.4593C34.4372 74.5628 33.9453 75.0547 32.9614 76.0386L29.6 79.4C29.3695 79.6305 29.2543 79.7457 29.1178 79.7788C29.0404 79.7976 28.9596 79.7976 28.8822 79.7788C28.7457 79.7457 28.6305 79.6305 28.4 79.4C27.4781 78.4781 27.0171 78.0171 26.4714 77.8848C26.1616 77.8096 25.8384 77.8096 25.5286 77.8848C24.9829 78.0171 24.5219 78.4781 23.6 79.4L23 80V75C23 71.2288 23 69.3431 24.1716 68.1716C25.3431 67 27.2288 67 31 67H33C36.7712 67 38.6569 67 39.8284 68.1716C41 69.3431 41 71.2288 41 75V77ZM29 75C30.1046 75 31 74.1046 31 73C31 71.8954 30.1046 71 29 71C27.8954 71 27 71.8954 27 73C27 74.1046 27.8954 75 29 75Z" fill="#484848"/>
</svg>
