<svg width="64" height="108" viewBox="0 0 64 108" fill="none" xmlns="http://www.w3.org/2000/svg">
<rect x="0.5" y="0.5" width="63" height="107" rx="4.5" stroke="#9747FF" stroke-dasharray="10 5"/>
<path fill-rule="evenodd" clip-rule="evenodd" d="M24 32C23.4477 32 23 32.4477 23 33C23 37.9706 27.0294 42 32 42C36.9706 42 41 37.9706 41 33C41 32.4477 40.5523 32 40 32C39.4477 32 39 32.4477 39 33C39 36.866 35.866 40 32 40C28.134 40 25 36.866 25 33C25 32.4477 24.5523 32 24 32Z" fill="#484848"/>
<path fill-rule="evenodd" clip-rule="evenodd" d="M35 33V27C35 25.3431 33.6569 24 32 24C30.3431 24 29 25.3431 29 27V33C29 34.6569 30.3431 36 32 36C33.6569 36 35 34.6569 35 33ZM32 22C29.2386 22 27 24.2386 27 27V33C27 35.7614 29.2386 38 32 38C34.7614 38 37 35.7614 37 33V27C37 24.2386 34.7614 22 32 22Z" fill="#484848"/>
<path fill-rule="evenodd" clip-rule="evenodd" d="M24 76C23.4477 76 23 76.4477 23 77C23 81.9706 27.0294 86 32 86C36.9706 86 41 81.9706 41 77C41 76.4477 40.5523 76 40 76C39.4477 76 39 76.4477 39 77C39 80.866 35.866 84 32 84C28.134 84 25 80.866 25 77C25 76.4477 24.5523 76 24 76Z" fill="#484848"/>
<path d="M27 71C27 68.2386 29.2386 66 32 66C34.7614 66 37 68.2386 37 71V77C37 79.7614 34.7614 82 32 82C29.2386 82 27 79.7614 27 77V71Z" fill="#484848"/>
</svg>
