<svg width="24" height="24" viewBox="0 0 24 24" fill="none" xmlns="http://www.w3.org/2000/svg">
<path fill-rule="evenodd" clip-rule="evenodd" d="M15 11.7053V13C15 14.6569 13.6569 16 12 16C11.6153 16 11.2476 15.9276 10.9097 15.7957L9.42097 17.2844C10.174 17.7387 11.0565 18 12 18C14.7614 18 17 15.7614 17 13V9.70534L15 11.7053ZM14.8825 6.16595L16.4089 4.63959C15.566 3.06845 13.9078 2 12 2C9.23858 2 7 4.23858 7 7V13C7 13.3273 7.03145 13.6473 7.09149 13.957L9 12.0485V7C9 5.34315 10.3431 4 12 4C13.3674 4 14.5212 4.91489 14.8825 6.16595ZM5.48448 15.564C5.17177 14.77 5 13.9051 5 13C5 12.4477 4.55229 12 4 12C3.44771 12 3 12.4477 3 13C3 14.4668 3.3509 15.8517 3.97333 17.0752L5.48448 15.564ZM7.97651 18.7289L6.54577 20.1596C8.05914 21.3143 9.94949 22 12 22C16.9706 22 21 17.9706 21 13C21 12.4477 20.5523 12 20 12C19.4477 12 19 12.4477 19 13C19 16.866 15.866 20 12 20C10.5025 20 9.11477 19.5298 7.97651 18.7289Z" fill="#484848"/>
<path fill-rule="evenodd" clip-rule="evenodd" d="M2.29289 21.7071C1.90237 21.3166 1.90237 20.6834 2.29289 20.2929L20.2929 2.29291C20.6834 1.90238 21.3166 1.90238 21.7071 2.29291C22.0976 2.68343 22.0976 3.3166 21.7071 3.70712L3.70711 21.7071C3.31658 22.0976 2.68342 22.0976 2.29289 21.7071Z" fill="#484848"/>
</svg>
