<svg width="64" height="108" viewBox="0 0 64 108" fill="none" xmlns="http://www.w3.org/2000/svg">
<rect x="0.5" y="0.5" width="63" height="107" rx="4.5" stroke="#9747FF" stroke-dasharray="10 5"/>
<path fill-rule="evenodd" clip-rule="evenodd" d="M34 24H30C28.0578 24 26.8024 24.0042 25.8774 24.1286C25.0099 24.2452 24.738 24.4335 24.5858 24.5858C24.4335 24.738 24.2452 25.0099 24.1286 25.8774C24.0042 26.8024 24 28.0578 24 30C24 31.9422 24.0042 33.1976 24.1286 34.1226C24.2452 34.9901 24.4335 35.262 24.5858 35.4142C24.738 35.5665 25.0099 35.7548 25.8774 35.8714C26.8024 35.9958 28.0578 36 30 36H34C35.9422 36 37.1976 35.9958 38.1226 35.8714C38.9901 35.7548 39.262 35.5665 39.4142 35.4142C39.5665 35.262 39.7548 34.9901 39.8714 34.1226C39.9958 33.1976 40 31.9422 40 30C40 28.0578 39.9958 26.8024 39.8714 25.8774C39.7548 25.0099 39.5665 24.738 39.4142 24.5858C39.262 24.4335 38.9901 24.2452 38.1226 24.1286C37.1976 24.0042 35.9422 24 34 24ZM23.1716 23.1716C22 24.3431 22 26.2288 22 30C22 33.7712 22 35.6569 23.1716 36.8284C24.3431 38 26.2288 38 30 38H34C37.7712 38 39.6569 38 40.8284 36.8284C42 35.6569 42 33.7712 42 30C42 26.2288 42 24.3431 40.8284 23.1716C39.6569 22 37.7712 22 34 22H30C26.2288 22 24.3431 22 23.1716 23.1716Z" fill="#484848"/>
<path fill-rule="evenodd" clip-rule="evenodd" d="M37 41C37 41.5523 36.5523 42 36 42H28C27.4477 42 27 41.5523 27 41C27 40.4477 27.4477 40 28 40H36C36.5523 40 37 40.4477 37 41Z" fill="#484848"/>
<path fill-rule="evenodd" clip-rule="evenodd" d="M37 38C37.5523 38 38 37.5523 38 37C38 34.2386 35.7614 32 33 32H31C28.2386 32 26 34.2386 26 37C26 37.5523 26.4477 38 27 38C27.5523 38 28 37.5523 28 37C28 35.3431 29.3431 34 31 34H33C34.6569 34 36 35.3431 36 37C36 37.5523 36.4477 38 37 38Z" fill="#484848"/>
<path fill-rule="evenodd" clip-rule="evenodd" d="M32 29C32.5523 29 33 28.5523 33 28C33 27.4477 32.5523 27 32 27C31.4477 27 31 27.4477 31 28C31 28.5523 31.4477 29 32 29ZM32 31C33.6569 31 35 29.6569 35 28C35 26.3431 33.6569 25 32 25C30.3431 25 29 26.3431 29 28C29 29.6569 30.3431 31 32 31Z" fill="#484848"/>
<path fill-rule="evenodd" clip-rule="evenodd" d="M37 85C37 85.5523 36.5523 86 36 86H28C27.4477 86 27 85.5523 27 85C27 84.4477 27.4477 84 28 84H36C36.5523 84 37 84.4477 37 85Z" fill="#484848"/>
<path fill-rule="evenodd" clip-rule="evenodd" d="M34 68H30C28.0578 68 26.8024 68.0042 25.8774 68.1286C25.0099 68.2452 24.738 68.4335 24.5858 68.5858C24.4335 68.738 24.2452 69.0099 24.1286 69.8774C24.0042 70.8024 24 72.0578 24 74C24 75.9422 24.0042 77.1976 24.1286 78.1226C24.2452 78.9901 24.4335 79.262 24.5858 79.4142C24.738 79.5665 25.0099 79.7548 25.8774 79.8714C26.8024 79.9958 28.0578 80 30 80H34C35.9422 80 37.1976 79.9958 38.1226 79.8714C38.9901 79.7548 39.262 79.5665 39.4142 79.4142C39.5665 79.262 39.7548 78.9901 39.8714 78.1226C39.9958 77.1976 40 75.9422 40 74C40 72.0578 39.9958 70.8024 39.8714 69.8774C39.7548 69.0099 39.5665 68.738 39.4142 68.5858C39.262 68.4335 38.9901 68.2452 38.1226 68.1286C37.1976 68.0042 35.9422 68 34 68ZM23.1716 67.1716C22 68.3431 22 70.2288 22 74C22 77.7712 22 79.6569 23.1716 80.8284C24.3431 82 26.2288 82 30 82H34C37.7712 82 39.6569 82 40.8284 80.8284C42 79.6569 42 77.7712 42 74C42 70.2288 42 68.3431 40.8284 67.1716C39.6569 66 37.7712 66 34 66H30C26.2288 66 24.3431 66 23.1716 67.1716Z" fill="#484848"/>
<path fill-rule="evenodd" clip-rule="evenodd" d="M23.1716 67.1716C22 68.3431 22 70.2288 22 74C22 77.7712 22 79.6569 23.1716 80.8284C23.9417 81.5985 25.0203 81.8624 26.7402 81.9529C26.3114 81.8198 26 81.4199 26 80.9474C26 78.215 28.215 76 30.9474 76H33.0526C35.785 76 38 78.215 38 80.9474C38 81.4199 37.6886 81.8198 37.2598 81.9529C38.9797 81.8624 40.0583 81.5985 40.8284 80.8284C42 79.6569 42 77.7712 42 74C42 70.2288 42 68.3431 40.8284 67.1716C39.6569 66 37.7712 66 34 66H30C26.2288 66 24.3431 66 23.1716 67.1716ZM35 72C35 73.6569 33.6569 75 32 75C30.3431 75 29 73.6569 29 72C29 70.3431 30.3431 69 32 69C33.6569 69 35 70.3431 35 72Z" fill="#484848"/>
</svg>
