<svg width="64" height="108" viewBox="0 0 64 108" fill="none" xmlns="http://www.w3.org/2000/svg">
<rect x="0.5" y="0.5" width="63" height="107" rx="4.5" stroke="#9747FF" stroke-dasharray="10 5"/>
<path fill-rule="evenodd" clip-rule="evenodd" d="M35 32.5V31.5C35 29.8073 34.9967 28.7136 34.9003 27.8981C34.8092 27.1267 34.6591 26.869 34.546 26.7312C34.4629 26.6299 34.3701 26.5371 34.2688 26.454C34.131 26.3409 33.8733 26.1908 33.1019 26.0997C32.2864 26.0033 31.1927 26 29.5 26C27.8073 26 26.7136 26.0033 25.8981 26.0997C25.1267 26.1908 24.869 26.3409 24.7312 26.454C24.6299 26.5371 24.5371 26.6299 24.454 26.7312C24.3409 26.869 24.1908 27.1267 24.0997 27.8981C24.0033 28.7136 24 29.8073 24 31.5V32.5C24 34.1927 24.0033 35.2864 24.0997 36.1019C24.1908 36.8733 24.3409 37.131 24.454 37.2688C24.5371 37.3701 24.6299 37.4629 24.7312 37.546C24.869 37.6591 25.1267 37.8092 25.8981 37.9003C26.7136 37.9967 27.8073 38 29.5 38C31.1927 38 32.2864 37.9967 33.1019 37.9003C33.8733 37.8092 34.131 37.6591 34.2688 37.546C34.3701 37.4629 34.4629 37.3701 34.546 37.2688C34.6591 37.131 34.8092 36.8733 34.9003 36.1019C34.9967 35.2864 35 34.1927 35 32.5ZM22.908 25.4624C22 26.5688 22 28.2125 22 31.5V32.5C22 35.7875 22 37.4312 22.908 38.5376C23.0742 38.7401 23.2599 38.9258 23.4624 39.092C24.5688 40 26.2125 40 29.5 40C32.7875 40 34.4312 40 35.5376 39.092C35.7401 38.9258 35.9258 38.7401 36.092 38.5376C37 37.4312 37 35.7875 37 32.5V31.5C37 28.2125 37 26.5688 36.092 25.4624C35.9258 25.2599 35.7401 25.0742 35.5376 24.908C34.4312 24 32.7875 24 29.5 24C26.2125 24 24.5688 24 23.4624 24.908C23.2599 25.0742 23.0742 25.2599 22.908 25.4624Z" fill="#484848"/>
<path fill-rule="evenodd" clip-rule="evenodd" d="M40 33.9689L40 30.0311C40 28.8443 39.9969 28.1273 39.9399 27.6254C39.9374 27.6034 39.9348 27.5826 39.9323 27.563C39.914 27.5706 39.8947 27.5787 39.8744 27.5874C39.4103 27.7869 38.7862 28.1399 37.7558 28.7288C37.3631 28.9532 37.1629 29.069 37.0244 29.1624C37.021 29.1647 37.0177 29.167 37.0146 29.1691C37.0143 29.1729 37.014 29.1769 37.0137 29.181C37.0013 29.3475 37 29.5788 37 30.0311V33.9689C37 34.4212 37.0013 34.6525 37.0137 34.819C37.014 34.8231 37.0143 34.8271 37.0146 34.8309C37.0177 34.833 37.021 34.8353 37.0244 34.8376C37.1629 34.931 37.3631 35.0468 37.7558 35.2712C38.7862 35.8601 39.4103 36.2131 39.8744 36.4126C39.8947 36.4213 39.914 36.4294 39.9323 36.437C39.9348 36.4174 39.9374 36.3966 39.9399 36.3746C39.9969 35.8727 40 35.1557 40 33.9689ZM40.523 25.516C39.7253 25.2998 38.738 25.864 36.7635 26.9923C36.0284 27.4124 35.6608 27.6224 35.4167 27.9387C35.3094 28.0777 35.221 28.2301 35.1535 28.3922C35 28.7611 35 29.1844 35 30.0311V33.9689C35 34.8156 35 35.2389 35.1535 35.6078C35.221 35.7699 35.3094 35.9223 35.4167 36.0613C35.6608 36.3776 36.0284 36.5876 36.7635 37.0077C38.738 38.136 39.7253 38.7002 40.523 38.484C40.8611 38.3924 41.1693 38.2136 41.4166 37.9655C42 37.3801 42 36.243 42 33.9689L42 30.0311C42 27.757 42 26.6199 41.4166 26.0345C41.1693 25.7864 40.8611 25.6076 40.523 25.516Z" fill="#484848"/>
<path d="M22 75.5C22 72.2125 22 70.5688 22.908 69.4624C23.0742 69.2599 23.2599 69.0742 23.4624 68.908C24.5688 68 26.2125 68 29.5 68C32.7875 68 34.4312 68 35.5376 68.908C35.7401 69.0742 35.9258 69.2599 36.092 69.4624C37 70.5688 37 72.2125 37 75.5V76.5C37 79.7875 37 81.4312 36.092 82.5376C35.9258 82.7401 35.7401 82.9258 35.5376 83.092C34.4312 84 32.7875 84 29.5 84C26.2125 84 24.5688 84 23.4624 83.092C23.2599 82.9258 23.0742 82.7401 22.908 82.5376C22 81.4312 22 79.7875 22 76.5V75.5Z" fill="#484848"/>
<path d="M36.7635 70.9923C38.738 69.864 39.7253 69.2998 40.523 69.516C40.8611 69.6076 41.1693 69.7864 41.4166 70.0345C42 70.6199 42 71.757 42 74.0311L42 77.9689C42 80.243 42 81.3801 41.4166 81.9655C41.1693 82.2136 40.8611 82.3924 40.523 82.484C39.7253 82.7002 38.738 82.136 36.7635 81.0077C36.0284 80.5876 35.6608 80.3776 35.4167 80.0613C35.3094 79.9223 35.221 79.7699 35.1535 79.6078C35 79.2389 35 78.8156 35 77.9689V74.0311C35 73.1844 35 72.7611 35.1535 72.3922C35.221 72.2301 35.3094 72.0777 35.4167 71.9387C35.6608 71.6224 36.0284 71.4124 36.7635 70.9923Z" fill="#484848"/>
</svg>
