<svg width="24" height="24" viewBox="0 0 24 24" fill="none" xmlns="http://www.w3.org/2000/svg">
<path fill-rule="evenodd" clip-rule="evenodd" d="M6.70539 20H13C14.8416 20 16.3926 18.7554 16.8576 17.0615L19.0077 18.2901C20.3411 19.052 22 18.0893 22 16.5536L22 7.44636C22 6.67435 21.5807 6.04712 20.9943 5.71104L18.271 8.43438L20 7.44636L20 16.5536L17 14.8394V9.70535L15 11.7054V14.8394L15 14.8452V16C15 17.1046 14.1046 18 13 18H8.70538L6.70539 20ZM14.4383 6.61024C14.0746 6.23397 13.5646 6.00001 13 6.00001H6.00002C4.89545 6.00001 4.00002 6.89544 4.00002 8.00001V16C4.00002 16.3065 4.06894 16.5968 4.19213 16.8564L2.73592 18.3126C2.27246 17.6597 2.00002 16.8617 2.00002 16V8.00001C2.00002 5.79087 3.79088 4.00001 6.00002 4.00001H13C14.1169 4.00001 15.1269 4.45777 15.8526 5.19592L14.4383 6.61024Z" fill="#484848"/>
<path fill-rule="evenodd" clip-rule="evenodd" d="M2.29289 21.7071C1.90237 21.3166 1.90237 20.6834 2.29289 20.2929L20.2929 2.29289C20.6834 1.90237 21.3166 1.90237 21.7071 2.29289C22.0976 2.68342 22.0976 3.31658 21.7071 3.70711L3.70711 21.7071C3.31658 22.0976 2.68342 22.0976 2.29289 21.7071Z" fill="#484848"/>
</svg>
