<svg width="24" height="24" viewBox="0 0 24 24" fill="none" xmlns="http://www.w3.org/2000/svg">
<path fill-rule="evenodd" clip-rule="evenodd" d="M12 14.7054L11.9999 20.0014L9.30947 17.3959L7.89492 18.8105L10.6088 21.439C11.8778 22.6681 13.9999 21.7685 13.9999 20.0014L14 12.7054L12 14.7054ZM12 9.04854L14 7.04853L14 4.01127C14 2.24451 11.8784 1.34475 10.6093 2.57324L5.58157 7.43992C5.20857 7.80097 4.70989 8.00282 4.19089 8.00282H4C2.89543 8.00282 2 8.89866 2 10.0037V14.0056C2 15.1107 2.89543 16.0065 4 16.0065H4.19046C4.43829 16.0065 4.68148 16.0525 4.90857 16.1399L6.38567 14.6628C5.73813 14.2377 4.97599 14.0065 4.19046 14.0065L4 14.0056L4 10.0028H4.19089C5.22919 10.0028 6.22665 9.599 6.97258 8.87696L12 4.01127L12 9.04854ZM17.4352 9.27019L18.9731 7.73221C19.6054 9.19798 19.9733 10.5678 19.9974 11.9722C20.0336 14.0736 19.2997 16.1039 17.8582 18.5134C17.5746 18.9874 16.9606 19.1417 16.4866 18.8582C16.0127 18.5746 15.8583 17.9606 16.1418 17.4866C17.4903 15.2327 18.0248 13.5806 17.9977 12.0066C17.9829 11.1439 17.799 10.2609 17.4352 9.27019Z" fill="#484848"/>
<path fill-rule="evenodd" clip-rule="evenodd" d="M2.29289 21.7071C1.90237 21.3166 1.90237 20.6834 2.29289 20.2929L20.2929 2.29289C20.6834 1.90237 21.3166 1.90237 21.7071 2.29289C22.0976 2.68342 22.0976 3.31658 21.7071 3.70711L3.70711 21.7071C3.31658 22.0976 2.68342 22.0976 2.29289 21.7071Z" fill="#484848"/>
</svg>
