<svg width="64" height="108" viewBox="0 0 64 108" fill="none" xmlns="http://www.w3.org/2000/svg">
<rect x="0.5" y="0.5" width="63" height="107" rx="4.5" stroke="#9747FF" stroke-dasharray="10 5"/>
<path fill-rule="evenodd" clip-rule="evenodd" d="M31.9999 40.0014L32 24.0112L26.9726 28.8769C26.2266 29.599 25.2292 30.0028 24.1909 30.0028H24L24 34.0056L24.1905 34.0065C25.2292 34.0065 26.227 34.4106 26.973 35.1332L31.9999 40.0014ZM34 24.0112L33.9999 40.0014C33.9999 41.7684 31.8778 42.6681 30.6088 41.439L25.5816 36.5698C25.2085 36.2085 24.7097 36.0065 24.1905 36.0065H24C22.8954 36.0065 22 35.1106 22 34.0056V30.0037C22 28.8986 22.8954 28.0028 24 28.0028H24.1909C24.7099 28.0028 25.2086 27.8009 25.5816 27.4399L30.6093 22.5732C31.8784 21.3447 34 22.2445 34 24.0112Z" fill="#484848"/>
<path fill-rule="evenodd" clip-rule="evenodd" d="M36.5199 25.1228C37.0044 24.8576 37.6121 25.0354 37.8772 25.5199C39.1684 27.8791 39.9616 29.8875 39.9974 31.9722C40.0336 34.0735 39.2997 36.1039 37.8582 38.5134C37.5746 38.9873 36.9606 39.1417 36.4866 38.8582C36.0127 38.5746 35.8583 37.9606 36.1418 37.4866C37.4903 35.2326 38.0248 33.5806 37.9977 32.0066C37.9704 30.416 37.3685 28.7561 36.1228 26.4801C35.8576 25.9956 36.0354 25.3879 36.5199 25.1228Z" fill="#484848"/>
<path d="M34.9999 83.9951L35 68.0049C35 66.2382 32.8784 65.3384 31.6093 66.5669L26.5816 71.4336C26.2086 71.7946 25.7099 71.9965 25.1909 71.9965H25C23.8954 71.9965 23 72.8923 23 73.9974L23 77.9992C23 79.1043 23.8954 80.0002 25 80.0002H25.1905C25.7097 80.0002 26.2085 80.2022 26.5816 80.5635L31.6088 85.4327C32.8778 86.6618 34.9999 85.7621 34.9999 83.9951Z" fill="#484848"/>
<path fill-rule="evenodd" clip-rule="evenodd" d="M32.9999 83.9951L33 68.0049C33 68.0047 33 68.0051 33 68.0049L27.9726 72.8706C27.2266 73.5926 26.2292 73.9965 25.1909 73.9965H25L25 77.9992L25.1905 78.0002C26.2292 78.0002 27.227 78.4043 27.973 79.1269L32.9999 83.9951C32.9999 83.9953 32.9999 83.9949 32.9999 83.9951ZM35 68.0049L34.9999 83.9951C34.9999 85.7621 32.8778 86.6618 31.6088 85.4327L26.5816 80.5635C26.2085 80.2022 25.7097 80.0002 25.1905 80.0002H25C23.8954 80.0002 23 79.1043 23 77.9992L23 73.9974C23 72.8923 23.8954 71.9965 25 71.9965H25.1909C25.7099 71.9965 26.2086 71.7946 26.5816 71.4336L31.6093 66.5669C32.8784 65.3384 35 66.2382 35 68.0049Z" fill="#484848"/>
<path fill-rule="evenodd" clip-rule="evenodd" d="M37.5199 69.1165C38.0044 68.8513 38.6121 69.0291 38.8772 69.5136C40.1684 71.8728 40.9616 73.8812 40.9974 75.9659C41.0336 78.0672 40.2997 80.0975 38.8582 82.5071C38.5746 82.981 37.9606 83.1354 37.4866 82.8518C37.0127 82.5683 36.8583 81.9542 37.1418 81.4803C38.4903 79.2263 39.0248 77.5742 38.9977 76.0003C38.9704 74.4097 38.3685 72.7498 37.1228 70.4738C36.8576 69.9893 37.0354 69.3816 37.5199 69.1165Z" fill="#484848"/>
</svg>
