<svg width="64" height="108" viewBox="0 0 64 108" fill="none" xmlns="http://www.w3.org/2000/svg">
<rect x="0.5" y="0.5" width="63" height="107" rx="4.5" stroke="#9747FF" stroke-dasharray="10 5"/>
<path fill-rule="evenodd" clip-rule="evenodd" d="M28.3264 22.9999C28.3834 22.9999 28.4413 23 28.5001 23C29.0524 23 29.5001 23.4477 29.5001 24C29.5001 24.5522 29.0524 25 28.5001 25C27.0318 25 26.5193 25.0108 26.1292 25.1291C25.1704 25.42 24.4201 26.1703 24.1293 27.1291C24.0109 27.5192 24.0001 28.0316 24.0001 29.5V30C24.0001 30.9455 24.0006 31.6046 24.0358 32.1205C24.0704 32.6274 24.1351 32.9226 24.2284 33.148C24.5329 33.8831 25.1169 34.4671 25.852 34.7716C26.0774 34.865 26.3726 34.9296 26.8795 34.9642C27.3954 34.9994 28.0545 35 29.0001 35H38.5001C39.3285 35 40.0001 34.3284 40.0001 33.5C40.0001 32.9477 40.4478 32.5 41.0001 32.5C41.5524 32.5 42.0001 32.9477 42.0001 33.5C42.0001 35.433 40.4331 37 38.5001 37H28.9646C28.0628 37 27.3354 37 26.7434 36.9596C26.1346 36.918 25.5964 36.8305 25.0867 36.6194C23.8615 36.1119 22.8882 35.1385 22.3807 33.9134C22.1696 33.4037 22.082 32.8654 22.0405 32.2567C22.0001 31.6646 22.0001 30.9372 22.0001 30.0355L22.0001 29.5C22.0001 29.4412 22.0001 29.3833 22 29.3262C21.9996 28.099 21.9993 27.2609 22.2154 26.5485C22.7001 24.9505 23.9507 23.7 25.5487 23.2153C26.2611 22.9992 27.0991 22.9995 28.3264 22.9999Z" fill="#484848"/>
<path fill-rule="evenodd" clip-rule="evenodd" d="M37.0001 40C37.0001 40.5522 36.5524 41 36.0001 41H28.0001C27.4478 41 27.0001 40.5522 27.0001 40C27.0001 39.4477 27.4478 39 28.0001 39H36.0001C36.5524 39 37.0001 39.4477 37.0001 40Z" fill="#484848"/>
<path fill-rule="evenodd" clip-rule="evenodd" d="M41.5848 29.8112C41.324 29.9992 40.9888 30.0503 40.6839 29.9486L37.6839 28.9486C37.1599 28.774 36.8768 28.2077 37.0514 27.6837C37.1885 27.2725 37.5669 27.0095 37.9768 27C37.5669 26.9904 37.1885 26.7275 37.0514 26.3162C36.8768 25.7922 37.1599 25.2259 37.6839 25.0513L40.6839 24.0513C40.9888 23.9496 41.324 24.0008 41.5848 24.1887C41.8456 24.3767 42.0001 24.6785 42.0001 25V29C42.0001 29.3214 41.8456 29.6233 41.5848 29.8112ZM38.0231 27C38.1205 27.0022 38.2191 27.0189 38.3163 27.0513L40.0001 27.6125V26.3874L38.3163 26.9486C38.2191 26.981 38.1205 26.9977 38.0231 27Z" fill="#484848"/>
<path fill-rule="evenodd" clip-rule="evenodd" d="M33.072 28.9446C33.4524 28.9957 34.0007 29 35.0001 29C35.9994 29 36.5477 28.9957 36.9281 28.9446C36.9331 28.9439 36.9379 28.9432 36.9427 28.9426C36.9434 28.9378 36.944 28.933 36.9447 28.928C36.9958 28.5476 37.0001 27.9993 37.0001 27C37.0001 26.0006 36.9958 25.4523 36.9447 25.0719C36.944 25.067 36.9434 25.0621 36.9427 25.0573C36.9379 25.0567 36.9331 25.056 36.9281 25.0554C36.5477 25.0042 35.9994 25 35.0001 25C34.0007 25 33.4524 25.0042 33.072 25.0554C33.0671 25.056 33.0622 25.0567 33.0575 25.0573C33.0568 25.0621 33.0561 25.067 33.0555 25.0719C33.0043 25.4523 33.0001 26.0006 33.0001 27C33.0001 27.9993 33.0043 28.5476 33.0555 28.928C33.0561 28.933 33.0568 28.9378 33.0575 28.9426C33.0622 28.9432 33.0671 28.9439 33.072 28.9446ZM33.0969 29.1381L33.0962 29.1363L33.0969 29.1381ZM33.0969 24.8618L33.0962 24.8636L33.0969 24.8618ZM32.8638 25.0961L32.862 25.0968L32.8638 25.0961ZM37.1382 25.0968L37.1364 25.0961L37.1382 25.0968ZM36.9039 24.8636L36.9033 24.8618L36.9039 24.8636ZM36.9033 29.1381L36.9039 29.1363L36.9033 29.1381ZM31.5859 23.5857C31.0001 24.1715 31.0001 25.1143 31.0001 27C31.0001 28.8856 31.0001 29.8284 31.5859 30.4142C32.1717 31 33.1145 31 35.0001 31C36.8857 31 37.8285 31 38.4143 30.4142C39.0001 29.8284 39.0001 28.8856 39.0001 27C39.0001 25.1143 39.0001 24.1715 38.4143 23.5857C37.8285 23 36.8857 23 35.0001 23C33.1145 23 32.1717 23 31.5859 23.5857Z" fill="#484848"/>
<path d="M22 73.6667V74C22 76.8089 22 78.2134 22.6741 79.2223C22.966 79.659 23.341 80.034 23.7777 80.3259C24.7866 81 26.1911 81 29 81H37.2C37.9432 81 38.3148 81 38.6257 80.9508C40.3373 80.6797 41.6797 79.3373 41.9508 77.6257C42 77.3148 42 76.9432 42 76.2V76.0714C42 76.0106 42 75.9802 41.9984 75.9605C41.9687 75.5852 41.5506 75.3762 41.2325 75.5775C41.2158 75.5881 41.1915 75.6064 41.1429 75.6429C41.0675 75.6993 41.0299 75.7276 40.9925 75.7543C40.3394 76.221 39.5611 76.4805 38.7586 76.4989C38.7126 76.5 38.6656 76.5 38.5714 76.5H33.5C31.6144 76.5 30.6716 76.5 30.0858 75.9142C29.5 75.3284 29.5 74.3856 29.5 72.5L29.5 67.8333C29.5 67.5218 29.5 67.366 29.433 67.25C29.3891 67.174 29.326 67.1109 29.25 67.067C29.134 67 28.9782 67 28.6667 67C26.1744 67 24.9282 67 24 67.5359C23.3919 67.887 22.887 68.3919 22.5359 69C22 69.9282 22 71.1744 22 73.6667Z" fill="#484848"/>
<path fill-rule="evenodd" clip-rule="evenodd" d="M37 84C37 84.5523 36.5523 85 36 85H28C27.4477 85 27 84.5523 27 84C27 83.4477 27.4477 83 28 83H36C36.5523 83 37 83.4477 37 84Z" fill="#484848"/>
<path d="M39.3517 73.5379L39.1759 73.4776C38.8495 73.3658 38.6863 73.3099 38.5932 73.1795C38.5 73.0491 38.5 72.8766 38.5 72.5316V69.4643C38.5 69.1176 38.5 68.9442 38.5939 68.8135C38.6878 68.6828 38.8521 68.6274 39.1807 68.5167L39.3614 68.4558C40.565 68.0503 41.1668 67.8475 41.5834 68.1467C42 68.446 42 69.081 42 70.3511V71.6459C42 72.922 42 73.5601 41.5813 73.8592C41.1626 74.1584 40.559 73.9515 39.3517 73.5379Z" fill="#484848"/>
<path d="M31 71C31 69.1144 31 68.1716 31.5858 67.5858C32.1716 67 33.1144 67 35 67C36.8856 67 37.8284 67 38.4142 67.5858C39 68.1716 39 69.1144 39 71C39 72.8856 39 73.8284 38.4142 74.4142C37.8284 75 36.8856 75 35 75C33.1144 75 32.1716 75 31.5858 74.4142C31 73.8284 31 72.8856 31 71Z" fill="#484848"/>
<path fill-rule="evenodd" clip-rule="evenodd" d="M33.0719 72.9446C33.4523 72.9958 34.0006 73 35 73C35.9993 73 36.5477 72.9958 36.928 72.9446C36.933 72.9439 36.9379 72.9433 36.9426 72.9426C36.9433 72.9379 36.9439 72.933 36.9446 72.928C36.9958 72.5477 37 71.9993 37 71C37 70.0007 36.9958 69.4523 36.9446 69.072C36.9439 69.067 36.9433 69.0621 36.9426 69.0574C36.9379 69.0567 36.933 69.0561 36.928 69.0554C36.5477 69.0042 35.9993 69 35 69C34.0006 69 33.4523 69.0042 33.0719 69.0554C33.067 69.0561 33.0621 69.0567 33.0574 69.0574C33.0567 69.0621 33.0561 69.067 33.0554 69.072C33.0042 69.4523 33 70.0007 33 71C33 71.9993 33.0042 72.5477 33.0554 72.928C33.0561 72.933 33.0567 72.9379 33.0574 72.9426C33.0621 72.9433 33.067 72.9439 33.0719 72.9446ZM33.0968 73.1381C33.0968 73.1381 33.0966 73.1376 33.0961 73.1363L33.0968 73.1381ZM33.0968 68.8619C33.0968 68.8619 33.0966 68.8625 33.0961 68.8637L33.0968 68.8619ZM32.8637 69.0961C32.8625 69.0966 32.8619 69.0968 32.8619 69.0968L32.8637 69.0961ZM37.1381 69.0968C37.1381 69.0968 37.1375 69.0966 37.1363 69.0961L37.1381 69.0968ZM36.9039 68.8637C36.9034 68.8625 36.9032 68.8619 36.9032 68.8619L36.9039 68.8637ZM36.9032 73.1381C36.9032 73.1381 36.9034 73.1375 36.9039 73.1363L36.9032 73.1381ZM31.5858 67.5858C31 68.1716 31 69.1144 31 71C31 72.8856 31 73.8284 31.5858 74.4142C32.1716 75 33.1144 75 35 75C36.8856 75 37.8284 75 38.4142 74.4142C39 73.8284 39 72.8856 39 71C39 69.1144 39 68.1716 38.4142 67.5858C37.8284 67 36.8856 67 35 67C33.1144 67 32.1716 67 31.5858 67.5858Z" fill="#484848"/>
</svg>
