<svg width="160" height="115" viewBox="0 0 160 115" fill="none" xmlns="http://www.w3.org/2000/svg">
<path d="M14.0357 41.0497C12.9663 41.3675 12.357 42.4924 12.6749 43.5619L27.9481 94.9419C28.2659 96.0114 29.3908 96.6206 30.4602 96.3028L67.8794 85.1796C68.9488 84.8618 69.5581 83.7369 69.2402 82.6675L56.4829 39.7514L42.6 32.5589L14.0357 41.0497Z" fill="#DEDEDE"/>
<path d="M47.0657 42.5328L56.5315 39.7744L42.601 32.6124C43.3096 35.0347 44.8076 40.1851 45.1315 41.4085C45.4555 42.6319 46.5559 42.6677 47.0657 42.5328Z" fill="#909090"/>
<path d="M108.837 29.799C107.772 29.4645 106.638 30.0564 106.304 31.1207L90.2344 82.2574C89.8999 83.3217 90.4918 84.4558 91.5561 84.7904L128.798 96.4934C129.862 96.8279 130.996 96.236 131.331 95.1717L144.753 52.4589L137.266 38.7328L108.837 29.799Z" fill="#DEDEDE"/>
<path d="M135.391 49.4982L144.781 52.5047L137.237 38.7773C136.47 41.1816 134.831 46.2892 134.416 47.4846C134 48.68 134.893 49.3251 135.391 49.4982Z" fill="#909090"/>
<path d="M50.8696 11.5851C49.111 11.5713 47.6741 12.9862 47.6604 14.7449L47.0042 99.2378C46.9905 100.996 48.4054 102.433 50.1641 102.447L111.699 102.925C113.457 102.939 114.894 101.524 114.908 99.7652L115.456 29.191L97.8427 11.9501L50.8696 11.5851Z" fill="#82CA90"/>
<path d="M87.3632 24.9268L87.4751 24.9323C88.0265 24.9884 88.4568 25.4541 88.4568 26.0203C88.4568 26.5865 88.0265 27.0522 87.4751 27.1083L87.3632 27.1138H56.7442C56.1402 27.1138 55.6506 26.6242 55.6506 26.0203C55.6506 25.4164 56.1402 24.9268 56.7442 24.9268H87.3632Z" fill="white"/>
<path d="M87.3632 34.1123L87.4751 34.1179C88.0265 34.1739 88.4568 34.6397 88.4568 35.2058C88.4568 35.772 88.0265 36.2378 87.4751 36.2938L87.3632 36.2994H56.7442C56.1402 36.2994 55.6506 35.8098 55.6506 35.2058C55.6506 34.6019 56.1402 34.1123 56.7442 34.1123H87.3632Z" fill="white"/>
<path d="M87.3632 44.1729L87.4751 44.1784C88.0265 44.2345 88.4568 44.7002 88.4568 45.2664C88.4568 45.8326 88.0265 46.2983 87.4751 46.3544L87.3632 46.3599H56.7442C56.1402 46.3599 55.6506 45.8703 55.6506 45.2664C55.6506 44.6624 56.1402 44.1729 56.7442 44.1729H87.3632Z" fill="white"/>
<path d="M99.6108 57.7324C100.215 57.7324 100.704 58.222 100.704 58.826C100.704 59.4299 100.215 59.9195 99.6108 59.9195H56.7442C56.1402 59.9195 55.6506 59.4299 55.6506 58.826C55.6506 58.222 56.1402 57.7324 56.7442 57.7324H99.6108Z" fill="white"/>
<path d="M99.6108 68.2305C100.215 68.2305 100.704 68.7201 100.704 69.324C100.704 69.928 100.215 70.4175 99.6108 70.4175H56.7442C56.1402 70.4175 55.6506 69.928 55.6506 69.324C55.6506 68.7201 56.1402 68.2305 56.7442 68.2305H99.6108Z" fill="white"/>
<path d="M99.9777 29.0436L115.518 29.2481L97.8194 12.0313C97.7711 16.0093 97.6556 24.4639 97.5802 26.4574C97.5047 28.4509 99.147 29.0121 99.9777 29.0436Z" fill="#2A6335"/>
</svg>
