<svg width="20" height="14" viewBox="0 0 20 14" fill="none" xmlns="http://www.w3.org/2000/svg">
<path fill-rule="evenodd" clip-rule="evenodd" d="M0.0856858 7.40501C3.98079 16.1983 16.0192 16.1983 19.9143 7.40501C20.0286 7.14709 20.0286 6.85291 19.9143 6.59499C16.0192 -2.19833 3.98079 -2.19833 0.0856858 6.59499C-0.0285619 6.85291 -0.0285619 7.14709 0.0856858 7.40501ZM17.8957 7C14.5877 0.333334 5.41231 0.333334 2.10433 7C5.41231 13.6667 14.5877 13.6667 17.8957 7Z" fill="#484848"/>
<path fill-rule="evenodd" clip-rule="evenodd" d="M10 9C11.1046 9 12 8.10457 12 7C12 5.89543 11.1046 5 10 5C8.89543 5 8 5.89543 8 7C8 8.10457 8.89543 9 10 9ZM10 11C12.2091 11 14 9.20914 14 7C14 4.79086 12.2091 3 10 3C7.79086 3 6 4.79086 6 7C6 9.20914 7.79086 11 10 11Z" fill="#484848"/>
</svg>
