<svg width="24" height="24" viewBox="0 0 24 24" fill="none" xmlns="http://www.w3.org/2000/svg">
<path fill-rule="evenodd" clip-rule="evenodd" d="M2.08569 12.405C5.98079 21.1983 18.0192 21.1983 21.9143 12.405C22.0286 12.1471 22.0286 11.8529 21.9143 11.595C18.0192 2.80167 5.98079 2.80167 2.08569 11.595C1.97144 11.8529 1.97144 12.1471 2.08569 12.405ZM19.8957 12C16.5877 5.33333 7.41231 5.33333 4.10433 12C7.41231 18.6667 16.5877 18.6667 19.8957 12Z" fill="#484848"/>
<path fill-rule="evenodd" clip-rule="evenodd" d="M12 14C13.1046 14 14 13.1046 14 12C14 10.8954 13.1046 10 12 10C10.8954 10 10 10.8954 10 12C10 13.1046 10.8954 14 12 14ZM12 16C14.2091 16 16 14.2091 16 12C16 9.79086 14.2091 8 12 8C9.79086 8 8 9.79086 8 12C8 14.2091 9.79086 16 12 16Z" fill="#484848"/>
</svg>
