<svg width="20" height="18" viewBox="0 0 20 18" fill="none" xmlns="http://www.w3.org/2000/svg">
<path fill-rule="evenodd" clip-rule="evenodd" d="M13.9178 2.75369C8.90652 0.793248 2.68411 2.74605 0.0856858 8.61208C-0.0285619 8.87 -0.0285619 9.16418 0.0856858 9.4221C0.838188 11.1209 1.89462 12.4915 3.13756 13.5339L4.5623 12.1092C3.58325 11.322 2.73661 10.2913 2.10433 9.01709C4.17527 4.84348 8.5458 3.28272 12.3366 4.33482L13.9178 2.75369ZM11.4143 5.25721C10.9746 5.09097 10.4979 5 10 5C7.79086 5 6 6.79086 6 9C6 9.49791 6.09097 9.97457 6.25721 10.4143L8.0325 8.63897C8.18111 7.82383 8.82383 7.18111 9.63897 7.0325L11.4143 5.25721ZM9.37661 12.9517L13.9517 8.37661C13.9835 8.57975 14 8.78794 14 9C14 11.2091 12.2091 13 10 13C9.78795 13 9.57975 12.9835 9.37661 12.9517ZM8.44955 13.8788C12.0421 14.5254 15.9666 12.9048 17.8957 9.01709C17.3774 7.97257 16.7151 7.0917 15.9538 6.37449L17.372 4.95628C18.3946 5.93197 19.2669 7.15057 19.9143 8.61208C20.0286 8.87 20.0286 9.16418 19.9143 9.4221C17.4381 15.0121 11.671 17.0485 6.79711 15.5312L8.44955 13.8788Z" fill="#484848"/>
<path fill-rule="evenodd" clip-rule="evenodd" d="M18.7071 0.292893C19.0976 0.683417 19.0976 1.31658 18.7071 1.70711L2.70711 17.7071C2.31658 18.0976 1.68342 18.0976 1.29289 17.7071C0.902368 17.3166 0.902368 16.6834 1.29289 16.2929L17.2929 0.292893C17.6834 -0.0976311 18.3166 -0.0976311 18.7071 0.292893Z" fill="#484848"/>
</svg>
