<svg width="24" height="24" viewBox="0 0 24 24" fill="none" xmlns="http://www.w3.org/2000/svg">
<path fill-rule="evenodd" clip-rule="evenodd" d="M15.9178 5.75369C10.9065 3.79325 4.68411 5.74605 2.08569 11.6121C1.97144 11.87 1.97144 12.1642 2.08569 12.4221C2.83819 14.1209 3.89462 15.4915 5.13756 16.5339L6.5623 15.1092C5.58325 14.322 4.73661 13.2913 4.10433 12.0171C6.17527 7.84348 10.5458 6.28272 14.3366 7.33482L15.9178 5.75369ZM13.4143 8.25721C12.9746 8.09097 12.4979 8 12 8C9.79086 8 8 9.79086 8 12C8 12.4979 8.09097 12.9746 8.25721 13.4143L10.0325 11.639C10.1811 10.8238 10.8238 10.1811 11.639 10.0325L13.4143 8.25721ZM11.3766 15.9517L15.9517 11.3766C15.9835 11.5797 16 11.7879 16 12C16 14.2091 14.2091 16 12 16C11.7879 16 11.5797 15.9835 11.3766 15.9517ZM10.4496 16.8788C14.0421 17.5254 17.9666 15.9048 19.8957 12.0171C19.3774 10.9726 18.7151 10.0917 17.9538 9.37449L19.372 7.95628C20.3946 8.93197 21.2669 10.1506 21.9143 11.6121C22.0286 11.87 22.0286 12.1642 21.9143 12.4221C19.4381 18.0121 13.671 20.0485 8.79711 18.5312L10.4496 16.8788Z" fill="#484848"/>
<path fill-rule="evenodd" clip-rule="evenodd" d="M20.7071 3.29289C21.0976 3.68342 21.0976 4.31658 20.7071 4.70711L4.70711 20.7071C4.31658 21.0976 3.68342 21.0976 3.29289 20.7071C2.90237 20.3166 2.90237 19.6834 3.29289 19.2929L19.2929 3.29289C19.6834 2.90237 20.3166 2.90237 20.7071 3.29289Z" fill="#484848"/>
</svg>
