<svg width="20" height="20" viewBox="0 0 20 20" fill="none" xmlns="http://www.w3.org/2000/svg">
<path fill-rule="evenodd" clip-rule="evenodd" d="M7.66555 0.276313C9.98079 -0.279526 12.4184 0.00898278 14.5399 1.08995C16.6614 2.17091 18.3276 3.97339 19.2388 6.17317C20.15 8.37295 20.2463 10.8257 19.5106 13.0902C18.7748 15.3547 17.2551 17.2823 15.225 18.5264C13.1948 19.7705 10.7874 20.2493 8.43565 19.8769C6.08394 19.5044 3.9423 18.305 2.39594 16.4945C0.849584 14.6839 0 12.381 0 10C0 9.44771 0.447715 9 1 9C1.55228 9 2 9.44771 2 10C2 11.9048 2.67967 13.7471 3.91675 15.1956C5.15384 16.644 6.86715 17.6035 8.74852 17.9015C10.6299 18.1995 12.5559 17.8164 14.18 16.8211C15.8041 15.8258 17.0198 14.2837 17.6085 12.4721C18.1971 10.6605 18.12 8.69836 17.391 6.93854C16.6621 5.17871 15.3291 3.73673 13.6319 2.87196C11.9347 2.00719 9.98463 1.77638 8.13244 2.22105C6.28024 2.66572 4.64749 3.75669 3.52786 5.29772L1.90983 4.12215C3.30937 2.19586 5.3503 0.832153 7.66555 0.276313Z" fill="#484848"/>
<path fill-rule="evenodd" clip-rule="evenodd" d="M2.00002 1.44225e-06C2.5523 3.3496e-06 3.00002 0.44772 3.00001 1L3 3.99997L5.99998 3.99992C6.55227 3.99991 6.99999 4.44761 7 4.9999C7.00001 5.55218 6.5523 5.99991 6.00002 5.99992L2.00002 5.99999C1.7348 6 1.48044 5.89464 1.2929 5.70711C1.10536 5.51957 0.999999 5.26521 1 4.99999L1.00001 0.999998C1.00002 0.447713 1.44773 -4.65095e-07 2.00002 1.44225e-06Z" fill="#484848"/>
<path fill-rule="evenodd" clip-rule="evenodd" d="M10 12C11.6569 12 13 10.6569 13 9C13 7.34315 11.6569 6 10 6C8.34315 6 7 7.34315 7 9C7 10.6569 8.34315 12 10 12ZM10 10.5C9.17157 10.5 8.5 9.82843 8.5 9C8.5 8.17157 9.17157 7.5 10 7.5C10.8284 7.5 11.5 8.17157 11.5 9C11.5 9.82843 10.8284 10.5 10 10.5Z" fill="#484848"/>
<path fill-rule="evenodd" clip-rule="evenodd" d="M10 11C10.5523 11 11 11.4477 11 12V14C11 14.5523 10.5523 15 10 15C9.44771 15 9 14.5523 9 14V12C9 11.4477 9.44771 11 10 11Z" fill="#484848"/>
</svg>
