<svg width="20" height="20" viewBox="0 0 20 20" fill="none" xmlns="http://www.w3.org/2000/svg">
<path d="M12 8C12 9.10457 11.1046 10 10 10C8.89543 10 8 9.10457 8 8C8 6.89543 8.89543 6 10 6C11.1046 6 12 6.89543 12 8Z" fill="#484848"/>
<path fill-rule="evenodd" clip-rule="evenodd" d="M10 20C15.5228 20 20 15.5228 20 10C20 4.47715 15.5228 0 10 0C4.47715 0 0 4.47715 0 10C0 15.5228 4.47715 20 10 20ZM11 11.874C12.7252 11.4299 14 9.86384 14 8C14 5.79086 12.2091 4 10 4C7.79086 4 6 5.79086 6 8C6 9.86384 7.27477 11.4299 9 11.874V15C9 15.5523 9.44772 16 10 16C10.5523 16 11 15.5523 11 15V11.874Z" fill="#484848"/>
</svg>
