<svg width="64" height="108" viewBox="0 0 64 108" fill="none" xmlns="http://www.w3.org/2000/svg">
<rect x="0.5" y="0.5" width="63" height="107" rx="4.5" stroke="#9747FF" stroke-dasharray="10 5"/>
<path fill-rule="evenodd" clip-rule="evenodd" d="M32 40C36.4183 40 40 36.4183 40 32C40 27.5817 36.4183 24 32 24C27.5817 24 24 27.5817 24 32C24 36.4183 27.5817 40 32 40ZM32 42C37.5228 42 42 37.5228 42 32C42 26.4772 37.5228 22 32 22C26.4772 22 22 26.4772 22 32C22 37.5228 26.4772 42 32 42Z" fill="#484848"/>
<path fill-rule="evenodd" clip-rule="evenodd" d="M32 32C33.1046 32 34 31.1046 34 30C34 28.8954 33.1046 28 32 28C30.8954 28 30 28.8954 30 30C30 31.1046 30.8954 32 32 32ZM32 34C29.7909 34 28 32.2091 28 30C28 27.7909 29.7909 26 32 26C34.2091 26 36 27.7909 36 30C36 32.2091 34.2091 34 32 34Z" fill="#484848"/>
<path fill-rule="evenodd" clip-rule="evenodd" d="M32 32C32.5523 32 33 32.4477 33 33V37C33 37.5523 32.5523 38 32 38C31.4477 38 31 37.5523 31 37V33C31 32.4477 31.4477 32 32 32Z" fill="#484848"/>
<path d="M34 74C34 75.1046 33.1046 76 32 76C30.8954 76 30 75.1046 30 74C30 72.8954 30.8954 72 32 72C33.1046 72 34 72.8954 34 74Z" fill="#484848"/>
<path fill-rule="evenodd" clip-rule="evenodd" d="M32 86C37.5228 86 42 81.5228 42 76C42 70.4772 37.5228 66 32 66C26.4772 66 22 70.4772 22 76C22 81.5228 26.4772 86 32 86ZM33 77.874C34.7252 77.4299 36 75.8638 36 74C36 71.7909 34.2091 70 32 70C29.7909 70 28 71.7909 28 74C28 75.8638 29.2748 77.4299 31 77.874V81C31 81.5523 31.4477 82 32 82C32.5523 82 33 81.5523 33 81V77.874Z" fill="#484848"/>
</svg>
