<svg width="24" height="24" viewBox="0 0 24 24" fill="none" xmlns="http://www.w3.org/2000/svg">
<path fill-rule="evenodd" clip-rule="evenodd" d="M9.66555 2.27631C11.9808 1.72047 14.4184 2.00898 16.5399 3.08995C18.6614 4.17091 20.3276 5.97339 21.2388 8.17317C22.15 10.373 22.2463 12.8257 21.5106 15.0902C20.7748 17.3547 19.2551 19.2823 17.225 20.5264C15.1948 21.7705 12.7874 22.2493 10.4357 21.8769C8.08394 21.5044 5.9423 20.305 4.39594 18.4945C2.84958 16.6839 2 14.381 2 12C2 11.4477 2.44772 11 3 11C3.55228 11 4 11.4477 4 12C4 13.9048 4.67967 15.7471 5.91675 17.1956C7.15384 18.644 8.86715 19.6035 10.7485 19.9015C12.6299 20.1995 14.5559 19.8164 16.18 18.8211C17.8041 17.8258 19.0198 16.2837 19.6085 14.4721C20.1971 12.6605 20.12 10.6984 19.391 8.93854C18.6621 7.17871 17.3291 5.73673 15.6319 4.87196C13.9347 4.00719 11.9846 3.77638 10.1324 4.22105C8.28024 4.66572 6.64749 5.75669 5.52786 7.29772L3.90983 6.12215C5.30937 4.19586 7.3503 2.83215 9.66555 2.27631Z" fill="#484848"/>
<path fill-rule="evenodd" clip-rule="evenodd" d="M4.00002 2C4.5523 2 5.00002 2.44772 5.00001 3L5 5.99997L7.99998 5.99992C8.55227 5.99991 8.99999 6.44761 9 6.9999C9.00001 7.55218 8.5523 7.99991 8.00002 7.99992L4.00002 7.99999C3.7348 8 3.48044 7.89464 3.2929 7.70711C3.10536 7.51957 3 7.26521 3 6.99999L3.00001 3C3.00002 2.44771 3.44773 2 4.00002 2Z" fill="#484848"/>
<path fill-rule="evenodd" clip-rule="evenodd" d="M13 12H11C10.0007 12 9.45234 12.0042 9.07195 12.0554C9.067 12.0561 9.06214 12.0567 9.05739 12.0574C9.05672 12.0621 9.05606 12.067 9.05539 12.072C9.00425 12.4523 9 13.0007 9 14C9 14.9994 9.00425 15.5477 9.05539 15.9281C9.05606 15.933 9.05672 15.9379 9.05739 15.9426C9.06214 15.9433 9.067 15.9439 9.07195 15.9446C9.45234 15.9958 10.0007 16 11 16H13C13.9993 16 14.5477 15.9958 14.928 15.9446C14.933 15.9439 14.9379 15.9433 14.9426 15.9426C14.9433 15.9379 14.9439 15.933 14.9446 15.9281C14.9958 15.5477 15 14.9994 15 14C15 13.0007 14.9958 12.4523 14.9446 12.072C14.9439 12.067 14.9433 12.0621 14.9426 12.0574C14.9379 12.0567 14.933 12.0561 14.928 12.0554C14.5477 12.0042 13.9993 12 13 12ZM15.1381 12.0968L15.1363 12.0961L15.1381 12.0968ZM14.9039 11.8637L14.9032 11.8619L14.9039 11.8637ZM14.9032 16.1381L14.9039 16.1363L14.9032 16.1381ZM9.09681 16.1381L9.09614 16.1363L9.09681 16.1381ZM9.09681 11.8619L9.09614 11.8637L9.09681 11.8619ZM8.86368 12.0961L8.86187 12.0968L8.86368 12.0961ZM7.58579 10.5858C7 11.1716 7 12.1144 7 14C7 15.8856 7 16.8284 7.58579 17.4142C8.17157 18 9.11438 18 11 18H13C14.8856 18 15.8284 18 16.4142 17.4142C17 16.8284 17 15.8856 17 14C17 12.1144 17 11.1716 16.4142 10.5858C15.8284 10 14.8856 10 13 10H11C9.11438 10 8.17157 10 7.58579 10.5858Z" fill="#484848"/>
<path d="M13 14C13 14.5523 12.5523 15 12 15C11.4477 15 11 14.5523 11 14C11 13.4477 11.4477 13 12 13C12.5523 13 13 13.4477 13 14Z" fill="#484848"/>
<path fill-rule="evenodd" clip-rule="evenodd" d="M10 12C10.5523 12 11 11.5523 11 11V9C11 8.44772 11.4477 8 12 8C12.5523 8 13 8.44772 13 9V11C13 11.5523 13.4477 12 14 12C14.5523 12 15 11.5523 15 11V9C15 7.34315 13.6569 6 12 6C10.3431 6 9 7.34314 9 9V11C9 11.5523 9.44772 12 10 12Z" fill="#484848"/>
</svg>
