<svg width="16" height="20" viewBox="0 0 16 20" fill="none" xmlns="http://www.w3.org/2000/svg">
<path fill-rule="evenodd" clip-rule="evenodd" d="M3 5C3 2.23858 5.23858 0 8 0C10.7614 0 13 2.23858 13 5V8C13 8.55228 12.5523 9 12 9C11.4477 9 11 8.55228 11 8V5C11 3.34315 9.65686 2 8 2C6.34315 2 5 3.34315 5 5V8C5 8.55228 4.55229 9 4 9C3.44772 9 3 8.55228 3 8V5Z" fill="#484848"/>
<path fill-rule="evenodd" clip-rule="evenodd" d="M4.93417 7C4.95604 7 4.97799 7 5 7L11.0658 7C11.9523 6.99995 12.7161 6.99991 13.3278 7.08214C13.9833 7.17027 14.6117 7.36902 15.1213 7.87868C15.631 8.38834 15.8297 9.01669 15.9179 9.67221C16.0001 10.2839 16.0001 11.0477 16 11.9342V15.0658C16.0001 15.9523 16.0001 16.7161 15.9179 17.3278C15.8297 17.9833 15.631 18.6117 15.1213 19.1213C14.6117 19.631 13.9833 19.8297 13.3278 19.9179C12.7161 20.0001 11.9523 20.0001 11.0658 20H4.93417C4.04769 20.0001 3.28387 20.0001 2.67221 19.9179C2.0167 19.8297 1.38835 19.631 0.878684 19.1213C0.369022 18.6117 0.170277 17.9833 0.0821453 17.3278C-9.01893e-05 16.7161 -4.73896e-05 15.9523 2.43992e-06 15.0658L4.82411e-06 12C4.82411e-06 11.978 3.63201e-06 11.956 2.43992e-06 11.9342C-4.73896e-05 11.0477 -9.01893e-05 10.2839 0.0821453 9.67221C0.170277 9.01669 0.369022 8.38834 0.878684 7.87868C1.38835 7.36902 2.0167 7.17027 2.67221 7.08214C3.28387 6.99991 4.04769 6.99995 4.93417 7ZM2.93871 9.06431C2.50497 9.12262 2.36902 9.21677 2.2929 9.29289C2.21677 9.36902 2.12263 9.50496 2.06431 9.9387C2.00213 10.4012 2 11.0289 2 12V15C2 15.9711 2.00213 16.5988 2.06431 17.0613C2.12263 17.495 2.21677 17.631 2.2929 17.7071C2.36902 17.7832 2.50497 17.8774 2.93871 17.9357C3.40122 17.9979 4.02893 18 5 18H11C11.9711 18 12.5988 17.9979 13.0613 17.9357C13.495 17.8774 13.631 17.7832 13.7071 17.7071C13.7832 17.631 13.8774 17.495 13.9357 17.0613C13.9979 16.5988 14 15.9711 14 15V12C14 11.0289 13.9979 10.4012 13.9357 9.9387C13.8774 9.50496 13.7832 9.36902 13.7071 9.29289C13.631 9.21677 13.495 9.12262 13.0613 9.06431C12.5988 9.00212 11.9711 9 11 9H5C4.02893 9 3.40122 9.00212 2.93871 9.06431Z" fill="#484848"/>
<path fill-rule="evenodd" clip-rule="evenodd" d="M1.58579 8.58579C1 9.17157 1 10.1144 1 12V15C1 16.8856 1 17.8284 1.58579 18.4142C2.17157 19 3.11438 19 5 19H11C12.8856 19 13.8284 19 14.4142 18.4142C15 17.8284 15 16.8856 15 15V12C15 10.1144 15 9.17157 14.4142 8.58579C13.8284 8 12.8856 8 11 8H5C3.11439 8 2.17157 8 1.58579 8.58579ZM9 12C9 11.4477 8.55228 11 8 11C7.44772 11 7 11.4477 7 12V15C7 15.5523 7.44772 16 8 16C8.55228 16 9 15.5523 9 15V12Z" fill="#484848"/>
</svg>
