<svg width="20" height="20" viewBox="0 0 20 20" fill="none" xmlns="http://www.w3.org/2000/svg">
<path fill-rule="evenodd" clip-rule="evenodd" d="M10 18C14.4183 18 18 14.4183 18 10C18 5.58172 14.4183 2 10 2C5.58172 2 2 5.58172 2 10C2 14.4183 5.58172 18 10 18ZM10 20C15.5228 20 20 15.5228 20 10C20 4.47715 15.5228 0 10 0C4.47715 0 0 4.47715 0 10C0 15.5228 4.47715 20 10 20Z" fill="#484848"/>
<path fill-rule="evenodd" clip-rule="evenodd" d="M7 7C7 5.34315 8.34315 4 10 4C11.6569 4 13 5.34315 13 7V7.5C13 8.05228 12.5523 8.5 12 8.5C11.4477 8.5 11 8.05228 11 7.5V7C11 6.44772 10.5523 6 10 6C9.44772 6 9 6.44772 9 7V7.5C9 8.05228 8.55229 8.5 8 8.5C7.44772 8.5 7 8.05228 7 7.5V7Z" fill="#484848"/>
<path fill-rule="evenodd" clip-rule="evenodd" d="M8.96802 7.5H11.032C11.4706 7.49999 11.8491 7.49998 12.1624 7.52135C12.4922 7.54385 12.8221 7.59336 13.1481 7.72836C13.8831 8.03284 14.4672 8.61687 14.7716 9.35195C14.9066 9.67788 14.9561 10.0078 14.9786 10.3376C15 10.6509 15 11.0294 15 11.468V11.532C15 11.9706 15 12.3491 14.9786 12.6624C14.9561 12.9922 14.9066 13.3221 14.7716 13.6481C14.4672 14.3831 13.8831 14.9672 13.1481 15.2716C12.8221 15.4066 12.4922 15.4561 12.1624 15.4787C11.8491 15.5 11.4706 15.5 11.032 15.5H8.96801C8.52936 15.5 8.15087 15.5 7.83762 15.4787C7.50779 15.4561 7.17788 15.4066 6.85195 15.2716C6.11687 14.9672 5.53284 14.3831 5.22836 13.6481C5.09336 13.3221 5.04385 12.9922 5.02135 12.6624C4.99998 12.3491 4.99999 11.9706 5 11.532V11.468C4.99999 11.0294 4.99998 10.6509 5.02135 10.3376C5.04385 10.0078 5.09336 9.67788 5.22836 9.35195C5.53284 8.61687 6.11687 8.03284 6.85195 7.72836C7.17788 7.59336 7.50779 7.54385 7.83762 7.52135C8.15088 7.49998 8.52937 7.49999 8.96802 7.5ZM7 11.5C7 11.9796 7.00054 12.2893 7.01671 12.5262C7.03227 12.7542 7.05888 12.8411 7.07612 12.8827C7.17761 13.1277 7.37229 13.3224 7.61732 13.4239C7.65893 13.4411 7.74576 13.4677 7.97376 13.4833C8.21074 13.4995 8.52038 13.5 9 13.5H11C11.4796 13.5 11.7893 13.4995 12.0262 13.4833C12.2542 13.4677 12.3411 13.4411 12.3827 13.4239C12.6277 13.3224 12.8224 13.1277 12.9239 12.8827C12.9411 12.8411 12.9677 12.7542 12.9833 12.5262C12.9995 12.2893 13 11.9796 13 11.5C13 11.0204 12.9995 10.7107 12.9833 10.4738C12.9677 10.2458 12.9411 10.1589 12.9239 10.1173C12.8224 9.87229 12.6277 9.67761 12.3827 9.57612C12.3411 9.55888 12.2542 9.53227 12.0262 9.51671C11.7893 9.50054 11.4796 9.5 11 9.5H9C8.52038 9.5 8.21074 9.50054 7.97376 9.51671C7.74576 9.53227 7.65893 9.55888 7.61732 9.57612C7.37229 9.67761 7.17761 9.87229 7.07612 10.1173C7.05888 10.1589 7.03227 10.2458 7.01671 10.4738C7.00054 10.7107 7 11.0204 7 11.5Z" fill="#484848"/>
<path d="M11 11.5C11 12.0523 10.5523 12.5 10 12.5C9.44771 12.5 9 12.0523 9 11.5C9 10.9477 9.44771 10.5 10 10.5C10.5523 10.5 11 10.9477 11 11.5Z" fill="#484848"/>
</svg>
