<svg width="20" height="20" viewBox="0 0 20 20" fill="none" xmlns="http://www.w3.org/2000/svg">
<path fill-rule="evenodd" clip-rule="evenodd" d="M7.66555 0.276313C9.98079 -0.279526 12.4184 0.00898278 14.5399 1.08995C16.6614 2.17091 18.3276 3.97339 19.2388 6.17317C20.15 8.37295 20.2463 10.8257 19.5106 13.0902C18.7748 15.3547 17.2551 17.2823 15.225 18.5264C13.1948 19.7705 10.7874 20.2493 8.43565 19.8769C6.08394 19.5044 3.9423 18.305 2.39594 16.4945C0.849584 14.6839 0 12.381 0 10C0 9.44771 0.447715 9 1 9C1.55228 9 2 9.44771 2 10C2 11.9048 2.67967 13.7471 3.91675 15.1956C5.15384 16.644 6.86715 17.6035 8.74852 17.9015C10.6299 18.1995 12.5559 17.8164 14.18 16.8211C15.8041 15.8258 17.0198 14.2837 17.6085 12.4721C18.1971 10.6605 18.12 8.69836 17.391 6.93854C16.6621 5.17871 15.3291 3.73673 13.6319 2.87196C11.9347 2.00719 9.98463 1.77638 8.13244 2.22105C6.28024 2.66572 4.64749 3.75669 3.52786 5.29772L1.90983 4.12215C3.30937 2.19586 5.3503 0.832153 7.66555 0.276313Z" fill="#484848"/>
<path fill-rule="evenodd" clip-rule="evenodd" d="M2.00002 1.44225e-06C2.5523 3.3496e-06 3.00002 0.44772 3.00001 1L3 3.99997L5.99998 3.99992C6.55227 3.99991 6.99999 4.44761 7 4.9999C7.00001 5.55218 6.5523 5.99991 6.00002 5.99992L2.00002 5.99999C1.7348 6 1.48044 5.89464 1.2929 5.70711C1.10536 5.51957 0.999999 5.26521 1 4.99999L1.00001 0.999998C1.00002 0.447713 1.44773 -4.65095e-07 2.00002 1.44225e-06Z" fill="#484848"/>
<path fill-rule="evenodd" clip-rule="evenodd" d="M11 10H9C8.00065 10 7.45234 10.0042 7.07195 10.0554C7.067 10.0561 7.06214 10.0567 7.05739 10.0574C7.05672 10.0621 7.05606 10.067 7.05539 10.072C7.00425 10.4523 7 11.0007 7 12C7 12.9994 7.00425 13.5477 7.05539 13.9281C7.05606 13.933 7.05672 13.9379 7.05739 13.9426C7.06214 13.9433 7.067 13.9439 7.07195 13.9446C7.45234 13.9958 8.00065 14 9 14H11C11.9993 14 12.5477 13.9958 12.928 13.9446C12.933 13.9439 12.9379 13.9433 12.9426 13.9426C12.9433 13.9379 12.9439 13.933 12.9446 13.9281C12.9958 13.5477 13 12.9994 13 12C13 11.0007 12.9958 10.4523 12.9446 10.072C12.9439 10.067 12.9433 10.0621 12.9426 10.0574C12.9379 10.0567 12.933 10.0561 12.928 10.0554C12.5477 10.0042 11.9993 10 11 10ZM13.1381 10.0968L13.1363 10.0961L13.1381 10.0968ZM12.9039 9.86369L12.9032 9.86187L12.9039 9.86369ZM12.9032 14.1381L12.9039 14.1363L12.9032 14.1381ZM7.09681 14.1381L7.09614 14.1363L7.09681 14.1381ZM7.09681 9.86187L7.09614 9.86368L7.09681 9.86187ZM6.86368 10.0961L6.86187 10.0968L6.86368 10.0961ZM5.58579 8.58579C5 9.17158 5 10.1144 5 12C5 13.8856 5 14.8284 5.58579 15.4142C6.17157 16 7.11438 16 9 16H11C12.8856 16 13.8284 16 14.4142 15.4142C15 14.8284 15 13.8856 15 12C15 10.1144 15 9.17158 14.4142 8.58579C13.8284 8 12.8856 8 11 8H9C7.11438 8 6.17157 8 5.58579 8.58579Z" fill="#484848"/>
<path d="M11 12C11 12.5523 10.5523 13 10 13C9.44771 13 9 12.5523 9 12C9 11.4477 9.44771 11 10 11C10.5523 11 11 11.4477 11 12Z" fill="#484848"/>
<path fill-rule="evenodd" clip-rule="evenodd" d="M8 10C8.55229 10 9 9.55228 9 9V7C9 6.44772 9.44771 6 10 6C10.5523 6 11 6.44772 11 7V9C11 9.55228 11.4477 10 12 10C12.5523 10 13 9.55228 13 9V7C13 5.34315 11.6569 4 10 4C8.34315 4 7 5.34314 7 7V9C7 9.55228 7.44772 10 8 10Z" fill="#484848"/>
</svg>
