<svg width="24" height="24" viewBox="0 0 24 24" fill="none" xmlns="http://www.w3.org/2000/svg">
<path fill-rule="evenodd" clip-rule="evenodd" d="M12 20C16.4183 20 20 16.4183 20 12C20 7.58172 16.4183 4 12 4C7.58172 4 4 7.58172 4 12C4 16.4183 7.58172 20 12 20ZM12 22C17.5228 22 22 17.5228 22 12C22 6.47715 17.5228 2 12 2C6.47715 2 2 6.47715 2 12C2 17.5228 6.47715 22 12 22Z" fill="#484848"/>
<path fill-rule="evenodd" clip-rule="evenodd" d="M9 9C9 7.34315 10.3431 6 12 6C13.6569 6 15 7.34315 15 9V9.5C15 10.0523 14.5523 10.5 14 10.5C13.4477 10.5 13 10.0523 13 9.5V9C13 8.44772 12.5523 8 12 8C11.4477 8 11 8.44772 11 9V9.5C11 10.0523 10.5523 10.5 10 10.5C9.44772 10.5 9 10.0523 9 9.5V9Z" fill="#484848"/>
<path fill-rule="evenodd" clip-rule="evenodd" d="M10.968 9.5H13.032C13.4706 9.49999 13.8491 9.49998 14.1624 9.52135C14.4922 9.54385 14.8221 9.59336 15.1481 9.72836C15.8831 10.0328 16.4672 10.6169 16.7716 11.3519C16.9066 11.6779 16.9561 12.0078 16.9786 12.3376C17 12.6509 17 13.0294 17 13.468V13.532C17 13.9706 17 14.3491 16.9786 14.6624C16.9561 14.9922 16.9066 15.3221 16.7716 15.6481C16.4672 16.3831 15.8831 16.9672 15.1481 17.2716C14.8221 17.4066 14.4922 17.4561 14.1624 17.4787C13.8491 17.5 13.4706 17.5 13.032 17.5H10.968C10.5294 17.5 10.1509 17.5 9.83762 17.4787C9.50779 17.4561 9.17788 17.4066 8.85195 17.2716C8.11687 16.9672 7.53284 16.3831 7.22836 15.6481C7.09336 15.3221 7.04385 14.9922 7.02135 14.6624C6.99998 14.3491 6.99999 13.9706 7 13.532V13.468C6.99999 13.0294 6.99998 12.6509 7.02135 12.3376C7.04385 12.0078 7.09336 11.6779 7.22836 11.3519C7.53284 10.6169 8.11687 10.0328 8.85195 9.72836C9.17788 9.59336 9.50779 9.54385 9.83762 9.52135C10.1509 9.49998 10.5294 9.49999 10.968 9.5ZM9 13.5C9 13.9796 9.00054 14.2893 9.01671 14.5262C9.03227 14.7542 9.05888 14.8411 9.07612 14.8827C9.17761 15.1277 9.37229 15.3224 9.61732 15.4239C9.65893 15.4411 9.74576 15.4677 9.97376 15.4833C10.2107 15.4995 10.5204 15.5 11 15.5H13C13.4796 15.5 13.7893 15.4995 14.0262 15.4833C14.2542 15.4677 14.3411 15.4411 14.3827 15.4239C14.6277 15.3224 14.8224 15.1277 14.9239 14.8827C14.9411 14.8411 14.9677 14.7542 14.9833 14.5262C14.9995 14.2893 15 13.9796 15 13.5C15 13.0204 14.9995 12.7107 14.9833 12.4738C14.9677 12.2458 14.9411 12.1589 14.9239 12.1173C14.8224 11.8723 14.6277 11.6776 14.3827 11.5761C14.3411 11.5589 14.2542 11.5323 14.0262 11.5167C13.7893 11.5005 13.4796 11.5 13 11.5H11C10.5204 11.5 10.2107 11.5005 9.97376 11.5167C9.74576 11.5323 9.65893 11.5589 9.61732 11.5761C9.37229 11.6776 9.17761 11.8723 9.07612 12.1173C9.05888 12.1589 9.03227 12.2458 9.01671 12.4738C9.00054 12.7107 9 13.0204 9 13.5Z" fill="#484848"/>
<path d="M13 13.5C13 14.0523 12.5523 14.5 12 14.5C11.4477 14.5 11 14.0523 11 13.5C11 12.9477 11.4477 12.5 12 12.5C12.5523 12.5 13 12.9477 13 13.5Z" fill="#484848"/>
</svg>
