<svg width="64" height="108" viewBox="0 0 64 108" fill="none" xmlns="http://www.w3.org/2000/svg">
<rect x="0.5" y="0.5" width="63" height="107" rx="4.5" stroke="#9747FF" stroke-dasharray="10 5"/>
<path fill-rule="evenodd" clip-rule="evenodd" d="M28.9342 29C28.956 29 28.978 29 29 29L35.0658 29C35.9523 28.9999 36.7161 28.9999 37.3278 29.0821C37.9833 29.1703 38.6117 29.369 39.1213 29.8787C39.631 30.3883 39.8297 31.0167 39.9179 31.6722C40.0001 32.2839 40 33.0477 40 33.9342V37.0658C40 37.9523 40.0001 38.7161 39.9179 39.3278C39.8297 39.9833 39.631 40.6117 39.1213 41.1213C38.6117 41.631 37.9833 41.8297 37.3278 41.9179C36.7161 42.0001 35.9523 42.0001 35.0658 42H28.9342C28.0477 42.0001 27.2839 42.0001 26.6722 41.9179C26.0167 41.8297 25.3883 41.631 24.8787 41.1213C24.369 40.6117 24.1703 39.9833 24.0821 39.3278C23.9999 38.7161 23.9999 37.9523 24 37.0658L24 34C24 33.978 24 33.956 24 33.9342C23.9999 33.0477 23.9999 32.2839 24.0821 31.6722C24.1703 31.0167 24.369 30.3883 24.8787 29.8787C25.3883 29.369 26.0167 29.1703 26.6722 29.0821C27.2839 28.9999 28.0477 28.9999 28.9342 29ZM26.9387 31.0643C26.505 31.1226 26.369 31.2168 26.2929 31.2929C26.2168 31.369 26.1226 31.505 26.0643 31.9387C26.0021 32.4012 26 33.0289 26 34V37C26 37.9711 26.0021 38.5988 26.0643 39.0613C26.1226 39.495 26.2168 39.631 26.2929 39.7071C26.369 39.7832 26.505 39.8774 26.9387 39.9357C27.4012 39.9979 28.0289 40 29 40H35C35.9711 40 36.5988 39.9979 37.0613 39.9357C37.495 39.8774 37.631 39.7832 37.7071 39.7071C37.7832 39.631 37.8774 39.495 37.9357 39.0613C37.9979 38.5988 38 37.9711 38 37V34C38 33.0289 37.9979 32.4012 37.9357 31.9387C37.8774 31.505 37.7832 31.369 37.7071 31.2929C37.631 31.2168 37.495 31.1226 37.0613 31.0643C36.5988 31.0021 35.9711 31 35 31H29C28.0289 31 27.4012 31.0021 26.9387 31.0643Z" fill="#484848"/>
<path fill-rule="evenodd" clip-rule="evenodd" d="M27 27C27 24.2386 29.2386 22 32 22C34.7614 22 37 24.2386 37 27V30C37 30.5523 36.5523 31 36 31C35.4477 31 35 30.5523 35 30V27C35 25.3431 33.6569 24 32 24C30.3431 24 29 25.3431 29 27V30C29 30.5523 28.5523 31 28 31C27.4477 31 27 30.5523 27 30V27Z" fill="#484848"/>
<path fill-rule="evenodd" clip-rule="evenodd" d="M32 33C32.5523 33 33 33.4477 33 34V37C33 37.5523 32.5523 38 32 38C31.4477 38 31 37.5523 31 37V34C31 33.4477 31.4477 33 32 33Z" fill="#484848"/>
<path fill-rule="evenodd" clip-rule="evenodd" d="M27 71C27 68.2386 29.2386 66 32 66C34.7614 66 37 68.2386 37 71V74C37 74.5523 36.5523 75 36 75C35.4477 75 35 74.5523 35 74V71C35 69.3431 33.6569 68 32 68C30.3432 68 29 69.3431 29 71V74C29 74.5523 28.5523 75 28 75C27.4477 75 27 74.5523 27 74V71Z" fill="#484848"/>
<path fill-rule="evenodd" clip-rule="evenodd" d="M28.9342 73C28.956 73 28.978 73 29 73L35.0658 73C35.9523 72.9999 36.7161 72.9999 37.3278 73.0821C37.9833 73.1703 38.6117 73.369 39.1213 73.8787C39.631 74.3883 39.8297 75.0167 39.9179 75.6722C40.0001 76.2839 40.0001 77.0477 40 77.9342V81.0658C40.0001 81.9523 40.0001 82.7161 39.9179 83.3278C39.8297 83.9833 39.631 84.6117 39.1213 85.1213C38.6117 85.631 37.9833 85.8297 37.3278 85.9179C36.7161 86.0001 35.9523 86.0001 35.0658 86H28.9342C28.0477 86.0001 27.2839 86.0001 26.6722 85.9179C26.0167 85.8297 25.3883 85.631 24.8787 85.1213C24.369 84.6117 24.1703 83.9833 24.0821 83.3278C23.9999 82.7161 24 81.9523 24 81.0658L24 78C24 77.978 24 77.956 24 77.9342C24 77.0477 23.9999 76.2839 24.0821 75.6722C24.1703 75.0167 24.369 74.3883 24.8787 73.8787C25.3883 73.369 26.0167 73.1703 26.6722 73.0821C27.2839 72.9999 28.0477 72.9999 28.9342 73ZM26.9387 75.0643C26.505 75.1226 26.369 75.2168 26.2929 75.2929C26.2168 75.369 26.1226 75.505 26.0643 75.9387C26.0021 76.4012 26 77.0289 26 78V81C26 81.9711 26.0021 82.5988 26.0643 83.0613C26.1226 83.495 26.2168 83.631 26.2929 83.7071C26.369 83.7832 26.505 83.8774 26.9387 83.9357C27.4012 83.9979 28.0289 84 29 84H35C35.9711 84 36.5988 83.9979 37.0613 83.9357C37.495 83.8774 37.631 83.7832 37.7071 83.7071C37.7832 83.631 37.8774 83.495 37.9357 83.0613C37.9979 82.5988 38 81.9711 38 81V78C38 77.0289 37.9979 76.4012 37.9357 75.9387C37.8774 75.505 37.7832 75.369 37.7071 75.2929C37.631 75.2168 37.495 75.1226 37.0613 75.0643C36.5988 75.0021 35.9711 75 35 75H29C28.0289 75 27.4012 75.0021 26.9387 75.0643Z" fill="#484848"/>
<path fill-rule="evenodd" clip-rule="evenodd" d="M25.5858 74.5858C25 75.1716 25 76.1144 25 78V81C25 82.8856 25 83.8284 25.5858 84.4142C26.1716 85 27.1144 85 29 85H35C36.8856 85 37.8284 85 38.4142 84.4142C39 83.8284 39 82.8856 39 81V78C39 76.1144 39 75.1716 38.4142 74.5858C37.8284 74 36.8856 74 35 74H29C27.1144 74 26.1716 74 25.5858 74.5858ZM33 78C33 77.4477 32.5523 77 32 77C31.4477 77 31 77.4477 31 78V81C31 81.5523 31.4477 82 32 82C32.5523 82 33 81.5523 33 81V78Z" fill="#484848"/>
</svg>
