<svg width="24" height="24" viewBox="0 0 24 24" fill="none" xmlns="http://www.w3.org/2000/svg">
<path d="M12.9258 20.7827C15.0319 19.8212 20 16.6847 20 10.0601V8.78942C20 7.45238 20 6.78386 19.6455 6.27071C19.2909 5.75756 18.6656 5.52106 17.415 5.04807L13.415 3.5352C12.7154 3.27058 12.3656 3.13827 12 3.13827C11.6344 3.13827 11.2846 3.27058 10.585 3.5352L6.58495 5.04807C5.33438 5.52106 4.70909 5.75756 4.35454 6.27071C4 6.78386 4 7.45238 4 8.78942V10.0601C4 16.6847 8.9678 19.8212 11.074 20.7827C11.2972 20.8847 11.4094 20.9355 11.6621 20.9793C11.8215 21.0069 12.1795 21.0069 12.3389 20.9793C12.5907 20.9357 12.7017 20.885 12.9235 20.7838L12.9258 20.7827Z" stroke="#484848" stroke-width="2" stroke-linecap="round" stroke-linejoin="round"/>
<path d="M12 11L12 15" stroke="#484848" stroke-width="2" stroke-linecap="round"/>
<circle cx="12" cy="8" r="1" fill="#484848"/>
</svg>
