<svg width="24" height="24" viewBox="0 0 24 24" fill="none" xmlns="http://www.w3.org/2000/svg">
<path d="M19 8.78906C19 8.09867 18.9986 7.66235 18.9619 7.33203C18.9279 7.0265 18.8717 6.91036 18.8223 6.83887C18.7728 6.76743 18.6843 6.67476 18.4111 6.53516C18.1151 6.3839 17.7076 6.22775 17.0615 5.9834L13.0615 4.4707C12.2927 4.17993 12.1405 4.13867 12 4.13867C11.8595 4.13867 11.7073 4.17993 10.9385 4.4707L6.93848 5.9834C6.29242 6.22775 5.88489 6.3839 5.58887 6.53516C5.31566 6.67476 5.22718 6.76743 5.17774 6.83887C5.12834 6.91036 5.07207 7.0265 5.03809 7.33203C5.00138 7.66235 5 8.09867 5 8.78906V10.0605C5.00023 16.0913 9.50908 18.969 11.4893 19.873C11.6098 19.9281 11.6524 19.9465 11.6904 19.96C11.7154 19.9688 11.751 19.9799 11.833 19.9941C11.8203 19.9919 11.8309 19.9937 11.8721 19.9961C11.9081 19.9982 11.9532 20 12.001 20C12.0486 20 12.093 19.9982 12.1289 19.9961C12.1701 19.9937 12.1807 19.9919 12.168 19.9941C12.2492 19.9801 12.2844 19.9695 12.3086 19.9609C12.3461 19.9477 12.3876 19.9289 12.5078 19.874H12.5088L12.5107 19.873L12.9102 19.6797C15.0373 18.5963 18.9998 15.7139 19 10.0605V8.78906ZM21 10.0605C20.9998 16.8275 16.2302 20.2347 13.7949 21.4736L13.3408 21.6924L13.3389 21.6934C13.0962 21.8041 12.891 21.8988 12.5098 21.9648C12.3441 21.9935 12.146 22 12.001 22C11.8559 22 11.6571 21.9936 11.4912 21.9648C11.1097 21.8988 10.9033 21.8043 10.6582 21.6924C8.42593 20.6732 3.00023 17.278 3 10.0605V8.78906C3 8.14303 2.99891 7.57665 3.05078 7.11035C3.10544 6.61916 3.22713 6.14374 3.53223 5.70215C3.83735 5.26066 4.23865 4.97876 4.67871 4.75391C5.09659 4.54039 5.62705 4.3409 6.23145 4.1123L10.2314 2.59961C10.8618 2.36119 11.4094 2.13867 12 2.13867C12.5906 2.13867 13.1382 2.36119 13.7686 2.59961L17.7686 4.1123C18.373 4.3409 18.9034 4.54039 19.3213 4.75391C19.7614 4.97876 20.1627 5.26066 20.4678 5.70215C20.7729 6.14374 20.8946 6.61916 20.9492 7.11035C21.0011 7.57665 21 8.14303 21 8.78906V10.0605Z" fill="#484848"/>
<path d="M14.293 9.29298C14.6835 8.90246 15.3165 8.90246 15.707 9.29298C16.0975 9.68351 16.0975 10.3165 15.707 10.707L12.414 14C11.633 14.781 10.367 14.781 9.58592 14L8.29295 12.707C7.90243 12.3165 7.90243 11.6835 8.29295 11.293C8.65907 10.9269 9.23807 10.9043 9.63084 11.2246L9.70702 11.293L11 12.586L14.293 9.29298Z" fill="#484848"/>
</svg>
