<svg width="18" height="20" viewBox="0 0 18 20" fill="none" xmlns="http://www.w3.org/2000/svg">
<path d="M16 6.78906C16 6.09867 15.9986 5.66235 15.9619 5.33203C15.9279 5.0265 15.8717 4.91036 15.8223 4.83887C15.7728 4.76743 15.6843 4.67476 15.4111 4.53516C15.1151 4.3839 14.7076 4.22775 14.0615 3.9834L10.0615 2.4707C9.29273 2.17993 9.14045 2.13867 9 2.13867C8.85955 2.13867 8.70727 2.17993 7.93848 2.4707L3.93848 3.9834C3.29242 4.22775 2.88489 4.3839 2.58887 4.53516C2.31566 4.67476 2.22718 4.76743 2.17774 4.83887C2.12834 4.91036 2.07207 5.0265 2.03809 5.33203C2.00138 5.66235 2 6.09867 2 6.78906V8.06055C2.00023 14.0913 6.50908 16.969 8.48926 17.873C8.60983 17.9281 8.65241 17.9465 8.69043 17.96C8.71536 17.9688 8.75104 17.9799 8.83301 17.9941C8.82027 17.9919 8.83092 17.9937 8.87207 17.9961C8.90809 17.9982 8.95318 18 9.00098 18C9.04859 18 9.09301 17.9982 9.12891 17.9961C9.17006 17.9937 9.18071 17.9919 9.16797 17.9941C9.24924 17.9801 9.28443 17.9695 9.3086 17.9609C9.3461 17.9477 9.38757 17.9289 9.50781 17.874H9.50879L9.51074 17.873L9.91016 17.6797C12.0373 16.5963 15.9998 13.7139 16 8.06055V6.78906ZM18 8.06055C17.9998 14.8275 13.2302 18.2347 10.7949 19.4736L10.3408 19.6924L10.3389 19.6934C10.0962 19.8041 9.89098 19.8988 9.50977 19.9648C9.34409 19.9935 9.14604 20 9.00098 20C8.85588 20 8.65707 19.9936 8.49121 19.9648C8.10967 19.8988 7.90334 19.8043 7.65821 19.6924C5.42593 18.6732 0.00023339 15.278 1.83097e-06 8.06055V6.78906C1.31004e-06 6.14303 -0.00108811 5.57665 0.0507831 5.11035C0.105445 4.61916 0.227125 4.14374 0.532228 3.70215C0.837345 3.26066 1.23865 2.97876 1.67871 2.75391C2.09659 2.54039 2.62705 2.3409 3.23145 2.1123L7.23145 0.599609C7.86181 0.361189 8.40939 0.138672 9 0.138672C9.59062 0.138672 10.1382 0.361189 10.7686 0.599609L14.7686 2.1123C15.373 2.3409 15.9034 2.54039 16.3213 2.75391C16.7614 2.97876 17.1627 3.26066 17.4678 3.70215C17.7729 4.14374 17.8946 4.61916 17.9492 5.11035C18.0011 5.57665 18 6.14303 18 6.78906V8.06055Z" fill="#484848"/>
<path d="M11.2929 7.29289C11.6834 6.90237 12.3164 6.90237 12.707 7.29289C13.0975 7.68342 13.0975 8.31643 12.707 8.70696L9.41399 11.9999C8.63296 12.7809 7.36689 12.7809 6.58586 11.9999L5.29289 10.707C4.90237 10.3164 4.90237 9.68342 5.29289 9.29289C5.65901 8.92678 6.23801 8.90418 6.63078 9.22453L6.70696 9.29289L7.99992 10.5859L11.2929 7.29289Z" fill="#484848"/>
</svg>
