<svg width="18" height="20" viewBox="0 0 18 20" fill="none" xmlns="http://www.w3.org/2000/svg">
<path d="M9.92578 18.7827C12.0319 17.8212 17 14.6847 17 8.06008V6.78942C17 5.45238 17 4.78386 16.6455 4.27071C16.2909 3.75756 15.6656 3.52106 14.415 3.04807L10.415 1.5352C9.7154 1.27058 9.36558 1.13827 9 1.13827C8.63442 1.13827 8.2846 1.27058 7.58495 1.5352L3.58495 3.04807C2.33438 3.52106 1.70909 3.75756 1.35454 4.27071C1 4.78386 1 5.45238 1 6.78942V8.06008C1 14.6847 5.9678 17.8212 8.07395 18.7827C8.29723 18.8847 8.40942 18.9355 8.66214 18.9793C8.82154 19.0069 9.17946 19.0069 9.33887 18.9793C9.59071 18.9357 9.70173 18.885 9.92348 18.7838L9.92578 18.7827Z" stroke="#484848" stroke-width="2" stroke-linecap="round" stroke-linejoin="round"/>
<path d="M9 9L9 13" stroke="#484848" stroke-width="2" stroke-linecap="round"/>
<circle cx="9" cy="6" r="1" fill="#484848"/>
</svg>
