<svg width="20" height="20" viewBox="0 0 20 20" fill="none" xmlns="http://www.w3.org/2000/svg">
<path fill-rule="evenodd" clip-rule="evenodd" d="M2 6H8C8.99935 6 9.54766 5.99575 9.92805 5.94461C9.93301 5.94394 9.93786 5.94328 9.94261 5.94261C9.94328 5.93786 9.94394 5.93301 9.94461 5.92805C9.99575 5.54766 10 4.99935 10 4C10 3.00065 9.99575 2.45234 9.94461 2.07195C9.94394 2.067 9.94328 2.06214 9.94261 2.05739C9.93786 2.05672 9.93301 2.05606 9.92805 2.05539C9.54766 2.00425 8.99935 2 8 2L4 2C3.00065 2 2.45234 2.00425 2.07195 2.05539C2.067 2.05606 2.06214 2.05672 2.05739 2.05739C2.05672 2.06214 2.05606 2.067 2.05539 2.07195C2.00425 2.45234 2 3.00065 2 4V6ZM1.86187 2.09681L1.86369 2.09614L1.86187 2.09681ZM9.90319 1.86187L9.90386 1.86368L9.90319 1.86187ZM9.90319 6.13813L9.90386 6.13632L9.90319 6.13813ZM10.1363 5.90386L10.1381 5.90319L10.1363 5.90386ZM3.49753e-07 8L5.24599e-07 4C6.07022e-07 2.11438 6.55651e-07 1.17157 0.585787 0.585786C1.17157 -1.78814e-07 2.11438 -8.23607e-08 4 0L8 1.74908e-07C9.88562 2.57331e-07 10.8284 2.98023e-07 11.4142 0.585787C12 1.17157 12 2.11438 12 4C12 5.88562 12 6.82843 11.4142 7.41421C10.8284 8 9.88562 8 8 8H3.49753e-07Z" fill="#484848"/>
<path fill-rule="evenodd" clip-rule="evenodd" d="M2 12L16 12C16.9993 12 17.5477 11.9958 17.928 11.9446C17.933 11.9439 17.9379 11.9433 17.9426 11.9426C17.9433 11.9379 17.9439 11.933 17.9446 11.928C17.9958 11.5477 18 10.9993 18 10C18 9.00065 17.9958 8.45234 17.9446 8.07195C17.9439 8.067 17.9433 8.06214 17.9426 8.05739C17.9379 8.05672 17.933 8.05606 17.928 8.05539C17.5477 8.00425 16.9993 8 16 8L2 8V12ZM17.9032 7.86187L17.9039 7.86368L17.9032 7.86187ZM17.9032 12.1381L17.9039 12.1363L17.9032 12.1381ZM18.1363 11.9039L18.1381 11.9032L18.1363 11.9039ZM8.74848e-08 14L4.37176e-07 6L16 6C17.8856 6 18.8284 6 19.4142 6.58579C20 7.17157 20 8.11438 20 10C20 11.8856 20 12.8284 19.4142 13.4142C18.8284 14 17.8856 14 16 14L8.74848e-08 14Z" fill="#484848"/>
<path fill-rule="evenodd" clip-rule="evenodd" d="M4 18H12C12.9993 18 13.5477 17.9958 13.928 17.9446C13.933 17.9439 13.9379 17.9433 13.9426 17.9426C13.9433 17.9379 13.9439 17.933 13.9446 17.928C13.9958 17.5477 14 16.9993 14 16C14 15.0007 13.9958 14.4523 13.9446 14.072C13.9439 14.067 13.9433 14.0621 13.9426 14.0574C13.9379 14.0567 13.933 14.0561 13.928 14.0554C13.5477 14.0042 12.9993 14 12 14H4C3.00065 14 2.45234 14.0042 2.07195 14.0554C2.06699 14.0561 2.06214 14.0567 2.05739 14.0574C2.05672 14.0621 2.05606 14.067 2.05539 14.072C2.00425 14.4523 2 15.0007 2 16C2 16.9993 2.00425 17.5477 2.05539 17.928C2.05606 17.933 2.05672 17.9379 2.05739 17.9426C2.06214 17.9433 2.06699 17.9439 2.07195 17.9446C2.45234 17.9958 3.00065 18 4 18ZM1.86187 17.9032L1.86369 17.9039L1.86187 17.9032ZM1.86187 14.0968L1.86369 14.0961L1.86187 14.0968ZM13.9032 13.8619L13.9039 13.8637L13.9032 13.8619ZM13.9032 18.1381L13.9039 18.1363L13.9032 18.1381ZM14.1363 17.9039L14.1381 17.9032L14.1363 17.9039ZM12 20H4C2.11438 20 1.17157 20 0.585787 19.4142C-1.78814e-07 18.8284 -8.2361e-08 17.8856 0 16C8.24849e-08 14.1144 1.78814e-07 13.1716 0.585787 12.5858C1.17157 12 2.11438 12 4 12H12C13.8856 12 14.8284 12 15.4142 12.5858C16 13.1716 16 14.1144 16 16C16 17.8856 16 18.8284 15.4142 19.4142C14.8284 20 13.8856 20 12 20Z" fill="#484848"/>
</svg>
