<svg width="20" height="20" viewBox="0 0 20 20" fill="none" xmlns="http://www.w3.org/2000/svg">
<path d="M9 10.7669V3.81807C9 3.3662 8.63369 2.99988 8.18182 2.99988C3.66313 2.99988 0 6.66301 0 11.1817V11.4999C0 16.1943 3.80558 19.9999 8.5 19.9999H8.81818C13.3369 19.9999 17 16.3368 17 11.8181C17 11.3662 16.6337 10.9999 16.1818 10.9999H9.23301C9.10432 10.9999 9 10.8956 9 10.7669Z" fill="#484848"/>
<path d="M11 7.99988L11 0.99988C11 0.447597 11.4496 -0.00477571 12.0003 0.0362828C16.9675 0.406585 19.6215 3.56913 19.9623 8.00051C20.0047 8.55117 19.5523 8.99988 19 8.99988H12C11.4477 8.99988 11 8.55217 11 7.99988Z" fill="#484848"/>
</svg>
