<svg width="64" height="108" viewBox="0 0 64 108" fill="none" xmlns="http://www.w3.org/2000/svg">
<rect x="0.5" y="0.5" width="63" height="107" rx="4.5" stroke="#9747FF" stroke-dasharray="10 5"/>
<path d="M37.9222 32.998C38.5067 32.9585 39.0196 33.4017 38.9861 33.9866C38.908 35.3483 38.5029 36.6767 37.7986 37.8567C36.9122 39.3416 35.594 40.5208 34.0199 41.237C32.4458 41.9531 30.6907 42.172 28.9889 41.8646C27.2871 41.5571 25.7195 40.7379 24.4955 39.5163C23.2715 38.2947 22.4492 36.7287 22.1384 35.0275C21.8276 33.3263 22.0431 31.5708 22.7562 29.9953C23.4692 28.4198 24.6458 27.0993 26.129 26.21C27.3076 25.5033 28.6352 25.0957 29.9967 25.0149C30.5816 24.9802 31.0258 25.4922 30.9874 26.0769C30.9491 26.6615 30.4413 27.0952 29.8584 27.1541C28.9296 27.2481 28.0282 27.5452 27.2201 28.0297C26.1072 28.697 25.2243 29.6879 24.6892 30.8702C24.1542 32.0524 23.9924 33.3697 24.2256 34.6462C24.4588 35.9228 25.0759 37.0978 25.9944 38.0145C26.9128 38.9312 28.0891 39.5459 29.3661 39.7766C30.6431 40.0073 31.9601 39.843 33.1412 39.3056C34.3224 38.7683 35.3116 37.8834 35.9767 36.7692C36.4596 35.9602 36.755 35.0582 36.8471 34.1292C36.9049 33.5461 37.3376 33.0375 37.9222 32.998Z" fill="#484848"/>
<path fill-rule="evenodd" clip-rule="evenodd" d="M30 25C30.5523 25 31 25.4477 31 26V32C31 32.4997 31.0021 32.7738 31.0277 32.964C31.028 32.9665 31.0284 32.9689 31.0287 32.9713C31.0311 32.9716 31.0335 32.972 31.036 32.9723C31.2262 32.9979 31.5003 33 32 33H38C38.5523 33 39 33.4477 39 34C39 34.5523 38.5523 35 38 35H32C31.9819 35 31.9637 35 31.9456 35C31.5215 35.0001 31.1094 35.0002 30.7695 34.9545C30.3863 34.903 29.949 34.7774 29.5858 34.4142C29.2226 34.051 29.0971 33.6137 29.0455 33.2305C28.9998 32.8906 28.9999 32.4785 29 32.0544C29 32.0363 29 32.0182 29 32V26C29 25.4477 29.4477 25 30 25Z" fill="#484848"/>
<path fill-rule="evenodd" clip-rule="evenodd" d="M33 23C33 22.4477 33.4478 22 34 22C36.5484 22 38.5846 22.8027 39.9782 24.2834C41.3622 25.7539 42 27.7736 42 30C42 30.5523 41.5523 31 41 31H34C33.7348 31 33.4804 30.8946 33.2929 30.7071C33.1054 30.5196 33 30.2652 33 30L33 23ZM35 24.0526L35 29H39.9454C39.7879 27.6068 39.2939 26.4745 38.5218 25.6541C37.7378 24.8211 36.5892 24.2268 35 24.0526Z" fill="#484848"/>
<path d="M31 76.767V69.8182C31 69.3663 30.6337 69 30.1818 69C25.6631 69 22 72.6631 22 77.1818V77.5C22 82.1944 25.8056 86 30.5 86H30.8182C35.3369 86 39 82.3369 39 77.8182C39 77.3663 38.6337 77 38.1818 77H31.233C31.1043 77 31 76.8957 31 76.767Z" fill="#484848"/>
<path d="M33 74L33 67C33 66.4477 33.4496 65.9953 34.0003 66.0364C38.9675 66.4067 41.6215 69.5693 41.9623 74.0006C42.0047 74.5513 41.5523 75 41 75H34C33.4477 75 33 74.5523 33 74Z" fill="#484848"/>
</svg>
