<svg width="20" height="20" viewBox="0 0 20 20" fill="none" xmlns="http://www.w3.org/2000/svg">
<path d="M15.9222 10.998C16.5067 10.9585 17.0196 11.4017 16.9861 11.9866C16.908 13.3483 16.5029 14.6767 15.7986 15.8567C14.9122 17.3416 13.594 18.5208 12.0199 19.237C10.4458 19.9531 8.69066 20.172 6.98886 19.8646C5.28706 19.5571 3.71952 18.7379 2.49549 17.5163C1.27146 16.2947 0.44917 14.7287 0.138389 13.0275C-0.172392 11.3263 0.0431201 9.57082 0.756159 7.99531C1.4692 6.41981 2.64584 5.09927 4.12901 4.20998C5.30763 3.5033 6.63525 3.09566 7.99673 3.0149C8.58162 2.98021 9.02584 3.49223 8.98745 4.07689C8.94906 4.66154 8.44135 5.0952 7.8584 5.15415C6.92957 5.24806 6.02817 5.54524 5.22011 6.02974C4.10717 6.69704 3.22425 7.68794 2.6892 8.87016C2.15416 10.0524 1.99244 11.3697 2.22564 12.6462C2.45885 13.9228 3.07587 15.0978 3.99436 16.0145C4.91284 16.9312 6.08909 17.5459 7.36608 17.7766C8.64307 18.0073 9.96005 17.843 11.1412 17.3056C12.3224 16.7683 13.3116 15.8834 13.9767 14.7692C14.4596 13.9602 14.755 13.0582 14.8471 12.1292C14.9049 11.5461 15.3376 11.0375 15.9222 10.998Z" fill="#484848"/>
<path fill-rule="evenodd" clip-rule="evenodd" d="M8.00001 3C8.55229 3 9.00001 3.44772 9.00001 4V10C9.00001 10.4997 9.00213 10.7738 9.0277 10.964C9.02803 10.9665 9.02837 10.9689 9.0287 10.9713C9.03108 10.9716 9.0335 10.972 9.03598 10.9723C9.22617 10.9979 9.50033 11 10 11H16C16.5523 11 17 11.4477 17 12C17 12.5523 16.5523 13 16 13H10C9.98185 13 9.96371 13 9.94559 13C9.52153 13.0001 9.1094 13.0002 8.76949 12.9545C8.38628 12.903 7.94901 12.7774 7.58579 12.4142C7.22258 12.051 7.09705 11.6137 7.04553 11.2305C6.99983 10.8906 6.99992 10.4785 7 10.0544C7 10.0363 7.00001 10.0182 7.00001 10V4C7.00001 3.44772 7.44772 3 8.00001 3Z" fill="#484848"/>
<path fill-rule="evenodd" clip-rule="evenodd" d="M11 0.999996C11 0.447713 11.4478 0 12 0C14.5484 0 16.5846 0.8027 17.9782 2.28338C19.3622 3.75385 20 5.77363 20 8C20 8.55228 19.5523 9 19 9H12C11.7348 9 11.4804 8.89464 11.2929 8.70711C11.1054 8.51957 11 8.26521 11 8L11 0.999996ZM13 2.05261L13 7H17.9454C17.7879 5.60679 17.2939 4.4745 16.5218 3.65411C15.7378 2.82113 14.5892 2.22676 13 2.05261Z" fill="#484848"/>
</svg>
