<svg width="20" height="20" viewBox="0 0 20 20" fill="none" xmlns="http://www.w3.org/2000/svg">
<path fill-rule="evenodd" clip-rule="evenodd" d="M6 18V12C6 11.0007 5.99575 10.4523 5.94461 10.072C5.94394 10.067 5.94328 10.0621 5.94261 10.0574C5.93786 10.0567 5.933 10.0561 5.92805 10.0554C5.54766 10.0042 4.99935 10 4 10C3.00065 10 2.45234 10.0042 2.07195 10.0554C2.067 10.0561 2.06214 10.0567 2.05739 10.0574C2.05672 10.0621 2.05606 10.067 2.05539 10.072C2.00425 10.4523 2 11.0007 2 12V16C2 16.9993 2.00425 17.5477 2.05539 17.928C2.05606 17.933 2.05672 17.9379 2.05739 17.9426C2.06214 17.9433 2.067 17.9439 2.07195 17.9446C2.45234 17.9958 3.00065 18 4 18H6ZM2.09681 18.1381L2.09614 18.1363L2.09681 18.1381ZM1.86187 10.0968L1.86368 10.0961L1.86187 10.0968ZM6.13813 10.0968L6.13632 10.0961L6.13813 10.0968ZM5.90386 9.86368L5.90319 9.86187L5.90386 9.86368ZM8 20H4C2.11438 20 1.17157 20 0.585786 19.4142C0 18.8284 0 17.8856 0 16V12C0 10.1144 0 9.17157 0.585786 8.58579C1.17157 8 2.11438 8 4 8C5.88562 8 6.82843 8 7.41421 8.58579C8 9.17157 8 10.1144 8 12V20Z" fill="#484848"/>
<path fill-rule="evenodd" clip-rule="evenodd" d="M12 18V4C12 3.00065 11.9958 2.45234 11.9446 2.07195C11.9439 2.067 11.9433 2.06214 11.9426 2.05739C11.9379 2.05672 11.933 2.05606 11.928 2.05539C11.5477 2.00425 10.9993 2 10 2C9.00065 2 8.45234 2.00425 8.07195 2.05539C8.067 2.05606 8.06214 2.05672 8.05739 2.05739C8.05672 2.06214 8.05606 2.067 8.05539 2.07195C8.00425 2.45234 8 3.00065 8 4V18H12ZM7.86187 2.09681L7.86368 2.09614L7.86187 2.09681ZM12.1381 2.09681L12.1363 2.09614L12.1381 2.09681ZM11.9039 1.86368L11.9032 1.86187L11.9039 1.86368ZM14 20H6V4C6 2.11438 6 1.17157 6.58579 0.585786C7.17157 0 8.11438 0 10 0C11.8856 0 12.8284 0 13.4142 0.585786C14 1.17157 14 2.11438 14 4V20Z" fill="#484848"/>
<path fill-rule="evenodd" clip-rule="evenodd" d="M18 16V8C18 7.00065 17.9958 6.45234 17.9446 6.07195C17.9439 6.067 17.9433 6.06214 17.9426 6.05739C17.9379 6.05672 17.933 6.05606 17.928 6.05539C17.5477 6.00425 16.9993 6 16 6C15.0007 6 14.4523 6.00425 14.072 6.05539C14.067 6.05606 14.0621 6.05672 14.0574 6.05739C14.0567 6.06214 14.0561 6.067 14.0554 6.07195C14.0042 6.45234 14 7.00065 14 8V16C14 16.9993 14.0042 17.5477 14.0554 17.928C14.0561 17.933 14.0567 17.9379 14.0574 17.9426C14.0621 17.9433 14.067 17.9439 14.072 17.9446C14.4523 17.9958 15.0007 18 16 18C16.9993 18 17.5477 17.9958 17.928 17.9446C17.933 17.9439 17.9379 17.9433 17.9426 17.9426C17.9433 17.9379 17.9439 17.933 17.9446 17.928C17.9958 17.5477 18 16.9993 18 16ZM17.9032 18.1381L17.9039 18.1363L17.9032 18.1381ZM14.0968 18.1381L14.0961 18.1363L14.0968 18.1381ZM13.8619 6.09681L13.8637 6.09614L13.8619 6.09681ZM18.1381 6.09681L18.1363 6.09614L18.1381 6.09681ZM17.9039 5.86368L17.9032 5.86187L17.9039 5.86368ZM20 8V16C20 17.8856 20 18.8284 19.4142 19.4142C18.8284 20 17.8856 20 16 20C14.1144 20 13.1716 20 12.5858 19.4142C12 18.8284 12 17.8856 12 16V8C12 6.11438 12 5.17157 12.5858 4.58579C13.1716 4 14.1144 4 16 4C17.8856 4 18.8284 4 19.4142 4.58579C20 5.17157 20 6.11438 20 8Z" fill="#484848"/>
</svg>
