<svg width="20" height="20" viewBox="0 0 20 20" fill="none" xmlns="http://www.w3.org/2000/svg">
<path d="M0 4C0 2.11438 0 1.17157 0.585786 0.585786C1.17157 0 2.11438 0 4 0H5C6.88562 0 7.82843 0 8.41421 0.585786C9 1.17157 9 2.11438 9 4V8C9 9.88562 9 10.8284 8.41421 11.4142C7.82843 12 6.88562 12 5 12H4C2.11438 12 1.17157 12 0.585786 11.4142C0 10.8284 0 9.88562 0 8V4Z" fill="#484848"/>
<path d="M11 12C11 10.1144 11 9.17157 11.5858 8.58579C12.1716 8 13.1144 8 15 8H16C17.8856 8 18.8284 8 19.4142 8.58579C20 9.17157 20 10.1144 20 12V16C20 17.8856 20 18.8284 19.4142 19.4142C18.8284 20 17.8856 20 16 20H15C13.1144 20 12.1716 20 11.5858 19.4142C11 18.8284 11 17.8856 11 16V12Z" fill="#484848"/>
<path d="M0 17C0 16.0681 0 15.6022 0.152241 15.2346C0.355229 14.7446 0.744577 14.3552 1.23463 14.1522C1.60218 14 2.06812 14 3 14H6C6.93188 14 7.39782 14 7.76537 14.1522C8.25542 14.3552 8.64477 14.7446 8.84776 15.2346C9 15.6022 9 16.0681 9 17C9 17.9319 9 18.3978 8.84776 18.7654C8.64477 19.2554 8.25542 19.6448 7.76537 19.8478C7.39782 20 6.93188 20 6 20H3C2.06812 20 1.60218 20 1.23463 19.8478C0.744577 19.6448 0.355229 19.2554 0.152241 18.7654C0 18.3978 0 17.9319 0 17Z" fill="#484848"/>
<path d="M11 3C11 2.06812 11 1.60218 11.1522 1.23463C11.3552 0.744577 11.7446 0.355229 12.2346 0.152241C12.6022 0 13.0681 0 14 0H17C17.9319 0 18.3978 0 18.7654 0.152241C19.2554 0.355229 19.6448 0.744577 19.8478 1.23463C20 1.60218 20 2.06812 20 3C20 3.93188 20 4.39782 19.8478 4.76537C19.6448 5.25542 19.2554 5.64477 18.7654 5.84776C18.3978 6 17.9319 6 17 6H14C13.0681 6 12.6022 6 12.2346 5.84776C11.7446 5.64477 11.3552 5.25542 11.1522 4.76537C11 4.39782 11 3.93188 11 3Z" fill="#484848"/>
</svg>
