<svg width="64" height="108" viewBox="0 0 64 108" fill="none" xmlns="http://www.w3.org/2000/svg">
<rect x="0.5" y="0.5" width="63" height="107" rx="4.5" stroke="#9747FF" stroke-dasharray="10 5"/>
<path fill-rule="evenodd" clip-rule="evenodd" d="M27 24H26C25.0007 24 24.4523 24.0042 24.072 24.0554C24.067 24.0561 24.0621 24.0567 24.0574 24.0574C24.0567 24.0621 24.0561 24.067 24.0554 24.072C24.0042 24.4523 24 25.0007 24 26V30C24 30.9993 24.0042 31.5477 24.0554 31.928C24.0561 31.933 24.0567 31.9379 24.0574 31.9426C24.0621 31.9433 24.067 31.9439 24.072 31.9446C24.4523 31.9958 25.0007 32 26 32H27C27.9993 32 28.5477 31.9958 28.928 31.9446C28.933 31.9439 28.9379 31.9433 28.9426 31.9426C28.9433 31.9379 28.9439 31.933 28.9446 31.928C28.9958 31.5477 29 30.9993 29 30V26C29 25.0007 28.9958 24.4523 28.9446 24.072C28.9439 24.067 28.9433 24.0621 28.9426 24.0574C28.9379 24.0567 28.933 24.0561 28.928 24.0554C28.5477 24.0042 27.9993 24 27 24ZM28.9032 23.8619L28.9039 23.8637ZM28.9032 32.1381L28.9039 32.1363ZM24.0968 32.1381L24.0961 32.1363ZM23.8619 24.0968L23.8637 24.0961ZM22.5858 22.5858C22 23.1716 22 24.1144 22 26V30C22 31.8856 22 32.8284 22.5858 33.4142C23.1716 34 24.1144 34 26 34H27C28.8856 34 29.8284 34 30.4142 33.4142C31 32.8284 31 31.8856 31 30V26C31 24.1144 31 23.1716 30.4142 22.5858C29.8284 22 28.8856 22 27 22H26C24.1144 22 23.1716 22 22.5858 22.5858Z" fill="#484848"/>
<path fill-rule="evenodd" clip-rule="evenodd" d="M38 32H37C36.0007 32 35.4523 32.0042 35.072 32.0554C35.067 32.0561 35.0621 32.0567 35.0574 32.0574C35.0567 32.0621 35.0561 32.067 35.0554 32.072C35.0042 32.4523 35 33.0007 35 34V38C35 38.9993 35.0042 39.5477 35.0554 39.928C35.0561 39.933 35.0567 39.9379 35.0574 39.9426C35.0621 39.9433 35.067 39.9439 35.072 39.9446C35.4523 39.9958 36.0007 40 37 40H38C38.9993 40 39.5477 39.9958 39.928 39.9446C39.933 39.9439 39.9379 39.9433 39.9426 39.9426C39.9433 39.9379 39.9439 39.933 39.9446 39.928C39.9958 39.5477 40 38.9993 40 38V34C40 33.0007 39.9958 32.4523 39.9446 32.072C39.9439 32.067 39.9433 32.0621 39.9426 32.0574C39.9379 32.0567 39.933 32.0561 39.928 32.0554C39.5477 32.0042 38.9993 32 38 32ZM39.9032 31.8619L39.9039 31.8637ZM39.9032 40.1381L39.9039 40.1363ZM35.0968 40.1381L35.0961 40.1363ZM34.8619 32.0968L34.8637 32.0961ZM33.5858 30.5858C33 31.1716 33 32.1144 33 34V38C33 39.8856 33 40.8284 33.5858 41.4142C34.1716 42 35.1144 42 37 42H38C39.8856 42 40.8284 42 41.4142 41.4142C42 40.8284 42 39.8856 42 38V34C42 32.1144 42 31.1716 41.4142 30.5858C40.8284 30 39.8856 30 38 30H37C35.1144 30 34.1716 30 33.5858 30.5858Z" fill="#484848"/>
<path fill-rule="evenodd" clip-rule="evenodd" d="M28 38H25C24.5067 38 24.2369 38.0011 24.0418 38.0144C24.0328 38.015 24.0242 38.0156 24.0163 38.0163C24.0156 38.0242 24.015 38.0328 24.0144 38.0418C24.0011 38.2369 24 38.5067 24 39C24 39.4933 24.0011 39.7631 24.0144 39.9582C24.015 39.9672 24.0156 39.9758 24.0163 39.9837C24.0242 39.9844 24.0328 39.985 24.0418 39.9856C24.2369 39.9989 24.5067 40 25 40H28C28.4933 40 28.7631 39.9989 28.9582 39.9856C28.9672 39.985 28.9758 39.9844 28.9837 39.9837C28.9844 39.9758 28.985 39.9672 28.9856 39.9582C28.9989 39.7631 29 39.4933 29 39C29 38.5067 28.9989 38.2369 28.9856 38.0418C28.985 38.0328 28.9844 38.0242 28.9837 38.0163C28.9758 38.0156 28.9672 38.015 28.9582 38.0144C28.7631 38.0011 28.4933 38 28 38ZM22.1522 37.2346C22 37.6022 22 38.0681 22 39C22 39.9319 22 40.3978 22.1522 40.7654C22.3552 41.2554 22.7446 41.6448 23.2346 41.8478C23.6022 42 24.0681 42 25 42H28C28.9319 42 29.3978 42 29.7654 41.8478C30.2554 41.6448 30.6448 41.2554 30.8478 40.7654C31 40.3978 31 39.9319 31 39C31 38.0681 31 37.6022 30.8478 37.2346C30.6448 36.7446 30.2554 36.3552 29.7654 36.1522C29.3978 36 28.9319 36 28 36H25C24.0681 36 23.6022 36 23.2346 36.1522C22.7446 36.3552 22.3552 36.7446 22.1522 37.2346Z" fill="#484848"/>
<path fill-rule="evenodd" clip-rule="evenodd" d="M39 24H36C35.5067 24 35.2369 24.0011 35.0418 24.0144C35.0328 24.015 35.0242 24.0156 35.0163 24.0163C35.0156 24.0242 35.015 24.0328 35.0144 24.0418C35.0011 24.2369 35 24.5067 35 25C35 25.4933 35.0011 25.7631 35.0144 25.9582C35.015 25.9672 35.0156 25.9758 35.0163 25.9837C35.0242 25.9844 35.0328 25.985 35.0418 25.9856C35.2369 25.9989 35.5067 26 36 26H39C39.4933 26 39.7631 25.9989 39.9582 25.9856C39.9672 25.985 39.9758 25.9844 39.9837 25.9837C39.9844 25.9758 39.985 25.9672 39.9856 25.9582C39.9989 25.7631 40 25.4933 40 25C40 24.5067 39.9989 24.2369 39.9856 24.0418C39.985 24.0328 39.9844 24.0242 39.9837 24.0163C39.9758 24.0156 39.9672 24.015 39.9582 24.0144C39.7631 24.0011 39.4933 24 39 24ZM33.1522 23.2346C33 23.6022 33 24.0681 33 25C33 25.9319 33 26.3978 33.1522 26.7654C33.3552 27.2554 33.7446 27.6448 34.2346 27.8478C34.6022 28 35.0681 28 36 28H39C39.9319 28 40.3978 28 40.7654 27.8478C41.2554 27.6448 41.6448 27.2554 41.8478 26.7654C42 26.3978 42 25.9319 42 25C42 24.0681 42 23.6022 41.8478 23.2346C41.6448 22.7446 41.2554 22.3552 40.7654 22.1522C40.3978 22 39.9319 22 39 22H36C35.0681 22 34.6022 22 34.2346 22.1522C33.7446 22.3552 33.3552 22.7446 33.1522 23.2346Z" fill="#484848"/>
<path d="M22 70C22 68.1144 22 67.1716 22.5858 66.5858C23.1716 66 24.1144 66 26 66H27C28.8856 66 29.8284 66 30.4142 66.5858C31 67.1716 31 68.1144 31 70V74C31 75.8856 31 76.8284 30.4142 77.4142C29.8284 78 28.8856 78 27 78H26C24.1144 78 23.1716 78 22.5858 77.4142C22 76.8284 22 75.8856 22 74V70Z" fill="#484848"/>
<path d="M33 78C33 76.1144 33 75.1716 33.5858 74.5858C34.1716 74 35.1144 74 37 74H38C39.8856 74 40.8284 74 41.4142 74.5858C42 75.1716 42 76.1144 42 78V82C42 83.8856 42 84.8284 41.4142 85.4142C40.8284 86 39.8856 86 38 86H37C35.1144 86 34.1716 86 33.5858 85.4142C33 84.8284 33 83.8856 33 82V78Z" fill="#484848"/>
<path d="M22 83C22 82.0681 22 81.6022 22.1522 81.2346C22.3552 80.7446 22.7446 80.3552 23.2346 80.1522C23.6022 80 24.0681 80 25 80H28C28.9319 80 29.3978 80 29.7654 80.1522C30.2554 80.3552 30.6448 80.7446 30.8478 81.2346C31 81.6022 31 82.0681 31 83C31 83.9319 31 84.3978 30.8478 84.7654C30.6448 85.2554 30.2554 85.6448 29.7654 85.8478C29.3978 86 28.9319 86 28 86H25C24.0681 86 23.6022 86 23.2346 85.8478C22.7446 85.6448 22.3552 85.2554 22.1522 84.7654C22 84.3978 22 83.9319 22 83Z" fill="#484848"/>
<path d="M33 69C33 68.0681 33 67.6022 33.1522 67.2346C33.3552 66.7446 33.7446 66.3552 34.2346 66.1522C34.6022 66 35.0681 66 36 66H39C39.9319 66 40.3978 66 40.7654 66.1522C41.2554 66.3552 41.6448 66.7446 41.8478 67.2346C42 67.6022 42 68.0681 42 69C42 69.9319 42 70.3978 41.8478 70.7654C41.6448 71.2554 41.2554 71.6448 40.7654 71.8478C40.3978 72 39.9319 72 39 72H36C35.0681 72 34.6022 72 34.2346 71.8478C33.7446 71.6448 33.3552 71.2554 33.1522 70.7654C33 70.3978 33 69.9319 33 69Z" fill="#484848"/>
</svg>
