<svg width="20" height="20" viewBox="0 0 20 20" fill="none" xmlns="http://www.w3.org/2000/svg">
<path fill-rule="evenodd" clip-rule="evenodd" d="M5 2H4C3.00065 2 2.45234 2.00425 2.07195 2.05539C2.067 2.05606 2.06214 2.05672 2.05739 2.05739C2.05672 2.06214 2.05606 2.067 2.05539 2.07195C2.00425 2.45234 2 3.00065 2 4V8C2 8.99935 2.00425 9.54766 2.05539 9.92805C2.05606 9.93301 2.05672 9.93786 2.05739 9.94261C2.06214 9.94328 2.067 9.94394 2.07195 9.94461C2.45234 9.99575 3.00065 10 4 10H5C5.99935 10 6.54766 9.99575 6.92805 9.94461C6.933 9.94394 6.93786 9.94328 6.94261 9.94261C6.94328 9.93786 6.94394 9.93301 6.94461 9.92805C6.99575 9.54766 7 8.99935 7 8V4C7 3.00065 6.99575 2.45234 6.94461 2.07195C6.94394 2.067 6.94328 2.06214 6.94261 2.05739C6.93786 2.05672 6.933 2.05606 6.92805 2.05539C6.54766 2.00425 5.99935 2 5 2ZM6.90319 1.86187L6.90386 1.86369L6.90319 1.86187ZM6.90319 10.1381L6.90386 10.1363L6.90319 10.1381ZM2.09681 10.1381L2.09614 10.1363L2.09681 10.1381ZM1.86187 2.09681L1.86368 2.09614L1.86187 2.09681ZM0.585786 0.585786C0 1.17157 0 2.11438 0 4V8C0 9.88562 0 10.8284 0.585786 11.4142C1.17157 12 2.11438 12 4 12H5C6.88562 12 7.82843 12 8.41421 11.4142C9 10.8284 9 9.88562 9 8V4C9 2.11438 9 1.17157 8.41421 0.585786C7.82843 0 6.88562 0 5 0H4C2.11438 0 1.17157 0 0.585786 0.585786Z" fill="#484848"/>
<path fill-rule="evenodd" clip-rule="evenodd" d="M16 10H15C14.0007 10 13.4523 10.0042 13.072 10.0554C13.067 10.0561 13.0621 10.0567 13.0574 10.0574C13.0567 10.0621 13.0561 10.067 13.0554 10.072C13.0042 10.4523 13 11.0007 13 12V16C13 16.9993 13.0042 17.5477 13.0554 17.928C13.0561 17.933 13.0567 17.9379 13.0574 17.9426C13.0621 17.9433 13.067 17.9439 13.072 17.9446C13.4523 17.9958 14.0007 18 15 18H16C16.9993 18 17.5477 17.9958 17.928 17.9446C17.933 17.9439 17.9379 17.9433 17.9426 17.9426C17.9433 17.9379 17.9439 17.933 17.9446 17.928C17.9958 17.5477 18 16.9993 18 16V12C18 11.0007 17.9958 10.4523 17.9446 10.072C17.9439 10.067 17.9433 10.0621 17.9426 10.0574C17.9379 10.0567 17.933 10.0561 17.928 10.0554C17.5477 10.0042 16.9993 10 16 10ZM17.9032 9.86187L17.9039 9.86369L17.9032 9.86187ZM17.9032 18.1381L17.9039 18.1363L17.9032 18.1381ZM13.0968 18.1381L13.0961 18.1363L13.0968 18.1381ZM12.8619 10.0968L12.8637 10.0961L12.8619 10.0968ZM11.5858 8.58579C11 9.17157 11 10.1144 11 12V16C11 17.8856 11 18.8284 11.5858 19.4142C12.1716 20 13.1144 20 15 20H16C17.8856 20 18.8284 20 19.4142 19.4142C20 18.8284 20 17.8856 20 16V12C20 10.1144 20 9.17157 19.4142 8.58579C18.8284 8 17.8856 8 16 8H15C13.1144 8 12.1716 8 11.5858 8.58579Z" fill="#484848"/>
<path fill-rule="evenodd" clip-rule="evenodd" d="M6 16H3C2.50669 16 2.23688 16.0011 2.04183 16.0144C2.03276 16.015 2.02424 16.0156 2.01626 16.0163C2.01564 16.0242 2.01501 16.0328 2.01439 16.0418C2.00108 16.2369 2 16.5067 2 17C2 17.4933 2.00108 17.7631 2.01439 17.9582C2.01501 17.9672 2.01564 17.9758 2.01626 17.9837C2.02424 17.9844 2.03276 17.985 2.04183 17.9856C2.23688 17.9989 2.50669 18 3 18H6C6.49331 18 6.76312 17.9989 6.95817 17.9856C6.96724 17.985 6.97576 17.9844 6.98374 17.9837C6.98436 17.9758 6.98499 17.9672 6.98561 17.9582C6.99892 17.7631 7 17.4933 7 17C7 16.5067 6.99892 16.2369 6.98561 16.0418C6.98499 16.0328 6.98436 16.0242 6.98373 16.0163C6.97575 16.0156 6.96724 16.015 6.95817 16.0144C6.76312 16.0011 6.49331 16 6 16ZM0.152241 15.2346C0 15.6022 0 16.0681 0 17C0 17.9319 0 18.3978 0.152241 18.7654C0.355229 19.2554 0.744577 19.6448 1.23463 19.8478C1.60218 20 2.06812 20 3 20H6C6.93188 20 7.39782 20 7.76537 19.8478C8.25542 19.6448 8.64477 19.2554 8.84776 18.7654C9 18.3978 9 17.9319 9 17C9 16.0681 9 15.6022 8.84776 15.2346C8.64477 14.7446 8.25542 14.3552 7.76537 14.1522C7.39782 14 6.93188 14 6 14H3C2.06812 14 1.60218 14 1.23463 14.1522C0.744577 14.3552 0.355229 14.7446 0.152241 15.2346Z" fill="#484848"/>
<path fill-rule="evenodd" clip-rule="evenodd" d="M17 2H14C13.5067 2 13.2369 2.00108 13.0418 2.01439C13.0328 2.01501 13.0242 2.01564 13.0163 2.01626C13.0156 2.02424 13.015 2.03276 13.0144 2.04183C13.0011 2.23688 13 2.50669 13 3C13 3.49331 13.0011 3.76312 13.0144 3.95817C13.015 3.96724 13.0156 3.97576 13.0163 3.98374C13.0242 3.98436 13.0328 3.98499 13.0418 3.98561C13.2369 3.99892 13.5067 4 14 4H17C17.4933 4 17.7631 3.99892 17.9582 3.98561C17.9672 3.98499 17.9758 3.98436 17.9837 3.98373C17.9844 3.97575 17.985 3.96724 17.9856 3.95817C17.9989 3.76312 18 3.49331 18 3C18 2.50669 17.9989 2.23688 17.9856 2.04183C17.985 2.03276 17.9844 2.02424 17.9837 2.01626C17.9758 2.01564 17.9672 2.01501 17.9582 2.01439C17.7631 2.00108 17.4933 2 17 2ZM11.1522 1.23463C11 1.60218 11 2.06812 11 3C11 3.93188 11 4.39782 11.1522 4.76537C11.3552 5.25542 11.7446 5.64477 12.2346 5.84776C12.6022 6 13.0681 6 14 6H17C17.9319 6 18.3978 6 18.7654 5.84776C19.2554 5.64477 19.6448 5.25542 19.8478 4.76537C20 4.39782 20 3.93188 20 3C20 2.06812 20 1.60218 19.8478 1.23463C19.6448 0.744577 19.2554 0.355229 18.7654 0.152241C18.3978 0 17.9319 0 17 0H14C13.0681 0 12.6022 0 12.2346 0.152241C11.7446 0.355229 11.3552 0.744577 11.1522 1.23463Z" fill="#484848"/>
</svg>
