<svg width="24" height="24" viewBox="0 0 24 24" fill="none" xmlns="http://www.w3.org/2000/svg">
<path fill-rule="evenodd" clip-rule="evenodd" d="M5 4C5.55229 4 6 4.44772 6 5V15C6 15.9711 6.00213 16.5988 6.06431 17.0613C6.12263 17.495 6.21677 17.631 6.2929 17.7071C6.36902 17.7832 6.50497 17.8774 6.93871 17.9357C7.40122 17.9979 8.02893 18 9 18H19C19.5523 18 20 18.4477 20 19C20 19.5523 19.5523 20 19 20L8.93417 20C8.04769 20.0001 7.28387 20.0001 6.67221 19.9179C6.0167 19.8297 5.38835 19.631 4.87868 19.1213C4.36902 18.6117 4.17028 17.9833 4.08215 17.3278C3.99991 16.7161 3.99995 15.9523 4 15.0658L4 5C4 4.44772 4.44772 4 5 4Z" fill="#484848"/>
<path fill-rule="evenodd" clip-rule="evenodd" d="M19.7071 9.29289C20.0976 9.68342 20.0976 10.3166 19.7071 10.7071L16.7071 13.7071C16.5196 13.8947 16.2652 14 16 14C15.7348 14 15.4804 13.8947 15.2929 13.7071L13 11.4142L9.70711 14.7071C9.31659 15.0976 8.68342 15.0976 8.2929 14.7071C7.90237 14.3166 7.90237 13.6834 8.2929 13.2929L12.2929 9.2929C12.6834 8.90238 13.3166 8.90238 13.7071 9.2929L16 11.5858L18.2929 9.29289C18.6834 8.90237 19.3166 8.90237 19.7071 9.29289Z" fill="#484848"/>
</svg>
