<svg width="24" height="24" viewBox="0 0 24 24" fill="none" xmlns="http://www.w3.org/2000/svg">
<path d="M6 5C6 4.44772 5.55228 4 5 4C4.44772 4 4 4.44772 4 5H5H6ZM19 20C19.5523 20 20 19.5523 20 19C20 18.4477 19.5523 18 19 18V19V20ZM5.58579 18.4142L6.29289 17.7071L6.29289 17.7071L5.58579 18.4142ZM18.2929 14.7071C18.6834 15.0976 19.3166 15.0976 19.7071 14.7071C20.0976 14.3166 20.0976 13.6834 19.7071 13.2929L19 14L18.2929 14.7071ZM15 10L15.7071 9.2929C15.3166 8.90238 14.6834 8.90238 14.2929 9.2929L15 10ZM12 13L11.2929 13.7071C11.4804 13.8947 11.7348 14 12 14C12.2652 14 12.5196 13.8947 12.7071 13.7071L12 13ZM9.70711 9.29289C9.31658 8.90237 8.68342 8.90237 8.29289 9.29289C7.90237 9.68342 7.90237 10.3166 8.29289 10.7071L9 10L9.70711 9.29289ZM5 5H4V15H5H6V5H5ZM9 19V20H19V19V18H9V19ZM5 15H4C4 15.9145 3.99788 16.701 4.08214 17.3278C4.17027 17.9833 4.36902 18.6117 4.87868 19.1213L5.58579 18.4142L6.29289 17.7071C6.21677 17.631 6.12262 17.495 6.06431 17.0613C6.00212 16.5988 6 15.9711 6 15H5ZM9 19V18C8.02892 18 7.40121 17.9979 6.9387 17.9357C6.50496 17.8774 6.36902 17.7832 6.29289 17.7071L5.58579 18.4142L4.87868 19.1213C5.38834 19.631 6.01669 19.8297 6.67221 19.9179C7.29896 20.0021 8.08546 20 9 20V19ZM19 14L19.7071 13.2929L15.7071 9.2929L15 10L14.2929 10.7071L18.2929 14.7071L19 14ZM15 10L14.2929 9.2929L11.2929 12.2929L12 13L12.7071 13.7071L15.7071 10.7071L15 10ZM12 13L12.7071 12.2929L9.70711 9.29289L9 10L8.29289 10.7071L11.2929 13.7071L12 13Z" fill="#484848"/>
</svg>
