<svg width="24" height="24" viewBox="0 0 24 24" fill="none" xmlns="http://www.w3.org/2000/svg">
<path fill-rule="evenodd" clip-rule="evenodd" d="M4 8H10C10.9993 8 11.5477 7.99575 11.928 7.94461C11.933 7.94394 11.9379 7.94328 11.9426 7.94261C11.9433 7.93786 11.9439 7.93301 11.9446 7.92805C11.9958 7.54766 12 6.99935 12 6C12 5.00065 11.9958 4.45234 11.9446 4.07195C11.9439 4.067 11.9433 4.06214 11.9426 4.05739C11.9379 4.05672 11.933 4.05606 11.928 4.05539C11.5477 4.00425 10.9993 4 10 4L6 4C5.00065 4 4.45234 4.00425 4.07195 4.05539C4.067 4.05606 4.06214 4.05672 4.05739 4.05739C4.05672 4.06214 4.05606 4.067 4.05539 4.07195C4.00425 4.45234 4 5.00065 4 6V8ZM3.86187 4.09681L3.86369 4.09614ZM11.9032 3.86187L11.9039 3.86368ZM11.9032 8.13813L11.9039 8.13632ZM12.1363 7.90386L12.1381 7.90319ZM2 10L2 6C2 4.11438 2 3.17157 2.58579 2.58579C3.17157 2 4.11438 2 6 2L10 2C11.8856 2 12.8284 2 13.4142 2.58579C14 3.17157 14 4.11438 14 6C14 7.88562 14 8.82843 13.4142 9.41421C12.8284 10 11.8856 10 10 10H2Z" fill="#484848"/>
<path fill-rule="evenodd" clip-rule="evenodd" d="M4 14L18 14C18.9993 14 19.5477 13.9958 19.928 13.9446C19.933 13.9439 19.9379 13.9433 19.9426 13.9426C19.9433 13.9379 19.9439 13.933 19.9446 13.928C19.9958 13.5477 20 12.9993 20 12C20 11.0007 19.9958 10.4523 19.9446 10.072C19.9439 10.067 19.9433 10.0621 19.9426 10.0574C19.9379 10.0567 19.933 10.0561 19.928 10.0554C19.5477 10.0042 18.9993 10 18 10L4 10V14ZM19.9032 9.86187L19.9039 9.86368ZM19.9032 14.1381L19.9039 14.1363ZM20.1363 13.9039L20.1381 13.9032ZM2 16L2 8L18 8C19.8856 8 20.8284 8 21.4142 8.58579C22 9.17157 22 10.1144 22 12C22 13.8856 22 14.8284 21.4142 15.4142C20.8284 16 19.8856 16 18 16L2 16Z" fill="#484848"/>
<path fill-rule="evenodd" clip-rule="evenodd" d="M6 20H14C14.9993 20 15.5477 19.9958 15.928 19.9446C15.933 19.9439 15.9379 19.9433 15.9426 19.9426C15.9433 19.9379 15.9439 19.933 15.9446 19.928C15.9958 19.5477 16 18.9993 16 18C16 17.0007 15.9958 16.4523 15.9446 16.072C15.9439 16.067 15.9433 16.0621 15.9426 16.0574C15.9379 16.0567 15.933 16.0561 15.928 16.0554C15.5477 16.0042 14.9993 16 14 16H6C5.00065 16 4.45234 16.0042 4.07195 16.0554C4.06699 16.0561 4.06214 16.0567 4.05739 16.0574C4.05672 16.0621 4.05606 16.067 4.05539 16.072C4.00425 16.4523 4 17.0007 4 18C4 18.9993 4.00425 19.5477 4.05539 19.928C4.05606 19.933 4.05672 19.9379 4.05739 19.9426C4.06214 19.9433 4.06699 19.9439 4.07195 19.9446C4.45234 19.9958 5.00065 20 6 20ZM3.86187 19.9032L3.86369 19.9039ZM3.86187 16.0968L3.86369 16.0961ZM15.9032 15.8619L15.9039 15.8637ZM15.9032 20.1381L15.9039 20.1363ZM16.1363 19.9039L16.1381 19.9032ZM14 22H6C4.11438 22 3.17157 22 2.58579 21.4142C2 20.8284 2 19.8856 2 18C2 16.1144 2 15.1716 2.58579 14.5858C3.17157 14 4.11438 14 6 14H14C15.8856 14 16.8284 14 17.4142 14.5858C18 15.1716 18 16.1144 18 18C18 19.8856 18 20.8284 17.4142 21.4142C16.8284 22 15.8856 22 14 22Z" fill="#484848"/>
</svg>
