<svg width="24" height="24" viewBox="0 0 24 24" fill="none" xmlns="http://www.w3.org/2000/svg">
<path fill-rule="evenodd" clip-rule="evenodd" d="M8 20V14C8 13.0007 7.99575 12.4523 7.94461 12.072C7.94394 12.067 7.94328 12.0621 7.94261 12.0574C7.93786 12.0567 7.933 12.0561 7.92805 12.0554C7.54766 12.0042 6.99935 12 6 12C5.00065 12 4.45234 12.0042 4.07195 12.0554C4.067 12.0561 4.06214 12.0567 4.05739 12.0574C4.05672 12.0621 4.05606 12.067 4.05539 12.072C4.00425 12.4523 4 13.0007 4 14V18C4 18.9993 4.00425 19.5477 4.05539 19.928C4.05606 19.933 4.05672 19.9379 4.05739 19.9426C4.06214 19.9433 4.067 19.9439 4.07195 19.9446C4.45234 19.9958 5.00065 20 6 20H8ZM4.09681 20.1381L4.09614 20.1363ZM3.86187 12.0968L3.86368 12.0961ZM8.13813 12.0968L8.13632 12.0961ZM7.90386 11.8637L7.90319 11.8619ZM10 22H6C4.11438 22 3.17157 22 2.58579 21.4142C2 20.8284 2 19.8856 2 18V14C2 12.1144 2 11.1716 2.58579 10.5858C3.17157 10 4.11438 10 6 10C7.88562 10 8.82843 10 9.41421 10.5858C10 11.1716 10 12.1144 10 14V22Z" fill="#484848"/>
<path fill-rule="evenodd" clip-rule="evenodd" d="M14 20V6C14 5.00065 13.9958 4.45234 13.9446 4.07195C13.9439 4.067 13.9433 4.06214 13.9426 4.05739C13.9379 4.05672 13.933 4.05606 13.928 4.05539C13.5477 4.00425 12.9993 4 12 4C11.0007 4 10.4523 4.00425 10.072 4.05539C10.067 4.05606 10.0621 4.05672 10.0574 4.05739C10.0567 4.06214 10.0561 4.067 10.0554 4.07195C10.0042 4.45234 10 5.00065 10 6V20H14ZM9.86187 4.09681L9.86368 4.09614ZM14.1381 4.09681L14.1363 4.09614ZM13.9039 3.86368L13.9032 3.86187ZM16 22H8V6C8 4.11438 8 3.17157 8.58579 2.58579C9.17157 2 10.1144 2 12 2C13.8856 2 14.8284 2 15.4142 2.58579C16 3.17157 16 4.11438 16 6V22Z" fill="#484848"/>
<path fill-rule="evenodd" clip-rule="evenodd" d="M20 18V10C20 9.00065 19.9958 8.45234 19.9446 8.07195C19.9439 8.067 19.9433 8.06214 19.9426 8.05739C19.9379 8.05672 19.933 8.05606 19.928 8.05539C19.5477 8.00425 18.9993 8 18 8C17.0007 8 16.4523 8.00425 16.072 8.05539C16.067 8.05606 16.0621 8.05672 16.0574 8.05739C16.0567 8.06214 16.0561 8.067 16.0554 8.07195C16.0042 8.45234 16 9.00065 16 10V18C16 18.9993 16.0042 19.5477 16.0554 19.928C16.0561 19.933 16.0567 19.9379 16.0574 19.9426C16.0621 19.9433 16.067 19.9439 16.072 19.9446C16.4523 19.9958 17.0007 20 18 20C18.9993 20 19.5477 19.9958 19.928 19.9446C19.933 19.9439 19.9379 19.9433 19.9426 19.9426C19.9433 19.9379 19.9439 19.933 19.9446 19.928C19.9958 19.5477 20 18.9993 20 18ZM19.9032 20.1381L19.9039 20.1363ZM16.0968 20.1381L16.0961 20.1363ZM15.8619 8.09681L15.8637 8.09614ZM20.1381 8.09681L20.1363 8.09614ZM19.9039 7.86368L19.9032 7.86187ZM22 10V18C22 19.8856 22 20.8284 21.4142 21.4142C20.8284 22 19.8856 22 18 22C16.1144 22 15.1716 22 14.5858 21.4142C14 20.8284 14 19.8856 14 18V10C14 8.11438 14 7.17157 14.5858 6.58579C15.1716 6 16.1144 6 18 6C19.8856 6 20.8284 6 21.4142 6.58579C22 7.17157 22 8.11438 22 10Z" fill="#484848"/>
</svg>
