<svg width="16" height="16" viewBox="0 0 16 16" fill="none" xmlns="http://www.w3.org/2000/svg">
<path d="M2 1C2 0.447715 1.55228 0 1 0C0.447715 0 0 0.447715 0 1H2ZM15 16C15.5523 16 16 15.5523 16 15C16 14.4477 15.5523 14 15 14V16ZM1.58579 14.4142L2.29289 13.7071L2.29289 13.7071L1.58579 14.4142ZM14.2929 10.7071C14.6834 11.0976 15.3166 11.0976 15.7071 10.7071C16.0976 10.3166 16.0976 9.68343 15.7071 9.2929L14.2929 10.7071ZM11 6.00001L11.7071 5.2929C11.3166 4.90238 10.6834 4.90238 10.2929 5.2929L11 6.00001ZM8 9.00001L7.29289 9.70711C7.48043 9.89465 7.73478 10 8 10C8.26522 10 8.51957 9.89465 8.70711 9.70712L8 9.00001ZM5.70711 5.29289C5.31658 4.90237 4.68342 4.90237 4.29289 5.29289C3.90237 5.68342 3.90237 6.31658 4.29289 6.70711L5.70711 5.29289ZM1 1H0V11H1H2V1H1ZM5 15V16H15V15V14H5V15ZM1 11H0C0 11.9145 -0.00212371 12.701 0.0821405 13.3278C0.170272 13.9833 0.369017 14.6117 0.87868 15.1213L1.58579 14.4142L2.29289 13.7071C2.21677 13.631 2.12262 13.495 2.06431 13.0613C2.00212 12.5988 2 11.9711 2 11H1ZM5 15V14C4.02892 14 3.40121 13.9979 2.9387 13.9357C2.50496 13.8774 2.36902 13.7832 2.29289 13.7071L1.58579 14.4142L0.878679 15.1213C1.38834 15.631 2.01669 15.8297 2.67221 15.9179C3.29896 16.0021 4.08546 16 5 16V15ZM15 10L15.7071 9.2929L11.7071 5.2929L11 6.00001L10.2929 6.70712L14.2929 10.7071L15 10ZM11 6.00001L10.2929 5.2929L7.29289 8.2929L8 9.00001L8.70711 9.70712L11.7071 6.70712L11 6.00001ZM8 9.00001L8.70711 8.2929L5.70711 5.29289L5 6L4.29289 6.70711L7.29289 9.70711L8 9.00001Z" fill="#484848"/>
</svg>
