<svg width="16" height="16" viewBox="0 0 16 16" fill="none" xmlns="http://www.w3.org/2000/svg">
<path fill-rule="evenodd" clip-rule="evenodd" d="M1 0C1.55229 0 2 0.447715 2 1V11C2 11.9711 2.00213 12.5988 2.06431 13.0613C2.12263 13.495 2.21677 13.631 2.2929 13.7071C2.36902 13.7832 2.50497 13.8774 2.93871 13.9357C3.40122 13.9979 4.02893 14 5 14H15C15.5523 14 16 14.4477 16 15C16 15.5523 15.5523 16 15 16L4.93417 16C4.04769 16.0001 3.28387 16.0001 2.67221 15.9179C2.0167 15.8297 1.38835 15.631 0.878684 15.1213C0.369022 14.6117 0.170277 13.9833 0.0821453 13.3278C-9.01893e-05 12.7161 -4.73896e-05 11.9523 2.43992e-06 11.0658L4.82411e-06 1C4.82411e-06 0.447715 0.44772 0 1 0Z" fill="#484848"/>
<path fill-rule="evenodd" clip-rule="evenodd" d="M15.7071 5.29289C16.0976 5.68342 16.0976 6.31658 15.7071 6.70711L12.7071 9.70712C12.5196 9.89465 12.2652 10 12 10C11.7348 10 11.4804 9.89465 11.2929 9.70712L9 7.41422L5.70711 10.7071C5.31659 11.0976 4.68342 11.0976 4.2929 10.7071C3.90237 10.3166 3.90237 9.68343 4.2929 9.2929L8.2929 5.2929C8.68342 4.90238 9.31659 4.90238 9.70711 5.2929L12 7.58579L14.2929 5.29289C14.6834 4.90237 15.3166 4.90237 15.7071 5.29289Z" fill="#484848"/>
</svg>
