<svg width="20" height="20" viewBox="0 0 20 20" fill="none" xmlns="http://www.w3.org/2000/svg">
<path d="M2 6C2 3.79086 3.79086 2 6 2H14C16.2091 2 18 3.79086 18 6V14C18 16.2091 16.2091 18 14 18H6C3.79086 18 2 16.2091 2 14V6Z" fill="#2A6335"/>
<path fill-rule="evenodd" clip-rule="evenodd" d="M14.4714 6.86193C14.7318 7.12228 14.7318 7.54439 14.4714 7.80474L9.13807 13.1381C9.01305 13.2631 8.84348 13.3333 8.66667 13.3333C8.48985 13.3333 8.32029 13.2631 8.19526 13.1381L5.52859 10.4714C5.26824 10.2111 5.26824 9.78895 5.52859 9.5286C5.78894 9.26825 6.21105 9.26825 6.4714 9.5286L8.66667 11.7239L13.5286 6.86193C13.7889 6.60158 14.2111 6.60158 14.4714 6.86193Z" fill="white"/>
</svg>
