<svg width="20" height="20" viewBox="0 0 20 20" fill="none" xmlns="http://www.w3.org/2000/svg">
<path d="M2 6C2 3.79086 3.79086 2 6 2H14C16.2091 2 18 3.79086 18 6V14C18 16.2091 16.2091 18 14 18H6C3.79086 18 2 16.2091 2 14V6Z" fill="#2A6335"/>
<path fill-rule="evenodd" clip-rule="evenodd" d="M16 10C16 10.3682 15.7015 10.6667 15.3333 10.6667L4.66667 10.6667C4.29848 10.6667 4 10.3682 4 9.99999C4 9.6318 4.29848 9.33333 4.66667 9.33333L15.3333 9.33333C15.7015 9.33333 16 9.63181 16 10Z" fill="white"/>
</svg>
