<svg width="16" height="14" viewBox="0 0 16 14" fill="none" xmlns="http://www.w3.org/2000/svg">
<path fill-rule="evenodd" clip-rule="evenodd" d="M0 7.00001C2.41411e-08 7.55229 0.447715 8.00001 1 8.00001L12.5858 8.00001L8.29289 12.2929C7.90237 12.6834 7.90237 13.3166 8.29289 13.7071C8.68342 14.0976 9.31658 14.0976 9.70711 13.7071L15.7071 7.70711C16.0976 7.31659 16.0976 6.68343 15.7071 6.2929L9.70711 0.292894C9.31658 -0.0976309 8.68342 -0.0976313 8.29289 0.292893C7.90237 0.683417 7.90237 1.31658 8.29289 1.70711L12.5858 6.00001L1 6.00001C0.447715 6.00001 3.54635e-08 6.44772 0 7.00001Z" fill="#484848"/>
</svg>
