<svg width="64" height="108" viewBox="0 0 64 108" fill="none" xmlns="http://www.w3.org/2000/svg">
<rect x="0.5" y="0.5" width="63" height="107" rx="4.5" stroke="#9747FF" stroke-dasharray="10 5"/>
<path fill-rule="evenodd" clip-rule="evenodd" d="M32 40C36.4183 40 40 36.4183 40 32C40 27.5817 36.4183 24 32 24C27.5817 24 24 27.5817 24 32C24 36.4183 27.5817 40 32 40ZM32 42C37.5228 42 42 37.5228 42 32C42 26.4772 37.5228 22 32 22C26.4772 22 22 26.4772 22 32C22 37.5228 26.4772 42 32 42Z" fill="#484848"/>
<path fill-rule="evenodd" clip-rule="evenodd" d="M32 37C31.4477 37 31 36.5523 31 36V30.4142L29.7071 31.7071C29.3166 32.0976 28.6834 32.0976 28.2929 31.7071C27.9024 31.3166 27.9024 30.6834 28.2929 30.2929L31.2929 27.2929C31.6834 26.9024 32.3166 26.9024 32.7071 27.2929L35.7071 30.2929C36.0976 30.6834 36.0976 31.3166 35.7071 31.7071C35.3166 32.0976 34.6834 32.0976 34.2929 31.7071L33 30.4142V36C33 36.5523 32.5523 37 32 37Z" fill="#484848"/>
<path fill-rule="evenodd" clip-rule="evenodd" d="M32 86C37.5228 86 42 81.5228 42 76C42 70.4772 37.5228 66 32 66C26.4772 66 22 70.4772 22 76C22 81.5228 26.4772 86 32 86ZM31 80C31 80.5523 31.4477 81 32 81C32.5523 81 33 80.5523 33 80V74.4142L34.2929 75.7071C34.6834 76.0976 35.3166 76.0976 35.7071 75.7071C36.0976 75.3166 36.0976 74.6834 35.7071 74.2929L32.7071 71.2929C32.3166 70.9024 31.6834 70.9024 31.2929 71.2929L28.2929 74.2929C27.9024 74.6834 27.9024 75.3166 28.2929 75.7071C28.6834 76.0976 29.3166 76.0976 29.7071 75.7071L31 74.4142V80Z" fill="#484848"/>
</svg>
