<svg width="20" height="20" viewBox="0 0 20 20" fill="none" xmlns="http://www.w3.org/2000/svg">
<path fill-rule="evenodd" clip-rule="evenodd" d="M10 18C14.4183 18 18 14.4183 18 10C18 5.58172 14.4183 2 10 2C5.58172 2 2 5.58172 2 10C2 14.4183 5.58172 18 10 18ZM10 20C15.5228 20 20 15.5228 20 10C20 4.47715 15.5228 0 10 0C4.47715 0 0 4.47715 0 10C0 15.5228 4.47715 20 10 20Z" fill="#484848"/>
<path fill-rule="evenodd" clip-rule="evenodd" d="M10 15C9.44772 15 9 14.5523 9 14V8.4142L7.70711 9.70709C7.31658 10.0976 6.68342 10.0976 6.29289 9.70709C5.90237 9.31657 5.90237 8.6834 6.29289 8.29288L9.2929 5.29288C9.68342 4.90236 10.3166 4.90236 10.7071 5.29288L13.7071 8.29288C14.0976 8.6834 14.0976 9.31657 13.7071 9.70709C13.3166 10.0976 12.6834 10.0976 12.2929 9.70709L11 8.4142V14C11 14.5523 10.5523 15 10 15Z" fill="#484848"/>
</svg>
