<svg width="20" height="20" viewBox="0 0 20 20" fill="none" xmlns="http://www.w3.org/2000/svg">
<path fill-rule="evenodd" clip-rule="evenodd" d="M10 20C15.5228 20 20 15.5228 20 10C20 4.47715 15.5228 0 10 0C4.47715 0 0 4.47715 0 10C0 15.5228 4.47715 20 10 20ZM9 6C9 5.44772 9.44772 5 10 5C10.5523 5 11 5.44772 11 6V11.5858L12.2929 10.2929C12.6834 9.90238 13.3166 9.90238 13.7071 10.2929C14.0976 10.6834 14.0976 11.3166 13.7071 11.7071L10.7071 14.7071C10.3166 15.0976 9.68342 15.0976 9.2929 14.7071L6.29289 11.7071C5.90237 11.3166 5.90237 10.6834 6.29289 10.2929C6.68342 9.90238 7.31658 9.90238 7.70711 10.2929L9 11.5858V6Z" fill="#484848"/>
</svg>
