<svg width="18" height="18" viewBox="0 0 18 18" fill="none" xmlns="http://www.w3.org/2000/svg">
<path fill-rule="evenodd" clip-rule="evenodd" d="M1.17157 1.17157C0 2.34315 0 4.22876 0 8V10C0 13.7712 0 15.6569 1.17157 16.8284C2.34315 18 4.22876 18 8 18H10C13.7712 18 15.6569 18 16.8284 16.8284C18 15.6569 18 13.7712 18 10V8C18 4.22876 18 2.34315 16.8284 1.17157C15.6569 0 13.7712 0 10 0H8C4.22876 0 2.34315 0 1.17157 1.17157ZM8.22427 6.375C8.56904 5.875 9.43096 5.875 9.77573 6.375L12.8787 10.875C13.2234 11.375 12.7925 12 12.1029 12H5.89707C5.20753 12 4.77657 11.375 5.12134 10.875L8.22427 6.375Z" fill="#484848"/>
</svg>
