<svg width="20" height="20" viewBox="0 0 20 20" fill="none" xmlns="http://www.w3.org/2000/svg">
<path fill-rule="evenodd" clip-rule="evenodd" d="M10 18C14.4183 18 18 14.4183 18 10C18 5.58172 14.4183 2 10 2C5.58172 2 2 5.58172 2 10C2 14.4183 5.58172 18 10 18ZM10 20C15.5228 20 20 15.5228 20 10C20 4.47715 15.5228 0 10 0C4.47715 0 0 4.47715 0 10C0 15.5228 4.47715 20 10 20Z" fill="#484848"/>
<path fill-rule="evenodd" clip-rule="evenodd" d="M10 5C9.44772 5 9 5.44771 9 6V11.5858L7.70711 10.2929C7.31658 9.90238 6.68342 9.90238 6.29289 10.2929C5.90237 10.6834 5.90237 11.3166 6.29289 11.7071L9.2929 14.7071C9.68342 15.0976 10.3166 15.0976 10.7071 14.7071L13.7071 11.7071C14.0976 11.3166 14.0976 10.6834 13.7071 10.2929C13.3166 9.90238 12.6834 9.90238 12.2929 10.2929L11 11.5858V6C11 5.44772 10.5523 5 10 5Z" fill="#484848"/>
</svg>
