<svg width="20" height="20" viewBox="0 0 20 20" fill="none" xmlns="http://www.w3.org/2000/svg">
<path fill-rule="evenodd" clip-rule="evenodd" d="M10 20C15.5228 20 20 15.5228 20 10C20 4.47715 15.5228 0 10 0C4.47715 0 0 4.47715 0 10C0 15.5228 4.47715 20 10 20ZM9 14C9 14.5523 9.44772 15 10 15C10.5523 15 11 14.5523 11 14V8.4142L12.2929 9.70709C12.6834 10.0976 13.3166 10.0976 13.7071 9.70709C14.0976 9.31657 14.0976 8.6834 13.7071 8.29288L10.7071 5.29288C10.3166 4.90236 9.68342 4.90236 9.2929 5.29288L6.29289 8.29288C5.90237 8.6834 5.90237 9.31657 6.29289 9.70709C6.68342 10.0976 7.31658 10.0976 7.70711 9.7071L9 8.4142V14Z" fill="#484848"/>
</svg>
