<svg width="64" height="108" viewBox="0 0 64 108" fill="none" xmlns="http://www.w3.org/2000/svg">
<rect x="0.5" y="0.5" width="63" height="107" rx="4.5" stroke="#9747FF" stroke-dasharray="10 5"/>
<path fill-rule="evenodd" clip-rule="evenodd" d="M32 40C36.4183 40 40 36.4183 40 32C40 27.5817 36.4183 24 32 24C27.5817 24 24 27.5817 24 32C24 36.4183 27.5817 40 32 40ZM32 42C37.5228 42 42 37.5228 42 32C42 26.4772 37.5228 22 32 22C26.4772 22 22 26.4772 22 32C22 37.5228 26.4772 42 32 42Z" fill="#484848"/>
<path fill-rule="evenodd" clip-rule="evenodd" d="M32 27C31.4477 27 31 27.4477 31 28V33.5858L29.7071 32.2929C29.3166 31.9024 28.6834 31.9024 28.2929 32.2929C27.9024 32.6834 27.9024 33.3166 28.2929 33.7071L31.2929 36.7071C31.6834 37.0976 32.3166 37.0976 32.7071 36.7071L35.7071 33.7071C36.0976 33.3166 36.0976 32.6834 35.7071 32.2929C35.3166 31.9024 34.6834 31.9024 34.2929 32.2929L33 33.5858V28C33 27.4477 32.5523 27 32 27Z" fill="#484848"/>
<path fill-rule="evenodd" clip-rule="evenodd" d="M32 86C37.5228 86 42 81.5228 42 76C42 70.4772 37.5228 66 32 66C26.4772 66 22 70.4772 22 76C22 81.5228 26.4772 86 32 86ZM31 72C31 71.4477 31.4477 71 32 71C32.5523 71 33 71.4477 33 72V77.5858L34.2929 76.2929C34.6834 75.9024 35.3166 75.9024 35.7071 76.2929C36.0976 76.6834 36.0976 77.3166 35.7071 77.7071L32.7071 80.7071C32.3166 81.0976 31.6834 81.0976 31.2929 80.7071L28.2929 77.7071C27.9024 77.3166 27.9024 76.6834 28.2929 76.2929C28.6834 75.9024 29.3166 75.9024 29.7071 76.2929L31 77.5858V72Z" fill="#484848"/>
</svg>
