<svg width="64" height="108" viewBox="0 0 64 108" fill="none" xmlns="http://www.w3.org/2000/svg">
<rect x="0.5" y="0.5" width="63" height="107" rx="4.5" stroke="#9747FF" stroke-dasharray="10 5"/>
<path fill-rule="evenodd" clip-rule="evenodd" d="M33 25H31C29.0578 25 27.8024 25.0042 26.8774 25.1286C26.0099 25.2452 25.738 25.4335 25.5858 25.5858C25.4335 25.738 25.2452 26.0099 25.1286 26.8774C25.0042 27.8024 25 29.0578 25 31V33C25 34.9422 25.0042 36.1976 25.1286 37.1226C25.2452 37.9901 25.4335 38.262 25.5858 38.4142C25.738 38.5665 26.0099 38.7548 26.8774 38.8714C27.8024 38.9958 29.0578 39 31 39H33C34.9422 39 36.1976 38.9958 37.1226 38.8714C37.9901 38.7548 38.262 38.5665 38.4142 38.4142C38.5665 38.262 38.7548 37.9901 38.8714 37.1226C38.9958 36.1976 39 34.9422 39 33V31C39 29.0578 38.9958 27.8024 38.8714 26.8774C38.7548 26.0099 38.5665 25.738 38.4142 25.5858C38.262 25.4335 37.9901 25.2452 37.1226 25.1286C36.1976 25.0042 34.9422 25 33 25ZM24.1716 24.1716C23 25.3431 23 27.2288 23 31V33C23 36.7712 23 38.6569 24.1716 39.8284C25.3431 41 27.2288 41 31 41H33C36.7712 41 38.6569 41 39.8284 39.8284C41 38.6569 41 36.7712 41 33V31C41 27.2288 41 25.3431 39.8284 24.1716C38.6569 23 36.7712 23 33 23H31C27.2288 23 25.3431 23 24.1716 24.1716Z" fill="#484848"/>
<path d="M32.7757 34.625C32.431 35.125 31.569 35.125 31.2243 34.625L28.1213 30.125C27.7766 29.625 28.2075 29 28.8971 29L35.1029 29C35.7925 29 36.2234 29.625 35.8787 30.125L32.7757 34.625Z" fill="#484848"/>
<path fill-rule="evenodd" clip-rule="evenodd" d="M24.1716 68.1716C23 69.3431 23 71.2288 23 75V77C23 80.7712 23 82.6569 24.1716 83.8284C25.3431 85 27.2288 85 31 85H33C36.7712 85 38.6569 85 39.8284 83.8284C41 82.6569 41 80.7712 41 77V75C41 71.2288 41 69.3431 39.8284 68.1716C38.6569 67 36.7712 67 33 67H31C27.2288 67 25.3431 67 24.1716 68.1716ZM31.2243 78.625C31.569 79.125 32.431 79.125 32.7757 78.625L35.8787 74.125C36.2234 73.625 35.7925 73 35.1029 73L28.8971 73C28.2075 73 27.7766 73.625 28.1213 74.125L31.2243 78.625Z" fill="#484848"/>
</svg>
