<svg width="18" height="18" viewBox="0 0 18 18" fill="none" xmlns="http://www.w3.org/2000/svg">
<path fill-rule="evenodd" clip-rule="evenodd" d="M1.17157 1.17157C0 2.34315 0 4.22876 0 8V10C0 13.7712 0 15.6569 1.17157 16.8284C2.34315 18 4.22876 18 8 18H10C13.7712 18 15.6569 18 16.8284 16.8284C18 15.6569 18 13.7712 18 10V8C18 4.22876 18 2.34315 16.8284 1.17157C15.6569 0 13.7712 0 10 0H8C4.22876 0 2.34315 0 1.17157 1.17157ZM8.22427 11.625C8.56904 12.125 9.43096 12.125 9.77573 11.625L12.8787 7.125C13.2234 6.625 12.7925 6 12.1029 6L5.89707 6C5.20753 6 4.77657 6.625 5.12134 7.125L8.22427 11.625Z" fill="#484848"/>
</svg>
