<svg width="18" height="18" viewBox="0 0 18 18" fill="none" xmlns="http://www.w3.org/2000/svg">
<path fill-rule="evenodd" clip-rule="evenodd" d="M10 2H8C6.05784 2 4.80242 2.00425 3.87741 2.12861C3.00993 2.24524 2.73803 2.43354 2.58579 2.58579C2.43354 2.73803 2.24524 3.00993 2.12861 3.87741C2.00425 4.80242 2 6.05784 2 8V10C2 11.9422 2.00425 13.1976 2.12861 14.1226C2.24524 14.9901 2.43354 15.262 2.58579 15.4142C2.73803 15.5665 3.00993 15.7548 3.87741 15.8714C4.80242 15.9958 6.05784 16 8 16H10C11.9422 16 13.1976 15.9958 14.1226 15.8714C14.9901 15.7548 15.262 15.5665 15.4142 15.4142C15.5665 15.262 15.7548 14.9901 15.8714 14.1226C15.9958 13.1976 16 11.9422 16 10V8C16 6.05784 15.9958 4.80242 15.8714 3.87741C15.7548 3.00993 15.5665 2.73803 15.4142 2.58579C15.262 2.43354 14.9901 2.24524 14.1226 2.12861C13.1976 2.00425 11.9422 2 10 2ZM1.17157 1.17157C0 2.34315 0 4.22876 0 8V10C0 13.7712 0 15.6569 1.17157 16.8284C2.34315 18 4.22876 18 8 18H10C13.7712 18 15.6569 18 16.8284 16.8284C18 15.6569 18 13.7712 18 10V8C18 4.22876 18 2.34315 16.8284 1.17157C15.6569 0 13.7712 0 10 0H8C4.22876 0 2.34315 0 1.17157 1.17157Z" fill="#484848"/>
<path d="M9.77573 6.375C9.43096 5.875 8.56904 5.875 8.22427 6.375L5.12134 10.875C4.77657 11.375 5.20753 12 5.89707 12H12.1029C12.7925 12 13.2234 11.375 12.8787 10.875L9.77573 6.375Z" fill="#484848"/>
</svg>
