<svg width="14" height="16" viewBox="0 0 14 16" fill="none" xmlns="http://www.w3.org/2000/svg">
<path fill-rule="evenodd" clip-rule="evenodd" d="M0.349227 15.7593C-0.0700991 15.3999 -0.118661 14.7686 0.240762 14.3492L5.68294 8.00002L0.240763 1.65081C-0.118659 1.23148 -0.0700978 0.600183 0.349228 0.240762C0.768554 -0.118661 1.39985 -0.0700988 1.75928 0.349227L7.20146 6.69844C7.84344 7.44741 7.84344 8.55262 7.20146 9.3016L1.75927 15.6508C1.39985 16.0701 0.768552 16.1187 0.349227 15.7593Z" fill="#484848"/>
<path fill-rule="evenodd" clip-rule="evenodd" d="M6.34923 15.7593C5.9299 15.3999 5.88134 14.7686 6.24076 14.3492L11.6829 8.00002L6.24076 1.65081C5.88134 1.23148 5.9299 0.600184 6.34923 0.240762C6.76855 -0.118661 7.39985 -0.0700986 7.75928 0.349227L13.2015 6.69844C13.8434 7.44742 13.8434 8.55262 13.2015 9.3016L7.75927 15.6508C7.39985 16.0701 6.76855 16.1187 6.34923 15.7593Z" fill="#484848"/>
</svg>
