<svg width="24" height="24" viewBox="0 0 24 24" fill="none" xmlns="http://www.w3.org/2000/svg">
<path fill-rule="evenodd" clip-rule="evenodd" d="M5.34921 19.7593C4.92988 19.3999 4.88132 18.7686 5.24074 18.3492L10.6829 12L5.24074 5.65081C4.88132 5.23148 4.92988 4.60018 5.34921 4.24076C5.76853 3.88134 6.39983 3.9299 6.75926 4.34923L12.2014 10.6984C12.8434 11.4474 12.8434 12.5526 12.2014 13.3016L6.75926 19.6508C6.39983 20.0701 5.76853 20.1187 5.34921 19.7593Z" fill="#484848"/>
<path fill-rule="evenodd" clip-rule="evenodd" d="M11.3492 19.7593C10.9299 19.3999 10.8813 18.7686 11.2407 18.3492L16.6829 12L11.2407 5.65081C10.8813 5.23148 10.9299 4.60018 11.3492 4.24076C11.7685 3.88134 12.3998 3.9299 12.7593 4.34923L18.2014 10.6984C18.8434 11.4474 18.8434 12.5526 18.2014 13.3016L12.7593 19.6508C12.3998 20.0701 11.7685 20.1187 11.3492 19.7593Z" fill="#484848"/>
</svg>
