<svg width="14" height="16" viewBox="0 0 14 16" fill="none" xmlns="http://www.w3.org/2000/svg">
<path fill-rule="evenodd" clip-rule="evenodd" d="M13.6511 0.240762C14.0704 0.600184 14.119 1.23148 13.7596 1.65081L8.31738 8.00002L13.7596 14.3492C14.119 14.7686 14.0704 15.3999 13.6511 15.7593C13.2318 16.1187 12.6005 16.0701 12.241 15.6508L6.79887 9.3016C6.15689 8.55262 6.15689 7.44742 6.79887 6.69844L12.241 0.349227C12.6005 -0.0700991 13.2318 -0.118661 13.6511 0.240762Z" fill="#484848"/>
<path fill-rule="evenodd" clip-rule="evenodd" d="M7.6511 0.240762C8.07042 0.600184 8.11898 1.23148 7.75956 1.65081L2.31738 8.00002L7.75956 14.3492C8.11898 14.7686 8.07042 15.3999 7.6511 15.7593C7.23177 16.1187 6.60047 16.0701 6.24105 15.6508L0.79887 9.3016C0.156888 8.55262 0.156886 7.44742 0.798869 6.69844L6.24105 0.349227C6.60047 -0.0700989 7.23177 -0.11866 7.6511 0.240762Z" fill="#484848"/>
</svg>
