<svg width="16" height="14" viewBox="0 0 16 14" fill="none" xmlns="http://www.w3.org/2000/svg">
<path fill-rule="evenodd" clip-rule="evenodd" d="M0.240762 0.349227C0.600184 -0.0700991 1.23148 -0.118661 1.65081 0.240762L8.00002 5.68294L14.3492 0.240763C14.7686 -0.118659 15.3999 -0.0700972 15.7593 0.349229C16.1187 0.768555 16.0701 1.39985 15.6508 1.75928L9.3016 7.20146C8.55262 7.84344 7.44742 7.84344 6.69844 7.20146L0.349227 1.75927C-0.0700987 1.39985 -0.11866 0.768552 0.240762 0.349227Z" fill="#484848"/>
<path fill-rule="evenodd" clip-rule="evenodd" d="M0.240762 6.34923C0.600184 5.9299 1.23148 5.88134 1.65081 6.24076L8.00002 11.6829L14.3492 6.24076C14.7686 5.88134 15.3999 5.9299 15.7593 6.34923C16.1187 6.76855 16.0701 7.39985 15.6508 7.75928L9.3016 13.2015C8.55262 13.8434 7.44741 13.8434 6.69843 13.2015L0.349227 7.75927C-0.0700992 7.39985 -0.118661 6.76855 0.240762 6.34923Z" fill="#484848"/>
</svg>
