<svg width="24" height="24" viewBox="0 0 24 24" fill="none" xmlns="http://www.w3.org/2000/svg">
<path fill-rule="evenodd" clip-rule="evenodd" d="M18.6508 4.24076C19.0701 4.60018 19.1187 5.23148 18.7593 5.65081L13.3171 12L18.7593 18.3492C19.1187 18.7686 19.0701 19.3999 18.6508 19.7593C18.2315 20.1187 17.6002 20.0701 17.2407 19.6508L11.7986 13.3016C11.1566 12.5526 11.1566 11.4474 11.7986 10.6984L17.2407 4.34923C17.6002 3.9299 18.2315 3.88134 18.6508 4.24076Z" fill="#484848"/>
<path fill-rule="evenodd" clip-rule="evenodd" d="M12.6508 4.24076C13.0701 4.60018 13.1187 5.23148 12.7593 5.65081L7.31708 12L12.7593 18.3492C13.1187 18.7686 13.0701 19.3999 12.6508 19.7593C12.2315 20.1187 11.6002 20.0701 11.2407 19.6508L5.79856 13.3016C5.15658 12.5526 5.15658 11.4474 5.79856 10.6984L11.2407 4.34923C11.6002 3.9299 12.2315 3.88134 12.6508 4.24076Z" fill="#484848"/>
</svg>
