<svg width="16" height="14" viewBox="0 0 16 14" fill="none" xmlns="http://www.w3.org/2000/svg">
<path fill-rule="evenodd" clip-rule="evenodd" d="M15.7593 13.6506C15.3999 14.0699 14.7686 14.1185 14.3492 13.7591L8.00002 8.31689L1.65081 13.7591C1.23148 14.1185 0.600183 14.0699 0.240762 13.6506C-0.118661 13.2313 -0.0700989 12.6 0.349227 12.2406L6.69844 6.79838C7.44741 6.1564 8.55262 6.1564 9.3016 6.79838L15.6508 12.2406C16.0701 12.6 16.1187 13.2313 15.7593 13.6506Z" fill="#484848"/>
<path fill-rule="evenodd" clip-rule="evenodd" d="M15.7593 7.65061C15.3999 8.06994 14.7686 8.1185 14.3492 7.75907L8.00002 2.31689L1.65081 7.75907C1.23148 8.1185 0.600183 8.06993 0.240762 7.65061C-0.118661 7.23128 -0.0700989 6.59998 0.349227 6.24056L6.69844 0.798382C7.44741 0.1564 8.55262 0.156398 9.3016 0.798381L15.6508 6.24056C16.0701 6.59998 16.1187 7.23128 15.7593 7.65061Z" fill="#484848"/>
</svg>
