<svg width="24" height="24" viewBox="0 0 24 24" fill="none" xmlns="http://www.w3.org/2000/svg">
<path fill-rule="evenodd" clip-rule="evenodd" d="M19.7593 18.6508C19.3998 19.0701 18.7685 19.1187 18.3492 18.7593L12 13.3171L5.65079 18.7593C5.23147 19.1187 4.60017 19.0701 4.24075 18.6508C3.88132 18.2315 3.92989 17.6002 4.34921 17.2407L10.6984 11.7986C11.4474 11.1566 12.5526 11.1566 13.3016 11.7986L19.6508 17.2407C20.0701 17.6002 20.1187 18.2315 19.7593 18.6508Z" fill="#484848"/>
<path fill-rule="evenodd" clip-rule="evenodd" d="M19.7593 12.6508C19.3998 13.0701 18.7685 13.1187 18.3492 12.7593L12 7.31708L5.65079 12.7593C5.23147 13.1187 4.60017 13.0701 4.24075 12.6508C3.88132 12.2315 3.92989 11.6002 4.34921 11.2407L10.6984 5.79856C11.4474 5.15658 12.5526 5.15658 13.3016 5.79856L19.6508 11.2407C20.0701 11.6002 20.1187 12.2315 19.7593 12.6508Z" fill="#484848"/>
</svg>
