<svg width="24" height="24" viewBox="0 0 24 24" fill="none" xmlns="http://www.w3.org/2000/svg">
<path fill-rule="evenodd" clip-rule="evenodd" d="M4.24074 5.34923C4.60017 4.9299 5.23147 4.88134 5.65079 5.24076L12 10.6829L18.3492 5.24076C18.7685 4.88134 19.3998 4.9299 19.7593 5.34923C20.1187 5.76855 20.0701 6.39985 19.6508 6.75928L13.3016 12.2015C12.5526 12.8434 11.4474 12.8434 10.6984 12.2015L4.34921 6.75927C3.92988 6.39985 3.88132 5.76855 4.24074 5.34923Z" fill="#484848"/>
<path fill-rule="evenodd" clip-rule="evenodd" d="M4.24074 11.3492C4.60017 10.9299 5.23147 10.8813 5.65079 11.2408L12 16.6829L18.3492 11.2408C18.7685 10.8813 19.3998 10.9299 19.7593 11.3492C20.1187 11.7686 20.0701 12.3999 19.6508 12.7593L13.3016 18.2015C12.5526 18.8434 11.4474 18.8434 10.6984 18.2015L4.34921 12.7593C3.92988 12.3999 3.88132 11.7686 4.24074 11.3492Z" fill="#484848"/>
</svg>
