<svg width="18" height="18" viewBox="0 0 18 18" fill="none" xmlns="http://www.w3.org/2000/svg">
<path fill-rule="evenodd" clip-rule="evenodd" d="M17 6C16.4477 6 16 5.55228 16 5V2H13C12.4477 2 12 1.55228 12 1C12 0.447715 12.4477 1.55956e-07 13 1.55956e-07H17C17.5523 1.55956e-07 18 0.447715 18 1V5C18 5.55228 17.5523 6 17 6Z" fill="#484848"/>
<path fill-rule="evenodd" clip-rule="evenodd" d="M17.7071 0.292893C18.0976 0.683417 18.0976 1.31658 17.7071 1.70711L11.7071 7.70711C11.3166 8.09763 10.6834 8.09763 10.2929 7.70711C9.90237 7.31658 9.90237 6.68342 10.2929 6.29289L16.2929 0.292893C16.6834 -0.0976311 17.3166 -0.0976311 17.7071 0.292893Z" fill="#484848"/>
<path fill-rule="evenodd" clip-rule="evenodd" d="M1 12C1.55229 12 2 12.4477 2 13L2 16L5 16C5.55228 16 6 16.4477 6 17C6 17.5523 5.55228 18 5 18L1 18C0.447715 18 -4.82823e-08 17.5523 0 17L3.49691e-07 13C3.97973e-07 12.4477 0.447716 12 1 12Z" fill="#484848"/>
<path fill-rule="evenodd" clip-rule="evenodd" d="M7.70711 10.2929C8.09763 10.6834 8.09763 11.3166 7.70711 11.7071L1.70711 17.7071C1.31658 18.0976 0.683418 18.0976 0.292893 17.7071C-0.0976309 17.3166 -0.0976309 16.6834 0.292893 16.2929L6.29289 10.2929C6.68342 9.90237 7.31658 9.90237 7.70711 10.2929Z" fill="#484848"/>
</svg>
