<svg width="24" height="24" viewBox="0 0 24 24" fill="none" xmlns="http://www.w3.org/2000/svg">
<path fill-rule="evenodd" clip-rule="evenodd" d="M20 9C19.4477 9 19 8.55228 19 8V5H16C15.4477 5 15 4.55228 15 4C15 3.44772 15.4477 3 16 3H20C20.5523 3 21 3.44772 21 4V8C21 8.55228 20.5523 9 20 9Z" fill="#484848"/>
<path fill-rule="evenodd" clip-rule="evenodd" d="M20.7071 3.29289C21.0976 3.68342 21.0976 4.31658 20.7071 4.70711L14.7071 10.7071C14.3166 11.0976 13.6834 11.0976 13.2929 10.7071C12.9024 10.3166 12.9024 9.68342 13.2929 9.29289L19.2929 3.29289C19.6834 2.90237 20.3166 2.90237 20.7071 3.29289Z" fill="#484848"/>
<path fill-rule="evenodd" clip-rule="evenodd" d="M4 15C4.55229 15 5 15.4477 5 16L5 19L8 19C8.55228 19 9 19.4477 9 20C9 20.5523 8.55228 21 8 21L4 21C3.44772 21 3 20.5523 3 20L3 16C3 15.4477 3.44772 15 4 15Z" fill="#484848"/>
<path fill-rule="evenodd" clip-rule="evenodd" d="M10.7071 13.2929C11.0976 13.6834 11.0976 14.3166 10.7071 14.7071L4.70711 20.7071C4.31658 21.0976 3.68342 21.0976 3.29289 20.7071C2.90237 20.3166 2.90237 19.6834 3.29289 19.2929L9.29289 13.2929C9.68342 12.9024 10.3166 12.9024 10.7071 13.2929Z" fill="#484848"/>
</svg>
