<svg width="16" height="20" viewBox="0 0 16 20" fill="none" xmlns="http://www.w3.org/2000/svg">
<path fill-rule="evenodd" clip-rule="evenodd" d="M0 10C-1.4335e-07 10.5523 0.447715 11 1 11H6.5858L5.29291 12.2929C4.90238 12.6834 4.90238 13.3166 5.29291 13.7071C5.68343 14.0976 6.3166 14.0976 6.70712 13.7071L9.70712 10.7071C10.0976 10.3166 10.0976 9.68342 9.70712 9.29289L6.70712 6.29289C6.3166 5.90237 5.68343 5.90237 5.29291 6.29289C4.90238 6.68342 4.90238 7.31658 5.29291 7.70711L6.5858 9H1C0.447715 9 2.41411e-08 9.44771 0 10Z" fill="#484848"/>
<path d="M16 7V13C16 14.8613 16 15.7919 15.7553 16.5451C15.2607 18.0673 14.0673 19.2607 12.5451 19.7553C11.7919 20 10.8613 20 8.99998 20C7.1387 20 6.20806 20 5.4549 19.7553C3.93271 19.2607 2.73929 18.0673 2.2447 16.5451C1.99998 15.7919 1.99999 14.8613 1.99999 13V12.5H3.55023C3.38889 13.2943 3.61622 14.1518 4.23223 14.7678C5.20854 15.7441 6.79146 15.7441 7.76777 14.7678L10.7678 11.7678C11.7441 10.7915 11.7441 9.20855 10.7678 8.23223L7.76777 5.23223C6.79146 4.25592 5.20855 4.25592 4.23223 5.23223C3.61622 5.84824 3.38889 6.70575 3.55023 7.5L1.99999 7.5V7C1.99999 5.13872 1.99998 4.20808 2.2447 3.45492C2.73929 1.93273 3.93271 0.739307 5.4549 0.244717C6.20806 0 7.1387 0 8.99998 0C10.8613 0 11.7919 0 12.5451 0.244717C14.0673 0.739307 15.2607 1.93273 15.7553 3.45492C16 4.20808 16 5.13872 16 7Z" fill="#484848"/>
</svg>
