<svg width="64" height="108" viewBox="0 0 64 108" fill="none" xmlns="http://www.w3.org/2000/svg">
<rect x="0.5" y="0.5" width="63" height="107" rx="4.5" stroke="#9747FF" stroke-dasharray="10 5"/>
<path fill-rule="evenodd" clip-rule="evenodd" d="M35.1206 24.0357C34.6047 24.0005 33.9456 24 33 24H30C28.8954 24 28 24.8954 28 26C28 26.5523 27.5523 27 27 27C26.4477 27 26 26.5523 26 26C26 23.7909 27.7909 22 30 22L33.0355 22C33.9373 22 34.6647 22 35.2567 22.0404C35.8654 22.0819 36.4037 22.1695 36.9134 22.3806C38.1386 22.8881 39.1119 23.8614 39.6194 25.0866C39.8305 25.5963 39.9181 26.1346 39.9596 26.7433C40 27.3353 40 28.0627 40 28.9645V35.0355C40 35.9373 40 36.6647 39.9596 37.2567C39.9181 37.8654 39.8305 38.4037 39.6194 38.9134C39.1119 40.1386 38.1386 41.1119 36.9134 41.6194C36.4037 41.8305 35.8654 41.9181 35.2567 41.9596C34.6647 42 33.9373 42 33.0355 42H30C27.7909 42 26 40.2091 26 38C26 37.4477 26.4477 37 27 37C27.5523 37 28 37.4477 28 38C28 39.1046 28.8954 40 30 40H33C33.9456 40 34.6047 39.9995 35.1206 39.9643C35.6275 39.9297 35.9227 39.865 36.1481 39.7716C36.8831 39.4672 37.4672 38.8831 37.7716 38.1481C37.865 37.9227 37.9297 37.6275 37.9643 37.1206C37.9995 36.6047 38 35.9456 38 35V29C38 28.0544 37.9995 27.3953 37.9643 26.8794C37.9297 26.3725 37.865 26.0773 37.7716 25.852C37.4672 25.1169 36.8831 24.5328 36.1481 24.2284C35.9227 24.135 35.6275 24.0703 35.1206 24.0357Z" fill="#484848"/>
<path fill-rule="evenodd" clip-rule="evenodd" d="M24 32C24 32.5523 24.4477 33 25 33L30.5858 33L29.2929 34.2929C28.9024 34.6834 28.9024 35.3166 29.2929 35.7071C29.6834 36.0976 30.3166 36.0976 30.7071 35.7071L33.7071 32.7071C34.0976 32.3166 34.0976 31.6834 33.7071 31.2929L30.7071 28.2929C30.3166 27.9024 29.6834 27.9024 29.2929 28.2929C28.9024 28.6834 28.9024 29.3166 29.2929 29.7071L30.5858 31L25 31C24.4477 31 24 31.4477 24 32Z" fill="#484848"/>
<path fill-rule="evenodd" clip-rule="evenodd" d="M24 76C24 76.5523 24.4477 77 25 77H30.5858L29.2929 78.2929C28.9024 78.6834 28.9024 79.3166 29.2929 79.7071C29.6834 80.0976 30.3166 80.0976 30.7071 79.7071L33.7071 76.7071C34.0976 76.3166 34.0976 75.6834 33.7071 75.2929L30.7071 72.2929C30.3166 71.9024 29.6834 71.9024 29.2929 72.2929C28.9024 72.6834 28.9024 73.3166 29.2929 73.7071L30.5858 75H25C24.4477 75 24 75.4477 24 76Z" fill="#484848"/>
<path d="M40 73V79C40 80.8613 40 81.7919 39.7553 82.5451C39.2607 84.0673 38.0673 85.2607 36.5451 85.7553C35.7919 86 34.8613 86 33 86C31.1387 86 30.2081 86 29.4549 85.7553C27.9327 85.2607 26.7393 84.0673 26.2447 82.5451C26 81.7919 26 80.8613 26 79V78.5H27.5502C27.3889 79.2943 27.6162 80.1518 28.2322 80.7678C29.2085 81.7441 30.7915 81.7441 31.7678 80.7678L34.7678 77.7678C35.7441 76.7915 35.7441 75.2085 34.7678 74.2322L31.7678 71.2322C30.7915 70.2559 29.2085 70.2559 28.2322 71.2322C27.6162 71.8482 27.3889 72.7057 27.5502 73.5L26 73.5V73C26 71.1387 26 70.2081 26.2447 69.4549C26.7393 67.9327 27.9327 66.7393 29.4549 66.2447C30.2081 66 31.1387 66 33 66C34.8613 66 35.7919 66 36.5451 66.2447C38.0673 66.7393 39.2607 67.9327 39.7553 69.4549C40 70.2081 40 71.1387 40 73Z" fill="#484848"/>
</svg>
