<svg width="16" height="20" viewBox="0 0 16 20" fill="none" xmlns="http://www.w3.org/2000/svg">
<path fill-rule="evenodd" clip-rule="evenodd" d="M11.1206 2.03574C10.6047 2.00054 9.94557 2 9 2H6C4.89543 2 4 2.89543 4 4C4 4.55229 3.55228 5 3 5C2.44772 5 2 4.55229 2 4C2 1.79086 3.79086 4.18598e-07 6 4.18598e-07L9.03552 1.80179e-07C9.93727 -6.73396e-06 10.6647 -1.2219e-05 11.2567 0.0403802C11.8654 0.0819144 12.4037 0.169478 12.9134 0.380603C14.1386 0.888073 15.1119 1.86144 15.6194 3.08658C15.8305 3.59628 15.9181 4.13456 15.9596 4.74331C16 5.33531 16 6.06272 16 6.96448V13.0355C16 13.9373 16 14.6647 15.9596 15.2567C15.9181 15.8654 15.8305 16.4037 15.6194 16.9134C15.1119 18.1386 14.1386 19.1119 12.9134 19.6194C12.4037 19.8305 11.8654 19.9181 11.2567 19.9596C10.6647 20 9.93728 20 9.03552 20H6C3.79086 20 2 18.2091 2 16C2 15.4477 2.44772 15 3 15C3.55228 15 4 15.4477 4 16C4 17.1046 4.89543 18 6 18H9C9.94557 18 10.6047 17.9995 11.1206 17.9643C11.6275 17.9297 11.9227 17.865 12.1481 17.7716C12.8831 17.4672 13.4672 16.8831 13.7716 16.1481C13.865 15.9227 13.9297 15.6275 13.9643 15.1206C13.9995 14.6047 14 13.9456 14 13V7C14 6.05444 13.9995 5.39534 13.9643 4.87945C13.9297 4.37254 13.865 4.07733 13.7716 3.85195C13.4672 3.11687 12.8831 2.53284 12.1481 2.22836C11.9227 2.135 11.6275 2.07033 11.1206 2.03574Z" fill="#484848"/>
<path fill-rule="evenodd" clip-rule="evenodd" d="M0 10C-1.4335e-07 10.5523 0.447715 11 1 11L6.5858 11L5.29291 12.2929C4.90238 12.6834 4.90238 13.3166 5.29291 13.7071C5.68343 14.0976 6.3166 14.0976 6.70712 13.7071L9.70712 10.7071C10.0976 10.3166 10.0976 9.68342 9.70712 9.29289L6.70712 6.29289C6.3166 5.90237 5.68343 5.90237 5.29291 6.29289C4.90238 6.68342 4.90238 7.31658 5.29291 7.70711L6.5858 9L1 9C0.447715 9 2.41412e-08 9.44771 0 10Z" fill="#484848"/>
</svg>
