<svg width="16" height="20" viewBox="0 0 16 20" fill="none" xmlns="http://www.w3.org/2000/svg">
<path fill-rule="evenodd" clip-rule="evenodd" d="M10 10C10 10.5523 9.55229 11 9.00001 11H3.41421L4.7071 12.2929C5.09763 12.6834 5.09763 13.3166 4.7071 13.7071C4.31658 14.0976 3.68341 14.0976 3.29289 13.7071L0.292892 10.7071C-0.0976307 10.3166 -0.0976307 9.68342 0.292892 9.29289L3.29289 6.29289C3.68341 5.90237 4.31658 5.90237 4.7071 6.29289C5.09762 6.68342 5.09762 7.31658 4.7071 7.70711L3.41421 9H9.00001C9.55229 9 10 9.44771 10 10Z" fill="#484848"/>
<path fill-rule="evenodd" clip-rule="evenodd" d="M16 7V13C16 14.8613 16 15.7919 15.7553 16.5451C15.2607 18.0673 14.0673 19.2607 12.5451 19.7553C11.7919 20 10.8613 20 8.99999 20C7.13871 20 6.20807 20 5.45491 19.7553C3.93272 19.2607 2.7393 18.0673 2.24471 16.5451C2.07942 16.0364 2.02577 15.4467 2.00836 14.5439L2.23221 14.7678C3.20852 15.7441 4.79143 15.7441 5.76775 14.7678C6.38376 14.1518 6.61109 13.2943 6.44975 12.5H8.99999C10.3807 12.5 11.5 11.3807 11.5 10C11.5 8.61929 10.3807 7.5 8.99999 7.5L6.44975 7.5C6.61109 6.70575 6.38376 5.84824 5.76774 5.23223C4.79143 4.25592 3.20852 4.25592 2.23221 5.23223L2.00836 5.45609C2.02577 4.55333 2.07942 3.96364 2.24471 3.45492C2.7393 1.93273 3.93272 0.739307 5.45491 0.244717C6.20807 0 7.13871 0 8.99999 0C10.8613 0 11.7919 0 12.5451 0.244717C14.0673 0.739307 15.2607 1.93273 15.7553 3.45492C16 4.20808 16 5.13872 16 7Z" fill="#484848"/>
</svg>
