<svg width="24" height="24" viewBox="0 0 24 24" fill="none" xmlns="http://www.w3.org/2000/svg">
<path fill-rule="evenodd" clip-rule="evenodd" d="M3 4C3.55228 4 4 4.44772 4 5L4 19C4 19.5523 3.55229 20 3 20C2.44772 20 2 19.5523 2 19L2 5C2 4.44772 2.44772 4 3 4Z" fill="#484848"/>
<path fill-rule="evenodd" clip-rule="evenodd" d="M21 4C21.5523 4 22 4.44772 22 5V19C22 19.5523 21.5523 20 21 20C20.4477 20 20 19.5523 20 19V5C20 4.44772 20.4477 4 21 4Z" fill="#484848"/>
<path fill-rule="evenodd" clip-rule="evenodd" d="M2 12C2 11.4477 2.44772 11 3 11L7.58578 11L6.29289 9.70711C5.90237 9.31658 5.90237 8.68342 6.29289 8.29289C6.68341 7.90237 7.31658 7.90237 7.7071 8.29289L10.7071 11.2929C10.8946 11.4804 11 11.7348 11 12C11 12.2652 10.8946 12.5196 10.7071 12.7071L7.7071 15.7071C7.31658 16.0976 6.68341 16.0976 6.29289 15.7071C5.90237 15.3166 5.90237 14.6834 6.29289 14.2929L7.58578 13H3C2.44772 13 2 12.5523 2 12Z" fill="#484848"/>
<path fill-rule="evenodd" clip-rule="evenodd" d="M22 12C22 11.4477 21.5523 11 21 11L16.4142 11L17.7071 9.70711C18.0976 9.31658 18.0976 8.68342 17.7071 8.29289C17.3165 7.90237 16.6834 7.90237 16.2929 8.29289L13.2928 11.2929C13.1053 11.4804 13 11.7348 13 12C13 12.2652 13.1053 12.5196 13.2928 12.7071L16.2928 15.7071C16.6834 16.0976 17.3165 16.0976 17.7071 15.7071C18.0976 15.3166 18.0976 14.6834 17.7071 14.2929L16.4142 13H21C21.5523 13 22 12.5523 22 12Z" fill="#484848"/>
</svg>
