<svg width="20" height="16" viewBox="0 0 20 16" fill="none" xmlns="http://www.w3.org/2000/svg">
<path fill-rule="evenodd" clip-rule="evenodd" d="M1 0C1.55228 -2.75899e-08 2 0.447715 2 1L2 15C2 15.5523 1.55229 16 1 16C0.447716 16 7.7296e-07 15.5523 7.4537e-07 15L4.59875e-08 1C1.83976e-08 0.447715 0.447715 2.75899e-08 1 0Z" fill="#484848"/>
<path fill-rule="evenodd" clip-rule="evenodd" d="M19 6.24436e-09C19.5523 -1.78968e-08 20 0.447715 20 1V15C20 15.5523 19.5523 16 19 16C18.4477 16 18 15.5523 18 15V1C18 0.447715 18.4477 3.03855e-08 19 6.24436e-09Z" fill="#484848"/>
<path fill-rule="evenodd" clip-rule="evenodd" d="M0 8C3.54635e-08 7.44771 0.447715 7 1 7L5.58578 7L4.29289 5.70711C3.90237 5.31658 3.90237 4.68342 4.29289 4.29289C4.68341 3.90237 5.31658 3.90237 5.7071 4.29289L8.70711 7.29289C8.89464 7.48043 9 7.73478 9 8C9 8.26522 8.89464 8.51957 8.70711 8.70711L5.7071 11.7071C5.31658 12.0976 4.68341 12.0976 4.29289 11.7071C3.90237 11.3166 3.90237 10.6834 4.29289 10.2929L5.58578 9H1C0.447715 9 2.41411e-08 8.55228 0 8Z" fill="#484848"/>
<path fill-rule="evenodd" clip-rule="evenodd" d="M20 8C20 7.44772 19.5523 7 19 7L14.4142 7L15.7071 5.70711C16.0976 5.31658 16.0976 4.68342 15.7071 4.29289C15.3165 3.90237 14.6834 3.90237 14.2929 4.29289L11.2928 7.29289C11.1053 7.48043 11 7.73478 11 8C11 8.26522 11.1053 8.51957 11.2928 8.70711L14.2928 11.7071C14.6834 12.0976 15.3165 12.0976 15.7071 11.7071C16.0976 11.3166 16.0976 10.6834 15.7071 10.2929L14.4142 9H19C19.5523 9 20 8.55228 20 8Z" fill="#484848"/>
</svg>
