<svg width="24" height="24" viewBox="0 0 24 24" fill="none" xmlns="http://www.w3.org/2000/svg">
<path fill-rule="evenodd" clip-rule="evenodd" d="M14 12C14 11.4477 14.4477 11 15 11H18.5858L17.2929 9.7071C16.9024 9.31657 16.9024 8.68341 17.2929 8.29288C17.6835 7.90236 18.3166 7.90236 18.7071 8.29288L21.7071 11.2929C21.8947 11.4804 22 11.7348 22 12C22 12.2652 21.8947 12.5196 21.7071 12.7071L18.7071 15.7071C18.3166 16.0976 17.6835 16.0976 17.2929 15.7071C16.9024 15.3166 16.9024 14.6834 17.2929 14.2929L18.5858 13H15C14.4477 13 14 12.5523 14 12Z" fill="#484848"/>
<path fill-rule="evenodd" clip-rule="evenodd" d="M9.99999 12C9.99999 11.4477 9.55228 11 8.99999 11H5.41415L6.70705 9.7071C7.09757 9.31657 7.09757 8.68341 6.70705 8.29288C6.31652 7.90236 5.68336 7.90236 5.29283 8.29288L2.29283 11.2929C2.1053 11.4804 1.99994 11.7348 1.99994 12C1.99994 12.2652 2.1053 12.5196 2.29283 12.7071L5.29283 15.7071C5.68336 16.0976 6.31652 16.0976 6.70705 15.7071C7.09757 15.3166 7.09757 14.6834 6.70705 14.2929L5.41415 13H8.99999C9.55228 13 9.99999 12.5523 9.99999 12Z" fill="#484848"/>
<path fill-rule="evenodd" clip-rule="evenodd" d="M12 9.99999C12.5523 9.99999 13 9.55228 13 8.99999V5.41415L14.2929 6.70705C14.6834 7.09757 15.3166 7.09757 15.7071 6.70705C16.0976 6.31652 16.0976 5.68336 15.7071 5.29283L12.7071 2.29283C12.5196 2.1053 12.2652 1.99994 12 1.99994C11.7348 1.99994 11.4804 2.1053 11.2929 2.29283L8.29288 5.29283C7.90236 5.68336 7.90236 6.31652 8.29288 6.70705C8.68341 7.09757 9.31657 7.09757 9.7071 6.70705L11 5.41415V8.99999C11 9.55228 11.4477 9.99999 12 9.99999Z" fill="#484848"/>
<path fill-rule="evenodd" clip-rule="evenodd" d="M12 14C12.5523 14 13 14.4477 13 15V18.5858L14.2929 17.2929C14.6834 16.9024 15.3166 16.9024 15.7071 17.2929C16.0976 17.6835 16.0976 18.3166 15.7071 18.7071L12.7071 21.7071C12.5196 21.8947 12.2652 22 12 22C11.7348 22 11.4804 21.8947 11.2929 21.7071L8.29288 18.7071C7.90236 18.3166 7.90236 17.6835 8.29288 17.2929C8.68341 16.9024 9.31657 16.9024 9.7071 17.2929L11 18.5858V15C11 14.4477 11.4477 14 12 14Z" fill="#484848"/>
</svg>
