<svg width="20" height="20" viewBox="0 0 20 20" fill="none" xmlns="http://www.w3.org/2000/svg">
<path fill-rule="evenodd" clip-rule="evenodd" d="M12.0001 10.0001C12.0001 9.44777 12.4478 9.00005 13.0001 9.00005H16.5859L15.293 7.70716C14.9025 7.31663 14.9025 6.68347 15.293 6.29294C15.6835 5.90242 16.3167 5.90242 16.7072 6.29294L19.7072 9.29294C19.8947 9.48048 20.0001 9.73483 20.0001 10.0001C20.0001 10.2653 19.8947 10.5196 19.7072 10.7072L16.7072 13.7072C16.3167 14.0977 15.6835 14.0977 15.293 13.7072C14.9025 13.3166 14.9025 12.6835 15.293 12.2929L16.5859 11.0001H13.0001C12.4478 11.0001 12.0001 10.5523 12.0001 10.0001Z" fill="#484848"/>
<path fill-rule="evenodd" clip-rule="evenodd" d="M8.00005 10.0001C8.00005 9.44777 7.55234 9.00005 7.00005 9.00005H3.41422L4.70711 7.70716C5.09763 7.31663 5.09763 6.68347 4.70711 6.29294C4.31659 5.90242 3.68342 5.90242 3.2929 6.29294L0.292893 9.29294C0.105357 9.48048 1.1593e-08 9.73483 0 10.0001C-1.1593e-08 10.2653 0.105357 10.5196 0.292893 10.7072L3.2929 13.7072C3.68342 14.0977 4.31658 14.0977 4.70711 13.7072C5.09763 13.3166 5.09763 12.6835 4.70711 12.2929L3.41421 11.0001H7.00005C7.55234 11.0001 8.00005 10.5523 8.00005 10.0001Z" fill="#484848"/>
<path fill-rule="evenodd" clip-rule="evenodd" d="M10.0001 8.00005C10.5523 8.00005 11.0001 7.55234 11.0001 7.00005V3.41422L12.2929 4.70711C12.6835 5.09763 13.3166 5.09763 13.7072 4.70711C14.0977 4.31658 14.0977 3.68342 13.7072 3.2929L10.7072 0.292893C10.5196 0.105357 10.2653 0 10.0001 0C9.73483 0 9.48048 0.105357 9.29294 0.292893L6.29294 3.2929C5.90242 3.68342 5.90242 4.31658 6.29294 4.70711C6.68347 5.09763 7.31663 5.09763 7.70716 4.70711L9.00005 3.41421V7.00005C9.00005 7.55234 9.44777 8.00005 10.0001 8.00005Z" fill="#484848"/>
<path fill-rule="evenodd" clip-rule="evenodd" d="M10.0001 12.0001C10.5523 12.0001 11.0001 12.4478 11.0001 13.0001V16.5859L12.2929 15.293C12.6835 14.9025 13.3166 14.9025 13.7072 15.293C14.0977 15.6835 14.0977 16.3167 13.7072 16.7072L10.7072 19.7072C10.5196 19.8947 10.2653 20.0001 10.0001 20.0001C9.73483 20.0001 9.48048 19.8947 9.29294 19.7072L6.29294 16.7072C5.90242 16.3167 5.90242 15.6835 6.29294 15.293C6.68347 14.9025 7.31663 14.9025 7.70716 15.293L9.00005 16.5859V13.0001C9.00005 12.4478 9.44777 12.0001 10.0001 12.0001Z" fill="#484848"/>
</svg>
