<svg width="18" height="18" viewBox="0 0 18 18" fill="none" xmlns="http://www.w3.org/2000/svg">
<path fill-rule="evenodd" clip-rule="evenodd" d="M6.9946e-07 9.19081L6.82779e-07 8.80919C-2.51437e-05 7.04205 -4.60744e-05 5.61757 0.146634 4.49421C0.298796 3.32886 0.623943 2.34355 1.38215 1.54875C1.43637 1.49191 1.49191 1.43637 1.54875 1.38215C2.34355 0.623942 3.32885 0.298795 4.49421 0.146632C5.61758 -4.68194e-05 7.04206 -2.59113e-05 8.80922 7.14322e-07L9 7.05982e-07C9.55229 6.81841e-07 10 0.447716 10 1C10 1.55229 9.55229 2 9 2H8.88C7.02534 2 5.7319 2.002 4.75315 2.1298C3.80143 2.25407 3.29353 2.48178 2.92925 2.82929C2.89515 2.86182 2.86182 2.89515 2.82929 2.92925C2.48178 3.29353 2.25407 3.80143 2.1298 4.75315C2.002 5.7319 2 7.02534 2 8.88V9.12C2 10.9747 2.002 12.2681 2.1298 13.2468C2.25407 14.1986 2.48178 14.7065 2.82929 15.0708C2.86182 15.1049 2.89515 15.1382 2.92925 15.1707C3.29353 15.5182 3.80143 15.7459 4.75315 15.8702C5.7319 15.998 7.02534 16 8.88 16H9.12C10.9747 16 12.2681 15.998 13.2468 15.8702C14.1986 15.7459 14.7065 15.5182 15.0708 15.1707C15.1049 15.1382 15.1382 15.1049 15.1707 15.0708C15.5182 14.7065 15.7459 14.1986 15.8702 13.2468C15.998 12.2681 16 10.9747 16 9.12V9C16 8.44772 16.4477 8 17 8C17.5523 8 18 8.44772 18 9V9.19078C18 10.9579 18 12.3824 17.8534 13.5058C17.7012 14.6711 17.3761 15.6564 16.6178 16.4513C16.5636 16.5081 16.5081 16.5636 16.4513 16.6178C15.6564 17.3761 14.6711 17.7012 13.5058 17.8534C12.3824 18 10.958 18 9.19081 18H8.80919C7.04205 18 5.61757 18 4.49421 17.8534C3.32886 17.7012 2.34355 17.3761 1.54875 16.6178C1.49191 16.5636 1.43637 16.5081 1.38215 16.4513C0.623944 15.6564 0.298796 14.6711 0.146633 13.5058C-4.6134e-05 12.3824 -2.52109e-05 10.958 6.9946e-07 9.19081Z" fill="#484848"/>
<path fill-rule="evenodd" clip-rule="evenodd" d="M9 4C9.55229 4 10 4.44772 10 5V8H13C13.5523 8 14 8.44772 14 9C14 9.55229 13.5523 10 13 10H9C8.44772 10 8 9.55229 8 9V5C8 4.44772 8.44772 4 9 4Z" fill="#484848"/>
<path fill-rule="evenodd" clip-rule="evenodd" d="M9.29289 8.70711C8.90237 8.31658 8.90237 7.68342 9.29289 7.29289L15.2929 1.29289C15.6834 0.90237 16.3166 0.90237 16.7071 1.29289C17.0976 1.68342 17.0976 2.31658 16.7071 2.70711L10.7071 8.70711C10.3166 9.09763 9.68342 9.09763 9.29289 8.70711Z" fill="#484848"/>
</svg>
