<svg width="64" height="108" viewBox="0 0 64 108" fill="none" xmlns="http://www.w3.org/2000/svg">
<rect x="0.5" y="0.5" width="63" height="107" rx="4.5" stroke="#9747FF" stroke-dasharray="10 5"/>
<path fill-rule="evenodd" clip-rule="evenodd" d="M23 32.1908L23 31.8092C23 30.042 23 28.6176 23.1466 27.4942C23.2988 26.3289 23.6239 25.3436 24.3822 24.5487C24.4364 24.4919 24.4919 24.4364 24.5487 24.3822C25.3436 23.6239 26.3289 23.2988 27.4942 23.1466C28.6176 23 30.0421 23 31.8092 23L32 23C32.5523 23 33 23.4477 33 24C33 24.5523 32.5523 25 32 25H31.88C30.0253 25 28.7319 25.002 27.7532 25.1298C26.8014 25.2541 26.2935 25.4818 25.9292 25.8293C25.8951 25.8618 25.8618 25.8951 25.8293 25.9292C25.4818 26.2935 25.2541 26.8014 25.1298 27.7532C25.002 28.7319 25 30.0253 25 31.88V32.12C25 33.9747 25.002 35.2681 25.1298 36.2468C25.2541 37.1986 25.4818 37.7065 25.8293 38.0708C25.8618 38.1049 25.8951 38.1382 25.9292 38.1707C26.2935 38.5182 26.8014 38.7459 27.7532 38.8702C28.7319 38.998 30.0253 39 31.88 39H32.12C33.9747 39 35.2681 38.998 36.2468 38.8702C37.1986 38.7459 37.7065 38.5182 38.0708 38.1707C38.1049 38.1382 38.1382 38.1049 38.1707 38.0708C38.5182 37.7065 38.7459 37.1986 38.8702 36.2468C38.998 35.2681 39 33.9747 39 32.12V32C39 31.4477 39.4477 31 40 31C40.5523 31 41 31.4477 41 32V32.1908C41 33.9579 41 35.3824 40.8534 36.5058C40.7012 37.6711 40.3761 38.6564 39.6178 39.4513C39.5636 39.5081 39.5081 39.5636 39.4513 39.6178C38.6564 40.3761 37.6711 40.7012 36.5058 40.8534C35.3824 41 33.958 41 32.1908 41H31.8092C30.042 41 28.6176 41 27.4942 40.8534C26.3289 40.7012 25.3436 40.3761 24.5487 39.6178C24.4919 39.5636 24.4364 39.5081 24.3822 39.4513C23.6239 38.6564 23.2988 37.6711 23.1466 36.5058C23 35.3824 23 33.958 23 32.1908Z" fill="#484848"/>
<path fill-rule="evenodd" clip-rule="evenodd" d="M32 27C32.5523 27 33 27.4477 33 28V31H36C36.5523 31 37 31.4477 37 32C37 32.5523 36.5523 33 36 33H32C31.4477 33 31 32.5523 31 32V28C31 27.4477 31.4477 27 32 27Z" fill="#484848"/>
<path fill-rule="evenodd" clip-rule="evenodd" d="M32.2929 31.7071C31.9024 31.3166 31.9024 30.6834 32.2929 30.2929L38.2929 24.2929C38.6834 23.9024 39.3166 23.9024 39.7071 24.2929C40.0976 24.6834 40.0976 25.3166 39.7071 25.7071L33.7071 31.7071C33.3166 32.0976 32.6834 32.0976 32.2929 31.7071Z" fill="#484848"/>
<path fill-rule="evenodd" clip-rule="evenodd" d="M39 76C39 75.5663 38.908 75.1541 38.7423 74.7818C38.5317 74.3082 38.4263 74.0714 38.4511 73.9232C38.4523 73.9157 38.4528 73.9129 38.4543 73.9055C38.4844 73.7582 38.622 73.6206 38.8972 73.3455L39.4367 72.8059C40.0334 72.2092 40.3318 71.9109 40.6304 72.0185C40.6409 72.0223 40.6527 72.027 40.6629 72.0315C40.9532 72.1598 40.9629 72.5691 40.9822 73.3877C41 74.1429 41 75.0055 41 76C41 79.7497 41 81.6246 40.0451 82.9389C39.7367 83.3634 39.3634 83.7367 38.9389 84.0451C37.6246 85 35.7497 85 32 85C28.2503 85 26.3754 85 25.0611 84.0451C24.6366 83.7367 24.2633 83.3634 23.9549 82.9389C23 81.6246 23 79.7497 23 76C23 72.2503 23 70.3754 23.9549 69.0611C24.2633 68.6366 24.6366 68.2633 25.0611 67.9549C26.3754 67 28.2503 67 32 67C32.9945 67 33.8571 67 34.6123 67.0178C35.4309 67.0371 35.8402 67.0468 35.9685 67.3371C35.973 67.3473 35.9777 67.3591 35.9815 67.3696C36.0891 67.6682 35.7908 67.9666 35.1941 68.5633L34.6545 69.1028C34.3794 69.378 34.2418 69.5156 34.0945 69.5457C34.0871 69.5472 34.0842 69.5477 34.0768 69.5489C33.9286 69.5737 33.6918 69.4683 33.2182 69.2577C32.8459 69.092 32.4337 69 32 69C30.3431 69 29 70.3431 29 72V76C29 77.6569 30.3431 79 32 79H36C37.6569 79 39 77.6569 39 76Z" fill="#484848"/>
<path fill-rule="evenodd" clip-rule="evenodd" d="M37 76C37 76.5523 36.5523 77 36 77H32C31.4477 77 31 76.5523 31 76V72C31 71.4477 31.4477 71 32 71C32.5523 71 33 71.4477 33 72V73.5858L38.2929 68.2929C38.6834 67.9024 39.3166 67.9024 39.7071 68.2929C40.0976 68.6834 40.0976 69.3166 39.7071 69.7071L34.4142 75H36C36.5523 75 37 75.4477 37 76Z" fill="#484848"/>
</svg>
