<svg width="64" height="108" viewBox="0 0 64 108" fill="none" xmlns="http://www.w3.org/2000/svg">
<rect x="0.5" y="0.5" width="63" height="107" rx="4.5" stroke="#9747FF" stroke-dasharray="10 5"/>
<path fill-rule="evenodd" clip-rule="evenodd" d="M23 32.1908L23 31.8092C23 30.042 23 28.6176 23.1466 27.4942C23.2988 26.3289 23.6239 25.3436 24.3822 24.5487C24.4364 24.4919 24.4919 24.4364 24.5487 24.3822C25.3436 23.6239 26.3289 23.2988 27.4942 23.1466C28.6176 23 30.0421 23 31.8092 23L32 23C32.5523 23 33 23.4477 33 24C33 24.5523 32.5523 25 32 25H31.88C30.0253 25 28.7319 25.002 27.7532 25.1298C26.8014 25.2541 26.2935 25.4818 25.9292 25.8293C25.8951 25.8618 25.8618 25.8951 25.8293 25.9292C25.4818 26.2935 25.2541 26.8014 25.1298 27.7532C25.002 28.7319 25 30.0253 25 31.88V32.12C25 33.9747 25.002 35.2681 25.1298 36.2468C25.2541 37.1986 25.4818 37.7065 25.8293 38.0708C25.8618 38.1049 25.8951 38.1382 25.9292 38.1707C26.2935 38.5182 26.8014 38.7459 27.7532 38.8702C28.7319 38.998 30.0253 39 31.88 39H32.12C33.9747 39 35.2681 38.998 36.2468 38.8702C37.1986 38.7459 37.7065 38.5182 38.0708 38.1707C38.1049 38.1382 38.1382 38.1049 38.1707 38.0708C38.5182 37.7065 38.7459 37.1986 38.8702 36.2468C38.998 35.2681 39 33.9747 39 32.12V32C39 31.4477 39.4477 31 40 31C40.5523 31 41 31.4477 41 32V32.1908C41 33.9579 41 35.3824 40.8534 36.5058C40.7012 37.6711 40.3761 38.6564 39.6178 39.4513C39.5636 39.5081 39.5081 39.5636 39.4513 39.6178C38.6564 40.3761 37.6711 40.7012 36.5058 40.8534C35.3824 41 33.958 41 32.1908 41H31.8092C30.042 41 28.6176 41 27.4942 40.8534C26.3289 40.7012 25.3436 40.3761 24.5487 39.6178C24.4919 39.5636 24.4364 39.5081 24.3822 39.4513C23.6239 38.6564 23.2988 37.6711 23.1466 36.5058C23 35.3824 23 33.958 23 32.1908Z" fill="#484848"/>
<path fill-rule="evenodd" clip-rule="evenodd" d="M40 29C39.4477 29 39 28.5523 39 28V25H36C35.4477 25 35 24.5523 35 24C35 23.4477 35.4477 23 36 23H40C40.5523 23 41 23.4477 41 24V28C41 28.5523 40.5523 29 40 29Z" fill="#484848"/>
<path fill-rule="evenodd" clip-rule="evenodd" d="M39.7071 24.2929C40.0976 24.6834 40.0976 25.3166 39.7071 25.7071L33.7071 31.7071C33.3166 32.0976 32.6834 32.0976 32.2929 31.7071C31.9024 31.3166 31.9024 30.6834 32.2929 30.2929L38.2929 24.2929C38.6834 23.9024 39.3166 23.9024 39.7071 24.2929Z" fill="#484848"/>
<path fill-rule="evenodd" clip-rule="evenodd" d="M35 68C35 67.4477 35.4477 67 36 67H40C40.5523 67 41 67.4477 41 68V72C41 72.5523 40.5523 73 40 73C39.4477 73 39 72.5523 39 72V70.4142L33.7071 75.7071C33.3166 76.0976 32.6834 76.0976 32.2929 75.7071C31.9024 75.3166 31.9024 74.6834 32.2929 74.2929L37.5858 69H36C35.4477 69 35 68.5523 35 68Z" fill="#484848"/>
<path fill-rule="evenodd" clip-rule="evenodd" d="M33 68C33 68.4337 33.092 68.8459 33.2577 69.2182C33.4683 69.6918 33.5737 69.9286 33.5489 70.0768C33.5477 70.0843 33.5472 70.0871 33.5457 70.0945C33.5156 70.2418 33.378 70.3794 33.1028 70.6545L30.8787 72.8787C29.7071 74.0503 29.7071 75.9497 30.8787 77.1213C32.0503 78.2929 33.9497 78.2929 35.1213 77.1213L37.3455 74.8972C37.6206 74.622 37.7582 74.4844 37.9055 74.4543C37.9129 74.4528 37.9157 74.4523 37.9232 74.4511C38.0714 74.4263 38.3082 74.5317 38.7818 74.7423C39.1541 74.908 39.5663 75 40 75C40.3923 75 40.5884 75 40.6715 75.0303C40.8409 75.0922 40.9078 75.1591 40.9696 75.3285C41 75.4115 41 75.5569 41 75.8478C41 75.8982 41 75.9489 41 76C41 79.7497 41 81.6246 40.0451 82.9389C39.7367 83.3634 39.3634 83.7367 38.9389 84.0451C37.6246 85 35.7497 85 32 85C28.2503 85 26.3754 85 25.0611 84.0451C24.6366 83.7367 24.2633 83.3634 23.9549 82.9389C23 81.6246 23 79.7497 23 76C23 72.2503 23 70.3754 23.9549 69.0611C24.2633 68.6366 24.6366 68.2633 25.0611 67.9549C26.3754 67 28.2503 67 32 67C32.0511 67 32.1018 67 32.1522 67C32.4431 67 32.5885 67 32.6715 67.0304C32.8409 67.0922 32.9078 67.1591 32.9697 67.3285C33 67.4116 33 67.6077 33 68Z" fill="#484848"/>
</svg>
