<svg width="18" height="18" viewBox="0 0 18 18" fill="none" xmlns="http://www.w3.org/2000/svg">
<path fill-rule="evenodd" clip-rule="evenodd" d="M12 1C12 0.447717 12.4477 2.26498e-06 13 2.26498e-06H17C17.5523 2.26498e-06 18 0.447717 18 1V5C18 5.55229 17.5523 6 17 6C16.4477 6 16 5.55229 16 5V3.41422L10.7071 8.70711C10.3166 9.09763 9.68342 9.09763 9.29289 8.70711C8.90237 8.31659 8.90237 7.68342 9.29289 7.2929L14.5858 2H13C12.4477 2 12 1.55229 12 1Z" fill="#484848"/>
<path fill-rule="evenodd" clip-rule="evenodd" d="M10 1C10 1.43372 10.092 1.84595 10.2577 2.21821C10.4683 2.69177 10.5737 2.92856 10.5489 3.07678C10.5477 3.08425 10.5472 3.08712 10.5457 3.09454C10.5156 3.24178 10.378 3.37936 10.1028 3.65452L7.87868 5.87868C6.70711 7.05025 6.70711 8.94975 7.87868 10.1213C9.05025 11.2929 10.9497 11.2929 12.1213 10.1213L14.3455 7.89716C14.6206 7.622 14.7582 7.48442 14.9055 7.45435C14.9129 7.45284 14.9157 7.4523 14.9232 7.45106C15.0714 7.42632 15.3082 7.53166 15.7818 7.74235C16.1541 7.90796 16.5663 8 17 8C17.3923 8 17.5884 8 17.6715 8.03033C17.8409 8.09219 17.9078 8.15909 17.9696 8.32847C18 8.41154 18 8.55695 18 8.84776C18 8.89816 18 8.94891 18 9C18 12.7497 18 14.6246 17.0451 15.9389C16.7367 16.3634 16.3634 16.7367 15.9389 17.0451C14.6246 18 12.7497 18 9 18C5.25027 18 3.3754 18 2.06107 17.0451C1.6366 16.7367 1.26331 16.3634 0.954915 15.9389C0 14.6246 0 12.7497 0 9C0 5.25027 0 3.3754 0.954915 2.06107C1.26331 1.6366 1.6366 1.26331 2.06107 0.954914C3.3754 0 5.25027 0 9 0C9.05109 0 9.10184 0 9.15224 2.41571e-06C9.44305 1.63547e-05 9.58846 2.3324e-05 9.67153 0.0303615C9.84091 0.0922229 9.90781 0.159129 9.96967 0.328514C10 0.411584 10 0.607723 10 1Z" fill="#484848"/>
</svg>
