<svg width="24" height="24" viewBox="0 0 24 24" fill="none" xmlns="http://www.w3.org/2000/svg">
<path fill-rule="evenodd" clip-rule="evenodd" d="M19 12C19 11.5663 18.908 11.1541 18.7423 10.7818C18.5317 10.3082 18.4263 10.0714 18.4511 9.92322C18.4523 9.91575 18.4528 9.91288 18.4543 9.90546C18.4844 9.75822 18.622 9.62064 18.8972 9.34548L19.4367 8.80594C20.0334 8.20924 20.3318 7.91089 20.6304 8.01851C20.6409 8.02229 20.6527 8.02702 20.6629 8.03152C20.9532 8.15977 20.9629 8.56906 20.9822 9.38766C21 10.1429 21 11.0055 21 12C21 15.7497 21 17.6246 20.0451 18.9389C19.7367 19.3634 19.3634 19.7367 18.9389 20.0451C17.6246 21 15.7497 21 12 21C8.25027 21 6.3754 21 5.06107 20.0451C4.6366 19.7367 4.26331 19.3634 3.95491 18.9389C3 17.6246 3 15.7497 3 12C3 8.25027 3 6.3754 3.95491 5.06107C4.26331 4.6366 4.6366 4.26331 5.06107 3.95491C6.3754 3 8.25027 3 12 3C12.9945 3 13.8571 3 14.6123 3.01781C15.4309 3.03712 15.8402 3.04678 15.9685 3.33715C15.973 3.34734 15.9777 3.35914 15.9815 3.36962C16.0891 3.66825 15.7908 3.9666 15.1941 4.5633L14.6545 5.10284C14.3794 5.378 14.2418 5.51558 14.0945 5.54565C14.0871 5.54717 14.0842 5.5477 14.0768 5.54894C13.9286 5.57368 13.6918 5.46834 13.2182 5.25766C12.8459 5.09204 12.4337 5 12 5C10.3431 5 9 6.34315 9 8V12C9 13.6569 10.3431 15 12 15H16C17.6569 15 19 13.6569 19 12Z" fill="#484848"/>
<path fill-rule="evenodd" clip-rule="evenodd" d="M17 12C17 12.5523 16.5523 13 16 13H12C11.4477 13 11 12.5523 11 12V8C11 7.44772 11.4477 7 12 7C12.5523 7 13 7.44772 13 8V9.58579L18.2929 4.29289C18.6834 3.90237 19.3166 3.90237 19.7071 4.29289C20.0976 4.68342 20.0976 5.31658 19.7071 5.70711L14.4142 11H16C16.5523 11 17 11.4477 17 12Z" fill="#484848"/>
</svg>
