<svg width="18" height="18" viewBox="0 0 18 18" fill="none" xmlns="http://www.w3.org/2000/svg">
<path fill-rule="evenodd" clip-rule="evenodd" d="M6.89899 0.248682C8.98271 -0.251573 11.1766 0.0080846 13.0859 0.980952C14.9953 1.95382 16.4949 3.57605 17.3149 5.55585C18.135 7.53566 18.2217 9.74311 17.5595 11.7811C16.8973 13.8192 15.5296 15.5541 13.7025 16.6737C11.8753 17.7934 9.70863 18.2244 7.59209 17.8892C5.47554 17.554 3.54807 16.4745 2.15635 14.845C0.764626 13.2155 0 11.1429 0 9C0 8.44771 0.447715 8 1 8C1.55228 8 2 8.44771 2 9C2 10.6667 2.59471 12.2787 3.67716 13.5461C4.75961 14.8135 6.25876 15.6531 7.90496 15.9138C9.55116 16.1745 11.2364 15.8393 12.6575 14.9685C14.0786 14.0976 15.1423 12.7483 15.6574 11.1631C16.1724 9.57797 16.105 7.86107 15.4672 6.32122C14.8293 4.78137 13.663 3.51964 12.1779 2.76297C10.6929 2.00629 8.98655 1.80433 7.36588 2.19342C5.74521 2.58251 4.31656 3.53711 3.33688 4.88551L1.71885 3.70994C2.97843 1.97628 4.81527 0.748937 6.89899 0.248682Z" fill="#484848"/>
<path fill-rule="evenodd" clip-rule="evenodd" d="M2.00002 1.43629e-06C2.5523 3.34364e-06 3.00002 0.44772 3.00001 1L3 3.99997L5.99998 3.99992C6.55227 3.99991 6.99999 4.44761 7 4.9999C7.00001 5.55218 6.5523 5.99991 6.00002 5.99992L2.00002 5.99999C1.7348 6 1.48044 5.89464 1.2929 5.70711C1.10536 5.51957 0.999999 5.26521 1 4.99999L1.00001 0.999998C1.00002 0.447713 1.44773 -4.71054e-07 2.00002 1.43629e-06Z" fill="#484848"/>
</svg>
