<svg width="24" height="24" viewBox="0 0 24 24" fill="none" xmlns="http://www.w3.org/2000/svg">
<path fill-rule="evenodd" clip-rule="evenodd" d="M14.101 3.24868C12.0173 2.74843 9.82345 3.00808 7.91409 3.98095C6.00472 4.95382 4.50515 6.57605 3.68509 8.55585C2.86502 10.5357 2.77829 12.7431 3.44049 14.7811C4.10269 16.8192 5.47037 18.5541 7.29752 19.6737C9.12466 20.7934 11.2914 21.2244 13.4079 20.8892C15.5245 20.554 17.4519 19.4745 18.8437 17.845C20.2354 16.2155 21 14.1429 21 12C21 11.4477 20.5523 11 20 11C19.4477 11 19 11.4477 19 12C19 13.6667 18.4053 15.2787 17.3228 16.5461C16.2404 17.8135 14.7412 18.6531 13.095 18.9138C11.4488 19.1745 9.76363 18.8393 8.34251 17.9685C6.9214 17.0976 5.85765 15.7483 5.34261 14.1631C4.82756 12.578 4.89502 10.8611 5.53284 9.32122C6.17067 7.78137 7.33701 6.51964 8.82207 5.76297C10.3071 5.00629 12.0134 4.80433 13.6341 5.19342C15.2548 5.58251 16.6834 6.53711 17.6631 7.88551L19.2812 6.70994C18.0216 4.97628 16.1847 3.74894 14.101 3.24868Z" fill="#484848"/>
<path fill-rule="evenodd" clip-rule="evenodd" d="M19 3C18.4477 3 18 3.44772 18 4L18 6.99997L15 6.99992C14.4477 6.99991 14 7.44761 14 7.9999C14 8.55218 14.4477 8.99991 15 8.99992L19 8.99999C19.2652 9 19.5196 8.89464 19.7071 8.70711C19.8946 8.51957 20 8.26521 20 7.99999L20 4C20 3.44771 19.5523 3 19 3Z" fill="#484848"/>
</svg>
