<svg width="24" height="24" viewBox="0 0 24 24" fill="none" xmlns="http://www.w3.org/2000/svg">
<path fill-rule="evenodd" clip-rule="evenodd" d="M9.89899 3.24868C11.9827 2.74843 14.1766 3.00808 16.0859 3.98095C17.9953 4.95382 19.4949 6.57605 20.3149 8.55585C21.135 10.5357 21.2217 12.7431 20.5595 14.7811C19.8973 16.8192 18.5296 18.5541 16.7025 19.6737C14.8753 20.7934 12.7086 21.2244 10.5921 20.8892C8.47554 20.554 6.54807 19.4745 5.15635 17.845C3.76463 16.2155 3 14.1429 3 12C3 11.4477 3.44772 11 4 11C4.55228 11 5 11.4477 5 12C5 13.6667 5.59471 15.2787 6.67716 16.5461C7.75961 17.8135 9.25876 18.6531 10.905 18.9138C12.5512 19.1745 14.2364 18.8393 15.6575 17.9685C17.0786 17.0976 18.1423 15.7483 18.6574 14.1631C19.1724 12.578 19.105 10.8611 18.4672 9.32122C17.8293 7.78137 16.663 6.51964 15.1779 5.76297C13.6929 5.00629 11.9866 4.80433 10.3659 5.19342C8.74521 5.58251 7.31656 6.53711 6.33688 7.88551L4.71885 6.70994C5.97843 4.97628 7.81527 3.74894 9.89899 3.24868Z" fill="#484848"/>
<path fill-rule="evenodd" clip-rule="evenodd" d="M5.00002 3C5.5523 3 6.00002 3.44772 6.00001 4L6 6.99997L8.99998 6.99992C9.55227 6.99991 9.99999 7.44761 10 7.9999C10 8.55218 9.5523 8.99991 9.00002 8.99992L5.00002 8.99999C4.7348 9 4.48044 8.89464 4.2929 8.70711C4.10536 8.51957 4 8.26521 4 7.99999L4.00001 4C4.00002 3.44771 4.44773 3 5.00002 3Z" fill="#484848"/>
</svg>
