<svg width="18" height="18" viewBox="0 0 18 18" fill="none" xmlns="http://www.w3.org/2000/svg">
<path fill-rule="evenodd" clip-rule="evenodd" d="M11.101 0.248682C9.01729 -0.251573 6.82345 0.0080846 4.91409 0.980952C3.00472 1.95382 1.50515 3.57605 0.685085 5.55585C-0.134977 7.53566 -0.221708 9.74311 0.440494 11.7811C1.10269 13.8192 2.47037 15.5541 4.29752 16.6737C6.12466 17.7934 8.29137 18.2244 10.4079 17.8892C12.5245 17.554 14.4519 16.4745 15.8437 14.845C17.2354 13.2155 18 11.1429 18 9C18 8.44771 17.5523 8 17 8C16.4477 8 16 8.44771 16 9C16 10.6667 15.4053 12.2787 14.3228 13.5461C13.2404 14.8135 11.7412 15.6531 10.095 15.9138C8.44884 16.1745 6.76363 15.8393 5.34251 14.9685C3.9214 14.0976 2.85765 12.7483 2.34261 11.1631C1.82756 9.57797 1.89502 7.86107 2.53284 6.32122C3.17067 4.78137 4.33701 3.51964 5.82207 2.76297C7.30713 2.00629 9.01345 1.80433 10.6341 2.19342C12.2548 2.58251 13.6834 3.53711 14.6631 4.88551L16.2812 3.70994C15.0216 1.97628 13.1847 0.748937 11.101 0.248682Z" fill="#484848"/>
<path fill-rule="evenodd" clip-rule="evenodd" d="M16 1.43629e-06C15.4477 3.34364e-06 15 0.44772 15 1L15 3.99997L12 3.99992C11.4477 3.99991 11 4.44761 11 4.9999C11 5.55218 11.4477 5.99991 12 5.99992L16 5.99999C16.2652 6 16.5196 5.89464 16.7071 5.70711C16.8946 5.51957 17 5.26521 17 4.99999L17 0.999998C17 0.447713 16.5523 -4.71054e-07 16 1.43629e-06Z" fill="#484848"/>
</svg>
