<svg width="18" height="18" viewBox="0 0 18 18" fill="none" xmlns="http://www.w3.org/2000/svg">
<path fill-rule="evenodd" clip-rule="evenodd" d="M9 0C9.55228 0 10 0.447715 10 1V10.5858L11.2929 9.29289C11.6834 8.90237 12.3166 8.90237 12.7071 9.29289C13.0976 9.68342 13.0976 10.3166 12.7071 10.7071L9.70711 13.7071C9.31658 14.0976 8.68342 14.0976 8.29289 13.7071L5.29289 10.7071C4.90237 10.3166 4.90237 9.68342 5.29289 9.29289C5.68342 8.90237 6.31658 8.90237 6.70711 9.29289L8 10.5858V1C8 0.447715 8.44772 0 9 0Z" fill="#484848"/>
<path fill-rule="evenodd" clip-rule="evenodd" d="M18 17C18 17.5523 17.5523 18 17 18L1 18C0.447714 18 -4.82823e-08 17.5523 0 17C4.82823e-08 16.4477 0.447714 16 1 16L17 16C17.5523 16 18 16.4477 18 17Z" fill="#484848"/>
</svg>
