<svg width="24" height="24" viewBox="0 0 24 24" fill="none" xmlns="http://www.w3.org/2000/svg">
<path fill-rule="evenodd" clip-rule="evenodd" d="M12 3C12.5523 3 13 3.44772 13 4V13.5858L14.2929 12.2929C14.6834 11.9024 15.3166 11.9024 15.7071 12.2929C16.0976 12.6834 16.0976 13.3166 15.7071 13.7071L12.7071 16.7071C12.3166 17.0976 11.6834 17.0976 11.2929 16.7071L8.29289 13.7071C7.90237 13.3166 7.90237 12.6834 8.29289 12.2929C8.68342 11.9024 9.31658 11.9024 9.70711 12.2929L11 13.5858V4C11 3.44772 11.4477 3 12 3Z" fill="#484848"/>
<path fill-rule="evenodd" clip-rule="evenodd" d="M21 20C21 20.5523 20.5523 21 20 21L4 21C3.44771 21 3 20.5523 3 20C3 19.4477 3.44771 19 4 19L20 19C20.5523 19 21 19.4477 21 20Z" fill="#484848"/>
</svg>
