<svg width="20" height="16" viewBox="0 0 20 16" fill="none" xmlns="http://www.w3.org/2000/svg">
<path d="M14 15H6.00004V9H1.00004L10 1L19 9H14V15Z" fill="#484848"/>
<path fill-rule="evenodd" clip-rule="evenodd" d="M9.33568 0.252591C9.71457 -0.0841969 10.2855 -0.0841969 10.6644 0.252591L19.6644 8.25259C19.9747 8.52842 20.0823 8.9673 19.9348 9.35538C19.7872 9.74346 19.4152 10 19 10H15V15C15 15.5523 14.5523 16 14 16H6.00004C5.44776 16 5.00004 15.5523 5.00004 15V10H1.00004C0.584863 10 0.212868 9.74346 0.0653215 9.35538C-0.0822254 8.9673 0.0253699 8.52842 0.335679 8.25259L9.33568 0.252591ZM3.63024 8H6.00004C6.55233 8 7.00004 8.44772 7.00004 9V14H13V9C13 8.44772 13.4478 8 14 8H16.3698L10 2.33795L3.63024 8Z" fill="#484848"/>
</svg>
