<svg width="24" height="24" viewBox="0 0 24 24" fill="none" xmlns="http://www.w3.org/2000/svg">
<path d="M16 5H8.00004V11H3.00004L12 19L21 11H16V5Z" fill="#484848"/>
<path fill-rule="evenodd" clip-rule="evenodd" d="M11.3357 19.7474C11.7146 20.0842 12.2855 20.0842 12.6644 19.7474L21.6644 11.7474C21.9747 11.4716 22.0823 11.0327 21.9348 10.6446C21.7872 10.2565 21.4152 10 21 10H17V5C17 4.44771 16.5523 4 16 4H8.00004C7.44776 4 7.00004 4.44771 7.00004 5V10H3.00004C2.58486 10 2.21287 10.2565 2.06532 10.6446C1.91777 11.0327 2.02537 11.4716 2.33568 11.7474L11.3357 19.7474ZM5.63024 12H8.00004C8.55233 12 9.00004 11.5523 9.00004 11V6H15V11C15 11.5523 15.4478 12 16 12H18.3698L12 17.662L5.63024 12Z" fill="#484848"/>
</svg>
