<svg width="64" height="108" viewBox="0 0 64 108" fill="none" xmlns="http://www.w3.org/2000/svg">
<rect x="0.5" y="0.5" width="63" height="107" rx="4.5" stroke="#9747FF" stroke-dasharray="10 5"/>
<path fill-rule="evenodd" clip-rule="evenodd" d="M31.3356 39.7474C31.7145 40.0842 32.2855 40.0842 32.6644 39.7474L41.6644 31.7474C41.9747 31.4716 42.0823 31.0327 41.9347 30.6446C41.7872 30.2565 41.4152 30 41 30H37V25C37 24.4477 36.5523 24 36 24H28C27.4477 24 27 24.4477 27 25V30H23C22.5848 30 22.2128 30.2565 22.0653 30.6446C21.9177 31.0327 22.0253 31.4716 22.3356 31.7474L31.3356 39.7474ZM25.6302 32H28C28.5523 32 29 31.5523 29 31V26H35V31C35 31.5523 35.4477 32 36 32H38.3698L32 37.662L25.6302 32Z" fill="#484848"/>
<path d="M36 69H28V75H23L32 83L41 75H36V69Z" fill="#484848"/>
<path fill-rule="evenodd" clip-rule="evenodd" d="M31.3356 83.7474C31.7145 84.0842 32.2855 84.0842 32.6644 83.7474L41.6644 75.7474C41.9747 75.4716 42.0823 75.0327 41.9347 74.6446C41.7872 74.2565 41.4152 74 41 74H37V69C37 68.4477 36.5523 68 36 68H28C27.4477 68 27 68.4477 27 69V74H23C22.5848 74 22.2128 74.2565 22.0653 74.6446C21.9177 75.0327 22.0253 75.4716 22.3356 75.7474L31.3356 83.7474ZM25.6302 76H28C28.5523 76 29 75.5523 29 75V70H35V75C35 75.5523 35.4477 76 36 76H38.3698L32 81.662L25.6302 76Z" fill="#484848"/>
</svg>
