<svg width="64" height="108" viewBox="0 0 64 108" fill="none" xmlns="http://www.w3.org/2000/svg">
<rect x="0.5" y="0.5" width="63" height="107" rx="4.5" stroke="#9747FF" stroke-dasharray="10 5"/>
<path fill-rule="evenodd" clip-rule="evenodd" d="M31.3356 24.2526C31.7145 23.9158 32.2855 23.9158 32.6644 24.2526L41.6644 32.2526C41.9747 32.5284 42.0823 32.9673 41.9347 33.3554C41.7872 33.7435 41.4152 34 41 34H37V39C37 39.5523 36.5523 40 36 40H28C27.4477 40 27 39.5523 27 39V34H23C22.5848 34 22.2128 33.7435 22.0653 33.3554C21.9177 32.9673 22.0253 32.5284 22.3356 32.2526L31.3356 24.2526ZM25.6302 32H28C28.5523 32 29 32.4477 29 33V38H35V33C35 32.4477 35.4477 32 36 32H38.3698L32 26.338L25.6302 32Z" fill="#484848"/>
<path d="M36 83H28V77H23L32 69L41 77H36V83Z" fill="#484848"/>
<path fill-rule="evenodd" clip-rule="evenodd" d="M31.3356 68.2526C31.7145 67.9158 32.2855 67.9158 32.6643 68.2526L41.6643 76.2526C41.9747 76.5284 42.0823 76.9673 41.9347 77.3554C41.7872 77.7435 41.4152 78 41 78H37V83C37 83.5523 36.5523 84 36 84H28C27.4477 84 27 83.5523 27 83V78H23C22.5848 78 22.2128 77.7435 22.0653 77.3554C21.9177 76.9673 22.0253 76.5284 22.3356 76.2526L31.3356 68.2526ZM25.6302 76H28C28.5523 76 29 76.4477 29 77V82H35V77C35 76.4477 35.4477 76 36 76H38.3698L32 70.338L25.6302 76Z" fill="#484848"/>
</svg>
