<svg width="20" height="16" viewBox="0 0 20 16" fill="none" xmlns="http://www.w3.org/2000/svg">
<path fill-rule="evenodd" clip-rule="evenodd" d="M9.33568 15.7474C9.71457 16.0842 10.2855 16.0842 10.6644 15.7474L19.6644 7.74741C19.9747 7.47158 20.0823 7.0327 19.9348 6.64462C19.7872 6.25654 19.4152 6 19 6H15V1C15 0.447715 14.5523 0 14 0H6.00004C5.44776 0 5.00004 0.447715 5.00004 1V6H1.00004C0.584863 6 0.212868 6.25654 0.0653215 6.64462C-0.0822254 7.0327 0.0253699 7.47158 0.335679 7.74741L9.33568 15.7474ZM3.63024 8H6.00004C6.55233 8 7.00004 7.55228 7.00004 7V2H13V7C13 7.55228 13.4478 8 14 8H16.3698L10 13.662L3.63024 8Z" fill="#484848"/>
</svg>
