<svg width="24" height="24" viewBox="0 0 24 24" fill="none" xmlns="http://www.w3.org/2000/svg">
<path fill-rule="evenodd" clip-rule="evenodd" d="M8.99997 16C8.99997 15.4477 9.44769 15 9.99997 15H18.5859L17.293 13.7071C16.9024 13.3166 16.9024 12.6834 17.293 12.2929C17.6835 11.9024 18.3166 11.9024 18.7072 12.2929L21.7072 15.2929C21.8947 15.4804 22.0001 15.7348 22.0001 16C22.0001 16.2652 21.8947 16.5196 21.7072 16.7071L18.7072 19.7071C18.3166 20.0976 17.6835 20.0976 17.293 19.7071C16.9024 19.3166 16.9024 18.6834 17.293 18.2929L18.5859 17H9.99997C9.44769 17 8.99997 16.5523 8.99997 16Z" fill="#484848"/>
<path fill-rule="evenodd" clip-rule="evenodd" d="M17.0001 8C17.0001 7.44772 16.5524 7 16.0001 7L7.41422 7L8.70711 5.70711C9.09763 5.31658 9.09763 4.68342 8.70711 4.29289C8.31659 3.90237 7.68342 3.90237 7.2929 4.29289L4.29289 7.29289C4.10536 7.48043 4 7.73478 4 8C4 8.26522 4.10536 8.51957 4.29289 8.70711L7.2929 11.7071C7.68342 12.0976 8.31659 12.0976 8.70711 11.7071C9.09763 11.3166 9.09763 10.6834 8.70711 10.2929L7.41422 9H16.0001C16.5524 9 17.0001 8.55228 17.0001 8Z" fill="#484848"/>
</svg>
