<svg width="18" height="16" viewBox="0 0 18 16" fill="none" xmlns="http://www.w3.org/2000/svg">
<path fill-rule="evenodd" clip-rule="evenodd" d="M4.99997 12C4.99997 11.4477 5.44769 11 5.99997 11H14.5859L13.293 9.70711C12.9024 9.31658 12.9024 8.68342 13.293 8.29289C13.6835 7.90237 14.3166 7.90237 14.7072 8.29289L17.7072 11.2929C17.8947 11.4804 18.0001 11.7348 18.0001 12C18.0001 12.2652 17.8947 12.5196 17.7072 12.7071L14.7072 15.7071C14.3166 16.0976 13.6835 16.0976 13.293 15.7071C12.9024 15.3166 12.9024 14.6834 13.293 14.2929L14.5859 13H5.99997C5.44769 13 4.99997 12.5523 4.99997 12Z" fill="#484848"/>
<path fill-rule="evenodd" clip-rule="evenodd" d="M13.0001 4C13.0001 3.44772 12.5524 3 12.0001 3L3.41422 3L4.70711 1.70711C5.09763 1.31658 5.09763 0.683418 4.70711 0.292894C4.31659 -0.0976309 3.68342 -0.0976313 3.2929 0.292893L0.292893 3.29289C0.105357 3.48043 1.1593e-08 3.73478 0 4C-1.1593e-08 4.26522 0.105357 4.51957 0.292893 4.70711L3.2929 7.70711C3.68342 8.09763 4.31659 8.09763 4.70711 7.70711C5.09763 7.31658 5.09763 6.68342 4.70711 6.29289L3.41422 5H12.0001C12.5524 5 13.0001 4.55228 13.0001 4Z" fill="#484848"/>
</svg>
