<svg width="20" height="20" viewBox="0 0 20 20" fill="none" xmlns="http://www.w3.org/2000/svg">
<path d="M15 1.3C11.1 -0.9 6.3 -0.2 3.1 2.7V1C3.1 0.4 2.7 0 2.1 0C1.5 0 1.1 0.4 1.1 1V5.5C1.1 5.6 1.1 5.7 1.2 5.8V5.9C1.3 6.1 1.5 6.3 1.7 6.4C1.9 6.5 2 6.5 2.1 6.5H6.6C7.2 6.5 7.6 6.1 7.6 5.5C7.6 4.9 7.2 4.5 6.6 4.5H4.2C5.7 2.9 7.8 2 10 2C14.4 2 18 5.6 18 10C18 10.6 18.4 11 19 11C19.6 11 20 10.6 20 10C20 6.4 18.1 3.1 15 1.3ZM17.9 13.5H13.4C12.8 13.5 12.4 13.9 12.4 14.5C12.4 15.1 12.8 15.5 13.4 15.5H15.8C14.3 17.1 12.2 18 10 18C5.6 18 2 14.4 2 10C2 9.4 1.6 9 1 9C0.4 9 0 9.4 0 10C0 15.5 4.5 20 10 20C12.6 20 15 19 16.9 17.2V19C16.9 19.6 17.3 20 17.9 20C18.5 20 18.9 19.6 18.9 19V14.5C18.9 13.9 18.4 13.5 17.9 13.5Z" fill="#484848"/>
</svg>
