<svg width="20" height="20" viewBox="0 0 20 20" fill="none" xmlns="http://www.w3.org/2000/svg">
<path d="M17.8523 13.4902H13.3658C13.1014 13.4902 12.8478 13.5951 12.6608 13.7819C12.4738 13.9687 12.3688 14.2221 12.3688 14.4862C12.3688 14.7504 12.4738 15.0037 12.6608 15.1905C12.8478 15.3773 13.1014 15.4822 13.3658 15.4822H15.7586C15.0167 16.2652 14.1234 16.8896 13.1328 17.3176C12.1423 17.7456 11.0751 17.9683 9.99587 17.9723C8.92758 17.9713 7.87017 17.758 6.88518 17.3448L5.39963 18.8289C6.81579 19.5769 8.39392 19.9668 9.99587 19.9643C12.5518 19.9571 15.0074 18.9694 16.8553 17.2054V18.9683C16.8553 19.2325 16.9604 19.4858 17.1473 19.6726C17.3343 19.8594 17.5879 19.9643 17.8523 19.9643C18.1168 19.9643 18.3704 19.8594 18.5573 19.6726C18.7443 19.4858 18.8494 19.2325 18.8494 18.9683V14.4862C18.8494 14.2221 18.7443 13.9687 18.5573 13.7819C18.3704 13.5951 18.1168 13.4902 17.8523 13.4902ZM19.7068 1.70727C19.7997 1.6144 19.8735 1.50415 19.9238 1.38282C19.9741 1.26148 20 1.13143 20 1.0001C20 0.868762 19.9741 0.738714 19.9238 0.617376C19.8735 0.496039 19.7997 0.385789 19.7068 0.292921C19.6138 0.200054 19.5035 0.126387 19.382 0.0761278C19.2606 0.0258682 19.1304 0 18.9989 0C18.8674 0 18.7373 0.0258682 18.6158 0.0761278C18.4943 0.126387 18.384 0.200054 18.291 0.292921L16.297 2.28496C14.5221 0.827376 12.2935 0.0347309 9.99587 0.0439162C7.43991 0.0511993 4.98436 1.03886 3.13641 2.8029V1.03994C3.13641 0.775776 3.03136 0.522434 2.84439 0.335644C2.65741 0.148854 2.40382 0.0439162 2.13939 0.0439162C1.87497 0.0439162 1.62137 0.148854 1.4344 0.335644C1.24742 0.522434 1.14238 0.775776 1.14238 1.03994V5.52203C1.14238 5.78619 1.24742 6.03954 1.4344 6.22633C1.62137 6.41312 1.87497 6.51805 2.13939 6.51805H6.62596C6.89038 6.51805 7.14398 6.41312 7.33095 6.22633C7.51793 6.03954 7.62297 5.78619 7.62297 5.52203C7.62297 5.25787 7.51793 5.00453 7.33095 4.81774C7.14398 4.63095 6.89038 4.52601 6.62596 4.52601H4.23312C5.58533 3.08891 7.42682 2.20921 9.39545 2.05991C11.3641 1.91061 13.3174 2.50252 14.8713 3.71923L3.7047 14.8747C2.61379 13.485 2.02055 11.7702 2.01975 10.0041C2.01975 9.73997 1.91471 9.48663 1.72773 9.29984C1.54076 9.11304 1.28716 9.00811 1.02274 9.00811C0.758311 9.00811 0.504717 9.11304 0.31774 9.29984C0.130764 9.48663 0.0257213 9.73997 0.0257213 10.0041C0.022138 12.3019 0.822724 14.5286 2.28894 16.299L0.294915 18.291C0.201467 18.3836 0.127294 18.4938 0.0766773 18.6152C0.0260602 18.7365 0 18.8667 0 18.9982C0 19.1297 0.0260602 19.2599 0.0766773 19.3812C0.127294 19.5026 0.201467 19.6128 0.294915 19.7054C0.387601 19.7987 0.497872 19.8728 0.619367 19.9234C0.740863 19.974 0.871178 20 1.0028 20C1.13441 20 1.26473 19.974 1.38622 19.9234C1.50772 19.8728 1.61799 19.7987 1.71068 19.7054L19.7068 1.70727ZM17.3439 6.89654C17.7574 7.88055 17.9709 8.93691 17.972 10.0041C17.972 10.2683 18.077 10.5216 18.264 10.7084C18.451 10.8952 18.7046 11.0002 18.969 11.0002C19.2334 11.0002 19.487 10.8952 19.674 10.7084C19.861 10.5216 19.966 10.2683 19.966 10.0041C19.9685 8.40378 19.5782 6.82722 18.8294 5.41247L17.3439 6.89654Z" fill="#484848"/>
</svg>
