<svg width="24" height="24" viewBox="0 0 24 24" fill="none" xmlns="http://www.w3.org/2000/svg">
<path d="M19.8523 15.4902H15.3658C15.1014 15.4902 14.8478 15.5951 14.6608 15.7819C14.4738 15.9687 14.3688 16.2221 14.3688 16.4862C14.3688 16.7504 14.4738 17.0037 14.6608 17.1905C14.8478 17.3773 15.1014 17.4822 15.3658 17.4822H17.7586C17.0167 18.2652 16.1234 18.8896 15.1328 19.3176C14.1423 19.7456 13.0751 19.9683 11.9959 19.9723C10.9276 19.9713 9.87017 19.758 8.88518 19.3448L7.39963 20.8289C8.81579 21.5769 10.3939 21.9668 11.9959 21.9643C14.5518 21.9571 17.0074 20.9694 18.8553 19.2054V20.9683C18.8553 21.2325 18.9604 21.4858 19.1473 21.6726C19.3343 21.8594 19.5879 21.9643 19.8523 21.9643C20.1168 21.9643 20.3704 21.8594 20.5573 21.6726C20.7443 21.4858 20.8494 21.2325 20.8494 20.9683V16.4862C20.8494 16.2221 20.7443 15.9687 20.5573 15.7819C20.3704 15.5951 20.1168 15.4902 19.8523 15.4902ZM21.7068 3.70727C21.7997 3.6144 21.8735 3.50415 21.9238 3.38282C21.9741 3.26148 22 3.13143 22 3.0001C22 2.86876 21.9741 2.73871 21.9238 2.61738C21.8735 2.49604 21.7997 2.38579 21.7068 2.29292C21.6138 2.20005 21.5035 2.12639 21.382 2.07613C21.2606 2.02587 21.1304 2 20.9989 2C20.8674 2 20.7373 2.02587 20.6158 2.07613C20.4943 2.12639 20.384 2.20005 20.291 2.29292L18.297 4.28496C16.5221 2.82738 14.2935 2.03473 11.9959 2.04392C9.43991 2.0512 6.98436 3.03886 5.13641 4.8029V3.03994C5.13641 2.77578 5.03136 2.52243 4.84439 2.33564C4.65741 2.14885 4.40382 2.04392 4.13939 2.04392C3.87497 2.04392 3.62137 2.14885 3.4344 2.33564C3.24742 2.52243 3.14238 2.77578 3.14238 3.03994V7.52203C3.14238 7.78619 3.24742 8.03954 3.4344 8.22633C3.62137 8.41312 3.87497 8.51805 4.13939 8.51805H8.62596C8.89038 8.51805 9.14398 8.41312 9.33095 8.22633C9.51793 8.03954 9.62297 7.78619 9.62297 7.52203C9.62297 7.25787 9.51793 7.00453 9.33095 6.81774C9.14398 6.63095 8.89038 6.52601 8.62596 6.52601H6.23312C7.58533 5.08891 9.42682 4.20921 11.3954 4.05991C13.3641 3.91061 15.3174 4.50252 16.8713 5.71923L5.7047 16.8747C4.61379 15.485 4.02055 13.7702 4.01975 12.0041C4.01975 11.74 3.91471 11.4866 3.72773 11.2998C3.54076 11.113 3.28716 11.0081 3.02274 11.0081C2.75831 11.0081 2.50472 11.113 2.31774 11.2998C2.13076 11.4866 2.02572 11.74 2.02572 12.0041C2.02214 14.3019 2.82272 16.5286 4.28894 18.299L2.29492 20.291C2.20147 20.3836 2.12729 20.4938 2.07668 20.6152C2.02606 20.7365 2 20.8667 2 20.9982C2 21.1297 2.02606 21.2599 2.07668 21.3812C2.12729 21.5026 2.20147 21.6128 2.29492 21.7054C2.3876 21.7987 2.49787 21.8728 2.61937 21.9234C2.74086 21.974 2.87118 22 3.0028 22C3.13441 22 3.26473 21.974 3.38622 21.9234C3.50772 21.8728 3.61799 21.7987 3.71068 21.7054L21.7068 3.70727ZM19.3439 8.89654C19.7574 9.88055 19.9709 10.9369 19.972 12.0041C19.972 12.2683 20.077 12.5216 20.264 12.7084C20.451 12.8952 20.7046 13.0002 20.969 13.0002C21.2334 13.0002 21.487 12.8952 21.674 12.7084C21.861 12.5216 21.966 12.2683 21.966 12.0041C21.9685 10.4038 21.5782 8.82722 20.8294 7.41247L19.3439 8.89654Z" fill="#484848"/>
</svg>
