<svg width="24" height="24" viewBox="0 0 24 24" fill="none" xmlns="http://www.w3.org/2000/svg">
<path fill-rule="evenodd" clip-rule="evenodd" d="M12 14C11.4477 14 11 13.5523 11 13V7.41421L9.70711 8.7071C9.31658 9.09763 8.68342 9.09763 8.29289 8.7071C7.90237 8.31658 7.90237 7.68341 8.29289 7.29289L11.2929 4.29289C11.6834 3.90237 12.3166 3.90237 12.7071 4.29289L15.7071 7.29289C16.0976 7.68341 16.0976 8.31658 15.7071 8.7071C15.3166 9.09762 14.6834 9.09763 14.2929 8.7071L13 7.41421V13C13 13.5523 12.5523 14 12 14Z" fill="#484848"/>
<path fill-rule="evenodd" clip-rule="evenodd" d="M19.9643 15.1206C19.9995 14.6047 20 13.9456 20 13C20 12.4477 20.4477 12 21 12C21.5523 12 22 12.4477 22 13V13.0355C22 13.9373 22 14.6647 21.9596 15.2567C21.9181 15.8654 21.8305 16.4037 21.6194 16.9134C21.1119 18.1386 20.1386 19.1119 18.9134 19.6194C18.4037 19.8305 17.8654 19.9181 17.2567 19.9596C16.6647 20 15.9373 20 15.0355 20H8.96448C8.06272 20 7.33531 20 6.74331 19.9596C6.13456 19.9181 5.59628 19.8305 5.08658 19.6194C3.86144 19.1119 2.88807 18.1386 2.3806 16.9134C2.16948 16.4037 2.08191 15.8654 2.04038 15.2567C1.99999 14.6647 1.99999 13.9373 2 13.0355L2 13C2 12.4477 2.44772 12 3 12C3.55228 12 4 12.4477 4 13C4 13.9456 4.00054 14.6047 4.03574 15.1206C4.07033 15.6275 4.135 15.9227 4.22836 16.148C4.53284 16.8831 5.11687 17.4672 5.85195 17.7716C6.07733 17.865 6.37254 17.9297 6.87945 17.9643C7.39534 17.9995 8.05443 18 9 18H15C15.9456 18 16.6047 17.9995 17.1206 17.9643C17.6275 17.9297 17.9227 17.865 18.1481 17.7716C18.8831 17.4672 19.4672 16.8831 19.7716 16.1481C19.865 15.9227 19.9297 15.6275 19.9643 15.1206Z" fill="#484848"/>
</svg>
