<svg width="20" height="16" viewBox="0 0 20 16" fill="none" xmlns="http://www.w3.org/2000/svg">
<path fill-rule="evenodd" clip-rule="evenodd" d="M10 10C9.44772 10 9 9.55229 9 9.00001V3.41421L7.70711 4.7071C7.31658 5.09763 6.68342 5.09763 6.29289 4.7071C5.90237 4.31658 5.90237 3.68341 6.29289 3.29289L9.2929 0.292892C9.68342 -0.0976308 10.3166 -0.0976307 10.7071 0.292892L13.7071 3.29289C14.0976 3.68341 14.0976 4.31658 13.7071 4.7071C13.3166 5.09762 12.6834 5.09763 12.2929 4.7071L11 3.41421V9.00001C11 9.55229 10.5523 10 10 10Z" fill="#484848"/>
<path fill-rule="evenodd" clip-rule="evenodd" d="M17.9643 11.1206C17.9995 10.6047 18 9.94557 18 9C18 8.44771 18.4477 8 19 8C19.5523 8 20 8.44771 20 9V9.03551C20 9.93727 20 10.6647 19.9596 11.2567C19.9181 11.8654 19.8305 12.4037 19.6194 12.9134C19.1119 14.1386 18.1386 15.1119 16.9134 15.6194C16.4037 15.8305 15.8654 15.9181 15.2567 15.9596C14.6647 16 13.9373 16 13.0355 16H6.96448C6.06272 16 5.33531 16 4.74331 15.9596C4.13456 15.9181 3.59628 15.8305 3.08658 15.6194C1.86144 15.1119 0.888073 14.1386 0.380602 12.9134C0.169478 12.4037 0.0819131 11.8654 0.0403806 11.2567C-1.32136e-05 10.6647 -7.45858e-06 9.93728 2.10235e-07 9.03552L2.11788e-07 9C2.35929e-07 8.44771 0.447716 8 1 8C1.55228 8 2 8.44771 2 9C2 9.94556 2.00054 10.6047 2.03574 11.1206C2.07033 11.6275 2.135 11.9227 2.22836 12.148C2.53284 12.8831 3.11687 13.4672 3.85195 13.7716C4.07733 13.865 4.37254 13.9297 4.87945 13.9643C5.39534 13.9995 6.05443 14 7 14H13C13.9456 14 14.6047 13.9995 15.1206 13.9643C15.6275 13.9297 15.9227 13.865 16.1481 13.7716C16.8831 13.4672 17.4672 12.8831 17.7716 12.1481C17.865 11.9227 17.9297 11.6275 17.9643 11.1206Z" fill="#484848"/>
</svg>
