<svg width="21" height="21" viewBox="0 0 21 21" fill="none" xmlns="http://www.w3.org/2000/svg">
<path fill-rule="evenodd" clip-rule="evenodd" d="M8.92684 1.99989L10 1.99989C10.5523 1.99989 11 2.44761 11 2.99989C11 3.55218 10.5523 3.99989 10 3.99989H9C7.08611 3.99989 5.7513 4.00202 4.74416 4.13742C3.76579 4.26896 3.2477 4.50956 2.87868 4.87857C2.50966 5.24759 2.26907 5.76569 2.13753 6.74405C2.00213 7.75119 2 9.08601 2 10.9999V11.9999C2 13.9138 2.00213 15.2486 2.13753 16.2557C2.26907 17.2341 2.50966 17.7522 2.87868 18.1212C3.2477 18.4902 3.76579 18.7308 4.74416 18.8624C5.7513 18.9978 7.08611 18.9999 9 18.9999H10C11.9139 18.9999 13.2487 18.9978 14.2558 18.8624C15.2342 18.7308 15.7523 18.4902 16.1213 18.1212C16.4903 17.7522 16.7309 17.2341 16.8625 16.2557C16.9979 15.2486 17 13.9138 17 11.9999V10.9999C17 10.4476 17.4477 9.9999 18 9.9999C18.5523 9.9999 19 10.4476 19 10.9999V12.073C19 13.8965 19.0001 15.3663 18.8446 16.5222C18.6833 17.7224 18.3381 18.7329 17.5355 19.5354C16.733 20.338 15.7225 20.6832 14.5223 20.8445C13.3664 20.9999 11.8966 20.9999 10.0731 20.9999H8.92686C7.1034 20.9999 5.63363 20.9999 4.47767 20.8445C3.27752 20.6832 2.26702 20.338 1.46447 19.5354C0.661912 18.7329 0.31672 17.7224 0.155365 16.5222C-4.89801e-05 15.3663 -2.68071e-05 13.8965 7.30224e-07 12.0731V10.9267C-2.68071e-05 9.10328 -4.89801e-05 7.63352 0.155365 6.47756C0.31672 5.27742 0.661912 4.26692 1.46447 3.46436C2.26702 2.66181 3.27752 2.31661 4.47767 2.15526C5.63362 1.99984 7.10338 1.99987 8.92684 1.99989Z" fill="#484848"/>
<path fill-rule="evenodd" clip-rule="evenodd" d="M14.8533 1.77374C16.0574 0.565241 18.0138 0.563478 19.2201 1.7698C20.4234 2.97305 20.4251 4.92336 19.2241 6.12878L12.3976 12.9799C12.145 13.2334 11.8291 13.4145 11.4827 13.5043L7.72533 14.4782C7.38076 14.5675 7.01468 14.4669 6.76411 14.2141C6.51355 13.9613 6.41628 13.5943 6.50871 13.2505L7.51271 9.51667C7.6034 9.1794 7.78083 8.87175 8.02735 8.62435L14.8533 1.77374ZM17.8059 3.18401C17.3816 2.75974 16.6936 2.76036 16.27 3.1854L9.44411 10.036L8.8861 12.1112L10.9808 11.5682L17.8073 4.71712C18.2297 4.29316 18.2291 3.60721 17.8059 3.18401Z" fill="#484848"/>
<path fill-rule="evenodd" clip-rule="evenodd" d="M13.2013 4.46295C13.5918 4.07243 14.225 4.07243 14.6155 4.46295L16.827 6.67448C17.2176 7.06501 17.2176 7.69817 16.827 8.0887C16.4365 8.47922 15.8033 8.47922 15.4128 8.0887L13.2013 5.87717C12.8108 5.48664 12.8108 4.85348 13.2013 4.46295Z" fill="#484848"/>
</svg>
