<svg width="18" height="18" viewBox="0 0 18 18" fill="none" xmlns="http://www.w3.org/2000/svg">
<path fill-rule="evenodd" clip-rule="evenodd" d="M3.4162 4.29587e-05C3.44388 6.50124e-05 3.47184 8.73046e-05 3.50009 8.73046e-05H14.5001C14.5283 8.73046e-05 14.5563 6.50124e-05 14.584 4.29587e-05C14.9647 -0.000259952 15.2925 -0.0005209 15.5854 0.0577315C16.7754 0.294451 17.7057 1.22474 17.9424 2.41482C18.0007 2.70767 18.0004 3.0355 18.0001 3.41619C18.0001 3.44387 18.0001 3.47184 18.0001 3.50009C18.0001 3.52834 18.0001 3.5563 18.0001 3.58399C18.0004 3.96468 18.0007 4.29251 17.9424 4.58536C17.8127 5.23739 17.4748 5.81144 17.0001 6.23617V10.054C17.0001 11.4127 17.0001 12.5084 16.9107 13.3874C16.8184 14.2949 16.6226 15.0818 16.1574 15.7779C15.7926 16.3239 15.3239 16.7926 14.7779 17.1574C14.0818 17.6226 13.2949 17.8184 12.3874 17.9107C11.5084 18.0001 10.4127 18.0001 9.05405 18.0001H8.94613C7.58747 18.0001 6.49182 18.0001 5.61273 17.9107C4.70532 17.8184 3.91838 17.6226 3.22224 17.1574C2.67629 16.7926 2.20753 16.3239 1.84274 15.7779C1.37759 15.0818 1.1818 14.2949 1.08949 13.3874C1.00006 12.5084 1.00007 11.4127 1.00009 10.054V6.23617C0.52533 5.81144 0.187429 5.23739 0.0577315 4.58536C-0.0005209 4.2925 -0.000259952 3.96467 4.29587e-05 3.58397C6.50124e-05 3.55629 8.73046e-05 3.52833 8.73046e-05 3.50009C8.73046e-05 3.47184 6.50124e-05 3.44388 4.29587e-05 3.4162C-0.000259952 3.03551 -0.0005209 2.70767 0.0577315 2.41482C0.294451 1.22474 1.22474 0.294451 2.41482 0.0577315C2.70767 -0.0005209 3.03551 -0.000259952 3.4162 4.29587e-05ZM3.50009 5.00009H14.5001C15.0127 5.00009 15.1229 4.99524 15.1952 4.98087C15.5919 4.90197 15.902 4.59187 15.9809 4.19518C15.9952 4.12293 16.0001 4.01267 16.0001 3.50009C16.0001 2.9875 15.9952 2.87725 15.9809 2.805C15.902 2.40831 15.5919 2.09821 15.1952 2.0193C15.1229 2.00493 15.0127 2.00009 14.5001 2.00009H3.50009C2.9875 2.00009 2.87725 2.00493 2.805 2.0193C2.40831 2.09821 2.09821 2.40831 2.0193 2.805C2.00493 2.87725 2.00009 2.9875 2.00009 3.50009C2.00009 4.01267 2.00493 4.12293 2.0193 4.19518C2.09821 4.59187 2.40831 4.90197 2.805 4.98087C2.87725 4.99524 2.9875 5.00009 3.50009 5.00009ZM3.00009 7.00009V10.0001C3.00009 11.4254 3.0013 12.419 3.07922 13.185C3.15544 13.9343 3.29671 14.354 3.50568 14.6668C3.72455 14.9944 4.00581 15.2756 4.33338 15.4945C4.64613 15.7035 5.06587 15.8447 5.81514 15.921C6.58113 15.9989 7.57481 16.0001 9.00009 16.0001C10.4254 16.0001 11.419 15.9989 12.185 15.921C12.9343 15.8447 13.354 15.7035 13.6668 15.4945C13.9944 15.2756 14.2756 14.9944 14.4945 14.6668C14.7035 14.354 14.8447 13.9343 14.921 13.185C14.9989 12.419 15.0001 11.4254 15.0001 10.0001V7.00009H14.7445C14.692 7.00022 14.6385 7.00017 14.584 7.00013C14.5563 7.00011 14.5283 7.00009 14.5001 7.00009H3.50009C3.47184 7.00009 3.44388 7.00011 3.4162 7.00013C3.36164 7.00017 3.30817 7.00022 3.25572 7.00009H3.00009ZM6.00009 11.0001C6.00009 10.4478 6.4478 10.0001 7.00009 10.0001H11.0001C11.5524 10.0001 12.0001 10.4478 12.0001 11.0001C12.0001 11.5524 11.5524 12.0001 11.0001 12.0001H7.00009C6.4478 12.0001 6.00009 11.5524 6.00009 11.0001Z" fill="#484848"/>
</svg>
