<svg width="18" height="18" viewBox="0 0 18 18" fill="none" xmlns="http://www.w3.org/2000/svg">
<path d="M0 2.5C0 2.03534 0 1.80302 0.0384294 1.60982C0.196243 0.816438 0.816438 0.196243 1.60982 0.0384294C1.80302 0 2.03534 0 2.5 0H15.5C15.9647 0 16.197 0 16.3902 0.0384294C17.1836 0.196243 17.8038 0.816438 17.9616 1.60982C18 1.80302 18 2.03534 18 2.5C18 2.96466 18 3.19698 17.9616 3.39018C17.8038 4.18356 17.1836 4.80376 16.3902 4.96157C16.197 5 15.9647 5 15.5 5H2.5C2.03534 5 1.80302 5 1.60982 4.96157C0.816438 4.80376 0.196243 4.18356 0.0384294 3.39018C0 3.19698 0 2.96466 0 2.5Z" fill="#484848"/>
<path fill-rule="evenodd" clip-rule="evenodd" d="M1.41329 7.78248C1 8.32109 1 9.10295 1 10.6667C1 13.7941 1 15.3578 1.82659 16.435C2.03939 16.7124 2.28763 16.9606 2.56495 17.1734C3.64218 18 5.2059 18 8.33333 18H9.66667C12.7941 18 14.3578 18 15.435 17.1734C15.7124 16.9606 15.9606 16.7124 16.1734 16.435C17 15.3578 17 13.7941 17 10.6667C17 9.10295 17 8.32109 16.5867 7.78248C16.4803 7.64381 16.3562 7.51969 16.2175 7.41329C15.6789 7 14.897 7 13.3333 7H4.66667C3.10295 7 2.32109 7 1.78248 7.41329C1.64381 7.51969 1.51969 7.64381 1.41329 7.78248ZM11 13C11.5523 13 12 12.5523 12 12C12 11.4477 11.5523 11 11 11H7C6.44772 11 6 11.4477 6 12C6 12.5523 6.44772 13 7 13H11Z" fill="#484848"/>
</svg>
