<svg width="16" height="20" viewBox="0 0 16 20" fill="none" xmlns="http://www.w3.org/2000/svg">
<path fill-rule="evenodd" clip-rule="evenodd" d="M7.94606 3.9708e-07H8.05394C9.41261 -1.47995e-05 10.5083 -2.71648e-05 11.3874 0.0883461C12.2948 0.179566 13.0817 0.373052 13.7778 0.832714C14.3238 1.1932 14.7925 1.65643 15.1573 2.19594C15.6225 2.88387 15.8183 3.66153 15.9106 4.55824C16 5.42696 16 6.50968 16 7.85232V16.3584C16 16.3823 16 16.4061 16 16.4298C16.0001 17.1255 16.0002 17.7555 15.9269 18.2432C15.8497 18.7568 15.652 19.399 15.0038 19.7707C14.3557 20.1424 13.6934 19.9934 13.2038 19.8048C12.739 19.6257 12.1855 19.3131 11.5743 18.9679L9.48841 17.7899C8.98719 17.5069 8.67263 17.3305 8.41886 17.2181C8.18501 17.1144 8.07543 17.0994 8 17.0994C7.92457 17.0994 7.81499 17.1144 7.58114 17.2181C7.32737 17.3305 7.01281 17.5069 6.51158 17.7899L4.42566 18.9679C3.81448 19.3131 3.26097 19.6257 2.79617 19.8048C2.30663 19.9934 1.64433 20.1424 0.996156 19.7707C0.347982 19.399 0.150285 18.7568 0.073115 18.2432C-0.000156023 17.7555 -7.91296e-05 17.1255 5.74726e-06 16.4298C8.60828e-06 16.4061 1.14693e-05 16.3823 1.14693e-05 16.3584L1.09925e-05 7.85234C-4.38551e-06 6.50969 -1.69054e-05 5.42697 0.089411 4.55824C0.181719 3.66153 0.377514 2.88387 0.842662 2.19594C1.20745 1.65643 1.67621 1.1932 2.22216 0.832714C2.9183 0.373052 3.70524 0.179566 4.61265 0.0883461C5.49174 -2.71648e-05 6.58739 -1.47995e-05 7.94606 3.9708e-07ZM4.81506 2.05461C4.06578 2.12993 3.64605 2.26953 3.3333 2.47604C3.00573 2.69233 2.72447 2.97027 2.5056 3.29398C2.29663 3.60304 2.15536 4.01783 2.07914 4.75826C2.00122 5.51522 2.00001 6.49718 2.00001 7.90564V16.3584C2.00001 17.1491 2.00268 17.6285 2.05142 17.9529C2.05227 17.9585 2.05312 17.964 2.05396 17.9694C2.05908 17.9674 2.06433 17.9655 2.06969 17.9634C2.37892 17.8442 2.80146 17.6087 3.49615 17.2164L5.55699 16.0527C6.00921 15.7973 6.40898 15.5715 6.76268 15.4147C7.14608 15.2448 7.5443 15.123 8 15.123C8.4557 15.123 8.85392 15.2448 9.23732 15.4147C9.59101 15.5715 9.99079 15.7973 10.443 16.0527L12.5039 17.2164C13.1985 17.6087 13.6211 17.8442 13.9303 17.9634C13.9357 17.9655 13.9409 17.9674 13.946 17.9694C13.9469 17.964 13.9477 17.9585 13.9486 17.9529C13.9973 17.6285 14 17.1491 14 16.3584V7.90564C14 6.49718 13.9988 5.51521 13.9209 4.75826C13.8446 4.01783 13.7034 3.60304 13.4944 3.29398C13.2755 2.97027 12.9943 2.69233 12.6667 2.47604C12.354 2.26953 11.9342 2.12993 11.1849 2.05461C10.419 1.97761 9.42527 1.97641 8 1.97641C6.57473 1.97641 5.58104 1.97761 4.81506 2.05461Z" fill="#484848"/>
</svg>
