<svg width="16" height="20" viewBox="0 0 16 20" fill="none" xmlns="http://www.w3.org/2000/svg">
<path fill-rule="evenodd" clip-rule="evenodd" d="M4.5 3C3.11929 3 2 4.11929 2 5.5V12C2 13.4253 2.00121 14.419 2.07913 15.1849C2.15535 15.9342 2.29662 16.354 2.50559 16.6667C2.72447 16.9943 3.00572 17.2755 3.33329 17.4944C3.64604 17.7034 4.06578 17.8446 4.81505 17.9209C5.58104 17.9988 6.57473 18 8 18C9.42528 18 10.419 17.9988 11.1849 17.9209C11.9342 17.8446 12.354 17.7034 12.6667 17.4944C12.9943 17.2755 13.2755 16.9943 13.4944 16.6667C13.7034 16.354 13.8446 15.9342 13.9209 15.1849C13.9988 14.419 14 13.4253 14 12V5.5C14 4.11929 12.8807 3 11.5 3V1C13.9853 1 16 3.01472 16 5.5V12.054C16 13.4126 16 14.5083 15.9106 15.3874C15.8183 16.2948 15.6225 17.0817 15.1573 17.7779C14.7926 18.3238 14.3238 18.7926 13.7779 19.1573C13.0817 19.6225 12.2948 19.8183 11.3874 19.9106C10.5083 20 9.41262 20 8.05396 20H7.94604C6.58738 20 5.49173 20 4.61264 19.9106C3.70523 19.8183 2.91829 19.6225 2.22215 19.1573C1.6762 18.7926 1.20745 18.3238 0.842653 17.7779C0.377504 17.0817 0.181709 16.2948 0.0894005 15.3874C-2.74926e-05 14.5083 -1.49762e-05 13.4126 4.01819e-07 12.0539L8.78656e-07 5.5C8.78656e-07 3.01472 2.01472 1 4.5 1V3Z" fill="#484848"/>
<path fill-rule="evenodd" clip-rule="evenodd" d="M10 2H6C5.50669 2 5.23688 2.00108 5.04183 2.01439C5.03276 2.01501 5.02424 2.01564 5.01626 2.01626C5.01564 2.02424 5.01501 2.03276 5.01439 2.04183C5.00108 2.23688 5 2.50669 5 3C5 3.49331 5.00108 3.76312 5.01439 3.95817C5.01501 3.96724 5.01564 3.97576 5.01626 3.98374C5.02424 3.98436 5.03276 3.98499 5.04183 3.98561C5.23688 3.99892 5.50669 4 6 4H10C10.4933 4 10.7631 3.99892 10.9582 3.98561C10.9672 3.98499 10.9758 3.98436 10.9837 3.98373C10.9844 3.97575 10.985 3.96724 10.9856 3.95817C10.9989 3.76312 11 3.49331 11 3C11 2.50669 10.9989 2.23688 10.9856 2.04183C10.985 2.03276 10.9844 2.02424 10.9837 2.01626C10.9758 2.01564 10.9672 2.01501 10.9582 2.01439C10.7631 2.00108 10.4933 2 10 2ZM3.15224 1.23463C3 1.60218 3 2.06812 3 3C3 3.93188 3 4.39782 3.15224 4.76537C3.35523 5.25542 3.74458 5.64477 4.23463 5.84776C4.60218 6 5.06812 6 6 6H10C10.9319 6 11.3978 6 11.7654 5.84776C12.2554 5.64477 12.6448 5.25542 12.8478 4.76537C13 4.39782 13 3.93188 13 3C13 2.06812 13 1.60218 12.8478 1.23463C12.6448 0.744577 12.2554 0.355229 11.7654 0.152241C11.3978 0 10.9319 0 10 0H6C5.06812 0 4.60218 0 4.23463 0.152241C3.74458 0.355229 3.35523 0.744577 3.15224 1.23463Z" fill="#484848"/>
<path fill-rule="evenodd" clip-rule="evenodd" d="M11.7071 9.29289C12.0976 9.68342 12.0976 10.3166 11.7071 10.7071L8.41421 14C7.63317 14.781 6.36684 14.781 5.58579 14L4.29289 12.7071C3.90237 12.3166 3.90237 11.6834 4.29289 11.2929C4.68342 10.9024 5.31658 10.9024 5.70711 11.2929L7 12.5858L10.2929 9.29289C10.6834 8.90237 11.3166 8.90237 11.7071 9.29289Z" fill="#484848"/>
</svg>
