<svg width="16" height="21" viewBox="0 0 16 21" fill="none" xmlns="http://www.w3.org/2000/svg">
<rect width="16" height="21" fill="#1E1E1E"/>
<path d="M-320 -4852C-320 -4853.1 -319.105 -4854 -318 -4854H1462C1463.1 -4854 1464 -4853.1 1464 -4852V248C1464 249.104 1463.1 250 1462 250H-318C-319.105 250 -320 249.104 -320 248V-4852Z" fill="#F4F4F4"/>
<path d="M-318 -4854V-4853H1462V-4854V-4855H-318V-4854ZM1464 -4852H1463V248H1464H1465V-4852H1464ZM1462 250V249H-318V250V251H1462V250ZM-320 248H-319V-4852H-320H-321V248H-320ZM-318 250V249C-318.552 249 -319 248.552 -319 248H-320H-321C-321 249.657 -319.657 251 -318 251V250ZM1464 248H1463C1463 248.552 1462.55 249 1462 249V250V251C1463.66 251 1465 249.657 1465 248H1464ZM1462 -4854V-4853C1462.55 -4853 1463 -4852.55 1463 -4852H1464H1465C1465 -4853.66 1463.66 -4855 1462 -4855V-4854ZM-318 -4854V-4855C-319.657 -4855 -321 -4853.66 -321 -4852H-320H-319C-319 -4852.55 -318.552 -4853 -318 -4853V-4854Z" fill="white" fill-opacity="0.1"/>
<path d="M-168 -317C-168 -335.856 -168 -345.284 -162.142 -351.142C-156.284 -357 -146.856 -357 -128 -357H1272C1290.86 -357 1300.28 -357 1306.14 -351.142C1312 -345.284 1312 -335.856 1312 -317V43C1312 61.8562 1312 71.2843 1306.14 77.1422C1300.28 83 1290.86 83 1272 83H-128C-146.856 83 -156.284 83 -162.142 77.1422C-168 71.2843 -168 61.8562 -168 43V-317Z" fill="white"/>
<rect x="-23.5" y="-64.5" width="63" height="107" rx="4.5" stroke="#9747FF" stroke-dasharray="10 5"/>
<path d="M12.999 2.25586C14.7472 2.87334 15.9999 4.54045 16 6.5V13.0537C16 14.4122 15.9996 15.5087 15.9102 16.3877C15.8178 17.2948 15.6222 18.0824 15.1572 18.7783C14.7926 19.3239 14.3239 19.7926 13.7783 20.1572C13.0823 20.6223 12.2949 20.8178 11.3877 20.9102C10.5086 20.9996 9.41236 21 8.05371 21H7.94629C6.58763 21 5.49139 20.9996 4.6123 20.9102C3.7051 20.8178 2.9177 20.6223 2.22168 20.1572C1.67611 19.7926 1.20741 19.3239 0.842774 18.7783C0.377801 18.0824 0.182168 17.2948 0.089844 16.3877C0.000444302 15.5087 -1.51032e-05 14.4122 2.34344e-07 13.0537V6.5C0.00010425 4.54078 1.25228 2.87359 3 2.25586C2.99993 2.33395 3 2.41555 3 2.5C3 3.5869 3.00019 4.13083 3.15234 4.55957C3.35531 5.13111 3.7445 5.58543 4.23438 5.82227C4.60192 5.99988 5.06812 6 6 6H10C10.9319 6 11.3981 5.99988 11.7656 5.82227C12.2555 5.58543 12.6447 5.13111 12.8477 4.55957C12.9998 4.13083 13 3.5869 13 2.5C13 2.41555 12.9991 2.33395 12.999 2.25586ZM11.707 10.293C11.3165 9.90261 10.6835 9.90261 10.293 10.293L7 13.5859L5.70703 12.293C5.31654 11.9026 4.68346 11.9026 4.29297 12.293C3.90257 12.6835 3.9026 13.3165 4.29297 13.707L5.58594 15C6.36695 15.7808 7.63306 15.7808 8.41406 15L11.707 11.707C12.0974 11.3165 12.0974 10.6835 11.707 10.293ZM9.2002 0C9.75892 1.37301e-09 10.0383 0.000232047 10.2588 0.101562C10.5528 0.236886 10.7864 0.496544 10.9082 0.823242C10.9995 1.06827 11 1.37874 11 2C11 2.62126 10.9995 2.93173 10.9082 3.17676C10.7864 3.50346 10.5528 3.76311 10.2588 3.89844C10.0383 3.99977 9.75892 4 9.2002 4H6.7998C6.24108 4 5.96166 3.99977 5.74121 3.89844C5.44718 3.76311 5.21359 3.50346 5.0918 3.17676C5.00045 2.93173 5 2.62126 5 2C5 1.37874 5.00045 1.06827 5.0918 0.823242C5.21359 0.496544 5.44718 0.236886 5.74121 0.101562C5.96166 0.00023208 6.24108 1.37637e-09 6.7998 0H9.2002Z" fill="#484848"/>
</svg>
