<svg width="16" height="20" viewBox="0 0 16 20" fill="none" xmlns="http://www.w3.org/2000/svg">
<path fill-rule="evenodd" clip-rule="evenodd" d="M2 12V6.66667C2 5.3837 2.00192 4.5552 2.05882 3.92732C2.11324 3.32693 2.20504 3.10897 2.26795 3C2.44349 2.69596 2.69596 2.44349 3 2.26795C3.10897 2.20504 3.32694 2.11324 3.92732 2.05882C4.5552 2.00192 5.3837 2 6.66667 2C7.32655 2 7.68775 2.00192 7.94608 2.02533C7.95522 2.02616 7.96391 2.027 7.97217 2.02783C7.97301 2.03609 7.97384 2.04478 7.97467 2.05392C7.99808 2.31225 8 2.67345 8 3.33333V4C8 4.02589 7.99998 4.05216 7.99997 4.07877C7.99971 4.47852 7.99942 4.95445 8.05445 5.36377C8.12088 5.85786 8.29869 6.54134 8.87868 7.12132C9.45866 7.7013 10.1421 7.87912 10.6362 7.94555C11.0455 8.00058 11.5215 8.00029 11.9212 8.00003C11.9478 8.00002 11.9741 8 12 8C12.9993 8 13.5477 8.00425 13.928 8.05539C13.933 8.05606 13.9379 8.05672 13.9426 8.05739C13.9433 8.06214 13.9439 8.06699 13.9446 8.07195C13.9958 8.45234 14 9.00065 14 10V12C14 13.9422 13.9958 15.1976 13.8714 16.1226C13.7548 16.9901 13.5665 17.262 13.4142 17.4142C13.262 17.5665 12.9901 17.7548 12.1226 17.8714C11.1976 17.9958 9.94216 18 8 18C6.05784 18 4.80242 17.9958 3.87741 17.8714C3.00993 17.7548 2.73803 17.5665 2.58579 17.4142C2.43354 17.262 2.24524 16.9901 2.12861 16.1226C2.00425 15.1976 2 13.9422 2 12ZM13.9032 7.86187L13.9039 7.86368L13.9032 7.86187ZM1.17157 18.8284C0 17.6569 0 15.7712 0 12V6.66667C0 4.17436 0 2.9282 0.535898 2C0.886972 1.39192 1.39192 0.886972 2 0.535898C2.9282 0 4.17436 0 6.66667 0C7.91282 0 8.5359 0 9 0.26795C9.30404 0.443485 9.55651 0.695961 9.73205 1C10 1.4641 10 2.08718 10 3.33333V4C10 4.94281 10 5.41421 10.2929 5.70711C10.5858 6 11.0572 6 12 6C13.8856 6 14.8284 6 15.4142 6.58579C16 7.17157 16 8.11438 16 10V12C16 15.7712 16 17.6569 14.8284 18.8284C13.6569 20 11.7712 20 8 20C4.22876 20 2.34315 20 1.17157 18.8284Z" fill="#484848"/>
<path fill-rule="evenodd" clip-rule="evenodd" d="M16 9C16 6.81392 15.1316 4.71737 13.5858 3.17157L12.4749 2.06066C11.1555 0.741241 9.36594 0 7.5 0V2C8.83551 2 10.1163 2.53053 11.0607 3.47487L12.1716 4.58579C13.3423 5.75651 14 7.34435 14 9H16Z" fill="#484848"/>
<path fill-rule="evenodd" clip-rule="evenodd" d="M8 9C8.55228 9 9 9.44771 9 10V12.5993L9.29571 12.3059C9.68779 11.917 10.3209 11.9195 10.7099 12.3116C11.0989 12.7036 11.0964 13.3368 10.7043 13.7258L8.70429 15.7099C8.31442 16.0967 7.68558 16.0967 7.29571 15.7099L5.29571 13.7258C4.90364 13.3368 4.90112 12.7036 5.29009 12.3116C5.67905 11.9195 6.31221 11.917 6.70429 12.3059L7 12.5993V10C7 9.44771 7.44772 9 8 9Z" fill="#484848"/>
</svg>
