<svg width="20" height="20" viewBox="0 0 20 20" fill="none" xmlns="http://www.w3.org/2000/svg">
<path fill-rule="evenodd" clip-rule="evenodd" d="M17 5.88428C17 5.9223 17 5.96088 17 6.00004C17 6.55232 16.5523 7.00004 16 7.00004C15.4477 7.00004 15 6.55232 15 6.00004C15 5.0228 14.9952 4.68021 14.9424 4.41477C14.7056 3.22469 13.7753 2.2944 12.5853 2.05768C12.3198 2.00488 11.9772 2.00004 11 2.00004H8.5C6.83176 2.00004 5.66851 2.00167 4.78068 2.10662C3.91492 2.20895 3.4423 2.39748 3.09682 2.68101C2.94492 2.80567 2.80563 2.94495 2.68097 3.09686C2.39744 3.44234 2.20892 3.91496 2.10658 4.78071C2.00164 5.66854 2 6.8318 2 8.50004L2 15C2 16.6569 3.34315 18 5 18C5.55229 18 6 18.4478 6 19C6 19.5523 5.55229 20 5 20C2.23858 20 1.78464e-07 17.7615 2.99169e-07 15L5.86068e-07 8.43656C-2.12789e-05 6.84672 -3.74392e-05 5.56491 0.12041 4.54594C0.245065 3.49137 0.510518 2.58894 1.13495 1.82807C1.34272 1.5749 1.57486 1.34276 1.82803 1.13498C2.58891 0.510554 3.49133 0.245099 4.5459 0.120445C5.56489 -1.74344e-06 6.8467 1.52397e-05 8.43656 3.65284e-05L11 3.71173e-05C11.0392 3.7119e-05 11.0777 2.7584e-05 11.1158 1.81681e-05C11.9334 -0.000184452 12.4906 -0.000322595 12.9755 0.0961109C14.9589 0.490644 16.5094 2.04113 16.9039 4.02459C17.0004 4.50939 17.0002 5.06668 17 5.88428Z" fill="#484848"/>
<path fill-rule="evenodd" clip-rule="evenodd" d="M13 5.00004C13 5.55232 12.5523 6.00004 12 6.00004H5C4.44772 6.00004 4 5.55232 4 5.00004C4 4.44775 4.44772 4.00004 5 4.00004H12C12.5523 4.00004 13 4.44775 13 5.00004Z" fill="#484848"/>
<path fill-rule="evenodd" clip-rule="evenodd" d="M10 9.00004C10 9.55232 9.55229 10 9 10H5C4.44772 10 4 9.55232 4 9.00004C4 8.44775 4.44772 8.00004 5 8.00004H9C9.55229 8.00004 10 8.44775 10 9.00004Z" fill="#484848"/>
<path fill-rule="evenodd" clip-rule="evenodd" d="M15.5758 8.78116C16.6029 7.75492 18.251 7.73765 19.2568 8.74257C20.2626 9.74749 20.2453 11.3941 19.2182 12.4203L13.0531 18.5798C12.7843 18.8484 12.4538 19.0467 12.0918 19.1566L9.48725 19.9475C8.5999 20.2169 7.7853 19.4067 8.05111 18.519L8.92476 15.6015C8.97388 15.4374 9.0635 15.2876 9.18527 15.166L15.5758 8.78116ZM18.0169 9.98134C17.6816 9.64637 17.1323 9.65213 16.7899 9.9942L10.5327 16.2458L10.0113 17.9868L11.6193 17.4986C11.702 17.4735 11.7776 17.4282 11.839 17.3668L18.004 11.2073C18.3464 10.8652 18.3522 10.3163 18.0169 9.98134Z" fill="#484848"/>
<path fill-rule="evenodd" clip-rule="evenodd" d="M14.2929 10.2929C14.6834 9.90241 15.3166 9.90241 15.7071 10.2929L17.7071 12.2929C18.0976 12.6835 18.0976 13.3166 17.7071 13.7071C17.3166 14.0977 16.6834 14.0977 16.2929 13.7071L14.2929 11.7071C13.9024 11.3166 13.9024 10.6835 14.2929 10.2929Z" fill="#484848"/>
</svg>
