<svg width="18" height="20" viewBox="0 0 18 20" fill="none" xmlns="http://www.w3.org/2000/svg">
<path fill-rule="evenodd" clip-rule="evenodd" d="M17 7.94606V8C17 8.55229 16.5523 9 16 9C15.4477 9 15 8.55229 15 8C15 6.57473 14.9988 5.58104 14.9209 4.81505C14.8447 4.06578 14.7034 3.64604 14.4944 3.33329C14.2756 3.00572 13.9943 2.72447 13.6667 2.50559C13.354 2.29662 12.9343 2.15535 12.185 2.07913C11.419 2.00121 10.4253 2 9.00004 2H8.50004C6.8318 2 5.66854 2.00164 4.78071 2.10658C3.91496 2.20892 3.44234 2.39744 3.09686 2.68097C2.94496 2.80563 2.80567 2.94492 2.681 3.09682C2.39748 3.4423 2.20895 3.91492 2.10662 4.78068C2.00167 5.66851 2.00004 6.83177 2.00004 8.5L2.00004 14C2.00004 14.9772 2.00488 15.3198 2.05768 15.5853C2.2944 16.7753 3.22469 17.7056 4.41476 17.9424C4.68021 17.9952 5.02279 18 6.00004 18C6.55232 18 7.00004 18.4477 7.00004 19C7.00004 19.5523 6.55232 20 6.00003 20C5.96088 20 5.92231 20 5.8843 20C5.06668 20.0002 4.50939 20.0004 4.02458 19.9039C2.04113 19.5094 0.490642 17.9589 0.0961084 15.9755C-0.000324301 15.4906 -0.000184087 14.9334 1.8128e-05 14.1158C2.76664e-05 14.0777 3.52975e-05 14.0392 3.52992e-05 14L3.55424e-05 8.43653C1.36774e-05 6.84668 -2.48104e-06 5.56488 0.120445 4.5459C0.2451 3.49133 0.510553 2.58891 1.13498 1.82803C1.34275 1.57486 1.5749 1.34272 1.82807 1.13495C2.58894 0.510518 3.49136 0.245063 4.54594 0.120409C5.56492 -3.77074e-05 6.84673 -2.0725e-05 8.4366 5.63748e-07L9.05398 5.90735e-07C10.4126 -1.47279e-05 11.5083 -2.71946e-05 12.3874 0.0894009C13.2948 0.18171 14.0817 0.377505 14.7779 0.842653C15.3238 1.20745 15.7926 1.6762 16.1574 2.22215C16.6225 2.91829 16.8183 3.70523 16.9106 4.61264C17.0001 5.49174 17 6.58739 17 7.94606Z" fill="#484848"/>
<path fill-rule="evenodd" clip-rule="evenodd" d="M13 5C13 5.55229 12.5523 6 12 6H5.00004C4.44775 6 4.00004 5.55229 4.00004 5C4.00004 4.44772 4.44775 4 5.00004 4H12C12.5523 4 13 4.44772 13 5Z" fill="#484848"/>
<path fill-rule="evenodd" clip-rule="evenodd" d="M10 9C10 9.55229 9.55232 10 9.00004 10H5.00004C4.44775 10 4.00004 9.55229 4.00004 9C4.00004 8.44772 4.44775 8 5.00004 8H9.00004C9.55232 8 10 8.44772 10 9Z" fill="#484848"/>
<path d="M14 15C14 15.5523 13.5523 16 13 16C12.4478 16 12 15.5523 12 15C12 14.4477 12.4478 14 13 14C13.5523 14 14 14.4477 14 15Z" fill="#484848"/>
<path fill-rule="evenodd" clip-rule="evenodd" d="M13 12.0023C12.997 12.0036 12.9935 12.0051 12.9897 12.0068C12.9359 12.0309 12.8632 12.068 12.7194 12.1421L10.1969 13.4437C10.1283 13.4791 10.0748 13.5067 10.0287 13.5311C10.0185 13.5365 10.0091 13.5415 10.0004 13.5462C10 13.5882 10 13.6368 10 13.6987V16.3013C10 16.3632 10 16.4118 10.0004 16.4537C10.0093 16.4585 10.0188 16.4636 10.0291 16.469C10.0752 16.4935 10.1288 16.5211 10.1974 16.5565L12.7194 17.8578C12.8632 17.932 12.9359 17.9691 12.9898 17.9932C12.9936 17.9949 12.9971 17.9964 13.0001 17.9977C13.0032 17.9964 13.0066 17.9949 13.0104 17.9932C13.0643 17.9691 13.137 17.932 13.2808 17.8578L15.8028 16.5565C15.8714 16.5211 15.925 16.4935 15.971 16.4691C15.9813 16.4636 15.9908 16.4585 15.9996 16.4538C16 16.4123 16 16.3642 16 16.3032V13.6968C16 13.6358 16 13.5878 15.9996 13.5464C15.9914 13.5419 15.9824 13.5371 15.9728 13.532C15.9271 13.5078 15.874 13.4804 15.8058 13.4452L13.2803 12.1421C13.1362 12.0678 13.0637 12.0308 13.0098 12.0066C13.0062 12.005 13.0029 12.0036 13 12.0023ZM13.0057 18.0001C13.0057 18.0001 13.0057 18.0001 13.0057 18.0001V18.0001ZM13.0057 18.0001C13.0054 18 13.0051 17.9998 13.0047 17.9997L13.0057 18.0001ZM12.6214 10.0356C12.8713 9.98813 13.1289 9.98813 13.3788 10.0356C13.6711 10.0911 13.933 10.2273 14.1413 10.3357C14.1604 10.3456 14.1792 10.3554 14.1974 10.3648L16.7229 11.6679C16.7413 11.6774 16.7604 11.6871 16.7803 11.6973C16.9828 11.8007 17.2549 11.9397 17.4673 12.1504C17.6539 12.3357 17.8022 12.5613 17.8947 12.8159C18.0034 13.1147 18.0015 13.431 18.0003 13.6382C18.0002 13.6589 18 13.6784 18 13.6968V16.3032C18 16.3215 18.0002 16.3411 18.0003 16.3617C18.0015 16.5689 18.0034 16.8852 17.8947 17.1841C17.8021 17.4389 17.6537 17.6644 17.4673 17.8494C17.2544 18.0607 16.9819 18.1999 16.7772 18.3045C16.7574 18.3146 16.7383 18.3244 16.7199 18.3339L14.1979 19.6352C14.1799 19.6445 14.1615 19.654 14.1427 19.6638C13.9336 19.7725 13.6715 19.9088 13.3788 19.9644C13.1289 20.0119 12.8713 20.0119 12.6214 19.9644C12.3287 19.9088 12.0666 19.7725 11.8576 19.6638C11.8387 19.654 11.8203 19.6445 11.8024 19.6352L9.28034 18.3339C9.26188 18.3244 9.24265 18.3145 9.22279 18.3044C9.01823 18.1999 8.74565 18.0606 8.53284 17.8494C8.34614 17.6641 8.19795 17.4385 8.10544 17.1841C7.99669 16.885 7.99856 16.5683 7.9998 16.3602C7.99992 16.3394 8.00004 16.3198 8.00004 16.3013V13.6987C8.00004 13.6803 7.99992 13.6606 7.9998 13.6398C7.99856 13.4317 7.99669 13.115 8.10544 12.8159C8.19786 12.5616 8.34594 12.3359 8.53284 12.1504C8.7455 11.9394 9.01803 11.8002 9.22201 11.696C9.24199 11.6858 9.26132 11.6759 9.27987 11.6663L11.8024 10.3648C11.8203 10.3555 11.8386 10.346 11.8574 10.3362C12.0666 10.2275 12.3287 10.0912 12.6214 10.0356Z" fill="#484848"/>
</svg>
