<svg width="21" height="20" viewBox="0 0 21 20" fill="none" xmlns="http://www.w3.org/2000/svg">
<path fill-rule="evenodd" clip-rule="evenodd" d="M17 7.94606V8C17 8.55229 16.5523 9 16 9C15.4477 9 15 8.55229 15 8C15 6.57473 14.9988 5.58104 14.9209 4.81505C14.8446 4.06578 14.7034 3.64604 14.4944 3.33329C14.2755 3.00572 13.9943 2.72447 13.6667 2.50559C13.354 2.29662 12.9342 2.15535 12.1849 2.07913C11.419 2.00121 10.4253 2 9 2H8.5C6.83176 2 5.66851 2.00164 4.78068 2.10658C3.91492 2.20892 3.4423 2.39744 3.09682 2.68097C2.94492 2.80563 2.80563 2.94492 2.68097 3.09682C2.39744 3.4423 2.20892 3.91492 2.10658 4.78068C2.00164 5.66851 2 6.83177 2 8.5L2 15C2 16.6569 3.34315 18 5 18C5.55229 18 6 18.4477 6 19C6 19.5523 5.55229 20 5 20C2.23858 20 1.78464e-07 17.7614 2.9917e-07 15L5.86068e-07 8.43653C-2.12789e-05 6.84668 -3.74392e-05 5.56488 0.12041 4.5459C0.245065 3.49133 0.510518 2.58891 1.13495 1.82803C1.34272 1.57486 1.57486 1.34272 1.82803 1.13495C2.58891 0.510518 3.49133 0.245063 4.5459 0.120409C5.56489 -3.77074e-05 6.8467 -2.0725e-05 8.43656 5.63748e-07L9.05394 5.90735e-07C10.4126 -1.47279e-05 11.5083 -2.71946e-05 12.3874 0.0894009C13.2948 0.18171 14.0817 0.377505 14.7779 0.842653C15.3238 1.20745 15.7926 1.6762 16.1573 2.22215C16.6225 2.91829 16.8183 3.70523 16.9106 4.61264C17 5.49174 17 6.58739 17 7.94606Z" fill="#484848"/>
<path fill-rule="evenodd" clip-rule="evenodd" d="M13 5C13 5.55229 12.5523 6 12 6H5C4.44772 6 4 5.55229 4 5C4 4.44772 4.44772 4 5 4H12C12.5523 4 13 4.44772 13 5Z" fill="#484848"/>
<path fill-rule="evenodd" clip-rule="evenodd" d="M10 9C10 9.55229 9.55229 10 9 10H5C4.44772 10 4 9.55229 4 9C4 8.44772 4.44772 8 5 8H9C9.55229 8 10 8.44772 10 9Z" fill="#484848"/>
<path fill-rule="evenodd" clip-rule="evenodd" d="M8.17717 15C8.33358 15.2059 8.56351 15.4645 8.88324 15.7261C9.6242 16.3323 10.9013 17 13 17C15.0987 17 16.3758 16.3323 17.1168 15.7261C17.4365 15.4645 17.6664 15.2059 17.8228 15C17.6664 14.7942 17.4365 14.5356 17.1168 14.274C16.3758 13.6677 15.0987 13 13 13C10.9013 13 9.62421 13.6677 8.88324 14.274C8.56352 14.5356 8.33358 14.7942 8.17717 15ZM19 15C19.9138 14.5939 19.9136 14.5933 19.9133 14.5927L19.9127 14.5914L19.9115 14.5887L19.9086 14.5824L19.9012 14.5664C19.8956 14.5543 19.8884 14.5394 19.8796 14.5218C19.8622 14.4866 19.8384 14.4406 19.8078 14.3855C19.7465 14.2753 19.6576 14.1278 19.5366 13.9558C19.2946 13.612 18.9221 13.1669 18.3832 12.7261C17.2909 11.8323 15.568 11 13 11C10.432 11 8.70913 11.8323 7.61676 12.7261C7.07794 13.1669 6.70538 13.612 6.46344 13.9558C6.34238 14.1278 6.25346 14.2753 6.19225 14.3855C6.16162 14.4406 6.13784 14.4866 6.12036 14.5218C6.11162 14.5394 6.10445 14.5543 6.09878 14.5664L6.09139 14.5824L6.08852 14.5887L6.08729 14.5914L6.08672 14.5927C6.08645 14.5933 6.08619 14.5939 7 15L6.08619 14.5939L5.90568 15L6.08619 15.4062L7 15C6.08619 15.4062 6.08646 15.4068 6.08672 15.4074L6.08729 15.4086L6.08852 15.4114L6.09139 15.4177L6.09878 15.4337C6.10446 15.4457 6.11163 15.4607 6.12037 15.4783C6.13784 15.5135 6.16162 15.5594 6.19225 15.6146C6.25347 15.7248 6.34238 15.8722 6.46345 16.0443C6.70539 16.3881 7.07795 16.8331 7.61677 17.274C8.70914 18.1677 10.432 19 13 19C15.568 19 17.2909 18.1677 18.3832 17.274C18.9221 16.8331 19.2946 16.3881 19.5366 16.0443C19.6576 15.8722 19.7465 15.7248 19.8078 15.6146C19.8384 15.5594 19.8622 15.5135 19.8796 15.4783C19.8884 15.4607 19.8955 15.4457 19.9012 15.4337L19.9086 15.4177L19.9115 15.4114L19.9127 15.4086L19.9133 15.4074C19.9135 15.4068 19.9138 15.4062 19 15ZM19 15L19.9138 15.4062L20.0943 15L19.9138 14.5939L19 15Z" fill="#484848"/>
<path d="M15 15C15 16.1045 14.1046 17 13 17C11.8954 17 11 16.1045 11 15C11 13.8954 11.8954 13 13 13C14.1046 13 15 13.8954 15 15Z" fill="#484848"/>
</svg>
