<svg width="20" height="20" viewBox="0 0 20 20" fill="none" xmlns="http://www.w3.org/2000/svg">
<path fill-rule="evenodd" clip-rule="evenodd" d="M11.7816 3.59261C12.1721 3.20208 12.8053 3.20208 13.1958 3.59261L16.4159 6.81269C16.8064 7.20321 16.8064 7.83638 16.4159 8.2269C16.0253 8.61743 15.3922 8.61743 15.0017 8.2269L11.7816 5.00682C11.391 4.6163 11.391 3.98313 11.7816 3.59261Z" fill="#484848"/>
<path fill-rule="evenodd" clip-rule="evenodd" d="M14.0152 1.0523C15.3771 -0.310077 17.5852 -0.310075 18.9471 1.0523C20.3089 2.41467 20.3089 4.62352 18.9471 5.98589L6.82394 18.1133C6.68258 18.2547 6.50209 18.3505 6.30578 18.3882L1.95038 19.2262C1.62468 19.2888 1.28912 19.1858 1.05459 18.9512C0.820057 18.7166 0.717092 18.381 0.779721 18.0551L1.61724 13.6981C1.65499 13.5017 1.75073 13.3211 1.89209 13.1797L14.0152 1.0523ZM17.5331 2.46676C16.9521 1.88557 16.0102 1.88557 15.4292 2.46676L3.52298 14.3772L3.02209 16.983L5.62689 16.4818L17.5331 4.57143C18.1141 3.99024 18.1141 3.04795 17.5331 2.46676Z" fill="#484848"/>
</svg>
