<svg width="19" height="19" viewBox="0 0 19 19" fill="none" xmlns="http://www.w3.org/2000/svg">
<path fill-rule="evenodd" clip-rule="evenodd" d="M18.0374 1.03797C16.9556 -0.0442318 15.2016 -0.0442308 14.1198 1.03797L13.2 1.9581C12.5335 2.62478 12.2003 2.95812 12.2004 3.37228C12.2004 3.78644 12.5337 4.11972 13.2002 4.78628L14.2901 5.87615C14.9569 6.54292 15.2903 6.87631 15.7045 6.87627C16.1188 6.87624 16.4521 6.54279 17.1188 5.8759L18.0374 4.95695C19.1192 3.87476 19.1192 2.12017 18.0374 1.03797ZM12.8769 10.1193C13.5433 9.45261 13.8765 9.11927 13.8765 8.70511C13.8765 8.29095 13.5432 7.95767 12.8766 7.29111L11.7868 6.20124C11.12 5.53447 10.7866 5.20108 10.3723 5.20112C9.95807 5.20116 9.62474 5.5346 8.95809 6.20149L1.09336 14.069C0.858377 14.3041 0.740884 14.4216 0.668185 14.5677C0.595486 14.7139 0.572611 14.8785 0.526862 15.2077L0.1782 17.7167C0.0962035 18.3068 0.0552051 18.6018 0.227136 18.7773C0.399066 18.9528 0.694759 18.9177 1.28614 18.8476L3.84805 18.544C4.18916 18.5035 4.35971 18.4833 4.51128 18.4098C4.66284 18.3362 4.78426 18.2148 5.02711 17.9718L12.8769 10.1193Z" fill="#484848"/>
</svg>
