<svg width="20" height="16" viewBox="0 0 20 16" fill="none" xmlns="http://www.w3.org/2000/svg">
<path fill-rule="evenodd" clip-rule="evenodd" d="M8 14H13C14.4461 14 15.3801 13.9976 16.0837 13.926C16.7539 13.8578 16.9901 13.7438 17.1111 13.6629C17.3295 13.517 17.517 13.3295 17.6629 13.1111C17.7438 12.9901 17.8578 12.7539 17.926 12.0837C17.9976 11.3801 18 10.4461 18 9C18 7.55391 17.9976 6.61989 17.926 5.91626C17.8578 5.24605 17.7438 5.00991 17.6629 4.88886C17.517 4.67048 17.3295 4.48298 17.1111 4.33706C16.9901 4.25618 16.7539 4.14217 16.0837 4.074C15.3801 4.00242 14.4461 4 13 4H10.9428C10.9352 4 10.9273 4 10.9193 4.00001C10.8319 4.00006 10.7224 4.00013 10.6117 3.99412C9.70166 3.94473 8.83582 3.58609 8.15744 2.97755C8.07489 2.90351 7.99752 2.82604 7.93575 2.76419C7.93007 2.75851 7.92453 2.75295 7.91912 2.74755C7.74489 2.57332 7.70962 2.53901 7.67864 2.51122C7.33945 2.20696 6.90653 2.02763 6.45153 2.00294C6.40998 2.00068 6.36078 2 6.11438 2H5.65685C3.95317 2 3.59338 2.02644 3.36077 2.1049C2.76904 2.3045 2.3045 2.76904 2.1049 3.36077C2.02644 3.59338 2 3.95317 2 5.65685V8C2 9.94216 2.00425 11.1976 2.12861 12.1226C2.24524 12.9901 2.43354 13.262 2.58579 13.4142C2.73803 13.5665 3.00993 13.7548 3.87741 13.8714C4.80242 13.9958 6.05784 14 8 14ZM0.209809 2.72154C0 3.34356 0 4.11466 0 5.65685V8C0 11.7712 0 13.6569 1.17157 14.8284C2.34315 16 4.22876 16 8 16H13C15.8089 16 17.2134 16 18.2223 15.3259C18.659 15.034 19.034 14.659 19.3259 14.2223C20 13.2134 20 11.8089 20 9C20 6.19108 20 4.78661 19.3259 3.77772C19.034 3.34096 18.659 2.96596 18.2223 2.67412C17.2134 2 15.8089 2 13 2H10.9428C10.8304 2 10.7742 2 10.72 1.99706C10.265 1.97237 9.83212 1.79304 9.49293 1.48878C9.45257 1.45257 9.41284 1.41284 9.33338 1.33338C9.17441 1.17441 9.09487 1.09487 9.01413 1.02245C8.33575 0.41391 7.46991 0.0552666 6.55992 0.00587828C6.45161 0 6.3392 0 6.11438 0H5.65685C4.11466 0 3.34356 0 2.72154 0.209809C1.53808 0.609 0.609 1.53808 0.209809 2.72154Z" fill="#484848"/>
</svg>
