<svg width="20" height="12" viewBox="0 0 20 12" fill="none" xmlns="http://www.w3.org/2000/svg">
<path fill-rule="evenodd" clip-rule="evenodd" d="M0 2.66667C0 1.09543 1.38259 0 2.856 0H14.0507C14.8601 0 15.6548 0.321684 16.2095 0.919467L19.3028 4.2528C20.2324 5.25449 20.2324 6.7455 19.3028 7.7472L16.2095 11.0805C15.6548 11.6783 14.8601 12 14.0507 12H2.856C1.38259 12 0 10.9046 0 9.33333V2.66771L1 2.66667L2 2.66673V9.33333C2 9.60304 2.27933 10 2.856 10H14.0507C14.3429 10 14.593 9.88227 14.7435 9.72008L17.8368 6.38675C18.0544 6.15229 18.0544 5.84771 17.8368 5.61325L14.7435 2.27992C14.593 2.11772 14.3429 2 14.0507 2H2.856C2.27933 2 2 2.39702 2 2.66673L1 2.66667H0Z" fill="#484848"/>
</svg>
