<svg width="16" height="20" viewBox="0 0 16 20" fill="none" xmlns="http://www.w3.org/2000/svg">
<path fill-rule="evenodd" clip-rule="evenodd" d="M14 12V8C14 6.05784 13.9958 4.80242 13.8714 3.87741C13.7548 3.00993 13.5665 2.73803 13.4142 2.58579C13.262 2.43354 12.9901 2.24524 12.1226 2.12861C11.1976 2.00425 9.94216 2 8 2C6.05784 2 4.80242 2.00425 3.87741 2.12861C3.00993 2.24524 2.73803 2.43354 2.58579 2.58579C2.43354 2.73803 2.24524 3.00993 2.12861 3.87741C2.00425 4.80242 2 6.05784 2 8V12C2 13.9422 2.00425 15.1976 2.12861 16.1226C2.24524 16.9901 2.43354 17.262 2.58579 17.4142C2.73803 17.5665 3.00993 17.7548 3.87741 17.8714C4.80242 17.9958 6.05784 18 8 18C9.94216 18 11.1976 17.9958 12.1226 17.8714C12.9901 17.7548 13.262 17.5665 13.4142 17.4142C13.5665 17.262 13.7548 16.9901 13.8714 16.1226C13.9958 15.1976 14 13.9422 14 12ZM1.17157 1.17157C0 2.34315 0 4.22876 0 8V12C0 15.7712 0 17.6569 1.17157 18.8284C2.34315 20 4.22876 20 8 20C11.7712 20 13.6569 20 14.8284 18.8284C16 17.6569 16 15.7712 16 12V8C16 4.22876 16 2.34315 14.8284 1.17157C13.6569 0 11.7712 0 8 0C4.22876 0 2.34315 0 1.17157 1.17157Z" fill="#484848"/>
<path fill-rule="evenodd" clip-rule="evenodd" d="M12 14C12 14.5523 11.5523 15 11 15H5C4.44772 15 4 14.5523 4 14C4 13.4477 4.44772 13 5 13H11C11.5523 13 12 13.4477 12 14Z" fill="#484848"/>
<path fill-rule="evenodd" clip-rule="evenodd" d="M8 10C8 10.5523 7.55228 11 7 11H5C4.44771 11 4 10.5523 4 10C4 9.44771 4.44771 9 5 9H7C7.55228 9 8 9.44771 8 10Z" fill="#484848"/>
<path fill-rule="evenodd" clip-rule="evenodd" d="M9 3C9.55229 3 10 3.44772 10 4V5.5C10 5.67622 10.2006 6 10.6667 6H12C12.5523 6 13 6.44772 13 7C13 7.55228 12.5523 8 12 8H10.6667C9.29943 8 8 6.97378 8 5.5V4C8 3.44772 8.44771 3 9 3Z" fill="#484848"/>
</svg>
