<svg width="20" height="20" viewBox="0 0 20 20" fill="none" xmlns="http://www.w3.org/2000/svg">
<path fill-rule="evenodd" clip-rule="evenodd" d="M18 5C18 3.97483 17.9903 3.75432 17.9616 3.60982C17.8038 2.81644 17.1836 2.19624 16.3902 2.03843C16.2457 2.00969 16.0252 2 15 2H8C6.05784 2 4.80242 2.00425 3.87741 2.12861C3.00993 2.24524 2.73803 2.43354 2.58579 2.58579C2.43354 2.73803 2.24524 3.00993 2.12861 3.87741C2.00425 4.80242 2 6.05784 2 8V12C2 13.9422 2.00425 15.1976 2.12861 16.1226C2.24524 16.9901 2.43354 17.262 2.58579 17.4142C2.73803 17.5665 3.00993 17.7548 3.87741 17.8714C4.80242 17.9958 6.05784 18 8 18H12C13.9422 18 15.1976 17.9958 16.1226 17.8714C16.9901 17.7548 17.262 17.5665 17.4142 17.4142C17.5665 17.262 17.7548 16.9901 17.8714 16.1226C17.9958 15.1976 18 13.9422 18 12V5ZM20 5V12C20 15.7712 20 17.6569 18.8284 18.8284C17.6569 20 15.7712 20 12 20H8C4.22876 20 2.34315 20 1.17157 18.8284C0 17.6569 0 15.7712 0 12V8C0 4.22876 0 2.34315 1.17157 1.17157C2.34315 0 4.22876 0 8 0H15C15.9293 0 16.394 0 16.7804 0.0768589C18.3671 0.392486 19.6075 1.63288 19.9231 3.21964C20 3.60603 20 4.07069 20 5Z" fill="#484848"/>
<path fill-rule="evenodd" clip-rule="evenodd" d="M16 13C16 13.5523 15.5523 14 15 14H11C10.4477 14 10 13.5523 10 13C10 12.4477 10.4477 12 11 12H15C15.5523 12 16 12.4477 16 13Z" fill="#484848"/>
<path fill-rule="evenodd" clip-rule="evenodd" d="M16 7C16 7.55228 15.5523 8 15 8H11C10.4477 8 10 7.55228 10 7C10 6.44772 10.4477 6 11 6H15C15.5523 6 16 6.44772 16 7Z" fill="#484848"/>
<path fill-rule="evenodd" clip-rule="evenodd" d="M7.29289 5.29289C7.68342 4.90237 8.31658 4.90237 8.70711 5.29289C9.09763 5.68342 9.09763 6.31658 8.70711 6.70711L7.41421 8C7.40506 8.00915 7.39578 8.01845 7.38638 8.02786C7.24514 8.16928 7.07697 8.33766 6.9128 8.46291C6.71463 8.61412 6.41011 8.79289 6 8.79289C5.58989 8.79289 5.28537 8.61412 5.0872 8.46292C4.92303 8.33766 4.75487 8.16928 4.61362 8.02786C4.60422 8.01845 4.59494 8.00915 4.58579 8L4.29289 7.70711C3.90237 7.31658 3.90237 6.68342 4.29289 6.29289C4.68342 5.90237 5.31658 5.90237 5.70711 6.29289L6 6.58579L7.29289 5.29289ZM5.69653 6.87516L5.69785 6.87421L5.69653 6.87516ZM6.30216 6.87422L6.30347 6.87516L6.30216 6.87422Z" fill="#484848"/>
<path fill-rule="evenodd" clip-rule="evenodd" d="M7.29289 11.2929C7.68342 10.9024 8.31658 10.9024 8.70711 11.2929C9.09763 11.6834 9.09763 12.3166 8.70711 12.7071L7.41421 14C7.40506 14.0092 7.39578 14.0184 7.38638 14.0279C7.24514 14.1693 7.07697 14.3377 6.9128 14.4629C6.71463 14.6141 6.41011 14.7929 6 14.7929C5.58989 14.7929 5.28537 14.6141 5.0872 14.4629C4.92303 14.3377 4.75487 14.1693 4.61362 14.0279C4.60422 14.0184 4.59494 14.0092 4.58579 14L4.29289 13.7071C3.90237 13.3166 3.90237 12.6834 4.29289 12.2929C4.68342 11.9024 5.31658 11.9024 5.70711 12.2929L6 12.5858L7.29289 11.2929ZM5.69653 12.8752L5.69785 12.8742L5.69653 12.8752ZM6.30216 12.8742L6.30347 12.8752L6.30216 12.8742Z" fill="#484848"/>
</svg>
