<svg width="20" height="20" viewBox="0 0 20 20" fill="none" xmlns="http://www.w3.org/2000/svg">
<path fill-rule="evenodd" clip-rule="evenodd" d="M5.46356 0.740439C6.26315 -0.246815 7.73685 -0.246812 8.53644 0.74044L9.73162 2.21612L11.0077 1.46584C12.341 0.681914 14 1.67249 14 3.25254V18.9711C14 19.5393 13.5523 20 13 20H5C2.23858 20 0 17.6967 0 14.8554V3.25254C0 1.67249 1.65896 0.681914 2.99228 1.46584L4.26838 2.21612L5.46356 0.740439ZM7 2.05783L5.80482 3.53351C5.18398 4.30007 4.11811 4.49788 3.2761 4.00282L2 3.25254V14.8554C2 16.5602 3.34315 17.9422 5 17.9422H12V3.25253L10.7239 4.00282C9.88189 4.49788 8.81602 4.30007 8.19518 3.53351L7 2.05783Z" fill="#484848"/>
<path fill-rule="evenodd" clip-rule="evenodd" d="M12 10.7398C12 10.1715 12.4477 9.71085 13 9.71085H17C18.6569 9.71085 20 11.0928 20 12.7976V14.8554C20 17.6967 17.7614 20 15 20H13C12.4477 20 12 19.5393 12 18.9711V10.7398ZM14 11.7687V17.9422H15C16.6569 17.9422 18 16.5602 18 14.8554V12.7976C18 12.2293 17.5523 11.7687 17 11.7687H14Z" fill="#484848"/>
<path fill-rule="evenodd" clip-rule="evenodd" d="M10 8.68193C10 9.25019 9.55229 9.71085 9 9.71085H5C4.44772 9.71085 4 9.25019 4 8.68193C4 8.11368 4.44772 7.65302 5 7.65302H9C9.55229 7.65302 10 8.11368 10 8.68193Z" fill="#484848"/>
<path fill-rule="evenodd" clip-rule="evenodd" d="M10 12.7976C10 13.3658 9.55229 13.8265 9 13.8265H5C4.44772 13.8265 4 13.3658 4 12.7976C4 12.2293 4.44772 11.7687 5 11.7687H9C9.55229 11.7687 10 12.2293 10 12.7976Z" fill="#484848"/>
</svg>
