<svg width="20" height="20" viewBox="0 0 20 20" fill="none" xmlns="http://www.w3.org/2000/svg">
<path fill-rule="evenodd" clip-rule="evenodd" d="M12 10.7504C12 10.1698 12.4477 9.69913 13 9.69913H17C18.6569 9.69913 20 11.1111 20 12.8528V14.7439C20 17.6467 17.7614 20 15 20H13C12.4477 20 12 19.5293 12 18.9488V10.7504ZM14 11.8016V17.8975H15C16.6569 17.8975 18 16.4856 18 14.7439V12.8528C18 12.2722 17.5523 11.8016 17 11.8016H14Z" fill="#484848"/>
<path fill-rule="evenodd" clip-rule="evenodd" d="M4.60556 2.28181L6.25581 0.349045C6.65317 -0.116348 7.34683 -0.116348 7.74419 0.349045L9.39444 2.28181C9.70127 2.64116 10.2015 2.73456 10.6073 2.50825L12.5313 1.4352C13.1974 1.06375 14 1.57124 14 2.36382V19.9733H4C1.79086 19.9733 0 18.0907 0 15.7685V2.36382C0 1.57124 0.802632 1.06375 1.46866 1.4352L3.3927 2.50825C3.79847 2.73456 4.29873 2.64116 4.60556 2.28181ZM5 13.8512C4.44772 13.8512 4 13.3805 4 12.8C4 12.2194 4.44772 11.7488 5 11.7488H9C9.55228 11.7488 10 12.2194 10 12.8C10 13.3805 9.55228 13.8512 9 13.8512H5ZM5 9.75202C4.44772 9.75202 4 9.28137 4 8.7008C4 8.12022 4.44772 7.64958 5 7.64958H9C9.55228 7.64958 10 8.12022 10 8.7008C10 9.28137 9.55228 9.75202 9 9.75202H5Z" fill="#484848"/>
</svg>
