<svg width="20" height="20" viewBox="0 0 20 20" fill="none" xmlns="http://www.w3.org/2000/svg">
<path fill-rule="evenodd" clip-rule="evenodd" d="M12 9.24964C12 9.83022 12.4477 10.3009 13 10.3009H17C18.6569 10.3009 20 8.88892 20 7.14719V5.25614C20 2.35326 17.7614 0 15 0H13C12.4477 0 12 0.470651 12 1.05123V9.24964ZM14 8.19842V2.10246H15C16.6569 2.10246 18 3.51441 18 5.25614V7.14719C18 7.72777 17.5523 8.19842 17 8.19842H14Z" fill="#484848"/>
<path fill-rule="evenodd" clip-rule="evenodd" d="M4.60556 17.7182L6.25581 19.651C6.65317 20.1163 7.34683 20.1163 7.74419 19.651L9.39444 17.7182C9.70127 17.3588 10.2015 17.2654 10.6073 17.4917L12.5313 18.5648C13.1974 18.9363 14 18.4288 14 17.6362V0.0266683H4C1.79086 0.0266683 0 1.90926 0 4.23155V17.6362C0 18.4288 0.802633 18.9363 1.46866 18.5648L3.3927 17.4917C3.79847 17.2654 4.29873 17.3588 4.60556 17.7182ZM5 6.14881C4.44772 6.14881 4 6.61945 4 7.20003C4 7.7806 4.44772 8.25125 5 8.25125H9C9.55228 8.25125 10 7.7806 10 7.20003C10 6.61945 9.55228 6.14881 9 6.14881H5ZM5 10.248C4.44772 10.248 4 10.7186 4 11.2992C4 11.8798 4.44772 12.3504 5 12.3504H9C9.55228 12.3504 10 11.8798 10 11.2992C10 10.7186 9.55228 10.248 9 10.248H5Z" fill="#484848"/>
</svg>
