<svg width="16" height="20" viewBox="0 0 16 20" fill="none" xmlns="http://www.w3.org/2000/svg">
<path fill-rule="evenodd" clip-rule="evenodd" d="M6.58579 19.4018C7.36683 20.1994 8.63316 20.1994 9.41421 19.4018L11.1975 17.5809L13.1056 18.5551C14.4354 19.2341 16 18.2466 16 16.7284V5.10574C16 2.28592 13.7614 0 11 0H5C2.23858 0 0 2.28592 0 5.10574V16.7284C0 18.2466 1.56462 19.2341 2.89443 18.5551L4.80255 17.5809L6.58579 19.4018ZM8 17.9577L6.21676 16.1367L5.50965 16.8588M8 17.9577L9.78324 16.1367L8 17.9577ZM14 16.7284L12.0919 15.7542C11.3219 15.3611 10.392 15.5152 9.78324 16.1367M3.90812 15.7542L2 16.7284V5.10574C2 3.41385 3.34315 2.0423 5 2.0423H11C12.6569 2.0423 14 3.41385 14 5.10574V16.7284M3.90812 15.7542C4.6781 15.3611 5.60804 15.5152 6.21676 16.1367L3.90812 15.7542Z" fill="#484848"/>
<path fill-rule="evenodd" clip-rule="evenodd" d="M7.29289 18.7002L5.50965 16.875C5.20529 16.5634 4.74032 16.4862 4.35533 16.6832L2.44721 17.6598C1.78231 18 1 17.5052 1 16.7443V5.09422C1 2.83304 2.79086 1 5 1H11C13.2091 1 15 2.83304 15 5.09422V16.7443C15 17.5052 14.2177 18 13.5528 17.6598L11.6447 16.6832C11.2597 16.4862 10.7947 16.5634 10.4903 16.875L8.70711 18.7002C8.31658 19.0999 7.68342 19.0999 7.29289 18.7002ZM11 11C11 10.4477 10.5523 10 10 10H6C5.44772 10 5 10.4477 5 11C5 11.5523 5.44772 12 6 12H10C10.5523 12 11 11.5523 11 11ZM10 6C10.5523 6 11 6.44771 11 7C11 7.55229 10.5523 8 10 8H6C5.44772 8 5 7.55229 5 7C5 6.44771 5.44772 6 6 6H10Z" fill="#484848"/>
</svg>
