<svg width="16" height="20" viewBox="0 0 16 20" fill="none" xmlns="http://www.w3.org/2000/svg">
<path fill-rule="evenodd" clip-rule="evenodd" d="M6.58579 19.4018C7.36683 20.1994 8.63316 20.1994 9.41421 19.4018L11.1975 17.5809L13.1056 18.5551C14.4354 19.2341 16 18.2466 16 16.7284V5.10574C16 2.28592 13.7614 0 11 0H5C2.23858 0 0 2.28592 0 5.10574V16.7284C0 18.2466 1.56462 19.2341 2.89443 18.5551L4.80255 17.5809L6.58579 19.4018ZM8 17.9577L6.21676 16.1368C5.60804 15.5152 4.6781 15.3611 3.90812 15.7542L2 16.7284V5.10574C2 3.41385 3.34315 2.0423 5 2.0423H11C12.6569 2.0423 14 3.41385 14 5.10574L14 16.7284L12.0919 15.7542C11.3219 15.3611 10.392 15.5152 9.78324 16.1368L8 17.9577Z" fill="#484848"/>
<path d="M7 7.14804C7 7.71201 6.55228 8.16919 6 8.16919C5.44772 8.16919 5 7.71201 5 7.14804C5 6.58408 5.44772 6.12689 6 6.12689C6.55228 6.12689 7 6.58408 7 7.14804Z" fill="#484848"/>
<path d="M11 11.2326C11 11.7966 10.5523 12.2538 10 12.2538C9.44771 12.2538 9 11.7966 9 11.2326C9 10.6687 9.44771 10.2115 10 10.2115C10.5523 10.2115 11 10.6687 11 11.2326Z" fill="#484848"/>
<path fill-rule="evenodd" clip-rule="evenodd" d="M5.289 11.9588C4.893 11.5702 4.89033 10.9301 5.28303 10.5291L9.28293 6.44452C9.67564 6.0435 10.315 6.03338 10.711 6.42193C11.107 6.81048 11.1097 7.45054 10.717 7.85156L6.71708 11.9362C6.32438 12.3372 5.685 12.3473 5.289 11.9588Z" fill="#484848"/>
</svg>
