<svg width="16" height="20" viewBox="0 0 16 20" fill="none" xmlns="http://www.w3.org/2000/svg">
<path fill-rule="evenodd" clip-rule="evenodd" d="M6.58579 19.4018C7.36683 20.1994 8.63316 20.1994 9.41421 19.4018L11.1975 17.5809L13.1056 18.5551C14.4354 19.2341 16 18.2466 16 16.7284V5.10574C16 2.28592 13.7614 0 11 0H5C2.23858 0 0 2.28592 0 5.10574V16.7284C0 18.2466 1.56462 19.2341 2.89443 18.5551L4.80255 17.5809L6.58579 19.4018ZM8 17.9577L6.21676 16.1367L5.50965 16.8588M8 17.9577L9.78324 16.1367L8 17.9577ZM14 16.7284L12.0919 15.7542C11.3219 15.3611 10.392 15.5152 9.78324 16.1367M3.90812 15.7542L2 16.7284V5.10574C2 3.41385 3.34315 2.0423 5 2.0423H11C12.6569 2.0423 14 3.41385 14 5.10574V16.7284M3.90812 15.7542C4.6781 15.3611 5.60804 15.5152 6.21676 16.1367L3.90812 15.7542Z" fill="#484848"/>
<path fill-rule="evenodd" clip-rule="evenodd" d="M5.50965 16.875L7.29289 18.7002C7.68342 19.0999 8.31658 19.0999 8.70711 18.7002L10.4903 16.875C10.7947 16.5634 11.2597 16.4862 11.6447 16.6832L13.5528 17.6598C14.2177 18 15 17.5052 15 16.7443V5.09422C15 2.83304 13.2091 1 11 1H5C2.79086 1 1 2.83304 1 5.09422V16.7443C1 17.5052 1.78231 18 2.44721 17.6598L4.35533 16.6832C4.74032 16.4862 5.20529 16.5634 5.50965 16.875ZM6 8C6.55228 8 7 7.55229 7 7C7 6.44771 6.55228 6 6 6C5.44772 6 5 6.44771 5 7C5 7.55229 5.44772 8 6 8ZM11 11C11 11.5523 10.5523 12 10 12C9.44771 12 9 11.5523 9 11C9 10.4477 9.44771 10 10 10C10.5523 10 11 10.4477 11 11ZM5.28302 10.311C4.89031 10.7037 4.89299 11.3306 5.28899 11.7111C5.68499 12.0915 6.32436 12.0816 6.71706 11.6889L10.717 7.68892C11.1097 7.29621 11.107 6.66939 10.711 6.2889C10.315 5.9084 9.67562 5.9183 9.28292 6.31102L5.28302 10.311Z" fill="#484848"/>
</svg>
