<svg width="16" height="20" viewBox="0 0 16 20" fill="none" xmlns="http://www.w3.org/2000/svg">
<path fill-rule="evenodd" clip-rule="evenodd" d="M6.58579 19.4018C7.36683 20.1994 8.63316 20.1994 9.41421 19.4018L11.1975 17.5809L13.1056 18.5551C14.4354 19.2341 16 18.2466 16 16.7284V5.10574C16 2.28592 13.7614 0 11 0H5C2.23858 0 0 2.28592 0 5.10574V16.7284C0 18.2466 1.56462 19.2341 2.89443 18.5551L4.80255 17.5809L6.58579 19.4018ZM8 17.9577L6.21676 16.1368C5.60804 15.5152 4.6781 15.3611 3.90812 15.7542L2 16.7284V5.10574C2 3.41385 3.34315 2.0423 5 2.0423H11C12.6569 2.0423 14 3.41385 14 5.10574L14 16.7284L12.0919 15.7542C11.3219 15.3611 10.392 15.5152 9.78324 16.1368L8 17.9577Z" fill="#484848"/>
<path fill-rule="evenodd" clip-rule="evenodd" d="M11 11.2326C11 10.6687 10.5523 10.2115 10 10.2115H6C5.44772 10.2115 5 10.6687 5 11.2326C5 11.7966 5.44772 12.2538 6 12.2538H10C10.5523 12.2538 11 11.7966 11 11.2326Z" fill="#484848"/>
<path fill-rule="evenodd" clip-rule="evenodd" d="M11 7.14804C11 6.58408 10.5523 6.12689 10 6.12689H6C5.44772 6.12689 5 6.58408 5 7.14804C5 7.71201 5.44772 8.16919 6 8.16919H10C10.5523 8.16919 11 7.71201 11 7.14804Z" fill="#484848"/>
</svg>
