<svg width="20" height="20" viewBox="0 0 20 20" fill="none" xmlns="http://www.w3.org/2000/svg">
<path fill-rule="evenodd" clip-rule="evenodd" d="M5.46356 19.2596C6.26315 20.2468 7.73685 20.2468 8.53644 19.2596L9.73162 17.7839L11.0077 18.5342C12.341 19.3181 14 18.3275 14 16.7475V1.02892C14 0.460661 13.5523 0 13 0H5C2.23858 0 0 2.30331 0 5.14458V16.7475C0 18.3275 1.65896 19.3181 2.99228 18.5342L4.26838 17.7839L5.46356 19.2596ZM7 17.9422L5.80482 16.4665C5.18398 15.6999 4.11811 15.5021 3.2761 15.9972L2 16.7475V5.14458C2 3.43981 3.34315 2.05783 5 2.05783H12V16.7475L10.7239 15.9972C9.88189 15.5021 8.81602 15.6999 8.19518 16.4665L7 17.9422Z" fill="#484848"/>
<path fill-rule="evenodd" clip-rule="evenodd" d="M12 9.26024C12 9.82849 12.4477 10.2892 13 10.2892H17C18.6569 10.2892 20 8.90717 20 7.20241V5.14458C20 2.3033 17.7614 0 15 0H13C12.4477 0 12 0.46066 12 1.02892V9.26024ZM14 8.23132V2.05783H15C16.6569 2.05783 18 3.43981 18 5.14458V7.20241C18 7.77066 17.5523 8.23132 17 8.23132H14Z" fill="#484848"/>
<path fill-rule="evenodd" clip-rule="evenodd" d="M10 11.3181C10 10.7498 9.55229 10.2892 9 10.2892H5C4.44772 10.2892 4 10.7498 4 11.3181C4 11.8863 4.44772 12.347 5 12.347H9C9.55229 12.347 10 11.8863 10 11.3181Z" fill="#484848"/>
<path fill-rule="evenodd" clip-rule="evenodd" d="M10 7.20241C10 6.63415 9.55229 6.17349 9 6.17349H5C4.44772 6.17349 4 6.63415 4 7.20241C4 7.77066 4.44772 8.23132 5 8.23132H9C9.55229 8.23132 10 7.77066 10 7.20241Z" fill="#484848"/>
</svg>
