<svg width="20" height="20" viewBox="0 0 20 20" fill="none" xmlns="http://www.w3.org/2000/svg">
<path fill-rule="evenodd" clip-rule="evenodd" d="M17.9904 9.49968C13.1598 8.95617 8.95617 13.1598 9.49968 17.9904C9.50146 18.0062 9.50329 18.022 9.50518 18.0378C9.57011 18.5842 9.69584 19.1383 9.8883 19.6944C9.91153 19.7615 9.93572 19.8286 9.9609 19.8957C9.97982 19.9462 9.94218 20 9.8883 20C9.82147 20 9.75479 19.9993 9.68826 19.998C9.10062 19.9861 8.52524 19.922 7.96651 19.8102C7.91727 19.8003 7.86817 19.7901 7.81919 19.7795C3.36161 18.8154 0 14.8067 0 10.0716C0 4.54879 4.54879 0 10.0716 0C14.8067 0 18.8154 3.36161 19.7795 7.81919C19.7901 7.86817 19.8003 7.91727 19.8102 7.96651C19.922 8.52524 19.9861 9.10062 19.998 9.68826C19.9993 9.75478 20 9.82147 20 9.8883C20 9.94218 19.9462 9.97982 19.8957 9.9609C19.8286 9.93572 19.7615 9.91153 19.6944 9.8883C19.1383 9.69584 18.5842 9.57011 18.0378 9.50518C18.022 9.50329 18.0062 9.50146 17.9904 9.49968ZM17.6111 7.45966C11.9749 7.17619 7.17619 11.9749 7.45966 17.6111C4.30414 16.5723 2 13.5719 2 10.0716C2 5.65336 5.65336 2 10.0716 2C13.5719 2 16.5723 4.30414 17.6111 7.45966Z" fill="#484848"/>
<path fill-rule="evenodd" clip-rule="evenodd" d="M19.7071 9.29289C20.0976 9.68342 20.0976 10.3166 19.7071 10.7071L10.7071 19.7071C10.3166 20.0976 9.68341 20.0976 9.29288 19.7071C8.90236 19.3166 8.90236 18.6834 9.29288 18.2929L18.2929 9.29289C18.6834 8.90237 19.3166 8.90237 19.7071 9.29289Z" fill="#484848"/>
</svg>
