<svg width="20" height="20" viewBox="0 0 20 20" fill="none" xmlns="http://www.w3.org/2000/svg">
<path fill-rule="evenodd" clip-rule="evenodd" d="M17.9439 7.33029C17.9465 7.32229 17.9682 7.24639 17.9824 7.00409C17.9992 6.71673 18 6.33615 18 5.71429C18 3.95096 17.9717 3.57933 17.8878 3.33944C17.6867 2.76495 17.2351 2.31326 16.6606 2.11223C16.4207 2.02829 16.049 2 14.2857 2H8C6.05784 2 4.80242 2.00425 3.87741 2.12861C3.00993 2.24524 2.73803 2.43354 2.58579 2.58579C2.43354 2.73803 2.24524 3.00993 2.12861 3.87741C2.00425 4.80242 2 6.05784 2 8V14.2857C2 16.049 2.02829 16.4207 2.11223 16.6606C2.31326 17.2351 2.76495 17.6867 3.33944 17.8878C3.57933 17.9717 3.95096 18 5.71429 18C6.33615 18 6.71673 17.9992 7.00409 17.9824C7.27681 17.9664 7.33873 17.9409 7.33028 17.9439C7.61753 17.8434 7.84337 17.6175 7.94388 17.3303C7.94647 17.3223 7.96819 17.2464 7.98238 17.0041C7.9992 16.7167 8 16.3361 8 15.7143C8 15.6175 7.99987 15.5216 7.99974 15.4267C7.99797 14.1206 7.99644 12.9907 8.3367 12.0183C8.93977 10.2948 10.2948 8.93977 12.0183 8.3367C12.9907 7.99644 14.1206 7.99797 15.4267 7.99974C15.5216 7.99987 15.6175 8 15.7143 8C16.3361 8 16.7167 7.9992 17.0041 7.98238C17.2768 7.96641 17.3387 7.94093 17.3303 7.94388C17.6175 7.84337 17.8434 7.61753 17.9439 7.33029ZM1.17157 1.17157C0 2.34315 0 4.22876 0 8V14.2857C0 15.8817 0 16.6796 0.224467 17.3211C0.626515 18.4701 1.5299 19.3735 2.67888 19.7755C3.32037 20 4.11834 20 5.71429 20C6.91124 20 7.50972 20 7.99084 19.8316C8.85258 19.5301 9.53011 18.8526 9.83165 17.9908C10 17.5097 10 16.9112 10 15.7143C10 14.1183 10 13.3204 10.2245 12.6789C10.6265 11.5299 11.5299 10.6265 12.6789 10.2245C13.3204 10 14.1183 10 15.7143 10C16.9112 10 17.5097 10 17.9908 9.83165C18.8526 9.53011 19.5301 8.85258 19.8316 7.99084C20 7.50972 20 6.91124 20 5.71429C20 4.11834 20 3.32037 19.7755 2.67888C19.3735 1.5299 18.4701 0.626515 17.3211 0.224467C16.6796 0 15.8817 0 14.2857 0H8C4.22876 0 2.34315 0 1.17157 1.17157Z" fill="#484848"/>
<path fill-rule="evenodd" clip-rule="evenodd" d="M18 7.37906V6H20V7.37906C20 9.94582 19.1675 12.4433 17.6274 14.4967C17.0274 15.2967 16.3287 16.0177 15.5478 16.6424L15.296 16.8438C12.7421 18.8869 9.56898 20 6.29844 20H6V18H6.29844C9.11483 18 11.8474 17.0415 14.0466 15.2821L14.2984 15.0806C14.9477 14.5613 15.5286 13.9619 16.0274 13.2967C17.3078 11.5895 18 9.51308 18 7.37906Z" fill="#484848"/>
</svg>
