<svg width="20" height="20" viewBox="0 0 20 20" fill="none" xmlns="http://www.w3.org/2000/svg">
<path d="M7.21605 5.72553C7.57592 5.04308 8.5481 5.02862 8.9281 5.70007L10.7363 8.89514C10.8235 9.04914 10.9509 9.17653 11.1049 9.26369L14.2999 11.0719C14.9714 11.4519 14.9569 12.4241 14.2745 12.7839L11.2845 14.3606C11.1106 14.4523 10.9684 14.5945 10.8766 14.7685L9.29998 17.7584C8.94012 18.4409 7.96793 18.4553 7.58793 17.7839L5.77972 14.5888C5.69257 14.4348 5.56517 14.3074 5.41117 14.2203L2.2161 12.4121C1.54466 12.0321 1.55911 11.0599 2.24156 10.7L5.23149 9.12338C5.40548 9.03163 5.54767 8.88944 5.63941 8.71546L7.21605 5.72553Z" fill="#484848"/>
<path d="M14.1492 9.88617L11.175 8.82608L9.57699 4.48286C9.48236 4.22582 9.31115 4.00399 9.08646 3.8473C8.86177 3.6906 8.59442 3.60659 8.32047 3.60659C8.04653 3.60659 7.77917 3.6906 7.55448 3.8473C7.3298 4.00399 7.15859 4.22582 7.06396 4.48286L5.4643 8.82104L1.12032 10.4187C0.86324 10.5134 0.641371 10.6845 0.484651 10.9092C0.327931 11.1338 0.243902 11.4011 0.243902 11.675C0.243902 11.9489 0.327931 12.2162 0.484651 12.4409C0.641371 12.6655 0.86324 12.8367 1.12032 12.9313L5.45841 14.5391L7.05639 18.8798C7.15102 19.1369 7.32223 19.3587 7.54691 19.5154C7.7716 19.6721 8.03896 19.7561 8.3129 19.7561C8.58685 19.7561 8.8542 19.6721 9.07889 19.5154C9.30357 19.3587 9.47478 19.1369 9.56942 18.8798L11.1674 14.54L15.5114 12.9423C15.7684 12.8477 15.9903 12.6765 16.147 12.4518C16.3038 12.2272 16.3878 11.9599 16.3878 11.686C16.3878 11.4121 16.3038 11.1448 16.147 10.9201C15.9903 10.6955 15.7684 10.5243 15.5114 10.4297L14.1492 9.88617ZM10.7057 13.2778C10.5238 13.3445 10.3587 13.45 10.2218 13.5869C10.0848 13.7239 9.9793 13.889 9.91256 14.0707L8.31458 18.398L6.71997 14.0674C6.65318 13.8866 6.54801 13.7223 6.41168 13.586C6.27534 13.4497 6.1111 13.3446 5.93023 13.2778L1.60224 11.6801L5.93023 10.0824C6.1111 10.0156 6.27534 9.91045 6.41168 9.77414C6.54801 9.63783 6.65318 9.47361 6.71997 9.29278L8.31795 4.96553L9.91592 9.29278C9.98266 9.47457 10.0882 9.63967 10.2251 9.7766C10.3621 9.91353 10.5272 10.019 10.709 10.0857L15.037 11.6834L10.7057 13.2778ZM11.0093 2.93477C11.0093 2.75635 11.0802 2.58524 11.2063 2.45909C11.3325 2.33293 11.5037 2.26205 11.6821 2.26205H13.0278V0.916619C13.0278 0.738203 13.0987 0.567095 13.2248 0.440937C13.351 0.314778 13.5222 0.243902 13.7006 0.243902C13.8791 0.243902 14.0502 0.314778 14.1764 0.440937C14.3026 0.567095 14.3734 0.738203 14.3734 0.916619V2.26205H15.7191C15.8975 2.26205 16.0687 2.33293 16.1949 2.45909C16.321 2.58524 16.3919 2.75635 16.3919 2.93477C16.3919 3.11318 16.321 3.28429 16.1949 3.41045C16.0687 3.53661 15.8975 3.60748 15.7191 3.60748H14.3734V4.95292C14.3734 5.13133 14.3026 5.30244 14.1764 5.4286C14.0502 5.55476 13.8791 5.62563 13.7006 5.62563C13.5222 5.62563 13.351 5.55476 13.2248 5.4286C13.0987 5.30244 13.0278 5.13133 13.0278 4.95292V3.60748H11.6821C11.5037 3.60748 11.3325 3.53661 11.2063 3.41045C11.0802 3.28429 11.0093 3.11318 11.0093 2.93477ZM19.7561 6.97107C19.7561 7.14948 19.6852 7.32059 19.559 7.44675C19.4328 7.57291 19.2617 7.64378 19.0833 7.64378H18.4104V8.3165C18.4104 8.49492 18.3395 8.66602 18.2134 8.79218C18.0872 8.91834 17.916 8.98922 17.7376 8.98922C17.5592 8.98922 17.388 8.91834 17.2618 8.79218C17.1357 8.66602 17.0648 8.49492 17.0648 8.3165V7.64378H16.3919C16.2135 7.64378 16.0424 7.57291 15.9162 7.44675C15.79 7.32059 15.7191 7.14948 15.7191 6.97107C15.7191 6.79265 15.79 6.62154 15.9162 6.49538C16.0424 6.36923 16.2135 6.29835 16.3919 6.29835H17.0648V5.62563C17.0648 5.44722 17.1357 5.27611 17.2618 5.14995C17.388 5.02379 17.5592 4.95292 17.7376 4.95292C17.916 4.95292 18.0872 5.02379 18.2134 5.14995C18.3395 5.27611 18.4104 5.44722 18.4104 5.62563V6.29835H19.0833C19.2617 6.29835 19.4328 6.36923 19.559 6.49538C19.6852 6.62154 19.7561 6.79265 19.7561 6.97107Z" fill="#484848"/>
<path fill-rule="evenodd" clip-rule="evenodd" d="M14.2395 9.65963L15.5988 10.202C15.9014 10.3141 16.1625 10.5159 16.3471 10.7806C16.5323 11.0461 16.6317 11.3622 16.6317 11.686C16.6317 12.0098 16.5323 12.3258 16.3471 12.5914C16.1618 12.857 15.8995 13.0593 15.5956 13.1712L11.3573 14.73L9.7983 18.9641C9.68643 19.268 9.48402 19.5302 9.2184 19.7155C8.95279 19.9007 8.63674 20 8.3129 20C7.98906 20 7.67301 19.9007 7.4074 19.7155C7.14178 19.5302 6.93938 19.268 6.8275 18.9641L7.05639 18.8798C7.15102 19.1369 7.32223 19.3587 7.54691 19.5154C7.7716 19.6721 8.03896 19.7561 8.3129 19.7561C8.58685 19.7561 8.8542 19.6721 9.07889 19.5154C9.30357 19.3587 9.47478 19.1369 9.56942 18.8798L11.1674 14.54L15.5114 12.9423C15.7684 12.8477 15.9903 12.6765 16.147 12.4518C16.3038 12.2272 16.3878 11.9599 16.3878 11.686C16.3878 11.4121 16.3038 11.1448 16.147 10.9201C15.9903 10.6955 15.7684 10.5243 15.5114 10.4297L14.1492 9.88617L11.175 8.82608L9.57699 4.48286C9.48236 4.22582 9.31115 4.00399 9.08646 3.8473C8.86177 3.6906 8.59442 3.60659 8.32047 3.60659C8.04653 3.60659 7.77917 3.6906 7.55448 3.8473C7.3298 4.00399 7.15859 4.22582 7.06396 4.48286L5.4643 8.82104L1.12032 10.4187C0.86324 10.5134 0.641371 10.6845 0.484651 10.9092C0.327931 11.1338 0.243902 11.4011 0.243902 11.675C0.243902 11.9489 0.327931 12.2162 0.484651 12.4409C0.641371 12.6655 0.86324 12.8367 1.12032 12.9313L5.45841 14.5391L7.05639 18.8798L6.8275 18.9641L5.26833 14.7288L1.03608 13.1602C1.03599 13.1602 1.03618 13.1603 1.03608 13.1602C0.732296 13.0484 0.469831 12.8459 0.284615 12.5804C0.0993415 12.3149 0 11.9988 0 11.675C0 11.3512 0.0993415 11.0352 0.284615 10.7696C0.469889 10.5041 0.732176 10.3017 1.03608 10.1898L5.27442 8.631L6.83507 4.39859C6.94695 4.09472 7.14935 3.83247 7.41497 3.64724C7.68058 3.462 7.99663 3.36269 8.32047 3.36269C8.64431 3.36269 8.96036 3.462 9.22597 3.64724C9.49159 3.83247 9.694 4.09472 9.80587 4.39859L11.3644 8.63468L14.2395 9.65963ZM6.71997 14.0674L8.31458 18.398L9.91256 14.0707C9.9793 13.889 10.0848 13.7239 10.2218 13.5869C10.3587 13.45 10.5238 13.3445 10.7057 13.2778L15.037 11.6834L10.709 10.0857C10.5272 10.019 10.3621 9.91353 10.2251 9.7766C10.0882 9.63967 9.98266 9.47457 9.91592 9.29278L8.31795 4.96553L6.71997 9.29278C6.65318 9.47361 6.54801 9.63783 6.41168 9.77414C6.27534 9.91045 6.1111 10.0156 5.93023 10.0824L1.60224 11.6801L5.93023 13.2778C6.1111 13.3446 6.27534 13.4497 6.41168 13.586C6.54801 13.7223 6.65318 13.8866 6.71997 14.0674ZM2.30652 11.6801L6.0147 10.3112C6.22861 10.2322 6.42288 10.1078 6.58413 9.94662C6.74537 9.7854 6.86977 9.59117 6.94877 9.37728L8.31795 5.6696L9.68696 9.37683C9.68692 9.37673 9.687 9.37693 9.68696 9.37683C9.7659 9.59173 9.89076 9.7872 10.0527 9.94908C10.2146 10.111 10.4098 10.2357 10.6247 10.3146C10.6246 10.3146 10.6248 10.3146 10.6247 10.3146L14.3318 11.6831L10.6216 13.0488C10.6216 13.0488 10.6217 13.0488 10.6216 13.0488C10.4066 13.1277 10.2113 13.2525 10.0493 13.4144C9.8874 13.5763 9.76265 13.7715 9.68371 13.9864C9.68367 13.9865 9.68375 13.9863 9.68371 13.9864L8.31491 17.693L6.94885 13.9831C6.86985 13.7692 6.74537 13.5748 6.58413 13.4135C6.42288 13.2523 6.22862 13.128 6.01471 13.049L2.30652 11.6801ZM10.7654 2.93477C10.7654 2.69165 10.862 2.4585 11.0339 2.28661C11.2058 2.11471 11.439 2.01815 11.6821 2.01815H12.7839V0.916619C12.7839 0.673504 12.8805 0.440353 13.0524 0.268457C13.2243 0.0965615 13.4575 0 13.7006 0C13.9437 0 14.1769 0.0965618 14.3488 0.268457C14.5207 0.440353 14.6173 0.673503 14.6173 0.916619V2.01815H15.7191C15.9622 2.01815 16.1954 2.11471 16.3673 2.28661C16.5392 2.4585 16.6358 2.69165 16.6358 2.93477C16.6358 3.17789 16.5392 3.41103 16.3673 3.58293C16.1954 3.75482 15.9622 3.85139 15.7191 3.85139H14.6173V4.95292C14.6173 5.19603 14.5207 5.42918 14.3488 5.60108C14.1769 5.77297 13.9437 5.86954 13.7006 5.86954C13.4575 5.86954 13.2243 5.77297 13.0524 5.60108C12.8805 5.42918 12.7839 5.19603 12.7839 4.95292V3.85139H11.6821C11.439 3.85139 11.2058 3.75482 11.0339 3.58293C10.862 3.41103 10.7654 3.17788 10.7654 2.93477ZM13.0278 3.60748V4.95292C13.0278 5.13133 13.0987 5.30244 13.2248 5.4286C13.351 5.55476 13.5222 5.62563 13.7006 5.62563C13.8791 5.62563 14.0502 5.55476 14.1764 5.4286C14.3026 5.30244 14.3734 5.13133 14.3734 4.95292V3.60748H15.7191C15.8975 3.60748 16.0687 3.53661 16.1949 3.41045C16.321 3.28429 16.3919 3.11318 16.3919 2.93477C16.3919 2.75635 16.321 2.58524 16.1949 2.45909C16.0687 2.33293 15.8975 2.26205 15.7191 2.26205H14.3734V0.916619C14.3734 0.738203 14.3026 0.567095 14.1764 0.440937C14.0502 0.314778 13.8791 0.243902 13.7006 0.243902C13.5222 0.243902 13.351 0.314778 13.2248 0.440937C13.0987 0.567095 13.0278 0.738203 13.0278 0.916619V2.26205H11.6821C11.5037 2.26205 11.3325 2.33293 11.2063 2.45909C11.0802 2.58524 11.0093 2.75635 11.0093 2.93477C11.0093 3.11318 11.0802 3.28429 11.2063 3.41045C11.3325 3.53661 11.5037 3.60748 11.6821 3.60748H13.0278ZM20 6.97107C20 7.21418 19.9034 7.44733 19.7315 7.61923C19.5596 7.79112 19.3264 7.88769 19.0833 7.88769H18.6543V8.3165C18.6543 8.55962 18.5577 8.79276 18.3858 8.96466C18.2139 9.13656 17.9807 9.23312 17.7376 9.23312C17.4945 9.23312 17.2613 9.13656 17.0894 8.96466C16.9175 8.79277 16.8209 8.55962 16.8209 8.3165V7.88769H16.3919C16.1488 7.88769 15.9156 7.79112 15.7437 7.61923C15.5718 7.44733 15.4752 7.21418 15.4752 6.97107C15.4752 6.72795 15.5718 6.4948 15.7437 6.3229C15.9156 6.15101 16.1488 6.05445 16.3919 6.05445H16.8209V5.62563C16.8209 5.38252 16.9175 5.14937 17.0894 4.97747C17.2613 4.80558 17.4945 4.70901 17.7376 4.70901C17.9807 4.70901 18.2139 4.80558 18.3858 4.97747C18.5577 5.14937 18.6543 5.38252 18.6543 5.62563V6.05445H19.0833C19.3264 6.05445 19.5596 6.15101 19.7315 6.3229C19.9034 6.4948 20 6.72795 20 6.97107ZM19.0833 6.29835C19.2617 6.29835 19.4328 6.36923 19.559 6.49538C19.6852 6.62154 19.7561 6.79265 19.7561 6.97107C19.7561 7.14948 19.6852 7.32059 19.559 7.44675C19.4328 7.57291 19.2617 7.64378 19.0833 7.64378H18.4104V8.3165C18.4104 8.49492 18.3395 8.66602 18.2134 8.79218C18.0872 8.91834 17.916 8.98922 17.7376 8.98922C17.5592 8.98922 17.388 8.91834 17.2618 8.79218C17.1357 8.66602 17.0648 8.49492 17.0648 8.3165V7.64378H16.3919C16.2135 7.64378 16.0424 7.57291 15.9162 7.44675C15.79 7.32059 15.7191 7.14948 15.7191 6.97107C15.7191 6.79265 15.79 6.62154 15.9162 6.49538C16.0424 6.36923 16.2135 6.29835 16.3919 6.29835H17.0648V5.62563C17.0648 5.44722 17.1357 5.27611 17.2618 5.14995C17.388 5.02379 17.5592 4.95292 17.7376 4.95292C17.916 4.95292 18.0872 5.02379 18.2134 5.14995C18.3395 5.27611 18.4104 5.44722 18.4104 5.62563V6.29835H19.0833Z" fill="#484848"/>
</svg>
