<svg width="64" height="108" viewBox="0 0 64 108" fill="none" xmlns="http://www.w3.org/2000/svg">
<rect x="0.5" y="0.5" width="63" height="107" rx="4.5" stroke="#9747FF" stroke-dasharray="10 5"/>
<path d="M36.1492 31.8862L33.175 30.8261L31.577 26.4829C31.4824 26.2258 31.3111 26.004 31.0865 25.8473C30.8618 25.6906 30.5944 25.6066 30.3205 25.6066C30.0465 25.6066 29.7792 25.6906 29.5545 25.8473C29.3298 26.004 29.1586 26.2258 29.064 26.4829L27.4643 30.821L23.1203 32.4187C22.8632 32.5134 22.6414 32.6845 22.4847 32.9092C22.3279 33.1338 22.2439 33.4011 22.2439 33.675C22.2439 33.9489 22.3279 34.2162 22.4847 34.4409C22.6414 34.6655 22.8632 34.8367 23.1203 34.9313L27.4584 36.5391L29.0564 40.8798C29.151 41.1369 29.3222 41.3587 29.5469 41.5154C29.7716 41.6721 30.039 41.7561 30.3129 41.7561C30.5868 41.7561 30.8542 41.6721 31.0789 41.5154C31.3036 41.3587 31.4748 41.1369 31.5694 40.8798L33.1674 36.54L37.5114 34.9423C37.7684 34.8477 37.9903 34.6765 38.147 34.4518C38.3038 34.2272 38.3878 33.9599 38.3878 33.686C38.3878 33.4121 38.3038 33.1448 38.147 32.9201C37.9903 32.6955 37.7684 32.5243 37.5114 32.4297L36.1492 31.8862ZM32.7057 35.2778C32.5238 35.3445 32.3587 35.45 32.2218 35.5869C32.0848 35.7239 31.9793 35.889 31.9126 36.0707L30.3146 40.398L28.72 36.0674C28.6532 35.8866 28.548 35.7223 28.4117 35.586C28.2753 35.4497 28.1111 35.3446 27.9302 35.2778L23.6022 33.6801L27.9302 32.0824C28.1111 32.0156 28.2753 31.9104 28.4117 31.7741C28.548 31.6378 28.6532 31.4736 28.72 31.2928L30.3179 26.9655L31.9159 31.2928C31.9827 31.4746 32.0882 31.6397 32.2251 31.7766C32.3621 31.9135 32.5272 32.019 32.709 32.0857L37.037 33.6834L32.7057 35.2778ZM33.0093 24.9348C33.0093 24.7564 33.0802 24.5852 33.2063 24.4591C33.3325 24.3329 33.5037 24.2621 33.6821 24.2621H35.0278V22.9166C35.0278 22.7382 35.0987 22.5671 35.2248 22.4409C35.351 22.3148 35.5222 22.2439 35.7006 22.2439C35.8791 22.2439 36.0502 22.3148 36.1764 22.4409C36.3026 22.5671 36.3734 22.7382 36.3734 22.9166V24.2621H37.7191C37.8975 24.2621 38.0687 24.3329 38.1949 24.4591C38.321 24.5852 38.3919 24.7564 38.3919 24.9348C38.3919 25.1132 38.321 25.2843 38.1949 25.4105C38.0687 25.5366 37.8975 25.6075 37.7191 25.6075H36.3734V26.9529C36.3734 27.1313 36.3026 27.3024 36.1764 27.4286C36.0502 27.5548 35.8791 27.6256 35.7006 27.6256C35.5222 27.6256 35.351 27.5548 35.2248 27.4286C35.0987 27.3024 35.0278 27.1313 35.0278 26.9529V25.6075H33.6821C33.5037 25.6075 33.3325 25.5366 33.2063 25.4105C33.0802 25.2843 33.0093 25.1132 33.0093 24.9348ZM41.7561 28.9711C41.7561 29.1495 41.6852 29.3206 41.559 29.4467C41.4329 29.5729 41.2617 29.6438 41.0833 29.6438H40.4104V30.3165C40.4104 30.4949 40.3395 30.666 40.2134 30.7922C40.0872 30.9183 39.916 30.9892 39.7376 30.9892C39.5592 30.9892 39.388 30.9183 39.2618 30.7922C39.1357 30.666 39.0648 30.4949 39.0648 30.3165V29.6438H38.3919C38.2135 29.6438 38.0424 29.5729 37.9162 29.4467C37.79 29.3206 37.7191 29.1495 37.7191 28.9711C37.7191 28.7927 37.79 28.6215 37.9162 28.4954C38.0424 28.3692 38.2135 28.2984 38.3919 28.2984H39.0648V27.6256C39.0648 27.4472 39.1357 27.2761 39.2618 27.15C39.388 27.0238 39.5592 26.9529 39.7376 26.9529C39.916 26.9529 40.0872 27.0238 40.2134 27.15C40.3395 27.2761 40.4104 27.4472 40.4104 27.6256V28.2984H41.0833C41.2617 28.2984 41.4329 28.3692 41.559 28.4954C41.6852 28.6215 41.7561 28.7927 41.7561 28.9711Z" fill="#484848"/>
<path fill-rule="evenodd" clip-rule="evenodd" d="M36.2395 31.6596L37.5988 32.202C37.9014 32.3141 38.1625 32.5159 38.3471 32.7806C38.5323 33.0461 38.6317 33.3622 38.6317 33.686C38.6317 34.0098 38.5323 34.3258 38.3471 34.5914C38.1618 34.8569 37.8995 35.0593 37.5956 35.1712L33.3573 36.73L31.7983 40.9641C31.6864 41.268 31.484 41.5302 31.2184 41.7154C30.9528 41.9007 30.6367 42 30.3129 42C29.9891 42 29.673 41.9007 29.4074 41.7154C29.1418 41.5302 28.9394 41.268 28.8275 40.9641L27.2683 36.7288L23.0361 35.1602V35.1602C22.7323 35.0484 22.4698 34.8459 22.2846 34.5804C22.0993 34.3149 22 33.9988 22 33.675C22 33.3512 22.0993 33.0352 22.2846 32.7696C22.4699 32.5041 22.7322 32.3017 23.0361 32.1898L27.2744 30.631L28.8351 26.3986C28.9469 26.0947 29.1493 25.8325 29.415 25.6472C29.6806 25.462 29.9966 25.3627 30.3205 25.3627C30.6443 25.3627 30.9604 25.462 31.226 25.6472C31.4916 25.8325 31.694 26.0947 31.8059 26.3986L33.3644 30.6347L36.2395 31.6596ZM33.175 30.8261L36.1492 31.8862L37.5114 32.4297C37.7684 32.5243 37.9903 32.6955 38.147 32.9201C38.3038 33.1448 38.3878 33.4121 38.3878 33.686C38.3878 33.9599 38.3038 34.2272 38.147 34.4518C37.9903 34.6765 37.7684 34.8477 37.5114 34.9423L33.1674 36.54L31.5694 40.8798C31.4748 41.1369 31.3036 41.3587 31.0789 41.5154C30.8542 41.6721 30.5868 41.7561 30.3129 41.7561C30.039 41.7561 29.7716 41.6721 29.5469 41.5154C29.3222 41.3587 29.151 41.1369 29.0564 40.8798L27.4584 36.5391L23.1203 34.9313C22.8632 34.8367 22.6414 34.6655 22.4847 34.4409C22.3279 34.2162 22.2439 33.9489 22.2439 33.675C22.2439 33.4011 22.3279 33.1338 22.4847 32.9092C22.6414 32.6845 22.8632 32.5134 23.1203 32.4187L27.4643 30.821L29.064 26.4829C29.1586 26.2258 29.3298 26.004 29.5545 25.8473C29.7792 25.6906 30.0465 25.6066 30.3205 25.6066C30.5944 25.6066 30.8618 25.6906 31.0865 25.8473C31.3111 26.004 31.4824 26.2258 31.577 26.4829L33.175 30.8261ZM28.72 36.0674L30.3146 40.398L31.9126 36.0707C31.9793 35.889 32.0848 35.7239 32.2218 35.5869C32.3587 35.45 32.5238 35.3445 32.7057 35.2778L37.037 33.6834L32.709 32.0857C32.5272 32.019 32.3621 31.9135 32.2251 31.7766C32.0882 31.6397 31.9827 31.4746 31.9159 31.2928L30.3179 26.9655L28.72 31.2928C28.6532 31.4736 28.548 31.6378 28.4117 31.7741C28.2753 31.9104 28.1111 32.0156 27.9302 32.0824L23.6022 33.6801L27.9302 35.2778C28.1111 35.3446 28.2753 35.4497 28.4117 35.586C28.548 35.7223 28.6532 35.8866 28.72 36.0674ZM24.3065 33.6801L28.0147 32.3112C28.2286 32.2322 28.4229 32.1078 28.5841 31.9466C28.7454 31.7854 28.8698 31.5912 28.9488 31.3773L30.3179 27.6696L31.687 31.3768V31.3768C31.7659 31.5917 31.8908 31.7872 32.0527 31.9491C32.2146 32.111 32.4099 32.2358 32.6249 32.3147V32.3147L36.3318 33.6831L32.6216 35.0488M24.3065 33.6801L28.0147 35.049C28.2286 35.1279 28.4229 35.2523 28.5841 35.4135C28.7454 35.5748 28.8698 35.769 28.9488 35.9829L30.3149 39.693L31.6836 35.9867V35.9867C31.7625 35.7718 31.8874 35.5763 32.0493 35.4144C32.2112 35.2525 32.4067 35.1277 32.6216 35.0488M32.7654 24.9348C32.7654 24.6917 32.862 24.4585 33.0339 24.2866C33.2058 24.1147 33.439 24.0181 33.6821 24.0181H34.7839V22.9166C34.7839 22.6735 34.8805 22.4404 35.0524 22.2685C35.2243 22.0966 35.4575 22 35.7006 22C35.9437 22 36.1769 22.0966 36.3488 22.2685C36.5207 22.4404 36.6173 22.6735 36.6173 22.9166V24.0181H37.7191C37.9622 24.0181 38.1954 24.1147 38.3673 24.2866C38.5392 24.4585 38.6358 24.6917 38.6358 24.9348C38.6358 25.1779 38.5392 25.411 38.3673 25.5829C38.1954 25.7548 37.9622 25.8514 37.7191 25.8514H36.6173V26.9529C36.6173 27.196 36.5207 27.4292 36.3488 27.6011C36.1769 27.773 35.9437 27.8695 35.7006 27.8695C35.4575 27.8695 35.2243 27.773 35.0524 27.6011C34.8805 27.4292 34.7839 27.196 34.7839 26.9529V25.8514H33.6821C33.439 25.8514 33.2058 25.7548 33.0339 25.5829C32.862 25.411 32.7654 25.1779 32.7654 24.9348ZM35.0278 25.6075V26.9529C35.0278 27.1313 35.0987 27.3024 35.2248 27.4286C35.351 27.5548 35.5222 27.6256 35.7006 27.6256C35.8791 27.6256 36.0502 27.5548 36.1764 27.4286C36.3026 27.3024 36.3734 27.1313 36.3734 26.9529V25.6075H37.7191C37.8975 25.6075 38.0687 25.5366 38.1949 25.4105C38.321 25.2843 38.3919 25.1132 38.3919 24.9348C38.3919 24.7564 38.321 24.5852 38.1949 24.4591C38.0687 24.3329 37.8975 24.2621 37.7191 24.2621H36.3734V22.9166C36.3734 22.7382 36.3026 22.5671 36.1764 22.4409C36.0502 22.3148 35.8791 22.2439 35.7006 22.2439C35.5222 22.2439 35.351 22.3148 35.2248 22.4409C35.0987 22.5671 35.0278 22.7382 35.0278 22.9166V24.2621H33.6821C33.5037 24.2621 33.3325 24.3329 33.2063 24.4591C33.0802 24.5852 33.0093 24.7564 33.0093 24.9348C33.0093 25.1132 33.0802 25.2843 33.2063 25.4105C33.3325 25.5366 33.5037 25.6075 33.6821 25.6075H35.0278ZM42 28.9711C42 29.2142 41.9034 29.4473 41.7315 29.6192C41.5596 29.7911 41.3264 29.8877 41.0833 29.8877H40.6543V30.3165C40.6543 30.5596 40.5577 30.7928 40.3858 30.9647C40.2139 31.1366 39.9807 31.2331 39.7376 31.2331C39.4945 31.2331 39.2613 31.1366 39.0894 30.9647C38.9175 30.7928 38.8209 30.5596 38.8209 30.3165V29.8877H38.3919C38.1488 29.8877 37.9156 29.7911 37.7437 29.6192C37.5718 29.4473 37.4752 29.2142 37.4752 28.9711C37.4752 28.728 37.5718 28.4948 37.7437 28.3229C37.9156 28.151 38.1488 28.0544 38.3919 28.0544H38.8209V27.6256C38.8209 27.3825 38.9175 27.1494 39.0894 26.9775C39.2613 26.8056 39.4945 26.709 39.7376 26.709C39.9807 26.709 40.2139 26.8056 40.3858 26.9775C40.5577 27.1494 40.6543 27.3825 40.6543 27.6256V28.0544H41.0833C41.3264 28.0544 41.5596 28.151 41.7315 28.3229C41.9034 28.4948 42 28.728 42 28.9711ZM41.0833 28.2984C41.2617 28.2984 41.4329 28.3692 41.559 28.4954C41.6852 28.6215 41.7561 28.7927 41.7561 28.9711C41.7561 29.1495 41.6852 29.3206 41.559 29.4467C41.4329 29.5729 41.2617 29.6438 41.0833 29.6438H40.4104V30.3165C40.4104 30.4949 40.3395 30.666 40.2134 30.7922C40.0872 30.9183 39.916 30.9892 39.7376 30.9892C39.5592 30.9892 39.388 30.9183 39.2618 30.7922C39.1357 30.666 39.0648 30.4949 39.0648 30.3165V29.6438H38.3919C38.2135 29.6438 38.0424 29.5729 37.9162 29.4467C37.79 29.3206 37.7191 29.1495 37.7191 28.9711C37.7191 28.7927 37.79 28.6215 37.9162 28.4954C38.0424 28.3692 38.2135 28.2984 38.3919 28.2984H39.0648V27.6256C39.0648 27.4472 39.1357 27.2761 39.2618 27.15C39.388 27.0238 39.5592 26.9529 39.7376 26.9529C39.916 26.9529 40.0872 27.0238 40.2134 27.15C40.3395 27.2761 40.4104 27.4472 40.4104 27.6256V28.2984H41.0833Z" fill="#484848"/>
<path d="M29.2161 71.7255C29.5759 71.0431 30.5481 71.0286 30.9281 71.7001L32.7363 74.8951C32.8235 75.0491 32.9509 75.1765 33.1049 75.2637L36.2999 77.0719C36.9714 77.4519 36.9569 78.4241 36.2745 78.7839L33.2845 80.3606C33.1106 80.4523 32.9684 80.5945 32.8766 80.7685L31.3 83.7584C30.9401 84.4409 29.9679 84.4553 29.5879 83.7839L27.7797 80.5888C27.6926 80.4348 27.5652 80.3074 27.4112 80.2203L24.2161 78.4121C23.5447 78.0321 23.5591 77.0599 24.2416 76.7L27.2315 75.1234C27.4055 75.0316 27.5477 74.8894 27.6394 74.7155L29.2161 71.7255Z" fill="#484848"/>
<path d="M36.1492 75.8862L33.175 74.8261L31.577 70.4829C31.4824 70.2258 31.3111 70.004 31.0865 69.8473C30.8618 69.6906 30.5944 69.6066 30.3205 69.6066C30.0465 69.6066 29.7792 69.6906 29.5545 69.8473C29.3298 70.004 29.1586 70.2258 29.064 70.4829L27.4643 74.821L23.1203 76.4187C22.8632 76.5134 22.6414 76.6845 22.4847 76.9092C22.3279 77.1338 22.2439 77.4011 22.2439 77.675C22.2439 77.9489 22.3279 78.2162 22.4847 78.4409C22.6414 78.6655 22.8632 78.8367 23.1203 78.9313L27.4584 80.5391L29.0564 84.8798C29.151 85.1369 29.3222 85.3587 29.5469 85.5154C29.7716 85.6721 30.039 85.7561 30.3129 85.7561C30.5868 85.7561 30.8542 85.6721 31.0789 85.5154C31.3036 85.3587 31.4748 85.1369 31.5694 84.8798L33.1674 80.54L37.5114 78.9423C37.7684 78.8477 37.9903 78.6765 38.147 78.4518C38.3038 78.2272 38.3878 77.9599 38.3878 77.686C38.3878 77.4121 38.3038 77.1448 38.147 76.9201C37.9903 76.6955 37.7684 76.5243 37.5114 76.4297L36.1492 75.8862ZM32.7057 79.2778C32.5238 79.3445 32.3587 79.45 32.2218 79.5869C32.0848 79.7239 31.9793 79.889 31.9126 80.0707L30.3146 84.398L28.72 80.0674C28.6532 79.8866 28.548 79.7223 28.4117 79.586C28.2753 79.4497 28.1111 79.3446 27.9302 79.2778L23.6022 77.6801L27.9302 76.0824C28.1111 76.0156 28.2753 75.9104 28.4117 75.7741C28.548 75.6378 28.6532 75.4736 28.72 75.2928L30.3179 70.9655L31.9159 75.2928C31.9827 75.4746 32.0882 75.6397 32.2251 75.7766C32.3621 75.9135 32.5272 76.019 32.709 76.0857L37.037 77.6834L32.7057 79.2778ZM33.0093 68.9348C33.0093 68.7564 33.0802 68.5852 33.2063 68.4591C33.3325 68.3329 33.5037 68.2621 33.6821 68.2621H35.0278V66.9166C35.0278 66.7382 35.0987 66.5671 35.2248 66.4409C35.351 66.3148 35.5222 66.2439 35.7006 66.2439C35.8791 66.2439 36.0502 66.3148 36.1764 66.4409C36.3026 66.5671 36.3734 66.7382 36.3734 66.9166V68.2621H37.7191C37.8975 68.2621 38.0687 68.3329 38.1949 68.4591C38.321 68.5852 38.3919 68.7564 38.3919 68.9348C38.3919 69.1132 38.321 69.2843 38.1949 69.4105C38.0687 69.5366 37.8975 69.6075 37.7191 69.6075H36.3734V70.9529C36.3734 71.1313 36.3026 71.3024 36.1764 71.4286C36.0502 71.5548 35.8791 71.6256 35.7006 71.6256C35.5222 71.6256 35.351 71.5548 35.2248 71.4286C35.0987 71.3024 35.0278 71.1313 35.0278 70.9529V69.6075H33.6821C33.5037 69.6075 33.3325 69.5366 33.2063 69.4105C33.0802 69.2843 33.0093 69.1132 33.0093 68.9348ZM41.7561 72.9711C41.7561 73.1495 41.6852 73.3206 41.559 73.4467C41.4329 73.5729 41.2617 73.6438 41.0833 73.6438H40.4104V74.3165C40.4104 74.4949 40.3395 74.666 40.2134 74.7922C40.0872 74.9183 39.916 74.9892 39.7376 74.9892C39.5592 74.9892 39.388 74.9183 39.2618 74.7922C39.1357 74.666 39.0648 74.4949 39.0648 74.3165V73.6438H38.3919C38.2135 73.6438 38.0424 73.5729 37.9162 73.4467C37.79 73.3206 37.7191 73.1495 37.7191 72.9711C37.7191 72.7927 37.79 72.6215 37.9162 72.4954C38.0424 72.3692 38.2135 72.2984 38.3919 72.2984H39.0648V71.6256C39.0648 71.4472 39.1357 71.2761 39.2618 71.15C39.388 71.0238 39.5592 70.9529 39.7376 70.9529C39.916 70.9529 40.0872 71.0238 40.2134 71.15C40.3395 71.2761 40.4104 71.4472 40.4104 71.6256V72.2984H41.0833C41.2617 72.2984 41.4329 72.3692 41.559 72.4954C41.6852 72.6215 41.7561 72.7927 41.7561 72.9711Z" fill="#484848"/>
<path fill-rule="evenodd" clip-rule="evenodd" d="M36.2395 75.6596L37.5988 76.202C37.9014 76.3141 38.1625 76.5159 38.3471 76.7806C38.5323 77.0461 38.6317 77.3622 38.6317 77.686C38.6317 78.0098 38.5323 78.3258 38.3471 78.5914C38.1618 78.857 37.8995 79.0593 37.5956 79.1712L33.3573 80.73L31.7983 84.9641C31.6864 85.268 31.484 85.5302 31.2184 85.7155C30.9528 85.9007 30.6367 86 30.3129 86C29.9891 86 29.673 85.9007 29.4074 85.7155C29.1418 85.5302 28.9394 85.268 28.8275 84.9641L29.0564 84.8798C29.151 85.1369 29.3222 85.3587 29.5469 85.5154C29.7716 85.6721 30.039 85.7561 30.3129 85.7561C30.5868 85.7561 30.8542 85.6721 31.0789 85.5154C31.3036 85.3587 31.4748 85.1369 31.5694 84.8798L33.1674 80.54L37.5114 78.9423C37.7684 78.8477 37.9903 78.6765 38.147 78.4518C38.3038 78.2272 38.3878 77.9599 38.3878 77.686C38.3878 77.4121 38.3038 77.1448 38.147 76.9201C37.9903 76.6955 37.7684 76.5243 37.5114 76.4297L36.1492 75.8862L33.175 74.8261L31.577 70.4829C31.4824 70.2258 31.3111 70.004 31.0865 69.8473C30.8618 69.6906 30.5944 69.6066 30.3205 69.6066C30.0465 69.6066 29.7792 69.6906 29.5545 69.8473C29.3298 70.004 29.1586 70.2258 29.064 70.4829L27.4643 74.821L23.1203 76.4187C22.8632 76.5134 22.6414 76.6845 22.4847 76.9092C22.3279 77.1338 22.2439 77.4011 22.2439 77.675C22.2439 77.9489 22.3279 78.2162 22.4847 78.4409C22.6414 78.6655 22.8632 78.8367 23.1203 78.9313L27.4584 80.5391L29.0564 84.8798L28.8275 84.9641L27.2683 80.7288L23.0361 79.1602C23.036 79.1602 23.0362 79.1603 23.0361 79.1602C22.7323 79.0484 22.4698 78.8459 22.2846 78.5804C22.0993 78.3149 22 77.9988 22 77.675C22 77.3512 22.0993 77.0352 22.2846 76.7696C22.4699 76.5041 22.7322 76.3017 23.0361 76.1898L27.2744 74.631L28.8351 70.3986C28.9469 70.0947 29.1493 69.8325 29.415 69.6472C29.6806 69.462 29.9966 69.3627 30.3205 69.3627C30.6443 69.3627 30.9604 69.462 31.226 69.6472C31.4916 69.8325 31.694 70.0947 31.8059 70.3986L33.3644 74.6347L36.2395 75.6596ZM28.72 80.0674L30.3146 84.398L31.9126 80.0707C31.9793 79.889 32.0848 79.7239 32.2218 79.5869C32.3587 79.45 32.5238 79.3445 32.7057 79.2778L37.037 77.6834L32.709 76.0857C32.5272 76.019 32.3621 75.9135 32.2251 75.7766C32.0882 75.6397 31.9827 75.4746 31.9159 75.2928L30.3179 70.9655L28.72 75.2928C28.6532 75.4736 28.548 75.6378 28.4117 75.7741C28.2753 75.9104 28.1111 76.0156 27.9302 76.0824L23.6022 77.6801L27.9302 79.2778C28.1111 79.3446 28.2753 79.4497 28.4117 79.586C28.548 79.7223 28.6532 79.8866 28.72 80.0674ZM24.3065 77.6801L28.0147 76.3112C28.2286 76.2322 28.4229 76.1078 28.5841 75.9466C28.7454 75.7854 28.8698 75.5912 28.9488 75.3773L30.3179 71.6696L31.687 75.3768C31.6869 75.3767 31.687 75.3769 31.687 75.3768C31.7659 75.5917 31.8908 75.7872 32.0527 75.9491C32.2146 76.111 32.4098 76.2357 32.6247 76.3146C32.6246 76.3146 32.6248 76.3146 32.6247 76.3146L36.3318 77.6831L32.6216 79.0488C32.6217 79.0488 32.6216 79.0488 32.6216 79.0488C32.4066 79.1277 32.2113 79.2525 32.0493 79.4144C31.8874 79.5763 31.7626 79.7715 31.6837 79.9864C31.6837 79.9863 31.6837 79.9865 31.6837 79.9864L30.3149 83.693L28.9488 79.9831C28.8699 79.7692 28.7454 79.5748 28.5841 79.4135C28.4229 79.2523 28.2286 79.128 28.0147 79.049L24.3065 77.6801ZM32.7654 68.9348C32.7654 68.6917 32.862 68.4585 33.0339 68.2866C33.2058 68.1147 33.439 68.0181 33.6821 68.0181H34.7839V66.9166C34.7839 66.6735 34.8805 66.4404 35.0524 66.2685C35.2243 66.0966 35.4575 66 35.7006 66C35.9437 66 36.1769 66.0966 36.3488 66.2685C36.5207 66.4404 36.6173 66.6735 36.6173 66.9166V68.0181H37.7191C37.9622 68.0181 38.1954 68.1147 38.3673 68.2866C38.5392 68.4585 38.6358 68.6917 38.6358 68.9348C38.6358 69.1779 38.5392 69.411 38.3673 69.5829C38.1954 69.7548 37.9622 69.8514 37.7191 69.8514H36.6173V70.9529C36.6173 71.196 36.5207 71.4292 36.3488 71.6011C36.1769 71.773 35.9437 71.8695 35.7006 71.8695C35.4575 71.8695 35.2243 71.773 35.0524 71.6011C34.8805 71.4292 34.7839 71.196 34.7839 70.9529V69.8514H33.6821C33.439 69.8514 33.2058 69.7548 33.0339 69.5829C32.862 69.411 32.7654 69.1779 32.7654 68.9348ZM35.0278 69.6075V70.9529C35.0278 71.1313 35.0987 71.3024 35.2248 71.4286C35.351 71.5548 35.5222 71.6256 35.7006 71.6256C35.8791 71.6256 36.0502 71.5548 36.1764 71.4286C36.3026 71.3024 36.3734 71.1313 36.3734 70.9529V69.6075H37.7191C37.8975 69.6075 38.0687 69.5366 38.1949 69.4105C38.321 69.2843 38.3919 69.1132 38.3919 68.9348C38.3919 68.7564 38.321 68.5852 38.1949 68.4591C38.0687 68.3329 37.8975 68.2621 37.7191 68.2621H36.3734V66.9166C36.3734 66.7382 36.3026 66.5671 36.1764 66.4409C36.0502 66.3148 35.8791 66.2439 35.7006 66.2439C35.5222 66.2439 35.351 66.3148 35.2248 66.4409C35.0987 66.5671 35.0278 66.7382 35.0278 66.9166V68.2621H33.6821C33.5037 68.2621 33.3325 68.3329 33.2063 68.4591C33.0802 68.5852 33.0093 68.7564 33.0093 68.9348C33.0093 69.1132 33.0802 69.2843 33.2063 69.4105C33.3325 69.5366 33.5037 69.6075 33.6821 69.6075H35.0278ZM42 72.9711C42 73.2142 41.9034 73.4473 41.7315 73.6192C41.5596 73.7911 41.3264 73.8877 41.0833 73.8877H40.6543V74.3165C40.6543 74.5596 40.5577 74.7928 40.3858 74.9647C40.2139 75.1366 39.9807 75.2331 39.7376 75.2331C39.4945 75.2331 39.2613 75.1366 39.0894 74.9647C38.9175 74.7928 38.8209 74.5596 38.8209 74.3165V73.8877H38.3919C38.1488 73.8877 37.9156 73.7911 37.7437 73.6192C37.5718 73.4473 37.4752 73.2142 37.4752 72.9711C37.4752 72.728 37.5718 72.4948 37.7437 72.3229C37.9156 72.151 38.1488 72.0544 38.3919 72.0544H38.8209V71.6256C38.8209 71.3825 38.9175 71.1494 39.0894 70.9775C39.2613 70.8056 39.4945 70.709 39.7376 70.709C39.9807 70.709 40.2139 70.8056 40.3858 70.9775C40.5577 71.1494 40.6543 71.3825 40.6543 71.6256V72.0544H41.0833C41.3264 72.0544 41.5596 72.151 41.7315 72.3229C41.9034 72.4948 42 72.728 42 72.9711ZM41.0833 72.2984C41.2617 72.2984 41.4329 72.3692 41.559 72.4954C41.6852 72.6215 41.7561 72.7927 41.7561 72.9711C41.7561 73.1495 41.6852 73.3206 41.559 73.4467C41.4329 73.5729 41.2617 73.6438 41.0833 73.6438H40.4104V74.3165C40.4104 74.4949 40.3395 74.666 40.2134 74.7922C40.0872 74.9183 39.916 74.9892 39.7376 74.9892C39.5592 74.9892 39.388 74.9183 39.2618 74.7922C39.1357 74.666 39.0648 74.4949 39.0648 74.3165V73.6438H38.3919C38.2135 73.6438 38.0424 73.5729 37.9162 73.4467C37.79 73.3206 37.7191 73.1495 37.7191 72.9711C37.7191 72.7927 37.79 72.6215 37.9162 72.4954C38.0424 72.3692 38.2135 72.2984 38.3919 72.2984H39.0648V71.6256C39.0648 71.4472 39.1357 71.2761 39.2618 71.15C39.388 71.0238 39.5592 70.9529 39.7376 70.9529C39.916 70.9529 40.0872 71.0238 40.2134 71.15C40.3395 71.2761 40.4104 71.4472 40.4104 71.6256V72.2984H41.0833Z" fill="#484848"/>
</svg>
