<svg width="24" height="24" viewBox="0 0 24 24" fill="none" xmlns="http://www.w3.org/2000/svg">
<path fill-rule="evenodd" clip-rule="evenodd" d="M7.12311 18H16.8769C18.1191 18 18.8309 17.995 19.3187 17.9245C19.3253 17.9235 19.3317 17.9226 19.338 17.9216C19.3374 17.9152 19.3368 17.9088 19.3361 17.9021C19.2863 17.4118 19.1185 16.72 18.8172 15.5149C18.6235 14.7401 18.5178 14.3311 18.4114 14.0519C18.4099 14.048 18.4084 14.0441 18.407 14.0403C18.403 14.0398 18.3988 14.0393 18.3946 14.0388C18.098 14.0033 17.6755 14 16.8769 14H7.12311C6.32446 14 5.90204 14.0033 5.60537 14.0388C5.60116 14.0393 5.59705 14.0398 5.59303 14.0403C5.59157 14.0441 5.59008 14.048 5.58857 14.0519C5.4822 14.3311 5.37652 14.7401 5.18282 15.5149C4.88155 16.72 4.71374 17.4118 4.66389 17.9021C4.66322 17.9088 4.66258 17.9152 4.66197 17.9216C4.66829 17.9226 4.67474 17.9235 4.68132 17.9245C5.16911 17.995 5.88094 18 7.12311 18ZM16.8769 20H7.12311C4.76483 20 3.5857 20 2.98514 19.2308C2.38459 18.4616 2.67057 17.3177 3.24254 15.0299C3.60632 13.5747 3.78821 12.8472 4.33073 12.4236C4.87325 12 5.6232 12 7.12311 12H16.8769C18.3768 12 19.1268 12 19.6693 12.4236C20.2118 12.8472 20.3937 13.5747 20.7575 15.0299C21.3294 17.3177 21.6154 18.4616 21.0149 19.2308C20.4143 20 19.2352 20 16.8769 20Z" fill="#484848"/>
<path fill-rule="evenodd" clip-rule="evenodd" d="M9.16228 8H14.8377C15.4921 8 15.871 7.99867 16.1436 7.97817C16.1601 7.97692 16.1754 7.97565 16.1896 7.97437C16.1863 7.96054 16.1827 7.94561 16.1786 7.92954C16.1119 7.66441 15.9933 7.30458 15.7864 6.68377C15.6701 6.33497 15.6086 6.1529 15.557 6.02322C15.5551 6.01845 15.5532 6.01394 15.5515 6.00967C15.5469 6.00938 15.5421 6.00908 15.5369 6.00879C15.3976 6.00076 15.2054 6 14.8377 6H9.16228C8.79461 6 8.60244 6.00076 8.46307 6.00879C8.45795 6.00908 8.45309 6.00938 8.44849 6.00967C8.44676 6.01394 8.44494 6.01845 8.44304 6.02322C8.39136 6.1529 8.32986 6.33497 8.2136 6.68377C8.00666 7.30458 7.88812 7.66441 7.82135 7.92954C7.81731 7.94561 7.81367 7.96054 7.81041 7.97437C7.82456 7.97565 7.83987 7.97692 7.8564 7.97817C8.12904 7.99867 8.50789 8 9.16228 8ZM14.8377 10H9.16228C7.91589 10 7.29269 10 6.86349 9.78029C6.29123 9.48734 5.89468 8.93715 5.79773 8.30162C5.72501 7.82497 5.92209 7.23375 6.31623 6.05132C6.53455 5.39636 6.64371 5.06888 6.83021 4.81524C7.07887 4.47705 7.42763 4.22567 7.8271 4.09672C8.1267 4 8.47189 4 9.16228 4H14.8377C15.5281 4 15.8733 4 16.1729 4.09672C16.5724 4.22567 16.9211 4.47705 17.1698 4.81524C17.3563 5.06888 17.4655 5.39636 17.6838 6.05132C18.0779 7.23375 18.275 7.82497 18.2023 8.30162C18.1053 8.93715 17.7088 9.48734 17.1365 9.78029C16.7073 10 16.0841 10 14.8377 10Z" fill="#484848"/>
<path fill-rule="evenodd" clip-rule="evenodd" d="M12 12C12.5523 12 13 12.4477 13 13V19C13 19.5523 12.5523 20 12 20C11.4477 20 11 19.5523 11 19V13C11 12.4477 11.4477 12 12 12Z" fill="#484848"/>
</svg>
