<svg width="20" height="16" viewBox="0 0 20 16" fill="none" xmlns="http://www.w3.org/2000/svg">
<path fill-rule="evenodd" clip-rule="evenodd" d="M5.12308 14H14.8769C16.119 14 16.8309 13.995 17.3187 13.9245C17.3252 13.9235 17.3317 13.9226 17.338 13.9216C17.3374 13.9152 17.3368 13.9088 17.3361 13.9021C17.2862 13.4118 17.1184 12.72 16.8172 11.5149C16.6234 10.7401 16.5178 10.3311 16.4114 10.0519C16.4099 10.048 16.4084 10.0441 16.4069 10.0403C16.4029 10.0398 16.3988 10.0393 16.3946 10.0388C16.0979 10.0033 15.6755 10 14.8769 10H5.12308C4.32443 10 3.90201 10.0033 3.60534 10.0388C3.60113 10.0393 3.59702 10.0398 3.593 10.0403C3.59153 10.0441 3.59005 10.048 3.58854 10.0519C3.48217 10.3311 3.37649 10.7401 3.18279 11.5149C2.88152 12.72 2.71371 13.4118 2.66386 13.9021C2.66319 13.9088 2.66255 13.9152 2.66194 13.9216C2.66825 13.9226 2.67471 13.9235 2.68129 13.9245C3.16907 13.995 3.8809 14 5.12308 14ZM14.8769 16H5.12308C2.7648 16 1.58567 16 0.985113 15.2308C0.384559 14.4616 0.670542 13.3177 1.24251 11.0299C1.60629 9.57474 1.78818 8.84718 2.3307 8.42359C2.87322 8 3.62317 8 5.12308 8H14.8769C16.3768 8 17.1267 8 17.6692 8.42359C18.2118 8.84718 18.3937 9.57474 18.7574 11.0299C19.3294 13.3177 19.6154 14.4616 19.0148 15.2308C18.4143 16 17.2351 16 14.8769 16Z" fill="#484848"/>
<path fill-rule="evenodd" clip-rule="evenodd" d="M7.16225 4H12.8377C13.4921 4 13.8709 3.99867 14.1436 3.97817C14.1601 3.97692 14.1754 3.97565 14.1896 3.97437C14.1863 3.96054 14.1827 3.94561 14.1786 3.92954C14.1119 3.66441 13.9933 3.30458 13.7864 2.68377C13.6701 2.33497 13.6086 2.1529 13.5569 2.02322C13.555 2.01845 13.5532 2.01394 13.5515 2.00967C13.5469 2.00938 13.542 2.00908 13.5369 2.00879C13.3975 2.00076 13.2054 2 12.8377 2H7.16225C6.79458 2 6.60241 2.00076 6.46304 2.00879C6.45792 2.00908 6.45306 2.00938 6.44846 2.00967C6.44673 2.01394 6.44491 2.01845 6.44301 2.02322C6.39133 2.1529 6.32983 2.33497 6.21357 2.68377C6.00663 3.30458 5.88809 3.66441 5.82132 3.92954C5.81728 3.94561 5.81364 3.96054 5.81038 3.97437C5.82453 3.97565 5.83984 3.97692 5.85637 3.97817C6.12901 3.99867 6.50786 4 7.16225 4ZM12.8377 6H7.16225C5.91585 6 5.29266 6 4.86346 5.78029C4.2912 5.48734 3.89465 4.93715 3.7977 4.30162C3.72498 3.82497 3.92205 3.23375 4.3162 2.05132C4.53452 1.39636 4.64368 1.06888 4.83017 0.815236C5.07884 0.47705 5.4276 0.225674 5.82707 0.0967175C6.12667 0 6.47186 0 7.16225 0H12.8377C13.5281 0 13.8733 0 14.1729 0.0967175C14.5723 0.225674 14.9211 0.47705 15.1698 0.815236C15.3563 1.06888 15.4654 1.39636 15.6837 2.05132C16.0779 3.23375 16.275 3.82497 16.2022 4.30162C16.1053 4.93715 15.7087 5.48734 15.1365 5.78029C14.7073 6 14.0841 6 12.8377 6Z" fill="#484848"/>
<path fill-rule="evenodd" clip-rule="evenodd" d="M9.99997 8C10.5523 8 11 8.44771 11 9V15C11 15.5523 10.5523 16 9.99997 16C9.44769 16 8.99997 15.5523 8.99997 15V9C8.99997 8.44771 9.44769 8 9.99997 8Z" fill="#484848"/>
</svg>
