<svg width="24" height="24" viewBox="0 0 24 24" fill="none" xmlns="http://www.w3.org/2000/svg">
<path fill-rule="evenodd" clip-rule="evenodd" d="M19 14V6.5C19 5.98807 18.9976 5.8771 18.9904 5.80396C18.8968 4.85441 18.1456 4.10315 17.196 4.00963C17.1229 4.00243 17.0119 4 16.5 4H11C9.05784 4 7.80242 4.00425 6.87741 4.12861C6.00993 4.24524 5.73803 4.43354 5.58579 4.58579C5.43354 4.73803 5.24524 5.00993 5.12861 5.87741C5.00425 6.80242 5 8.05784 5 10V14C5 15.9422 5.00425 17.1976 5.12861 18.1226C5.24524 18.9901 5.43354 19.262 5.58579 19.4142C5.73803 19.5665 6.00993 19.7548 6.87741 19.8714C7.80242 19.9958 9.05784 20 11 20H13C14.9422 20 16.1976 19.9958 17.1226 19.8714C17.9901 19.7548 18.262 19.5665 18.4142 19.4142C18.5665 19.262 18.7548 18.9901 18.8714 18.1226C18.9958 17.1976 19 15.9422 19 14ZM21 6.5V14C21 17.7712 21 19.6569 19.8284 20.8284C18.6569 22 16.7712 22 13 22H11C7.22876 22 5.34315 22 4.17157 20.8284C3 19.6569 3 17.7712 3 14V10C3 6.22876 3 4.34315 4.17157 3.17157C5.34315 2 7.22876 2 11 2H16.5C16.9643 2 17.1965 2 17.3921 2.01926C19.2912 2.20631 20.7937 3.70882 20.9807 5.60793C21 5.80349 21 6.03566 21 6.5Z" fill="#484848"/>
<path fill-rule="evenodd" clip-rule="evenodd" d="M15 2C15.5523 2 16 2.44772 16 3L16 21C16 21.5523 15.5523 22 15 22C14.4477 22 14 21.5523 14 21L14 3C14 2.44772 14.4477 2 15 2Z" fill="#484848"/>
</svg>
