<svg width="18" height="20" viewBox="0 0 18 20" fill="none" xmlns="http://www.w3.org/2000/svg">
<path fill-rule="evenodd" clip-rule="evenodd" d="M16 12V4.5C16 3.98807 15.9976 3.8771 15.9904 3.80396C15.8968 2.85441 15.1456 2.10315 14.196 2.00963C14.1229 2.00243 14.0119 2 13.5 2H8C6.05784 2 4.80242 2.00425 3.87741 2.12861C3.00993 2.24524 2.73803 2.43354 2.58579 2.58579C2.43354 2.73803 2.24524 3.00993 2.12861 3.87741C2.00425 4.80242 2 6.05784 2 8V12C2 13.9422 2.00425 15.1976 2.12861 16.1226C2.24524 16.9901 2.43354 17.262 2.58579 17.4142C2.73803 17.5665 3.00993 17.7548 3.87741 17.8714C4.80242 17.9958 6.05784 18 8 18H10C11.9422 18 13.1976 17.9958 14.1226 17.8714C14.9901 17.7548 15.262 17.5665 15.4142 17.4142C15.5665 17.262 15.7548 16.9901 15.8714 16.1226C15.9958 15.1976 16 13.9422 16 12ZM18 4.5V12C18 15.7712 18 17.6569 16.8284 18.8284C15.6569 20 13.7712 20 10 20H8C4.22876 20 2.34315 20 1.17157 18.8284C0 17.6569 0 15.7712 0 12V8C0 4.22876 0 2.34315 1.17157 1.17157C2.34315 0 4.22876 0 8 0H13.5C13.9643 0 14.1965 0 14.3921 0.0192611C16.2912 0.206307 17.7937 1.70882 17.9807 3.60793C18 3.80349 18 4.03566 18 4.5Z" fill="#484848"/>
<path fill-rule="evenodd" clip-rule="evenodd" d="M18 6C18 6.55228 17.5523 7 17 7H1C0.447716 7 0 6.55228 0 6C0 5.44772 0.447716 5 1 5H17C17.5523 5 18 5.44772 18 6Z" fill="#484848"/>
</svg>
