<svg width="24" height="24" viewBox="0 0 24 24" fill="none" xmlns="http://www.w3.org/2000/svg">
<path fill-rule="evenodd" clip-rule="evenodd" d="M7.93417 9C7.95604 9 7.97799 9 8 9H10C10.022 9 10.044 9 10.0658 9C10.9523 8.99995 11.7161 8.99991 12.3278 9.08215C12.9833 9.17028 13.6117 9.36902 14.1213 9.87868C14.631 10.3883 14.8297 11.0167 14.9179 11.6722C15.0001 12.2839 15.0001 13.0477 15 13.9342V16.0658C15.0001 16.9523 15.0001 17.7161 14.9179 18.3278C14.8297 18.9833 14.631 19.6117 14.1213 20.1213C13.6117 20.631 12.9833 20.8297 12.3278 20.9179C11.7161 21.0001 10.9523 21.0001 10.0658 21H7.93417C7.04769 21.0001 6.28387 21.0001 5.67221 20.9179C5.0167 20.8297 4.38835 20.631 3.87868 20.1213C3.36902 19.6117 3.17028 18.9833 3.08215 18.3278C2.99991 17.7161 2.99995 16.9523 3 16.0658C3 16.044 3 16.022 3 16V14C3 13.978 3 13.956 3 13.9342C2.99995 13.0477 2.99991 12.2839 3.08215 11.6722C3.17028 11.0167 3.36902 10.3883 3.87868 9.87868C4.38835 9.36902 5.0167 9.17028 5.67221 9.08215C6.28387 8.99991 7.04769 8.99995 7.93417 9ZM5.93871 11.0643C5.50497 11.1226 5.36902 11.2168 5.2929 11.2929C5.21677 11.369 5.12263 11.505 5.06431 11.9387C5.00213 12.4012 5 13.0289 5 14V16C5 16.9711 5.00213 17.5988 5.06431 18.0613C5.12263 18.495 5.21677 18.631 5.2929 18.7071C5.36902 18.7832 5.50497 18.8774 5.93871 18.9357C6.40121 18.9979 7.02893 19 8 19H10C10.9711 19 11.5988 18.9979 12.0613 18.9357C12.495 18.8774 12.631 18.7832 12.7071 18.7071C12.7832 18.631 12.8774 18.495 12.9357 18.0613C12.9979 17.5988 13 16.9711 13 16V14C13 13.0289 12.9979 12.4012 12.9357 11.9387C12.8774 11.505 12.7832 11.369 12.7071 11.2929C12.631 11.2168 12.495 11.1226 12.0613 11.0643C11.5988 11.0021 10.9711 11 10 11H8C7.02893 11 6.40122 11.0021 5.93871 11.0643Z" fill="#484848"/>
<path fill-rule="evenodd" clip-rule="evenodd" d="M13.9342 3C13.956 3 13.978 3 14 3H16C16.022 3 16.044 3 16.0658 3C16.9523 2.99995 17.7161 2.99991 18.3278 3.08215C18.9833 3.17028 19.6117 3.36902 20.1213 3.87868C20.631 4.38835 20.8297 5.0167 20.9179 5.67221C21.0001 6.28387 21.0001 7.04769 21 7.93417V10.0658C21.0001 10.9523 21.0001 11.7161 20.9179 12.3278C20.8297 12.9833 20.631 13.6117 20.1213 14.1213C19.6117 14.631 18.9833 14.8297 18.3278 14.9179C17.7161 15.0001 16.9523 15.0001 16.0658 15L15 15V13H16C16.9711 13 17.5988 12.9979 18.0613 12.9357C18.495 12.8774 18.631 12.7832 18.7071 12.7071C18.7832 12.631 18.8774 12.495 18.9357 12.0613C18.9979 11.5988 19 10.9711 19 10V8C19 7.02893 18.9979 6.40122 18.9357 5.93871C18.8774 5.50497 18.7832 5.36902 18.7071 5.2929C18.631 5.21677 18.495 5.12263 18.0613 5.06431C17.5988 5.00213 16.9711 5 16 5H14C13.0289 5 12.4012 5.00213 11.9387 5.06431C11.505 5.12263 11.369 5.21677 11.2929 5.2929C11.2168 5.36902 11.1226 5.50497 11.0643 5.93871C11.0021 6.40121 11 7.02893 11 8V9H9V8C9 7.97799 9 7.95604 9 7.93417C8.99995 7.04769 8.99991 6.28387 9.08215 5.67221C9.17028 5.0167 9.36902 4.38835 9.87868 3.87868C10.3883 3.36902 11.0167 3.17028 11.6722 3.08215C12.2839 2.99991 13.0477 2.99995 13.9342 3Z" fill="#484848"/>
</svg>
