<svg width="18" height="18" viewBox="0 0 18 18" fill="none" xmlns="http://www.w3.org/2000/svg">
<path fill-rule="evenodd" clip-rule="evenodd" d="M4.93417 6C4.95604 6 4.97799 6 5 6H7C7.02202 6 7.04397 6 7.06583 6C7.95232 5.99995 8.71614 5.99991 9.3278 6.08215C9.98331 6.17028 10.6117 6.36902 11.1213 6.87868C11.631 7.38835 11.8297 8.0167 11.9179 8.67221C12.0001 9.28387 12.0001 10.0477 12 10.9342V13.0658C12.0001 13.9523 12.0001 14.7161 11.9179 15.3278C11.8297 15.9833 11.631 16.6117 11.1213 17.1213C10.6117 17.631 9.98331 17.8297 9.3278 17.9179C8.71614 18.0001 7.95232 18.0001 7.06584 18H4.93417C4.04769 18.0001 3.28387 18.0001 2.67221 17.9179C2.0167 17.8297 1.38835 17.631 0.878684 17.1213C0.369022 16.6117 0.170277 15.9833 0.0821453 15.3278C-9.01893e-05 14.7161 -4.73896e-05 13.9523 2.43992e-06 13.0658C3.63201e-06 13.044 4.82411e-06 13.022 4.82411e-06 13V11C4.82411e-06 10.978 3.63201e-06 10.956 2.43992e-06 10.9342C-4.73896e-05 10.0477 -9.01893e-05 9.28387 0.0821453 8.67221C0.170277 8.0167 0.369022 7.38835 0.878684 6.87868C1.38835 6.36902 2.0167 6.17028 2.67221 6.08215C3.28387 5.99991 4.04769 5.99995 4.93417 6ZM2.93871 8.06431C2.50497 8.12263 2.36902 8.21677 2.2929 8.2929C2.21677 8.36902 2.12263 8.50497 2.06431 8.93871C2.00213 9.40122 2 10.0289 2 11V13C2 13.9711 2.00213 14.5988 2.06431 15.0613C2.12263 15.495 2.21677 15.631 2.2929 15.7071C2.36902 15.7832 2.50497 15.8774 2.93871 15.9357C3.40122 15.9979 4.02893 16 5 16H7C7.97108 16 8.59879 15.9979 9.0613 15.9357C9.49504 15.8774 9.63099 15.7832 9.70711 15.7071C9.78324 15.631 9.87738 15.495 9.9357 15.0613C9.99788 14.5988 10 13.9711 10 13V11C10 10.0289 9.99788 9.40122 9.9357 8.93871C9.87738 8.50497 9.78324 8.36902 9.70711 8.2929C9.63099 8.21677 9.49504 8.12263 9.0613 8.06431C8.59879 8.00213 7.97108 8 7 8H5C4.02893 8 3.40122 8.00213 2.93871 8.06431Z" fill="#484848"/>
<path fill-rule="evenodd" clip-rule="evenodd" d="M10.9342 2.43992e-06C10.956 3.63201e-06 10.978 4.82411e-06 11 4.82411e-06H13C13.022 4.82411e-06 13.044 3.63201e-06 13.0658 2.43992e-06C13.9523 -4.73896e-05 14.7161 -9.01893e-05 15.3278 0.0821453C15.9833 0.170277 16.6117 0.369022 17.1213 0.878684C17.631 1.38835 17.8297 2.0167 17.9179 2.67221C18.0001 3.28387 18.0001 4.04769 18 4.93417V7.06584C18.0001 7.95232 18.0001 8.71614 17.9179 9.3278C17.8297 9.98331 17.631 10.6117 17.1213 11.1213C16.6117 11.631 15.9833 11.8297 15.3278 11.9179C14.7161 12.0001 13.9523 12.0001 13.0658 12L12 12V10H13C13.9711 10 14.5988 9.99788 15.0613 9.9357C15.495 9.87738 15.631 9.78324 15.7071 9.70711C15.7832 9.63099 15.8774 9.49504 15.9357 9.0613C15.9979 8.59879 16 7.97108 16 7V5C16 4.02893 15.9979 3.40122 15.9357 2.93871C15.8774 2.50497 15.7832 2.36902 15.7071 2.2929C15.631 2.21677 15.495 2.12263 15.0613 2.06431C14.5988 2.00213 13.9711 2 13 2H11C10.0289 2 9.40122 2.00213 8.93871 2.06431C8.50497 2.12263 8.36902 2.21677 8.2929 2.2929C8.21677 2.36902 8.12263 2.50497 8.06431 2.93871C8.00213 3.40122 8 4.02893 8 5V6H6V5C6 4.97799 6 4.95604 6 4.93417C5.99995 4.04769 5.99991 3.28387 6.08215 2.67221C6.17028 2.0167 6.36902 1.38835 6.87868 0.878684C7.38835 0.369022 8.0167 0.170277 8.67221 0.0821453C9.28387 -9.01893e-05 10.0477 -4.73896e-05 10.9342 2.43992e-06Z" fill="#484848"/>
</svg>
