<svg width="16" height="20" viewBox="0 0 16 20" fill="none" xmlns="http://www.w3.org/2000/svg">
<path fill-rule="evenodd" clip-rule="evenodd" d="M3.42813 2.72687C2.24702 3.20892 2 3.71618 2 4C2 4.28382 2.24702 4.79108 3.42813 5.27313C4.53669 5.72557 6.14767 6 8 6C9.85233 6 11.4633 5.72557 12.5719 5.27313C13.753 4.79108 14 4.28382 14 4C14 3.71618 13.753 3.20892 12.5719 2.72687C11.4633 2.27443 9.85233 2 8 2C6.14767 2 4.53669 2.27443 3.42813 2.72687ZM14 6.80884C13.7809 6.92706 13.5547 7.03217 13.3276 7.12484C11.9027 7.70641 10.0137 8 8 8C5.98634 8 4.09731 7.70641 2.67238 7.12484C2.44531 7.03217 2.21915 6.92706 2 6.80884V10.4291C2.00335 10.4309 2.00672 10.4328 2.0101 10.4346C2.32453 10.6061 2.78854 10.8384 3.37139 11.0715C4.54173 11.5397 6.16295 12 8 12C9.83705 12 11.4583 11.5397 12.6286 11.0715C13.2115 10.8384 13.6755 10.6061 13.9899 10.4346C13.9933 10.4328 13.9967 10.4309 14 10.4291V6.80884ZM14 12.6609C13.8062 12.7485 13.5962 12.8385 13.3714 12.9285C12.0417 13.4603 10.163 14 8 14C5.83705 14 3.95827 13.4603 2.62861 12.9285C2.40377 12.8385 2.19383 12.7485 2 12.6609V16C2 16.2838 2.24702 16.7911 3.42813 17.2731C4.53669 17.7256 6.14767 18 8 18C9.85233 18 11.4633 17.7256 12.5719 17.2731C13.753 16.7911 14 16.2838 14 16V12.6609ZM0 11V4C0 2.41986 1.31998 1.42712 2.67238 0.875158C4.09731 0.293593 5.98634 0 8 0C10.0137 0 11.9027 0.293593 13.3276 0.875158C14.68 1.42712 16 2.41986 16 4V16C16 17.5801 14.68 18.5729 13.3276 19.1248C11.9027 19.7064 10.0137 20 8 20C5.98634 20 4.09731 19.7064 2.67238 19.1248C1.31998 18.5729 0 17.5801 0 16V11Z" fill="#484848"/>
</svg>
