<svg width="20" height="20" viewBox="0 0 20 20" fill="none" xmlns="http://www.w3.org/2000/svg">
<path fill-rule="evenodd" clip-rule="evenodd" d="M8.48132 2.38842C7.47065 2.64212 6.76514 2.98905 6.36843 3.34413C5.95691 3.71247 5.32471 3.67746 4.95638 3.26594C4.58804 2.85442 4.62305 2.22223 5.03457 1.85389C5.77296 1.19299 6.83194 0.740404 7.99437 0.448601C9.17513 0.152197 10.5497 0 12 0C14.0137 0 15.9027 0.293593 17.3276 0.875158C18.68 1.42712 20 2.41986 20 4V16C20 17.5801 18.68 18.5729 17.3276 19.1248C15.9027 19.7064 14.0137 20 12 20C10.4582 20 9.00037 19.828 7.76967 19.4926C6.56516 19.1644 5.46218 18.6482 4.75931 17.8733C4.38826 17.4642 4.41909 16.8318 4.82817 16.4608C5.23725 16.0897 5.86966 16.1206 6.24071 16.5296C6.57078 16.8935 7.24477 17.2766 8.2955 17.563C9.32006 17.8422 10.5958 18 12 18C13.8523 18 15.4633 17.7256 16.5719 17.2731C17.753 16.7911 18 16.2838 18 16V12.6609C17.8062 12.7485 17.5962 12.8385 17.3714 12.9285C16.0417 13.4603 14.163 14 12 14C11.4477 14 11 13.5523 11 13C11 12.4477 11.4477 12 12 12C13.8371 12 15.4583 11.5397 16.6286 11.0715C17.2115 10.8384 17.6755 10.6061 17.9899 10.4346C17.9933 10.4328 17.9967 10.4309 18 10.4291V6.80884C17.7809 6.92706 17.5547 7.03217 17.3276 7.12484C15.9027 7.70641 14.0137 8 12 8C11.4477 8 11 7.55228 11 7C11 6.44772 11.4477 6 12 6C13.8523 6 15.4633 5.72557 16.5719 5.27313C17.753 4.79108 18 4.28382 18 4C18 3.71618 17.753 3.20892 16.5719 2.72687C15.4633 2.27443 13.8523 2 12 2C10.6808 2 9.47365 2.13931 8.48132 2.38842Z" fill="#484848"/>
<path fill-rule="evenodd" clip-rule="evenodd" d="M10 10C10 10.5523 9.55229 11 9.00001 11H3.41421L4.7071 12.2929C5.09763 12.6834 5.09763 13.3166 4.7071 13.7071C4.31658 14.0976 3.68341 14.0976 3.29289 13.7071L0.292892 10.7071C-0.0976307 10.3166 -0.0976307 9.68342 0.292892 9.29289L3.29289 6.29289C3.68341 5.90237 4.31658 5.90237 4.7071 6.29289C5.09762 6.68342 5.09762 7.31658 4.7071 7.70711L3.41421 9H9.00001C9.55229 9 10 9.44771 10 10Z" fill="#484848"/>
</svg>
