<svg width="24" height="24" viewBox="0 0 24 24" fill="none" xmlns="http://www.w3.org/2000/svg">
<path fill-rule="evenodd" clip-rule="evenodd" d="M7.42813 4.72687C6.24702 5.20892 6 5.71618 6 6C6 6.28382 6.24702 6.79108 7.42813 7.27313C8.53669 7.72557 10.1477 8 12 8C13.8523 8 15.4633 7.72557 16.5719 7.27313C17.753 6.79108 18 6.28382 18 6C18 5.71618 17.753 5.20892 16.5719 4.72687C15.4633 4.27443 13.8523 4 12 4C10.1477 4 8.53669 4.27443 7.42813 4.72687ZM18 8.80884C17.7809 8.92706 17.5547 9.03217 17.3276 9.12484C15.9027 9.70641 14.0137 10 12 10C9.98634 10 8.09731 9.70641 6.67238 9.12484C6.44531 9.03217 6.21915 8.92706 6 8.80884V12.4291C6.00335 12.4309 6.00672 12.4328 6.0101 12.4346C6.32453 12.6061 6.78854 12.8384 7.37139 13.0715C8.54173 13.5397 10.163 14 12 14C13.837 14 15.4583 13.5397 16.6286 13.0715C17.2115 12.8384 17.6755 12.6061 17.9899 12.4346C17.9933 12.4328 17.9967 12.4309 18 12.4291V8.80884ZM18 14.6609C17.8062 14.7485 17.5962 14.8385 17.3714 14.9285C16.0417 15.4603 14.163 16 12 16C9.83705 16 7.95827 15.4603 6.62861 14.9285C6.40377 14.8385 6.19383 14.7485 6 14.6609V18C6 18.2838 6.24702 18.7911 7.42813 19.2731C8.53669 19.7256 10.1477 20 12 20C13.8523 20 15.4633 19.7256 16.5719 19.2731C17.753 18.7911 18 18.2838 18 18V14.6609ZM4 13V6C4 4.41986 5.31998 3.42712 6.67238 2.87516C8.09731 2.29359 9.98634 2 12 2C14.0137 2 15.9027 2.29359 17.3276 2.87516C18.68 3.42712 20 4.41986 20 6V18C20 19.5801 18.68 20.5729 17.3276 21.1248C15.9027 21.7064 14.0137 22 12 22C9.98634 22 8.09731 21.7064 6.67238 21.1248C5.31998 20.5729 4 19.5801 4 18V13Z" fill="#484848"/>
</svg>
