<svg width="24" height="24" viewBox="0 0 24 24" fill="none" xmlns="http://www.w3.org/2000/svg">
<path fill-rule="evenodd" clip-rule="evenodd" d="M10.4813 4.38842C9.47065 4.64212 8.76514 4.98905 8.36843 5.34413C7.95691 5.71247 7.32471 5.67746 6.95638 5.26594C6.58804 4.85442 6.62305 4.22223 7.03457 3.85389C7.77296 3.19299 8.83194 2.7404 9.99437 2.4486C11.1751 2.1522 12.5497 2 14 2C16.0137 2 17.9027 2.29359 19.3276 2.87516C20.68 3.42712 22 4.41986 22 6V18C22 19.5801 20.68 20.5729 19.3276 21.1248C17.9027 21.7064 16.0137 22 14 22C12.4582 22 11.0004 21.828 9.76967 21.4926C8.56516 21.1644 7.46218 20.6482 6.75931 19.8733C6.38826 19.4642 6.41909 18.8318 6.82817 18.4608C7.23725 18.0897 7.86966 18.1206 8.24071 18.5296C8.57078 18.8935 9.24477 19.2766 10.2955 19.563C11.3201 19.8422 12.5958 20 14 20C15.8523 20 17.4633 19.7256 18.5719 19.2731C19.753 18.7911 20 18.2838 20 18V14.6609C19.8062 14.7485 19.5962 14.8385 19.3714 14.9285C18.0417 15.4603 16.163 16 14 16C13.4477 16 13 15.5523 13 15C13 14.4477 13.4477 14 14 14C15.8371 14 17.4583 13.5397 18.6286 13.0715C19.2115 12.8384 19.6755 12.6061 19.9899 12.4346C19.9933 12.4328 19.9967 12.4309 20 12.4291V8.80884C19.7809 8.92706 19.5547 9.03217 19.3276 9.12484C17.9027 9.70641 16.0137 10 14 10C13.4477 10 13 9.55228 13 9C13 8.44772 13.4477 8 14 8C15.8523 8 17.4633 7.72557 18.5719 7.27313C19.753 6.79108 20 6.28382 20 6C20 5.71618 19.753 5.20892 18.5719 4.72687C17.4633 4.27443 15.8523 4 14 4C12.6808 4 11.4737 4.13931 10.4813 4.38842Z" fill="#484848"/>
<path fill-rule="evenodd" clip-rule="evenodd" d="M12 12C12 12.5523 11.5523 13 11 13H5.41421L6.7071 14.2929C7.09763 14.6834 7.09763 15.3166 6.7071 15.7071C6.31658 16.0976 5.68341 16.0976 5.29289 15.7071L2.29289 12.7071C1.90237 12.3166 1.90237 11.6834 2.29289 11.2929L5.29289 8.29289C5.68341 7.90237 6.31658 7.90237 6.7071 8.29289C7.09762 8.68342 7.09762 9.31658 6.7071 9.70711L5.41421 11H11C11.5523 11 12 11.4477 12 12Z" fill="#484848"/>
</svg>
