<svg width="24" height="24" viewBox="0 0 24 24" fill="none" xmlns="http://www.w3.org/2000/svg">
<path fill-rule="evenodd" clip-rule="evenodd" d="M14 4H10C8.05784 4 6.80242 4.00425 5.87741 4.12861C5.00993 4.24524 4.73803 4.43354 4.58579 4.58579C4.43354 4.73803 4.24524 5.00993 4.12861 5.87741C4.00425 6.80242 4 8.05784 4 10V14C4 15.9422 4.00425 17.1976 4.12861 18.1226C4.24524 18.9901 4.43354 19.262 4.58579 19.4142C4.73803 19.5665 5.00993 19.7548 5.87741 19.8714C6.80242 19.9958 8.05784 20 10 20H14C15.9422 20 17.1976 19.9958 18.1226 19.8714C18.9901 19.7548 19.262 19.5665 19.4142 19.4142C19.5665 19.262 19.7548 18.9901 19.8714 18.1226C19.9958 17.1976 20 15.9422 20 14V10C20 8.05784 19.9958 6.80242 19.8714 5.87741C19.7548 5.00993 19.5665 4.73803 19.4142 4.58579C19.262 4.43354 18.9901 4.24524 18.1226 4.12861C17.1976 4.00425 15.9422 4 14 4ZM3.17157 3.17157C2 4.34315 2 6.22876 2 10V14C2 17.7712 2 19.6569 3.17157 20.8284C4.34315 22 6.22876 22 10 22H14C17.7712 22 19.6569 22 20.8284 20.8284C22 19.6569 22 17.7712 22 14V10C22 6.22876 22 4.34315 20.8284 3.17157C19.6569 2 17.7712 2 14 2H10C6.22876 2 4.34315 2 3.17157 3.17157Z" fill="#484848"/>
<path fill-rule="evenodd" clip-rule="evenodd" d="M17 3C17 3.55228 16.5523 4 16 4H8C7.44771 4 7 3.55228 7 3C7 2.44772 7.44771 2 8 2H16C16.5523 2 17 2.44772 17 3Z" fill="#484848"/>
<path fill-rule="evenodd" clip-rule="evenodd" d="M22 7.5C22 8.05228 21.5523 8.5 21 8.5H3C2.44772 8.5 2 8.05228 2 7.5C2 6.94772 2.44772 6.5 3 6.5H21C21.5523 6.5 22 6.94772 22 7.5Z" fill="#484848"/>
<path fill-rule="evenodd" clip-rule="evenodd" d="M22 12C22 12.5523 21.5523 13 21 13H3C2.44772 13 2 12.5523 2 12C2 11.4477 2.44772 11 3 11H21C21.5523 11 22 11.4477 22 12Z" fill="#484848"/>
<path fill-rule="evenodd" clip-rule="evenodd" d="M22 16.5C22 17.0523 21.5523 17.5 21 17.5H3C2.44772 17.5 2 17.0523 2 16.5C2 15.9477 2.44772 15.5 3 15.5H21C21.5523 15.5 22 15.9477 22 16.5Z" fill="#484848"/>
<path fill-rule="evenodd" clip-rule="evenodd" d="M17 21C17 21.5523 16.5523 22 16 22H8C7.44771 22 7 21.5523 7 21C7 20.4477 7.44771 20 8 20H16C16.5523 20 17 20.4477 17 21Z" fill="#484848"/>
</svg>
