<svg width="24" height="24" viewBox="0 0 24 24" fill="none" xmlns="http://www.w3.org/2000/svg">
<path fill-rule="evenodd" clip-rule="evenodd" d="M19 4H5C4.50669 4 4.23688 4.00108 4.04183 4.01439C4.03276 4.01501 4.02424 4.01564 4.01626 4.01626C4.01564 4.02424 4.01501 4.03276 4.01439 4.04183C4.00108 4.23688 4 4.50669 4 5C4 5.49331 4.00108 5.76312 4.01439 5.95817C4.01501 5.96724 4.01564 5.97576 4.01626 5.98374C4.02424 5.98436 4.03276 5.98499 4.04183 5.98561C4.23688 5.99892 4.50669 6 5 6H19C19.4933 6 19.7631 5.99892 19.9582 5.98561C19.9672 5.98499 19.9758 5.98436 19.9837 5.98373C19.9844 5.97575 19.985 5.96724 19.9856 5.95817C19.9989 5.76312 20 5.49331 20 5C20 4.50669 19.9989 4.23688 19.9856 4.04183C19.985 4.03276 19.9844 4.02424 19.9837 4.01626C19.9758 4.01564 19.9672 4.01501 19.9582 4.01439C19.7631 4.00108 19.4933 4 19 4ZM2.15224 3.23463C2 3.60218 2 4.06812 2 5C2 5.93188 2 6.39782 2.15224 6.76537C2.35523 7.25542 2.74458 7.64477 3.23463 7.84776C3.60218 8 4.06812 8 5 8H19C19.9319 8 20.3978 8 20.7654 7.84776C21.2554 7.64477 21.6448 7.25542 21.8478 6.76537C22 6.39782 22 5.93188 22 5C22 4.06812 22 3.60218 21.8478 3.23463C21.6448 2.74458 21.2554 2.35523 20.7654 2.15224C20.3978 2 19.9319 2 19 2H5C4.06812 2 3.60218 2 3.23463 2.15224C2.74458 2.35523 2.35523 2.74458 2.15224 3.23463Z" fill="#484848"/>
<path fill-rule="evenodd" clip-rule="evenodd" d="M19 11H5C4.50669 11 4.23688 11.0011 4.04183 11.0144C4.03276 11.015 4.02424 11.0156 4.01626 11.0163C4.01564 11.0242 4.01501 11.0328 4.01439 11.0418C4.00108 11.2369 4 11.5067 4 12C4 12.4933 4.00108 12.7631 4.01439 12.9582C4.01501 12.9672 4.01564 12.9758 4.01626 12.9837C4.02424 12.9844 4.03276 12.985 4.04183 12.9856C4.23688 12.9989 4.50669 13 5 13H19C19.4933 13 19.7631 12.9989 19.9582 12.9856C19.9672 12.985 19.9758 12.9844 19.9837 12.9837C19.9844 12.9758 19.985 12.9672 19.9856 12.9582C19.9989 12.7631 20 12.4933 20 12C20 11.5067 19.9989 11.2369 19.9856 11.0418C19.985 11.0328 19.9844 11.0242 19.9837 11.0163C19.9758 11.0156 19.9672 11.015 19.9582 11.0144C19.7631 11.0011 19.4933 11 19 11ZM2.15224 10.2346C2 10.6022 2 11.0681 2 12C2 12.9319 2 13.3978 2.15224 13.7654C2.35523 14.2554 2.74458 14.6448 3.23463 14.8478C3.60218 15 4.06812 15 5 15H19C19.9319 15 20.3978 15 20.7654 14.8478C21.2554 14.6448 21.6448 14.2554 21.8478 13.7654C22 13.3978 22 12.9319 22 12C22 11.0681 22 10.6022 21.8478 10.2346C21.6448 9.74458 21.2554 9.35523 20.7654 9.15224C20.3978 9 19.9319 9 19 9H5C4.06812 9 3.60218 9 3.23463 9.15224C2.74458 9.35523 2.35523 9.74458 2.15224 10.2346Z" fill="#484848"/>
<path fill-rule="evenodd" clip-rule="evenodd" d="M19 18H5C4.50669 18 4.23688 18.0011 4.04183 18.0144C4.03276 18.015 4.02424 18.0156 4.01626 18.0163C4.01564 18.0242 4.01501 18.0328 4.01439 18.0418C4.00108 18.2369 4 18.5067 4 19C4 19.4933 4.00108 19.7631 4.01439 19.9582C4.01501 19.9672 4.01564 19.9758 4.01626 19.9837C4.02424 19.9844 4.03276 19.985 4.04183 19.9856C4.23688 19.9989 4.50669 20 5 20H19C19.4933 20 19.7631 19.9989 19.9582 19.9856C19.9672 19.985 19.9758 19.9844 19.9837 19.9837C19.9844 19.9758 19.985 19.9672 19.9856 19.9582C19.9989 19.7631 20 19.4933 20 19C20 18.5067 19.9989 18.2369 19.9856 18.0418C19.985 18.0328 19.9844 18.0242 19.9837 18.0163C19.9758 18.0156 19.9672 18.015 19.9582 18.0144C19.7631 18.0011 19.4933 18 19 18ZM2.15224 17.2346C2 17.6022 2 18.0681 2 19C2 19.9319 2 20.3978 2.15224 20.7654C2.35523 21.2554 2.74458 21.6448 3.23463 21.8478C3.60218 22 4.06812 22 5 22H19C19.9319 22 20.3978 22 20.7654 21.8478C21.2554 21.6448 21.6448 21.2554 21.8478 20.7654C22 20.3978 22 19.9319 22 19C22 18.0681 22 17.6022 21.8478 17.2346C21.6448 16.7446 21.2554 16.3552 20.7654 16.1522C20.3978 16 19.9319 16 19 16H5C4.06812 16 3.60218 16 3.23463 16.1522C2.74458 16.3552 2.35523 16.7446 2.15224 17.2346Z" fill="#484848"/>
</svg>
