<svg width="20" height="20" viewBox="0 0 20 20" fill="none" xmlns="http://www.w3.org/2000/svg">
<path fill-rule="evenodd" clip-rule="evenodd" d="M16 2H4C3.00065 2 2.45234 2.00425 2.07195 2.05539C2.067 2.05606 2.06214 2.05672 2.05739 2.05739C2.05672 2.06214 2.05606 2.067 2.05539 2.07195C2.00425 2.45234 2 3.00065 2 4V5C2 5.99935 2.00425 6.54766 2.05539 6.92805C2.05606 6.933 2.05672 6.93786 2.05739 6.94261C2.06214 6.94328 2.067 6.94394 2.07195 6.94461C2.45234 6.99575 3.00065 7 4 7H16C16.9993 7 17.5477 6.99575 17.928 6.94461C17.933 6.94394 17.9379 6.94328 17.9426 6.94261C17.9433 6.93786 17.9439 6.933 17.9446 6.92805C17.9958 6.54766 18 5.99935 18 5V4C18 3.00065 17.9958 2.45234 17.9446 2.07195C17.9439 2.067 17.9433 2.06214 17.9426 2.05739C17.9379 2.05672 17.933 2.05606 17.928 2.05539C17.5477 2.00425 16.9993 2 16 2ZM18.1381 2.09681L18.1363 2.09614L18.1381 2.09681ZM17.9039 1.86367L17.9032 1.86187L17.9039 1.86367ZM17.9032 7.13813L17.9039 7.1363L17.9032 7.13813ZM2.09681 7.13813L2.09614 7.13632L2.09681 7.13813ZM1.86187 2.09681L1.86368 2.09614L1.86187 2.09681ZM0.585786 0.585786C0 1.17157 0 2.11438 0 4V5C0 6.88562 0 7.82843 0.585786 8.41421C1.17157 9 2.11438 9 4 9H16C17.8856 9 18.8284 9 19.4142 8.41421C20 7.82843 20 6.88562 20 5V4C20 2.11438 20 1.17157 19.4142 0.585786C18.8284 0 17.8856 0 16 0H4C2.11438 0 1.17157 0 0.585786 0.585786Z" fill="#484848"/>
<path fill-rule="evenodd" clip-rule="evenodd" d="M16 13H4C3.00065 13 2.45234 13.0042 2.07195 13.0554C2.067 13.0561 2.06214 13.0567 2.05739 13.0574C2.05672 13.0621 2.05606 13.067 2.05539 13.072C2.00425 13.4523 2 14.0007 2 15V16C2 16.9993 2.00425 17.5477 2.05539 17.928C2.05606 17.933 2.05672 17.9379 2.05739 17.9426C2.06214 17.9433 2.067 17.9439 2.07195 17.9446C2.45234 17.9958 3.00065 18 4 18H16C16.9993 18 17.5477 17.9958 17.928 17.9446C17.933 17.9439 17.9379 17.9433 17.9426 17.9426C17.9433 17.9379 17.9439 17.933 17.9446 17.928C17.9958 17.5477 18 16.9993 18 16V15C18 14.0007 17.9958 13.4523 17.9446 13.072C17.9439 13.067 17.9433 13.0621 17.9426 13.0574C17.9379 13.0567 17.933 13.0561 17.928 13.0554C17.5477 13.0042 16.9993 13 16 13ZM18.1381 13.0968L18.1363 13.0961L18.1381 13.0968ZM17.9039 12.8637L17.9032 12.8619L17.9039 12.8637ZM17.9032 18.1381L17.9039 18.1363L17.9032 18.1381ZM2.09681 18.1381L2.09614 18.1363L2.09681 18.1381ZM1.86187 13.0968L1.86368 13.0961L1.86187 13.0968ZM0.585786 11.5858C0 12.1716 0 13.1144 0 15V16C0 17.8856 0 18.8284 0.585786 19.4142C1.17157 20 2.11438 20 4 20H16C17.8856 20 18.8284 20 19.4142 19.4142C20 18.8284 20 17.8856 20 16V15C20 13.1144 20 12.1716 19.4142 11.5858C18.8284 11 17.8856 11 16 11H4C2.11438 11 1.17157 11 0.585786 11.5858Z" fill="#484848"/>
</svg>
