<svg width="24" height="24" viewBox="0 0 24 24" fill="none" xmlns="http://www.w3.org/2000/svg">
<path fill-rule="evenodd" clip-rule="evenodd" d="M18 4H6C5.00065 4 4.45234 4.00425 4.07195 4.05539C4.067 4.05606 4.06214 4.05672 4.05739 4.05739C4.05672 4.06214 4.05606 4.067 4.05539 4.07195C4.00425 4.45234 4 5.00065 4 6V7C4 7.99935 4.00425 8.54766 4.05539 8.92805C4.05606 8.933 4.05672 8.93786 4.05739 8.94261C4.06214 8.94328 4.067 8.94394 4.07195 8.94461C4.45234 8.99575 5.00065 9 6 9H18C18.9993 9 19.5477 8.99575 19.928 8.94461C19.933 8.94394 19.9379 8.94328 19.9426 8.94261C19.9433 8.93786 19.9439 8.933 19.9446 8.92805C19.9958 8.54766 20 7.99935 20 7V6C20 5.00065 19.9958 4.45234 19.9446 4.07195C19.9439 4.067 19.9433 4.06214 19.9426 4.05739C19.9379 4.05672 19.933 4.05606 19.928 4.05539C19.5477 4.00425 18.9993 4 18 4ZM20.1381 4.09681L20.1363 4.09614ZM19.9039 3.86367L19.9032 3.86187ZM19.9032 9.13813L19.9039 9.1363ZM4.09681 9.13813L4.09614 9.13632ZM3.86187 4.09681L3.86368 4.09614ZM2.58579 2.58579C2 3.17157 2 4.11438 2 6V7C2 8.88562 2 9.82843 2.58579 10.4142C3.17157 11 4.11438 11 6 11H18C19.8856 11 20.8284 11 21.4142 10.4142C22 9.82843 22 8.88562 22 7V6C22 4.11438 22 3.17157 21.4142 2.58579C20.8284 2 19.8856 2 18 2H6C4.11438 2 3.17157 2 2.58579 2.58579Z" fill="#484848"/>
<path fill-rule="evenodd" clip-rule="evenodd" d="M18 15H6C5.00065 15 4.45234 15.0042 4.07195 15.0554C4.067 15.0561 4.06214 15.0567 4.05739 15.0574C4.05672 15.0621 4.05606 15.067 4.05539 15.072C4.00425 15.4523 4 16.0007 4 17V18C4 18.9993 4.00425 19.5477 4.05539 19.928C4.05606 19.933 4.05672 19.9379 4.05739 19.9426C4.06214 19.9433 4.067 19.9439 4.07195 19.9446C4.45234 19.9958 5.00065 20 6 20H18C18.9993 20 19.5477 19.9958 19.928 19.9446C19.933 19.9439 19.9379 19.9433 19.9426 19.9426C19.9433 19.9379 19.9439 19.933 19.9446 19.928C19.9958 19.5477 20 18.9993 20 18V17C20 16.0007 19.9958 15.4523 19.9446 15.072C19.9439 15.067 19.9433 15.0621 19.9426 15.0574C19.9379 15.0567 19.933 15.0561 19.928 15.0554C19.5477 15.0042 18.9993 15 18 15ZM20.1381 15.0968L20.1363 15.0961ZM19.9039 14.8637L19.9032 14.8619ZM19.9032 20.1381L19.9039 20.1363ZM4.09681 20.1381L4.09614 20.1363ZM3.86187 15.0968L3.86368 15.0961ZM2.58579 13.5858C2 14.1716 2 15.1144 2 17V18C2 19.8856 2 20.8284 2.58579 21.4142C3.17157 22 4.11438 22 6 22H18C19.8856 22 20.8284 22 21.4142 21.4142C22 20.8284 22 19.8856 22 18V17C22 15.1144 22 14.1716 21.4142 13.5858C20.8284 13 19.8856 13 18 13H6C4.11438 13 3.17157 13 2.58579 13.5858Z" fill="#484848"/>
</svg>
