<svg width="20" height="20" viewBox="0 0 20 20" fill="none" xmlns="http://www.w3.org/2000/svg">
<path fill-rule="evenodd" clip-rule="evenodd" d="M12 2H8C6.05784 2 4.80242 2.00425 3.87741 2.12861C3.00993 2.24524 2.73803 2.43354 2.58579 2.58579C2.43354 2.73803 2.24524 3.00993 2.12861 3.87741C2.00425 4.80242 2 6.05784 2 8V12C2 13.9422 2.00425 15.1976 2.12861 16.1226C2.24524 16.9901 2.43354 17.262 2.58579 17.4142C2.73803 17.5665 3.00993 17.7548 3.87741 17.8714C4.80242 17.9958 6.05784 18 8 18H12C13.9422 18 15.1976 17.9958 16.1226 17.8714C16.9901 17.7548 17.262 17.5665 17.4142 17.4142C17.5665 17.262 17.7548 16.9901 17.8714 16.1226C17.9958 15.1976 18 13.9422 18 12V8C18 6.05784 17.9958 4.80242 17.8714 3.87741C17.7548 3.00993 17.5665 2.73803 17.4142 2.58579C17.262 2.43354 16.9901 2.24524 16.1226 2.12861C15.1976 2.00425 13.9422 2 12 2ZM1.17157 1.17157C0 2.34315 0 4.22876 0 8V12C0 15.7712 0 17.6569 1.17157 18.8284C2.34315 20 4.22876 20 8 20H12C15.7712 20 17.6569 20 18.8284 18.8284C20 17.6569 20 15.7712 20 12V8C20 4.22876 20 2.34315 18.8284 1.17157C17.6569 0 15.7712 0 12 0H8C4.22876 0 2.34315 0 1.17157 1.17157Z" fill="#484848"/>
<path fill-rule="evenodd" clip-rule="evenodd" d="M15 1C15 1.55228 14.5523 2 14 2H6C5.44771 2 5 1.55228 5 1C5 0.447715 5.44771 0 6 0H14C14.5523 0 15 0.447715 15 1Z" fill="#484848"/>
<path fill-rule="evenodd" clip-rule="evenodd" d="M20 5.5C20 6.05228 19.5523 6.5 19 6.5H1C0.447716 6.5 0 6.05228 0 5.5C0 4.94772 0.447716 4.5 1 4.5H19C19.5523 4.5 20 4.94772 20 5.5Z" fill="#484848"/>
<path fill-rule="evenodd" clip-rule="evenodd" d="M20 10C20 10.5523 19.5523 11 19 11H1C0.447716 11 0 10.5523 0 10C0 9.44771 0.447716 9 1 9H19C19.5523 9 20 9.44771 20 10Z" fill="#484848"/>
<path fill-rule="evenodd" clip-rule="evenodd" d="M20 14.5C20 15.0523 19.5523 15.5 19 15.5H1C0.447716 15.5 0 15.0523 0 14.5C0 13.9477 0.447716 13.5 1 13.5H19C19.5523 13.5 20 13.9477 20 14.5Z" fill="#484848"/>
<path fill-rule="evenodd" clip-rule="evenodd" d="M15 19C15 19.5523 14.5523 20 14 20H6C5.44771 20 5 19.5523 5 19C5 18.4477 5.44771 18 6 18H14C14.5523 18 15 18.4477 15 19Z" fill="#484848"/>
</svg>
