<svg width="20" height="20" viewBox="0 0 20 20" fill="none" xmlns="http://www.w3.org/2000/svg">
<path fill-rule="evenodd" clip-rule="evenodd" d="M17 2H3C2.50669 2 2.23688 2.00108 2.04183 2.01439C2.03276 2.01501 2.02424 2.01564 2.01626 2.01626C2.01564 2.02424 2.01501 2.03276 2.01439 2.04183C2.00108 2.23688 2 2.50669 2 3C2 3.49331 2.00108 3.76312 2.01439 3.95817C2.01501 3.96724 2.01564 3.97576 2.01626 3.98374C2.02424 3.98436 2.03276 3.98499 2.04183 3.98561C2.23688 3.99892 2.50669 4 3 4H17C17.4933 4 17.7631 3.99892 17.9582 3.98561C17.9672 3.98499 17.9758 3.98436 17.9837 3.98373C17.9844 3.97575 17.985 3.96724 17.9856 3.95817C17.9989 3.76312 18 3.49331 18 3C18 2.50669 17.9989 2.23688 17.9856 2.04183C17.985 2.03276 17.9844 2.02424 17.9837 2.01626C17.9758 2.01564 17.9672 2.01501 17.9582 2.01439C17.7631 2.00108 17.4933 2 17 2ZM0.152241 1.23463C0 1.60218 0 2.06812 0 3C0 3.93188 0 4.39782 0.152241 4.76537C0.355229 5.25542 0.744577 5.64477 1.23463 5.84776C1.60218 6 2.06812 6 3 6H17C17.9319 6 18.3978 6 18.7654 5.84776C19.2554 5.64477 19.6448 5.25542 19.8478 4.76537C20 4.39782 20 3.93188 20 3C20 2.06812 20 1.60218 19.8478 1.23463C19.6448 0.744577 19.2554 0.355229 18.7654 0.152241C18.3978 0 17.9319 0 17 0H3C2.06812 0 1.60218 0 1.23463 0.152241C0.744577 0.355229 0.355229 0.744577 0.152241 1.23463Z" fill="#484848"/>
<path fill-rule="evenodd" clip-rule="evenodd" d="M17 9H3C2.50669 9 2.23688 9.00108 2.04183 9.01439C2.03276 9.01501 2.02424 9.01564 2.01626 9.01626C2.01564 9.02424 2.01501 9.03276 2.01439 9.04183C2.00108 9.23688 2 9.50669 2 10C2 10.4933 2.00108 10.7631 2.01439 10.9582C2.01501 10.9672 2.01564 10.9758 2.01626 10.9837C2.02424 10.9844 2.03276 10.985 2.04183 10.9856C2.23688 10.9989 2.50669 11 3 11H17C17.4933 11 17.7631 10.9989 17.9582 10.9856C17.9672 10.985 17.9758 10.9844 17.9837 10.9837C17.9844 10.9758 17.985 10.9672 17.9856 10.9582C17.9989 10.7631 18 10.4933 18 10C18 9.50669 17.9989 9.23688 17.9856 9.04183C17.985 9.03276 17.9844 9.02424 17.9837 9.01626C17.9758 9.01564 17.9672 9.01501 17.9582 9.01439C17.7631 9.00108 17.4933 9 17 9ZM0.152241 8.23463C0 8.60218 0 9.06812 0 10C0 10.9319 0 11.3978 0.152241 11.7654C0.355229 12.2554 0.744577 12.6448 1.23463 12.8478C1.60218 13 2.06812 13 3 13H17C17.9319 13 18.3978 13 18.7654 12.8478C19.2554 12.6448 19.6448 12.2554 19.8478 11.7654C20 11.3978 20 10.9319 20 10C20 9.06812 20 8.60218 19.8478 8.23463C19.6448 7.74458 19.2554 7.35523 18.7654 7.15224C18.3978 7 17.9319 7 17 7H3C2.06812 7 1.60218 7 1.23463 7.15224C0.744577 7.35523 0.355229 7.74458 0.152241 8.23463Z" fill="#484848"/>
<path fill-rule="evenodd" clip-rule="evenodd" d="M17 16H3C2.50669 16 2.23688 16.0011 2.04183 16.0144C2.03276 16.015 2.02424 16.0156 2.01626 16.0163C2.01564 16.0242 2.01501 16.0328 2.01439 16.0418C2.00108 16.2369 2 16.5067 2 17C2 17.4933 2.00108 17.7631 2.01439 17.9582C2.01501 17.9672 2.01564 17.9758 2.01626 17.9837C2.02424 17.9844 2.03276 17.985 2.04183 17.9856C2.23688 17.9989 2.50669 18 3 18H17C17.4933 18 17.7631 17.9989 17.9582 17.9856C17.9672 17.985 17.9758 17.9844 17.9837 17.9837C17.9844 17.9758 17.985 17.9672 17.9856 17.9582C17.9989 17.7631 18 17.4933 18 17C18 16.5067 17.9989 16.2369 17.9856 16.0418C17.985 16.0328 17.9844 16.0242 17.9837 16.0163C17.9758 16.0156 17.9672 16.015 17.9582 16.0144C17.7631 16.0011 17.4933 16 17 16ZM0.152241 15.2346C0 15.6022 0 16.0681 0 17C0 17.9319 0 18.3978 0.152241 18.7654C0.355229 19.2554 0.744577 19.6448 1.23463 19.8478C1.60218 20 2.06812 20 3 20H17C17.9319 20 18.3978 20 18.7654 19.8478C19.2554 19.6448 19.6448 19.2554 19.8478 18.7654C20 18.3978 20 17.9319 20 17C20 16.0681 20 15.6022 19.8478 15.2346C19.6448 14.7446 19.2554 14.3552 18.7654 14.1522C18.3978 14 17.9319 14 17 14H3C2.06812 14 1.60218 14 1.23463 14.1522C0.744577 14.3552 0.355229 14.7446 0.152241 15.2346Z" fill="#484848"/>
</svg>
