<svg width="24" height="24" viewBox="0 0 24 24" fill="none" xmlns="http://www.w3.org/2000/svg">
<path fill-rule="evenodd" clip-rule="evenodd" d="M3.00002 15.9999C3.55231 15.9999 4.00002 16.4476 4.00002 16.9999L4.00002 17.0598C4.00002 18.0009 4.00202 18.6091 4.06071 19.0586C4.11587 19.481 4.20537 19.6156 4.27645 19.6901C4.28729 19.7015 4.2984 19.7126 4.30977 19.7235C4.38428 19.7945 4.51888 19.884 4.94135 19.9392C5.39083 19.9979 5.99905 19.9999 6.94008 19.9998L6.99999 19.9998C7.55227 19.9998 8 20.4475 8.00001 20.9998C8.00002 21.5521 7.55231 21.9998 7.00003 21.9998L6.94011 21.9998C6.9188 21.9998 6.89756 21.9998 6.87639 21.9998C6.01723 21.9999 5.27686 22 4.68244 21.9224C4.04634 21.8393 3.43432 21.6524 2.92928 21.1706C2.89518 21.1381 2.86185 21.1047 2.82932 21.0707C2.34753 20.5656 2.16059 19.9536 2.07754 19.3175C1.99993 18.7231 1.99997 17.9827 2.00002 17.1235C2.00002 17.1024 2.00002 17.0811 2.00002 17.0598L2.00002 16.9999C2.00002 16.4476 2.44774 15.9999 3.00002 15.9999Z" fill="#484848"/>
<path fill-rule="evenodd" clip-rule="evenodd" d="M3.00002 7.99993C3.55231 7.99992 4.00002 7.55221 4.00002 6.99992L4.00002 6.94002C4.00002 5.99899 4.00202 5.39078 4.06071 4.94129C4.11587 4.51883 4.20537 4.38423 4.27645 4.30971C4.28729 4.29835 4.2984 4.28724 4.30977 4.2764C4.38428 4.20531 4.51888 4.11582 4.94135 4.06066C5.39083 4.00198 5.99905 3.99999 6.94008 4.00001L6.99999 4.00001C7.55227 4.00002 8 3.55231 8.00001 3.00003C8.00002 2.44774 7.55231 2.00002 7.00003 2.00001L6.94011 2.00001C6.9188 2.00001 6.89756 2.00001 6.87639 2C6.01723 1.99994 5.27686 1.99989 4.68244 2.07749C4.04634 2.16054 3.43432 2.34746 2.92928 2.82924C2.89518 2.86177 2.86185 2.8951 2.82932 2.9292C2.34753 3.43424 2.16059 4.04625 2.07754 4.68235C1.99993 5.27678 1.99997 6.01714 2.00002 6.87631C2.00002 6.89748 2.00002 6.91871 2.00002 6.94002L2.00002 6.99993C2.00002 7.55221 2.44774 7.99993 3.00002 7.99993Z" fill="#484848"/>
<path fill-rule="evenodd" clip-rule="evenodd" d="M21 15.9999C20.4477 15.9999 20 16.4476 20 16.9999V17.0598C20 18.0009 19.998 18.6091 19.9393 19.0586C19.8841 19.481 19.7946 19.6156 19.7236 19.6901C19.7127 19.7015 19.7016 19.7126 19.6902 19.7235C19.6157 19.7945 19.4811 19.884 19.0587 19.9392C18.6092 19.9979 18.001 19.9999 17.0599 19.9998L17 19.9998C16.4477 19.9998 16 20.4475 16 20.9998C16 21.5521 16.4477 21.9998 17 21.9998L17.0599 21.9998C17.0812 21.9998 17.1025 21.9998 17.1236 21.9998C17.9828 21.9999 18.7232 22 19.3176 21.9224C19.9537 21.8393 20.5657 21.6524 21.0707 21.1706C21.1048 21.1381 21.1382 21.1047 21.1707 21.0707C21.6525 20.5656 21.8394 19.9536 21.9225 19.3175C22.0001 18.7231 22 17.9827 22 17.1235C22 17.1024 22 17.0811 22 17.0598V16.9999C22 16.4476 21.5523 15.9999 21 15.9999Z" fill="#484848"/>
<path fill-rule="evenodd" clip-rule="evenodd" d="M21 7.99993C20.4477 7.99992 20 7.55221 20 6.99992V6.94002C20 5.99899 19.998 5.39078 19.9393 4.94129C19.8841 4.51883 19.7946 4.38423 19.7236 4.30971C19.7127 4.29835 19.7016 4.28724 19.6902 4.2764C19.6157 4.20531 19.4811 4.11582 19.0587 4.06066C18.6092 4.00198 18.001 3.99999 17.0599 4.00001L17 4.00001C16.4477 4.00002 16 3.55231 16 3.00003C16 2.44774 16.4477 2.00002 17 2.00001L17.0599 2.00001C17.0812 2.00001 17.1025 2.00001 17.1236 2C17.9828 1.99994 18.7232 1.99989 19.3176 2.07749C19.9537 2.16054 20.5657 2.34746 21.0707 2.82924C21.1048 2.86177 21.1382 2.8951 21.1707 2.9292C21.6525 3.43424 21.8394 4.04625 21.9225 4.68235C22.0001 5.27678 22 6.01714 22 6.87631C22 6.89748 22 6.91871 22 6.94002V6.99993C22 7.55221 21.5523 7.99993 21 7.99993Z" fill="#484848"/>
<path fill-rule="evenodd" clip-rule="evenodd" d="M16.5547 12.1679C17.0142 12.4742 17.1384 13.0951 16.8321 13.5546C16.323 14.3182 15.6025 14.9355 14.7566 15.3585C13.911 15.7813 12.9608 15.9999 12 15.9999C11.0393 15.9999 10.089 15.7813 9.24339 15.3585C8.39752 14.9355 7.67701 14.3182 7.16796 13.5546C6.8616 13.0951 6.98578 12.4742 7.44531 12.1679C7.90483 11.8615 8.5257 11.9857 8.83206 12.4452C9.13377 12.8978 9.5794 13.2904 10.1378 13.5696C10.6965 13.8489 11.3392 13.9999 12 13.9999C12.6608 13.9999 13.3035 13.8489 13.8622 13.5696C14.4206 13.2904 14.8662 12.8978 15.168 12.4452C15.4743 11.9857 16.0952 11.8615 16.5547 12.1679Z" fill="#484848"/>
<path d="M9.00001 8.99993C9.00001 9.55222 8.55229 9.99993 8.00001 9.99993C7.44772 9.99993 7.00001 9.55222 7.00001 8.99993C7.00001 8.44765 7.44772 7.99993 8.00001 7.99993C8.55229 7.99993 9.00001 8.44765 9.00001 8.99993Z" fill="#484848"/>
<path d="M17 8.99993C17 9.55222 16.5523 9.99993 16 9.99993C15.4477 9.99993 15 9.55222 15 8.99993C15 8.44765 15.4477 7.99993 16 7.99993C16.5523 7.99993 17 8.44765 17 8.99993Z" fill="#484848"/>
</svg>
