<svg width="20" height="20" viewBox="0 0 20 20" fill="none" xmlns="http://www.w3.org/2000/svg">
<path fill-rule="evenodd" clip-rule="evenodd" d="M1.00001 13.9999C1.55229 13.9999 2.00001 14.4476 2.00001 14.9999L2.00001 15.0598C2 16.0009 2.002 16.6091 2.06069 17.0586C2.11585 17.481 2.20535 17.6156 2.27643 17.6901C2.28728 17.7015 2.29839 17.7126 2.30975 17.7235C2.38427 17.7945 2.51887 17.884 2.94133 17.9392C3.39082 17.9979 3.99903 17.9999 4.94006 17.9998L4.99997 17.9998C5.55226 17.9998 5.99998 18.4475 5.99999 18.9998C6 19.5521 5.5523 19.9998 5.00001 19.9998L4.9401 19.9998C4.91879 19.9998 4.89755 19.9998 4.87638 19.9998C4.01721 19.9999 3.27685 20 2.68242 19.9224C2.04632 19.8393 1.43431 19.6524 0.929262 19.1706C0.895162 19.1381 0.861834 19.1047 0.829304 19.0707C0.347514 18.5656 0.160578 17.9536 0.0775238 17.3175C-9.00626e-05 16.7231 -4.72632e-05 15.9827 2.5067e-06 15.1235C3.7584e-06 15.1024 5.01009e-06 15.0811 5.0697e-06 15.0598L5.24851e-06 14.9999C7.15586e-06 14.4476 0.447724 13.9999 1.00001 13.9999Z" fill="#484848"/>
<path fill-rule="evenodd" clip-rule="evenodd" d="M1.00001 5.99993C1.55229 5.99992 2.00001 5.55221 2.00001 4.99992L2.00001 4.94002C2 3.99899 2.002 3.39078 2.06069 2.94129C2.11585 2.51883 2.20535 2.38423 2.27643 2.30971C2.28728 2.29835 2.29839 2.28724 2.30975 2.2764C2.38427 2.20531 2.51887 2.11582 2.94133 2.06066C3.39082 2.00198 3.99903 1.99999 4.94006 2.00001L4.99997 2.00001C5.55226 2.00002 5.99998 1.55231 5.99999 1.00003C6 0.447742 5.5523 1.83836e-05 5.00001 8.36999e-06L4.9401 6.93948e-06C4.91879 6.46264e-06 4.89755 5.03213e-06 4.87638 3.60162e-06C4.01721 -5.98177e-05 3.27685 -0.000113703 2.68242 0.0774911C2.04632 0.160536 1.43431 0.347461 0.929262 0.829244C0.895162 0.861774 0.861834 0.895101 0.829304 0.929201C0.347514 1.43424 0.160578 2.04625 0.0775238 2.68235C-9.00626e-05 3.27678 -4.72632e-05 4.01714 2.5067e-06 4.87631C3.7584e-06 4.89748 5.01009e-06 4.91871 5.0697e-06 4.94002L5.24851e-06 4.99993C7.15586e-06 5.55221 0.447724 5.99993 1.00001 5.99993Z" fill="#484848"/>
<path fill-rule="evenodd" clip-rule="evenodd" d="M19 13.9999C18.4477 13.9999 18 14.4476 18 14.9999V15.0598C18 16.0009 17.998 16.6091 17.9393 17.0586C17.8841 17.481 17.7946 17.6156 17.7236 17.6901C17.7127 17.7015 17.7016 17.7126 17.6902 17.7235C17.6157 17.7945 17.4811 17.884 17.0587 17.9392C16.6092 17.9979 16.0009 17.9999 15.0599 17.9998L15 17.9998C14.4477 17.9998 14 18.4475 14 18.9998C14 19.5521 14.4477 19.9998 15 19.9998L15.0599 19.9998C15.0812 19.9998 15.1024 19.9998 15.1236 19.9998C15.9828 19.9999 16.7231 20 17.3176 19.9224C17.9537 19.8393 18.5657 19.6524 19.0707 19.1706C19.1048 19.1381 19.1382 19.1047 19.1707 19.0707C19.6525 18.5656 19.8394 17.9536 19.9225 17.3175C20.0001 16.7231 20 15.9827 20 15.1235C20 15.1024 20 15.0811 20 15.0598V14.9999C20 14.4476 19.5523 13.9999 19 13.9999Z" fill="#484848"/>
<path fill-rule="evenodd" clip-rule="evenodd" d="M19 5.99993C18.4477 5.99992 18 5.55221 18 4.99992V4.94002C18 3.99899 17.998 3.39078 17.9393 2.94129C17.8841 2.51883 17.7946 2.38423 17.7236 2.30971C17.7127 2.29835 17.7016 2.28724 17.6902 2.2764C17.6157 2.20531 17.4811 2.11582 17.0587 2.06066C16.6092 2.00198 16.0009 1.99999 15.0599 2.00001L15 2.00001C14.4477 2.00002 14 1.55231 14 1.00003C14 0.447742 14.4477 1.83836e-05 15 8.36999e-06L15.0599 6.93948e-06C15.0812 6.46264e-06 15.1024 5.03213e-06 15.1236 3.60162e-06C15.9828 -5.98177e-05 16.7231 -0.000113703 17.3176 0.0774911C17.9537 0.160536 18.5657 0.347461 19.0707 0.829244C19.1048 0.861774 19.1382 0.895101 19.1707 0.929201C19.6525 1.43424 19.8394 2.04625 19.9225 2.68235C20.0001 3.27678 20 4.01714 20 4.87631C20 4.89748 20 4.91871 20 4.94002V4.99993C20 5.55221 19.5523 5.99993 19 5.99993Z" fill="#484848"/>
<path fill-rule="evenodd" clip-rule="evenodd" d="M14.5547 10.1679C15.0142 10.4742 15.1384 11.0951 14.832 11.5546C14.323 12.3182 13.6025 12.9355 12.7566 13.3585C11.911 13.7813 10.9607 13.9999 9.99999 13.9999C9.03924 13.9999 8.08901 13.7813 7.24338 13.3585C6.3975 12.9355 5.677 12.3182 5.16794 11.5546C4.86159 11.0951 4.98576 10.4742 5.44529 10.1679C5.90482 9.86153 6.52569 9.9857 6.83204 10.4452C7.13376 10.8978 7.57938 11.2904 8.1378 11.5696C8.69647 11.8489 9.33921 11.9999 9.99999 11.9999C10.6608 11.9999 11.3035 11.8489 11.8622 11.5696C12.4206 11.2904 12.8662 10.8978 13.1679 10.4452C13.4743 9.9857 14.0952 9.86153 14.5547 10.1679Z" fill="#484848"/>
<path d="M6.99999 6.99993C6.99999 7.55222 6.55228 7.99993 5.99999 7.99993C5.44771 7.99993 4.99999 7.55222 4.99999 6.99993C4.99999 6.44765 5.44771 5.99993 5.99999 5.99993C6.55228 5.99993 6.99999 6.44765 6.99999 6.99993Z" fill="#484848"/>
<path d="M15 6.99993C15 7.55222 14.5523 7.99993 14 7.99993C13.4477 7.99993 13 7.55222 13 6.99993C13 6.44765 13.4477 5.99993 14 5.99993C14.5523 5.99993 15 6.44765 15 6.99993Z" fill="#484848"/>
</svg>
