<svg width="18" height="18" viewBox="0 0 18 18" fill="none" xmlns="http://www.w3.org/2000/svg">
<path fill-rule="evenodd" clip-rule="evenodd" d="M14 2C12.8954 2 12 2.89543 12 4C12 5.10457 12.8954 6 14 6C15.1046 6 16 5.10457 16 4C16 2.89543 15.1046 2 14 2ZM10 4C10 1.79086 11.7909 0 14 0C16.2091 0 18 1.79086 18 4C18 6.20914 16.2091 8 14 8C11.7909 8 10 6.20914 10 4Z" fill="#484848"/>
<path fill-rule="evenodd" clip-rule="evenodd" d="M4 12C2.89543 12 2 12.8954 2 14C2 15.1046 2.89543 16 4 16C5.10457 16 6 15.1046 6 14C6 12.8954 5.10457 12 4 12ZM0 14C0 11.7909 1.79086 10 4 10C6.20914 10 8 11.7909 8 14C8 16.2091 6.20914 18 4 18C1.79086 18 0 16.2091 0 14Z" fill="#484848"/>
<path fill-rule="evenodd" clip-rule="evenodd" d="M10 14C10 13.4477 10.4477 13 11 13H17C17.5523 13 18 13.4477 18 14C18 14.5523 17.5523 15 17 15H11C10.4477 15 10 14.5523 10 14Z" fill="#484848"/>
<path fill-rule="evenodd" clip-rule="evenodd" d="M0 4C0 3.44772 0.447715 3 1 3H7C7.55228 3 8 3.44772 8 4C8 4.55228 7.55228 5 7 5H1C0.447715 5 0 4.55228 0 4Z" fill="#484848"/>
</svg>
