<svg width="24" height="24" viewBox="0 0 24 24" fill="none" xmlns="http://www.w3.org/2000/svg">
<mask id="path-1-outside-1_40000045_45730" maskUnits="userSpaceOnUse" x="1.25" y="1.25" width="21" height="21" fill="black">
<rect fill="white" x="1.25" y="1.25" width="21" height="21"/>
<path d="M17.4313 12.1427C17.4362 15.2175 16.8695 18.2633 15.7632 21.107C15.7095 21.2472 15.6175 21.3674 15.4989 21.4521C15.3803 21.5369 15.2405 21.5823 15.0974 21.5826C15.0048 21.5816 14.9132 21.5623 14.8274 21.5255C14.7399 21.4875 14.6603 21.4317 14.5932 21.3612C14.5261 21.2906 14.4728 21.2068 14.4363 21.1145C14.3999 21.0222 14.381 20.9231 14.3808 20.8231C14.3806 20.7231 14.3991 20.624 14.4352 20.5315C15.4692 17.8702 15.9981 15.0198 15.9917 12.1427C15.9917 11.9409 16.0675 11.7473 16.2025 11.6046C16.3375 11.4619 16.5206 11.3817 16.7115 11.3817C16.9024 11.3817 17.0855 11.4619 17.2205 11.6046C17.3554 11.7473 17.4313 11.9409 17.4313 12.1427ZM12.3928 8.33781C12.899 8.33818 13.3994 8.45129 13.8616 8.66976C14.3237 8.88823 14.7371 9.20716 15.0749 9.60578C15.1374 9.68206 15.2137 9.74442 15.2993 9.78923C15.3848 9.83404 15.478 9.8604 15.5733 9.86678C15.6686 9.87315 15.7641 9.85942 15.8543 9.82638C15.9446 9.79334 16.0277 9.74165 16.0988 9.67432C16.17 9.60699 16.2277 9.52537 16.2687 9.4342C16.3098 9.34304 16.3332 9.24416 16.3377 9.14332C16.3422 9.04249 16.3277 8.94171 16.2951 8.84685C16.2624 8.752 16.2122 8.66497 16.1474 8.59083C15.467 7.78704 14.5718 7.22056 13.5803 6.96634C12.5887 6.71212 11.5475 6.78213 10.5945 7.16711C9.64138 7.55209 8.82131 8.23391 8.24273 9.12236C7.66415 10.0108 7.35432 11.064 7.35424 12.1427C7.35415 14.3338 6.82786 16.4891 5.82469 18.4065C5.77885 18.4939 5.74975 18.59 5.73904 18.6894C5.72834 18.7887 5.73625 18.8893 5.76231 18.9854C5.78838 19.0815 5.8321 19.1712 5.89097 19.2495C5.94983 19.3277 6.0227 19.3929 6.10541 19.4414C6.18812 19.4899 6.27905 19.5206 6.373 19.5319C6.46696 19.5433 6.56211 19.5349 6.65301 19.5073C6.74391 19.4798 6.82878 19.4336 6.90279 19.3713C6.97679 19.3091 7.03848 19.232 7.08432 19.1446C8.20543 17.0012 8.79362 14.592 8.79382 12.1427C8.79382 11.1336 9.17299 10.1658 9.84792 9.45223C10.5229 8.73868 11.4383 8.33781 12.3928 8.33781ZM12.3928 2.25001C11.3302 2.24866 10.2753 2.4391 9.27338 2.81313C9.09661 2.883 8.95286 3.02348 8.8731 3.20431C8.79334 3.38514 8.78395 3.59185 8.84695 3.77993C8.90994 3.96801 9.04029 4.1224 9.20991 4.20987C9.37953 4.29734 9.57486 4.31087 9.75384 4.24757C10.9483 3.8023 12.2263 3.66628 13.4807 3.85094C14.7352 4.03559 15.9294 4.53552 16.9634 5.30881C17.9974 6.0821 18.8409 7.10622 19.4233 8.29528C20.0056 9.48434 20.3099 10.8037 20.3104 12.1427C20.3113 14.1342 20.1019 16.1197 19.686 18.0621C19.6437 18.2585 19.6768 18.4646 19.778 18.6352C19.8792 18.8058 20.0402 18.9271 20.2258 18.9724C20.2784 18.9853 20.3321 18.9917 20.386 18.9915C20.5492 18.9914 20.7075 18.9328 20.8351 18.8251C20.9626 18.7174 21.0517 18.5671 21.0878 18.3989C21.5275 16.3459 21.7496 14.2476 21.75 12.1427C21.7474 9.51983 20.7607 7.0052 19.0064 5.15056C17.2522 3.29593 14.8736 2.25278 12.3928 2.25001ZM7.11491 5.90459C7.18539 5.83795 7.24277 5.75728 7.28376 5.6672C7.32475 5.57711 7.34856 5.47937 7.35382 5.37956C7.35908 5.27975 7.3457 5.17982 7.31444 5.08548C7.28317 4.99113 7.23463 4.90422 7.1716 4.82971C7.10856 4.7552 7.03226 4.69454 6.94705 4.65121C6.86184 4.60787 6.7694 4.5827 6.67499 4.57714C6.58058 4.57157 6.48606 4.58572 6.39682 4.61877C6.30758 4.65183 6.22538 4.70314 6.1549 4.76979C5.17434 5.69821 4.38979 6.83459 3.85232 8.10493C3.31486 9.37527 3.03655 10.7511 3.03552 12.1427C3.03753 13.3465 2.79193 14.5364 2.31573 15.6299C2.27626 15.7207 2.25411 15.8188 2.25052 15.9187C2.24693 16.0185 2.26198 16.1182 2.29482 16.2119C2.36113 16.4012 2.49584 16.5548 2.66932 16.6391C2.8428 16.7234 3.04084 16.7313 3.21987 16.6612C3.39889 16.5911 3.54424 16.4487 3.62394 16.2653C4.18705 14.9726 4.47748 13.5659 4.47509 12.1427C4.47605 10.9652 4.71161 9.80115 5.16645 8.72634C5.62129 7.65152 6.28519 6.69006 7.11491 5.90459ZM11.1259 19.0619C11.04 19.0201 10.9472 18.9967 10.8527 18.9929C10.7583 18.9891 10.664 19.005 10.5754 19.0397C10.4867 19.0744 10.4054 19.1273 10.3361 19.1952C10.2668 19.2631 10.2108 19.3449 10.1713 19.4357C9.99856 19.8352 9.81142 20.2338 9.60538 20.619C9.55935 20.7065 9.5301 20.8027 9.51931 20.9021C9.50851 21.0016 9.51637 21.1023 9.54245 21.1985C9.56852 21.2947 9.6123 21.3846 9.67127 21.4629C9.73024 21.5412 9.80324 21.6064 9.8861 21.6549C9.9925 21.7177 10.1124 21.7505 10.2343 21.75C10.3628 21.7501 10.489 21.7137 10.5997 21.6448C10.7105 21.5759 10.8018 21.4769 10.8641 21.3581C11.0836 20.9386 11.2906 20.502 11.4795 20.072C11.5191 19.9812 11.5414 19.883 11.5451 19.783C11.5487 19.683 11.5337 19.5833 11.5009 19.4894C11.468 19.3956 11.418 19.3095 11.3537 19.2362C11.2893 19.1628 11.2119 19.1036 11.1259 19.0619ZM12.3928 11.3817C12.2019 11.3817 12.0188 11.4619 11.8838 11.6046C11.7488 11.7473 11.673 11.9409 11.673 12.1427C11.6735 13.6185 11.4985 15.0886 11.152 16.5183C11.1045 16.7137 11.1323 16.921 11.2293 17.0948C11.3263 17.2685 11.4846 17.3944 11.6694 17.4448C11.7282 17.4606 11.7886 17.4686 11.8493 17.4686C12.0088 17.4684 12.1637 17.4123 12.2898 17.309C12.4158 17.2057 12.5058 17.0611 12.5457 16.8978C12.9229 15.3439 13.1134 13.746 13.1125 12.1417C13.1123 11.9401 13.0364 11.7468 12.9014 11.6043C12.7664 11.4618 12.5835 11.3817 12.3928 11.3817Z"/>
</mask>
<path d="M17.4313 12.1427C17.4362 15.2175 16.8695 18.2633 15.7632 21.107C15.7095 21.2472 15.6175 21.3674 15.4989 21.4521C15.3803 21.5369 15.2405 21.5823 15.0974 21.5826C15.0048 21.5816 14.9132 21.5623 14.8274 21.5255C14.7399 21.4875 14.6603 21.4317 14.5932 21.3612C14.5261 21.2906 14.4728 21.2068 14.4363 21.1145C14.3999 21.0222 14.381 20.9231 14.3808 20.8231C14.3806 20.7231 14.3991 20.624 14.4352 20.5315C15.4692 17.8702 15.9981 15.0198 15.9917 12.1427C15.9917 11.9409 16.0675 11.7473 16.2025 11.6046C16.3375 11.4619 16.5206 11.3817 16.7115 11.3817C16.9024 11.3817 17.0855 11.4619 17.2205 11.6046C17.3554 11.7473 17.4313 11.9409 17.4313 12.1427ZM12.3928 8.33781C12.899 8.33818 13.3994 8.45129 13.8616 8.66976C14.3237 8.88823 14.7371 9.20716 15.0749 9.60578C15.1374 9.68206 15.2137 9.74442 15.2993 9.78923C15.3848 9.83404 15.478 9.8604 15.5733 9.86678C15.6686 9.87315 15.7641 9.85942 15.8543 9.82638C15.9446 9.79334 16.0277 9.74165 16.0988 9.67432C16.17 9.60699 16.2277 9.52537 16.2687 9.4342C16.3098 9.34304 16.3332 9.24416 16.3377 9.14332C16.3422 9.04249 16.3277 8.94171 16.2951 8.84685C16.2624 8.752 16.2122 8.66497 16.1474 8.59083C15.467 7.78704 14.5718 7.22056 13.5803 6.96634C12.5887 6.71212 11.5475 6.78213 10.5945 7.16711C9.64138 7.55209 8.82131 8.23391 8.24273 9.12236C7.66415 10.0108 7.35432 11.064 7.35424 12.1427C7.35415 14.3338 6.82786 16.4891 5.82469 18.4065C5.77885 18.4939 5.74975 18.59 5.73904 18.6894C5.72834 18.7887 5.73625 18.8893 5.76231 18.9854C5.78838 19.0815 5.8321 19.1712 5.89097 19.2495C5.94983 19.3277 6.0227 19.3929 6.10541 19.4414C6.18812 19.4899 6.27905 19.5206 6.373 19.5319C6.46696 19.5433 6.56211 19.5349 6.65301 19.5073C6.74391 19.4798 6.82878 19.4336 6.90279 19.3713C6.97679 19.3091 7.03848 19.232 7.08432 19.1446C8.20543 17.0012 8.79362 14.592 8.79382 12.1427C8.79382 11.1336 9.17299 10.1658 9.84792 9.45223C10.5229 8.73868 11.4383 8.33781 12.3928 8.33781ZM12.3928 2.25001C11.3302 2.24866 10.2753 2.4391 9.27338 2.81313C9.09661 2.883 8.95286 3.02348 8.8731 3.20431C8.79334 3.38514 8.78395 3.59185 8.84695 3.77993C8.90994 3.96801 9.04029 4.1224 9.20991 4.20987C9.37953 4.29734 9.57486 4.31087 9.75384 4.24757C10.9483 3.8023 12.2263 3.66628 13.4807 3.85094C14.7352 4.03559 15.9294 4.53552 16.9634 5.30881C17.9974 6.0821 18.8409 7.10622 19.4233 8.29528C20.0056 9.48434 20.3099 10.8037 20.3104 12.1427C20.3113 14.1342 20.1019 16.1197 19.686 18.0621C19.6437 18.2585 19.6768 18.4646 19.778 18.6352C19.8792 18.8058 20.0402 18.9271 20.2258 18.9724C20.2784 18.9853 20.3321 18.9917 20.386 18.9915C20.5492 18.9914 20.7075 18.9328 20.8351 18.8251C20.9626 18.7174 21.0517 18.5671 21.0878 18.3989C21.5275 16.3459 21.7496 14.2476 21.75 12.1427C21.7474 9.51983 20.7607 7.0052 19.0064 5.15056C17.2522 3.29593 14.8736 2.25278 12.3928 2.25001ZM7.11491 5.90459C7.18539 5.83795 7.24277 5.75728 7.28376 5.6672C7.32475 5.57711 7.34856 5.47937 7.35382 5.37956C7.35908 5.27975 7.3457 5.17982 7.31444 5.08548C7.28317 4.99113 7.23463 4.90422 7.1716 4.82971C7.10856 4.7552 7.03226 4.69454 6.94705 4.65121C6.86184 4.60787 6.7694 4.5827 6.67499 4.57714C6.58058 4.57157 6.48606 4.58572 6.39682 4.61877C6.30758 4.65183 6.22538 4.70314 6.1549 4.76979C5.17434 5.69821 4.38979 6.83459 3.85232 8.10493C3.31486 9.37527 3.03655 10.7511 3.03552 12.1427C3.03753 13.3465 2.79193 14.5364 2.31573 15.6299C2.27626 15.7207 2.25411 15.8188 2.25052 15.9187C2.24693 16.0185 2.26198 16.1182 2.29482 16.2119C2.36113 16.4012 2.49584 16.5548 2.66932 16.6391C2.8428 16.7234 3.04084 16.7313 3.21987 16.6612C3.39889 16.5911 3.54424 16.4487 3.62394 16.2653C4.18705 14.9726 4.47748 13.5659 4.47509 12.1427C4.47605 10.9652 4.71161 9.80115 5.16645 8.72634C5.62129 7.65152 6.28519 6.69006 7.11491 5.90459ZM11.1259 19.0619C11.04 19.0201 10.9472 18.9967 10.8527 18.9929C10.7583 18.9891 10.664 19.005 10.5754 19.0397C10.4867 19.0744 10.4054 19.1273 10.3361 19.1952C10.2668 19.2631 10.2108 19.3449 10.1713 19.4357C9.99856 19.8352 9.81142 20.2338 9.60538 20.619C9.55935 20.7065 9.5301 20.8027 9.51931 20.9021C9.50851 21.0016 9.51637 21.1023 9.54245 21.1985C9.56852 21.2947 9.6123 21.3846 9.67127 21.4629C9.73024 21.5412 9.80324 21.6064 9.8861 21.6549C9.9925 21.7177 10.1124 21.7505 10.2343 21.75C10.3628 21.7501 10.489 21.7137 10.5997 21.6448C10.7105 21.5759 10.8018 21.4769 10.8641 21.3581C11.0836 20.9386 11.2906 20.502 11.4795 20.072C11.5191 19.9812 11.5414 19.883 11.5451 19.783C11.5487 19.683 11.5337 19.5833 11.5009 19.4894C11.468 19.3956 11.418 19.3095 11.3537 19.2362C11.2893 19.1628 11.2119 19.1036 11.1259 19.0619ZM12.3928 11.3817C12.2019 11.3817 12.0188 11.4619 11.8838 11.6046C11.7488 11.7473 11.673 11.9409 11.673 12.1427C11.6735 13.6185 11.4985 15.0886 11.152 16.5183C11.1045 16.7137 11.1323 16.921 11.2293 17.0948C11.3263 17.2685 11.4846 17.3944 11.6694 17.4448C11.7282 17.4606 11.7886 17.4686 11.8493 17.4686C12.0088 17.4684 12.1637 17.4123 12.2898 17.309C12.4158 17.2057 12.5058 17.0611 12.5457 16.8978C12.9229 15.3439 13.1134 13.746 13.1125 12.1417C13.1123 11.9401 13.0364 11.7468 12.9014 11.6043C12.7664 11.4618 12.5835 11.3817 12.3928 11.3817Z" fill="#484848"/>
<path d="M17.4313 12.1427C17.4362 15.2175 16.8695 18.2633 15.7632 21.107C15.7095 21.2472 15.6175 21.3674 15.4989 21.4521C15.3803 21.5369 15.2405 21.5823 15.0974 21.5826C15.0048 21.5816 14.9132 21.5623 14.8274 21.5255C14.7399 21.4875 14.6603 21.4317 14.5932 21.3612C14.5261 21.2906 14.4728 21.2068 14.4363 21.1145C14.3999 21.0222 14.381 20.9231 14.3808 20.8231C14.3806 20.7231 14.3991 20.624 14.4352 20.5315C15.4692 17.8702 15.9981 15.0198 15.9917 12.1427C15.9917 11.9409 16.0675 11.7473 16.2025 11.6046C16.3375 11.4619 16.5206 11.3817 16.7115 11.3817C16.9024 11.3817 17.0855 11.4619 17.2205 11.6046C17.3554 11.7473 17.4313 11.9409 17.4313 12.1427ZM12.3928 8.33781C12.899 8.33818 13.3994 8.45129 13.8616 8.66976C14.3237 8.88823 14.7371 9.20716 15.0749 9.60578C15.1374 9.68206 15.2137 9.74442 15.2993 9.78923C15.3848 9.83404 15.478 9.8604 15.5733 9.86678C15.6686 9.87315 15.7641 9.85942 15.8543 9.82638C15.9446 9.79334 16.0277 9.74165 16.0988 9.67432C16.17 9.60699 16.2277 9.52537 16.2687 9.4342C16.3098 9.34304 16.3332 9.24416 16.3377 9.14332C16.3422 9.04249 16.3277 8.94171 16.2951 8.84685C16.2624 8.752 16.2122 8.66497 16.1474 8.59083C15.467 7.78704 14.5718 7.22056 13.5803 6.96634C12.5887 6.71212 11.5475 6.78213 10.5945 7.16711C9.64138 7.55209 8.82131 8.23391 8.24273 9.12236C7.66415 10.0108 7.35432 11.064 7.35424 12.1427C7.35415 14.3338 6.82786 16.4891 5.82469 18.4065C5.77885 18.4939 5.74975 18.59 5.73904 18.6894C5.72834 18.7887 5.73625 18.8893 5.76231 18.9854C5.78838 19.0815 5.8321 19.1712 5.89097 19.2495C5.94983 19.3277 6.0227 19.3929 6.10541 19.4414C6.18812 19.4899 6.27905 19.5206 6.373 19.5319C6.46696 19.5433 6.56211 19.5349 6.65301 19.5073C6.74391 19.4798 6.82878 19.4336 6.90279 19.3713C6.97679 19.3091 7.03848 19.232 7.08432 19.1446C8.20543 17.0012 8.79362 14.592 8.79382 12.1427C8.79382 11.1336 9.17299 10.1658 9.84792 9.45223C10.5229 8.73868 11.4383 8.33781 12.3928 8.33781ZM12.3928 2.25001C11.3302 2.24866 10.2753 2.4391 9.27338 2.81313C9.09661 2.883 8.95286 3.02348 8.8731 3.20431C8.79334 3.38514 8.78395 3.59185 8.84695 3.77993C8.90994 3.96801 9.04029 4.1224 9.20991 4.20987C9.37953 4.29734 9.57486 4.31087 9.75384 4.24757C10.9483 3.8023 12.2263 3.66628 13.4807 3.85094C14.7352 4.03559 15.9294 4.53552 16.9634 5.30881C17.9974 6.0821 18.8409 7.10622 19.4233 8.29528C20.0056 9.48434 20.3099 10.8037 20.3104 12.1427C20.3113 14.1342 20.1019 16.1197 19.686 18.0621C19.6437 18.2585 19.6768 18.4646 19.778 18.6352C19.8792 18.8058 20.0402 18.9271 20.2258 18.9724C20.2784 18.9853 20.3321 18.9917 20.386 18.9915C20.5492 18.9914 20.7075 18.9328 20.8351 18.8251C20.9626 18.7174 21.0517 18.5671 21.0878 18.3989C21.5275 16.3459 21.7496 14.2476 21.75 12.1427C21.7474 9.51983 20.7607 7.0052 19.0064 5.15056C17.2522 3.29593 14.8736 2.25278 12.3928 2.25001ZM7.11491 5.90459C7.18539 5.83795 7.24277 5.75728 7.28376 5.6672C7.32475 5.57711 7.34856 5.47937 7.35382 5.37956C7.35908 5.27975 7.3457 5.17982 7.31444 5.08548C7.28317 4.99113 7.23463 4.90422 7.1716 4.82971C7.10856 4.7552 7.03226 4.69454 6.94705 4.65121C6.86184 4.60787 6.7694 4.5827 6.67499 4.57714C6.58058 4.57157 6.48606 4.58572 6.39682 4.61877C6.30758 4.65183 6.22538 4.70314 6.1549 4.76979C5.17434 5.69821 4.38979 6.83459 3.85232 8.10493C3.31486 9.37527 3.03655 10.7511 3.03552 12.1427C3.03753 13.3465 2.79193 14.5364 2.31573 15.6299C2.27626 15.7207 2.25411 15.8188 2.25052 15.9187C2.24693 16.0185 2.26198 16.1182 2.29482 16.2119C2.36113 16.4012 2.49584 16.5548 2.66932 16.6391C2.8428 16.7234 3.04084 16.7313 3.21987 16.6612C3.39889 16.5911 3.54424 16.4487 3.62394 16.2653C4.18705 14.9726 4.47748 13.5659 4.47509 12.1427C4.47605 10.9652 4.71161 9.80115 5.16645 8.72634C5.62129 7.65152 6.28519 6.69006 7.11491 5.90459ZM11.1259 19.0619C11.04 19.0201 10.9472 18.9967 10.8527 18.9929C10.7583 18.9891 10.664 19.005 10.5754 19.0397C10.4867 19.0744 10.4054 19.1273 10.3361 19.1952C10.2668 19.2631 10.2108 19.3449 10.1713 19.4357C9.99856 19.8352 9.81142 20.2338 9.60538 20.619C9.55935 20.7065 9.5301 20.8027 9.51931 20.9021C9.50851 21.0016 9.51637 21.1023 9.54245 21.1985C9.56852 21.2947 9.6123 21.3846 9.67127 21.4629C9.73024 21.5412 9.80324 21.6064 9.8861 21.6549C9.9925 21.7177 10.1124 21.7505 10.2343 21.75C10.3628 21.7501 10.489 21.7137 10.5997 21.6448C10.7105 21.5759 10.8018 21.4769 10.8641 21.3581C11.0836 20.9386 11.2906 20.502 11.4795 20.072C11.5191 19.9812 11.5414 19.883 11.5451 19.783C11.5487 19.683 11.5337 19.5833 11.5009 19.4894C11.468 19.3956 11.418 19.3095 11.3537 19.2362C11.2893 19.1628 11.2119 19.1036 11.1259 19.0619ZM12.3928 11.3817C12.2019 11.3817 12.0188 11.4619 11.8838 11.6046C11.7488 11.7473 11.673 11.9409 11.673 12.1427C11.6735 13.6185 11.4985 15.0886 11.152 16.5183C11.1045 16.7137 11.1323 16.921 11.2293 17.0948C11.3263 17.2685 11.4846 17.3944 11.6694 17.4448C11.7282 17.4606 11.7886 17.4686 11.8493 17.4686C12.0088 17.4684 12.1637 17.4123 12.2898 17.309C12.4158 17.2057 12.5058 17.0611 12.5457 16.8978C12.9229 15.3439 13.1134 13.746 13.1125 12.1417C13.1123 11.9401 13.0364 11.7468 12.9014 11.6043C12.7664 11.4618 12.5835 11.3817 12.3928 11.3817Z" stroke="#484848" stroke-width="0.5" mask="url(#path-1-outside-1_40000045_45730)"/>
</svg>
