<svg width="20" height="20" viewBox="0 0 20 20" fill="none" xmlns="http://www.w3.org/2000/svg">
<mask id="path-1-outside-1_387_11634" maskUnits="userSpaceOnUse" x="-0.75" y="-0.75" width="21" height="21" fill="black">
<rect fill="white" x="-0.75" y="-0.75" width="21" height="21"/>
<path d="M15.4313 10.1427C15.4362 13.2175 14.8695 16.2633 13.7632 19.107C13.7095 19.2472 13.6175 19.3674 13.4989 19.4521C13.3803 19.5369 13.2405 19.5823 13.0974 19.5826C13.0048 19.5816 12.9132 19.5623 12.8274 19.5255C12.7399 19.4875 12.6603 19.4317 12.5932 19.3612C12.5261 19.2906 12.4728 19.2068 12.4363 19.1145C12.3999 19.0222 12.3811 18.9231 12.3808 18.8231C12.3806 18.7231 12.3991 18.624 12.4352 18.5315C13.4692 15.8702 13.9981 13.0198 13.9917 10.1427C13.9917 9.94086 14.0675 9.7473 14.2025 9.60459C14.3375 9.46188 14.5206 9.38171 14.7115 9.38171C14.9024 9.38171 15.0855 9.46188 15.2205 9.60459C15.3554 9.7473 15.4313 9.94086 15.4313 10.1427ZM10.3928 6.33781C10.899 6.33818 11.3994 6.45129 11.8616 6.66976C12.3237 6.88823 12.7371 7.20716 13.0749 7.60578C13.1374 7.68206 13.2137 7.74442 13.2993 7.78923C13.3848 7.83404 13.478 7.8604 13.5733 7.86678C13.6686 7.87315 13.7641 7.85942 13.8543 7.82638C13.9446 7.79334 14.0277 7.74165 14.0988 7.67432C14.17 7.60699 14.2277 7.52537 14.2687 7.4342C14.3098 7.34304 14.3332 7.24416 14.3377 7.14332C14.3422 7.04249 14.3277 6.94171 14.2951 6.84685C14.2624 6.752 14.2122 6.66497 14.1474 6.59083C13.467 5.78704 12.5718 5.22056 11.5803 4.96634C10.5887 4.71212 9.54755 4.78213 8.59447 5.16711C7.64138 5.55209 6.82131 6.23391 6.24273 7.12236C5.66415 8.01081 5.35432 9.06403 5.35424 10.1427C5.35415 12.3338 4.82786 14.4891 3.82469 16.4065C3.77885 16.4939 3.74975 16.59 3.73904 16.6894C3.72834 16.7887 3.73625 16.8893 3.76231 16.9854C3.78838 17.0815 3.8321 17.1712 3.89097 17.2495C3.94983 17.3277 4.0227 17.3929 4.10541 17.4414C4.18812 17.4899 4.27905 17.5206 4.373 17.5319C4.46696 17.5433 4.56211 17.5349 4.65301 17.5073C4.74391 17.4798 4.82878 17.4336 4.90279 17.3713C4.97679 17.3091 5.03848 17.232 5.08432 17.1446C6.20543 15.0012 6.79362 12.592 6.79382 10.1427C6.79382 9.13357 7.17299 8.16578 7.84792 7.45223C8.52286 6.73868 9.43826 6.33781 10.3928 6.33781ZM10.3928 0.250007C9.33023 0.248656 8.27528 0.439099 7.27338 0.813129C7.09661 0.883002 6.95286 1.02348 6.8731 1.20431C6.79334 1.38514 6.78395 1.59185 6.84695 1.77993C6.90994 1.96801 7.04029 2.1224 7.20991 2.20987C7.37953 2.29734 7.57486 2.31087 7.75384 2.24757C8.94829 1.8023 10.2263 1.66628 11.4807 1.85094C12.7352 2.03559 13.9294 2.53552 14.9634 3.30881C15.9974 4.0821 16.8409 5.10622 17.4233 6.29528C18.0056 7.48433 18.3099 8.80368 18.3104 10.1427C18.3113 12.1342 18.1019 14.1197 17.686 16.0621C17.6437 16.2585 17.6768 16.4646 17.778 16.6352C17.8792 16.8058 18.0402 16.9271 18.2258 16.9724C18.2784 16.9853 18.3321 16.9917 18.386 16.9915C18.5492 16.9914 18.7075 16.9328 18.8351 16.8251C18.9626 16.7174 19.0517 16.5671 19.0878 16.3989C19.5275 14.3459 19.7496 12.2476 19.75 10.1427C19.7474 7.51983 18.7607 5.0052 17.0064 3.15056C15.2522 1.29593 12.8736 0.252777 10.3928 0.250007ZM5.11491 3.90459C5.18539 3.83795 5.24277 3.75728 5.28376 3.6672C5.32475 3.57711 5.34856 3.47937 5.35382 3.37956C5.35908 3.27975 5.3457 3.17982 5.31444 3.08548C5.28317 2.99113 5.23463 2.90422 5.1716 2.82971C5.10856 2.7552 5.03226 2.69454 4.94705 2.65121C4.86184 2.60787 4.7694 2.5827 4.67499 2.57714C4.58058 2.57157 4.48606 2.58572 4.39682 2.61877C4.30758 2.65183 4.22538 2.70314 4.1549 2.76979C3.17434 3.69821 2.38979 4.83459 1.85232 6.10493C1.31486 7.37527 1.03655 8.75106 1.03552 10.1427C1.03753 11.3465 0.791927 12.5364 0.315728 13.6299C0.276265 13.7207 0.254106 13.8188 0.250519 13.9187C0.246931 14.0185 0.261984 14.1182 0.294818 14.2119C0.36113 14.4012 0.495844 14.5548 0.669324 14.6391C0.842804 14.7234 1.04084 14.7313 1.21987 14.6612C1.39889 14.5911 1.54424 14.4487 1.62394 14.2653C2.18705 12.9726 2.47748 11.5659 2.47509 10.1427C2.47605 8.96521 2.71161 7.80115 3.16645 6.72634C3.62129 5.65152 4.28519 4.69006 5.11491 3.90459ZM9.12593 17.0619C9.04003 17.0201 8.9472 16.9967 8.85274 16.9929C8.75828 16.9891 8.66403 17.005 8.57538 17.0397C8.48674 17.0744 8.40543 17.1273 8.3361 17.1952C8.26677 17.2631 8.21077 17.3449 8.17131 17.4357C7.99856 17.8352 7.81142 18.2337 7.60538 18.619C7.55935 18.7065 7.5301 18.8027 7.51931 18.9021C7.50851 19.0016 7.51637 19.1023 7.54245 19.1985C7.56852 19.2947 7.6123 19.3846 7.67127 19.4629C7.73024 19.5412 7.80324 19.6064 7.8861 19.6549C7.9925 19.7177 8.11243 19.7505 8.23429 19.75C8.36281 19.7501 8.48899 19.7137 8.59975 19.6448C8.7105 19.5759 8.80178 19.4769 8.86411 19.3581C9.08364 18.9386 9.29058 18.502 9.47953 18.072C9.51914 17.9812 9.54141 17.883 9.54507 17.783C9.54874 17.683 9.53372 17.5833 9.50087 17.4894C9.46803 17.3956 9.41801 17.3095 9.35367 17.2362C9.28934 17.1628 9.21195 17.1036 9.12593 17.0619ZM10.3928 9.38171C10.2019 9.38171 10.0188 9.46188 9.88379 9.60459C9.74881 9.7473 9.67297 9.94086 9.67297 10.1427C9.6735 11.6185 9.49847 13.0886 9.15202 14.5183C9.10447 14.7137 9.13226 14.921 9.22927 15.0948C9.32629 15.2685 9.48459 15.3944 9.66937 15.4448C9.72819 15.4606 9.78864 15.4686 9.84932 15.4686C10.0088 15.4684 10.1637 15.4123 10.2898 15.309C10.4158 15.2057 10.5058 15.0611 10.5457 14.8978C10.9229 13.3439 11.1134 11.746 11.1125 10.1417C11.1123 9.94007 11.0364 9.74676 10.9014 9.60426C10.7664 9.46175 10.5835 9.38171 10.3928 9.38171Z"/>
</mask>
<path d="M15.4313 10.1427C15.4362 13.2175 14.8695 16.2633 13.7632 19.107C13.7095 19.2472 13.6175 19.3674 13.4989 19.4521C13.3803 19.5369 13.2405 19.5823 13.0974 19.5826C13.0048 19.5816 12.9132 19.5623 12.8274 19.5255C12.7399 19.4875 12.6603 19.4317 12.5932 19.3612C12.5261 19.2906 12.4728 19.2068 12.4363 19.1145C12.3999 19.0222 12.3811 18.9231 12.3808 18.8231C12.3806 18.7231 12.3991 18.624 12.4352 18.5315C13.4692 15.8702 13.9981 13.0198 13.9917 10.1427C13.9917 9.94086 14.0675 9.7473 14.2025 9.60459C14.3375 9.46188 14.5206 9.38171 14.7115 9.38171C14.9024 9.38171 15.0855 9.46188 15.2205 9.60459C15.3554 9.7473 15.4313 9.94086 15.4313 10.1427ZM10.3928 6.33781C10.899 6.33818 11.3994 6.45129 11.8616 6.66976C12.3237 6.88823 12.7371 7.20716 13.0749 7.60578C13.1374 7.68206 13.2137 7.74442 13.2993 7.78923C13.3848 7.83404 13.478 7.8604 13.5733 7.86678C13.6686 7.87315 13.7641 7.85942 13.8543 7.82638C13.9446 7.79334 14.0277 7.74165 14.0988 7.67432C14.17 7.60699 14.2277 7.52537 14.2687 7.4342C14.3098 7.34304 14.3332 7.24416 14.3377 7.14332C14.3422 7.04249 14.3277 6.94171 14.2951 6.84685C14.2624 6.752 14.2122 6.66497 14.1474 6.59083C13.467 5.78704 12.5718 5.22056 11.5803 4.96634C10.5887 4.71212 9.54755 4.78213 8.59447 5.16711C7.64138 5.55209 6.82131 6.23391 6.24273 7.12236C5.66415 8.01081 5.35432 9.06403 5.35424 10.1427C5.35415 12.3338 4.82786 14.4891 3.82469 16.4065C3.77885 16.4939 3.74975 16.59 3.73904 16.6894C3.72834 16.7887 3.73625 16.8893 3.76231 16.9854C3.78838 17.0815 3.8321 17.1712 3.89097 17.2495C3.94983 17.3277 4.0227 17.3929 4.10541 17.4414C4.18812 17.4899 4.27905 17.5206 4.373 17.5319C4.46696 17.5433 4.56211 17.5349 4.65301 17.5073C4.74391 17.4798 4.82878 17.4336 4.90279 17.3713C4.97679 17.3091 5.03848 17.232 5.08432 17.1446C6.20543 15.0012 6.79362 12.592 6.79382 10.1427C6.79382 9.13357 7.17299 8.16578 7.84792 7.45223C8.52286 6.73868 9.43826 6.33781 10.3928 6.33781ZM10.3928 0.250007C9.33023 0.248656 8.27528 0.439099 7.27338 0.813129C7.09661 0.883002 6.95286 1.02348 6.8731 1.20431C6.79334 1.38514 6.78395 1.59185 6.84695 1.77993C6.90994 1.96801 7.04029 2.1224 7.20991 2.20987C7.37953 2.29734 7.57486 2.31087 7.75384 2.24757C8.94829 1.8023 10.2263 1.66628 11.4807 1.85094C12.7352 2.03559 13.9294 2.53552 14.9634 3.30881C15.9974 4.0821 16.8409 5.10622 17.4233 6.29528C18.0056 7.48433 18.3099 8.80368 18.3104 10.1427C18.3113 12.1342 18.1019 14.1197 17.686 16.0621C17.6437 16.2585 17.6768 16.4646 17.778 16.6352C17.8792 16.8058 18.0402 16.9271 18.2258 16.9724C18.2784 16.9853 18.3321 16.9917 18.386 16.9915C18.5492 16.9914 18.7075 16.9328 18.8351 16.8251C18.9626 16.7174 19.0517 16.5671 19.0878 16.3989C19.5275 14.3459 19.7496 12.2476 19.75 10.1427C19.7474 7.51983 18.7607 5.0052 17.0064 3.15056C15.2522 1.29593 12.8736 0.252777 10.3928 0.250007ZM5.11491 3.90459C5.18539 3.83795 5.24277 3.75728 5.28376 3.6672C5.32475 3.57711 5.34856 3.47937 5.35382 3.37956C5.35908 3.27975 5.3457 3.17982 5.31444 3.08548C5.28317 2.99113 5.23463 2.90422 5.1716 2.82971C5.10856 2.7552 5.03226 2.69454 4.94705 2.65121C4.86184 2.60787 4.7694 2.5827 4.67499 2.57714C4.58058 2.57157 4.48606 2.58572 4.39682 2.61877C4.30758 2.65183 4.22538 2.70314 4.1549 2.76979C3.17434 3.69821 2.38979 4.83459 1.85232 6.10493C1.31486 7.37527 1.03655 8.75106 1.03552 10.1427C1.03753 11.3465 0.791927 12.5364 0.315728 13.6299C0.276265 13.7207 0.254106 13.8188 0.250519 13.9187C0.246931 14.0185 0.261984 14.1182 0.294818 14.2119C0.36113 14.4012 0.495844 14.5548 0.669324 14.6391C0.842804 14.7234 1.04084 14.7313 1.21987 14.6612C1.39889 14.5911 1.54424 14.4487 1.62394 14.2653C2.18705 12.9726 2.47748 11.5659 2.47509 10.1427C2.47605 8.96521 2.71161 7.80115 3.16645 6.72634C3.62129 5.65152 4.28519 4.69006 5.11491 3.90459ZM9.12593 17.0619C9.04003 17.0201 8.9472 16.9967 8.85274 16.9929C8.75828 16.9891 8.66403 17.005 8.57538 17.0397C8.48674 17.0744 8.40543 17.1273 8.3361 17.1952C8.26677 17.2631 8.21077 17.3449 8.17131 17.4357C7.99856 17.8352 7.81142 18.2337 7.60538 18.619C7.55935 18.7065 7.5301 18.8027 7.51931 18.9021C7.50851 19.0016 7.51637 19.1023 7.54245 19.1985C7.56852 19.2947 7.6123 19.3846 7.67127 19.4629C7.73024 19.5412 7.80324 19.6064 7.8861 19.6549C7.9925 19.7177 8.11243 19.7505 8.23429 19.75C8.36281 19.7501 8.48899 19.7137 8.59975 19.6448C8.7105 19.5759 8.80178 19.4769 8.86411 19.3581C9.08364 18.9386 9.29058 18.502 9.47953 18.072C9.51914 17.9812 9.54141 17.883 9.54507 17.783C9.54874 17.683 9.53372 17.5833 9.50087 17.4894C9.46803 17.3956 9.41801 17.3095 9.35367 17.2362C9.28934 17.1628 9.21195 17.1036 9.12593 17.0619ZM10.3928 9.38171C10.2019 9.38171 10.0188 9.46188 9.88379 9.60459C9.74881 9.7473 9.67297 9.94086 9.67297 10.1427C9.6735 11.6185 9.49847 13.0886 9.15202 14.5183C9.10447 14.7137 9.13226 14.921 9.22927 15.0948C9.32629 15.2685 9.48459 15.3944 9.66937 15.4448C9.72819 15.4606 9.78864 15.4686 9.84932 15.4686C10.0088 15.4684 10.1637 15.4123 10.2898 15.309C10.4158 15.2057 10.5058 15.0611 10.5457 14.8978C10.9229 13.3439 11.1134 11.746 11.1125 10.1417C11.1123 9.94007 11.0364 9.74676 10.9014 9.60426C10.7664 9.46175 10.5835 9.38171 10.3928 9.38171Z" fill="#484848"/>
<path d="M15.4313 10.1427C15.4362 13.2175 14.8695 16.2633 13.7632 19.107C13.7095 19.2472 13.6175 19.3674 13.4989 19.4521C13.3803 19.5369 13.2405 19.5823 13.0974 19.5826C13.0048 19.5816 12.9132 19.5623 12.8274 19.5255C12.7399 19.4875 12.6603 19.4317 12.5932 19.3612C12.5261 19.2906 12.4728 19.2068 12.4363 19.1145C12.3999 19.0222 12.3811 18.9231 12.3808 18.8231C12.3806 18.7231 12.3991 18.624 12.4352 18.5315C13.4692 15.8702 13.9981 13.0198 13.9917 10.1427C13.9917 9.94086 14.0675 9.7473 14.2025 9.60459C14.3375 9.46188 14.5206 9.38171 14.7115 9.38171C14.9024 9.38171 15.0855 9.46188 15.2205 9.60459C15.3554 9.7473 15.4313 9.94086 15.4313 10.1427ZM10.3928 6.33781C10.899 6.33818 11.3994 6.45129 11.8616 6.66976C12.3237 6.88823 12.7371 7.20716 13.0749 7.60578C13.1374 7.68206 13.2137 7.74442 13.2993 7.78923C13.3848 7.83404 13.478 7.8604 13.5733 7.86678C13.6686 7.87315 13.7641 7.85942 13.8543 7.82638C13.9446 7.79334 14.0277 7.74165 14.0988 7.67432C14.17 7.60699 14.2277 7.52537 14.2687 7.4342C14.3098 7.34304 14.3332 7.24416 14.3377 7.14332C14.3422 7.04249 14.3277 6.94171 14.2951 6.84685C14.2624 6.752 14.2122 6.66497 14.1474 6.59083C13.467 5.78704 12.5718 5.22056 11.5803 4.96634C10.5887 4.71212 9.54755 4.78213 8.59447 5.16711C7.64138 5.55209 6.82131 6.23391 6.24273 7.12236C5.66415 8.01081 5.35432 9.06403 5.35424 10.1427C5.35415 12.3338 4.82786 14.4891 3.82469 16.4065C3.77885 16.4939 3.74975 16.59 3.73904 16.6894C3.72834 16.7887 3.73625 16.8893 3.76231 16.9854C3.78838 17.0815 3.8321 17.1712 3.89097 17.2495C3.94983 17.3277 4.0227 17.3929 4.10541 17.4414C4.18812 17.4899 4.27905 17.5206 4.373 17.5319C4.46696 17.5433 4.56211 17.5349 4.65301 17.5073C4.74391 17.4798 4.82878 17.4336 4.90279 17.3713C4.97679 17.3091 5.03848 17.232 5.08432 17.1446C6.20543 15.0012 6.79362 12.592 6.79382 10.1427C6.79382 9.13357 7.17299 8.16578 7.84792 7.45223C8.52286 6.73868 9.43826 6.33781 10.3928 6.33781ZM10.3928 0.250007C9.33023 0.248656 8.27528 0.439099 7.27338 0.813129C7.09661 0.883002 6.95286 1.02348 6.8731 1.20431C6.79334 1.38514 6.78395 1.59185 6.84695 1.77993C6.90994 1.96801 7.04029 2.1224 7.20991 2.20987C7.37953 2.29734 7.57486 2.31087 7.75384 2.24757C8.94829 1.8023 10.2263 1.66628 11.4807 1.85094C12.7352 2.03559 13.9294 2.53552 14.9634 3.30881C15.9974 4.0821 16.8409 5.10622 17.4233 6.29528C18.0056 7.48433 18.3099 8.80368 18.3104 10.1427C18.3113 12.1342 18.1019 14.1197 17.686 16.0621C17.6437 16.2585 17.6768 16.4646 17.778 16.6352C17.8792 16.8058 18.0402 16.9271 18.2258 16.9724C18.2784 16.9853 18.3321 16.9917 18.386 16.9915C18.5492 16.9914 18.7075 16.9328 18.8351 16.8251C18.9626 16.7174 19.0517 16.5671 19.0878 16.3989C19.5275 14.3459 19.7496 12.2476 19.75 10.1427C19.7474 7.51983 18.7607 5.0052 17.0064 3.15056C15.2522 1.29593 12.8736 0.252777 10.3928 0.250007ZM5.11491 3.90459C5.18539 3.83795 5.24277 3.75728 5.28376 3.6672C5.32475 3.57711 5.34856 3.47937 5.35382 3.37956C5.35908 3.27975 5.3457 3.17982 5.31444 3.08548C5.28317 2.99113 5.23463 2.90422 5.1716 2.82971C5.10856 2.7552 5.03226 2.69454 4.94705 2.65121C4.86184 2.60787 4.7694 2.5827 4.67499 2.57714C4.58058 2.57157 4.48606 2.58572 4.39682 2.61877C4.30758 2.65183 4.22538 2.70314 4.1549 2.76979C3.17434 3.69821 2.38979 4.83459 1.85232 6.10493C1.31486 7.37527 1.03655 8.75106 1.03552 10.1427C1.03753 11.3465 0.791927 12.5364 0.315728 13.6299C0.276265 13.7207 0.254106 13.8188 0.250519 13.9187C0.246931 14.0185 0.261984 14.1182 0.294818 14.2119C0.36113 14.4012 0.495844 14.5548 0.669324 14.6391C0.842804 14.7234 1.04084 14.7313 1.21987 14.6612C1.39889 14.5911 1.54424 14.4487 1.62394 14.2653C2.18705 12.9726 2.47748 11.5659 2.47509 10.1427C2.47605 8.96521 2.71161 7.80115 3.16645 6.72634C3.62129 5.65152 4.28519 4.69006 5.11491 3.90459ZM9.12593 17.0619C9.04003 17.0201 8.9472 16.9967 8.85274 16.9929C8.75828 16.9891 8.66403 17.005 8.57538 17.0397C8.48674 17.0744 8.40543 17.1273 8.3361 17.1952C8.26677 17.2631 8.21077 17.3449 8.17131 17.4357C7.99856 17.8352 7.81142 18.2337 7.60538 18.619C7.55935 18.7065 7.5301 18.8027 7.51931 18.9021C7.50851 19.0016 7.51637 19.1023 7.54245 19.1985C7.56852 19.2947 7.6123 19.3846 7.67127 19.4629C7.73024 19.5412 7.80324 19.6064 7.8861 19.6549C7.9925 19.7177 8.11243 19.7505 8.23429 19.75C8.36281 19.7501 8.48899 19.7137 8.59975 19.6448C8.7105 19.5759 8.80178 19.4769 8.86411 19.3581C9.08364 18.9386 9.29058 18.502 9.47953 18.072C9.51914 17.9812 9.54141 17.883 9.54507 17.783C9.54874 17.683 9.53372 17.5833 9.50087 17.4894C9.46803 17.3956 9.41801 17.3095 9.35367 17.2362C9.28934 17.1628 9.21195 17.1036 9.12593 17.0619ZM10.3928 9.38171C10.2019 9.38171 10.0188 9.46188 9.88379 9.60459C9.74881 9.7473 9.67297 9.94086 9.67297 10.1427C9.6735 11.6185 9.49847 13.0886 9.15202 14.5183C9.10447 14.7137 9.13226 14.921 9.22927 15.0948C9.32629 15.2685 9.48459 15.3944 9.66937 15.4448C9.72819 15.4606 9.78864 15.4686 9.84932 15.4686C10.0088 15.4684 10.1637 15.4123 10.2898 15.309C10.4158 15.2057 10.5058 15.0611 10.5457 14.8978C10.9229 13.3439 11.1134 11.746 11.1125 10.1417C11.1123 9.94007 11.0364 9.74676 10.9014 9.60426C10.7664 9.46175 10.5835 9.38171 10.3928 9.38171Z" stroke="#484848" stroke-width="0.5" mask="url(#path-1-outside-1_387_11634)"/>
</svg>
