<svg width="20" height="10" viewBox="0 0 20 10" fill="none" xmlns="http://www.w3.org/2000/svg">
<path fill-rule="evenodd" clip-rule="evenodd" d="M0 5C0 2.23858 2.23858 0 5 0H8C10.7614 0 13 2.23858 13 5C13 5.55228 12.5523 6 12 6C11.4477 6 11 5.55228 11 5C11 3.34315 9.65685 2 8 2H5C3.34315 2 2 3.34315 2 5V6C2 7.10457 2.89543 8 4 8H4.5C5.05228 8 5.5 8.44772 5.5 9C5.5 9.55229 5.05228 10 4.5 10H4C1.79086 10 0 8.20914 0 6V5Z" fill="#484848"/>
<path fill-rule="evenodd" clip-rule="evenodd" d="M20 5C20 7.76142 17.7614 10 15 10H12C9.23858 10 7 7.76142 7 5C7 4.44772 7.44771 4 8 4C8.55229 4 9 4.44772 9 5C9 6.65685 10.3431 8 12 8H15C16.6569 8 18 6.65685 18 5V4C18 2.89543 17.1046 2 16 2H15.5C14.9477 2 14.5 1.55228 14.5 1C14.5 0.447715 14.9477 0 15.5 0H16C18.2091 0 20 1.79086 20 4V5Z" fill="#484848"/>
</svg>
