<svg width="20" height="10" viewBox="0 0 20 10" fill="none" xmlns="http://www.w3.org/2000/svg">
<path fill-rule="evenodd" clip-rule="evenodd" d="M0 5C0 2.23858 2.23858 0 5 0H7C7.55229 0 8 0.447715 8 1C8 1.55228 7.55229 2 7 2H5C3.34315 2 2 3.34315 2 5C2 6.65685 3.34315 8 5 8H7C7.55229 8 8 8.44772 8 9C8 9.55229 7.55229 10 7 10H5C2.23858 10 0 7.76142 0 5Z" fill="#484848"/>
<path fill-rule="evenodd" clip-rule="evenodd" d="M20 5C20 2.23858 17.7614 0 15 0H13C12.4477 0 12 0.447715 12 1C12 1.55228 12.4477 2 13 2H15C16.6569 2 18 3.34315 18 5C18 6.65685 16.6569 8 15 8H13C12.4477 8 12 8.44772 12 9C12 9.55229 12.4477 10 13 10H15C17.7614 10 20 7.76142 20 5Z" fill="#484848"/>
<path fill-rule="evenodd" clip-rule="evenodd" d="M14 5C14 5.55228 13.5523 6 13 6H7C6.44772 6 6 5.55228 6 5C6 4.44772 6.44772 4 7 4H13C13.5523 4 14 4.44772 14 5Z" fill="#484848"/>
</svg>
