<svg width="24" height="24" viewBox="0 0 24 24" fill="none" xmlns="http://www.w3.org/2000/svg">
<path fill-rule="evenodd" clip-rule="evenodd" d="M2 12C2 9.23858 4.23858 7 7 7H10C12.7614 7 15 9.23858 15 12C15 12.5523 14.5523 13 14 13C13.4477 13 13 12.5523 13 12C13 10.3431 11.6569 9 10 9H7C5.34315 9 4 10.3431 4 12V13C4 14.1046 4.89543 15 6 15H6.5C7.05228 15 7.5 15.4477 7.5 16C7.5 16.5523 7.05228 17 6.5 17H6C3.79086 17 2 15.2091 2 13V12Z" fill="#484848"/>
<path fill-rule="evenodd" clip-rule="evenodd" d="M22 12C22 14.7614 19.7614 17 17 17H14C11.2386 17 9 14.7614 9 12C9 11.4477 9.44771 11 10 11C10.5523 11 11 11.4477 11 12C11 13.6569 12.3431 15 14 15H17C18.6569 15 20 13.6569 20 12V11C20 9.89543 19.1046 9 18 9H17.5C16.9477 9 16.5 8.55228 16.5 8C16.5 7.44771 16.9477 7 17.5 7H18C20.2091 7 22 8.79086 22 11V12Z" fill="#484848"/>
</svg>
