<svg width="24" height="24" viewBox="0 0 24 24" fill="none" xmlns="http://www.w3.org/2000/svg">
<path fill-rule="evenodd" clip-rule="evenodd" d="M6 19H18C19.1046 19 20 18.1046 20 17C20 15.8954 19.1046 15 18 15H6C4.89543 15 4 15.8954 4 17C4 18.1046 4.89543 19 6 19ZM18 21H6C3.79086 21 2 19.2091 2 17C2 14.7909 3.79086 13 6 13H18C20.2091 13 22 14.7909 22 17C22 19.2091 20.2091 21 18 21Z" fill="#484848"/>
<path fill-rule="evenodd" clip-rule="evenodd" d="M5.07195 9.94461C5.45234 9.99575 6.00065 10 7 10C7.99935 10 8.54766 9.99575 8.92805 9.94461C8.933 9.94394 8.93786 9.94328 8.94261 9.94261C8.94328 9.93786 8.94394 9.933 8.94461 9.92805C8.99575 9.54766 9 8.99935 9 8C9 7.00065 8.99575 6.45234 8.94461 6.07195C8.94394 6.067 8.94328 6.06214 8.94261 6.05739C8.93786 6.05672 8.933 6.05606 8.92805 6.05539C8.54766 6.00425 7.99935 6 7 6C6.00065 6 5.45234 6.00425 5.07195 6.05539C5.067 6.05606 5.06214 6.05672 5.05739 6.05739C5.05672 6.06214 5.05606 6.067 5.05539 6.07195C5.00425 6.45234 5 7.00065 5 8C5 8.99935 5.00425 9.54766 5.05539 9.92805C5.05606 9.933 5.05672 9.93786 5.05739 9.94261C5.06214 9.94328 5.067 9.94394 5.07195 9.94461ZM5.09681 10.1381L5.09614 10.1363ZM5.09681 5.86187L5.09614 5.86368ZM4.86368 6.09614L4.86187 6.09681ZM9.13813 6.09681L9.13632 6.09614ZM8.90386 5.86368L8.90319 5.86187ZM8.90319 10.1381L8.90386 10.1363ZM3.58579 4.58579C3 5.17157 3 6.11438 3 8C3 9.88562 3 10.8284 3.58579 11.4142C4.17157 12 5.11438 12 7 12C8.88562 12 9.82843 12 10.4142 11.4142C11 10.8284 11 9.88562 11 8C11 6.11438 11 5.17157 10.4142 4.58579C9.82843 4 8.88562 4 7 4C5.11438 4 4.17157 4 3.58579 4.58579Z" fill="#484848"/>
<path fill-rule="evenodd" clip-rule="evenodd" d="M15.072 9.94461C15.4523 9.99575 16.0007 10 17 10C17.9993 10 18.5477 9.99575 18.928 9.94461C18.933 9.94394 18.9379 9.94328 18.9426 9.94261C18.9433 9.93786 18.9439 9.933 18.9446 9.92805C18.9958 9.54766 19 8.99935 19 8C19 7.00065 18.9958 6.45234 18.9446 6.07195C18.9439 6.067 18.9433 6.06214 18.9426 6.05739C18.9379 6.05672 18.933 6.05606 18.928 6.05539C18.5477 6.00425 17.9993 6 17 6C16.0007 6 15.4523 6.00425 15.072 6.05539C15.067 6.05606 15.0621 6.05672 15.0574 6.05739C15.0567 6.06214 15.0561 6.067 15.0554 6.07195C15.0042 6.45234 15 7.00065 15 8C15 8.99935 15.0042 9.54766 15.0554 9.92805C15.0561 9.933 15.0567 9.93786 15.0574 9.94261C15.0621 9.94328 15.067 9.94394 15.072 9.94461ZM15.0968 10.1381L15.0961 10.1363ZM15.0968 5.86187L15.0961 5.86368ZM14.8637 6.09614L14.8619 6.09681ZM19.1381 6.09681L19.1363 6.09614ZM18.9039 5.86368L18.9032 5.86187ZM18.9032 10.1381L18.9039 10.1363ZM13.5858 4.58579C13 5.17157 13 6.11438 13 8C13 9.88562 13 10.8284 13.5858 11.4142C14.1716 12 15.1144 12 17 12C18.8856 12 19.8284 12 20.4142 11.4142C21 10.8284 21 9.88562 21 8C21 6.11438 21 5.17157 20.4142 4.58579C19.8284 4 18.8856 4 17 4C15.1144 4 14.1716 4 13.5858 4.58579Z" fill="#484848"/>
<path d="M9 17C9 17.5523 8.55228 18 8 18C7.44772 18 7 17.5523 7 17C7 16.4477 7.44772 16 8 16C8.55228 16 9 16.4477 9 17Z" fill="#484848"/>
<path d="M13 17C13 17.5523 12.5523 18 12 18C11.4477 18 11 17.5523 11 17C11 16.4477 11.4477 16 12 16C12.5523 16 13 16.4477 13 17Z" fill="#484848"/>
<path d="M17 17C17 17.5523 16.5523 18 16 18C15.4477 18 15 17.5523 15 17C15 16.4477 15.4477 16 16 16C16.5523 16 17 16.4477 17 17Z" fill="#484848"/>
</svg>
