<svg width="20" height="17" viewBox="0 0 20 17" fill="none" xmlns="http://www.w3.org/2000/svg">
<path fill-rule="evenodd" clip-rule="evenodd" d="M4 15H16C17.1046 15 18 14.1046 18 13C18 11.8954 17.1046 11 16 11H4C2.89543 11 2 11.8954 2 13C2 14.1046 2.89543 15 4 15ZM16 17H4C1.79086 17 0 15.2091 0 13C0 10.7909 1.79086 9 4 9H16C18.2091 9 20 10.7909 20 13C20 15.2091 18.2091 17 16 17Z" fill="#484848"/>
<path fill-rule="evenodd" clip-rule="evenodd" d="M3.07195 5.94461C3.45234 5.99575 4.00065 6 5 6C5.99935 6 6.54766 5.99575 6.92805 5.94461C6.933 5.94394 6.93786 5.94328 6.94261 5.94261C6.94328 5.93786 6.94394 5.933 6.94461 5.92805C6.99575 5.54766 7 4.99935 7 4C7 3.00065 6.99575 2.45234 6.94461 2.07195C6.94394 2.067 6.94328 2.06214 6.94261 2.05739C6.93786 2.05672 6.933 2.05606 6.92805 2.05539C6.54766 2.00425 5.99935 2 5 2C4.00065 2 3.45234 2.00425 3.07195 2.05539C3.067 2.05606 3.06214 2.05672 3.05739 2.05739C3.05672 2.06214 3.05606 2.067 3.05539 2.07195C3.00425 2.45234 3 3.00065 3 4C3 4.99935 3.00425 5.54766 3.05539 5.92805C3.05606 5.933 3.05672 5.93786 3.05739 5.94261C3.06214 5.94328 3.067 5.94394 3.07195 5.94461ZM3.09681 6.13813L3.09614 6.13632L3.09681 6.13813ZM3.09681 1.86187L3.09614 1.86368L3.09681 1.86187ZM2.86368 2.09614L2.86187 2.09681L2.86368 2.09614ZM7.13813 2.09681L7.13632 2.09614L7.13813 2.09681ZM6.90386 1.86368L6.90319 1.86187L6.90386 1.86368ZM6.90319 6.13813L6.90386 6.13632L6.90319 6.13813ZM1.58579 0.585786C1 1.17157 1 2.11438 1 4C1 5.88562 1 6.82843 1.58579 7.41421C2.17157 8 3.11438 8 5 8C6.88562 8 7.82843 8 8.41421 7.41421C9 6.82843 9 5.88562 9 4C9 2.11438 9 1.17157 8.41421 0.585786C7.82843 0 6.88562 0 5 0C3.11438 0 2.17157 0 1.58579 0.585786Z" fill="#484848"/>
<path fill-rule="evenodd" clip-rule="evenodd" d="M13.072 5.94461C13.4523 5.99575 14.0007 6 15 6C15.9993 6 16.5477 5.99575 16.928 5.94461C16.933 5.94394 16.9379 5.94328 16.9426 5.94261C16.9433 5.93786 16.9439 5.933 16.9446 5.92805C16.9958 5.54766 17 4.99935 17 4C17 3.00065 16.9958 2.45234 16.9446 2.07195C16.9439 2.067 16.9433 2.06214 16.9426 2.05739C16.9379 2.05672 16.933 2.05606 16.928 2.05539C16.5477 2.00425 15.9993 2 15 2C14.0007 2 13.4523 2.00425 13.072 2.05539C13.067 2.05606 13.0621 2.05672 13.0574 2.05739C13.0567 2.06214 13.0561 2.067 13.0554 2.07195C13.0042 2.45234 13 3.00065 13 4C13 4.99935 13.0042 5.54766 13.0554 5.92805C13.0561 5.933 13.0567 5.93786 13.0574 5.94261C13.0621 5.94328 13.067 5.94394 13.072 5.94461ZM13.0968 6.13813L13.0961 6.13632L13.0968 6.13813ZM13.0968 1.86187L13.0961 1.86368L13.0968 1.86187ZM12.8637 2.09614L12.8619 2.09681L12.8637 2.09614ZM17.1381 2.09681L17.1363 2.09614L17.1381 2.09681ZM16.9039 1.86368L16.9032 1.86187L16.9039 1.86368ZM16.9032 6.13813L16.9039 6.13632L16.9032 6.13813ZM11.5858 0.585786C11 1.17157 11 2.11438 11 4C11 5.88562 11 6.82843 11.5858 7.41421C12.1716 8 13.1144 8 15 8C16.8856 8 17.8284 8 18.4142 7.41421C19 6.82843 19 5.88562 19 4C19 2.11438 19 1.17157 18.4142 0.585786C17.8284 0 16.8856 0 15 0C13.1144 0 12.1716 0 11.5858 0.585786Z" fill="#484848"/>
<path d="M7 13C7 13.5523 6.55228 14 6 14C5.44772 14 5 13.5523 5 13C5 12.4477 5.44772 12 6 12C6.55228 12 7 12.4477 7 13Z" fill="#484848"/>
<path d="M11 13C11 13.5523 10.5523 14 10 14C9.44771 14 9 13.5523 9 13C9 12.4477 9.44771 12 10 12C10.5523 12 11 12.4477 11 13Z" fill="#484848"/>
<path d="M15 13C15 13.5523 14.5523 14 14 14C13.4477 14 13 13.5523 13 13C13 12.4477 13.4477 12 14 12C14.5523 12 15 12.4477 15 13Z" fill="#484848"/>
</svg>
