<svg width="24" height="24" viewBox="0 0 24 24" fill="none" xmlns="http://www.w3.org/2000/svg">
<path fill-rule="evenodd" clip-rule="evenodd" d="M7 4H6C5.00065 4 4.45234 4.00425 4.07195 4.05539C4.067 4.05606 4.06214 4.05672 4.05739 4.05739C4.05672 4.06214 4.05606 4.067 4.05539 4.07195C4.00425 4.45234 4 5.00065 4 6V7C4 7.99935 4.00425 8.54766 4.05539 8.92805C4.05606 8.933 4.05672 8.93786 4.05739 8.94261C4.06214 8.94328 4.067 8.94394 4.07195 8.94461C4.45234 8.99575 5.00065 9 6 9H7C7.99935 9 8.54766 8.99575 8.92805 8.94461C8.933 8.94394 8.93786 8.94328 8.94261 8.94261C8.94328 8.93786 8.94394 8.933 8.94461 8.92805C8.99575 8.54766 9 7.99935 9 7V6C9 5.00065 8.99575 4.45234 8.94461 4.07195C8.94394 4.067 8.94328 4.06214 8.94261 4.05739C8.93786 4.05672 8.933 4.05606 8.92805 4.05539C8.54766 4.00425 7.99935 4 7 4ZM4.09681 9.13813L4.09614 9.13632ZM3.86187 4.09681L3.86368 4.09614ZM2.58579 2.58579C2 3.17157 2 4.11438 2 6V7C2 8.88562 2 9.82843 2.58579 10.4142C3.17157 11 4.11438 11 6 11H7C8.88562 11 9.82843 11 10.4142 10.4142C11 9.82843 11 8.88562 11 7V6C11 4.11438 11 3.17157 10.4142 2.58579C9.82843 2 8.88562 2 7 2H6C4.11438 2 3.17157 2 2.58579 2.58579Z" fill="#484848"/>
<path fill-rule="evenodd" clip-rule="evenodd" d="M7 15H6C5.00065 15 4.45234 15.0042 4.07195 15.0554C4.067 15.0561 4.06214 15.0567 4.05739 15.0574C4.05672 15.0621 4.05606 15.067 4.05539 15.072C4.00425 15.4523 4 16.0007 4 17V18C4 18.9993 4.00425 19.5477 4.05539 19.928C4.05606 19.933 4.05672 19.9379 4.05739 19.9426C4.06214 19.9433 4.067 19.9439 4.07195 19.9446C4.45234 19.9958 5.00065 20 6 20H7C7.99935 20 8.54766 19.9958 8.92805 19.9446C8.933 19.9439 8.93786 19.9433 8.94261 19.9426C8.94328 19.9379 8.94394 19.933 8.94461 19.928C8.99575 19.5477 9 18.9993 9 18V17C9 16.0007 8.99575 15.4523 8.94461 15.072C8.94394 15.067 8.94328 15.0621 8.94261 15.0574C8.93786 15.0567 8.933 15.0561 8.92805 15.0554C8.54766 15.0042 7.99935 15 7 15ZM4.09681 20.1381L4.09614 20.1363ZM3.86187 15.0968L3.86368 15.0961ZM2.58579 13.5858C2 14.1716 2 15.1144 2 17V18C2 19.8856 2 20.8284 2.58579 21.4142C3.17157 22 4.11438 22 6 22H7C8.88562 22 9.82843 22 10.4142 21.4142C11 20.8284 11 19.8856 11 18V17C11 15.1144 11 14.1716 10.4142 13.5858C9.82843 13 8.88562 13 7 13H6C4.11438 13 3.17157 13 2.58579 13.5858Z" fill="#484848"/>
<path fill-rule="evenodd" clip-rule="evenodd" d="M18 4H17C16.0007 4 15.4523 4.00425 15.072 4.05539C15.067 4.05606 15.0621 4.05672 15.0574 4.05739C15.0567 4.06214 15.0561 4.067 15.0554 4.07195C15.0042 4.45234 15 5.00065 15 6V7C15 7.99935 15.0042 8.54766 15.0554 8.92805C15.0561 8.933 15.0567 8.93786 15.0574 8.94261C15.0621 8.94328 15.067 8.94394 15.072 8.94461C15.4523 8.99575 16.0007 9 17 9H18C18.9993 9 19.5477 8.99575 19.928 8.94461C19.933 8.94394 19.9379 8.94328 19.9426 8.94261C19.9433 8.93786 19.9439 8.933 19.9446 8.92805C19.9958 8.54766 20 7.99935 20 7V6C20 5.00065 19.9958 4.45234 19.9446 4.07195C19.9439 4.067 19.9433 4.06214 19.9426 4.05739C19.9379 4.05672 19.933 4.05606 19.928 4.05539C19.5477 4.00425 18.9993 4 18 4ZM15.0968 9.13813L15.0961 9.13632ZM14.8619 4.09681L14.8637 4.09614ZM13.5858 2.58579C13 3.17157 13 4.11438 13 6V7C13 8.88562 13 9.82843 13.5858 10.4142C14.1716 11 15.1144 11 17 11H18C19.8856 11 20.8284 11 21.4142 10.4142C22 9.82843 22 8.88562 22 7V6C22 4.11438 22 3.17157 21.4142 2.58579C20.8284 2 19.8856 2 18 2H17C15.1144 2 14.1716 2 13.5858 2.58579Z" fill="#484848"/>
<path fill-rule="evenodd" clip-rule="evenodd" d="M14 13C14.5523 13 15 13.4477 15 14V18C15 18.5523 14.5523 19 14 19C13.4477 19 13 18.5523 13 18V14C13 13.4477 13.4477 13 14 13Z" fill="#484848"/>
<path fill-rule="evenodd" clip-rule="evenodd" d="M20 18C20.5523 18 21 18.4477 21 19V21C21 21.5523 20.5523 22 20 22C19.4477 22 19 21.5523 19 21V19C19 18.4477 19.4477 18 20 18Z" fill="#484848"/>
<path fill-rule="evenodd" clip-rule="evenodd" d="M17 13C17.5523 13 18 13.4477 18 14V15H21C21.5523 15 22 15.4477 22 16C22 16.5523 21.5523 17 21 17H18V21C18 21.5523 17.5523 22 17 22H14C13.4477 22 13 21.5523 13 21C13 20.4477 13.4477 20 14 20H16V14C16 13.4477 16.4477 13 17 13Z" fill="#484848"/>
</svg>
