<svg width="20" height="20" viewBox="0 0 20 20" fill="none" xmlns="http://www.w3.org/2000/svg">
<path fill-rule="evenodd" clip-rule="evenodd" d="M5 2H4C3.00065 2 2.45234 2.00425 2.07195 2.05539C2.067 2.05606 2.06214 2.05672 2.05739 2.05739C2.05672 2.06214 2.05606 2.067 2.05539 2.07195C2.00425 2.45234 2 3.00065 2 4V5C2 5.99935 2.00425 6.54766 2.05539 6.92805C2.05606 6.933 2.05672 6.93786 2.05739 6.94261C2.06214 6.94328 2.067 6.94394 2.07195 6.94461C2.45234 6.99575 3.00065 7 4 7H5C5.99935 7 6.54766 6.99575 6.92805 6.94461C6.933 6.94394 6.93786 6.94328 6.94261 6.94261C6.94328 6.93786 6.94394 6.933 6.94461 6.92805C6.99575 6.54766 7 5.99935 7 5V4C7 3.00065 6.99575 2.45234 6.94461 2.07195C6.94394 2.067 6.94328 2.06214 6.94261 2.05739C6.93786 2.05672 6.933 2.05606 6.92805 2.05539C6.54766 2.00425 5.99935 2 5 2ZM2.09681 7.13813L2.09614 7.13632L2.09681 7.13813ZM1.86187 2.09681L1.86368 2.09614L1.86187 2.09681ZM0.585786 0.585786C0 1.17157 0 2.11438 0 4V5C0 6.88562 0 7.82843 0.585786 8.41421C1.17157 9 2.11438 9 4 9H5C6.88562 9 7.82843 9 8.41421 8.41421C9 7.82843 9 6.88562 9 5V4C9 2.11438 9 1.17157 8.41421 0.585786C7.82843 0 6.88562 0 5 0H4C2.11438 0 1.17157 0 0.585786 0.585786Z" fill="#484848"/>
<path fill-rule="evenodd" clip-rule="evenodd" d="M5 13H4C3.00065 13 2.45234 13.0042 2.07195 13.0554C2.067 13.0561 2.06214 13.0567 2.05739 13.0574C2.05672 13.0621 2.05606 13.067 2.05539 13.072C2.00425 13.4523 2 14.0007 2 15V16C2 16.9993 2.00425 17.5477 2.05539 17.928C2.05606 17.933 2.05672 17.9379 2.05739 17.9426C2.06214 17.9433 2.067 17.9439 2.07195 17.9446C2.45234 17.9958 3.00065 18 4 18H5C5.99935 18 6.54766 17.9958 6.92805 17.9446C6.933 17.9439 6.93786 17.9433 6.94261 17.9426C6.94328 17.9379 6.94394 17.933 6.94461 17.928C6.99575 17.5477 7 16.9993 7 16V15C7 14.0007 6.99575 13.4523 6.94461 13.072C6.94394 13.067 6.94328 13.0621 6.94261 13.0574C6.93786 13.0567 6.933 13.0561 6.92805 13.0554C6.54766 13.0042 5.99935 13 5 13ZM2.09681 18.1381L2.09614 18.1363L2.09681 18.1381ZM1.86187 13.0968L1.86368 13.0961L1.86187 13.0968ZM0.585786 11.5858C0 12.1716 0 13.1144 0 15V16C0 17.8856 0 18.8284 0.585786 19.4142C1.17157 20 2.11438 20 4 20H5C6.88562 20 7.82843 20 8.41421 19.4142C9 18.8284 9 17.8856 9 16V15C9 13.1144 9 12.1716 8.41421 11.5858C7.82843 11 6.88562 11 5 11H4C2.11438 11 1.17157 11 0.585786 11.5858Z" fill="#484848"/>
<path fill-rule="evenodd" clip-rule="evenodd" d="M16 2H15C14.0007 2 13.4523 2.00425 13.072 2.05539C13.067 2.05606 13.0621 2.05672 13.0574 2.05739C13.0567 2.06214 13.0561 2.067 13.0554 2.07195C13.0042 2.45234 13 3.00065 13 4V5C13 5.99935 13.0042 6.54766 13.0554 6.92805C13.0561 6.933 13.0567 6.93786 13.0574 6.94261C13.0621 6.94328 13.067 6.94394 13.072 6.94461C13.4523 6.99575 14.0007 7 15 7H16C16.9993 7 17.5477 6.99575 17.928 6.94461C17.933 6.94394 17.9379 6.94328 17.9426 6.94261C17.9433 6.93786 17.9439 6.933 17.9446 6.92805C17.9958 6.54766 18 5.99935 18 5V4C18 3.00065 17.9958 2.45234 17.9446 2.07195C17.9439 2.067 17.9433 2.06214 17.9426 2.05739C17.9379 2.05672 17.933 2.05606 17.928 2.05539C17.5477 2.00425 16.9993 2 16 2ZM13.0968 7.13813L13.0961 7.13632L13.0968 7.13813ZM12.8619 2.09681L12.8637 2.09614L12.8619 2.09681ZM11.5858 0.585786C11 1.17157 11 2.11438 11 4V5C11 6.88562 11 7.82843 11.5858 8.41421C12.1716 9 13.1144 9 15 9H16C17.8856 9 18.8284 9 19.4142 8.41421C20 7.82843 20 6.88562 20 5V4C20 2.11438 20 1.17157 19.4142 0.585786C18.8284 0 17.8856 0 16 0H15C13.1144 0 12.1716 0 11.5858 0.585786Z" fill="#484848"/>
<path fill-rule="evenodd" clip-rule="evenodd" d="M12 11C12.5523 11 13 11.4477 13 12V16C13 16.5523 12.5523 17 12 17C11.4477 17 11 16.5523 11 16V12C11 11.4477 11.4477 11 12 11Z" fill="#484848"/>
<path fill-rule="evenodd" clip-rule="evenodd" d="M18 16C18.5523 16 19 16.4477 19 17V19C19 19.5523 18.5523 20 18 20C17.4477 20 17 19.5523 17 19V17C17 16.4477 17.4477 16 18 16Z" fill="#484848"/>
<path fill-rule="evenodd" clip-rule="evenodd" d="M15 11C15.5523 11 16 11.4477 16 12V13H19C19.5523 13 20 13.4477 20 14C20 14.5523 19.5523 15 19 15H16V19C16 19.5523 15.5523 20 15 20H12C11.4477 20 11 19.5523 11 19C11 18.4477 11.4477 18 12 18H14V12C14 11.4477 14.4477 11 15 11Z" fill="#484848"/>
</svg>
