<svg width="20" height="18" viewBox="0 0 20 18" fill="none" xmlns="http://www.w3.org/2000/svg">
<path fill-rule="evenodd" clip-rule="evenodd" d="M2 12C2.55228 12 3 12.4477 3 13V13.06C3 14.001 3.002 14.6092 3.06069 15.0587C3.11585 15.4811 3.20535 15.6157 3.27643 15.6903C3.28727 15.7016 3.29838 15.7127 3.30975 15.7236C3.38426 15.7947 3.51886 15.8842 3.94131 15.9393C4.39079 15.998 4.99899 16 5.94 16H6C6.55228 16 7 16.4477 7 17C7 17.5523 6.55228 18 6 18H5.94C5.91869 18 5.89745 18 5.87628 18C5.01713 18.0001 4.27678 18.0001 3.68237 17.9225C3.04628 17.8394 2.43428 17.6525 1.92925 17.1707C1.89515 17.1382 1.86182 17.1049 1.82929 17.0708C1.34751 16.5657 1.16058 15.9537 1.07752 15.3176C0.999911 14.7232 0.999951 13.9829 0.999998 13.1237C0.999999 13.1026 1 13.0813 1 13.06V13C1 12.4477 1.44772 12 2 12Z" fill="#484848"/>
<path fill-rule="evenodd" clip-rule="evenodd" d="M18 12C17.4477 12 17 12.4477 17 13V13.06C17 14.001 16.998 14.6092 16.9393 15.0587C16.8841 15.4811 16.7946 15.6157 16.7236 15.6903C16.7127 15.7016 16.7016 15.7127 16.6903 15.7236C16.6157 15.7947 16.4811 15.8842 16.0587 15.9393C15.6092 15.998 15.001 16 14.06 16H14C13.4477 16 13 16.4477 13 17C13 17.5523 13.4477 18 14 18H14.06C14.0813 18 14.1026 18 14.1237 18C14.9829 18.0001 15.7232 18.0001 16.3176 17.9225C16.9537 17.8394 17.5657 17.6525 18.0708 17.1707C18.1049 17.1382 18.1382 17.1049 18.1707 17.0708C18.6525 16.5657 18.8394 15.9537 18.9225 15.3176C19.0001 14.7232 19 13.9829 19 13.1237C19 13.1026 19 13.0813 19 13.06V13C19 12.4477 18.5523 12 18 12Z" fill="#484848"/>
<path fill-rule="evenodd" clip-rule="evenodd" d="M18 6C17.4477 6 17 5.55229 17 5V4.94C17 3.999 16.998 3.39079 16.9393 2.94132C16.8841 2.51886 16.7946 2.38427 16.7236 2.30975C16.7127 2.29839 16.7016 2.28728 16.6903 2.27643C16.6157 2.20535 16.4811 2.11586 16.0587 2.06069C15.6092 2.00201 15.001 2 14.06 2H14C13.4477 2 13 1.55229 13 1C13 0.447719 13.4477 4.22316e-06 14 4.22316e-06H14.06C14.0813 4.22316e-06 14.1026 3.26948e-06 14.1237 2.31581e-06C14.9829 -4.48911e-05 15.7232 -8.54209e-05 16.3176 0.0775289C16.9537 0.160583 17.5657 0.347516 18.0708 0.829295C18.1049 0.861824 18.1382 0.895152 18.1707 0.929251C18.6525 1.43428 18.8394 2.04629 18.9225 2.68237C19.0001 3.27679 19 4.01714 19 4.87629C19 4.89746 19 4.91869 19 4.94V5C19 5.55229 18.5523 6 18 6Z" fill="#484848"/>
<path fill-rule="evenodd" clip-rule="evenodd" d="M2 6C2.55228 6 3 5.55229 3 5V4.94C3 3.999 3.002 3.39079 3.06069 2.94132C3.11585 2.51886 3.20535 2.38427 3.27643 2.30975C3.28727 2.29839 3.29838 2.28728 3.30975 2.27643C3.38426 2.20535 3.51886 2.11586 3.94131 2.06069C4.39079 2.00201 4.99899 2 5.94 2H6C6.55228 2 7 1.55229 7 1C7 0.447719 6.55228 4.22316e-06 6 4.22316e-06H5.94C5.91869 4.22316e-06 5.89745 3.26948e-06 5.87628 2.31581e-06C5.01713 -4.48911e-05 4.27678 -8.54209e-05 3.68237 0.0775289C3.04628 0.160583 2.43428 0.347516 1.92925 0.829295C1.89515 0.861824 1.86182 0.895152 1.82929 0.929251C1.34751 1.43428 1.16058 2.04629 1.07752 2.68237C0.999911 3.27679 0.999951 4.01714 0.999998 4.87629C0.999999 4.89746 1 4.91869 1 4.94V5C1 5.55229 1.44772 6 2 6Z" fill="#484848"/>
<path fill-rule="evenodd" clip-rule="evenodd" d="M20 9C20 9.55229 19.5523 10 19 10H1C0.447716 10 0 9.55229 0 9C0 8.44772 0.447716 8 1 8H19C19.5523 8 20 8.44772 20 9Z" fill="#484848"/>
</svg>
