<svg width="24" height="24" viewBox="0 0 24 24" fill="none" xmlns="http://www.w3.org/2000/svg">
<path fill-rule="evenodd" clip-rule="evenodd" d="M4 15C4.55228 15 5 15.4477 5 16V16.06C5 17.001 5.002 17.6092 5.06069 18.0587C5.11585 18.4811 5.20535 18.6157 5.27643 18.6903C5.28727 18.7016 5.29838 18.7127 5.30975 18.7236C5.38426 18.7947 5.51886 18.8842 5.94131 18.9393C6.39079 18.998 6.99899 19 7.94 19H8C8.55228 19 9 19.4477 9 20C9 20.5523 8.55228 21 8 21H7.94C7.91869 21 7.89745 21 7.87628 21C7.01713 21.0001 6.27678 21.0001 5.68237 20.9225C5.04628 20.8394 4.43428 20.6525 3.92925 20.1707C3.89515 20.1382 3.86182 20.1049 3.82929 20.0708C3.34751 19.5657 3.16058 18.9537 3.07752 18.3176C2.99991 17.7232 2.99995 16.9829 3 16.1237C3 16.1026 3 16.0813 3 16.06V16C3 15.4477 3.44772 15 4 15Z" fill="#484848"/>
<path fill-rule="evenodd" clip-rule="evenodd" d="M20 15C19.4477 15 19 15.4477 19 16V16.06C19 17.001 18.998 17.6092 18.9393 18.0587C18.8841 18.4811 18.7946 18.6157 18.7236 18.6903C18.7127 18.7016 18.7016 18.7127 18.6903 18.7236C18.6157 18.7947 18.4811 18.8842 18.0587 18.9393C17.6092 18.998 17.001 19 16.06 19H16C15.4477 19 15 19.4477 15 20C15 20.5523 15.4477 21 16 21H16.06C16.0813 21 16.1026 21 16.1237 21C16.9829 21.0001 17.7232 21.0001 18.3176 20.9225C18.9537 20.8394 19.5657 20.6525 20.0708 20.1707C20.1049 20.1382 20.1382 20.1049 20.1707 20.0708C20.6525 19.5657 20.8394 18.9537 20.9225 18.3176C21.0001 17.7232 21 16.9829 21 16.1237C21 16.1026 21 16.0813 21 16.06V16C21 15.4477 20.5523 15 20 15Z" fill="#484848"/>
<path fill-rule="evenodd" clip-rule="evenodd" d="M20 9C19.4477 9 19 8.55229 19 8V7.94C19 6.999 18.998 6.39079 18.9393 5.94132C18.8841 5.51886 18.7946 5.38427 18.7236 5.30975C18.7127 5.29839 18.7016 5.28728 18.6903 5.27643C18.6157 5.20535 18.4811 5.11586 18.0587 5.06069C17.6092 5.00201 17.001 5 16.06 5H16C15.4477 5 15 4.55229 15 4C15 3.44772 15.4477 3 16 3H16.06C16.0813 3 16.1026 3 16.1237 3C16.9829 2.99996 17.7232 2.99991 18.3176 3.07753C18.9537 3.16058 19.5657 3.34752 20.0708 3.8293C20.1049 3.86182 20.1382 3.89515 20.1707 3.92925C20.6525 4.43428 20.8394 5.04629 20.9225 5.68237C21.0001 6.27679 21 7.01714 21 7.87629C21 7.89746 21 7.91869 21 7.94V8C21 8.55229 20.5523 9 20 9Z" fill="#484848"/>
<path fill-rule="evenodd" clip-rule="evenodd" d="M4 9C4.55228 9 5 8.55229 5 8V7.94C5 6.999 5.002 6.39079 5.06069 5.94132C5.11585 5.51886 5.20535 5.38427 5.27643 5.30975C5.28727 5.29839 5.29838 5.28728 5.30975 5.27643C5.38426 5.20535 5.51886 5.11586 5.94131 5.06069C6.39079 5.00201 6.99899 5 7.94 5H8C8.55228 5 9 4.55229 9 4C9 3.44772 8.55228 3 8 3H7.94C7.91869 3 7.89745 3 7.87628 3C7.01713 2.99996 6.27678 2.99991 5.68237 3.07753C5.04628 3.16058 4.43428 3.34752 3.92925 3.8293C3.89515 3.86182 3.86182 3.89515 3.82929 3.92925C3.34751 4.43428 3.16058 5.04629 3.07752 5.68237C2.99991 6.27679 2.99995 7.01714 3 7.87629C3 7.89746 3 7.91869 3 7.94V8C3 8.55229 3.44772 9 4 9Z" fill="#484848"/>
<path fill-rule="evenodd" clip-rule="evenodd" d="M22 12C22 12.5523 21.5523 13 21 13H3C2.44772 13 2 12.5523 2 12C2 11.4477 2.44772 11 3 11H21C21.5523 11 22 11.4477 22 12Z" fill="#484848"/>
</svg>
