<svg width="20" height="20" viewBox="0 0 20 20" fill="none" xmlns="http://www.w3.org/2000/svg">
<path fill-rule="evenodd" clip-rule="evenodd" d="M15.5972 3.1645L16.042 3.15783L16.044 3.1577C16.7676 3.14684 17.1297 3.1414 17.4546 3.23691C17.7424 3.32149 18.008 3.46305 18.2333 3.65179C18.4879 3.86512 18.6698 4.1604 19.0338 4.75151L19.3397 5.24832C19.7019 5.83644 19.8841 6.13229 19.9537 6.44662C20.0156 6.72634 20.0134 7.01492 19.947 7.29371C19.8718 7.60885 19.6835 7.90426 19.3074 8.49398L19.0814 8.84843L19.0801 8.85014C19.0459 8.90377 19.0285 8.93116 19.0123 8.9584C18.8467 9.23783 18.7547 9.55074 18.7439 9.87066C18.7428 9.9023 18.7422 9.93469 18.7422 9.99904C18.7422 10.0628 18.7422 10.0957 18.7432 10.1272C18.7539 10.4469 18.8461 10.7599 19.0114 11.0393C19.0278 11.0669 19.0449 11.0946 19.08 11.1498L19.32 11.5268C19.6881 12.105 19.8735 12.3962 19.948 12.7074C20.0144 12.9848 20.0172 13.2721 19.9565 13.5506C19.888 13.8645 19.7077 14.1604 19.3482 14.7503L19.0456 15.2469C18.6833 15.8415 18.5016 16.1396 18.2466 16.3545C18.0207 16.5449 17.7541 16.687 17.4648 16.7722C17.1379 16.8685 16.7735 16.8628 16.044 16.851L15.5783 16.8435C15.5249 16.8426 15.4945 16.8421 15.4647 16.8426C15.1261 16.8474 14.7932 16.9288 14.4946 17.0794C14.4645 17.0946 14.4346 17.1109 14.3745 17.1436C14.3145 17.1763 14.2845 17.1926 14.2556 17.2095C13.9685 17.3776 13.7288 17.6073 13.5551 17.8805C13.5376 17.9081 13.5205 17.9368 13.4868 17.9938L13.274 18.3544C12.921 18.9524 12.7443 19.2519 12.4934 19.4697C12.2714 19.6624 12.0083 19.8082 11.7218 19.8975C11.3979 19.9985 11.0349 19.9989 10.3086 19.9995L9.70382 19.9999C8.97549 20.0005 8.61115 20.0008 8.28636 19.8998C7.99903 19.8104 7.73553 19.6644 7.51304 19.4711C7.26154 19.2527 7.08391 18.9526 6.73044 18.3524L6.52048 17.9959C6.48495 17.9356 6.46719 17.9056 6.44865 17.8765C6.27709 17.6071 6.04115 17.3791 5.75895 17.2119C5.73468 17.1975 5.70946 17.1837 5.66827 17.1611C5.65771 17.1553 5.6461 17.149 5.6332 17.1419C5.56914 17.1068 5.5371 17.0892 5.50499 17.0729C5.20777 16.9224 4.87656 16.8408 4.53922 16.8349C4.50915 16.8344 4.47863 16.8349 4.42726 16.8357C4.41638 16.8358 4.40457 16.836 4.39162 16.8362L3.95642 16.8428C3.23137 16.8536 2.8697 16.8589 2.54446 16.7633C2.25673 16.6787 1.99185 16.5368 1.76658 16.348C1.51195 16.1347 1.32883 15.84 0.964836 15.2489L0.665329 14.7625C0.298882 14.1675 0.116282 13.8695 0.046262 13.5534C-0.0156806 13.2736 -0.0134765 12.9847 0.0529964 12.7059C0.128137 12.3907 0.316022 12.0958 0.692078 11.506L0.918102 11.1516C0.92446 11.1416 0.930258 11.1325 0.935588 11.1242C0.959761 11.0864 0.974311 11.0636 0.987735 11.0409C1.15338 10.7615 1.24528 10.4489 1.2561 10.129C1.25692 10.1047 1.25689 10.0802 1.25684 10.041C1.25682 10.0292 1.25681 10.0161 1.25681 10.0012C1.25682 9.93685 1.25683 9.90464 1.25578 9.87302C1.24512 9.55327 1.1543 9.2398 0.988957 8.96041C0.979489 8.94441 0.96924 8.92871 0.955473 8.90762C0.945459 8.89228 0.933585 8.87409 0.918795 8.85086L0.686851 8.48651C0.313403 7.89989 0.127193 7.60609 0.0521493 7.2926C-0.0142413 7.01525 -0.0173397 6.7279 0.0434188 6.44941C0.111887 6.13558 0.291969 5.84006 0.651262 5.25043L0.654475 5.24486L0.95254 4.75572L0.954343 4.75339C1.3169 4.1584 1.49818 3.86091 1.75327 3.64597C1.97918 3.4556 2.24515 3.31288 2.53439 3.22769C2.86132 3.13139 3.22659 3.13727 3.95602 3.14901L4.39679 3.15611C4.41034 3.15633 4.42257 3.15653 4.43372 3.15672C4.47967 3.1575 4.50743 3.15798 4.53489 3.15759C4.87354 3.15277 5.20536 3.07158 5.50397 2.92094C5.53392 2.90583 5.56519 2.88882 5.62475 2.8564C5.68471 2.82378 5.71477 2.80742 5.7437 2.79049C6.03081 2.62246 6.27098 2.39295 6.44467 2.11971C6.46217 2.09217 6.47924 2.06338 6.51289 2.00637L6.7257 1.64583L6.72791 1.6428C7.07992 1.04642 7.25603 0.74806 7.50657 0.530527C7.72855 0.337788 7.99127 0.191741 8.27782 0.10239C8.60171 0.00139295 8.96496 0.00111068 9.69123 0.000545808L10.2962 7.52964e-05C11.0245 -0.000491244 11.3885 -0.000425115 11.7132 0.100549C12.0006 0.189877 12.2642 0.335912 12.4867 0.529148C12.7372 0.746695 12.913 1.04528 13.2637 1.6406L13.4828 2.01262C13.5164 2.06962 13.5337 2.09808 13.5511 2.12562C13.725 2.39964 13.9663 2.63049 14.2541 2.79885C14.2829 2.81573 14.3132 2.83217 14.3727 2.86457C14.389 2.87342 14.4034 2.88129 14.4158 2.88808C14.4491 2.90631 14.4709 2.91819 14.4927 2.9292C14.7906 3.07946 15.1222 3.16013 15.46 3.16526C15.494 3.16578 15.5281 3.16554 15.5972 3.1645ZM10 13C11.6569 13 13 11.6569 13 10C13 8.34315 11.6569 7 10 7C8.34315 7 7 8.34315 7 10C7 11.6569 8.34315 13 10 13Z" fill="#484848"/>
</svg>
