<svg width="20" height="20" viewBox="0 0 20 20" fill="none" xmlns="http://www.w3.org/2000/svg">
<path d="M16.8679 9.99887C16.868 9.93434 16.8684 9.89291 16.8699 9.84945C16.8854 9.39139 17.0173 8.94649 17.2508 8.55258L17.3484 8.39633V8.39535L17.533 8.10629C17.911 7.51353 17.9601 7.41242 17.9793 7.33187C18.0038 7.22865 18.0052 7.12239 17.9822 7.0184C17.9647 6.93952 17.9188 6.83947 17.5545 6.24789L17.2791 5.80062C16.9163 5.21146 16.8431 5.11603 16.7674 5.05258C16.6723 4.97302 16.556 4.91095 16.4265 4.87289C16.3143 4.83994 16.1702 4.8309 15.4549 4.84164L15.4539 4.84066L15.4529 4.84164L15.0525 4.8475C14.9897 4.84844 14.9452 4.84919 14.8982 4.84847C14.4457 4.84155 13.998 4.73364 13.5926 4.52914C13.5472 4.50627 13.4942 4.47667 13.4578 4.45687C13.4093 4.43052 13.3656 4.40659 13.323 4.38168V4.3807C12.9313 4.15135 12.5957 3.83417 12.3513 3.44906C12.327 3.41065 12.3046 3.37403 12.2722 3.31918L12.075 2.98422C11.7251 2.39021 11.6552 2.29505 11.5818 2.23129C11.4884 2.1502 11.3743 2.08501 11.2449 2.04476C11.1325 2.00983 10.9871 1.99928 10.2674 1.99984L9.72244 2.00082C9.00427 2.00138 8.85968 2.0119 8.74783 2.04672C8.6195 2.08673 8.50468 2.15085 8.41091 2.23226C8.33717 2.29634 8.26667 2.39271 7.9158 2.98715L7.89138 3.02816L7.88748 3.03207L7.72244 3.31429C7.69469 3.36131 7.67064 3.40275 7.64431 3.44418C7.39996 3.82858 7.06554 4.14496 6.67458 4.37386C6.63201 4.39878 6.58851 4.42256 6.53982 4.44906C6.49183 4.47517 6.44799 4.49916 6.40408 4.52133C5.99864 4.72586 5.55039 4.83516 5.09548 4.84164C5.04501 4.84236 4.99006 4.84145 4.94119 4.84066L4.54373 4.83383C3.82196 4.82221 3.67637 4.83078 3.56326 4.8641C3.43395 4.90219 3.31834 4.965 3.22244 5.04574C3.14685 5.10943 3.07421 5.20536 2.71267 5.79867L2.68435 5.84554L2.67947 5.85043L2.44314 6.24105L2.44021 6.24593C2.07885 6.83895 2.0327 6.93816 2.01541 7.01742C1.99297 7.12029 1.99459 7.22636 2.01931 7.32992C2.03859 7.41047 2.08725 7.51225 2.46169 8.10043L2.67068 8.42855C2.68278 8.44755 2.69042 8.46071 2.70193 8.47836C2.71183 8.49355 2.73122 8.52152 2.75076 8.55453C2.9851 8.9505 3.11448 9.39684 3.12966 9.85238C3.13129 9.90131 3.13065 9.94955 3.13064 10.0008C3.13063 10.041 3.13136 10.0987 3.12966 10.1493C3.11417 10.6073 2.98238 11.0531 2.7488 11.4471C2.72328 11.4901 2.69393 11.5361 2.6697 11.5741L2.4656 11.8934C2.08834 12.485 2.03955 12.5862 2.02029 12.6668C1.99565 12.7702 1.99436 12.8771 2.01736 12.9813C2.03527 13.0622 2.08257 13.1649 2.44998 13.7616L2.71951 14.1991C3.08047 14.7852 3.15584 14.8821 3.2322 14.9461C3.32852 15.0268 3.44399 15.0901 3.57205 15.1278C3.68471 15.1608 3.82918 15.1688 4.54568 15.158L4.93728 15.1522C4.99074 15.1514 5.04846 15.1503 5.10232 15.1512C5.55512 15.1591 6.00206 15.2689 6.40603 15.4735C6.45304 15.4973 6.49865 15.5221 6.55056 15.5506C6.59388 15.5744 6.64618 15.6025 6.69216 15.6297C7.07877 15.8588 7.40701 16.1744 7.64724 16.5516C7.67506 16.5953 7.70063 16.638 7.73025 16.6883L7.91873 17.0096C8.2703 17.6066 8.34312 17.7036 8.41775 17.7684C8.5113 17.8496 8.62544 17.9147 8.75466 17.9549C8.86683 17.9897 9.01203 18.0004 9.7322 17.9998L10.2771 17.9989C10.9956 17.9983 11.1398 17.9879 11.2517 17.953C11.381 17.9126 11.4956 17.8482 11.5886 17.7674C11.6626 17.7031 11.734 17.6064 12.0857 17.0106L12.2771 16.6864C12.306 16.6374 12.3292 16.5965 12.3552 16.5555C12.5991 16.1719 12.9329 15.8553 13.325 15.6258V15.6248C13.3674 15.6 13.4102 15.5771 13.4588 15.5506C13.5077 15.524 13.5504 15.5006 13.5945 15.4784C14 15.2738 14.4492 15.1645 14.9041 15.158C14.9495 15.1574 14.9942 15.1583 15.0369 15.159H15.0359L15.4558 15.1659C16.1767 15.1775 16.3221 15.1689 16.4353 15.1356C16.5666 15.0969 16.6826 15.0336 16.7771 14.9539C16.8526 14.8903 16.9256 14.7949 17.2869 14.202L17.5594 13.7547C17.9207 13.1617 17.9659 13.0616 17.9832 12.9823L17.9959 12.9041C18.0039 12.8259 17.9987 12.747 17.9802 12.6698C17.9615 12.5916 17.915 12.4926 17.5447 11.911L17.3279 11.5721C17.2942 11.5191 17.2727 11.4829 17.2498 11.4442C17.0171 11.0509 16.8842 10.6059 16.8689 10.1473C16.8673 10.0984 16.8679 10.0498 16.8679 9.99887ZM11.9998 9.99984C11.9998 8.89527 11.1044 7.99984 9.99978 7.99984C8.89521 7.99984 7.99978 8.89527 7.99978 9.99984C7.99979 11.1044 8.89522 11.9998 9.99978 11.9998C11.1043 11.9998 11.9998 11.1044 11.9998 9.99984ZM13.9998 9.99984C13.9998 12.209 12.2089 13.9998 9.99978 13.9998C7.79065 13.9998 5.99979 12.209 5.99978 9.99984C5.99978 7.7907 7.79064 5.99984 9.99978 5.99984C12.2089 5.99984 13.9998 7.7907 13.9998 9.99984ZM18.8679 10.0809C18.8718 10.1977 18.9057 10.3161 18.9705 10.4256C18.977 10.4367 18.9859 10.4516 19.0154 10.4979L19.2312 10.8368C19.5234 11.2956 19.8102 11.7219 19.9256 12.2039C20.0203 12.5999 20.024 13.0114 19.9373 13.409C19.8312 13.8945 19.5527 14.3274 19.2674 14.7957L18.9949 15.242C18.7041 15.7192 18.4496 16.1601 18.0662 16.4832C17.7541 16.7462 17.3901 16.9399 17.0008 17.0545C16.5256 17.1945 16.0149 17.1754 15.4236 17.1659L15.0047 17.159H15.0037C14.9508 17.1582 14.9405 17.1579 14.9324 17.158C14.7777 17.1602 14.6269 17.1979 14.4949 17.2645C14.485 17.2695 14.4731 17.2757 14.4148 17.3075C14.3556 17.3397 14.3443 17.3458 14.3347 17.3514C14.2102 17.4243 14.1125 17.5207 14.0437 17.6287C14.0383 17.6373 14.0305 17.6492 13.9988 17.703L13.8074 18.0272C13.5241 18.5071 13.2766 18.9494 12.8992 19.2772C12.5927 19.5433 12.2338 19.7416 11.8474 19.8621C11.3764 20.009 10.8667 19.9984 10.2781 19.9989L9.73416 19.9998C9.14423 20.0003 8.63328 20.0109 8.16091 19.8641C7.77313 19.7435 7.41307 19.5455 7.10623 19.2791C6.72815 18.9507 6.47976 18.5076 6.19509 18.0243L6.00662 17.7039C5.97235 17.6458 5.96522 17.6344 5.95974 17.6258C5.89116 17.5182 5.7939 17.4223 5.67263 17.3504C5.66414 17.3454 5.65747 17.3423 5.58865 17.3045C5.52572 17.27 5.51335 17.263 5.50271 17.2577C5.37179 17.1914 5.22241 17.1539 5.06814 17.1512C5.05648 17.151 5.04707 17.151 4.96755 17.1522L4.57595 17.158C3.988 17.1669 3.48031 17.1847 3.00759 17.0457C2.61783 16.9311 2.25613 16.7383 1.94705 16.4793C1.56531 16.1594 1.31046 15.7254 1.01638 15.2479L0.746851 14.8104C0.454802 14.3361 0.173314 13.9021 0.06521 13.4139C-0.0231647 13.0147 -0.0199971 12.6013 0.0749756 12.203C0.19104 11.7165 0.480092 11.2861 0.779077 10.8172L0.983179 10.4989C1.02204 10.4379 1.02424 10.4331 1.0281 10.4266C1.09269 10.3176 1.12666 10.1996 1.13064 10.0819V9.91879C1.12663 9.7988 1.09234 9.67998 1.02908 9.57308C1.0285 9.57219 1.02783 9.57123 1.02712 9.57015C1.01869 9.55722 1.00259 9.53327 0.983179 9.50277L0.774194 9.17465C0.476519 8.70706 0.189782 8.27942 0.073999 7.79574C-0.0205863 7.40043 -0.0245031 6.98968 0.0622803 6.59164C0.168231 6.10601 0.446886 5.67314 0.732202 5.20492C0.733181 5.20329 0.734144 5.20166 0.735132 5.20004L1.00271 4.75961C1.00465 4.75642 1.00659 4.753 1.00857 4.74984C1.29778 4.275 1.55176 3.838 1.93337 3.51644C2.24398 3.25472 2.60675 3.06038 2.99783 2.94515C3.47308 2.80517 3.98521 2.82431 4.57595 2.83383L4.97341 2.84066C5.04895 2.84188 5.05637 2.84179 5.06716 2.84164C5.22161 2.83941 5.37081 2.80265 5.50271 2.73617C5.51253 2.73121 5.52495 2.72423 5.58376 2.69222C5.64271 2.66015 5.65437 2.65382 5.66384 2.64828C5.78947 2.57476 5.88765 2.47821 5.95583 2.37094C5.9609 2.36296 5.96738 2.35259 5.99978 2.29769L6.19216 1.9725L6.19412 1.96859C6.47632 1.49045 6.72353 1.04969 7.10037 0.722498C7.40614 0.457011 7.76471 0.258351 8.15212 0.137537C8.62323 -0.00936423 9.13314 0.00127548 9.72146 0.000817897L10.2654 -0.000158666C10.8562 -0.000618282 11.3665 -0.0112192 11.8386 0.135584C12.2263 0.25613 12.5863 0.454827 12.8933 0.721521C13.2707 1.04928 13.5174 1.49117 13.7986 1.96859L13.9959 2.30355C14.0235 2.35053 14.0328 2.36571 14.0398 2.37679C14.0911 2.45756 14.1598 2.53309 14.2439 2.59652L14.3338 2.65609L14.4129 2.70004C14.4274 2.70793 14.4403 2.71473 14.451 2.72054C14.462 2.72657 14.4703 2.73042 14.4773 2.73422C14.4906 2.74142 14.4939 2.74301 14.4939 2.74301C14.6244 2.80877 14.7733 2.84605 14.9285 2.84847C14.9427 2.84869 14.9608 2.8494 15.0222 2.84847L15.4226 2.84164H15.4246C16.0107 2.83284 16.5185 2.81506 16.991 2.95394C17.3793 3.06809 17.7412 3.26032 18.0515 3.52035C18.4341 3.84083 18.6889 4.27707 18.9812 4.75179L19.2566 5.19906C19.544 5.66581 19.8265 6.09887 19.9344 6.58578C20.0227 6.98485 20.0195 7.39755 19.9246 7.79574C19.8085 8.28244 19.5183 8.71387 19.2195 9.18246L19.0164 9.50082L19.0144 9.50179C18.9807 9.55475 18.9758 9.56481 18.9715 9.57211C18.9069 9.68098 18.873 9.79925 18.8689 9.91683C18.8685 9.93029 18.868 9.94783 18.8679 9.99887C18.8679 10.0629 18.8677 10.0731 18.8679 10.0809Z" fill="#484848"/>
</svg>
