<svg width="64" height="108" viewBox="0 0 64 108" fill="none" xmlns="http://www.w3.org/2000/svg">
<rect x="0.5" y="0.5" width="63" height="107" rx="4.5" stroke="#9747FF" stroke-dasharray="10 5"/>
<path d="M38.8682 31.999C38.8682 31.9345 38.8687 31.893 38.8701 31.8496C38.8857 31.3915 39.0175 30.9466 39.251 30.5527L39.3487 30.3964V30.3955L39.5332 30.1064C39.9112 29.5137 39.9603 29.4125 39.9795 29.332C40.0041 29.2288 40.0054 29.1225 39.9824 29.0185C39.965 28.9396 39.919 28.8396 39.5547 28.248L39.2793 27.8007C38.9165 27.2116 38.8433 27.1162 38.7676 27.0527C38.6726 26.9731 38.5563 26.9111 38.4268 26.873C38.3145 26.8401 38.1705 26.831 37.4551 26.8418L37.4541 26.8408L37.4531 26.8418L37.0528 26.8476C36.9899 26.8486 36.9454 26.8493 36.8985 26.8486C36.4459 26.8417 35.9983 26.7338 35.5928 26.5293C35.5475 26.5064 35.4944 26.4768 35.458 26.457C35.4096 26.4306 35.3658 26.4067 35.3233 26.3818V26.3808C34.9315 26.1515 34.596 25.8343 34.3516 25.4492C34.3272 25.4108 34.3048 25.3742 34.2725 25.3193L34.0752 24.9843C33.7254 24.3903 33.6555 24.2952 33.5821 24.2314C33.4887 24.1503 33.3746 24.0851 33.2451 24.0449C33.1327 24.01 32.9874 23.9994 32.2676 24L31.7227 24.0009C31.0045 24.0015 30.8599 24.012 30.7481 24.0468C30.6197 24.0869 30.5049 24.151 30.4112 24.2324C30.3374 24.2965 30.2669 24.3928 29.916 24.9873L29.8916 25.0283L29.8877 25.0322L29.7227 25.3144C29.6949 25.3614 29.6709 25.4029 29.6446 25.4443C29.4002 25.8287 29.0658 26.1451 28.6748 26.374C28.6323 26.3989 28.5888 26.4227 28.5401 26.4492C28.4921 26.4753 28.4482 26.4993 28.4043 26.5214C27.9989 26.726 27.5506 26.8353 27.0957 26.8418C27.0452 26.8425 26.9903 26.8416 26.9414 26.8408L26.544 26.8339C25.8222 26.8223 25.6766 26.8309 25.5635 26.8642C25.4342 26.9023 25.3186 26.9651 25.2227 27.0459C25.1471 27.1096 25.0745 27.2055 24.7129 27.7988L24.6846 27.8457L24.6797 27.8505L24.4434 28.2412L24.4405 28.2461C24.0791 28.8391 24.0329 28.9383 24.0156 29.0175C23.9932 29.1204 23.9948 29.2265 24.0196 29.33C24.0388 29.4106 24.0875 29.5124 24.4619 30.1005L24.6709 30.4287C24.683 30.4477 24.6907 30.4608 24.7022 30.4785C24.7121 30.4937 24.7315 30.5216 24.751 30.5547C24.9853 30.9506 25.1147 31.397 25.1299 31.8525C25.1315 31.9014 25.1309 31.9497 25.1309 32.0009C25.1309 32.0411 25.1316 32.0988 25.1299 32.1494C25.1144 32.6075 24.9826 33.0532 24.749 33.4472C24.7235 33.4903 24.6942 33.5362 24.6699 33.5742L24.4658 33.8935C24.0886 34.4852 24.0398 34.5864 24.0205 34.667C23.9959 34.7703 23.9946 34.8773 24.0176 34.9814C24.0355 35.0623 24.0828 35.165 24.4502 35.7617L24.7198 36.1992C25.0807 36.7854 25.1561 36.8823 25.2324 36.9463C25.3288 37.027 25.4442 37.0903 25.5723 37.1279C25.685 37.161 25.8294 37.1689 26.5459 37.1582L26.9375 37.1523C26.991 37.1515 27.0487 37.1504 27.1026 37.1513C27.5554 37.1592 28.0023 37.2691 28.4063 37.4736C28.4533 37.4974 28.4989 37.5223 28.5508 37.5507C28.5941 37.5745 28.6464 37.6026 28.6924 37.6298C29.079 37.8589 29.4073 38.1746 29.6475 38.5517C29.6753 38.5954 29.7009 38.6382 29.7305 38.6884L29.919 39.0097C30.2705 39.6067 30.3434 39.7037 30.418 39.7685C30.5115 39.8498 30.6257 39.9149 30.7549 39.955C30.8671 39.9899 31.0123 40.0005 31.7324 40L32.2774 39.999C32.9958 39.9984 33.14 39.988 33.252 39.9531C33.3813 39.9128 33.4959 39.8483 33.5889 39.7675C33.6629 39.7032 33.7343 39.6065 34.086 39.0107L34.2774 38.6865C34.3063 38.6375 34.3294 38.5967 34.3555 38.5556C34.5994 38.172 34.9331 37.8554 35.3252 37.6259V37.625C35.3676 37.6002 35.4104 37.5772 35.459 37.5507C35.5079 37.5241 35.5506 37.5008 35.5948 37.4785C36.0002 37.2739 36.4494 37.1646 36.9043 37.1582C36.9497 37.1575 36.9945 37.1584 37.0371 37.1591H37.0362L37.4561 37.166C38.1769 37.1776 38.3224 37.169 38.4356 37.1357C38.5669 37.097 38.6829 37.0337 38.7774 36.9541C38.8529 36.8905 38.9258 36.795 39.2871 36.2021L39.5596 35.7548C39.921 35.1618 39.9661 35.0617 39.9834 34.9824L39.9961 34.9043C40.0042 34.826 39.9989 34.7471 39.9805 34.6699C39.9618 34.5917 39.9152 34.4927 39.5449 33.9111L39.3281 33.5722C39.2944 33.5192 39.2729 33.483 39.25 33.4443C39.0173 33.051 38.8845 32.606 38.8692 32.1474C38.8675 32.0985 38.8682 32.05 38.8682 31.999ZM34 32C34 30.8954 33.1046 30 32 30C30.8955 30 30 30.8954 30 32C30 33.1045 30.8955 34 32 34C33.1046 34 34 33.1045 34 32ZM36 32C36 34.2091 34.2092 36 32 36C29.7909 36 28 34.2091 28 32C28 29.7908 29.7909 28 32 28C34.2092 28 36 29.7908 36 32ZM40.8682 32.081C40.8721 32.1978 40.906 32.3162 40.9707 32.4257C40.9773 32.4368 40.9862 32.4517 41.0156 32.498L41.2315 32.8369C41.5236 33.2957 41.8104 33.7221 41.9258 34.2041C42.0206 34.6 42.0243 35.0115 41.9375 35.4091C41.8315 35.8947 41.553 36.3275 41.2676 36.7959L40.9951 37.2422C40.7044 37.7193 40.4498 38.1602 40.0664 38.4834C39.7543 38.7464 39.3903 38.94 39.001 39.0547C38.5258 39.1946 38.0151 39.1755 37.4239 39.166L37.0049 39.1591H37.0039C36.9511 39.1583 36.9407 39.1581 36.9326 39.1582C36.778 39.1604 36.6272 39.198 36.4951 39.2646C36.4852 39.2696 36.4734 39.2759 36.4151 39.3076C36.3559 39.3398 36.3445 39.3459 36.335 39.3515C36.2104 39.4244 36.1127 39.5208 36.044 39.6289C36.0385 39.6374 36.0308 39.6494 35.999 39.7031L35.8076 40.0273C35.5244 40.5072 35.2769 40.9496 34.8994 41.2773C34.593 41.5434 34.234 41.7417 33.8477 41.8623C33.3766 42.0092 32.8669 41.9985 32.2783 41.999L31.7344 42C31.1445 42.0004 30.6335 42.0111 30.1612 41.8642C29.7734 41.7437 29.4133 41.5457 29.1065 41.2793C28.7284 40.9509 28.48 40.5078 28.1953 40.0244L28.0069 39.7041C27.9726 39.6459 27.9655 39.6345 27.96 39.6259C27.8914 39.5183 27.7941 39.4224 27.6729 39.3505C27.6644 39.3455 27.6577 39.3424 27.5889 39.3047C27.526 39.2701 27.5136 39.2632 27.503 39.2578C27.372 39.1915 27.2227 39.1541 27.0684 39.1513C27.0567 39.1511 27.0473 39.1511 26.9678 39.1523L26.5762 39.1582C25.9882 39.167 25.4806 39.1848 25.0078 39.0459C24.6181 38.9312 24.2564 38.7384 23.9473 38.4795C23.5656 38.1595 23.3107 37.7256 23.0166 37.248L22.7471 36.8105C22.455 36.3363 22.1736 35.9022 22.0655 35.414C21.9771 35.0149 21.9802 34.6014 22.0752 34.2031C22.1913 33.7166 22.4803 33.2862 22.7793 32.8173L22.9834 32.499C23.0223 32.438 23.0245 32.4332 23.0283 32.4267C23.0929 32.3178 23.1269 32.1998 23.1309 32.082V31.9189C23.1269 31.7989 23.0926 31.6801 23.0293 31.5732C23.0287 31.5723 23.0281 31.5714 23.0274 31.5703C23.0189 31.5573 23.0028 31.5334 22.9834 31.5029L22.7744 31.1748C22.4768 30.7072 22.19 30.2795 22.0742 29.7959C21.9797 29.4006 21.9757 28.9898 22.0625 28.5918C22.1685 28.1061 22.4471 27.6733 22.7324 27.205C22.7334 27.2034 22.7344 27.2018 22.7354 27.2002L23.003 26.7597C23.0049 26.7565 23.0068 26.7531 23.0088 26.75C23.298 26.2751 23.552 25.8381 23.9336 25.5166C24.2442 25.2548 24.607 25.0605 24.9981 24.9453C25.4733 24.8053 25.9855 24.8244 26.5762 24.8339L26.9737 24.8408C27.0492 24.842 27.0566 24.8419 27.0674 24.8418C27.2219 24.8395 27.3711 24.8028 27.503 24.7363C27.5128 24.7313 27.5252 24.7244 27.584 24.6923C27.643 24.6603 27.6546 24.6539 27.6641 24.6484C27.7897 24.5749 27.8879 24.4783 27.9561 24.3711C27.9611 24.3631 27.9676 24.3527 28 24.2978L28.1924 23.9726L28.1944 23.9687C28.4766 23.4906 28.7238 23.0498 29.1006 22.7226C29.4064 22.4571 29.765 22.2585 30.1524 22.1377C30.6235 21.9908 31.1334 22.0014 31.7217 22.0009L32.2656 22C32.8565 21.9995 33.3667 21.9889 33.8389 22.1357C34.2266 22.2563 34.5865 22.4549 34.8936 22.7216C35.2709 23.0494 35.5177 23.4913 35.7989 23.9687L35.9961 24.3037C36.0238 24.3506 36.033 24.3658 36.0401 24.3769C36.0913 24.4577 36.16 24.5332 36.2442 24.5966L36.334 24.6562L36.4131 24.7002C36.4276 24.7081 36.4406 24.7149 36.4512 24.7207C36.4622 24.7267 36.4706 24.7305 36.4776 24.7343C36.4908 24.7415 36.4942 24.7431 36.4942 24.7431C36.6246 24.8089 36.7735 24.8462 36.9287 24.8486C36.9429 24.8488 36.961 24.8495 37.0225 24.8486L37.4229 24.8418H37.4248C38.011 24.833 38.5188 24.8152 38.9912 24.9541C39.3795 25.0682 39.7414 25.2604 40.0518 25.5205C40.4343 25.841 40.6891 26.2772 40.9815 26.7519L41.2569 27.1992C41.5443 27.6659 41.8268 28.099 41.9346 28.5859C42.0229 28.985 42.0197 29.3977 41.9248 29.7959C41.8088 30.2826 41.5186 30.714 41.2198 31.1826L41.0166 31.5009L41.0147 31.5019C40.9809 31.5549 40.976 31.5649 40.9717 31.5722C40.9072 31.6811 40.8732 31.7994 40.8692 31.917C40.8687 31.9304 40.8682 31.948 40.8682 31.999C40.8682 32.063 40.8679 32.0732 40.8682 32.081Z" fill="#484848"/>
<path fill-rule="evenodd" clip-rule="evenodd" d="M37.5972 69.1645L38.042 69.1578L38.044 69.1577C38.7676 69.1468 39.1297 69.1414 39.4546 69.2369C39.7424 69.3215 40.008 69.4631 40.2333 69.6518C40.4879 69.8651 40.6698 70.1604 41.0338 70.7515L41.3397 71.2483C41.7019 71.8364 41.8841 72.1323 41.9537 72.4466C42.0156 72.7263 42.0134 73.0149 41.947 73.2937C41.8718 73.6089 41.6835 73.9043 41.3074 74.494L41.0814 74.8484L41.0801 74.8501C41.0459 74.9038 41.0285 74.9312 41.0123 74.9584C40.8467 75.2378 40.7547 75.5507 40.7439 75.8707C40.7428 75.9023 40.7422 75.9347 40.7422 75.999C40.7422 76.0628 40.7422 76.0957 40.7432 76.1272C40.7539 76.4469 40.8461 76.7599 41.0114 77.0393C41.0278 77.0669 41.0449 77.0946 41.08 77.1498L41.32 77.5268C41.6881 78.105 41.8735 78.3962 41.948 78.7074C42.0144 78.9848 42.0172 79.2721 41.9565 79.5506C41.888 79.8645 41.7077 80.1604 41.3482 80.7503L41.0456 81.2469C40.6833 81.8415 40.5016 82.1396 40.2466 82.3545C40.0207 82.5449 39.7541 82.687 39.4648 82.7722C39.1379 82.8685 38.7735 82.8628 38.044 82.851L37.5783 82.8435C37.5249 82.8426 37.4945 82.8421 37.4647 82.8426C37.1261 82.8474 36.7932 82.9288 36.4946 83.0794C36.4645 83.0946 36.4346 83.1109 36.3745 83.1436C36.3145 83.1763 36.2845 83.1926 36.2556 83.2095C35.9685 83.3776 35.7288 83.6073 35.5551 83.8805C35.5376 83.9081 35.5205 83.9368 35.4868 83.9938L35.274 84.3544C34.921 84.9524 34.7443 85.2519 34.4934 85.4697C34.2714 85.6624 34.0083 85.8082 33.7218 85.8975C33.3979 85.9985 33.0349 85.9989 32.3086 85.9995L31.7038 85.9999C30.9755 86.0005 30.6112 86.0008 30.2864 85.8998C29.999 85.8104 29.7355 85.6644 29.513 85.4711C29.2615 85.2527 29.0839 84.9526 28.7304 84.3524L28.5205 83.9959C28.4849 83.9356 28.4672 83.9056 28.4487 83.8765C28.2771 83.6071 28.0412 83.3791 27.759 83.2119C27.7347 83.1975 27.7095 83.1837 27.6683 83.1611C27.6577 83.1553 27.6461 83.149 27.6332 83.1419C27.5691 83.1068 27.5371 83.0892 27.505 83.0729C27.2078 82.9224 26.8766 82.8408 26.5392 82.8349C26.5092 82.8344 26.4786 82.8349 26.4273 82.8357C26.4164 82.8358 26.4046 82.836 26.3916 82.8362L25.9564 82.8428C25.2314 82.8536 24.8697 82.8589 24.5445 82.7633C24.2567 82.6787 23.9919 82.5368 23.7666 82.348C23.512 82.1347 23.3288 81.84 22.9648 81.2489L22.6653 80.7625C22.2989 80.1675 22.1163 79.8695 22.0463 79.5534C21.9843 79.2736 21.9865 78.9847 22.053 78.7059C22.1281 78.3907 22.316 78.0958 22.6921 77.506L22.9181 77.1516C22.9245 77.1416 22.9303 77.1325 22.9356 77.1242C22.9598 77.0864 22.9743 77.0636 22.9877 77.0409C23.1534 76.7615 23.2453 76.4489 23.2561 76.129C23.2569 76.1047 23.2569 76.0802 23.2568 76.041C23.2568 76.0292 23.2568 76.0161 23.2568 76.0012C23.2568 75.9368 23.2568 75.9046 23.2558 75.873C23.2451 75.5533 23.1543 75.2398 22.989 74.9604C22.9795 74.9444 22.9692 74.9287 22.9555 74.9076C22.9455 74.8923 22.9336 74.8741 22.9188 74.8509L22.6869 74.4865C22.3134 73.8999 22.1272 73.6061 22.0521 73.2926C21.9858 73.0153 21.9827 72.7279 22.0434 72.4494C22.1119 72.1356 22.292 71.8401 22.6513 71.2504L22.6545 71.2449L22.9525 70.7557L22.9543 70.7534C23.3169 70.1584 23.4982 69.8609 23.7533 69.646C23.9792 69.4556 24.2451 69.3129 24.5344 69.2277C24.8613 69.1314 25.2266 69.1373 25.956 69.149L26.3968 69.1561C26.4103 69.1563 26.4226 69.1565 26.4337 69.1567C26.4797 69.1575 26.5074 69.158 26.5349 69.1576C26.8735 69.1528 27.2054 69.0716 27.504 68.9209C27.5339 68.9058 27.5652 68.8888 27.6248 68.8564C27.6847 68.8238 27.7148 68.8074 27.7437 68.7905C28.0308 68.6225 28.271 68.3929 28.4447 68.1197C28.4622 68.0922 28.4792 68.0634 28.5129 68.0064L28.7257 67.6458L28.7279 67.6428C29.0799 67.0464 29.256 66.7481 29.5066 66.5305C29.7285 66.3378 29.9913 66.1917 30.2778 66.1024C30.6017 66.0014 30.965 66.0011 31.6912 66.0005L32.2962 66.0001C33.0245 65.9995 33.3885 65.9996 33.7132 66.1005C34.0006 66.1899 34.2642 66.3359 34.4867 66.5291C34.7372 66.7467 34.913 67.0453 35.2637 67.6406L35.4828 68.0126C35.5164 68.0696 35.5337 68.0981 35.5511 68.1256C35.725 68.3996 35.9663 68.6305 36.2541 68.7989C36.2829 68.8157 36.3132 68.8322 36.3727 68.8646C36.389 68.8734 36.4034 68.8813 36.4158 68.8881C36.4491 68.9063 36.4709 68.9182 36.4927 68.9292C36.7906 69.0795 37.1222 69.1601 37.46 69.1653C37.494 69.1658 37.5281 69.1655 37.5972 69.1645ZM32 79C33.6569 79 35 77.6569 35 76C35 74.3431 33.6569 73 32 73C30.3431 73 29 74.3431 29 76C29 77.6569 30.3431 79 32 79Z" fill="#484848"/>
</svg>
