<svg width="24" height="24" viewBox="0 0 24 24" fill="none" xmlns="http://www.w3.org/2000/svg">
<path fill-rule="evenodd" clip-rule="evenodd" d="M6 14C7.10457 14 8 13.1046 8 12C8 10.8954 7.10457 10 6 10C4.89543 10 4 10.8954 4 12C4 13.1046 4.89543 14 6 14ZM6 16C8.20914 16 10 14.2091 10 12C10 9.79086 8.20914 8 6 8C3.79086 8 2 9.79086 2 12C2 14.2091 3.79086 16 6 16Z" fill="#484848"/>
<path fill-rule="evenodd" clip-rule="evenodd" d="M18 8C19.1046 8 20 7.10457 20 6C20 4.89543 19.1046 4 18 4C16.8954 4 16 4.89543 16 6C16 7.10457 16.8954 8 18 8ZM18 10C20.2091 10 22 8.20914 22 6C22 3.79086 20.2091 2 18 2C15.7909 2 14 3.79086 14 6C14 8.20914 15.7909 10 18 10Z" fill="#484848"/>
<path fill-rule="evenodd" clip-rule="evenodd" d="M18 20C19.1046 20 20 19.1046 20 18C20 16.8954 19.1046 16 18 16C16.8954 16 16 16.8954 16 18C16 19.1046 16.8954 20 18 20ZM18 22C20.2091 22 22 20.2091 22 18C22 15.7909 20.2091 14 18 14C15.7909 14 14 15.7909 14 18C14 20.2091 15.7909 22 18 22Z" fill="#484848"/>
<path fill-rule="evenodd" clip-rule="evenodd" d="M15.8944 7.55279C16.1414 8.04676 15.9412 8.64744 15.4472 8.89443L9.44721 11.8944C8.95323 12.1414 8.35256 11.9412 8.10557 11.4472C7.85858 10.9532 8.05881 10.3526 8.55279 10.1056L14.5528 7.10557C15.0468 6.85858 15.6474 7.05881 15.8944 7.55279Z" fill="#484848"/>
<path fill-rule="evenodd" clip-rule="evenodd" d="M15.8944 16.4472C15.6474 16.9412 15.0468 17.1414 14.5528 16.8944L8.55277 13.8944C8.05879 13.6474 7.85857 13.0468 8.10556 12.5528C8.35255 12.0588 8.95322 11.8586 9.4472 12.1056L15.4472 15.1056C15.9412 15.3526 16.1414 15.9532 15.8944 16.4472Z" fill="#484848"/>
</svg>
