<svg width="20" height="20" viewBox="0 0 20 20" fill="none" xmlns="http://www.w3.org/2000/svg">
<path fill-rule="evenodd" clip-rule="evenodd" d="M4 12C5.10457 12 6 11.1046 6 10C6 8.89543 5.10457 8 4 8C2.89543 8 2 8.89543 2 10C2 11.1046 2.89543 12 4 12ZM4 14C6.20914 14 8 12.2091 8 10C8 7.79086 6.20914 6 4 6C1.79086 6 0 7.79086 0 10C0 12.2091 1.79086 14 4 14Z" fill="#484848"/>
<path fill-rule="evenodd" clip-rule="evenodd" d="M16 6C17.1046 6 18 5.10457 18 4C18 2.89543 17.1046 2 16 2C14.8954 2 14 2.89543 14 4C14 5.10457 14.8954 6 16 6ZM16 8C18.2091 8 20 6.20914 20 4C20 1.79086 18.2091 0 16 0C13.7909 0 12 1.79086 12 4C12 6.20914 13.7909 8 16 8Z" fill="#484848"/>
<path fill-rule="evenodd" clip-rule="evenodd" d="M16 18C17.1046 18 18 17.1046 18 16C18 14.8954 17.1046 14 16 14C14.8954 14 14 14.8954 14 16C14 17.1046 14.8954 18 16 18ZM16 20C18.2091 20 20 18.2091 20 16C20 13.7909 18.2091 12 16 12C13.7909 12 12 13.7909 12 16C12 18.2091 13.7909 20 16 20Z" fill="#484848"/>
<path fill-rule="evenodd" clip-rule="evenodd" d="M13.8944 5.55279C14.1414 6.04676 13.9412 6.64744 13.4472 6.89443L7.44721 9.89443C6.95323 10.1414 6.35256 9.94119 6.10557 9.44721C5.85858 8.95324 6.05881 8.35256 6.55279 8.10557L12.5528 5.10557C13.0468 4.85858 13.6474 5.05881 13.8944 5.55279Z" fill="#484848"/>
<path fill-rule="evenodd" clip-rule="evenodd" d="M13.8944 14.4472C13.6474 14.9412 13.0468 15.1414 12.5528 14.8944L6.55277 11.8944C6.05879 11.6474 5.85857 11.0468 6.10556 10.5528C6.35255 10.0588 6.95322 9.85858 7.4472 10.1056L13.4472 13.1056C13.9412 13.3526 14.1414 13.9532 13.8944 14.4472Z" fill="#484848"/>
</svg>
