<svg width="15" height="16" viewBox="0 0 15 16" fill="none" xmlns="http://www.w3.org/2000/svg">
<path fill-rule="evenodd" clip-rule="evenodd" d="M14.5 6.22145C14.5 12.1434 9.99769 14.9472 8.08899 15.8067L8.0869 15.8077C7.88595 15.8982 7.78533 15.9435 7.5571 15.9824C7.41264 16.0071 7.08827 16.0071 6.94381 15.9824C6.71479 15.9433 6.61311 15.8979 6.41077 15.8067C4.50207 14.9472 0 12.1434 0 6.22145V5.39204C0 4.04891 0 3.37734 0.35711 2.86296C0.714221 2.34858 1.34342 2.11384 2.60183 1.64436L6.31788 0.257982C6.77888 0.0859939 7.00938 0 7.25 0C7.49062 0 7.72112 0.0859939 8.18212 0.257982L11.8982 1.64436C13.1566 2.11384 13.7858 2.34858 14.1429 2.86296C14.5 3.37734 14.5 4.0489 14.5 5.39203V6.22145ZM10.2621 6.3184C10.4979 6.03555 10.4596 5.61517 10.1768 5.37946C9.89394 5.14375 9.47356 5.18197 9.23785 5.46482L6.41667 8.85024L5.26215 7.46482C5.02644 7.18197 4.60606 7.14375 4.32321 7.37946C4.04036 7.61517 4.00214 8.03555 4.23785 8.3184L5.67405 10.0418C6.06052 10.5056 6.77281 10.5056 7.15928 10.0418L10.2621 6.3184Z" fill="#484848"/>
</svg>
