<svg width="60" height="108" viewBox="0 0 60 108" fill="none" xmlns="http://www.w3.org/2000/svg">
<rect x="0.5" y="0.5" width="59" height="107" rx="4.5" stroke="#9747FF" stroke-dasharray="10 5"/>
<path fill-rule="evenodd" clip-rule="evenodd" d="M30.1503 27.1131C30.0459 27.144 29.9104 27.194 29.6674 27.2846L25.9514 28.671C25.3012 28.9136 24.8908 29.0682 24.5928 29.2189C24.3172 29.3583 24.2283 29.4514 24.1786 29.523C24.1288 29.5946 24.0727 29.7104 24.0385 30.0173C24.0014 30.3492 24 30.7878 24 31.4818V32.3112C24 37.6321 28.0329 40.1793 29.8214 40.9846C29.9314 41.0342 29.9661 41.049 29.9964 41.0595C30.0131 41.0653 30.0393 41.0737 30.105 41.0852C30.1083 41.0855 30.119 41.0866 30.1384 41.0877C30.1693 41.0895 30.2083 41.0907 30.2505 41.0907C30.2926 41.0907 30.3316 41.0895 30.3625 41.0877C30.3819 41.0866 30.3926 41.0855 30.3959 41.0852C30.461 41.0738 30.4866 41.0656 30.5026 41.06C30.5324 41.0496 30.5663 41.0351 30.6763 40.9856L30.6784 40.9846C32.4669 40.1792 36.5 37.632 36.5 32.3112V31.4818C36.5 30.7878 36.4986 30.3492 36.4615 30.0173C36.4273 29.7104 36.3712 29.5946 36.3214 29.523C36.2717 29.4514 36.1828 29.3583 35.9072 29.2189C35.6092 29.0682 35.1988 28.9136 34.5486 28.671L30.8326 27.2846C30.5896 27.194 30.4541 27.144 30.3497 27.1131C30.3033 27.0994 30.277 27.0938 30.2632 27.0914C30.2567 27.0903 30.2517 27.0898 30.2517 27.0898L30.25 27.0897L30.2483 27.0898C30.2483 27.0898 30.2433 27.0903 30.2368 27.0914C30.223 27.0938 30.1968 27.0994 30.1503 27.1131ZM29.0584 25.377C29.426 25.2388 29.8223 25.0897 30.25 25.0897C30.6777 25.0897 31.074 25.2387 31.4416 25.377C31.4718 25.3884 31.5018 25.3997 31.5317 25.4108L35.2954 26.815C35.8838 27.0344 36.4004 27.2271 36.8098 27.4342C37.2527 27.6581 37.6569 27.9396 37.9643 28.3824C38.2717 28.8252 38.3942 29.3023 38.4492 29.7956C38.5001 30.2515 38.5 30.8028 38.5 31.4308L38.5 32.3112C38.5 38.8342 33.5285 41.8946 31.4996 42.8083L31.4935 42.811C31.2732 42.9102 31.0796 42.9974 30.7255 43.0579C30.5682 43.0848 30.3832 43.0907 30.2505 43.0907C30.1177 43.0907 29.9327 43.0848 29.7755 43.0579C29.4195 42.9971 29.225 42.9095 29.0012 42.8087L29.0002 42.8083C26.9712 41.8946 22 38.8341 22 32.3112L22 31.4309C22 30.8028 21.9999 30.2515 22.0508 29.7956C22.1058 29.3023 22.2283 28.8252 22.5357 28.3824C22.8431 27.9396 23.2473 27.6581 23.6902 27.4342C24.0996 27.2271 24.6162 27.0344 25.2046 26.815C25.2204 26.809 25.2363 26.8031 25.2523 26.7972L28.9683 25.4108C28.9982 25.3997 29.0282 25.3884 29.0584 25.377Z" fill="#484848"/>
<path fill-rule="evenodd" clip-rule="evenodd" d="M33.2301 31.3154C33.5483 31.5806 33.5913 32.0535 33.3262 32.3717L30.2233 36.0951C29.8035 36.5989 29.0298 36.5989 28.61 36.0951L27.1738 34.3717C26.9087 34.0535 26.9517 33.5806 27.2699 33.3154C27.5881 33.0502 28.061 33.0932 28.3262 33.4114L29.4167 34.72L32.1738 31.4114C32.439 31.0932 32.9119 31.0502 33.2301 31.3154Z" fill="#484848"/>
<path fill-rule="evenodd" clip-rule="evenodd" d="M37.5 73.2214C37.5 79.1434 32.9977 81.9472 31.089 82.8067L31.0869 82.8077C30.8859 82.8982 30.7853 82.9435 30.5571 82.9824C30.4126 83.0071 30.0883 83.0071 29.9438 82.9824C29.7148 82.9433 29.6131 82.8979 29.4108 82.8067C27.5021 81.9472 23 79.1434 23 73.2214V72.392C23 71.0489 23 70.3773 23.3571 69.863C23.7142 69.3486 24.3434 69.1138 25.6018 68.6444L29.3179 67.258C29.7789 67.086 30.0094 67 30.25 67C30.4906 67 30.7211 67.086 31.1821 67.258L34.8982 68.6444C36.1566 69.1138 36.7858 69.3486 37.1429 69.863C37.5 70.3773 37.5 71.0489 37.5 72.392V73.2214ZM33.2621 73.3184C33.4979 73.0355 33.4596 72.6152 33.1768 72.3795C32.8939 72.1438 32.4736 72.182 32.2379 72.4648L29.4167 75.8502L28.2621 74.4648C28.0264 74.182 27.6061 74.1438 27.3232 74.3795C27.0404 74.6152 27.0021 75.0355 27.2379 75.3184L28.6741 77.0418C29.0605 77.5056 29.7728 77.5056 30.1593 77.0418L33.2621 73.3184Z" fill="#484848"/>
</svg>
