<svg width="17" height="19" viewBox="0 0 17 19" fill="none" xmlns="http://www.w3.org/2000/svg">
<path fill-rule="evenodd" clip-rule="evenodd" d="M8.1503 2.11325C8.0459 2.14414 7.91042 2.19409 7.66743 2.28475L3.95137 3.67112C3.30117 3.9137 2.89078 4.06834 2.59277 4.21905C2.31717 4.35842 2.22828 4.45147 2.17856 4.52309C2.12884 4.59471 2.07272 4.71052 2.03848 5.01745C2.00145 5.34934 2 5.7879 2 6.48188V7.31129C2 12.6322 6.03294 15.1794 7.82138 15.9848C7.9314 16.0343 7.96613 16.0491 7.99637 16.0596C8.01311 16.0655 8.0393 16.0738 8.10504 16.0853C8.10829 16.0857 8.11899 16.0867 8.13839 16.0879C8.1693 16.0897 8.20831 16.0908 8.25046 16.0908C8.29261 16.0908 8.33162 16.0897 8.36253 16.0879C8.38191 16.0867 8.39261 16.0857 8.39587 16.0853C8.46101 16.0739 8.48657 16.0657 8.50262 16.0601C8.53242 16.0497 8.56633 16.0352 8.6763 15.9857L8.67839 15.9848C10.4669 15.1793 14.5 12.6321 14.5 7.31129V6.48188C14.5 5.7879 14.4986 5.34934 14.4615 5.01745C14.4273 4.71052 14.3712 4.59471 14.3214 4.52309C14.2717 4.45147 14.1828 4.35842 13.9072 4.21905C13.6092 4.06834 13.1988 3.9137 12.5486 3.67112L8.83258 2.28475C8.58959 2.19409 8.45411 2.14414 8.34971 2.11325C8.30326 2.09951 8.27698 2.09393 8.26322 2.09157C8.25669 2.09044 8.25169 2.08995 8.25169 2.08995L8.25 2.08984L8.24832 2.08995C8.24832 2.08995 8.24332 2.09044 8.23678 2.09157C8.22303 2.09393 8.19675 2.09951 8.1503 2.11325ZM7.05842 0.377119C7.42603 0.238872 7.82231 0.0898438 8.25 0.0898438C8.6777 0.0898438 9.07398 0.238872 9.44158 0.377118C9.4718 0.388483 9.50183 0.399775 9.53166 0.410905L13.2954 1.81507C13.8838 2.03455 14.4004 2.22723 14.8098 2.43428C15.2527 2.65825 15.6569 2.93975 15.9643 3.38252C16.2717 3.82528 16.3942 4.30244 16.4492 4.79568C16.5001 5.25166 16.5 5.80295 16.5 6.43095L16.5 7.31129C16.5 13.8343 11.5285 16.8947 9.4996 17.8084L9.4935 17.8111C9.27322 17.9103 9.07956 17.9975 8.72546 18.058C8.56819 18.0849 8.3832 18.0908 8.25046 18.0908C8.11771 18.0908 7.93273 18.0849 7.77546 18.058C7.4195 17.9972 7.22502 17.9097 7.00121 17.8089L7.00017 17.8084C4.9712 16.8947 3.86975e-06 13.8343 3.86975e-06 7.31129L1.9624e-06 6.43097C-3.47541e-05 5.80297 -6.69397e-05 5.25166 0.0508096 4.79568C0.105842 4.30244 0.22828 3.82528 0.535669 3.38252C0.843059 2.93975 1.24732 2.65825 1.69021 2.43428C2.09965 2.22723 2.61619 2.03455 3.20459 1.81507C3.22044 1.80916 3.23634 1.80323 3.25229 1.79728L6.96835 0.410905C6.99818 0.399775 7.0282 0.388483 7.05842 0.377119Z" fill="#484848"/>
<path fill-rule="evenodd" clip-rule="evenodd" d="M11.2301 6.31552C11.5483 6.58069 11.5913 7.05361 11.3262 7.37182L8.2233 11.0953C7.80352 11.599 7.02982 11.599 6.61004 11.0953L5.17384 9.37182C4.90866 9.05361 4.95166 8.58069 5.26987 8.31552C5.58807 8.05034 6.061 8.09334 6.32617 8.41155L7.41667 9.72015L10.1738 6.41155C10.439 6.09334 10.9119 6.05034 11.2301 6.31552Z" fill="#484848"/>
</svg>
