<svg width="24" height="24" viewBox="0 0 24 24" fill="none" xmlns="http://www.w3.org/2000/svg">
<path fill-rule="evenodd" clip-rule="evenodd" d="M7 20C6.44771 20 6 19.5523 6 19L6 7.41421L4.70711 8.70711C4.31658 9.09763 3.68342 9.09763 3.29289 8.70711C2.90237 8.31658 2.90237 7.68342 3.29289 7.29289L6.29289 4.29289C6.48043 4.10536 6.73478 4 7 4C7.26522 4 7.51957 4.10536 7.70711 4.29289L10.7071 7.29289C11.0976 7.68342 11.0976 8.31658 10.7071 8.70711C10.3166 9.09763 9.68342 9.09763 9.29289 8.70711L8 7.41421L8 19C8 19.5523 7.55228 20 7 20Z" fill="#484848"/>
<path fill-rule="evenodd" clip-rule="evenodd" d="M21 12C21 11.4477 20.5523 11 20 11H14C13.4477 11 13 11.4477 13 12C13 12.5523 13.4477 13 14 13H20C20.5523 13 21 12.5523 21 12Z" fill="#484848"/>
<path fill-rule="evenodd" clip-rule="evenodd" d="M21 16C21 15.4477 20.5523 15 20 15H12C11.4477 15 11 15.4477 11 16C11 16.5523 11.4477 17 12 17H20C20.5523 17 21 16.5523 21 16Z" fill="#484848"/>
<path fill-rule="evenodd" clip-rule="evenodd" d="M21 8C21 7.44772 20.5523 7 20 7H16C15.4477 7 15 7.44772 15 8C15 8.55229 15.4477 9 16 9H20C20.5523 9 21 8.55229 21 8Z" fill="#484848"/>
</svg>
