<svg width="24" height="24" viewBox="0 0 24 24" fill="none" xmlns="http://www.w3.org/2000/svg">
<path fill-rule="evenodd" clip-rule="evenodd" d="M7 4C6.44771 4 6 4.44772 6 5L6 16.5858L4.70711 15.2929C4.31658 14.9024 3.68342 14.9024 3.29289 15.2929C2.90237 15.6834 2.90237 16.3166 3.29289 16.7071L6.29289 19.7071C6.48043 19.8946 6.73478 20 7 20C7.26522 20 7.51957 19.8946 7.70711 19.7071L10.7071 16.7071C11.0976 16.3166 11.0976 15.6834 10.7071 15.2929C10.3166 14.9024 9.68342 14.9024 9.29289 15.2929L8 16.5858L8 5C8 4.44772 7.55228 4 7 4Z" fill="#484848"/>
<path fill-rule="evenodd" clip-rule="evenodd" d="M21 12C21 12.5523 20.5523 13 20 13H14C13.4477 13 13 12.5523 13 12C13 11.4477 13.4477 11 14 11H20C20.5523 11 21 11.4477 21 12Z" fill="#484848"/>
<path fill-rule="evenodd" clip-rule="evenodd" d="M21 8C21 8.55228 20.5523 9 20 9H12C11.4477 9 11 8.55228 11 8C11 7.44771 11.4477 7 12 7H20C20.5523 7 21 7.44771 21 8Z" fill="#484848"/>
<path fill-rule="evenodd" clip-rule="evenodd" d="M21 16C21 16.5523 20.5523 17 20 17H16C15.4477 17 15 16.5523 15 16C15 15.4477 15.4477 15 16 15H20C20.5523 15 21 15.4477 21 16Z" fill="#484848"/>
</svg>
