<svg width="18" height="16" viewBox="0 0 18 16" fill="none" xmlns="http://www.w3.org/2000/svg">
<path fill-rule="evenodd" clip-rule="evenodd" d="M4 0C3.44771 4.82823e-08 3 0.447715 3 1L3 12.5858L1.70711 11.2929C1.31658 10.9024 0.683418 10.9024 0.292893 11.2929C-0.0976311 11.6834 -0.097631 12.3166 0.292893 12.7071L3.29289 15.7071C3.48043 15.8946 3.73478 16 4 16C4.26522 16 4.51957 15.8946 4.70711 15.7071L7.70711 12.7071C8.09763 12.3166 8.09763 11.6834 7.70711 11.2929C7.31658 10.9024 6.68342 10.9024 6.29289 11.2929L5 12.5858L5 1C5 0.447715 4.55228 -4.82823e-08 4 0Z" fill="#484848"/>
<path fill-rule="evenodd" clip-rule="evenodd" d="M18 8C18 8.55228 17.5523 9 17 9H11C10.4477 9 10 8.55228 10 8C10 7.44771 10.4477 7 11 7H17C17.5523 7 18 7.44771 18 8Z" fill="#484848"/>
<path fill-rule="evenodd" clip-rule="evenodd" d="M18 4C18 4.55228 17.5523 5 17 5H9C8.44771 5 8 4.55228 8 4C8 3.44772 8.44771 3 9 3H17C17.5523 3 18 3.44772 18 4Z" fill="#484848"/>
<path fill-rule="evenodd" clip-rule="evenodd" d="M18 12C18 12.5523 17.5523 13 17 13H13C12.4477 13 12 12.5523 12 12C12 11.4477 12.4477 11 13 11H17C17.5523 11 18 11.4477 18 12Z" fill="#484848"/>
</svg>
