<svg width="18" height="16" viewBox="0 0 18 16" fill="none" xmlns="http://www.w3.org/2000/svg">
<path fill-rule="evenodd" clip-rule="evenodd" d="M4 16C3.44771 16 3 15.5523 3 15L3 3.41421L1.70711 4.70711C1.31658 5.09763 0.683418 5.09763 0.292893 4.70711C-0.0976311 4.31658 -0.097631 3.68342 0.292893 3.29289L3.29289 0.292893C3.48043 0.105357 3.73478 -2.31859e-08 4 0C4.26522 2.3186e-08 4.51957 0.105357 4.70711 0.292893L7.70711 3.29289C8.09763 3.68342 8.09763 4.31658 7.70711 4.70711C7.31658 5.09763 6.68342 5.09763 6.29289 4.70711L5 3.41421L5 15C5 15.5523 4.55228 16 4 16Z" fill="#484848"/>
<path fill-rule="evenodd" clip-rule="evenodd" d="M18 8C18 7.44772 17.5523 7 17 7H11C10.4477 7 10 7.44772 10 8C10 8.55229 10.4477 9 11 9H17C17.5523 9 18 8.55229 18 8Z" fill="#484848"/>
<path fill-rule="evenodd" clip-rule="evenodd" d="M18 12C18 11.4477 17.5523 11 17 11H9C8.44771 11 8 11.4477 8 12C8 12.5523 8.44771 13 9 13H17C17.5523 13 18 12.5523 18 12Z" fill="#484848"/>
<path fill-rule="evenodd" clip-rule="evenodd" d="M18 4C18 3.44772 17.5523 3 17 3H13C12.4477 3 12 3.44772 12 4C12 4.55229 12.4477 5 13 5H17C17.5523 5 18 4.55229 18 4Z" fill="#484848"/>
</svg>
