<svg width="20" height="16" viewBox="0 0 20 16" fill="none" xmlns="http://www.w3.org/2000/svg">
<path fill-rule="evenodd" clip-rule="evenodd" d="M9.51912 0.12331C9.81875 -0.0411033 10.1816 -0.0411033 10.4812 0.12331L19.4812 5.06177C19.7996 5.23648 19.9983 5.57007 20.0002 5.93324C20.0021 6.29641 19.8069 6.63206 19.4904 6.81008L10.4904 11.8716C10.186 12.0428 9.81436 12.0428 9.50999 11.8716L0.509987 6.81008C0.19344 6.63206 -0.00170654 6.29641 0.000190979 5.93324C0.00208843 5.57007 0.200732 5.23648 0.519122 5.06177L9.51912 0.12331ZM3.05933 5.94922L10.0002 9.85271L16.941 5.94922L10.0002 2.14065L3.05933 5.94922Z" fill="#484848"/>
<path fill-rule="evenodd" clip-rule="evenodd" d="M0.128562 9.44829C0.399287 8.96691 1.00899 8.79614 1.49037 9.06686L10.0002 13.8527L18.51 9.06686C18.9914 8.79614 19.6011 8.96691 19.8718 9.44829C20.1425 9.92967 19.9717 10.5394 19.4904 10.8101L10.4904 15.8716C10.186 16.0428 9.81436 16.0428 9.50999 15.8716L0.509987 10.8101C0.0286072 10.5394 -0.142163 9.92967 0.128562 9.44829Z" fill="#484848"/>
</svg>
