<svg width="24" height="24" viewBox="0 0 24 24" fill="none" xmlns="http://www.w3.org/2000/svg">
<path fill-rule="evenodd" clip-rule="evenodd" d="M11.5189 4.12331C11.8186 3.9589 12.1814 3.9589 12.4811 4.12331L21.4811 9.06177C21.7994 9.23648 21.9981 9.57007 22 9.93324C22.0019 10.2964 21.8067 10.6321 21.4902 10.8101L12.4902 15.8716C12.1858 16.0428 11.8142 16.0428 11.5098 15.8716L2.50981 10.8101C2.19326 10.6321 1.99812 10.2964 2.00002 9.93324C2.00191 9.57007 2.20056 9.23648 2.51895 9.06177L11.5189 4.12331ZM5.05916 9.94922L12 13.8527L18.9408 9.94922L12 6.14065L5.05916 9.94922Z" fill="#484848"/>
<path fill-rule="evenodd" clip-rule="evenodd" d="M2.12839 13.4483C2.39911 12.9669 3.00881 12.7961 3.49019 13.0669L12 17.8527L20.5098 13.0669C20.9912 12.7961 21.6009 12.9669 21.8716 13.4483C22.1423 13.9297 21.9716 14.5394 21.4902 14.8101L12.4902 19.8716C12.1858 20.0428 11.8142 20.0428 11.5098 19.8716L2.50981 14.8101C2.02843 14.5394 1.85766 13.9297 2.12839 13.4483Z" fill="#484848"/>
</svg>
