<svg width="24" height="24" viewBox="0 0 24 24" fill="none" xmlns="http://www.w3.org/2000/svg">
<path fill-rule="evenodd" clip-rule="evenodd" d="M2 12C2 9.23858 4.23858 7 7 7H11C11.5523 7 12 7.44772 12 8C12 8.55228 11.5523 9 11 9H7C5.34315 9 4 10.3431 4 12C4 13.6569 5.34315 15 7 15H8C8.55228 15 9 15.4477 9 16C9 16.5523 8.55228 17 8 17H7C4.23858 17 2 14.7614 2 12Z" fill="#484848"/>
<path fill-rule="evenodd" clip-rule="evenodd" d="M22 12C22 14.7614 19.7614 17 17 17H13C12.4477 17 12 16.5523 12 16C12 15.4477 12.4477 15 13 15H17C18.6569 15 20 13.6569 20 12C20 10.3431 18.6569 9 17 9H16C15.4477 9 15 8.55228 15 8C15 7.44771 15.4477 7 16 7H17C19.7614 7 22 9.23858 22 12Z" fill="#484848"/>
<path fill-rule="evenodd" clip-rule="evenodd" d="M19.7071 4.29289C20.0976 4.68342 20.0976 5.31658 19.7071 5.70711L5.70711 19.7071C5.31658 20.0976 4.68342 20.0976 4.29289 19.7071C3.90237 19.3166 3.90237 18.6834 4.29289 18.2929L18.2929 4.29289C18.6834 3.90237 19.3166 3.90237 19.7071 4.29289Z" fill="#484848"/>
</svg>
