<svg width="20" height="16" viewBox="0 0 20 16" fill="none" xmlns="http://www.w3.org/2000/svg">
<path fill-rule="evenodd" clip-rule="evenodd" d="M0 8C0 5.23858 2.23858 3 5 3H9C9.55229 3 10 3.44772 10 4C10 4.55228 9.55229 5 9 5H5C3.34315 5 2 6.34315 2 8C2 9.65685 3.34315 11 5 11H6C6.55228 11 7 11.4477 7 12C7 12.5523 6.55228 13 6 13H5C2.23858 13 0 10.7614 0 8Z" fill="#484848"/>
<path fill-rule="evenodd" clip-rule="evenodd" d="M20 8C20 10.7614 17.7614 13 15 13H11C10.4477 13 10 12.5523 10 12C10 11.4477 10.4477 11 11 11H15C16.6569 11 18 9.65685 18 8C18 6.34315 16.6569 5 15 5H14C13.4477 5 13 4.55228 13 4C13 3.44771 13.4477 3 14 3H15C17.7614 3 20 5.23858 20 8Z" fill="#484848"/>
<path fill-rule="evenodd" clip-rule="evenodd" d="M17.7071 0.292893C18.0976 0.683417 18.0976 1.31658 17.7071 1.70711L3.70711 15.7071C3.31658 16.0976 2.68342 16.0976 2.29289 15.7071C1.90237 15.3166 1.90237 14.6834 2.29289 14.2929L16.2929 0.292893C16.6834 -0.0976311 17.3166 -0.0976311 17.7071 0.292893Z" fill="#484848"/>
</svg>
