<svg width="20" height="20" viewBox="0 0 20 20" fill="none" xmlns="http://www.w3.org/2000/svg">
<path fill-rule="evenodd" clip-rule="evenodd" d="M10 18C14.4183 18 18 14.4183 18 10C18 5.58172 14.4183 2 10 2C5.58172 2 2 5.58172 2 10C2 14.4183 5.58172 18 10 18ZM10 20C15.5228 20 20 15.5228 20 10C20 4.47715 15.5228 0 10 0C4.47715 0 0 4.47715 0 10C0 15.5228 4.47715 20 10 20Z" fill="#484848"/>
<path fill-rule="evenodd" clip-rule="evenodd" d="M11.7467 16.1766C12.4854 14.6992 13 12.5183 13 10C13 7.48174 12.4854 5.30077 11.7467 3.82336C10.9482 2.22632 10.2151 2 10 2C9.78494 2 9.05184 2.22632 8.25332 3.82336C7.51462 5.30077 7 7.48174 7 10C7 12.5183 7.51462 14.6992 8.25332 16.1766C9.05184 17.7737 9.78494 18 10 18C10.2151 18 10.9482 17.7737 11.7467 16.1766ZM10 20C12.7614 20 15 15.5228 15 10C15 4.47715 12.7614 0 10 0C7.23858 0 5 4.47715 5 10C5 15.5228 7.23858 20 10 20Z" fill="#484848"/>
<path fill-rule="evenodd" clip-rule="evenodd" d="M19 10C19 10.5523 18.5523 11 18 11H2C1.44771 11 1 10.5523 1 10C1 9.44771 1.44771 9 2 9H18C18.5523 9 19 9.44771 19 10Z" fill="#484848"/>
</svg>
