<svg width="20" height="20" viewBox="0 0 20 20" fill="none" xmlns="http://www.w3.org/2000/svg">
<path fill-rule="evenodd" clip-rule="evenodd" d="M18 5C18 3.97483 17.9903 3.75432 17.9616 3.60982C17.8038 2.81644 17.1836 2.19624 16.3902 2.03843C16.2457 2.00969 16.0252 2 15 2H8C6.05784 2 4.80242 2.00425 3.87741 2.12861C3.00993 2.24524 2.73803 2.43354 2.58579 2.58579C2.43354 2.73803 2.24524 3.00993 2.12861 3.87741C2.00425 4.80242 2 6.05784 2 8V12C2 13.9422 2.00425 15.1976 2.12861 16.1226C2.24524 16.9901 2.43354 17.262 2.58579 17.4142C2.73803 17.5665 3.00993 17.7548 3.87741 17.8714C4.80242 17.9958 6.05784 18 8 18H12C13.9422 18 15.1976 17.9958 16.1226 17.8714C16.9901 17.7548 17.262 17.5665 17.4142 17.4142C17.5665 17.262 17.7548 16.9901 17.8714 16.1226C17.9958 15.1976 18 13.9422 18 12V5ZM20 5V12C20 15.7712 20 17.6569 18.8284 18.8284C17.6569 20 15.7712 20 12 20H8C4.22876 20 2.34315 20 1.17157 18.8284C0 17.6569 0 15.7712 0 12V8C0 4.22876 0 2.34315 1.17157 1.17157C2.34315 0 4.22876 0 8 0H15C15.9293 0 16.394 0 16.7804 0.0768589C18.3671 0.392486 19.6075 1.63288 19.9231 3.21964C20 3.60603 20 4.07069 20 5Z" fill="#484848"/>
<path fill-rule="evenodd" clip-rule="evenodd" d="M19 3C19 3.55228 18.5523 4 18 4H2C1.44772 4 1 3.55228 1 3C1 2.44772 1.44772 2 2 2H18C18.5523 2 19 2.44772 19 3Z" fill="#484848"/>
<path fill-rule="evenodd" clip-rule="evenodd" d="M7.29289 8.29289C7.68342 7.90237 8.31658 7.90237 8.70711 8.29289L12.7071 12.2929C13.0976 12.6834 13.0976 13.3166 12.7071 13.7071C12.3166 14.0976 11.6834 14.0976 11.2929 13.7071L7.29289 9.70711C6.90237 9.31658 6.90237 8.68342 7.29289 8.29289Z" fill="#484848"/>
<path fill-rule="evenodd" clip-rule="evenodd" d="M12.7071 8.29289C13.0976 8.68342 13.0976 9.31658 12.7071 9.70711L8.70711 13.7071C8.31658 14.0976 7.68342 14.0976 7.29289 13.7071C6.90237 13.3166 6.90237 12.6834 7.29289 12.2929L11.2929 8.29289C11.6834 7.90237 12.3166 7.90237 12.7071 8.29289Z" fill="#484848"/>
</svg>
