<svg width="24" height="24" viewBox="0 0 24 24" fill="none" xmlns="http://www.w3.org/2000/svg">
<path fill-rule="evenodd" clip-rule="evenodd" d="M20 7C20 5.97483 19.9903 5.75432 19.9616 5.60982C19.8038 4.81644 19.1836 4.19624 18.3902 4.03843C18.2457 4.00969 18.0252 4 17 4H10C8.05784 4 6.80242 4.00425 5.87741 4.12861C5.00993 4.24524 4.73803 4.43354 4.58579 4.58579C4.43354 4.73803 4.24524 5.00993 4.12861 5.87741C4.00425 6.80242 4 8.05784 4 10V14C4 15.9422 4.00425 17.1976 4.12861 18.1226C4.24524 18.9901 4.43354 19.262 4.58579 19.4142C4.73803 19.5665 5.00993 19.7548 5.87741 19.8714C6.80242 19.9958 8.05784 20 10 20H14C15.9422 20 17.1976 19.9958 18.1226 19.8714C18.9901 19.7548 19.262 19.5665 19.4142 19.4142C19.5665 19.262 19.7548 18.9901 19.8714 18.1226C19.9958 17.1976 20 15.9422 20 14V7ZM22 7V14C22 17.7712 22 19.6569 20.8284 20.8284C19.6569 22 17.7712 22 14 22H10C6.22876 22 4.34315 22 3.17157 20.8284C2 19.6569 2 17.7712 2 14V10C2 6.22876 2 4.34315 3.17157 3.17157C4.34315 2 6.22876 2 10 2H17C17.9293 2 18.394 2 18.7804 2.07686C20.3671 2.39249 21.6075 3.63288 21.9231 5.21964C22 5.60603 22 6.07069 22 7Z" fill="#484848"/>
<path fill-rule="evenodd" clip-rule="evenodd" d="M21 5C21 5.55228 20.5523 6 20 6H4C3.44772 6 3 5.55228 3 5C3 4.44772 3.44772 4 4 4H20C20.5523 4 21 4.44772 21 5Z" fill="#484848"/>
</svg>
