<svg width="24" height="24" viewBox="0 0 24 24" fill="none" xmlns="http://www.w3.org/2000/svg">
<path fill-rule="evenodd" clip-rule="evenodd" d="M3.84201 10.0126C4.38736 9.9253 4.90018 10.2967 4.98744 10.842L5.5763 14.5224C5.80459 15.9492 5.96436 16.9388 6.17086 17.6897C6.37147 18.4192 6.58999 18.8171 6.8727 19.1043C6.99526 19.2289 7.12846 19.3424 7.27079 19.4438C7.5991 19.6776 8.02654 19.8305 8.77853 19.9133C9.5526 19.9986 10.555 20 12 20C13.445 20 14.4474 19.9986 15.2215 19.9133C15.9735 19.8305 16.4009 19.6776 16.7292 19.4438C16.8715 19.3424 17.0047 19.2289 17.1273 19.1043C17.41 18.8171 17.6285 18.4192 17.8291 17.6897C18.0356 16.9388 18.1954 15.9492 18.4237 14.5224L19.0126 10.842C19.0998 10.2967 19.6126 9.9253 20.158 10.0126C20.7033 10.0998 21.0747 10.6126 20.9874 11.158L20.3895 14.8952C20.1725 16.2516 19.9967 17.3505 19.7575 18.22C19.5092 19.1231 19.1669 19.8832 18.5528 20.5072C18.3485 20.7148 18.1265 20.9041 17.8893 21.073C17.1761 21.5808 16.3714 21.7987 15.4405 21.9013C14.5441 22 13.4313 22 12.0576 22H11.9424C10.5687 22 9.4559 22 8.55952 21.9013C7.62856 21.7987 6.82394 21.5808 6.11073 21.073C5.87352 20.9041 5.65151 20.7148 5.44725 20.5072C4.8331 19.8832 4.49082 19.1231 4.24246 18.22C4.00333 17.3505 3.82753 16.2517 3.61052 14.8953L3.01256 11.158C2.9253 10.6126 3.29666 10.0998 3.84201 10.0126Z" fill="#484848"/>
<path fill-rule="evenodd" clip-rule="evenodd" d="M19 8H5C4.44772 8 4 8.44772 4 9C4 9.55229 4.44772 10 5 10H19C19.5523 10 20 9.55228 20 9C20 8.44771 19.5523 8 19 8ZM5 6C3.34315 6 2 7.34315 2 9C2 10.6569 3.34315 12 5 12H19C20.6569 12 22 10.6569 22 9C22 7.34315 20.6569 6 19 6H5Z" fill="#484848"/>
<path fill-rule="evenodd" clip-rule="evenodd" d="M10.7071 2.29289C11.0976 2.68342 11.0976 3.31658 10.7071 3.70711L6.70711 7.70711C6.31658 8.09763 5.68342 8.09763 5.29289 7.70711C4.90237 7.31658 4.90237 6.68342 5.29289 6.29289L9.29289 2.29289C9.68342 1.90237 10.3166 1.90237 10.7071 2.29289Z" fill="#484848"/>
<path fill-rule="evenodd" clip-rule="evenodd" d="M13.2929 2.29289C13.6834 1.90237 14.3166 1.90237 14.7071 2.29289L18.7071 6.29289C19.0976 6.68342 19.0976 7.31658 18.7071 7.70711C18.3166 8.09763 17.6834 8.09763 17.2929 7.70711L13.2929 3.70711C12.9024 3.31658 12.9024 2.68342 13.2929 2.29289Z" fill="#484848"/>
<path fill-rule="evenodd" clip-rule="evenodd" d="M16 16C16 16.5523 15.5523 17 15 17H9C8.44772 17 8 16.5523 8 16C8 15.4477 8.44772 15 9 15H15C15.5523 15 16 15.4477 16 16Z" fill="#484848"/>
</svg>
