<svg width="24" height="24" viewBox="0 0 24 24" fill="none" xmlns="http://www.w3.org/2000/svg">
<path fill-rule="evenodd" clip-rule="evenodd" d="M14.8413 7H9.1587C8.07562 7 7.37313 7.00129 6.84071 7.04085C6.32313 7.07931 6.14748 7.14486 6.08041 7.17678C5.58209 7.4139 5.19089 7.87478 5.03496 8.45589C5.00933 8.5514 4.97632 8.76064 5.0253 9.30038C5.07546 9.85311 5.19087 10.5713 5.36855 11.6659C5.65149 13.4089 5.73947 13.7696 5.87104 14.0074C6.10075 14.4226 6.45923 14.7284 6.87208 14.8838C7.09697 14.9684 7.42747 15 9.1587 15H14.8413C16.5725 15 16.903 14.9684 17.1279 14.8838C17.5408 14.7284 17.8993 14.4226 18.129 14.0074C18.2605 13.7696 18.3485 13.4089 18.6314 11.6659C18.8091 10.5713 18.9245 9.8531 18.9747 9.30038C19.0237 8.76064 18.9907 8.5514 18.965 8.45589C18.8091 7.87478 18.4179 7.4139 17.9196 7.17678C17.8525 7.14486 17.6769 7.07931 17.1593 7.04085C16.6269 7.00129 15.9244 7 14.8413 7ZM3.1033 7.93756C2.87516 8.78774 3.04824 9.85396 3.39439 11.9864C3.65106 13.5675 3.77939 14.3581 4.12099 14.9756C4.57647 15.7989 5.30164 16.4296 6.16749 16.7556C6.81689 17 7.59749 17 9.1587 17H14.8413C16.4025 17 17.1831 17 17.8325 16.7556C18.6984 16.4296 19.4235 15.7989 19.879 14.9756C20.2206 14.3581 20.3489 13.5675 20.6056 11.9864C20.9518 9.85395 21.1248 8.78773 20.8967 7.93756C20.5925 6.80398 19.818 5.86523 18.7789 5.37081C17.9997 5 16.9469 5 14.8413 5H9.1587C7.05312 5 6.00033 5 5.22105 5.37081C4.18201 5.86523 3.40747 6.80398 3.1033 7.93756Z" fill="#484848"/>
<path d="M10 20C10 21.1046 9.10457 22 8 22C6.89543 22 6 21.1046 6 20C6 18.8954 6.89543 18 8 18C9.10457 18 10 18.8954 10 20Z" fill="#484848"/>
<path d="M18 20C18 21.1046 17.1046 22 16 22C14.8954 22 14 21.1046 14 20C14 18.8954 14.8954 18 16 18C17.1046 18 18 18.8954 18 20Z" fill="#484848"/>
<path fill-rule="evenodd" clip-rule="evenodd" d="M18 11C18 11.5523 17.5523 12 17 12H13C12.4477 12 12 11.5523 12 11C12 10.4477 12.4477 10 13 10H17C17.5523 10 18 10.4477 18 11Z" fill="#484848"/>
<path fill-rule="evenodd" clip-rule="evenodd" d="M13 3C13 3.55228 12.5523 4 12 4H4C3.44771 4 3 3.55228 3 3C3 2.44772 3.44771 2 4 2H12C12.5523 2 13 2.44772 13 3Z" fill="#484848"/>
</svg>
