<svg width="24" height="24" viewBox="0 0 24 24" fill="none" xmlns="http://www.w3.org/2000/svg">
<path fill-rule="evenodd" clip-rule="evenodd" d="M11.0942 18H12.9058C15.0038 18 16.3729 17.9953 17.3715 17.8503C18.3156 17.7132 18.5867 17.4927 18.731 17.3236C18.8752 17.1545 19.0528 16.8486 19.0672 15.8618C19.0823 14.818 18.917 13.4109 18.6568 11.2558C18.449 9.53513 18.3122 8.43296 18.1122 7.62558C17.9258 6.87309 17.7419 6.6347 17.5952 6.50064C17.4486 6.36659 17.1973 6.2073 16.4529 6.10913C15.6542 6.00379 14.5808 6 12.9058 6H11.0942C9.41918 6 8.34579 6.00379 7.54711 6.10913C6.80274 6.2073 6.55144 6.36659 6.40475 6.50064C6.25807 6.63469 6.07422 6.87309 5.8878 7.62558C5.68777 8.43296 5.551 9.53513 5.34324 11.2558C5.08302 13.4109 4.91766 14.818 4.93282 15.8618C4.94716 16.8486 5.1248 17.1545 5.26904 17.3236C5.41327 17.4928 5.68444 17.7132 6.6285 17.8503C7.62707 17.9953 8.99621 18 11.0942 18ZM12.9058 20H11.0942C7.01426 20 4.97429 20 3.82073 18.6472C2.66718 17.2944 2.9202 15.1989 3.42626 11.0077C3.82915 7.67096 4.0306 6.00257 5.12622 5.00129C6.22184 4 7.84595 4 11.0942 4H12.9058C16.154 4 17.7782 4 18.8738 5.00129C19.9694 6.00257 20.1709 7.67096 20.5737 11.0077C21.0798 15.1989 21.3328 17.2944 20.1793 18.6472C19.0257 20 16.9857 20 12.9058 20Z" fill="#484848"/>
<path fill-rule="evenodd" clip-rule="evenodd" d="M9.10215 8C8.56867 8 8.1362 8.44771 8.1362 9C8.1362 11.2091 9.86608 13 12 13C14.1339 13 15.8638 11.2091 15.8638 9C15.8638 8.44772 15.4313 8 14.8979 8C14.3644 8 13.9319 8.44772 13.9319 9C13.9319 10.1046 13.067 11 12 11C10.933 11 10.0681 10.1046 10.0681 9C10.0681 8.44771 9.63563 8 9.10215 8Z" fill="#484848"/>
</svg>
