<svg width="24" height="24" viewBox="0 0 24 24" fill="none" xmlns="http://www.w3.org/2000/svg">
<path d="M9.52452 7.94806C9.51997 7.93128 9.51586 7.91558 9.51217 7.90104L7.50001 7.94796L9.52452 7.94806Z" fill="#484848"/>
<path fill-rule="evenodd" clip-rule="evenodd" d="M7 2C4.23858 2 2 4.23857 2 7V7.78941C2 7.94707 2.01173 8.1334 2.05787 8.33427C2.1417 8.69923 2.38132 9.56733 2.9448 10.366C3.52717 11.1915 4.50631 12 6 12C6.84607 12 7.53957 11.7358 8.076 11.2998C8.33988 11.0854 8.55202 10.8408 8.72282 10.5889C9.40781 11.3505 10.4597 12 12 12C13.5403 12 14.5922 11.3505 15.2772 10.5889C15.448 10.8408 15.6601 11.0854 15.924 11.2998C16.4604 11.7358 17.1539 12 18 12C19.4937 12 20.4728 11.1915 21.0552 10.366C21.6187 9.56733 21.8583 8.69923 21.9421 8.33427C21.9883 8.1334 22 7.94707 22 7.78941V7C22 4.23857 19.7614 2 17 2H7ZM8.41878 6.95568C7.90118 6.99786 7.50227 7.42913 7.50001 7.94796L7.49976 7.95927C7.49942 7.97192 7.49862 7.99424 7.49683 8.02484C7.49323 8.08634 7.4857 8.17941 7.47015 8.29311C7.43835 8.52571 7.37652 8.81822 7.2623 9.09671C7.1475 9.37661 6.9978 9.5989 6.81463 9.74777C6.64793 9.88325 6.40393 10 6 10C5.33859 10 4.90575 9.67616 4.57903 9.21306C4.2334 8.72316 4.06681 8.14645 4.00711 7.88652C4.00468 7.87596 4 7.84868 4 7.78941V7C4 5.34315 5.34315 4 7 4H17C18.6569 4 20 5.34314 20 7V7.78941C20 7.84868 19.9953 7.87596 19.9929 7.88652C19.9332 8.14645 19.7666 8.72316 19.421 9.21306C19.0943 9.67616 18.6614 10 18 10C17.5961 10 17.3521 9.88325 17.1854 9.74777C17.0022 9.5989 16.8525 9.37661 16.7377 9.09671C16.6235 8.81823 16.5616 8.52571 16.5298 8.29311C16.5143 8.17941 16.5068 8.08634 16.5032 8.02484C16.5014 7.99424 16.5006 7.97192 16.5002 7.95927L16.5 7.94798C16.4977 7.42915 16.0988 6.99786 15.5812 6.95568C15.0642 6.91355 14.6012 7.27371 14.5142 7.78442L14.5137 7.78732L14.5135 7.78877L14.5132 7.79048L15.4732 7.94798L14.4755 7.94798C14.4625 7.99606 14.4458 8.05303 14.4248 8.1168C14.3503 8.34385 14.2281 8.63932 14.039 8.92753C13.6782 9.47729 13.0876 10 12 10C10.9124 10 10.3218 9.47729 9.96105 8.92753C9.77191 8.63932 9.64966 8.34385 9.57516 8.1168C9.55424 8.05305 9.53755 7.99613 9.52452 7.94806L7.50001 7.94796L9.51217 7.90104C9.50788 7.88412 9.50416 7.86878 9.50096 7.85514C9.49408 7.82581 9.48974 7.80477 9.48751 7.79344L9.48592 7.7852C9.39895 7.2745 8.9358 6.91355 8.41878 6.95568ZM15.4732 7.94798C14.5132 7.79046 14.5135 7.78877 14.5135 7.78877L16.5 7.94798L15.4732 7.94798ZM15.5 7.95238C16.4891 7.95238 16.5 7.95091 16.5 7.95091L16.5 7.95238L15.5 7.95238Z" fill="#484848"/>
<path d="M14.5125 7.79344C14.5103 7.80477 14.5059 7.82581 14.499 7.85514C14.4931 7.88048 14.4853 7.91171 14.4755 7.94798L15.4732 7.94798L14.5132 7.79048L14.5135 7.78877L14.5137 7.78732L14.5142 7.78442L14.5125 7.79344Z" fill="#484848"/>
<path d="M16.5 7.94798L14.5135 7.78877C14.5135 7.78877 14.5132 7.79046 15.4732 7.94798L16.5 7.94798Z" fill="#484848"/>
<path fill-rule="evenodd" clip-rule="evenodd" d="M5 10V13C5 14.9139 5.00212 16.2487 5.13753 17.2558C5.26907 18.2342 5.50966 18.7523 5.87868 19.1213C6.2477 19.4903 6.76579 19.7309 7.74416 19.8625C8.75129 19.9979 10.0861 20 12 20C13.9139 20 15.2487 19.9979 16.2558 19.8625C17.2342 19.7309 17.7523 19.4903 18.1213 19.1213C18.4903 18.7523 18.7309 18.2342 18.8625 17.2558C18.9979 16.2487 19 14.9139 19 13V10H21V13.0731C21 14.8966 21 16.3664 20.8446 17.5223C20.6833 18.7225 20.3381 19.733 19.5355 20.5355C18.733 21.3381 17.7225 21.6833 16.5223 21.8446C15.3664 22 13.8966 22 12.0732 22H11.9268C10.1034 22 8.63362 22 7.47767 21.8446C6.27752 21.6833 5.26702 21.3381 4.46447 20.5355C3.66191 19.733 3.31672 18.7225 3.15536 17.5223C2.99995 16.3664 2.99997 14.8966 3 13.0732L3 10H5Z" fill="#484848"/>
<path fill-rule="evenodd" clip-rule="evenodd" d="M8 17C8 14.7909 9.79086 13 12 13C14.2091 13 16 14.7909 16 17V21H14V17C14 15.8954 13.1046 15 12 15C10.8954 15 10 15.8954 10 17V21H8V17Z" fill="#484848"/>
</svg>
