<svg width="24" height="24" viewBox="0 0 24 24" fill="none" xmlns="http://www.w3.org/2000/svg">
<path fill-rule="evenodd" clip-rule="evenodd" d="M9.94083 19.8947H14.0592C15.9246 19.8947 17.1359 19.8911 18.0349 19.7807C18.8891 19.6757 19.1642 19.5031 19.3067 19.3773C19.4137 19.2829 19.5108 19.1776 19.5966 19.0632L21.2499 20.3369C21.0783 20.5658 20.8841 20.7763 20.6702 20.9651C19.4978 22 17.6849 22 14.0592 22H9.94083C6.31509 22 4.50222 22 3.32979 20.9651L4.69326 19.3773C4.83583 19.5031 5.11095 19.6757 5.9651 19.7807C6.8641 19.8911 8.07538 19.8947 9.94083 19.8947ZM20.5681 7.62995C21.5081 8.70642 21.615 10.331 21.8286 13.5801C22.0698 17.248 22.1904 19.082 21.2499 20.3369L19.5966 19.0632C19.7109 18.9106 19.8625 18.6208 19.909 17.7497C19.9578 16.8329 19.8808 15.6073 19.7568 13.7202C19.6467 12.046 19.5727 10.9695 19.4282 10.1693C19.2921 9.41539 19.133 9.1624 19.0134 9.0255C18.9271 8.92664 18.8318 8.83622 18.7288 8.75546C18.5861 8.64363 18.3265 8.49945 17.5755 8.41194C16.7784 8.31904 15.7141 8.31579 14.0592 8.31579H9.94083C8.28589 8.31579 7.2216 8.31904 6.42446 8.41194C5.67349 8.49945 5.41393 8.64363 5.27125 8.75546C5.1682 8.83622 5.07289 8.92664 4.98655 9.0255C4.867 9.16241 4.70785 9.41539 4.57177 10.1693C4.42732 10.9695 4.35333 12.046 4.24324 13.7202C4.11916 15.6073 4.04216 16.8329 4.09105 17.7497C4.1375 18.6208 4.28905 18.9106 4.40342 19.0632C4.4892 19.1776 4.58633 19.2829 4.69326 19.3773L3.32979 20.9651C3.11592 20.7763 2.92168 20.5658 2.75012 20.3369C1.80962 19.082 1.93021 17.248 2.17139 13.5801C2.38504 10.331 2.49186 8.70642 3.43188 7.62995C3.60454 7.43222 3.79518 7.25139 4.00126 7.08987C5.12317 6.21053 6.72906 6.21053 9.94083 6.21053H14.0592C17.2709 6.21053 18.8768 6.21053 19.9987 7.08987C20.2048 7.25139 20.3955 7.43222 20.5681 7.62995Z" fill="#484848"/>
<path fill-rule="evenodd" clip-rule="evenodd" d="M15.1147 8.31579C15.6881 8.31579 16.1529 7.84451 16.1529 7.26316V6.21053C16.1529 3.88512 14.2936 2 12 2C9.70642 2 7.8471 3.88511 7.8471 6.21052L7.8471 7.26315C7.8471 7.84451 8.31193 8.31579 8.88532 8.31579C9.45872 8.31579 9.92355 7.84451 9.92355 7.26316L9.92355 6.21052C9.92355 5.04782 10.8532 4.10526 12 4.10526C13.1468 4.10526 14.0764 5.04782 14.0764 6.21053V7.26316C14.0764 7.84451 14.5413 8.31579 15.1147 8.31579Z" fill="#484848"/>
<path fill-rule="evenodd" clip-rule="evenodd" d="M21.3207 11.2516C21.4416 11.8199 21.0853 12.38 20.5249 12.5026C13.947 13.9421 10.1476 13.933 3.47943 12.5035C2.91844 12.3833 2.55982 11.8247 2.67843 11.2559C2.79704 10.6872 3.34797 10.3236 3.90897 10.4438C10.298 11.8134 13.8016 11.8202 20.0867 10.4447C20.6472 10.3221 21.1997 10.6833 21.3207 11.2516Z" fill="#484848"/>
</svg>
