<svg width="24" height="24" viewBox="0 0 24 24" fill="none" xmlns="http://www.w3.org/2000/svg">
<path fill-rule="evenodd" clip-rule="evenodd" d="M19.7454 12.6908L12.5157 5.4611C10.5676 3.51297 7.40907 3.51296 5.46095 5.46109C3.51283 7.4092 3.51282 10.5677 5.46093 12.5158L12.6906 19.7455C13.0299 20.0848 13.58 20.0848 13.9193 19.7455L19.7454 13.9194C20.0847 13.5802 20.0847 13.0301 19.7454 12.6908ZM4.04673 4.04687C1.31757 6.77603 1.31756 11.2009 4.04671 13.93L11.2764 21.1597C12.3967 22.2801 14.2132 22.2801 15.3335 21.1597L21.1596 15.3337C22.2799 14.2133 22.2799 12.3969 21.1596 11.2766L13.93 4.04689C11.2008 1.31771 6.77591 1.3177 4.04673 4.04687Z" fill="#484848"/>
<path fill-rule="evenodd" clip-rule="evenodd" d="M8 10C9.10457 10 10 9.10459 10 8.00002C10 6.89545 9.10457 6.00002 8 6.00002C6.89543 6.00002 6 6.89545 6 8.00002C6 9.10459 6.89543 10 8 10Z" fill="#484848"/>
</svg>
