<svg width="18" height="20" viewBox="0 0 18 20" fill="none" xmlns="http://www.w3.org/2000/svg">
<path fill-rule="evenodd" clip-rule="evenodd" d="M9 2.23584C8.8194 2.23584 8.62596 2.30483 7.65836 2.78863L3.65836 4.78863C3.10208 5.06676 2.75301 5.24268 2.50033 5.40346C2.2672 5.5518 2.19148 5.64195 2.14935 5.71011C2.10723 5.77827 2.06046 5.88631 2.03204 6.16117C2.00124 6.45908 2 6.84997 2 7.47191V12.5276C2 13.1496 2.00124 13.5405 2.03204 13.8384C2.06046 14.1132 2.10723 14.2213 2.14935 14.2894C2.19148 14.3576 2.2672 14.4477 2.50033 14.5961C2.75301 14.7569 3.10208 14.9328 3.65836 15.2109L7.65836 17.2109C8.62596 17.6947 8.8194 17.7637 9 17.7637C9.18061 17.7637 9.37405 17.6947 10.3416 17.2109L14.3416 15.2109C14.8979 14.9328 15.247 14.7569 15.4997 14.5961C15.7328 14.4477 15.8085 14.3576 15.8507 14.2894C15.8928 14.2213 15.9396 14.1132 15.968 13.8384C15.9988 13.5405 16 13.1496 16 12.5276V7.47191C16 6.84997 15.9988 6.45908 15.968 6.16117C15.9396 5.88631 15.8928 5.77827 15.8507 5.71011C15.8085 5.64195 15.7328 5.5518 15.4997 5.40346C15.247 5.24268 14.8979 5.06676 14.3416 4.78863L10.3416 2.78863C9.37405 2.30483 9.18061 2.23584 9 2.23584ZM6.91376 0.924636C7.63973 0.560001 8.28513 0.23584 9 0.23584C9.71488 0.23584 10.3603 0.560001 11.0863 0.924636C11.1358 0.949523 11.1857 0.974598 11.2361 0.999772L15.2776 3.02051C15.78 3.2717 16.223 3.49318 16.5733 3.71608C16.9528 3.95752 17.2954 4.2435 17.552 4.65865C17.8085 5.07379 17.9111 5.5081 17.9574 5.95548C18.0001 6.36847 18 6.86378 18 7.4255V12.574C18 13.1358 18.0001 13.6311 17.9574 14.0441C17.9111 14.4914 17.8085 14.9258 17.552 15.3409C17.2954 15.756 16.9528 16.042 16.5733 16.2835C16.223 16.5064 15.78 16.7278 15.2775 16.979L11.2361 18.9998C11.1857 19.0249 11.1358 19.05 11.0863 19.0749C10.3603 19.4395 9.71488 19.7637 9 19.7637C8.28513 19.7637 7.63973 19.4395 6.91375 19.0749C6.86421 19.05 6.81428 19.0249 6.76394 18.9998L2.72242 16.979C2.21998 16.7278 1.77696 16.5064 1.42667 16.2835C1.04721 16.042 0.704626 15.756 0.448051 15.3409C0.191476 14.9258 0.0888994 14.4914 0.0426434 14.0441C-5.8461e-05 13.6311 -3.02091e-05 13.1357 1.73896e-06 12.574V7.42554C-3.02091e-05 6.86379 -5.8461e-05 6.36848 0.0426434 5.95548C0.0888994 5.5081 0.191476 5.07379 0.448051 4.65865C0.704626 4.2435 1.04721 3.95752 1.42667 3.71608C1.77697 3.49318 2.22001 3.2717 2.72246 3.02051C2.73624 3.01362 2.75007 3.00671 2.76394 2.99977L6.76394 0.999772C6.81428 0.974598 6.86421 0.949523 6.91376 0.924636Z" fill="#484848"/>
<path fill-rule="evenodd" clip-rule="evenodd" d="M1.10558 5.05256C1.35257 4.55858 1.95324 4.35836 2.44722 4.60534L9 7.88174L15.5528 4.60534C16.0468 4.35836 16.6474 4.55858 16.8944 5.05256C17.1414 5.54654 16.9412 6.14721 16.4472 6.3942L10 9.61781V17.9998C10 18.5521 9.55229 18.9998 9 18.9998C8.44772 18.9998 8 18.5521 8 17.9998V9.61781L1.55279 6.3942C1.05881 6.14721 0.858587 5.54654 1.10558 5.05256Z" fill="#484848"/>
</svg>
