<svg width="24" height="24" viewBox="0 0 24 24" fill="none" xmlns="http://www.w3.org/2000/svg">
<path fill-rule="evenodd" clip-rule="evenodd" d="M12 4.23608C11.8194 4.23608 11.626 4.30507 10.6584 4.78887L6.65836 6.78887C6.10208 7.06701 5.75301 7.24293 5.50033 7.4037C5.2672 7.55204 5.19148 7.6422 5.14935 7.71035C5.10723 7.77851 5.06046 7.88656 5.03204 8.16142C5.00124 8.45932 5 8.85021 5 9.47215V14.5279C5 15.1498 5.00124 15.5407 5.03204 15.8386C5.06046 16.1135 5.10723 16.2215 5.14935 16.2897C5.19148 16.3578 5.2672 16.448 5.50033 16.5963C5.75301 16.7571 6.10208 16.933 6.65836 17.2112L10.6584 19.2112C11.626 19.695 11.8194 19.7639 12 19.7639C12.1806 19.7639 12.374 19.695 13.3416 19.2112L17.3416 17.2112C17.8979 16.933 18.247 16.7571 18.4997 16.5963C18.7328 16.448 18.8085 16.3578 18.8507 16.2897C18.8928 16.2215 18.9396 16.1135 18.968 15.8386C18.9988 15.5407 19 15.1498 19 14.5279V9.47215C19 8.85021 18.9988 8.45932 18.968 8.16142C18.9396 7.88656 18.8928 7.77851 18.8507 7.71035C18.8085 7.6422 18.7328 7.55204 18.4997 7.4037C18.247 7.24293 17.8979 7.06701 17.3416 6.78887L13.3416 4.78887C12.374 4.30507 12.1806 4.23608 12 4.23608ZM9.91376 2.92488C10.6397 2.56024 11.2851 2.23608 12 2.23608C12.7149 2.23608 13.3603 2.56024 14.0863 2.92488C14.1358 2.94977 14.1857 2.97484 14.2361 3.00002L18.2776 5.02075C18.78 5.27194 19.223 5.49343 19.5733 5.71632C19.9528 5.95777 20.2954 6.24374 20.552 6.65889C20.8085 7.07404 20.9111 7.50835 20.9574 7.95572C21.0001 8.36872 21 8.86402 21 9.42575V14.5743C21 15.136 21.0001 15.6313 20.9574 16.0443C20.9111 16.4917 20.8085 16.926 20.552 17.3411C20.2954 17.7563 19.9528 18.0423 19.5733 18.2837C19.223 18.5066 18.78 18.7281 18.2775 18.9793L14.2361 21C14.1857 21.0252 14.1358 21.0503 14.0863 21.0752C13.3603 21.4398 12.7149 21.7639 12 21.7639C11.2851 21.7639 10.6397 21.4398 9.91375 21.0752C9.86421 21.0503 9.81428 21.0252 9.76394 21L5.72242 18.9793C5.21998 18.7281 4.77696 18.5066 4.42667 18.2837C4.04721 18.0423 3.70463 17.7563 3.44805 17.3411C3.19148 16.926 3.0889 16.4917 3.04264 16.0443C2.99994 15.6313 2.99997 15.136 3 14.5743V9.42578C2.99997 8.86404 2.99994 8.36873 3.04264 7.95572C3.0889 7.50835 3.19148 7.07404 3.44805 6.65889C3.70463 6.24374 4.04721 5.95777 4.42667 5.71632C4.77697 5.49343 5.22001 5.27194 5.72246 5.02075C5.73624 5.01386 5.75007 5.00695 5.76394 5.00002L9.76394 3.00002C9.81428 2.97484 9.86421 2.94977 9.91376 2.92488Z" fill="#484848"/>
<path fill-rule="evenodd" clip-rule="evenodd" d="M4.10558 7.0528C4.35257 6.55882 4.95324 6.3586 5.44722 6.60559L12 9.88198L18.5528 6.60559C19.0468 6.3586 19.6474 6.55882 19.8944 7.0528C20.1414 7.54678 19.9412 8.14745 19.4472 8.39444L13 11.618V20C13 20.5523 12.5523 21 12 21C11.4477 21 11 20.5523 11 20V11.618L4.55279 8.39444C4.05881 8.14745 3.85859 7.54678 4.10558 7.0528Z" fill="#484848"/>
</svg>
