<svg width="16" height="20" viewBox="0 0 16 20" fill="none" xmlns="http://www.w3.org/2000/svg">
<path fill-rule="evenodd" clip-rule="evenodd" d="M4.14636 2.91658C3.08103 3.54536 2.26263 4.55175 2.05626 6.19644C1.69561 9.07067 3.11893 11.3541 4.60816 12.5508C5.29633 13.1038 5.91418 13.9545 5.99176 15L6.99994 15V9C6.99994 8.44771 7.44765 8 7.99994 8C8.55222 8 8.99994 8.44771 8.99994 9V10.5858L9.41415 10.1716C9.80468 9.78104 10.4378 9.78104 10.8284 10.1716C11.2189 10.5621 11.2189 11.1953 10.8284 11.5858L8.99994 13.4142V15L10.0081 15C10.0857 13.9545 10.7036 13.1038 11.3917 12.5508C12.881 11.3541 14.3043 9.07067 13.9436 6.19644C13.7372 4.55175 12.9188 3.54536 11.8535 2.91658C10.7459 2.26285 9.33041 2 7.99994 2C6.66947 2 5.25395 2.26285 4.14636 2.91658ZM3.12978 1.19421C4.64648 0.299015 6.4512 -1.19209e-07 7.99994 0C9.54869 1.19209e-07 11.3534 0.299016 12.8701 1.19421C14.4291 2.11434 15.639 3.64392 15.9281 5.94743C16.3924 9.6482 14.5571 12.5729 12.6445 14.1098C12.2116 14.4577 11.9999 14.8685 11.9999 15.2214V16C11.9999 16.5523 11.5522 17 10.9999 17H4.99994C4.44766 17 3.99994 16.5523 3.99994 16V15.2214C3.99994 14.8685 3.78825 14.4577 3.35535 14.1098C1.44281 12.5729 -0.392547 9.6482 0.0718219 5.94743C0.360864 3.64392 1.57081 2.11434 3.12978 1.19421ZM4.99994 19C4.99994 18.4477 5.44765 18 5.99994 18H9.99994C10.5522 18 10.9999 18.4477 10.9999 19C10.9999 19.5523 10.5522 20 9.99994 20H5.99994C5.44765 20 4.99994 19.5523 4.99994 19Z" fill="#484848"/>
</svg>
