<svg width="64" height="101" viewBox="0 0 64 101" fill="none" xmlns="http://www.w3.org/2000/svg">
<rect x="0.5" y="0.5" width="63" height="100" rx="4.5" stroke="#9747FF" stroke-dasharray="10 5"/>
<path fill-rule="evenodd" clip-rule="evenodd" d="M28.1464 24.9166C27.0811 25.5454 26.2627 26.5517 26.0563 28.1964C25.6957 31.0707 27.119 33.3541 28.6082 34.5508C29.2964 35.1038 29.9142 35.9545 29.9918 37L31 37V31C31 30.4477 31.4477 30 32 30C32.5523 30 33 30.4477 33 31V32.5858L33.4142 32.1716C33.8047 31.781 34.4379 31.781 34.8284 32.1716C35.219 32.5621 35.219 33.1953 34.8284 33.5858L33 35.4142V37L34.0082 37C34.0858 35.9545 34.7036 35.1038 35.3918 34.5508C36.881 33.3541 38.3044 31.0707 37.9437 28.1964C37.7373 26.5517 36.9189 25.5454 35.8536 24.9166C34.746 24.2629 33.3305 24 32 24C30.6695 24 29.254 24.2628 28.1464 24.9166ZM27.1298 23.1942C28.6465 22.299 30.4513 22 32 22C33.5488 22 35.3535 22.299 36.8702 23.1942C38.4291 24.1143 39.6391 25.6439 39.9281 27.9474C40.3925 31.6482 38.5571 34.5729 36.6446 36.1098C36.2117 36.4577 36 36.8685 36 37.2214V38C36 38.5523 35.5523 39 35 39H29C28.4477 39 28 38.5523 28 38V37.2214C28 36.8685 27.7883 36.4577 27.3554 36.1098C25.4429 34.5729 23.6075 31.6482 24.0719 27.9474C24.3609 25.6439 25.5709 24.1143 27.1298 23.1942ZM29 41C29 40.4477 29.4477 40 30 40H34C34.5523 40 35 40.4477 35 41C35 41.5523 34.5523 42 34 42H30C29.4477 42 29 41.5523 29 41Z" fill="#484848"/>
<path fill-rule="evenodd" clip-rule="evenodd" d="M29 78C29 77.4477 29.4477 77 30 77H34C34.5523 77 35 77.4477 35 78C35 78.5523 34.5523 79 34 79H30C29.4477 79 29 78.5523 29 78Z" fill="#484848"/>
<path fill-rule="evenodd" clip-rule="evenodd" d="M35 76C35.5523 76 36 75.5523 36 75V74.2214C36 73.8685 36.2117 73.4577 36.6446 73.1098C38.5571 71.5729 40.3925 68.6482 39.9281 64.9474C39.6391 62.6439 38.4291 61.1143 36.8702 60.1942C35.3535 59.299 33.5488 59 32 59C30.4513 59 28.6465 59.299 27.1298 60.1942C25.5709 61.1143 24.3609 62.6439 24.0719 64.9474C23.6075 68.6482 25.4429 71.5729 27.3554 73.1098C27.7883 73.4577 28 73.8685 28 74.2214V75C28 75.5523 28.4477 76 29 76L31 76V68C31 67.4477 31.4477 67 32 67C32.5523 67 33 67.4477 33 68V69.5858L33.4142 69.1716C33.8047 68.781 34.4379 68.781 34.8284 69.1716C35.219 69.5621 35.219 70.1953 34.8284 70.5858L33 72.4142V76L35 76Z" fill="#484848"/>
</svg>
