<svg width="16" height="20" viewBox="0 0 16 20" fill="none" xmlns="http://www.w3.org/2000/svg">
<path fill-rule="evenodd" clip-rule="evenodd" d="M4.99994 19C4.99994 18.4477 5.44765 18 5.99994 18H9.99994C10.5522 18 10.9999 18.4477 10.9999 19C10.9999 19.5523 10.5522 20 9.99994 20H5.99994C5.44765 20 4.99994 19.5523 4.99994 19Z" fill="#484848"/>
<path fill-rule="evenodd" clip-rule="evenodd" d="M10.9999 17C11.5522 17 11.9999 16.5523 11.9999 16V15.2214C11.9999 14.8685 12.2116 14.4577 12.6445 14.1098C14.5571 12.5729 16.3925 9.6482 15.9281 5.94743C15.639 3.64392 14.4291 2.11434 12.8701 1.19421C11.3534 0.299016 9.54869 0 7.99994 0C6.4512 0 4.64648 0.299016 3.12978 1.19421C1.57081 2.11434 0.360865 3.64392 0.071822 5.94743C-0.392547 9.6482 1.44281 12.5729 3.35535 14.1098C3.78825 14.4577 3.99994 14.8685 3.99994 15.2214V16C3.99994 16.5523 4.44766 17 4.99994 17L6.99994 17V9C6.99994 8.44771 7.44765 8 7.99994 8C8.55222 8 8.99994 8.44771 8.99994 9V10.5858L9.41415 10.1716C9.80468 9.78105 10.4378 9.78105 10.8284 10.1716C11.2189 10.5621 11.2189 11.1953 10.8284 11.5858L8.99994 13.4142V17L10.9999 17Z" fill="#484848"/>
</svg>
