<svg width="18" height="18" viewBox="0 0 18 18" fill="none" xmlns="http://www.w3.org/2000/svg">
<path fill-rule="evenodd" clip-rule="evenodd" d="M15 0C16.6569 0 18 1.34315 18 3V15C18 16.6569 16.6569 18 15 18H3C1.34315 18 0 16.6569 0 15V3C0 1.34315 1.34315 0 3 0H15ZM2 15C2 15.5523 2.44772 16 3 16H15C15.5523 16 16 15.5523 16 15V14.915C14.2159 14.6279 12.5043 13.629 11.0996 12.54C9.83626 11.5607 8.73041 10.4395 7.91992 9.49316L6.70703 10.707C6.38701 11.0271 5.89196 11.0925 5.5 10.8662C4.05834 10.0339 2.89112 8.85392 2 7.69043V15ZM3 2C2.44772 2 2 2.44772 2 3V3.80469C2.49051 4.97954 3.82992 7.27674 5.8623 8.72266L7.29297 7.29297L7.37305 7.2207C7.56868 7.0633 7.81821 6.98494 8.07129 7.00293C8.36029 7.02359 8.62596 7.16859 8.7998 7.40039C9.50473 8.34027 10.7939 9.77291 12.3252 10.96C13.5377 11.8998 14.8079 12.6088 16 12.8789V3C16 2.44772 15.5523 2 15 2H3Z" fill="#484848"/>
</svg>
