<svg width="24" height="24" viewBox="0 0 24 24" fill="none" xmlns="http://www.w3.org/2000/svg">
<path fill-rule="evenodd" clip-rule="evenodd" d="M18 3C19.6569 3 21 4.34315 21 6V18C21 19.6569 19.6569 21 18 21H6C4.34315 21 3 19.6569 3 18V6C3 4.34315 4.34315 3 6 3H18ZM5 18C5 18.5523 5.44772 19 6 19H18C18.5523 19 19 18.5523 19 18V17.915C17.2159 17.6279 15.5043 16.629 14.0996 15.54C12.8363 14.5607 11.7304 13.4395 10.9199 12.4932L9.70703 13.707C9.38701 14.027 8.89196 14.0925 8.5 13.8662C7.05834 13.0339 5.89112 11.8539 5 10.6904V18ZM6 5C5.44772 5 5 5.44772 5 6V6.80469C5.49051 7.97954 6.82992 10.2767 8.8623 11.7227L10.293 10.293L10.373 10.2207C10.5687 10.0633 10.8182 9.98494 11.0713 10.0029C11.3603 10.0236 11.626 10.1686 11.7998 10.4004C12.5047 11.3403 13.7939 12.7729 15.3252 13.96C16.5377 14.8998 17.8079 15.6088 19 15.8789V6C19 5.44772 18.5523 5 18 5H6Z" fill="#484848"/>
</svg>
