<svg width="24" height="24" viewBox="0 0 24 24" fill="none" xmlns="http://www.w3.org/2000/svg">
<path d="M12 3C7.02944 3 3 7.02944 3 12C3 16.9706 7.02944 21 12 21C16.9706 21 21 16.9706 21 12C21 11.4477 21.4477 11 22 11C22.5523 11 23 11.4477 23 12C23 18.0751 18.0751 23 12 23C5.92487 23 1 18.0751 1 12C1 5.92487 5.92487 1 12 1C12.5523 1 13 1.44772 13 2C13 2.55228 12.5523 3 12 3Z" fill="#484848"/>
<path d="M12 7C9.23858 7 7 9.23858 7 12C7 14.7614 9.23858 17 12 17C14.7614 17 17 14.7614 17 12C17 11.4477 17.4477 11 18 11C18.5523 11 19 11.4477 19 12C19 15.866 15.866 19 12 19C8.13401 19 5 15.866 5 12C5 8.13401 8.13401 5 12 5C12.5523 5 13 5.44772 13 6C13 6.55228 12.5523 7 12 7Z" fill="#484848"/>
<path fill-rule="evenodd" clip-rule="evenodd" d="M12 14C13.1046 14 14 13.1046 14 12C14 11.8209 13.9764 11.6472 13.9323 11.482L15.7073 9.70704L16.9034 9.94418C17.3706 10.0393 17.854 10.0178 18.3109 9.88151C18.7689 9.74491 19.1861 9.49723 19.5252 9.16049L21.6656 7.00911C21.6827 6.9919 21.6992 6.97406 21.715 6.95565C21.8697 6.77569 21.967 6.55362 21.9945 6.31793C22.0221 6.08223 21.9785 5.8437 21.8694 5.63299C21.7603 5.42227 21.5908 5.24895 21.3825 5.13531C21.1742 5.02168 20.9366 4.97291 20.7004 4.99528C20.6767 4.99752 20.6534 5.00056 20.6303 5.00439L18.7319 5.27156L19.0029 3.34619C19.0053 3.3293 19.0072 3.31236 19.0087 3.29537C19.0297 3.05967 18.9799 2.82308 18.8657 2.61581C18.7515 2.40853 18.5781 2.24002 18.3677 2.13179C18.1573 2.02355 17.9194 1.9805 17.6844 2.00815C17.4494 2.0358 17.2279 2.13288 17.0484 2.287C17.0298 2.30297 17.0118 2.31961 16.9944 2.3369L14.8464 4.47389L14.842 4.47827C14.5053 4.81745 14.2576 5.2346 14.121 5.69262C13.9847 6.1496 13.9632 6.63314 14.0584 7.10039L14.2951 8.29079L12.5181 10.0678C12.3529 10.0236 12.1792 10 12 10C10.8954 10 10 10.8954 10 12C10 13.1046 10.8954 14 12 14ZM18.1143 7.74293L18.5363 7.31881L17.696 7.43707C17.3851 7.48083 17.0716 7.37598 16.8496 7.15393C16.6275 6.93188 16.5227 6.61842 16.5664 6.30746L16.6848 5.46604L16.2595 5.88917C16.1559 5.9941 16.0797 6.1229 16.0375 6.26424C15.9951 6.40639 15.9885 6.5568 16.0183 6.70212L16.0195 6.70781L16.2311 7.77196L17.3014 7.98417C17.4467 8.01395 17.5971 8.00734 17.7392 7.96494C17.8806 7.92279 18.0094 7.84654 18.1143 7.74293Z" fill="#484848"/>
</svg>
