<svg width="22" height="22" viewBox="0 0 22 22" fill="none" xmlns="http://www.w3.org/2000/svg">
<path d="M11 2C6.02944 2 2 6.02944 2 11C2 15.9706 6.02944 20 11 20C15.9706 20 20 15.9706 20 11C20 10.4477 20.4477 10 21 10C21.5523 10 22 10.4477 22 11C22 17.0751 17.0751 22 11 22C4.92487 22 0 17.0751 0 11C0 4.92487 4.92487 0 11 0C11.5523 0 12 0.447715 12 1C12 1.55228 11.5523 2 11 2Z" fill="#484848"/>
<path d="M11 6C8.23858 6 6 8.23858 6 11C6 13.7614 8.23858 16 11 16C13.7614 16 16 13.7614 16 11C16 10.4477 16.4477 10 17 10C17.5523 10 18 10.4477 18 11C18 14.866 14.866 18 11 18C7.13401 18 4 14.866 4 11C4 7.13401 7.13401 4 11 4C11.5523 4 12 4.44772 12 5C12 5.55228 11.5523 6 11 6Z" fill="#484848"/>
<path fill-rule="evenodd" clip-rule="evenodd" d="M11 13C12.1046 13 13 12.1046 13 11C13 10.8209 12.9764 10.6472 12.9323 10.482L14.7073 8.70704L15.9034 8.94418C16.3706 9.0393 16.854 9.01779 17.3109 8.88151C17.7689 8.74491 18.1861 8.49723 18.5252 8.16049L20.6656 6.00911C20.6827 5.9919 20.6992 5.97406 20.715 5.95565C20.8697 5.77569 20.967 5.55362 20.9945 5.31793C21.0221 5.08223 20.9785 4.8437 20.8694 4.63299C20.7603 4.42227 20.5908 4.24895 20.3825 4.13531C20.1742 4.02168 19.9366 3.97291 19.7004 3.99528C19.6767 3.99752 19.6534 4.00056 19.6303 4.00439L17.7319 4.27156L18.0029 2.34619C18.0053 2.3293 18.0072 2.31236 18.0087 2.29537C18.0297 2.05967 17.9799 1.82308 17.8657 1.61581C17.7515 1.40853 17.5781 1.24002 17.3677 1.13179C17.1573 1.02355 16.9194 0.980504 16.6844 1.00815C16.4494 1.0358 16.2279 1.13288 16.0484 1.287C16.0298 1.30297 16.0118 1.31961 15.9944 1.3369L13.8464 3.47389L13.842 3.47827C13.5053 3.81745 13.2576 4.2346 13.121 4.69262C12.9847 5.1496 12.9632 5.63314 13.0584 6.10039L13.2951 7.29079L11.5181 9.06776C11.3529 9.02356 11.1792 9 11 9C9.89543 9 9 9.89543 9 11C9 12.1046 9.89543 13 11 13ZM17.1143 6.74293L17.5363 6.31881L16.696 6.43707C16.3851 6.48083 16.0716 6.37598 15.8496 6.15393C15.6275 5.93188 15.5227 5.61842 15.5664 5.30746L15.6848 4.46604L15.2595 4.88917C15.1559 4.9941 15.0797 5.1229 15.0375 5.26424C14.9951 5.40639 14.9885 5.5568 15.0183 5.70212L15.0195 5.70781L15.2311 6.77196L16.3014 6.98417C16.4467 7.01395 16.5971 7.00734 16.7392 6.96494C16.8806 6.92279 17.0094 6.84654 17.1143 6.74293Z" fill="#484848"/>
</svg>
