<svg width="24" height="24" viewBox="0 0 24 24" fill="none" xmlns="http://www.w3.org/2000/svg">
<path d="M12.7168 1.02336C15.3807 1.19726 17.8907 2.33392 19.7783 4.2216C21.6659 6.1093 22.8026 8.61922 22.9766 11.2831C23.1504 13.9471 22.3499 16.584 20.7236 18.7011C19.0974 20.8182 16.7563 22.2712 14.1377 22.79C11.6696 23.2788 9.11376 22.9053 6.89355 21.7411L3.41309 22.9023C3.09014 23.0099 2.74342 23.0254 2.41211 22.9472C2.08091 22.869 1.77778 22.7005 1.53711 22.4599C1.29636 22.2191 1.12703 21.9153 1.04883 21.5839C0.97076 21.2527 0.986116 20.9058 1.09375 20.5829L1.09473 20.582L2.25781 17.1054C1.09455 14.8855 0.722199 12.3297 1.21094 9.86223C1.72971 7.24362 3.1829 4.90255 5.2998 3.27629C7.41675 1.65013 10.0531 0.849541 12.7168 1.02336ZM12.5869 3.01946C10.4076 2.87722 8.25056 3.53188 6.51855 4.86223C4.78657 6.19279 3.59731 8.10839 3.17285 10.2509C2.7485 12.3933 3.11709 14.6174 4.21094 16.5077L4.25976 16.6034C4.36059 16.8306 4.37368 17.089 4.29394 17.3271L3.09766 20.8984L6.6748 19.706L6.77832 19.6777C7.02049 19.6248 7.2754 19.6637 7.49219 19.789C9.38252 20.8831 11.6066 21.2524 13.749 20.828C15.8915 20.4036 17.8071 19.2145 19.1377 17.4823C20.468 15.7503 21.1226 13.5934 20.9805 11.414C20.8382 9.23433 19.9087 7.18019 18.3643 5.63567C16.8199 4.09126 14.7663 3.1618 12.5869 3.01946ZM9.56836 5.00969C9.89088 5.05516 10.175 5.2561 10.3232 5.55266L12.0371 8.98137L12.0889 9.10442C12.1748 9.3551 12.1575 9.63008 12.041 9.86809L11.9746 9.98332L10.9736 11.4823C11.3415 12.1248 11.8743 12.6573 12.5166 13.0253L14.0166 12.0253L14.1318 11.9589C14.4095 11.823 14.7376 11.8224 15.0186 11.9628L18.4473 13.6767L18.5684 13.748C18.8363 13.9329 19 14.2398 19 14.5712C19 15.7457 18.5336 16.8725 17.7031 17.703C16.9245 18.4816 15.8855 18.9398 14.791 18.9941L14.5713 18.9999C12.0329 18.9998 9.59862 17.9911 7.80371 16.1962C6.00881 14.4013 5.00005 11.967 5 9.42864C5 8.25417 5.46644 7.12731 6.29687 6.2968C7.12735 5.46633 8.25425 4.99998 9.42871 4.99992L9.56836 5.00969ZM8.84668 7.07317C8.42075 7.17844 8.02635 7.39545 7.71094 7.71086C7.25557 8.16629 7 8.7846 7 9.42864C7.00005 11.4366 7.79794 13.3623 9.21777 14.7822C10.6376 16.202 12.5633 16.9998 14.5713 16.9999L14.8115 16.9882C15.3674 16.933 15.8906 16.6874 16.2891 16.289C16.6047 15.9734 16.8206 15.5785 16.9258 15.1523L14.6426 14.0107L13.1475 15.0087C12.8688 15.1945 12.515 15.2288 12.2061 15.0995C10.7129 14.4745 9.52538 13.287 8.90039 11.7939C8.77109 11.4849 8.8054 11.1311 8.99121 10.8525L9.98828 9.35637L8.84668 7.07317Z" fill="#484848"/>
</svg>
