<svg width="22" height="22" viewBox="0 0 22 22" fill="none" xmlns="http://www.w3.org/2000/svg">
<rect width="22" height="22" fill="#1E1E1E"/>
<path d="M-1289 -310C-1289 -311.105 -1288.1 -312 -1287 -312H493C494.104 -312 495 -311.105 495 -310V4790C495 4791.1 494.105 4792 493 4792H-1287C-1288.1 4792 -1289 4791.1 -1289 4790V-310Z" fill="#F4F4F4"/>
<path d="M-1287 -312V-311H493V-312V-313H-1287V-312ZM495 -310H494V4790H495H496V-310H495ZM493 4792V4791H-1287V4792V4793H493V4792ZM-1289 4790H-1288V-310H-1289H-1290V4790H-1289ZM-1287 4792V4791C-1287.55 4791 -1288 4790.55 -1288 4790H-1289H-1290C-1290 4791.66 -1288.66 4793 -1287 4793V4792ZM495 4790H494C494 4790.55 493.552 4791 493 4791V4792V4793C494.657 4793 496 4791.66 496 4790H495ZM493 -312V-311C493.552 -311 494 -310.552 494 -310H495H496C496 -311.657 494.657 -313 493 -313V-312ZM-1287 -312V-313C-1288.66 -313 -1290 -311.657 -1290 -310H-1289H-1288C-1288 -310.552 -1287.55 -311 -1287 -311V-312Z" fill="white" fill-opacity="0.1"/>
<path d="M-337 -105C-337 -123.856 -337 -133.284 -331.142 -139.142C-325.284 -145 -315.856 -145 -297 -145H303C321.856 -145 331.284 -145 337.142 -139.142C343 -133.284 343 -123.856 343 -105V100C343 118.856 343 128.284 337.142 134.142C331.284 140 321.856 140 303 140H-297C-315.856 140 -325.284 140 -331.142 134.142C-337 128.284 -337 118.856 -337 100V-105Z" fill="white"/>
<path d="M11.717 0.0233621C14.3808 0.197263 16.8908 1.33392 18.7785 3.2216C20.6661 5.1093 21.8028 7.61922 21.9767 10.2831C22.1506 12.9471 21.35 15.584 19.7238 17.7011C18.0976 19.8182 15.7565 21.2712 13.1379 21.79C10.6698 22.2788 8.11394 21.9053 5.89374 20.7411L2.41327 21.9023C2.09032 22.0099 1.74361 22.0254 1.41229 21.9472C1.0811 21.869 0.77796 21.7005 0.537292 21.4599C0.296547 21.2191 0.127216 20.9153 0.0490103 20.5839C-0.0290566 20.2527 -0.0137011 19.9058 0.0939322 19.5829L0.0949087 19.582L1.25799 16.1054C0.0947346 13.8855 -0.277618 11.3297 0.21112 8.86223C0.729895 6.24362 2.18308 3.90255 4.29999 2.27629C6.41694 0.650128 9.05324 -0.150458 11.717 0.0233621ZM11.5871 2.01946C9.40781 1.87722 7.25074 2.53188 5.51874 3.86223C3.78675 5.19279 2.59749 7.10839 2.17303 9.2509C1.74868 11.3933 2.11727 13.6174 3.21112 15.5077L3.25995 15.6034C3.36077 15.8306 3.37387 16.089 3.29413 16.3271L2.09784 19.8984L5.67499 18.706L5.7785 18.6777C6.02068 18.6248 6.27558 18.6637 6.49237 18.789C8.3827 19.8831 10.6067 20.2524 12.7492 19.828C14.8917 19.4036 16.8073 18.2145 18.1379 16.4823C19.4682 14.7503 20.1228 12.5934 19.9807 10.414C19.8384 8.23433 18.9089 6.18019 17.3644 4.63567C15.8201 3.09126 13.7665 2.1618 11.5871 2.01946ZM8.56854 4.00969C8.89106 4.05516 9.17513 4.2561 9.32342 4.55266L11.0373 7.98137L11.089 8.10442C11.175 8.3551 11.1577 8.63008 11.0412 8.86809L10.9748 8.98332L9.97381 10.4823C10.3417 11.1248 10.8745 11.6573 11.5168 12.0253L13.0168 11.0253L13.132 10.9589C13.4097 10.823 13.7377 10.8224 14.0187 10.9628L17.4474 12.6767L17.5685 12.748C17.8365 12.9329 18.0001 13.2398 18.0002 13.5712C18.0002 14.7457 17.5338 15.8725 16.7033 16.703C15.9247 17.4816 14.8857 17.9398 13.7912 17.9941L13.5715 17.9999C11.0331 17.9998 8.59881 16.9911 6.80389 15.1962C5.00899 13.4013 4.00024 10.967 4.00018 8.42864C4.00018 7.25417 4.46662 6.12731 5.29706 5.2968C6.12753 4.46633 7.25443 3.99998 8.42889 3.99992L8.56854 4.00969ZM7.84686 6.07317C7.42093 6.17844 7.02653 6.39545 6.71112 6.71086C6.25576 7.1663 6.00018 7.7846 6.00018 8.42864C6.00024 10.4366 6.79813 12.3623 8.21796 13.7822C9.63779 15.202 11.5635 15.9998 13.5715 15.9999L13.8117 15.9882C14.3676 15.933 14.8908 15.6874 15.2892 15.289C15.6049 14.9734 15.8208 14.5785 15.926 14.1523L13.6428 13.0107L12.1476 14.0087C11.869 14.1945 11.5152 14.2288 11.2062 14.0995C9.7131 13.4745 8.52556 12.287 7.90057 10.7939C7.77127 10.4849 7.80558 10.1311 7.99139 9.85246L8.98846 8.35637L7.84686 6.07317Z" fill="#484848"/>
</svg>
