<svg width="24" height="24" viewBox="0 0 24 24" fill="none" xmlns="http://www.w3.org/2000/svg">
<path fill-rule="evenodd" clip-rule="evenodd" d="M10.9268 2.99989L12 2.99989C12.5523 2.99989 13 3.44761 13 3.99989C13 4.55218 12.5523 4.99989 12 4.99989H11C9.08611 4.99989 7.75129 5.00202 6.74416 5.13742C5.76579 5.26896 5.2477 5.50956 4.87868 5.87857C4.50966 6.24759 4.26907 6.76569 4.13753 7.74405C4.00212 8.75119 4 10.086 4 11.9999V12.9999C4 14.9138 4.00212 16.2486 4.13753 17.2557C4.26907 18.2341 4.50966 18.7522 4.87868 19.1212C5.2477 19.4902 5.76579 19.7308 6.74416 19.8624C7.75129 19.9978 9.08611 19.9999 11 19.9999H12C13.9139 19.9999 15.2487 19.9978 16.2558 19.8624C17.2342 19.7308 17.7523 19.4902 18.1213 19.1212C18.4903 18.7522 18.7309 18.2341 18.8625 17.2557C18.9979 16.2486 19 14.9138 19 12.9999V11.9999C19 11.4476 19.4477 10.9999 20 10.9999C20.5523 10.9999 21 11.4476 21 11.9999V13.073C21 14.8965 21.0001 16.3663 20.8446 17.5222C20.6833 18.7224 20.3381 19.7329 19.5355 20.5354C18.733 21.338 17.7225 21.6832 16.5223 21.8445C15.3664 21.9999 13.8966 21.9999 12.0731 21.9999H10.9269C9.1034 21.9999 7.63363 21.9999 6.47766 21.8445C5.27752 21.6832 4.26702 21.338 3.46447 20.5354C2.66191 19.7329 2.31672 18.7224 2.15536 17.5222C1.99995 16.3663 1.99997 14.8965 2 13.0731V11.9267C1.99997 10.1033 1.99995 8.63352 2.15536 7.47756C2.31672 6.27742 2.66191 5.26692 3.46447 4.46436C4.26702 3.66181 5.27752 3.31661 6.47767 3.15526C7.63362 2.99984 9.10338 2.99987 10.9268 2.99989Z" fill="#484848"/>
<path fill-rule="evenodd" clip-rule="evenodd" d="M16.8533 2.77374C18.0574 1.56524 20.0138 1.56348 21.2201 2.7698C22.4234 3.97305 22.4251 5.92336 21.2241 7.12878L14.3976 13.9799C14.145 14.2334 13.8291 14.4145 13.4827 14.5043L9.72533 15.4782C9.38075 15.5675 9.01468 15.4669 8.76411 15.2141C8.51355 14.9613 8.41628 14.5943 8.50871 14.2505L9.51271 10.5167C9.6034 10.1794 9.78083 9.87175 10.0273 9.62435L16.8533 2.77374ZM19.8059 4.18401C19.3816 3.75974 18.6936 3.76036 18.27 4.1854L11.4441 11.036L10.8861 13.1112L12.9808 12.5682L19.8073 5.71712C20.2297 5.29316 20.2291 4.60721 19.8059 4.18401Z" fill="#484848"/>
<path fill-rule="evenodd" clip-rule="evenodd" d="M15.2013 5.46295C15.5918 5.07243 16.225 5.07243 16.6155 5.46295L18.827 7.67448C19.2175 8.06501 19.2175 8.69817 18.827 9.0887C18.4365 9.47922 17.8033 9.47922 17.4128 9.0887L15.2013 6.87717C14.8108 6.48664 14.8108 5.85348 15.2013 5.46295Z" fill="#484848"/>
</svg>
