<svg width="64" height="108" viewBox="0 0 64 108" fill="none" xmlns="http://www.w3.org/2000/svg">
<rect x="0.5" y="0.5" width="63" height="107" rx="4.5" stroke="#9747FF" stroke-dasharray="10 5"/>
<path fill-rule="evenodd" clip-rule="evenodd" d="M26.4161 23C26.4438 23.0001 26.4718 23.0001 26.5 23.0001H37.5C37.5283 23.0001 37.5562 23.0001 37.5839 23C37.9646 22.9997 38.2924 22.9995 38.5853 23.0577C39.7754 23.2945 40.7057 24.2247 40.9424 25.4148C41.0006 25.7077 41.0004 26.0355 41.0001 26.4162C41 26.4439 41 26.4718 41 26.5001C41 26.5283 41 26.5563 41.0001 26.584C41.0004 26.9647 41.0006 27.2925 40.9424 27.5854C40.8127 28.2374 40.4748 28.8114 40 29.2362V33.054C40 34.4127 40.0001 35.5084 39.9106 36.3874C39.8183 37.2949 39.6225 38.0818 39.1574 38.7779C38.7926 39.3239 38.3238 39.7926 37.7779 40.1574C37.0817 40.6226 36.2948 40.8184 35.3874 40.9107C34.5083 41.0001 33.4126 41.0001 32.054 41.0001H31.9461C30.5874 41.0001 29.4918 41.0001 28.6127 40.9107C27.7053 40.8184 26.9183 40.6226 26.2222 40.1574C25.6762 39.7926 25.2075 39.3239 24.8427 38.7779C24.3775 38.0818 24.1817 37.2949 24.0894 36.3874C24 35.5084 24 34.4127 24 33.054V29.2362C23.5253 28.8114 23.1874 28.2374 23.0577 27.5854C22.9994 27.2925 22.9997 26.9647 23 26.584C23 26.5563 23 26.5283 23 26.5001C23 26.4718 23 26.4439 23 26.4162C22.9997 26.0355 22.9994 25.7077 23.0577 25.4148C23.2944 24.2247 24.2247 23.2945 25.4148 23.0577C25.7076 22.9995 26.0354 22.9997 26.4161 23ZM26.5 28.0001H37.5C38.0126 28.0001 38.1229 27.9952 38.1951 27.9809C38.5918 27.902 38.9019 27.5919 38.9808 27.1952C38.9952 27.1229 39 27.0127 39 26.5001C39 25.9875 38.9952 25.8772 38.9808 25.805C38.9019 25.4083 38.5918 25.0982 38.1951 25.0193C38.1229 25.0049 38.0126 25.0001 37.5 25.0001H26.5C25.9874 25.0001 25.8772 25.0049 25.8049 25.0193C25.4082 25.0982 25.0981 25.4083 25.0192 25.805C25.0049 25.8772 25 25.9875 25 26.5001C25 27.0127 25.0049 27.1229 25.0192 27.1952C25.0981 27.5919 25.4082 27.902 25.8049 27.9809C25.8772 27.9952 25.9874 28.0001 26.5 28.0001ZM26 30.0001V33.0001C26 34.4254 26.0012 35.419 26.0792 36.185C26.1554 36.9343 26.2966 37.354 26.5056 37.6668C26.7245 37.9944 27.0057 38.2756 27.3333 38.4945C27.6461 38.7035 28.0658 38.8447 28.8151 38.921C29.5811 38.9989 30.5748 39.0001 32 39.0001C33.4253 39.0001 34.419 38.9989 35.185 38.921C35.9342 38.8447 36.354 38.7035 36.6667 38.4945C36.9943 38.2756 37.2756 37.9944 37.4944 37.6668C37.7034 37.354 37.8447 36.9343 37.9209 36.185C37.9988 35.419 38 34.4254 38 33.0001V30.0001H37.7444C37.6919 30.0002 37.6385 30.0002 37.5839 30.0001C37.5562 30.0001 37.5283 30.0001 37.5 30.0001H26.5C26.4718 30.0001 26.4438 30.0001 26.4161 30.0001C26.3616 30.0002 26.3081 30.0002 26.2557 30.0001H26ZM29 34.0001C29 33.4478 29.4477 33.0001 30 33.0001H34C34.5523 33.0001 35 33.4478 35 34.0001C35 34.5524 34.5523 35.0001 34 35.0001H30C29.4477 35.0001 29 34.5524 29 34.0001Z" fill="#484848"/>
<path d="M23 69.5C23 69.0353 23 68.803 23.0384 68.6098C23.1962 67.8164 23.8164 67.1962 24.6098 67.0384C24.803 67 25.0353 67 25.5 67H38.5C38.9647 67 39.197 67 39.3902 67.0384C40.1836 67.1962 40.8038 67.8164 40.9616 68.6098C41 68.803 41 69.0353 41 69.5C41 69.9647 41 70.197 40.9616 70.3902C40.8038 71.1836 40.1836 71.8038 39.3902 71.9616C39.197 72 38.9647 72 38.5 72H25.5C25.0353 72 24.803 72 24.6098 71.9616C23.8164 71.8038 23.1962 71.1836 23.0384 70.3902C23 70.197 23 69.9647 23 69.5Z" fill="#484848"/>
<path fill-rule="evenodd" clip-rule="evenodd" d="M24.4133 74.7825C24 75.3211 24 76.1029 24 77.6667C24 80.7941 24 82.3578 24.8266 83.435C25.0394 83.7124 25.2876 83.9606 25.565 84.1734C26.6422 85 28.2059 85 31.3333 85H32.6667C35.7941 85 37.3578 85 38.435 84.1734C38.7124 83.9606 38.9606 83.7124 39.1734 83.435C40 82.3578 40 80.7941 40 77.6667C40 76.103 40 75.3211 39.5867 74.7825C39.4803 74.6438 39.3562 74.5197 39.2175 74.4133C38.6789 74 37.897 74 36.3333 74H27.6667C26.103 74 25.3211 74 24.7825 74.4133C24.6438 74.5197 24.5197 74.6438 24.4133 74.7825ZM34 80C34.5523 80 35 79.5523 35 79C35 78.4477 34.5523 78 34 78H30C29.4477 78 29 78.4477 29 79C29 79.5523 29.4477 80 30 80H34Z" fill="#484848"/>
</svg>
