<svg width="24" height="24" viewBox="0 0 24 24" fill="none" xmlns="http://www.w3.org/2000/svg">
<path fill-rule="evenodd" clip-rule="evenodd" d="M11.9461 2H12.0539C13.4126 1.99999 14.5083 1.99997 15.3874 2.08835C16.2948 2.17957 17.0817 2.37305 17.7778 2.83271C18.3238 3.1932 18.7925 3.65643 19.1573 4.19594C19.6225 4.88387 19.8183 5.66153 19.9106 6.55824C20 7.42696 20 8.50968 20 9.85232V18.3584C20 18.3823 20 18.4061 20 18.4298C20.0001 19.1255 20.0002 19.7555 19.9269 20.2432C19.8497 20.7568 19.652 21.399 19.0038 21.7707C18.3557 22.1424 17.6934 21.9934 17.2038 21.8048C16.739 21.6257 16.1855 21.3131 15.5743 20.9679L13.4884 19.7899C12.9872 19.5069 12.6726 19.3305 12.4189 19.2181C12.185 19.1144 12.0754 19.0994 12 19.0994C11.9246 19.0994 11.815 19.1144 11.5811 19.2181C11.3274 19.3305 11.0128 19.5069 10.5116 19.7899L8.42566 20.9679C7.81448 21.3131 7.26097 21.6257 6.79617 21.8048C6.30663 21.9934 5.64433 22.1424 4.99616 21.7707C4.34798 21.399 4.15029 20.7568 4.07311 20.2432C3.99984 19.7555 3.99992 19.1255 4.00001 18.4298C4.00001 18.4061 4.00001 18.3823 4.00001 18.3584L4.00001 9.85234C4 8.50969 3.99998 7.42697 4.08941 6.55824C4.18172 5.66153 4.37751 4.88387 4.84266 4.19594C5.20745 3.65643 5.67621 3.1932 6.22216 2.83271C6.9183 2.37305 7.70524 2.17957 8.61265 2.08835C9.49174 1.99997 10.5874 1.99999 11.9461 2ZM8.81506 4.05461C8.06578 4.12993 7.64605 4.26953 7.3333 4.47604C7.00573 4.69233 6.72447 4.97027 6.5056 5.29398C6.29663 5.60304 6.15536 6.01783 6.07914 6.75826C6.00122 7.51522 6.00001 8.49718 6.00001 9.90564V18.3584C6.00001 19.1491 6.00268 19.6285 6.05142 19.9529C6.05227 19.9585 6.05312 19.964 6.05396 19.9694C6.05908 19.9674 6.06433 19.9655 6.06969 19.9634C6.37892 19.8442 6.80146 19.6087 7.49615 19.2164L9.55699 18.0527C10.0092 17.7973 10.409 17.5715 10.7627 17.4147C11.1461 17.2448 11.5443 17.123 12 17.123C12.4557 17.123 12.8539 17.2448 13.2373 17.4147C13.591 17.5715 13.9908 17.7973 14.443 18.0527L16.5039 19.2164C17.1985 19.6087 17.6211 19.8442 17.9303 19.9634C17.9357 19.9655 17.9409 19.9674 17.946 19.9694C17.9469 19.964 17.9477 19.9585 17.9486 19.9529C17.9973 19.6285 18 19.1491 18 18.3584V9.90564C18 8.49718 17.9988 7.51521 17.9209 6.75826C17.8446 6.01783 17.7034 5.60304 17.4944 5.29398C17.2755 4.97027 16.9943 4.69233 16.6667 4.47604C16.354 4.26953 15.9342 4.12993 15.1849 4.05461C14.419 3.97761 13.4253 3.97641 12 3.97641C10.5747 3.97641 9.58104 3.97761 8.81506 4.05461Z" fill="#484848"/>
</svg>
