<svg width="64" height="108" viewBox="0 0 64 108" fill="none" xmlns="http://www.w3.org/2000/svg">
<rect x="0.5" y="0.5" width="63" height="107" rx="4.5" stroke="#9747FF" stroke-dasharray="10 5"/>
<path fill-rule="evenodd" clip-rule="evenodd" d="M28.5 25C27.1193 25 26 26.1193 26 27.5V34C26 35.4253 26.0012 36.419 26.0791 37.1849C26.1554 37.9342 26.2966 38.354 26.5056 38.6667C26.7245 38.9943 27.0057 39.2755 27.3333 39.4944C27.646 39.7034 28.0658 39.8446 28.8151 39.9209C29.581 39.9988 30.5747 40 32 40C33.4253 40 34.419 39.9988 35.1849 39.9209C35.9342 39.8446 36.354 39.7034 36.6667 39.4944C36.9943 39.2755 37.2755 38.9943 37.4944 38.6667C37.7034 38.354 37.8446 37.9342 37.9209 37.1849C37.9988 36.419 38 35.4253 38 34V27.5C38 26.1193 36.8807 25 35.5 25V23C37.9853 23 40 25.0147 40 27.5V34.054C40 35.4126 40 36.5083 39.9106 37.3874C39.8183 38.2948 39.6225 39.0817 39.1573 39.7779C38.7926 40.3238 38.3238 40.7926 37.7779 41.1573C37.0817 41.6225 36.2948 41.8183 35.3874 41.9106C34.5083 42 33.4126 42 32.054 42H31.946C30.5874 42 29.4917 42 28.6126 41.9106C27.7052 41.8183 26.9183 41.6225 26.2221 41.1573C25.6762 40.7926 25.2074 40.3238 24.8427 39.7779C24.3775 39.0817 24.1817 38.2948 24.0894 37.3874C24 36.5083 24 35.4126 24 34.0539L24 27.5C24 25.0147 26.0147 23 28.5 23V25Z" fill="#484848"/>
<path fill-rule="evenodd" clip-rule="evenodd" d="M34 24H30C29.5067 24 29.2369 24.0011 29.0418 24.0144C29.0328 24.015 29.0242 24.0156 29.0163 24.0163C29.0156 24.0242 29.015 24.0328 29.0144 24.0418C29.0011 24.2369 29 24.5067 29 25C29 25.4933 29.0011 25.7631 29.0144 25.9582C29.015 25.9672 29.0156 25.9758 29.0163 25.9837C29.0242 25.9844 29.0328 25.985 29.0418 25.9856C29.2369 25.9989 29.5067 26 30 26H34C34.4933 26 34.7631 25.9989 34.9582 25.9856C34.9672 25.985 34.9758 25.9844 34.9837 25.9837C34.9844 25.9758 34.985 25.9672 34.9856 25.9582C34.9989 25.7631 35 25.4933 35 25C35 24.5067 34.9989 24.2369 34.9856 24.0418C34.985 24.0328 34.9844 24.0242 34.9837 24.0163C34.9758 24.0156 34.9672 24.015 34.9582 24.0144C34.7631 24.0011 34.4933 24 34 24ZM27.1522 23.2346C27 23.6022 27 24.0681 27 25C27 25.9319 27 26.3978 27.1522 26.7654C27.3552 27.2554 27.7446 27.6448 28.2346 27.8478C28.6022 28 29.0681 28 30 28H34C34.9319 28 35.3978 28 35.7654 27.8478C36.2554 27.6448 36.6448 27.2554 36.8478 26.7654C37 26.3978 37 25.9319 37 25C37 24.0681 37 23.6022 36.8478 23.2346C36.6448 22.7446 36.2554 22.3552 35.7654 22.1522C35.3978 22 34.9319 22 34 22H30C29.0681 22 28.6022 22 28.2346 22.1522C27.7446 22.3552 27.3552 22.7446 27.1522 23.2346Z" fill="#484848"/>
<path fill-rule="evenodd" clip-rule="evenodd" d="M35.7071 31.2929C36.0976 31.6834 36.0976 32.3166 35.7071 32.7071L32.4142 36C31.6332 36.781 30.3668 36.781 29.5858 36L28.2929 34.7071C27.9024 34.3166 27.9024 33.6834 28.2929 33.2929C28.6834 32.9024 29.3166 32.9024 29.7071 33.2929L31 34.5858L34.2929 31.2929C34.6834 30.9024 35.3166 30.9024 35.7071 31.2929Z" fill="#484848"/>
<path d="M36.999 67.2559C38.7472 67.8733 39.9999 69.5404 40 71.5V78.0537C40 79.4122 39.9996 80.5087 39.9102 81.3877C39.8178 82.2948 39.6222 83.0824 39.1572 83.7783C38.7926 84.3239 38.3239 84.7926 37.7783 85.1572C37.0823 85.6223 36.2949 85.8178 35.3877 85.9102C34.5086 85.9996 33.4124 86 32.0537 86H31.9463C30.5876 86 29.4914 85.9996 28.6123 85.9102C27.7051 85.8178 26.9177 85.6223 26.2217 85.1572C25.6761 84.7926 25.2074 84.3239 24.8428 83.7783C24.3778 83.0824 24.1822 82.2948 24.0898 81.3877C24.0004 80.5087 24 79.4122 24 78.0537V71.5C24.0001 69.5408 25.2523 67.8736 27 67.2559C26.9999 67.334 27 67.4155 27 67.5C27 68.5869 27.0002 69.1308 27.1523 69.5596C27.3553 70.1311 27.7445 70.5854 28.2344 70.8223C28.6019 70.9999 29.0681 71 30 71H34C34.9319 71 35.3981 70.9999 35.7656 70.8223C36.2555 70.5854 36.6447 70.1311 36.8477 69.5596C36.9998 69.1308 37 68.5869 37 67.5C37 67.4155 36.9991 67.334 36.999 67.2559ZM35.707 75.293C35.3165 74.9026 34.6835 74.9026 34.293 75.293L31 78.5859L29.707 77.293C29.3165 76.9026 28.6835 76.9026 28.293 77.293C27.9026 77.6835 27.9026 78.3165 28.293 78.707L29.5859 80C30.3669 80.7808 31.6331 80.7808 32.4141 80L35.707 76.707C36.0974 76.3165 36.0974 75.6835 35.707 75.293ZM33.2002 65C33.7589 65 34.0383 65.0002 34.2588 65.1016C34.5528 65.2369 34.7864 65.4965 34.9082 65.8232C34.9995 66.0683 35 66.3787 35 67C35 67.6213 34.9995 67.9317 34.9082 68.1768C34.7864 68.5035 34.5528 68.7631 34.2588 68.8984C34.0383 68.9998 33.7589 69 33.2002 69H30.7998C30.2411 69 29.9617 68.9998 29.7412 68.8984C29.4472 68.7631 29.2136 68.5035 29.0918 68.1768C29.0005 67.9317 29 67.6213 29 67C29 66.3787 29.0005 66.0683 29.0918 65.8232C29.2136 65.4965 29.4472 65.2369 29.7412 65.1016C29.9617 65.0002 30.2411 65 30.7998 65H33.2002Z" fill="#484848"/>
</svg>
