<svg width="24" height="24" viewBox="0 0 24 24" fill="none" xmlns="http://www.w3.org/2000/svg">
<path fill-rule="evenodd" clip-rule="evenodd" d="M8.5 5C7.11929 5 6 6.11929 6 7.5V14C6 15.4253 6.00121 16.419 6.07913 17.1849C6.15535 17.9342 6.29662 18.354 6.50559 18.6667C6.72447 18.9943 7.00572 19.2755 7.33329 19.4944C7.64604 19.7034 8.06578 19.8446 8.81505 19.9209C9.58104 19.9988 10.5747 20 12 20C13.4253 20 14.419 19.9988 15.1849 19.9209C15.9342 19.8446 16.354 19.7034 16.6667 19.4944C16.9943 19.2755 17.2755 18.9943 17.4944 18.6667C17.7034 18.354 17.8446 17.9342 17.9209 17.1849C17.9988 16.419 18 15.4253 18 14V7.5C18 6.11929 16.8807 5 15.5 5V3C17.9853 3 20 5.01472 20 7.5V14.054C20 15.4126 20 16.5083 19.9106 17.3874C19.8183 18.2948 19.6225 19.0817 19.1573 19.7779C18.7926 20.3238 18.3238 20.7926 17.7779 21.1573C17.0817 21.6225 16.2948 21.8183 15.3874 21.9106C14.5083 22 13.4126 22 12.054 22H11.946C10.5874 22 9.49173 22 8.61264 21.9106C7.70523 21.8183 6.91829 21.6225 6.22215 21.1573C5.6762 20.7926 5.20745 20.3238 4.84265 19.7779C4.3775 19.0817 4.18171 18.2948 4.0894 17.3874C3.99997 16.5083 3.99999 15.4126 4 14.0539L4 7.5C4 5.01472 6.01472 3 8.5 3V5Z" fill="#484848"/>
<path fill-rule="evenodd" clip-rule="evenodd" d="M14 4H10C9.50669 4 9.23688 4.00108 9.04183 4.01439C9.03276 4.01501 9.02424 4.01564 9.01626 4.01626C9.01564 4.02424 9.01501 4.03276 9.01439 4.04183C9.00108 4.23688 9 4.50669 9 5C9 5.49331 9.00108 5.76312 9.01439 5.95817C9.01501 5.96724 9.01564 5.97576 9.01626 5.98374C9.02424 5.98436 9.03276 5.98499 9.04183 5.98561C9.23688 5.99892 9.50669 6 10 6H14C14.4933 6 14.7631 5.99892 14.9582 5.98561C14.9672 5.98499 14.9758 5.98436 14.9837 5.98373C14.9844 5.97575 14.985 5.96724 14.9856 5.95817C14.9989 5.76312 15 5.49331 15 5C15 4.50669 14.9989 4.23688 14.9856 4.04183C14.985 4.03276 14.9844 4.02424 14.9837 4.01626C14.9758 4.01564 14.9672 4.01501 14.9582 4.01439C14.7631 4.00108 14.4933 4 14 4ZM7.15224 3.23463C7 3.60218 7 4.06812 7 5C7 5.93188 7 6.39782 7.15224 6.76537C7.35523 7.25542 7.74458 7.64477 8.23463 7.84776C8.60218 8 9.06812 8 10 8H14C14.9319 8 15.3978 8 15.7654 7.84776C16.2554 7.64477 16.6448 7.25542 16.8478 6.76537C17 6.39782 17 5.93188 17 5C17 4.06812 17 3.60218 16.8478 3.23463C16.6448 2.74458 16.2554 2.35523 15.7654 2.15224C15.3978 2 14.9319 2 14 2H10C9.06812 2 8.60218 2 8.23463 2.15224C7.74458 2.35523 7.35523 2.74458 7.15224 3.23463Z" fill="#484848"/>
<path fill-rule="evenodd" clip-rule="evenodd" d="M16 12C16 12.5523 15.5523 13 15 13H9C8.44772 13 8 12.5523 8 12C8 11.4477 8.44772 11 9 11H15C15.5523 11 16 11.4477 16 12Z" fill="#484848"/>
<path fill-rule="evenodd" clip-rule="evenodd" d="M16 16C16 16.5523 15.5523 17 15 17H9C8.44772 17 8 16.5523 8 16C8 15.4477 8.44772 15 9 15H15C15.5523 15 16 15.4477 16 16Z" fill="#484848"/>
</svg>
