<svg width="24" height="24" viewBox="0 0 24 24" fill="none" xmlns="http://www.w3.org/2000/svg">
<path fill-rule="evenodd" clip-rule="evenodd" d="M19 7.88428C19 7.9223 19 7.96088 19 8.00004C19 8.55232 18.5523 9.00004 18 9.00004C17.4477 9.00004 17 8.55232 17 8.00004C17 7.0228 16.9952 6.68021 16.9424 6.41477C16.7056 5.22469 15.7753 4.2944 14.5853 4.05768C14.3198 4.00488 13.9772 4.00004 13 4.00004H10.5C8.83176 4.00004 7.66851 4.00167 6.78068 4.10662C5.91492 4.20895 5.4423 4.39748 5.09682 4.68101C4.94492 4.80567 4.80563 4.94495 4.68097 5.09686C4.39744 5.44234 4.20892 5.91496 4.10658 6.78071C4.00164 7.66854 4 8.8318 4 10.5L4 17C4 18.6569 5.34315 20 7 20C7.55229 20 8 20.4478 8 21C8 21.5523 7.55229 22 7 22C4.23858 22 2 19.7615 2 17L2 10.4366C1.99998 8.84672 1.99996 7.56491 2.12041 6.54594C2.24506 5.49137 2.51052 4.58894 3.13495 3.82807C3.34272 3.5749 3.57486 3.34276 3.82803 3.13498C4.58891 2.51055 5.49133 2.2451 6.5459 2.12045C7.56489 2 8.8467 2.00002 10.4366 2.00004L13 2.00004C13.0392 2.00004 13.0777 2.00003 13.1158 2.00002C13.9334 1.99982 14.4906 1.99968 14.9755 2.09611C16.9589 2.49064 18.5094 4.04113 18.9039 6.02459C19.0004 6.50939 19.0002 7.06668 19 7.88428Z" fill="#484848"/>
<path fill-rule="evenodd" clip-rule="evenodd" d="M15 7.00004C15 7.55232 14.5523 8.00004 14 8.00004H7C6.44772 8.00004 6 7.55232 6 7.00004C6 6.44775 6.44772 6.00004 7 6.00004H14C14.5523 6.00004 15 6.44775 15 7.00004Z" fill="#484848"/>
<path fill-rule="evenodd" clip-rule="evenodd" d="M12 11C12 11.5523 11.5523 12 11 12H7C6.44772 12 6 11.5523 6 11C6 10.4478 6.44772 10 7 10H11C11.5523 10 12 10.4478 12 11Z" fill="#484848"/>
<path fill-rule="evenodd" clip-rule="evenodd" d="M17.5758 10.7812C18.6029 9.75492 20.251 9.73765 21.2568 10.7426C22.2626 11.7475 22.2453 13.3941 21.2182 14.4203L15.0531 20.5798C14.7843 20.8484 14.4538 21.0467 14.0918 21.1566L11.4872 21.9475C10.5999 22.2169 9.7853 21.4067 10.0511 20.519L10.9248 17.6015C10.9739 17.4374 11.0635 17.2876 11.1853 17.166L17.5758 10.7812ZM20.0169 11.9813C19.6816 11.6464 19.1323 11.6521 18.7899 11.9942L12.5327 18.2458L12.0113 19.9868L13.6193 19.4986C13.702 19.4735 13.7776 19.4282 13.839 19.3668L20.004 13.2073C20.3464 12.8652 20.3522 12.3163 20.0169 11.9813Z" fill="#484848"/>
<path fill-rule="evenodd" clip-rule="evenodd" d="M16.2929 12.2929C16.6834 11.9024 17.3166 11.9024 17.7071 12.2929L19.7071 14.2929C20.0976 14.6835 20.0976 15.3166 19.7071 15.7071C19.3166 16.0977 18.6834 16.0977 18.2929 15.7071L16.2929 13.7071C15.9024 13.3166 15.9024 12.6835 16.2929 12.2929Z" fill="#484848"/>
</svg>
