<svg width="24" height="24" viewBox="0 0 24 24" fill="none" xmlns="http://www.w3.org/2000/svg">
<path fill-rule="evenodd" clip-rule="evenodd" d="M6 14V8.66667C6 7.3837 6.00192 6.5552 6.05882 5.92732C6.11324 5.32693 6.20504 5.10897 6.26795 5C6.44349 4.69596 6.69596 4.44349 7 4.26795C7.10897 4.20504 7.32694 4.11324 7.92732 4.05882C8.5552 4.00192 9.3837 4 10.6667 4C11.3266 4 11.6877 4.00192 11.9461 4.02533C11.9552 4.02616 11.9639 4.027 11.9722 4.02783C11.973 4.03609 11.9738 4.04478 11.9747 4.05392C11.9981 4.31225 12 4.67345 12 5.33333V6C12 6.02589 12 6.05216 12 6.07877C11.9997 6.47852 11.9994 6.95445 12.0544 7.36377C12.1209 7.85786 12.2987 8.54134 12.8787 9.12132C13.4587 9.7013 14.1421 9.87912 14.6362 9.94555C15.0455 10.0006 15.5215 10.0003 15.9212 10C15.9478 10 15.9741 10 16 10C16.9993 10 17.5477 10.0042 17.928 10.0554C17.933 10.0561 17.9379 10.0567 17.9426 10.0574C17.9433 10.0621 17.9439 10.067 17.9446 10.072C17.9958 10.4523 18 11.0007 18 12V14C18 15.9422 17.9958 17.1976 17.8714 18.1226C17.7548 18.9901 17.5665 19.262 17.4142 19.4142C17.262 19.5665 16.9901 19.7548 16.1226 19.8714C15.1976 19.9958 13.9422 20 12 20C10.0578 20 8.80242 19.9958 7.87741 19.8714C7.00993 19.7548 6.73803 19.5665 6.58579 19.4142C6.43354 19.262 6.24524 18.9901 6.12861 18.1226C6.00425 17.1976 6 15.9422 6 14ZM17.9032 9.86187L17.9039 9.86368L17.9032 9.86187ZM5.17157 20.8284C4 19.6569 4 17.7712 4 14V8.66667C4 6.17436 4 4.9282 4.5359 4C4.88697 3.39192 5.39192 2.88697 6 2.5359C6.9282 2 8.17436 2 10.6667 2C11.9128 2 12.5359 2 13 2.26795C13.304 2.44349 13.5565 2.69596 13.7321 3C14 3.4641 14 4.08718 14 5.33333V6C14 6.94281 14 7.41421 14.2929 7.70711C14.5858 8 15.0572 8 16 8C17.8856 8 18.8284 8 19.4142 8.58579C20 9.17157 20 10.1144 20 12V14C20 17.7712 20 19.6569 18.8284 20.8284C17.6569 22 15.7712 22 12 22C8.22876 22 6.34315 22 5.17157 20.8284Z" fill="#484848"/>
<path fill-rule="evenodd" clip-rule="evenodd" d="M20 11C20 8.81392 19.1316 6.71737 17.5858 5.17157L16.4749 4.06066C15.1555 2.74124 13.3659 2 11.5 2V4C12.8355 4 14.1163 4.53053 15.0607 5.47487L16.1716 6.58579C17.3423 7.75651 18 9.34435 18 11H20Z" fill="#484848"/>
<path fill-rule="evenodd" clip-rule="evenodd" d="M12 11C12.5523 11 13 11.4477 13 12V14.5993L13.2957 14.3059C13.6878 13.917 14.3209 13.9195 14.7099 14.3116C15.0989 14.7036 15.0964 15.3368 14.7043 15.7258L12.7043 17.7099C12.3144 18.0967 11.6856 18.0967 11.2957 17.7099L9.29571 15.7258C8.90364 15.3368 8.90112 14.7036 9.29009 14.3116C9.67905 13.9195 10.3122 13.917 10.7043 14.3059L11 14.5993V12C11 11.4477 11.4477 11 12 11Z" fill="#484848"/>
</svg>
