<svg width="24" height="24" viewBox="0 0 24 24" fill="none" xmlns="http://www.w3.org/2000/svg">
<path fill-rule="evenodd" clip-rule="evenodd" d="M19 9.94606V10C19 10.5523 18.5523 11 18 11C17.4477 11 17 10.5523 17 10C17 8.57473 16.9988 7.58104 16.9209 6.81505C16.8446 6.06578 16.7034 5.64604 16.4944 5.33329C16.2755 5.00572 15.9943 4.72447 15.6667 4.50559C15.354 4.29662 14.9342 4.15535 14.1849 4.07913C13.419 4.00121 12.4253 4 11 4H10.5C8.83176 4 7.66851 4.00164 6.78068 4.10658C5.91492 4.20892 5.4423 4.39744 5.09682 4.68097C4.94492 4.80563 4.80563 4.94492 4.68097 5.09682C4.39744 5.4423 4.20892 5.91492 4.10658 6.78068C4.00164 7.66851 4 8.83177 4 10.5L4 17C4 18.6569 5.34315 20 7 20C7.55229 20 8 20.4477 8 21C8 21.5523 7.55229 22 7 22C4.23858 22 2 19.7614 2 17L2 10.4365C1.99998 8.84668 1.99996 7.56488 2.12041 6.5459C2.24506 5.49133 2.51052 4.58891 3.13495 3.82803C3.34272 3.57486 3.57486 3.34272 3.82803 3.13495C4.58891 2.51052 5.49133 2.24506 6.5459 2.12041C7.56489 1.99996 8.8467 1.99998 10.4366 2L11.0539 2C12.4126 1.99999 13.5083 1.99997 14.3874 2.0894C15.2948 2.18171 16.0817 2.3775 16.7779 2.84265C17.3238 3.20745 17.7926 3.6762 18.1573 4.22215C18.6225 4.91829 18.8183 5.70523 18.9106 6.61264C19 7.49174 19 8.58739 19 9.94606Z" fill="#484848"/>
<path fill-rule="evenodd" clip-rule="evenodd" d="M15 7C15 7.55229 14.5523 8 14 8H7C6.44772 8 6 7.55229 6 7C6 6.44772 6.44772 6 7 6H14C14.5523 6 15 6.44772 15 7Z" fill="#484848"/>
<path fill-rule="evenodd" clip-rule="evenodd" d="M12 11C12 11.5523 11.5523 12 11 12H7C6.44772 12 6 11.5523 6 11C6 10.4477 6.44772 10 7 10H11C11.5523 10 12 10.4477 12 11Z" fill="#484848"/>
<path fill-rule="evenodd" clip-rule="evenodd" d="M10.1772 17C10.3336 17.2059 10.5635 17.4645 10.8832 17.7261C11.6242 18.3323 12.9013 19 15 19C17.0987 19 18.3758 18.3323 19.1168 17.7261C19.4365 17.4645 19.6664 17.2059 19.8228 17C19.6664 16.7942 19.4365 16.5356 19.1168 16.274C18.3758 15.6677 17.0987 15 15 15C12.9013 15 11.6242 15.6677 10.8832 16.274C10.5635 16.5356 10.3336 16.7942 10.1772 17ZM21 17C21.9138 16.5939 21.9136 16.5933 21.9133 16.5927L21.9127 16.5914L21.9115 16.5887L21.9086 16.5824L21.9012 16.5664C21.8956 16.5543 21.8884 16.5394 21.8796 16.5218C21.8622 16.4866 21.8384 16.4406 21.8078 16.3855C21.7465 16.2753 21.6576 16.1278 21.5366 15.9558C21.2946 15.612 20.9221 15.1669 20.3832 14.7261C19.2909 13.8323 17.568 13 15 13C12.432 13 10.7091 13.8323 9.61676 14.7261C9.07794 15.1669 8.70538 15.612 8.46344 15.9558C8.34238 16.1278 8.25346 16.2753 8.19225 16.3855C8.16162 16.4406 8.13784 16.4866 8.12036 16.5218C8.11162 16.5394 8.10445 16.5543 8.09878 16.5664L8.09139 16.5824L8.08852 16.5887L8.08729 16.5914L8.08672 16.5927C8.08645 16.5933 8.08619 16.5939 9 17L8.08619 16.5939L7.90568 17L8.08619 17.4062L9 17C8.08619 17.4062 8.08646 17.4068 8.08672 17.4074L8.08729 17.4086L8.08852 17.4114L8.09139 17.4177L8.09878 17.4337C8.10446 17.4457 8.11163 17.4607 8.12037 17.4783C8.13784 17.5135 8.16162 17.5594 8.19225 17.6146C8.25347 17.7248 8.34238 17.8722 8.46345 18.0443C8.70539 18.3881 9.07795 18.8331 9.61677 19.274C10.7091 20.1677 12.432 21 15 21C17.568 21 19.2909 20.1677 20.3832 19.274C20.9221 18.8331 21.2946 18.3881 21.5366 18.0443C21.6576 17.8722 21.7465 17.7248 21.8078 17.6146C21.8384 17.5594 21.8622 17.5135 21.8796 17.4783C21.8884 17.4607 21.8955 17.4457 21.9012 17.4337L21.9086 17.4177L21.9115 17.4114L21.9127 17.4086L21.9133 17.4074C21.9135 17.4068 21.9138 17.4062 21 17ZM21 17L21.9138 17.4062L22.0943 17L21.9138 16.5939L21 17Z" fill="#484848"/>
<path d="M17 17C17 18.1045 16.1046 19 15 19C13.8954 19 13 18.1045 13 17C13 15.8954 13.8954 15 15 15C16.1046 15 17 15.8954 17 17Z" fill="#484848"/>
</svg>
