<svg width="24" height="24" viewBox="0 0 24 24" fill="none" xmlns="http://www.w3.org/2000/svg">
<path fill-rule="evenodd" clip-rule="evenodd" d="M19 9.94606V10C19 10.5523 18.5523 11 18 11C17.4477 11 17 10.5523 17 10C17 8.57473 16.9988 7.58104 16.9209 6.81505C16.8447 6.06578 16.7034 5.64604 16.4944 5.33329C16.2755 5.00572 15.9943 4.72447 15.6667 4.50559C15.354 4.29662 14.9342 4.15535 14.185 4.07913C13.419 4.00121 12.4253 4 11 4H10.5C8.83177 4 7.66851 4.00164 6.78068 4.10658C5.91493 4.20892 5.44231 4.39744 5.09683 4.68097C4.94492 4.80563 4.80564 4.94492 4.68097 5.09682C4.39745 5.4423 4.20892 5.91492 4.10659 6.78068C4.00164 7.66851 4.00001 8.83177 4.00001 10.5L4 16C4 16.9772 4.00485 17.3198 4.05765 17.5853C4.29437 18.7753 5.22466 19.7056 6.41473 19.9424C6.68018 19.9952 7.02276 20 8 20C8.55229 20 9 20.4477 9 21C9 21.5523 8.55229 22 8 22C7.96085 22 7.92228 22 7.88427 22C7.06665 22.0002 6.50936 22.0004 6.02455 21.9039C4.0411 21.5094 2.49061 19.9589 2.09608 17.9755C1.99965 17.4906 1.99979 16.9334 1.99999 16.1158C2 16.0777 2 16.0392 2 16L2.00001 10.4365C1.99998 8.84668 1.99997 7.56488 2.12041 6.5459C2.24507 5.49133 2.51052 4.58891 3.13495 3.82803C3.34272 3.57486 3.57487 3.34272 3.82804 3.13495C4.58891 2.51052 5.49133 2.24506 6.54591 2.12041C7.56489 1.99996 8.8467 1.99998 10.4366 2L11.0539 2C12.4126 1.99999 13.5083 1.99997 14.3874 2.0894C15.2948 2.18171 16.0817 2.3775 16.7779 2.84265C17.3238 3.20745 17.7926 3.6762 18.1574 4.22215C18.6225 4.91829 18.8183 5.70523 18.9106 6.61264C19 7.49174 19 8.58739 19 9.94606Z" fill="#484848"/>
<path fill-rule="evenodd" clip-rule="evenodd" d="M15 7C15 7.55229 14.5523 8 14 8H7.00001C6.44772 8 6.00001 7.55229 6.00001 7C6.00001 6.44772 6.44772 6 7.00001 6H14C14.5523 6 15 6.44772 15 7Z" fill="#484848"/>
<path fill-rule="evenodd" clip-rule="evenodd" d="M12 11C12 11.5523 11.5523 12 11 12H7.00001C6.44772 12 6.00001 11.5523 6.00001 11C6.00001 10.4477 6.44772 10 7.00001 10H11C11.5523 10 12 10.4477 12 11Z" fill="#484848"/>
<path d="M16 17C16 17.5523 15.5523 18 15 18C14.4477 18 14 17.5523 14 17C14 16.4477 14.4477 16 15 16C15.5523 16 16 16.4477 16 17Z" fill="#484848"/>
<path fill-rule="evenodd" clip-rule="evenodd" d="M15 14.0023C14.9969 14.0036 14.9935 14.0051 14.9897 14.0068C14.9358 14.0309 14.8631 14.068 14.7194 14.1421L12.1969 15.4437C12.1283 15.4791 12.0748 15.5067 12.0287 15.5311C12.0185 15.5365 12.0091 15.5415 12.0004 15.5462C12 15.5882 12 15.6368 12 15.6987V18.3013C12 18.3632 12 18.4118 12.0004 18.4537C12.0092 18.4585 12.0188 18.4636 12.0291 18.469C12.0752 18.4935 12.1287 18.5211 12.1974 18.5565L14.7194 19.8578C14.8632 19.932 14.9359 19.9691 14.9898 19.9932C14.9936 19.9949 14.997 19.9964 15.0001 19.9977C15.0031 19.9964 15.0066 19.9949 15.0104 19.9932C15.0643 19.9691 15.137 19.932 15.2808 19.8578L17.8028 18.5565C17.8714 18.5211 17.9249 18.4935 17.971 18.4691C17.9813 18.4636 17.9908 18.4585 17.9996 18.4538C18 18.4123 18 18.3642 18 18.3032V15.6968C18 15.6358 18 15.5878 17.9996 15.5464C17.9913 15.5419 17.9824 15.5371 17.9728 15.532C17.927 15.5078 17.8739 15.4804 17.8058 15.4452L15.2803 14.1421C15.1362 14.0678 15.0637 14.0308 15.0098 14.0066C15.0062 14.005 15.0029 14.0036 15 14.0023ZM15.0056 20.0001C15.0056 20.0001 15.0056 20.0001 15.0056 20.0001V20.0001ZM15.0056 20.0001C15.0053 20 15.005 19.9998 15.0047 19.9997L15.0056 20.0001ZM14.6214 12.0356C14.8713 11.9881 15.1288 11.9881 15.3788 12.0356C15.6711 12.0911 15.933 12.2273 16.1412 12.3357C16.1604 12.3456 16.1791 12.3554 16.1974 12.3648L18.7229 13.6679C18.7412 13.6774 18.7604 13.6871 18.7803 13.6973C18.9827 13.8007 19.2549 13.9397 19.4672 14.1504C19.6538 14.3357 19.8022 14.5613 19.8947 14.8159C20.0034 15.1147 20.0015 15.431 20.0002 15.6382C20.0001 15.6589 20 15.6784 20 15.6968V18.3032C20 18.3215 20.0001 18.3411 20.0002 18.3617C20.0015 18.5689 20.0034 18.8852 19.8947 19.1841C19.8021 19.4389 19.6537 19.6644 19.4672 19.8494C19.2544 20.0607 18.9819 20.1999 18.7772 20.3045C18.7574 20.3146 18.7382 20.3244 18.7198 20.3339L16.1978 21.6352C16.1799 21.6445 16.1615 21.654 16.1426 21.6638C15.9336 21.7725 15.6714 21.9088 15.3788 21.9644C15.1288 22.0119 14.8713 22.0119 14.6214 21.9644C14.3287 21.9088 14.0665 21.7725 13.8575 21.6638C13.8387 21.654 13.8203 21.6445 13.8023 21.6352L11.2803 20.3339C11.2618 20.3244 11.2426 20.3145 11.2228 20.3044C11.0182 20.1999 10.7456 20.0606 10.5328 19.8494C10.3461 19.6641 10.1979 19.4385 10.1054 19.1841C9.99666 18.885 9.99853 18.5683 9.99977 18.3602C9.99989 18.3394 10 18.3198 10 18.3013V15.6987C10 15.6803 9.99989 15.6606 9.99977 15.6398C9.99853 15.4317 9.99665 15.115 10.1054 14.8159C10.1978 14.5616 10.3459 14.3359 10.5328 14.1504C10.7455 13.9394 11.018 13.8002 11.222 13.696C11.242 13.6858 11.2613 13.6759 11.2798 13.6663L13.8023 12.3648C13.8202 12.3555 13.8386 12.346 13.8574 12.3362C14.0665 12.2275 14.3287 12.0912 14.6214 12.0356Z" fill="#484848"/>
</svg>
