<svg width="64" height="108" viewBox="0 0 64 108" fill="none" xmlns="http://www.w3.org/2000/svg">
<rect x="0.5" y="0.5" width="63" height="107" rx="4.5" stroke="#9747FF" stroke-dasharray="10 5"/>
<path fill-rule="evenodd" clip-rule="evenodd" d="M33.7819 25.5926C34.1724 25.2021 34.8056 25.2021 35.1961 25.5926L38.4162 28.8127C38.8067 29.2032 38.8067 29.8364 38.4162 30.2269C38.0257 30.6174 37.3925 30.6174 37.002 30.2269L33.7819 27.0068C33.3914 26.6163 33.3914 25.9831 33.7819 25.5926Z" fill="#484848"/>
<path fill-rule="evenodd" clip-rule="evenodd" d="M36.0155 23.0523C37.3774 21.6899 39.5855 21.6899 40.9474 23.0523C42.3093 24.4147 42.3093 26.6235 40.9474 27.9859L28.8243 40.1133C28.6829 40.2547 28.5024 40.3505 28.3061 40.3882L23.9507 41.2262C23.625 41.2888 23.2895 41.1858 23.0549 40.9512C22.8204 40.7166 22.7174 40.381 22.7801 40.0551L23.6176 35.6981C23.6553 35.5017 23.7511 35.3211 23.8924 35.1797L36.0155 23.0523ZM39.5334 24.4668C38.9524 23.8856 38.0105 23.8856 37.4295 24.4668L25.5233 36.3772L25.0224 38.983L27.6272 38.4818L39.5334 26.5714C40.1144 25.9902 40.1144 25.0479 39.5334 24.4668Z" fill="#484848"/>
<path fill-rule="evenodd" clip-rule="evenodd" d="M41.0375 67.038C39.9557 65.9558 38.2017 65.9558 37.1199 67.038L36.2001 67.9581C35.5337 68.6248 35.2004 68.9581 35.2005 69.3723C35.2005 69.7864 35.5338 70.1197 36.2003 70.7863L37.2902 71.8761C37.957 72.5429 38.2904 72.8763 38.7046 72.8763C39.1189 72.8762 39.4522 72.5428 40.1189 71.8759L41.0375 70.957C42.1193 69.8748 42.1193 68.1202 41.0375 67.038ZM35.877 76.1193C36.5434 75.4526 36.8767 75.1193 36.8766 74.7051C36.8766 74.2909 36.5433 73.9577 35.8768 73.2911L34.7869 72.2012C34.1201 71.5345 33.7867 71.2011 33.3725 71.2011C32.9582 71.2012 32.6249 71.5346 31.9582 72.2015L24.0935 80.069C23.8585 80.3041 23.741 80.4216 23.6683 80.5677C23.5956 80.7139 23.5727 80.8785 23.527 81.2077L23.1783 83.7167C23.0963 84.3068 23.0553 84.6018 23.2273 84.7773C23.3992 84.9528 23.6949 84.9177 24.2863 84.8476L26.8482 84.544C27.1893 84.5035 27.3598 84.4833 27.5114 84.4098C27.663 84.3362 27.7844 84.2148 28.0272 83.9718L35.877 76.1193Z" fill="#484848"/>
</svg>
