<svg width="24" height="24" viewBox="0 0 24 24" fill="none" xmlns="http://www.w3.org/2000/svg">
<path fill-rule="evenodd" clip-rule="evenodd" d="M10 18H15C16.4461 18 17.3801 17.9976 18.0837 17.926C18.7539 17.8578 18.9901 17.7438 19.1111 17.6629C19.3295 17.517 19.517 17.3295 19.6629 17.1111C19.7438 16.9901 19.8578 16.7539 19.926 16.0837C19.9976 15.3801 20 14.4461 20 13C20 11.5539 19.9976 10.6199 19.926 9.91626C19.8578 9.24605 19.7438 9.00991 19.6629 8.88886C19.517 8.67048 19.3295 8.48298 19.1111 8.33706C18.9901 8.25618 18.7539 8.14217 18.0837 8.074C17.3801 8.00242 16.4461 8 15 8H12.9428C12.9352 8 12.9273 8 12.9193 8.00001C12.8319 8.00006 12.7224 8.00013 12.6117 7.99412C11.7017 7.94473 10.8358 7.58609 10.1574 6.97755C10.0749 6.90351 9.99752 6.82604 9.93575 6.76419C9.93007 6.75851 9.92453 6.75295 9.91912 6.74755C9.74489 6.57332 9.70962 6.53901 9.67864 6.51122C9.33945 6.20696 8.90653 6.02763 8.45153 6.00294C8.40998 6.00068 8.36078 6 8.11438 6H7.65685C5.95317 6 5.59338 6.02644 5.36077 6.1049C4.76904 6.3045 4.3045 6.76904 4.1049 7.36077C4.02644 7.59338 4 7.95317 4 9.65685V12C4 13.9422 4.00425 15.1976 4.12861 16.1226C4.24524 16.9901 4.43354 17.262 4.58579 17.4142C4.73803 17.5665 5.00993 17.7548 5.87741 17.8714C6.80242 17.9958 8.05784 18 10 18ZM2.20981 6.72154C2 7.34356 2 8.11466 2 9.65685V12C2 15.7712 2 17.6569 3.17157 18.8284C4.34315 20 6.22876 20 10 20H15C17.8089 20 19.2134 20 20.2223 19.3259C20.659 19.034 21.034 18.659 21.3259 18.2223C22 17.2134 22 15.8089 22 13C22 10.1911 22 8.78661 21.3259 7.77772C21.034 7.34096 20.659 6.96596 20.2223 6.67412C19.2134 6 17.8089 6 15 6H12.9428C12.8304 6 12.7742 6 12.72 5.99706C12.265 5.97237 11.8321 5.79304 11.4929 5.48878C11.4526 5.45257 11.4128 5.41284 11.3334 5.33338C11.1744 5.17441 11.0949 5.09487 11.0141 5.02245C10.3358 4.41391 9.46991 4.05527 8.55992 4.00588C8.45161 4 8.3392 4 8.11438 4H7.65685C6.11466 4 5.34356 4 4.72154 4.20981C3.53808 4.609 2.609 5.53808 2.20981 6.72154Z" fill="#484848"/>
</svg>
