<svg width="24" height="24" viewBox="0 0 24 24" fill="none" xmlns="http://www.w3.org/2000/svg">
<path fill-rule="evenodd" clip-rule="evenodd" d="M2 8.66667C2 7.09543 3.38259 6 4.856 6H16.0507C16.8601 6 17.6548 6.32168 18.2095 6.91947L21.3028 10.2528C22.2324 11.2545 22.2324 12.7455 21.3028 13.7472L18.2095 17.0805C17.6548 17.6783 16.8601 18 16.0507 18H4.856C3.38259 18 2 16.9046 2 15.3333V8.66771L3 8.66667L4 8.66673V15.3333C4 15.603 4.27933 16 4.856 16H16.0507C16.3429 16 16.593 15.8823 16.7435 15.7201L19.8368 12.3867C20.0544 12.1523 20.0544 11.8477 19.8368 11.6133L16.7435 8.27992C16.593 8.11772 16.3429 8 16.0507 8H4.856C4.27933 8 4 8.39702 4 8.66673L3 8.66667H2Z" fill="#484848"/>
</svg>
