<svg width="24" height="24" viewBox="0 0 24 24" fill="none" xmlns="http://www.w3.org/2000/svg">
<path fill-rule="evenodd" clip-rule="evenodd" d="M20 7C20 5.97483 19.9903 5.75432 19.9616 5.60982C19.8038 4.81644 19.1836 4.19624 18.3902 4.03843C18.2457 4.00969 18.0252 4 17 4H10C8.05784 4 6.80242 4.00425 5.87741 4.12861C5.00993 4.24524 4.73803 4.43354 4.58579 4.58579C4.43354 4.73803 4.24524 5.00993 4.12861 5.87741C4.00425 6.80242 4 8.05784 4 10V14C4 15.9422 4.00425 17.1976 4.12861 18.1226C4.24524 18.9901 4.43354 19.262 4.58579 19.4142C4.73803 19.5665 5.00993 19.7548 5.87741 19.8714C6.80242 19.9958 8.05784 20 10 20H14C15.9422 20 17.1976 19.9958 18.1226 19.8714C18.9901 19.7548 19.262 19.5665 19.4142 19.4142C19.5665 19.262 19.7548 18.9901 19.8714 18.1226C19.9958 17.1976 20 15.9422 20 14V7ZM22 7V14C22 17.7712 22 19.6569 20.8284 20.8284C19.6569 22 17.7712 22 14 22H10C6.22876 22 4.34315 22 3.17157 20.8284C2 19.6569 2 17.7712 2 14V10C2 6.22876 2 4.34315 3.17157 3.17157C4.34315 2 6.22876 2 10 2H17C17.9293 2 18.394 2 18.7804 2.07686C20.3671 2.39249 21.6075 3.63288 21.9231 5.21964C22 5.60603 22 6.07069 22 7Z" fill="#484848"/>
<path fill-rule="evenodd" clip-rule="evenodd" d="M18 15C18 15.5523 17.5523 16 17 16H13C12.4477 16 12 15.5523 12 15C12 14.4477 12.4477 14 13 14H17C17.5523 14 18 14.4477 18 15Z" fill="#484848"/>
<path fill-rule="evenodd" clip-rule="evenodd" d="M18 9C18 9.55228 17.5523 10 17 10H13C12.4477 10 12 9.55228 12 9C12 8.44772 12.4477 8 13 8H17C17.5523 8 18 8.44772 18 9Z" fill="#484848"/>
<path fill-rule="evenodd" clip-rule="evenodd" d="M9.29289 7.29289C9.68342 6.90237 10.3166 6.90237 10.7071 7.29289C11.0976 7.68342 11.0976 8.31658 10.7071 8.70711L9.41421 10C9.40506 10.0092 9.39578 10.0184 9.38638 10.0279C9.24514 10.1693 9.07697 10.3377 8.9128 10.4629C8.71463 10.6141 8.41011 10.7929 8 10.7929C7.58989 10.7929 7.28537 10.6141 7.0872 10.4629C6.92303 10.3377 6.75487 10.1693 6.61362 10.0279C6.60422 10.0184 6.59494 10.0092 6.58579 10L6.29289 9.70711C5.90237 9.31658 5.90237 8.68342 6.29289 8.29289C6.68342 7.90237 7.31658 7.90237 7.70711 8.29289L8 8.58579L9.29289 7.29289ZM7.69653 8.87516L7.69785 8.87421L7.69653 8.87516ZM8.30216 8.87422L8.30347 8.87516L8.30216 8.87422Z" fill="#484848"/>
<path fill-rule="evenodd" clip-rule="evenodd" d="M9.29289 13.2929C9.68342 12.9024 10.3166 12.9024 10.7071 13.2929C11.0976 13.6834 11.0976 14.3166 10.7071 14.7071L9.41421 16C9.40506 16.0092 9.39578 16.0184 9.38638 16.0279C9.24514 16.1693 9.07697 16.3377 8.9128 16.4629C8.71463 16.6141 8.41011 16.7929 8 16.7929C7.58989 16.7929 7.28537 16.6141 7.0872 16.4629C6.92303 16.3377 6.75487 16.1693 6.61362 16.0279C6.60422 16.0184 6.59494 16.0092 6.58579 16L6.29289 15.7071C5.90237 15.3166 5.90237 14.6834 6.29289 14.2929C6.68342 13.9024 7.31658 13.9024 7.70711 14.2929L8 14.5858L9.29289 13.2929ZM7.69653 14.8752L7.69785 14.8742L7.69653 14.8752ZM8.30216 14.8742L8.30347 14.8752L8.30216 14.8742Z" fill="#484848"/>
</svg>
