<svg width="24" height="24" viewBox="0 0 24 24" fill="none" xmlns="http://www.w3.org/2000/svg">
<path fill-rule="evenodd" clip-rule="evenodd" d="M18 14V10C18 8.05784 17.9958 6.80242 17.8714 5.87741C17.7548 5.00993 17.5665 4.73803 17.4142 4.58579C17.262 4.43354 16.9901 4.24524 16.1226 4.12861C15.1976 4.00425 13.9422 4 12 4C10.0578 4 8.80242 4.00425 7.87741 4.12861C7.00993 4.24524 6.73803 4.43354 6.58579 4.58579C6.43354 4.73803 6.24524 5.00993 6.12861 5.87741C6.00425 6.80242 6 8.05784 6 10V14C6 15.9422 6.00425 17.1976 6.12861 18.1226C6.24524 18.9901 6.43354 19.262 6.58579 19.4142C6.73803 19.5665 7.00993 19.7548 7.87741 19.8714C8.80242 19.9958 10.0578 20 12 20C13.9422 20 15.1976 19.9958 16.1226 19.8714C16.9901 19.7548 17.262 19.5665 17.4142 19.4142C17.5665 19.262 17.7548 18.9901 17.8714 18.1226C17.9958 17.1976 18 15.9422 18 14ZM5.17157 3.17157C4 4.34315 4 6.22876 4 10V14C4 17.7712 4 19.6569 5.17157 20.8284C6.34315 22 8.22876 22 12 22C15.7712 22 17.6569 22 18.8284 20.8284C20 19.6569 20 17.7712 20 14V10C20 6.22876 20 4.34315 18.8284 3.17157C17.6569 2 15.7712 2 12 2C8.22876 2 6.34315 2 5.17157 3.17157Z" fill="#484848"/>
<path fill-rule="evenodd" clip-rule="evenodd" d="M16 16C16 16.5523 15.5523 17 15 17H9C8.44772 17 8 16.5523 8 16C8 15.4477 8.44772 15 9 15H15C15.5523 15 16 15.4477 16 16Z" fill="#484848"/>
<path fill-rule="evenodd" clip-rule="evenodd" d="M12 12C12 12.5523 11.5523 13 11 13H9C8.44771 13 8 12.5523 8 12C8 11.4477 8.44771 11 9 11H11C11.5523 11 12 11.4477 12 12Z" fill="#484848"/>
<path fill-rule="evenodd" clip-rule="evenodd" d="M13 5C13.5523 5 14 5.44772 14 6V7.5C14 7.67622 14.2006 8 14.6667 8H16C16.5523 8 17 8.44772 17 9C17 9.55228 16.5523 10 16 10H14.6667C13.2994 10 12 8.97378 12 7.5V6C12 5.44772 12.4477 5 13 5Z" fill="#484848"/>
</svg>
