<svg width="64" height="108" viewBox="0 0 64 108" fill="none" xmlns="http://www.w3.org/2000/svg">
<rect x="0.5" y="0.5" width="63" height="107" rx="4.5" stroke="#9747FF" stroke-dasharray="10 5"/>
<path fill-rule="evenodd" clip-rule="evenodd" d="M27.4636 41.2596C28.2631 42.2468 29.7369 42.2468 30.5364 41.2596L31.7316 39.7839L33.0077 40.5342C34.341 41.3181 36 40.3275 36 38.7475V23.0289C36 22.4607 35.5523 22 35 22H27C24.2386 22 22 24.3033 22 27.1446V38.7475C22 40.3275 23.659 41.3181 24.9923 40.5342L26.2684 39.7839L27.4636 41.2596ZM29 39.9422L27.8048 38.4665C27.184 37.6999 26.1181 37.5021 25.2761 37.9972L24 38.7475V27.1446C24 25.4398 25.3431 24.0578 27 24.0578H34V38.7475L32.7239 37.9972C31.8819 37.5021 30.816 37.6999 30.1952 38.4665L29 39.9422Z" fill="#484848"/>
<path fill-rule="evenodd" clip-rule="evenodd" d="M34 31.2602C34 31.8285 34.4477 32.2892 35 32.2892H39C40.6569 32.2892 42 30.9072 42 29.2024V27.1446C42 24.3033 39.7614 22 37 22H35C34.4477 22 34 22.4607 34 23.0289V31.2602ZM36 30.2313V24.0578H37C38.6569 24.0578 40 25.4398 40 27.1446V29.2024C40 29.7707 39.5523 30.2313 39 30.2313H36Z" fill="#484848"/>
<path fill-rule="evenodd" clip-rule="evenodd" d="M32 33.3181C32 32.7498 31.5523 32.2892 31 32.2892H27C26.4477 32.2892 26 32.7498 26 33.3181C26 33.8863 26.4477 34.347 27 34.347H31C31.5523 34.347 32 33.8863 32 33.3181Z" fill="#484848"/>
<path fill-rule="evenodd" clip-rule="evenodd" d="M32 29.2024C32 28.6342 31.5523 28.1735 31 28.1735H27C26.4477 28.1735 26 28.6342 26 29.2024C26 29.7707 26.4477 30.2313 27 30.2313H31C31.5523 30.2313 32 29.7707 32 29.2024Z" fill="#484848"/>
<path fill-rule="evenodd" clip-rule="evenodd" d="M34 75.2496C34 75.8302 34.4477 76.3009 35 76.3009H39C40.6569 76.3009 42 74.8889 42 73.1472V71.2561C42 68.3533 39.7614 66 37 66H35C34.4477 66 34 66.4707 34 67.0512V75.2496ZM36 74.1984V68.1025H37C38.6569 68.1025 40 69.5144 40 71.2561V73.1472C40 73.7278 39.5523 74.1984 39 74.1984H36Z" fill="#484848"/>
<path fill-rule="evenodd" clip-rule="evenodd" d="M26.6056 83.7182L28.2558 85.651C28.6532 86.1163 29.3468 86.1163 29.7442 85.651L31.3944 83.7182C31.7013 83.3588 32.2015 83.2654 32.6073 83.4917L34.5313 84.5648C35.1974 84.9363 36 84.4288 36 83.6362V66.0267H26C23.7909 66.0267 22 67.9093 22 70.2315V83.6362C22 84.4288 22.8026 84.9363 23.4687 84.5648L25.3927 83.4917C25.7985 83.2654 26.2987 83.3588 26.6056 83.7182ZM27 72.1488C26.4477 72.1488 26 72.6195 26 73.2C26 73.7806 26.4477 74.2512 27 74.2512H31C31.5523 74.2512 32 73.7806 32 73.2C32 72.6195 31.5523 72.1488 31 72.1488H27ZM27 76.248C26.4477 76.248 26 76.7186 26 77.2992C26 77.8798 26.4477 78.3504 27 78.3504H31C31.5523 78.3504 32 77.8798 32 77.2992C32 76.7186 31.5523 76.248 31 76.248H27Z" fill="#484848"/>
</svg>
