<svg width="64" height="108" viewBox="0 0 64 108" fill="none" xmlns="http://www.w3.org/2000/svg">
<rect x="0.5" y="0.5" width="63" height="107" rx="4.5" stroke="#9747FF" stroke-dasharray="10 5"/>
<path fill-rule="evenodd" clip-rule="evenodd" d="M30.5858 41.4018C31.3668 42.1994 32.6332 42.1994 33.4142 41.4018L35.1975 39.5809L37.1056 40.5551C38.4354 41.2341 40 40.2466 40 38.7284V27.1057C40 24.2859 37.7614 22 35 22H29C26.2386 22 24 24.2859 24 27.1057V38.7284C24 40.2466 25.5646 41.2341 26.8944 40.5551L28.8025 39.5809L30.5858 41.4018ZM32 39.9577L30.2168 38.1368C29.608 37.5152 28.6781 37.3611 27.9081 37.7542L26 38.7284V27.1057C26 25.4138 27.3431 24.0423 29 24.0423H35C36.6569 24.0423 38 25.4139 38 27.1057L38 38.7284L36.0919 37.7542C35.3219 37.3611 34.392 37.5152 33.7832 38.1368L32 39.9577Z" fill="#484848"/>
<path d="M31 29.148C31 29.712 30.5523 30.1692 30 30.1692C29.4477 30.1692 29 29.712 29 29.148C29 28.5841 29.4477 28.1269 30 28.1269C30.5523 28.1269 31 28.5841 31 29.148Z" fill="#484848"/>
<path d="M35 33.2326C35 33.7966 34.5523 34.2538 34 34.2538C33.4477 34.2538 33 33.7966 33 33.2326C33 32.6687 33.4477 32.2115 34 32.2115C34.5523 32.2115 35 32.6687 35 33.2326Z" fill="#484848"/>
<path fill-rule="evenodd" clip-rule="evenodd" d="M29.289 33.9588C28.893 33.5702 28.8903 32.9301 29.283 32.5291L33.2829 28.4445C33.6756 28.0435 34.315 28.0334 34.711 28.4219C35.107 28.8105 35.1097 29.4505 34.717 29.8516L30.7171 33.9362C30.3244 34.3372 29.685 34.3473 29.289 33.9588Z" fill="#484848"/>
<path fill-rule="evenodd" clip-rule="evenodd" d="M30.5858 85.4018C31.3668 86.1994 32.6332 86.1994 33.4142 85.4018L35.1975 83.5809L37.1056 84.5551C38.4354 85.2341 40 84.2466 40 82.7284V71.1057C40 68.2859 37.7614 66 35 66H29C26.2386 66 24 68.2859 24 71.1057V82.7284C24 84.2466 25.5646 85.2341 26.8944 84.5551L28.8025 83.5809L30.5858 85.4018ZM32 83.9577L30.2168 82.1367L29.5097 82.8588M32 83.9577L33.7832 82.1367L32 83.9577ZM38 82.7284L36.0919 81.7542C35.3219 81.3611 34.392 81.5152 33.7832 82.1367M27.9081 81.7542L26 82.7284V71.1057C26 69.4138 27.3431 68.0423 29 68.0423H35C36.6569 68.0423 38 69.4139 38 71.1057V82.7284M27.9081 81.7542C28.6781 81.3611 29.608 81.5152 30.2168 82.1367L27.9081 81.7542Z" fill="#484848"/>
<path fill-rule="evenodd" clip-rule="evenodd" d="M29.5097 82.875L31.2929 84.7002C31.6834 85.0999 32.3166 85.0999 32.7071 84.7002L34.4903 82.875C34.7947 82.5634 35.2597 82.4862 35.6447 82.6832L37.5528 83.6598C38.2177 84 39 83.5052 39 82.7443V71.0942C39 68.833 37.2091 67 35 67H29C26.7909 67 25 68.833 25 71.0942V82.7443C25 83.5052 25.7823 84 26.4472 83.6598L28.3553 82.6832C28.7403 82.4862 29.2053 82.5634 29.5097 82.875ZM30 74C30.5523 74 31 73.5523 31 73C31 72.4477 30.5523 72 30 72C29.4477 72 29 72.4477 29 73C29 73.5523 29.4477 74 30 74ZM35 77C35 77.5523 34.5523 78 34 78C33.4477 78 33 77.5523 33 77C33 76.4477 33.4477 76 34 76C34.5523 76 35 76.4477 35 77ZM29.283 76.311C28.8903 76.7037 28.893 77.3306 29.289 77.7111C29.685 78.0915 30.3244 78.0816 30.7171 77.6889L34.717 73.6889C35.1097 73.2962 35.107 72.6694 34.711 72.2889C34.315 71.9084 33.6756 71.9183 33.2829 72.311L29.283 76.311Z" fill="#484848"/>
</svg>
