<svg width="64" height="108" viewBox="0 0 64 108" fill="none" xmlns="http://www.w3.org/2000/svg">
<rect x="0.5" y="0.5" width="63" height="107" rx="4.5" stroke="#9747FF" stroke-dasharray="10 5"/>
<path fill-rule="evenodd" clip-rule="evenodd" d="M30.5858 41.4018C31.3668 42.1994 32.6332 42.1994 33.4142 41.4018L35.1975 39.5809L37.1056 40.5551C38.4354 41.2341 40 40.2466 40 38.7284V27.1057C40 24.2859 37.7614 22 35 22H29C26.2386 22 24 24.2859 24 27.1057V38.7284C24 40.2466 25.5646 41.2341 26.8944 40.5551L28.8025 39.5809L30.5858 41.4018ZM32 39.9577L30.2168 38.1368C29.608 37.5152 28.6781 37.3611 27.9081 37.7542L26 38.7284V27.1057C26 25.4138 27.3431 24.0423 29 24.0423H35C36.6569 24.0423 38 25.4139 38 27.1057L38 38.7284L36.0919 37.7542C35.3219 37.3611 34.392 37.5152 33.7832 38.1368L32 39.9577Z" fill="#484848"/>
<path fill-rule="evenodd" clip-rule="evenodd" d="M35 33.2326C35 32.6687 34.5523 32.2115 34 32.2115H30C29.4477 32.2115 29 32.6687 29 33.2326C29 33.7966 29.4477 34.2538 30 34.2538H34C34.5523 34.2538 35 33.7966 35 33.2326Z" fill="#484848"/>
<path fill-rule="evenodd" clip-rule="evenodd" d="M35 29.148C35 28.5841 34.5523 28.1269 34 28.1269H30C29.4477 28.1269 29 28.5841 29 29.148C29 29.712 29.4477 30.1692 30 30.1692H34C34.5523 30.1692 35 29.712 35 29.148Z" fill="#484848"/>
<path fill-rule="evenodd" clip-rule="evenodd" d="M30.5858 85.4018C31.3668 86.1994 32.6332 86.1994 33.4142 85.4018L35.1975 83.5809L37.1056 84.5551C38.4354 85.2341 40 84.2466 40 82.7284V71.1057C40 68.2859 37.7614 66 35 66H29C26.2386 66 24 68.2859 24 71.1057V82.7284C24 84.2466 25.5646 85.2341 26.8944 84.5551L28.8025 83.5809L30.5858 85.4018ZM32 83.9577L30.2168 82.1367L29.5097 82.8588M32 83.9577L33.7832 82.1367L32 83.9577ZM38 82.7284L36.0919 81.7542C35.3219 81.3611 34.392 81.5152 33.7832 82.1367M27.9081 81.7542L26 82.7284V71.1057C26 69.4138 27.3431 68.0423 29 68.0423H35C36.6569 68.0423 38 69.4139 38 71.1057V82.7284M27.9081 81.7542C28.6781 81.3611 29.608 81.5152 30.2168 82.1367L27.9081 81.7542Z" fill="#484848"/>
<path fill-rule="evenodd" clip-rule="evenodd" d="M31.2929 84.7002L29.5097 82.875C29.2053 82.5634 28.7403 82.4862 28.3553 82.6832L26.4472 83.6598C25.7823 84 25 83.5052 25 82.7443V71.0942C25 68.833 26.7909 67 29 67H35C37.2091 67 39 68.833 39 71.0942V82.7443C39 83.5052 38.2177 84 37.5528 83.6598L35.6447 82.6832C35.2597 82.4862 34.7947 82.5634 34.4903 82.875L32.7071 84.7002C32.3166 85.0999 31.6834 85.0999 31.2929 84.7002ZM35 77C35 76.4477 34.5523 76 34 76H30C29.4477 76 29 76.4477 29 77C29 77.5523 29.4477 78 30 78H34C34.5523 78 35 77.5523 35 77ZM34 72C34.5523 72 35 72.4477 35 73C35 73.5523 34.5523 74 34 74H30C29.4477 74 29 73.5523 29 73C29 72.4477 29.4477 72 30 72H34Z" fill="#484848"/>
</svg>
