<svg width="64" height="108" viewBox="0 0 64 108" fill="none" xmlns="http://www.w3.org/2000/svg">
<rect x="0.5" y="0.5" width="63" height="107" rx="4.5" stroke="#9747FF" stroke-dasharray="10 5"/>
<path fill-rule="evenodd" clip-rule="evenodd" d="M27.4636 22.7404C28.2631 21.7532 29.7369 21.7532 30.5364 22.7404L31.7316 24.2161L33.0077 23.4658C34.341 22.6819 36 23.6725 36 25.2525V40.9711C36 41.5393 35.5523 42 35 42H27C24.2386 42 22 39.6967 22 36.8554V25.2525C22 23.6725 23.659 22.6819 24.9923 23.4658L26.2684 24.2161L27.4636 22.7404ZM29 24.0578L27.8048 25.5335C27.184 26.3001 26.1181 26.4979 25.2761 26.0028L24 25.2525V36.8554C24 38.5602 25.3431 39.9422 27 39.9422H34V25.2525L32.7239 26.0028C31.8819 26.4979 30.816 26.3001 30.1952 25.5335L29 24.0578Z" fill="#484848"/>
<path fill-rule="evenodd" clip-rule="evenodd" d="M34 32.7398C34 32.1715 34.4477 31.7108 35 31.7108H39C40.6569 31.7108 42 33.0928 42 34.7976V36.8554C42 39.6967 39.7614 42 37 42H35C34.4477 42 34 41.5393 34 40.9711V32.7398ZM36 33.7687V39.9422H37C38.6569 39.9422 40 38.5602 40 36.8554V34.7976C40 34.2293 39.5523 33.7687 39 33.7687H36Z" fill="#484848"/>
<path fill-rule="evenodd" clip-rule="evenodd" d="M32 30.6819C32 31.2502 31.5523 31.7108 31 31.7108H27C26.4477 31.7108 26 31.2502 26 30.6819C26 30.1137 26.4477 29.653 27 29.653H31C31.5523 29.653 32 30.1137 32 30.6819Z" fill="#484848"/>
<path fill-rule="evenodd" clip-rule="evenodd" d="M32 34.7976C32 35.3658 31.5523 35.8265 31 35.8265H27C26.4477 35.8265 26 35.3658 26 34.7976C26 34.2293 26.4477 33.7687 27 33.7687H31C31.5523 33.7687 32 34.2293 32 34.7976Z" fill="#484848"/>
<path fill-rule="evenodd" clip-rule="evenodd" d="M34 76.7504C34 76.1698 34.4477 75.6991 35 75.6991H39C40.6569 75.6991 42 77.1111 42 78.8528V80.7439C42 83.6467 39.7614 86 37 86H35C34.4477 86 34 85.5293 34 84.9488V76.7504ZM36 77.8016V83.8975H37C38.6569 83.8975 40 82.4856 40 80.7439V78.8528C40 78.2722 39.5523 77.8016 39 77.8016H36Z" fill="#484848"/>
<path fill-rule="evenodd" clip-rule="evenodd" d="M26.6056 68.2818L28.2558 66.349C28.6532 65.8837 29.3468 65.8837 29.7442 66.349L31.3944 68.2818C31.7013 68.6412 32.2015 68.7346 32.6073 68.5083L34.5313 67.4352C35.1974 67.0637 36 67.5712 36 68.3638V85.9733H26C23.7909 85.9733 22 84.0907 22 81.7685V68.3638C22 67.5712 22.8026 67.0637 23.4687 67.4352L25.3927 68.5083C25.7985 68.7346 26.2987 68.6412 26.6056 68.2818ZM27 79.8512C26.4477 79.8512 26 79.3805 26 78.8C26 78.2194 26.4477 77.7488 27 77.7488H31C31.5523 77.7488 32 78.2194 32 78.8C32 79.3805 31.5523 79.8512 31 79.8512H27ZM27 75.752C26.4477 75.752 26 75.2814 26 74.7008C26 74.1202 26.4477 73.6496 27 73.6496H31C31.5523 73.6496 32 74.1202 32 74.7008C32 75.2814 31.5523 75.752 31 75.752H27Z" fill="#484848"/>
</svg>
