<svg width="24" height="24" viewBox="0 0 24 24" fill="none" xmlns="http://www.w3.org/2000/svg">
<path fill-rule="evenodd" clip-rule="evenodd" d="M19.9904 11.4997C15.1598 10.9562 10.9562 15.1598 11.4997 19.9904C11.5015 20.0062 11.5033 20.022 11.5052 20.0378C11.5701 20.5842 11.6958 21.1383 11.8883 21.6944C11.9115 21.7615 11.9357 21.8286 11.9609 21.8957C11.9798 21.9462 11.9422 22 11.8883 22C11.8215 22 11.7548 21.9993 11.6883 21.998C11.1006 21.9861 10.5252 21.922 9.96651 21.8102C9.91727 21.8003 9.86817 21.7901 9.81919 21.7795C5.36161 20.8154 2 16.8067 2 12.0716C2 6.54879 6.54879 2 12.0716 2C16.8067 2 20.8154 5.36161 21.7795 9.81919C21.7901 9.86817 21.8003 9.91727 21.8102 9.96651C21.922 10.5252 21.9861 11.1006 21.998 11.6883C21.9993 11.7548 22 11.8215 22 11.8883C22 11.9422 21.9462 11.9798 21.8957 11.9609C21.8286 11.9357 21.7615 11.9115 21.6944 11.8883C21.1383 11.6958 20.5842 11.5701 20.0378 11.5052C20.022 11.5033 20.0062 11.5015 19.9904 11.4997ZM19.6111 9.45966C13.9749 9.17619 9.17619 13.9749 9.45966 19.6111C6.30414 18.5723 4 15.5719 4 12.0716C4 7.65336 7.65336 4 12.0716 4C15.5719 4 18.5723 6.30414 19.6111 9.45966Z" fill="#484848"/>
<path fill-rule="evenodd" clip-rule="evenodd" d="M21.7071 11.2929C22.0976 11.6834 22.0976 12.3166 21.7071 12.7071L12.7071 21.7071C12.3166 22.0976 11.6834 22.0976 11.2929 21.7071C10.9024 21.3166 10.9024 20.6834 11.2929 20.2929L20.2929 11.2929C20.6834 10.9024 21.3166 10.9024 21.7071 11.2929Z" fill="#484848"/>
</svg>
