<svg width="24" height="24" viewBox="0 0 24 24" fill="none" xmlns="http://www.w3.org/2000/svg">
<path fill-rule="evenodd" clip-rule="evenodd" d="M19.9439 9.33029C19.9465 9.32229 19.9682 9.24639 19.9824 9.00409C19.9992 8.71673 20 8.33615 20 7.71429C20 5.95096 19.9717 5.57933 19.8878 5.33944C19.6867 4.76495 19.2351 4.31326 18.6606 4.11223C18.4207 4.02829 18.049 4 16.2857 4H10C8.05784 4 6.80242 4.00425 5.87741 4.12861C5.00993 4.24524 4.73803 4.43354 4.58579 4.58579C4.43354 4.73803 4.24524 5.00993 4.12861 5.87741C4.00425 6.80242 4 8.05784 4 10V16.2857C4 18.049 4.02829 18.4207 4.11223 18.6606C4.31326 19.2351 4.76495 19.6867 5.33944 19.8878C5.57933 19.9717 5.95096 20 7.71429 20C8.33615 20 8.71673 19.9992 9.00409 19.9824C9.27681 19.9664 9.33873 19.9409 9.33028 19.9439C9.61753 19.8434 9.84337 19.6175 9.94388 19.3303C9.94647 19.3223 9.96819 19.2464 9.98238 19.0041C9.9992 18.7167 10 18.3361 10 17.7143C10 17.6175 9.99987 17.5216 9.99974 17.4267C9.99797 16.1206 9.99644 14.9907 10.3367 14.0183C10.9398 12.2948 12.2948 10.9398 14.0183 10.3367C14.9907 9.99644 16.1206 9.99797 17.4267 9.99974C17.5216 9.99987 17.6175 10 17.7143 10C18.3361 10 18.7167 9.9992 19.0041 9.98238C19.2768 9.96641 19.3387 9.94093 19.3303 9.94388C19.6175 9.84337 19.8434 9.61753 19.9439 9.33029ZM3.17157 3.17157C2 4.34315 2 6.22876 2 10V16.2857C2 17.8817 2 18.6796 2.22447 19.3211C2.62651 20.4701 3.5299 21.3735 4.67888 21.7755C5.32037 22 6.11834 22 7.71429 22C8.91124 22 9.50972 22 9.99084 21.8316C10.8526 21.5301 11.5301 20.8526 11.8316 19.9908C12 19.5097 12 18.9112 12 17.7143C12 16.1183 12 15.3204 12.2245 14.6789C12.6265 13.5299 13.5299 12.6265 14.6789 12.2245C15.3204 12 16.1183 12 17.7143 12C18.9112 12 19.5097 12 19.9908 11.8316C20.8526 11.5301 21.5301 10.8526 21.8316 9.99084C22 9.50972 22 8.91124 22 7.71429C22 6.11834 22 5.32037 21.7755 4.67888C21.3735 3.5299 20.4701 2.62651 19.3211 2.22447C18.6796 2 17.8817 2 16.2857 2H10C6.22876 2 4.34315 2 3.17157 3.17157Z" fill="#484848"/>
<path fill-rule="evenodd" clip-rule="evenodd" d="M20 9.37906V8H22V9.37906C22 11.9458 21.1675 14.4433 19.6274 16.4967C19.0274 17.2967 18.3287 18.0177 17.5478 18.6424L17.296 18.8438C14.7421 20.8869 11.569 22 8.29844 22H8V20H8.29844C11.1148 20 13.8474 19.0415 16.0466 17.2821L16.2984 17.0806C16.9477 16.5613 17.5286 15.9619 18.0274 15.2967C19.3078 13.5895 20 11.5131 20 9.37906Z" fill="#484848"/>
</svg>
