<svg width="64" height="108" viewBox="0 0 64 108" fill="none" xmlns="http://www.w3.org/2000/svg">
<rect x="0.5" y="0.5" width="63" height="107" rx="4.5" stroke="#9747FF" stroke-dasharray="10 5"/>
<path fill-rule="evenodd" clip-rule="evenodd" d="M32 40C36.4183 40 40 36.4183 40 32C40 27.5817 36.4183 24 32 24C27.5817 24 24 27.5817 24 32C24 36.4183 27.5817 40 32 40ZM32 42C37.5228 42 42 37.5228 42 32C42 26.4772 37.5228 22 32 22C26.4772 22 22 26.4772 22 32C22 37.5228 26.4772 42 32 42Z" fill="#484848"/>
<path fill-rule="evenodd" clip-rule="evenodd" d="M32 31C32.5523 31 33 31.4477 33 32V36C33 36.5523 32.5523 37 32 37C31.4477 37 31 36.5523 31 36V32C31 31.4477 31.4477 31 32 31Z" fill="#484848"/>
<path d="M33 29C33 29.5523 32.5523 30 32 30C31.4477 30 31 29.5523 31 29C31 28.4477 31.4477 28 32 28C32.5523 28 33 28.4477 33 29Z" fill="#484848"/>
<path d="M32 66C37.5228 66 42 70.4772 42 76C42 81.5228 37.5228 86 32 86C26.4772 86 22 81.5228 22 76C22 70.4772 26.4772 66 32 66ZM32 75C31.4477 75 31 75.4477 31 76V80C31 80.5523 31.4477 81 32 81C32.5523 81 33 80.5523 33 80V76C33 75.4477 32.5523 75 32 75ZM32 72C31.4477 72 31 72.4477 31 73C31 73.5523 31.4477 74 32 74C32.5523 74 33 73.5523 33 73C33 72.4477 32.5523 72 32 72Z" fill="#484848"/>
</svg>
