<svg width="18" height="18" viewBox="0 0 18 18" fill="none" xmlns="http://www.w3.org/2000/svg">
<path d="M0 4C0 2.11438 0 1.17157 0.585786 0.585786C1.17157 0 2.11438 0 4 0H4.1C5.98562 0 6.92843 0 7.51421 0.585786C8.1 1.17157 8.1 2.11438 8.1 4V4.1C8.1 5.98562 8.1 6.92843 7.51421 7.51421C6.92843 8.1 5.98562 8.1 4.1 8.1H4C2.11438 8.1 1.17157 8.1 0.585786 7.51421C0 6.92843 0 5.98562 0 4.1V4Z" fill="#484848"/>
<path d="M9.90001 4C9.90001 2.11438 9.90001 1.17157 10.4858 0.585786C11.0716 0 12.0144 0 13.9 0H14C15.8856 0 16.8284 0 17.4142 0.585786C18 1.17157 18 2.11438 18 4V4.1C18 5.98562 18 6.92843 17.4142 7.51421C16.8284 8.1 15.8856 8.1 14 8.1H13.9C12.0144 8.1 11.0716 8.1 10.4858 7.51421C9.90001 6.92843 9.90001 5.98562 9.90001 4.1V4Z" fill="#484848"/>
<path d="M9.90001 13.95C9.90001 11.7133 11.7133 9.90001 13.95 9.90001C16.1868 9.90001 18 11.7133 18 13.95C18 16.1868 16.1868 18 13.95 18C11.7133 18 9.90001 16.1868 9.90001 13.95Z" fill="#484848"/>
<path d="M0 13.9C0 12.0144 0 11.0716 0.585786 10.4858C1.17157 9.90001 2.11438 9.90001 4 9.90001H4.1C5.98562 9.90001 6.92843 9.90001 7.51421 10.4858C8.1 11.0716 8.1 12.0144 8.1 13.9V14C8.1 15.8856 8.1 16.8284 7.51421 17.4142C6.92843 18 5.98562 18 4.1 18H4C2.11438 18 1.17157 18 0.585786 17.4142C0 16.8284 0 15.8856 0 14V13.9Z" fill="#484848"/>
</svg>
