<svg width="64" height="108" viewBox="0 0 64 108" fill="none" xmlns="http://www.w3.org/2000/svg">
<rect x="0.5" y="0.5" width="63" height="107" rx="4.5" stroke="#9747FF" stroke-dasharray="10 5"/>
<path fill-rule="evenodd" clip-rule="evenodd" d="M27 24H26C25.0007 24 24.4523 24.0042 24.072 24.0554C24.067 24.0561 24.0621 24.0567 24.0574 24.0574C24.0567 24.0621 24.0561 24.067 24.0554 24.072C24.0042 24.4523 24 25.0007 24 26V27C24 27.9993 24.0042 28.5477 24.0554 28.928C24.0561 28.933 24.0567 28.9379 24.0574 28.9426C24.0621 28.9433 24.067 28.9439 24.072 28.9446C24.4523 28.9958 25.0007 29 26 29H27C27.9993 29 28.5477 28.9958 28.928 28.9446C28.933 28.9439 28.9379 28.9433 28.9426 28.9426C28.9433 28.9379 28.9439 28.933 28.9446 28.928C28.9958 28.5477 29 27.9993 29 27V26C29 25.0007 28.9958 24.4523 28.9446 24.072C28.9439 24.067 28.9433 24.0621 28.9426 24.0574C28.9379 24.0567 28.933 24.0561 28.928 24.0554C28.5477 24.0042 27.9993 24 27 24ZM24.0968 29.1381L24.0961 29.1363L24.0968 29.1381ZM23.8619 24.0968L23.8637 24.0961L23.8619 24.0968ZM22.5858 22.5858C22 23.1716 22 24.1144 22 26V27C22 28.8856 22 29.8284 22.5858 30.4142C23.1716 31 24.1144 31 26 31H27C28.8856 31 29.8284 31 30.4142 30.4142C31 29.8284 31 28.8856 31 27V26C31 24.1144 31 23.1716 30.4142 22.5858C29.8284 22 28.8856 22 27 22H26C24.1144 22 23.1716 22 22.5858 22.5858Z" fill="#484848"/>
<path fill-rule="evenodd" clip-rule="evenodd" d="M38 24H37C36.0007 24 35.4523 24.0042 35.072 24.0554C35.067 24.0561 35.0621 24.0567 35.0574 24.0574C35.0567 24.0621 35.0561 24.067 35.0554 24.072C35.0042 24.4523 35 25.0007 35 26V27C35 27.9993 35.0042 28.5477 35.0554 28.928C35.0561 28.933 35.0567 28.9379 35.0574 28.9426C35.0621 28.9433 35.067 28.9439 35.072 28.9446C35.4523 28.9958 36.0007 29 37 29H38C38.9993 29 39.5477 28.9958 39.928 28.9446C39.933 28.9439 39.9379 28.9433 39.9426 28.9426C39.9433 28.9379 39.9439 28.933 39.9446 28.928C39.9958 28.5477 40 27.9993 40 27V26C40 25.0007 39.9958 24.4523 39.9446 24.072C39.9439 24.067 39.9433 24.0621 39.9426 24.0574C39.9379 24.0567 39.933 24.0561 39.928 24.0554C39.5477 24.0042 38.9993 24 38 24ZM35.0968 29.1381L35.0961 29.1363L35.0968 29.1381ZM34.8619 24.0968L34.8637 24.0961L34.8619 24.0968ZM33.5858 22.5858C33 23.1716 33 24.1144 33 26V27C33 28.8856 33 29.8284 33.5858 30.4142C34.1716 31 35.1144 31 37 31H38C39.8856 31 40.8284 31 41.4142 30.4142C42 29.8284 42 28.8856 42 27V26C42 24.1144 42 23.1716 41.4142 22.5858C40.8284 22 39.8856 22 38 22H37C35.1144 22 34.1716 22 33.5858 22.5858Z" fill="#484848"/>
<path fill-rule="evenodd" clip-rule="evenodd" d="M35 37.5C35 38.8807 36.1193 40 37.5 40C38.8807 40 40 38.8807 40 37.5C40 36.1193 38.8807 35 37.5 35C36.1193 35 35 36.1193 35 37.5ZM37.5 33C35.0147 33 33 35.0147 33 37.5C33 39.9853 35.0147 42 37.5 42C39.9853 42 42 39.9853 42 37.5C42 35.0147 39.9853 33 37.5 33Z" fill="#484848"/>
<path fill-rule="evenodd" clip-rule="evenodd" d="M27 35H26C25.0007 35 24.4523 35.0042 24.072 35.0554C24.067 35.0561 24.0621 35.0567 24.0574 35.0574C24.0567 35.0621 24.0561 35.067 24.0554 35.072C24.0042 35.4523 24 36.0007 24 37V38C24 38.9993 24.0042 39.5477 24.0554 39.928C24.0561 39.933 24.0567 39.9379 24.0574 39.9426C24.0621 39.9433 24.067 39.9439 24.072 39.9446C24.4523 39.9958 25.0007 40 26 40H27C27.9993 40 28.5477 39.9958 28.928 39.9446C28.933 39.9439 28.9379 39.9433 28.9426 39.9426C28.9433 39.9379 28.9439 39.933 28.9446 39.928C28.9958 39.5477 29 38.9993 29 38V37C29 36.0007 28.9958 35.4523 28.9446 35.072C28.9439 35.067 28.9433 35.0621 28.9426 35.0574C28.9379 35.0567 28.933 35.0561 28.928 35.0554C28.5477 35.0042 27.9993 35 27 35ZM24.0968 40.1381L24.0961 40.1363L24.0968 40.1381ZM23.8619 35.0968L23.8637 35.0961L23.8619 35.0968ZM22.5858 33.5858C22 34.1716 22 35.1144 22 37V38C22 39.8856 22 40.8284 22.5858 41.4142C23.1716 42 24.1144 42 26 42H27C28.8856 42 29.8284 42 30.4142 41.4142C31 40.8284 31 39.8856 31 38V37C31 35.1144 31 34.1716 30.4142 33.5858C29.8284 33 28.8856 33 27 33H26C24.1144 33 23.1716 33 22.5858 33.5858Z" fill="#484848"/>
<path d="M23 71C23 69.1144 23 68.1716 23.5858 67.5858C24.1716 67 25.1144 67 27 67H27.1C28.9856 67 29.9284 67 30.5142 67.5858C31.1 68.1716 31.1 69.1144 31.1 71V71.1C31.1 72.9856 31.1 73.9284 30.5142 74.5142C29.9284 75.1 28.9856 75.1 27.1 75.1H27C25.1144 75.1 24.1716 75.1 23.5858 74.5142C23 73.9284 23 72.9856 23 71.1V71Z" fill="#484848"/>
<path d="M32.9 71C32.9 69.1144 32.9 68.1716 33.4858 67.5858C34.0716 67 35.0144 67 36.9 67H37C38.8856 67 39.8284 67 40.4142 67.5858C41 68.1716 41 69.1144 41 71V71.1C41 72.9856 41 73.9284 40.4142 74.5142C39.8284 75.1 38.8856 75.1 37 75.1H36.9C35.0144 75.1 34.0716 75.1 33.4858 74.5142C32.9 73.9284 32.9 72.9856 32.9 71.1V71Z" fill="#484848"/>
<path d="M32.9 80.95C32.9 78.7133 34.7133 76.9 36.95 76.9C39.1868 76.9 41 78.7133 41 80.95C41 83.1868 39.1868 85 36.95 85C34.7133 85 32.9 83.1868 32.9 80.95Z" fill="#484848"/>
<path d="M23 80.9C23 79.0144 23 78.0716 23.5858 77.4858C24.1716 76.9 25.1144 76.9 27 76.9H27.1C28.9856 76.9 29.9284 76.9 30.5142 77.4858C31.1 78.0716 31.1 79.0144 31.1 80.9V81C31.1 82.8856 31.1 83.8284 30.5142 84.4142C29.9284 85 28.9856 85 27.1 85H27C25.1144 85 24.1716 85 23.5858 84.4142C23 83.8284 23 82.8856 23 81V80.9Z" fill="#484848"/>
</svg>
