<svg width="64" height="108" viewBox="0 0 64 108" fill="none" xmlns="http://www.w3.org/2000/svg">
<rect x="0.5" y="0.5" width="63" height="107" rx="4.5" stroke="#9747FF" stroke-dasharray="10 5"/>
<path fill-rule="evenodd" clip-rule="evenodd" d="M32 40C36.4183 40 40 36.4183 40 32C40 27.5817 36.4183 24 32 24C27.5817 24 24 27.5817 24 32C24 36.4183 27.5817 40 32 40ZM32 42C37.5228 42 42 37.5228 42 32C42 26.4772 37.5228 22 32 22C26.4772 22 22 26.4772 22 32C22 37.5228 26.4772 42 32 42Z" fill="#484848"/>
<path fill-rule="evenodd" clip-rule="evenodd" d="M35.7071 29.2929C36.0976 29.6834 36.0976 30.3166 35.7071 30.7071L31.7071 34.7071C31.5196 34.8946 31.2652 35 31 35C30.7348 35 30.4804 34.8946 30.2929 34.7071L28.2929 32.7071C27.9024 32.3166 27.9024 31.6834 28.2929 31.2929C28.6834 30.9024 29.3166 30.9024 29.7071 31.2929L31 32.5858L34.2929 29.2929C34.6834 28.9024 35.3166 28.9024 35.7071 29.2929Z" fill="#484848"/>
<path fill-rule="evenodd" clip-rule="evenodd" d="M32 86C37.5228 86 42 81.5228 42 76C42 70.4772 37.5228 66 32 66C26.4772 66 22 70.4772 22 76C22 81.5228 26.4772 86 32 86ZM35.7071 74.7071C36.0976 74.3166 36.0976 73.6834 35.7071 73.2929C35.3166 72.9024 34.6834 72.9024 34.2929 73.2929L31 76.5858L29.7071 75.2929C29.3166 74.9024 28.6834 74.9024 28.2929 75.2929C27.9024 75.6834 27.9024 76.3166 28.2929 76.7071L30.2929 78.7071C30.4804 78.8946 30.7348 79 31 79C31.2652 79 31.5196 78.8946 31.7071 78.7071L35.7071 74.7071Z" fill="#484848"/>
</svg>
