<svg width="64" height="108" viewBox="0 0 64 108" fill="none" xmlns="http://www.w3.org/2000/svg">
<rect x="0.5" y="0.5" width="63" height="107" rx="4.5" stroke="#9747FF" stroke-dasharray="10 5"/>
<path fill-rule="evenodd" clip-rule="evenodd" d="M32 40C36.4183 40 40 36.4183 40 32C40 27.5817 36.4183 24 32 24C27.5817 24 24 27.5817 24 32C24 36.4183 27.5817 40 32 40ZM32 42C37.5228 42 42 37.5228 42 32C42 26.4772 37.5228 22 32 22C26.4772 22 22 26.4772 22 32C22 37.5228 26.4772 42 32 42Z" fill="#484848"/>
<path fill-rule="evenodd" clip-rule="evenodd" d="M28.2929 28.2929C28.6834 27.9024 29.3166 27.9024 29.7071 28.2929L35.7071 34.2929C36.0976 34.6834 36.0976 35.3166 35.7071 35.7071C35.3166 36.0976 34.6834 36.0976 34.2929 35.7071L28.2929 29.7071C27.9024 29.3166 27.9024 28.6834 28.2929 28.2929Z" fill="#484848"/>
<path fill-rule="evenodd" clip-rule="evenodd" d="M35.7071 28.2929C36.0976 28.6834 36.0976 29.3166 35.7071 29.7071L29.7071 35.7071C29.3166 36.0976 28.6834 36.0976 28.2929 35.7071C27.9024 35.3166 27.9024 34.6834 28.2929 34.2929L34.2929 28.2929C34.6834 27.9024 35.3166 27.9024 35.7071 28.2929Z" fill="#484848"/>
<path fill-rule="evenodd" clip-rule="evenodd" d="M42 76C42 81.5228 37.5228 86 32 86C26.4772 86 22 81.5228 22 76C22 70.4772 26.4772 66 32 66C37.5228 66 42 70.4772 42 76ZM28.2929 72.2929C28.6834 71.9024 29.3166 71.9024 29.7071 72.2929L32 74.5858L34.2929 72.2929C34.6834 71.9024 35.3166 71.9024 35.7071 72.2929C36.0976 72.6834 36.0976 73.3166 35.7071 73.7071L33.4142 76L35.7071 78.2929C36.0976 78.6834 36.0976 79.3166 35.7071 79.7071C35.3166 80.0976 34.6834 80.0976 34.2929 79.7071L32 77.4142L29.7071 79.7071C29.3166 80.0976 28.6834 80.0976 28.2929 79.7071C27.9024 79.3166 27.9024 78.6834 28.2929 78.2929L30.5858 76L28.2929 73.7071C27.9024 73.3166 27.9024 72.6834 28.2929 72.2929Z" fill="#484848"/>
</svg>
