<svg width="20" height="20" viewBox="0 0 20 20" fill="none" xmlns="http://www.w3.org/2000/svg">
<path fill-rule="evenodd" clip-rule="evenodd" d="M10 18C14.4183 18 18 14.4183 18 10C18 5.58172 14.4183 2 10 2C5.58172 2 2 5.58172 2 10C2 14.4183 5.58172 18 10 18ZM10 20C15.5228 20 20 15.5228 20 10C20 4.47715 15.5228 0 10 0C4.47715 0 0 4.47715 0 10C0 15.5228 4.47715 20 10 20Z" fill="#484848"/>
<path fill-rule="evenodd" clip-rule="evenodd" d="M6.29289 6.29289C6.68342 5.90237 7.31658 5.90237 7.70711 6.29289L13.7071 12.2929C14.0976 12.6834 14.0976 13.3166 13.7071 13.7071C13.3166 14.0976 12.6834 14.0976 12.2929 13.7071L6.29289 7.70711C5.90237 7.31658 5.90237 6.68342 6.29289 6.29289Z" fill="#484848"/>
<path fill-rule="evenodd" clip-rule="evenodd" d="M13.7071 6.29289C14.0976 6.68342 14.0976 7.31658 13.7071 7.70711L7.70711 13.7071C7.31658 14.0976 6.68342 14.0976 6.29289 13.7071C5.90237 13.3166 5.90237 12.6834 6.29289 12.2929L12.2929 6.29289C12.6834 5.90237 13.3166 5.90237 13.7071 6.29289Z" fill="#484848"/>
</svg>
