<svg width="18" height="20" viewBox="0 0 18 20" fill="none" xmlns="http://www.w3.org/2000/svg">
<path fill-rule="evenodd" clip-rule="evenodd" d="M17 12.0539V7C17 6.44771 16.5523 6 16 6C15.4477 6 15 6.44771 15 7V12C15 13.4253 14.9988 14.419 14.9209 15.1849C14.8446 15.9342 14.7034 16.354 14.4944 16.6667C14.2755 16.9943 13.9943 17.2755 13.6667 17.4944C13.354 17.7034 12.9342 17.8446 12.1849 17.9209C11.419 17.9988 10.4253 18 9 18C7.57472 18 6.58104 17.9988 5.81505 17.9209C5.06578 17.8446 4.64604 17.7034 4.33329 17.4944C4.00572 17.2755 3.72447 16.9943 3.50559 16.6667C3.29662 16.354 3.15535 15.9342 3.07913 15.1849C3.00121 14.419 3 13.4253 3 12L3 7C3 6.44771 2.55228 6 2 6C1.44771 6 1 6.44771 1 7V12.054C0.999984 13.4126 0.99997 14.5083 1.0894 15.3874C1.18171 16.2948 1.3775 17.0817 1.84265 17.7779C2.20744 18.3238 2.6762 18.7926 3.22215 19.1573C3.91829 19.6225 4.70523 19.8183 5.61264 19.9106C6.49174 20 7.58739 20 8.94606 20H9.05394C10.4126 20 11.5083 20 12.3874 19.9106C13.2948 19.8183 14.0817 19.6225 14.7779 19.1573C15.3238 18.7926 15.7926 18.3238 16.1573 17.7779C16.6225 17.0817 16.8183 16.2948 16.9106 15.3874C17 14.5083 17 13.4126 17 12.0539Z" fill="#484848"/>
<path fill-rule="evenodd" clip-rule="evenodd" d="M10 2.38497e-08C11.6569 4.36075e-08 13 1.34315 13 3C13 3.55228 12.5523 4 12 4C11.4477 4 11 3.55228 11 3C11 2.44772 10.5523 2 10 2H8C7.44772 2 7 2.44772 7 3C7 3.55228 6.55228 4 6 4C5.44772 4 5 3.55228 5 3C5 1.34315 6.34315 -1.97578e-08 8 0L10 2.38497e-08Z" fill="#484848"/>
<path fill-rule="evenodd" clip-rule="evenodd" d="M18 4C18 4.55228 17.5523 5 17 5H1C0.447716 5 0 4.55228 0 4C0 3.44772 0.447716 3 1 3H17C17.5523 3 18 3.44772 18 4Z" fill="#484848"/>
<path fill-rule="evenodd" clip-rule="evenodd" d="M7 8C7.55228 8 8 8.44771 8 9V15C8 15.5523 7.55229 16 7 16C6.44772 16 6 15.5523 6 15L6 9C6 8.44771 6.44772 8 7 8Z" fill="#484848"/>
<path fill-rule="evenodd" clip-rule="evenodd" d="M11 8C11.5523 8 12 8.44771 12 9V15C12 15.5523 11.5523 16 11 16C10.4477 16 10 15.5523 10 15V9C10 8.44771 10.4477 8 11 8Z" fill="#484848"/>
</svg>
