<svg width="64" height="108" viewBox="0 0 64 108" fill="none" xmlns="http://www.w3.org/2000/svg">
<rect x="0.5" y="0.5" width="63" height="107" rx="4.5" stroke="#9747FF" stroke-dasharray="10 5"/>
<path fill-rule="evenodd" clip-rule="evenodd" d="M40 34.0539V29C40 28.4477 39.5523 28 39 28C38.4477 28 38 28.4477 38 29V34C38 35.4253 37.9988 36.419 37.9209 37.1849C37.8446 37.9342 37.7034 38.354 37.4944 38.6667C37.2755 38.9943 36.9943 39.2755 36.6667 39.4944C36.354 39.7034 35.9342 39.8446 35.1849 39.9209C34.419 39.9988 33.4253 40 32 40C30.5747 40 29.581 39.9988 28.8151 39.9209C28.0658 39.8446 27.646 39.7034 27.3333 39.4944C27.0057 39.2755 26.7245 38.9943 26.5056 38.6667C26.2966 38.354 26.1554 37.9342 26.0791 37.1849C26.0012 36.419 26 35.4253 26 34L26 29C26 28.4477 25.5523 28 25 28C24.4477 28 24 28.4477 24 29V34.054C24 35.4126 24 36.5083 24.0894 37.3874C24.1817 38.2948 24.3775 39.0817 24.8427 39.7779C25.2074 40.3238 25.6762 40.7926 26.2221 41.1573C26.9183 41.6225 27.7052 41.8183 28.6126 41.9106C29.4917 42 30.5874 42 31.9461 42H32.0539C33.4126 42 34.5083 42 35.3874 41.9106C36.2948 41.8183 37.0817 41.6225 37.7779 41.1573C38.3238 40.7926 38.7926 40.3238 39.1573 39.7779C39.6225 39.0817 39.8183 38.2948 39.9106 37.3874C40 36.5083 40 35.4126 40 34.0539Z" fill="#484848"/>
<path fill-rule="evenodd" clip-rule="evenodd" d="M33 22C34.6569 22 36 23.3431 36 25C36 25.5523 35.5523 26 35 26C34.4477 26 34 25.5523 34 25C34 24.4477 33.5523 24 33 24H31C30.4477 24 30 24.4477 30 25C30 25.5523 29.5523 26 29 26C28.4477 26 28 25.5523 28 25C28 23.3431 29.3431 22 31 22L33 22Z" fill="#484848"/>
<path fill-rule="evenodd" clip-rule="evenodd" d="M41 26C41 26.5523 40.5523 27 40 27H24C23.4477 27 23 26.5523 23 26C23 25.4477 23.4477 25 24 25H40C40.5523 25 41 25.4477 41 26Z" fill="#484848"/>
<path fill-rule="evenodd" clip-rule="evenodd" d="M30 30C30.5523 30 31 30.4477 31 31V37C31 37.5523 30.5523 38 30 38C29.4477 38 29 37.5523 29 37L29 31C29 30.4477 29.4477 30 30 30Z" fill="#484848"/>
<path fill-rule="evenodd" clip-rule="evenodd" d="M34 30C34.5523 30 35 30.4477 35 31V37C35 37.5523 34.5523 38 34 38C33.4477 38 33 37.5523 33 37V31C33 30.4477 33.4477 30 34 30Z" fill="#484848"/>
<path fill-rule="evenodd" clip-rule="evenodd" d="M33 65C34.6569 65 36 66.3431 36 68V69H28V68C28 66.3431 29.3431 65 31 65L33 65Z" fill="#484848"/>
<path fill-rule="evenodd" clip-rule="evenodd" d="M41 69C41 69.5523 40.5523 70 40 70H24C23.4477 70 23 69.5523 23 69C23 68.4477 23.4477 68 24 68H40C40.5523 68 41 68.4477 41 69Z" fill="#484848"/>
<path fill-rule="evenodd" clip-rule="evenodd" d="M40 73C40 72.0572 40 71.5858 39.7071 71.2929C39.4142 71 38.9428 71 38 71H26C25.0572 71 24.5858 71 24.2929 71.2929C24 71.5858 24 72.0572 24 73V77C24 79.8003 24 81.2004 24.545 82.27C25.0243 83.2108 25.7892 83.9757 26.73 84.455C27.7996 85 29.1997 85 32 85C34.8003 85 36.2004 85 37.27 84.455C38.2108 83.9757 38.9757 83.2108 39.455 82.27C40 81.2004 40 79.8003 40 77V73ZM30 74C30.5523 74 31 74.4477 31 75L31 81C31 81.5523 30.5523 82 30 82C29.4477 82 29 81.5523 29 81L29 75C29 74.4477 29.4477 74 30 74ZM35 75C35 74.4477 34.5523 74 34 74C33.4477 74 33 74.4477 33 75V81C33 81.5523 33.4477 82 34 82C34.5523 82 35 81.5523 35 81V75Z" fill="#484848"/>
</svg>
