<svg width="18" height="20" viewBox="0 0 18 20" fill="none" xmlns="http://www.w3.org/2000/svg">
<path fill-rule="evenodd" clip-rule="evenodd" d="M10 2.38497e-08C11.6569 4.36075e-08 13 1.34315 13 3V4H5V3C5 1.34315 6.34315 -1.97578e-08 8 0L10 2.38497e-08Z" fill="#484848"/>
<path fill-rule="evenodd" clip-rule="evenodd" d="M18 4C18 4.55228 17.5523 5 17 5H1C0.447716 5 0 4.55228 0 4C0 3.44772 0.447716 3 1 3H17C17.5523 3 18 3.44772 18 4Z" fill="#484848"/>
<path fill-rule="evenodd" clip-rule="evenodd" d="M17 8C17 7.05719 17 6.58579 16.7071 6.29289C16.4142 6 15.9428 6 15 6H3C2.05719 6 1.58579 6 1.29289 6.29289C1 6.58579 1 7.05719 1 8V12C1 14.8003 1 16.2004 1.54497 17.27C2.02433 18.2108 2.78924 18.9757 3.73005 19.455C4.79961 20 6.19974 20 9 20C11.8003 20 13.2004 20 14.27 19.455C15.2108 18.9757 15.9757 18.2108 16.455 17.27C17 16.2004 17 14.8003 17 12V8ZM7 9C7.55228 9 8 9.44772 8 10L8 16C8 16.5523 7.55229 17 7 17C6.44772 17 6 16.5523 6 16L6 10C6 9.44772 6.44772 9 7 9ZM12 10C12 9.44772 11.5523 9 11 9C10.4477 9 10 9.44772 10 10V16C10 16.5523 10.4477 17 11 17C11.5523 17 12 16.5523 12 16V10Z" fill="#484848"/>
</svg>
