<svg width="16" height="12" viewBox="0 0 16 12" fill="none" xmlns="http://www.w3.org/2000/svg">
<path fill-rule="evenodd" clip-rule="evenodd" d="M16 1C16 1.55229 15.5523 2 15 2L1 2C0.447715 2 -2.55423e-08 1.55228 2.08274e-10 1C2.59588e-08 0.447715 0.447715 -2.57506e-08 1 0L15 6.52757e-07C15.5523 6.78507e-07 16 0.447716 16 1Z" fill="#484848"/>
<path fill-rule="evenodd" clip-rule="evenodd" d="M16 6C16 6.55229 15.5523 7 15 7L1 7C0.447715 7 -2.58654e-08 6.55228 0 6C2.58656e-08 5.44771 0.447715 5 1 5L15 5C15.5523 5 16 5.44772 16 6Z" fill="#484848"/>
<path fill-rule="evenodd" clip-rule="evenodd" d="M16 11C16 11.5523 15.5523 12 15 12L1 12C0.447715 12 -2.55423e-08 11.5523 2.08274e-10 11C2.59588e-08 10.4477 0.447715 10 1 10L15 10C15.5523 10 16 10.4477 16 11Z" fill="#484848"/>
</svg>
