<svg width="64" height="108" viewBox="0 0 64 108" fill="none" xmlns="http://www.w3.org/2000/svg">
<rect x="0.5" y="0.5" width="63" height="107" rx="4.5" stroke="#9747FF" stroke-dasharray="10 5"/>
<path fill-rule="evenodd" clip-rule="evenodd" d="M33.9931 24.8072C32.8564 23.7787 31.1436 23.7787 30.0069 24.8072L25.0069 29.3312C24.3664 29.9107 24 30.7413 24 31.6136V38.9463C24 39.5085 24.4477 39.9642 25 39.9642H27C27.5523 39.9642 28 39.5085 28 38.9463V36.9105C28 35.2239 29.3431 33.8568 31 33.8568H33C34.6569 33.8568 36 35.2239 36 36.9105V38.9463C36 39.5085 36.4477 39.9642 37 39.9642H39C39.5523 39.9642 40 39.5085 40 38.9463V31.6136C40 30.7413 39.6336 29.9107 38.9931 29.3312L33.9931 24.8072ZM28.6782 23.2856C30.5726 21.5715 33.4274 21.5715 35.3218 23.2856L40.3218 27.8096C41.3893 28.7754 42 30.1598 42 31.6136V38.9463C42 40.6328 40.6569 42 39 42H37C35.3431 42 34 40.6328 34 38.9463V36.9105C34 36.3483 33.5523 35.8926 33 35.8926H31C30.4477 35.8926 30 36.3483 30 36.9105V38.9463C30 40.6328 28.6569 42 27 42H25C23.3431 42 22 40.6328 22 38.9463V31.6136C22 30.1598 22.6107 28.7754 23.6782 27.8096L28.6782 23.2856Z" fill="#484848"/>
<path d="M23 75.6136V82.9463C23 84.0706 23.8954 84.9821 25 84.9821H27C28.1046 84.9821 29 84.0706 29 82.9463V80.9105C29 79.7861 29.8954 78.8747 31 78.8747H33C34.1046 78.8747 35 79.7861 35 80.9105V82.9463C35 84.0706 35.8954 84.9821 37 84.9821H39C40.1046 84.9821 41 84.0706 41 82.9463V75.6136C41 74.4505 40.5114 73.343 39.6575 72.5704L34.6575 68.0464C33.1419 66.6751 30.8581 66.6751 29.3425 68.0464L24.3425 72.5704C23.4886 73.343 23 74.4505 23 75.6136Z" fill="#484848"/>
<path fill-rule="evenodd" clip-rule="evenodd" d="M33.9931 68.8072C32.8564 67.7787 31.1436 67.7787 30.0069 68.8072L25.0069 73.3312C24.3664 73.9107 24 74.7413 24 75.6136V82.9463C24 83.5085 24.4477 83.9642 25 83.9642H27C27.5523 83.9642 28 83.5085 28 82.9463V80.9105C28 79.2239 29.3431 77.8568 31 77.8568H33C34.6569 77.8568 36 79.2239 36 80.9105V82.9463C36 83.5085 36.4477 83.9642 37 83.9642H39C39.5523 83.9642 40 83.5085 40 82.9463V75.6136C40 74.7413 39.6336 73.9107 38.9931 73.3312L33.9931 68.8072ZM28.6782 67.2856C30.5726 65.5715 33.4274 65.5715 35.3218 67.2856L40.3218 71.8096C41.3893 72.7754 42 74.1598 42 75.6136V82.9463C42 84.6328 40.6569 86 39 86H37C35.3431 86 34 84.6328 34 82.9463V80.9105C34 80.3483 33.5523 79.8926 33 79.8926H31C30.4477 79.8926 30 80.3483 30 80.9105V82.9463C30 84.6328 28.6569 86 27 86H25C23.3431 86 22 84.6328 22 82.9463V75.6136C22 74.1598 22.6107 72.7754 23.6782 71.8096L28.6782 67.2856Z" fill="#484848"/>
</svg>
