<svg width="20" height="20" viewBox="0 0 20 20" fill="none" xmlns="http://www.w3.org/2000/svg">
<path d="M1 9.61356V16.9463C1 18.0706 1.89543 18.9821 3 18.9821H5C6.10457 18.9821 7 18.0706 7 16.9463V14.9105C7 13.7861 7.89543 12.8747 9 12.8747H11C12.1046 12.8747 13 13.7861 13 14.9105V16.9463C13 18.0706 13.8954 18.9821 15 18.9821H17C18.1046 18.9821 19 18.0706 19 16.9463V9.61356C19 8.45055 18.5114 7.34305 17.6575 6.57039L12.6575 2.04636C11.1419 0.675088 8.85809 0.675088 7.34255 2.04636L2.34254 6.57039C1.48859 7.34305 1 8.45055 1 9.61356Z" fill="#484848"/>
<path fill-rule="evenodd" clip-rule="evenodd" d="M11.9931 2.80715C10.8564 1.7787 9.14357 1.7787 8.00691 2.80715L3.00691 7.33118C2.36644 7.91068 2 8.7413 2 9.61356V16.9463C2 17.5085 2.44772 17.9642 3 17.9642H5C5.55229 17.9642 6 17.5085 6 16.9463V14.9105C6 13.2239 7.34315 11.8568 9 11.8568H11C12.6569 11.8568 14 13.2239 14 14.9105V16.9463C14 17.5085 14.4477 17.9642 15 17.9642H17C17.5523 17.9642 18 17.5085 18 16.9463V9.61356C18 8.7413 17.6336 7.91068 16.9931 7.33118L11.9931 2.80715ZM6.67818 1.28557C8.57261 -0.428523 11.4274 -0.428522 13.3218 1.28557L18.3218 5.80959C19.3893 6.77542 20 8.15979 20 9.61356V16.9463C20 18.6328 18.6569 20 17 20H15C13.3431 20 12 18.6328 12 16.9463V14.9105C12 14.3483 11.5523 13.8926 11 13.8926H9C8.44772 13.8926 8 14.3483 8 14.9105V16.9463C8 18.6328 6.65685 20 5 20H3C1.34315 20 0 18.6328 0 16.9463V9.61356C0 8.15979 0.610739 6.77542 1.67818 5.80959L6.67818 1.28557Z" fill="#484848"/>
</svg>
