<svg width="24" height="24" viewBox="0 0 24 24" fill="none" xmlns="http://www.w3.org/2000/svg">
<path fill-rule="evenodd" clip-rule="evenodd" d="M6 12C6 12.5523 5.55228 13 5 13H3C2.44772 13 2 12.5523 2 12C2 11.4477 2.44772 11 3 11H5C5.55228 11 6 11.4477 6 12Z" fill="#484848"/>
<path fill-rule="evenodd" clip-rule="evenodd" d="M22 12C22 12.5523 21.5523 13 21 13H19C18.4477 13 18 12.5523 18 12C18 11.4477 18.4477 11 19 11H21C21.5523 11 22 11.4477 22 12Z" fill="#484848"/>
<path fill-rule="evenodd" clip-rule="evenodd" d="M12 6C11.4477 6 11 5.55228 11 5V3C11 2.44771 11.4477 2 12 2C12.5523 2 13 2.44772 13 3V5C13 5.55228 12.5523 6 12 6Z" fill="#484848"/>
<path fill-rule="evenodd" clip-rule="evenodd" d="M12 22C11.4477 22 11 21.5523 11 21V19C11 18.4477 11.4477 18 12 18C12.5523 18 13 18.4477 13 19V21C13 21.5523 12.5523 22 12 22Z" fill="#484848"/>
<path fill-rule="evenodd" clip-rule="evenodd" d="M8.12132 16.2929C8.51185 16.6834 8.51185 17.3166 8.12132 17.7071L6.70711 19.1213C6.31658 19.5118 5.68342 19.5118 5.29289 19.1213C4.90237 18.7308 4.90237 18.0976 5.29289 17.7071L6.70711 16.2929C7.09763 15.9024 7.7308 15.9024 8.12132 16.2929Z" fill="#484848"/>
<path fill-rule="evenodd" clip-rule="evenodd" d="M16.2929 7.70711C15.9024 7.31658 15.9024 6.68342 16.2929 6.29289L17.7071 4.87868C18.0976 4.48816 18.7308 4.48816 19.1213 4.87868C19.5118 5.2692 19.5118 5.90237 19.1213 6.29289L17.7071 7.70711C17.3166 8.09763 16.6834 8.09763 16.2929 7.70711Z" fill="#484848"/>
<path fill-rule="evenodd" clip-rule="evenodd" d="M7.70711 7.70711C7.31658 8.09763 6.68342 8.09763 6.29289 7.70711L4.87868 6.29289C4.48816 5.90237 4.48816 5.2692 4.87868 4.87868C5.2692 4.48816 5.90237 4.48816 6.29289 4.87868L7.70711 6.29289C8.09763 6.68342 8.09763 7.31658 7.70711 7.70711Z" fill="#484848"/>
<path fill-rule="evenodd" clip-rule="evenodd" d="M16.2929 16.2929C16.6834 15.9024 17.3166 15.9024 17.7071 16.2929L19.1213 17.7071C19.5118 18.0976 19.5118 18.7308 19.1213 19.1213C18.7308 19.5118 18.0976 19.5118 17.7071 19.1213L16.2929 17.7071C15.9024 17.3166 15.9024 16.6834 16.2929 16.2929Z" fill="#484848"/>
</svg>
