<svg width="20" height="20" viewBox="0 0 20 20" fill="none" xmlns="http://www.w3.org/2000/svg">
<path fill-rule="evenodd" clip-rule="evenodd" d="M4 10C4 10.5523 3.55228 11 3 11H1C0.447715 11 0 10.5523 0 10C0 9.44771 0.447715 9 1 9H3C3.55228 9 4 9.44771 4 10Z" fill="#484848"/>
<path fill-rule="evenodd" clip-rule="evenodd" d="M20 10C20 10.5523 19.5523 11 19 11H17C16.4477 11 16 10.5523 16 10C16 9.44771 16.4477 9 17 9H19C19.5523 9 20 9.44771 20 10Z" fill="#484848"/>
<path fill-rule="evenodd" clip-rule="evenodd" d="M10 4C9.44771 4 9 3.55228 9 3V1C9 0.447715 9.44771 -2.41409e-08 10 0C10.5523 2.41414e-08 11 0.447715 11 1V3C11 3.55228 10.5523 4 10 4Z" fill="#484848"/>
<path fill-rule="evenodd" clip-rule="evenodd" d="M10 20C9.44771 20 9 19.5523 9 19V17C9 16.4477 9.44771 16 10 16C10.5523 16 11 16.4477 11 17V19C11 19.5523 10.5523 20 10 20Z" fill="#484848"/>
<path fill-rule="evenodd" clip-rule="evenodd" d="M6.12132 14.2929C6.51185 14.6834 6.51185 15.3166 6.12132 15.7071L4.70711 17.1213C4.31658 17.5118 3.68342 17.5118 3.29289 17.1213C2.90237 16.7308 2.90237 16.0976 3.29289 15.7071L4.70711 14.2929C5.09763 13.9024 5.7308 13.9024 6.12132 14.2929Z" fill="#484848"/>
<path fill-rule="evenodd" clip-rule="evenodd" d="M14.2929 5.70711C13.9024 5.31658 13.9024 4.68342 14.2929 4.29289L15.7071 2.87868C16.0976 2.48816 16.7308 2.48816 17.1213 2.87868C17.5118 3.2692 17.5118 3.90237 17.1213 4.29289L15.7071 5.70711C15.3166 6.09763 14.6834 6.09763 14.2929 5.70711Z" fill="#484848"/>
<path fill-rule="evenodd" clip-rule="evenodd" d="M5.70711 5.70711C5.31658 6.09763 4.68342 6.09763 4.29289 5.70711L2.87868 4.29289C2.48816 3.90237 2.48816 3.2692 2.87868 2.87868C3.2692 2.48816 3.90237 2.48816 4.29289 2.87868L5.70711 4.29289C6.09763 4.68342 6.09763 5.31658 5.70711 5.70711Z" fill="#484848"/>
<path fill-rule="evenodd" clip-rule="evenodd" d="M14.2929 14.2929C14.6834 13.9024 15.3166 13.9024 15.7071 14.2929L17.1213 15.7071C17.5118 16.0976 17.5118 16.7308 17.1213 17.1213C16.7308 17.5118 16.0976 17.5118 15.7071 17.1213L14.2929 15.7071C13.9024 15.3166 13.9024 14.6834 14.2929 14.2929Z" fill="#484848"/>
</svg>
