<svg width="18" height="18" viewBox="0 0 18 18" fill="none" xmlns="http://www.w3.org/2000/svg">
<path fill-rule="evenodd" clip-rule="evenodd" d="M9 0C9.55229 -2.41411e-08 10 0.447715 10 1L10 17C10 17.5523 9.55229 18 9 18C8.44772 18 8 17.5523 8 17L8 1C8 0.447715 8.44771 2.41411e-08 9 0Z" fill="#484848"/>
<path fill-rule="evenodd" clip-rule="evenodd" d="M18 9C18 9.55229 17.5523 10 17 10L1 10C0.447716 10 -2.41411e-08 9.55228 0 9C2.41412e-08 8.44771 0.447716 8 1 8L17 8C17.5523 8 18 8.44771 18 9Z" fill="#484848"/>
</svg>
