<svg width="64" height="108" viewBox="0 0 64 108" fill="none" xmlns="http://www.w3.org/2000/svg">
<rect x="0.5" y="0.5" width="63" height="107" rx="4.5" stroke="#9747FF" stroke-dasharray="10 5"/>
<path fill-rule="evenodd" clip-rule="evenodd" d="M31.2921 26.0483C32.0279 25.9355 32.782 26.0211 33.4726 26.2972C34.1635 26.5735 34.7664 27.0309 35.2118 27.6228C35.6577 28.2154 35.927 28.9187 35.9872 29.6554C36.0474 30.3926 35.8948 31.13 35.5494 31.7851C35.2041 32.4397 34.6811 32.9844 34.0414 33.363C33.7363 33.5436 33.3915 33.7227 33 33.8448V34C33 34.5523 32.5523 35 32 35C31.4477 35 31 34.5523 31 34V33C31 32.4477 31.4477 32 32 32C32.3024 32 32.5976 31.8936 33.0227 31.6419C33.3501 31.4481 33.6107 31.1737 33.7803 30.852C33.9498 30.5308 34.0228 30.1731 33.9938 29.8181C33.9648 29.4625 33.8347 29.119 33.6137 28.8253C33.3921 28.5309 33.0873 28.2971 32.7301 28.1543C32.3726 28.0114 31.9796 27.9662 31.5951 28.0252C31.2105 28.0841 30.8535 28.2443 30.5636 28.4836C30.2412 28.7496 30.0505 29.0132 29.9479 29.3185C29.772 29.842 29.205 30.1238 28.6815 29.9479C28.158 29.772 27.8762 29.205 28.0521 28.6815C28.2997 27.9447 28.7504 27.3869 29.2904 26.9411C29.8629 26.4686 30.5563 26.161 31.2921 26.0483Z" fill="#484848"/>
<path fill-rule="evenodd" clip-rule="evenodd" d="M32 40C36.4183 40 40 36.4183 40 32C40 27.5817 36.4183 24 32 24C27.5817 24 24 27.5817 24 32C24 36.4183 27.5817 40 32 40ZM32 42C37.5228 42 42 37.5228 42 32C42 26.4772 37.5228 22 32 22C26.4772 22 22 26.4772 22 32C22 37.5228 26.4772 42 32 42Z" fill="#484848"/>
<path d="M33 37C33 37.5523 32.5523 38 32 38C31.4477 38 31 37.5523 31 37C31 36.4477 31.4477 36 32 36C32.5523 36 33 36.4477 33 37Z" fill="#484848"/>
<path fill-rule="evenodd" clip-rule="evenodd" d="M42 76C42 81.5228 37.5228 86 32 86C26.4772 86 22 81.5228 22 76C22 70.4772 26.4772 66 32 66C37.5228 66 42 70.4772 42 76ZM31.2921 70.0483C32.0279 69.9355 32.782 70.0211 33.4726 70.2972C34.1635 70.5735 34.7664 71.0309 35.2118 71.6228C35.6577 72.2154 35.927 72.9187 35.9872 73.6554C36.0474 74.3926 35.8948 75.13 35.5494 75.7851C35.2041 76.4397 34.6811 76.9844 34.0414 77.363C33.7363 77.5436 33.3915 77.7227 33 77.8448V78C33 78.5523 32.5523 79 32 79C31.4477 79 31 78.5523 31 78V77C31 76.4477 31.4477 76 32 76C32.3024 76 32.5976 75.8936 33.0227 75.6419C33.3501 75.4481 33.6107 75.1737 33.7803 74.852C33.9498 74.5308 34.0228 74.1731 33.9938 73.8181C33.9648 73.4625 33.8347 73.119 33.6137 72.8253C33.3921 72.5309 33.0873 72.2971 32.7301 72.1543C32.3726 72.0114 31.9796 71.9662 31.5951 72.0252C31.2105 72.0841 30.8535 72.2443 30.5636 72.4836C30.2412 72.7496 30.0505 73.0132 29.9479 73.3185C29.772 73.842 29.205 74.1238 28.6815 73.9479C28.158 73.772 27.8762 73.205 28.0521 72.6815C28.2997 71.9447 28.7504 71.3869 29.2904 70.9411C29.8629 70.4686 30.5563 70.161 31.2921 70.0483ZM32 82C32.5523 82 33 81.5523 33 81C33 80.4477 32.5523 80 32 80C31.4477 80 31 80.4477 31 81C31 81.5523 31.4477 82 32 82Z" fill="#484848"/>
</svg>
