<svg width="20" height="20" viewBox="0 0 20 20" fill="none" xmlns="http://www.w3.org/2000/svg">
<path fill-rule="evenodd" clip-rule="evenodd" d="M9.29212 4.04825C10.0279 3.9355 10.782 4.02111 11.4726 4.29723C12.1635 4.57348 12.7664 5.03094 13.2118 5.62278C13.6577 6.21541 13.927 6.91871 13.9872 7.65539C14.0474 8.39262 13.8948 9.13005 13.5494 9.78506C13.2041 10.4397 12.6811 10.9844 12.0414 11.363C11.7363 11.5436 11.3915 11.7227 11 11.8448V12C11 12.5523 10.5523 13 10 13C9.44772 13 9 12.5523 9 12V11C9 10.4477 9.44772 10 10 10C10.3024 10 10.5976 9.89358 11.0227 9.64194C11.3501 9.4481 11.6107 9.17369 11.7803 8.85203C11.9498 8.53078 12.0228 8.17312 11.9938 7.81809C11.9648 7.46252 11.8347 7.119 11.6137 6.82535C11.3921 6.53091 11.0873 6.29712 10.7301 6.1543C10.3726 6.01136 9.97962 5.96625 9.59506 6.02517C9.21047 6.08411 8.85348 6.24426 8.56356 6.48356C8.24125 6.74961 8.05051 7.01318 7.94792 7.3185C7.77202 7.84203 7.20502 8.12383 6.6815 7.94792C6.15797 7.77202 5.87617 7.20502 6.05208 6.6815C6.29965 5.94468 6.75036 5.38691 7.2904 4.94114C7.86286 4.46862 8.55634 4.161 9.29212 4.04825Z" fill="#484848"/>
<path fill-rule="evenodd" clip-rule="evenodd" d="M10 18C14.4183 18 18 14.4183 18 10C18 5.58172 14.4183 2 10 2C5.58172 2 2 5.58172 2 10C2 14.4183 5.58172 18 10 18ZM10 20C15.5228 20 20 15.5228 20 10C20 4.47715 15.5228 0 10 0C4.47715 0 0 4.47715 0 10C0 15.5228 4.47715 20 10 20Z" fill="#484848"/>
<path d="M11 15C11 15.5523 10.5523 16 10 16C9.44772 16 9 15.5523 9 15C9 14.4477 9.44772 14 10 14C10.5523 14 11 14.4477 11 15Z" fill="#484848"/>
</svg>
