<svg width="64" height="108" viewBox="0 0 64 108" fill="none" xmlns="http://www.w3.org/2000/svg">
<rect x="0.5" y="0.5" width="63" height="107" rx="4.5" stroke="#9747FF" stroke-dasharray="10 5"/>
<path fill-rule="evenodd" clip-rule="evenodd" d="M32.4166 25.0877C32.1516 24.9708 31.8481 24.9708 31.5831 25.0877C31.535 25.109 31.3997 25.1909 31.1262 25.5749C30.8552 25.9551 30.5382 26.4976 30.07 27.3016L25.178 35.7031C24.7095 36.5077 24.394 37.0516 24.1974 37.4745C23.9984 37.9024 23.9962 38.0569 24.0011 38.1038C24.0307 38.3826 24.1786 38.6388 24.4118 38.8068C24.4545 38.8376 24.5952 38.9133 25.0692 38.9564C25.5377 38.9991 26.171 39.0001 27.1071 39.0001H36.8929C37.829 39.0001 38.4623 38.9991 38.9308 38.9564C39.4047 38.9133 39.5453 38.8376 39.588 38.8068C39.8214 38.6387 39.9693 38.3825 39.9989 38.1038C40.0039 38.0569 40.0016 37.9023 39.8026 37.4744C39.6061 37.0516 39.2906 36.5077 38.8221 35.7031L33.931 27.3031C33.4625 26.4984 33.1451 25.9556 32.874 25.5752C32.6003 25.1912 32.4649 25.1091 32.4166 25.0877ZM30.7754 23.2581C31.5549 22.914 32.4448 22.914 33.2243 23.2581C33.7747 23.5011 34.168 23.9449 34.5027 24.4144C34.8342 24.8795 35.1979 25.5041 35.6362 26.2569L40.5729 34.7352C41.0116 35.4885 41.3756 36.1137 41.6162 36.6313C41.8586 37.1528 42.0513 37.7153 41.9877 38.3146C41.8978 39.1634 41.4486 39.9314 40.7571 40.4296C40.2697 40.7807 39.6871 40.8959 39.112 40.9482C38.5419 41.0001 37.8167 41.0001 36.9414 41.0001H27.0586C26.1833 41.0001 25.4581 41.0001 24.8879 40.9482C24.3129 40.8959 23.7302 40.7807 23.2428 40.4296C22.5511 39.9313 22.1022 39.1632 22.0123 38.3146C21.9487 37.7152 22.1414 37.1527 22.3839 36.6313C22.6244 36.1139 22.9882 35.4891 23.4265 34.7364L28.3662 26.253C28.8035 25.502 29.1665 24.8786 29.4974 24.4142C29.8318 23.9449 30.225 23.5011 30.7754 23.2581Z" fill="#484848"/>
<path fill-rule="evenodd" clip-rule="evenodd" d="M32 28C32.5523 28 33 28.4477 33 29V33C33 33.5523 32.5523 34 32 34C31.4477 34 31 33.5523 31 33V29C31 28.4477 31.4477 28 32 28Z" fill="#484848"/>
<path d="M33 36C33 36.5523 32.5523 37 32 37C31.4477 37 31 36.5523 31 36C31 35.4477 31.4477 35 32 35C32.5523 35 33 35.4477 33 36Z" fill="#484848"/>
<path fill-rule="evenodd" clip-rule="evenodd" d="M29.402 68.5C30.5567 66.5 33.4434 66.5 34.5981 68.5L41.5263 80.5C42.681 82.5 41.2377 85 38.9283 85H25.0719C22.7625 85 21.3191 82.5 22.4738 80.5L29.402 68.5ZM32.0001 72C32.5523 72 33.0001 72.4477 33.0001 73V77C33.0001 77.5523 32.5523 78 32.0001 78C31.4478 78 31.0001 77.5523 31.0001 77V73C31.0001 72.4477 31.4478 72 32.0001 72ZM32.0001 81C32.5524 81 33.0001 80.5523 33.0001 80C33.0001 79.4477 32.5524 79 32.0001 79C31.4478 79 31.0001 79.4477 31.0001 80C31.0001 80.5523 31.4478 81 32.0001 81Z" fill="#484848"/>
</svg>
