<svg width="20" height="20" viewBox="0 0 20 20" fill="none" xmlns="http://www.w3.org/2000/svg">
<path fill-rule="evenodd" clip-rule="evenodd" d="M10 20C15.5228 20 20 15.5228 20 10C20 4.47715 15.5228 0 10 0C4.47715 0 0 4.47715 0 10C0 15.5228 4.47715 20 10 20ZM11 6C11 5.44772 10.5523 5 10 5C9.44771 5 9 5.44772 9 6V10C9 10.5523 9.44772 11 10 11C10.5523 11 11 10.5523 11 10V6ZM10 14C10.5523 14 11 13.5523 11 13C11 12.4477 10.5523 12 10 12C9.44771 12 9 12.4477 9 13C9 13.5523 9.44771 14 10 14Z" fill="#484848"/>
<path fill-rule="evenodd" clip-rule="evenodd" d="M10 18C14.4183 18 18 14.4183 18 10C18 5.58172 14.4183 2 10 2C5.58172 2 2 5.58172 2 10C2 14.4183 5.58172 18 10 18ZM10 3C11.6569 3 13 4.34315 13 6V10C13 10.5464 12.8539 11.0587 12.5987 11.5C12.8539 11.9413 13 12.4536 13 13C13 14.6569 11.6569 16 10 16C8.34315 16 7 14.6569 7 13C7 12.4536 7.14609 11.9413 7.40135 11.5C7.14609 11.0587 7 10.5464 7 10V6C7 4.34315 8.34314 3 10 3ZM9.0137 10.1659C9.09273 10.6392 9.50424 11 10 11C10.4958 11 10.9073 10.6392 10.9863 10.1659C10.9953 10.1119 11 10.0565 11 10V6C11 5.44772 10.5523 5 10 5C9.44771 5 9 5.44772 9 6V10C9 10.0565 9.00469 10.1119 9.0137 10.1659ZM9.0137 12.8341C9.00469 12.8881 9 12.9435 9 13C9 13.5523 9.44771 14 10 14C10.5523 14 11 13.5523 11 13C11 12.9435 10.9953 12.8881 10.9863 12.8341C10.9073 12.3608 10.4958 12 10 12C9.50424 12 9.09273 12.3608 9.0137 12.8341ZM20 10C20 15.5228 15.5228 20 10 20C4.47715 20 0 15.5228 0 10C0 4.47715 4.47715 0 10 0C15.5228 0 20 4.47715 20 10Z" fill="#484848"/>
</svg>
