<svg width="64" height="108" viewBox="0 0 64 108" fill="none" xmlns="http://www.w3.org/2000/svg">
<rect x="0.5" y="0.5" width="63" height="107" rx="4.5" stroke="#9747FF" stroke-dasharray="10 5"/>
<path fill-rule="evenodd" clip-rule="evenodd" d="M32 40C36.4183 40 40 36.4183 40 32C40 27.5817 36.4183 24 32 24C27.5817 24 24 27.5817 24 32C24 36.4183 27.5817 40 32 40ZM32 42C37.5228 42 42 37.5228 42 32C42 26.4772 37.5228 22 32 22C26.4772 22 22 26.4772 22 32C22 37.5228 26.4772 42 32 42Z" fill="#484848"/>
<path fill-rule="evenodd" clip-rule="evenodd" d="M32 27C32.5523 27 33 27.4477 33 28V32C33 32.5523 32.5523 33 32 33C31.4477 33 31 32.5523 31 32V28C31 27.4477 31.4477 27 32 27Z" fill="#484848"/>
<path d="M33 35C33 35.5523 32.5523 36 32 36C31.4477 36 31 35.5523 31 35C31 34.4477 31.4477 34 32 34C32.5523 34 33 34.4477 33 35Z" fill="#484848"/>
<path fill-rule="evenodd" clip-rule="evenodd" d="M32 86C37.5228 86 42 81.5228 42 76C42 70.4772 37.5228 66 32 66C26.4772 66 22 70.4772 22 76C22 81.5228 26.4772 86 32 86ZM33 72C33 71.4477 32.5523 71 32 71C31.4477 71 31 71.4477 31 72V76C31 76.5523 31.4477 77 32 77C32.5523 77 33 76.5523 33 76V72ZM32 80C32.5523 80 33 79.5523 33 79C33 78.4477 32.5523 78 32 78C31.4477 78 31 78.4477 31 79C31 79.5523 31.4477 80 32 80Z" fill="#484848"/>
<path fill-rule="evenodd" clip-rule="evenodd" d="M32 84C36.4183 84 40 80.4183 40 76C40 71.5817 36.4183 68 32 68C27.5817 68 24 71.5817 24 76C24 80.4183 27.5817 84 32 84ZM32 69C33.6569 69 35 70.3431 35 72V76C35 76.5464 34.8539 77.0587 34.5987 77.5C34.8539 77.9413 35 78.4536 35 79C35 80.6569 33.6569 82 32 82C30.3431 82 29 80.6569 29 79C29 78.4536 29.1461 77.9413 29.4013 77.5C29.1461 77.0587 29 76.5464 29 76V72C29 70.3431 30.3431 69 32 69ZM31.0137 76.1659C31.0927 76.6392 31.5042 77 32 77C32.4958 77 32.9073 76.6392 32.9863 76.1659C32.9953 76.1119 33 76.0565 33 76V72C33 71.4477 32.5523 71 32 71C31.4477 71 31 71.4477 31 72V76C31 76.0565 31.0047 76.1119 31.0137 76.1659ZM31.0137 78.8341C31.0047 78.8881 31 78.9435 31 79C31 79.5523 31.4477 80 32 80C32.5523 80 33 79.5523 33 79C33 78.9435 32.9953 78.8881 32.9863 78.8341C32.9073 78.3608 32.4958 78 32 78C31.5042 78 31.0927 78.3608 31.0137 78.8341ZM42 76C42 81.5228 37.5228 86 32 86C26.4772 86 22 81.5228 22 76C22 70.4772 26.4772 66 32 66C37.5228 66 42 70.4772 42 76Z" fill="#484848"/>
</svg>
