<svg width="20" height="18" viewBox="0 0 20 18" fill="none" xmlns="http://www.w3.org/2000/svg">
<path fill-rule="evenodd" clip-rule="evenodd" d="M7.40199 1.5C8.55669 -0.5 11.4434 -0.5 12.5981 1.5L19.5263 13.5C20.681 15.5 19.2377 18 16.9283 18H3.07186C0.762455 18 -0.680918 15.5 0.473783 13.5L7.40199 1.5ZM10.0001 5C10.5523 5 11.0001 5.44772 11.0001 6V10C11.0001 10.5523 10.5523 11 10.0001 11C9.44778 11 9.00006 10.5523 9.00006 10V6C9.00006 5.44772 9.44778 5 10.0001 5ZM10.0001 14C10.5524 14 11.0001 13.5523 11.0001 13C11.0001 12.4477 10.5524 12 10.0001 12C9.44784 12 9.00012 12.4477 9.00012 13C9.00012 13.5523 9.44784 14 10.0001 14Z" fill="#484848"/>
</svg>
