<svg width="20" height="18" viewBox="0 0 20 18" fill="none" xmlns="http://www.w3.org/2000/svg">
<path fill-rule="evenodd" clip-rule="evenodd" d="M10.4165 2.08773C10.1516 1.97076 9.84805 1.97076 9.58308 2.08773C9.53498 2.10897 9.39972 2.19091 9.12614 2.57486C8.8552 2.95509 8.53812 3.49763 8.06996 4.30164L3.178 12.7031C2.70947 13.5077 2.39401 14.0516 2.19738 14.4745C1.99842 14.9024 1.99613 15.0569 2.0011 15.1038C2.03065 15.3826 2.17854 15.6388 2.4118 15.8068C2.45448 15.8376 2.59512 15.9133 3.06914 15.9564C3.53762 15.9991 4.17097 16.0001 5.1071 16.0001H14.8928C15.829 16.0001 16.4623 15.9991 16.9307 15.9564C17.4047 15.9133 17.5453 15.8376 17.588 15.8068C17.8214 15.6387 17.9693 15.3825 17.9988 15.1038C18.0038 15.0569 18.0015 14.9023 17.8026 14.4744C17.606 14.0516 17.2906 13.5077 16.8221 12.7031L11.9309 4.30305C11.4624 3.49844 11.1451 2.95557 10.874 2.5752C10.6003 2.19115 10.4649 2.10907 10.4165 2.08773ZM8.77536 0.258087C9.55486 -0.086029 10.4448 -0.0860291 11.2243 0.258087C11.7746 0.501065 12.168 0.944864 12.5027 1.41442C12.8341 1.87949 13.1978 2.50412 13.6361 3.25691L18.5729 11.7352C19.0115 12.4885 19.3755 13.1137 19.6162 13.6313C19.8586 14.1528 20.0512 14.7153 19.9877 15.3146C19.8977 16.1634 19.4486 16.9314 18.757 17.4296C18.2697 17.7807 17.687 17.8959 17.112 17.9482C16.5419 18.0001 15.8166 18.0001 14.9414 18.0001H5.05858C4.18331 18.0001 3.45804 18.0001 2.88791 17.9482C2.31282 17.8959 1.73013 17.7807 1.24277 17.4296C0.551072 16.9313 0.102197 16.1632 0.0122425 15.3146C-0.0512936 14.7152 0.141398 14.1527 0.383841 13.6313C0.6244 13.1139 0.988192 12.4891 1.42652 11.7364L6.36621 3.25301C6.80347 2.50203 7.16647 1.87859 7.49734 1.41425C7.83174 0.944943 8.22499 0.501056 8.77536 0.258087Z" fill="#484848"/>
<path fill-rule="evenodd" clip-rule="evenodd" d="M9.99997 5C10.5523 5 11 5.44772 11 6V10C11 10.5523 10.5523 11 9.99997 11C9.44769 11 8.99997 10.5523 8.99997 10V6C8.99997 5.44772 9.44769 5 9.99997 5Z" fill="#484848"/>
<path d="M11 13C11 13.5523 10.5523 14 9.99997 14C9.44769 14 8.99997 13.5523 8.99997 13C8.99997 12.4477 9.44769 12 9.99997 12C10.5523 12 11 12.4477 11 13Z" fill="#484848"/>
</svg>
