<svg width="19" height="20" viewBox="0 0 19 20" fill="none" xmlns="http://www.w3.org/2000/svg">
<path fill-rule="evenodd" clip-rule="evenodd" d="M8 1C8 0.447718 8.44771 2.60671e-06 9 2.60671e-06H11C11.5523 2.60671e-06 12 0.447718 12 1C12 1.55229 11.5523 2 11 2H9C8.44771 2 8 1.55229 8 1Z" fill="#484848"/>
<path fill-rule="evenodd" clip-rule="evenodd" d="M10 0C10.5523 2.41411e-08 11 0.447715 11 1V3C11 3.55228 10.5523 4 10 4C9.44772 4 9 3.55228 9 3V1C9 0.447715 9.44772 -2.41411e-08 10 0Z" fill="#484848"/>
<path fill-rule="evenodd" clip-rule="evenodd" d="M15.2929 1.2929C14.9024 1.68342 14.9024 2.31659 15.2929 2.70711L17.2929 4.70711C17.6834 5.09763 18.3166 5.09763 18.7071 4.70711C19.0976 4.31659 19.0976 3.68342 18.7071 3.2929L16.7071 1.2929C16.3166 0.902372 15.6834 0.902372 15.2929 1.2929Z" fill="#484848"/>
<path fill-rule="evenodd" clip-rule="evenodd" d="M5.70711 17.7071L3.70711 19.7071C3.31658 20.0976 2.68342 20.0976 2.29289 19.7071C1.90237 19.3166 1.90237 18.6834 2.29289 18.2929L4.29289 16.2929L5.70711 17.7071Z" fill="#484848"/>
<path fill-rule="evenodd" clip-rule="evenodd" d="M14.2929 17.7071L16.2929 19.7071C16.6834 20.0976 17.3166 20.0976 17.7071 19.7071C18.0976 19.3166 18.0976 18.6834 17.7071 18.2929L15.7071 16.2929L14.2929 17.7071Z" fill="#484848"/>
<path fill-rule="evenodd" clip-rule="evenodd" d="M3.70711 1.2929C4.09763 1.68342 4.09763 2.31659 3.70711 2.70711L1.70711 4.70711C1.31658 5.09763 0.683417 5.09763 0.292893 4.70711C-0.0976311 4.31659 -0.0976311 3.68342 0.292893 3.2929L2.29289 1.2929C2.68342 0.902372 3.31658 0.902372 3.70711 1.2929Z" fill="#484848"/>
<path fill-rule="evenodd" clip-rule="evenodd" d="M10 18C13.866 18 17 14.866 17 11C17 7.13401 13.866 4 10 4C6.13401 4 3 7.13401 3 11C3 14.866 6.13401 18 10 18ZM10 20C14.9706 20 19 15.9706 19 11C19 6.02944 14.9706 2 10 2C5.02944 2 1 6.02944 1 11C1 15.9706 5.02944 20 10 20Z" fill="#484848"/>
<path fill-rule="evenodd" clip-rule="evenodd" d="M10 7C10.5523 7 11 7.44772 11 8.00001L11 10.6126L12.6838 10.0513C13.2077 9.87667 13.774 10.1598 13.9487 10.6838C14.1233 11.2077 13.8402 11.774 13.3162 11.9487L10.3162 12.9487C10.0113 13.0503 9.67606 12.9992 9.41529 12.8112C9.15452 12.6233 9 12.3214 9 12L9.00001 8C9.00002 7.44771 9.44773 7 10 7Z" fill="#484848"/>
</svg>
