<svg width="24" height="24" viewBox="0 0 24 24" fill="none" xmlns="http://www.w3.org/2000/svg">
<path fill-rule="evenodd" clip-rule="evenodd" d="M10 3C10 2.44772 10.4477 2 11 2H13C13.5523 2 14 2.44772 14 3C14 3.55229 13.5523 4 13 4H11C10.4477 4 10 3.55229 10 3Z" fill="#484848"/>
<path fill-rule="evenodd" clip-rule="evenodd" d="M12 2C12.5523 2 13 2.44772 13 3V5C13 5.55228 12.5523 6 12 6C11.4477 6 11 5.55228 11 5V3C11 2.44772 11.4477 2 12 2Z" fill="#484848"/>
<path fill-rule="evenodd" clip-rule="evenodd" d="M17.2929 3.2929C16.9024 3.68342 16.9024 4.31659 17.2929 4.70711L19.2929 6.70711C19.6834 7.09763 20.3166 7.09763 20.7071 6.70711C21.0976 6.31659 21.0976 5.68342 20.7071 5.2929L18.7071 3.2929C18.3166 2.90237 17.6834 2.90237 17.2929 3.2929Z" fill="#484848"/>
<path fill-rule="evenodd" clip-rule="evenodd" d="M7.70711 19.7071L5.70711 21.7071C5.31658 22.0976 4.68342 22.0976 4.29289 21.7071C3.90237 21.3166 3.90237 20.6834 4.29289 20.2929L6.29289 18.2929L7.70711 19.7071Z" fill="#484848"/>
<path fill-rule="evenodd" clip-rule="evenodd" d="M16.2929 19.7071L18.2929 21.7071C18.6834 22.0976 19.3166 22.0976 19.7071 21.7071C20.0976 21.3166 20.0976 20.6834 19.7071 20.2929L17.7071 18.2929L16.2929 19.7071Z" fill="#484848"/>
<path fill-rule="evenodd" clip-rule="evenodd" d="M5.70711 3.2929C6.09763 3.68342 6.09763 4.31659 5.70711 4.70711L3.70711 6.70711C3.31658 7.09763 2.68342 7.09763 2.29289 6.70711C1.90237 6.31659 1.90237 5.68342 2.29289 5.2929L4.29289 3.2929C4.68342 2.90237 5.31658 2.90237 5.70711 3.2929Z" fill="#484848"/>
<path fill-rule="evenodd" clip-rule="evenodd" d="M12 20C15.866 20 19 16.866 19 13C19 9.13401 15.866 6 12 6C8.13401 6 5 9.13401 5 13C5 16.866 8.13401 20 12 20ZM12 22C16.9706 22 21 17.9706 21 13C21 8.02944 16.9706 4 12 4C7.02944 4 3 8.02944 3 13C3 17.9706 7.02944 22 12 22Z" fill="#484848"/>
<path fill-rule="evenodd" clip-rule="evenodd" d="M12 9C12.5523 9 13 9.44772 13 10L13 12.6126L14.6838 12.0513C15.2077 11.8767 15.774 12.1598 15.9487 12.6838C16.1233 13.2077 15.8402 13.774 15.3162 13.9487L12.3162 14.9487C12.0113 15.0503 11.6761 14.9992 11.4153 14.8112C11.1545 14.6233 11 14.3214 11 14L11 10C11 9.44771 11.4477 9 12 9Z" fill="#484848"/>
</svg>
