<svg width="24" height="24" viewBox="0 0 24 24" fill="none" xmlns="http://www.w3.org/2000/svg">
<path fill-rule="evenodd" clip-rule="evenodd" d="M9.66555 2.27631C11.9808 1.72047 14.4184 2.00898 16.5399 3.08995C18.6614 4.17091 20.3276 5.97339 21.2388 8.17317C22.15 10.373 22.2463 12.8257 21.5106 15.0902C20.7748 17.3547 19.2551 19.2823 17.225 20.5264C15.1948 21.7705 12.7874 22.2493 10.4357 21.8769C8.08394 21.5044 5.9423 20.305 4.39594 18.4945C2.84958 16.6839 2 14.381 2 12C2 11.4477 2.44772 11 3 11C3.55228 11 4 11.4477 4 12C4 13.9048 4.67967 15.7471 5.91675 17.1956C7.15384 18.644 8.86715 19.6035 10.7485 19.9015C12.6299 20.1995 14.5559 19.8164 16.18 18.8211C17.8041 17.8258 19.0198 16.2837 19.6085 14.4721C20.1971 12.6605 20.12 10.6984 19.391 8.93854C18.6621 7.17871 17.3291 5.73673 15.6319 4.87196C13.9347 4.00719 11.9846 3.77638 10.1324 4.22105C8.28024 4.66572 6.64749 5.75669 5.52786 7.29772L3.90983 6.12215C5.30937 4.19586 7.3503 2.83215 9.66555 2.27631Z" fill="#484848"/>
<path fill-rule="evenodd" clip-rule="evenodd" d="M4.00002 2C4.5523 2 5.00002 2.44772 5.00001 3L5 5.99997L7.99998 5.99992C8.55227 5.99991 8.99999 6.44762 9 6.9999C9.00001 7.55218 8.5523 7.99991 8.00002 7.99992L4.00002 7.99999C3.7348 8 3.48044 7.89464 3.2929 7.70711C3.10536 7.51957 3 7.26521 3 6.99999L3.00001 3C3.00002 2.44771 3.44773 2 4.00002 2Z" fill="#484848"/>
<path fill-rule="evenodd" clip-rule="evenodd" d="M12 8C12.5523 8 13 8.44772 13 9L13 11L15 10.9999C15.5523 10.9999 16 11.4476 16 11.9999C16 12.5522 15.5523 12.9999 15 12.9999L12 13C11.7348 13 11.4804 12.8947 11.2929 12.7071C11.1054 12.5196 11 12.2652 11 12L11 9C11 8.44771 11.4477 8 12 8Z" fill="#484848"/>
</svg>
