<svg width="24" height="24" viewBox="0 0 24 24" fill="none" xmlns="http://www.w3.org/2000/svg">
<path fill-rule="evenodd" clip-rule="evenodd" d="M16.2929 16.2929C16.6834 15.9024 17.3166 15.9024 17.7071 16.2929L21.7071 20.2929C22.0976 20.6834 22.0976 21.3166 21.7071 21.7071C21.3166 22.0976 20.6834 22.0976 20.2929 21.7071L16.2929 17.7071C15.9024 17.3166 15.9024 16.6834 16.2929 16.2929Z" fill="#484848"/>
<path fill-rule="evenodd" clip-rule="evenodd" d="M21.7071 16.2929C22.0976 16.6834 22.0976 17.3166 21.7071 17.7071L17.7071 21.7071C17.3166 22.0976 16.6834 22.0976 16.2929 21.7071C15.9024 21.3166 15.9024 20.6834 16.2929 20.2929L20.2929 16.2929C20.6834 15.9024 21.3166 15.9024 21.7071 16.2929Z" fill="#484848"/>
<path fill-rule="evenodd" clip-rule="evenodd" d="M9 3C9 2.44772 8.55228 2 8 2C7.44772 2 7 2.44772 7 3V4H6C3.79086 4 2 5.79086 2 8V18C2 20.2091 3.79086 22 6 22H13C13.5523 22 14 21.5523 14 21C14 20.4477 13.5523 20 13 20H6C4.89543 20 4 19.1046 4 18V8C4 6.89543 4.89543 6 6 6H7V7C7 7.55228 7.44772 8 8 8C8.55228 8 9 7.55228 9 7V6H15V7C15 7.55228 15.4477 8 16 8C16.5523 8 17 7.55228 17 7V6H18C19.1046 6 20 6.89543 20 8V13C20 13.5523 20.4477 14 21 14C21.5523 14 22 13.5523 22 13V8C22 5.79086 20.2091 4 18 4H17V3C17 2.44772 16.5523 2 16 2C15.4477 2 15 2.44772 15 3V4H9V3ZM12 12C12.5523 12 13 11.5523 13 11C13 10.4477 12.5523 10 12 10C11.4477 10 11 10.4477 11 11C11 11.5523 11.4477 12 12 12ZM13 15C13 15.5523 12.5523 16 12 16C11.4477 16 11 15.5523 11 15C11 14.4477 11.4477 14 12 14C12.5523 14 13 14.4477 13 15ZM8 12C8.55228 12 9 11.5523 9 11C9 10.4477 8.55228 10 8 10C7.44772 10 7 10.4477 7 11C7 11.5523 7.44772 12 8 12ZM9 15C9 15.5523 8.55228 16 8 16C7.44772 16 7 15.5523 7 15C7 14.4477 7.44772 14 8 14C8.55228 14 9 14.4477 9 15ZM16 12C16.5523 12 17 11.5523 17 11C17 10.4477 16.5523 10 16 10C15.4477 10 15 10.4477 15 11C15 11.5523 15.4477 12 16 12Z" fill="#484848"/>
</svg>
