<svg width="20" height="20" viewBox="0 0 20 20" fill="none" xmlns="http://www.w3.org/2000/svg">
<path fill-rule="evenodd" clip-rule="evenodd" d="M7 1C7 0.447715 6.55228 0 6 0C5.44772 0 5 0.447715 5 1V2H4C1.79086 2 0 3.79086 0 6V16C0 18.2091 1.79086 20 4 20H10C10.5523 20 11 19.5523 11 19C11 18.4477 10.5523 18 10 18H4C2.89543 18 2 17.1046 2 16V6C2 4.89543 2.89543 4 4 4H5V5C5 5.55228 5.44772 6 6 6C6.55228 6 7 5.55228 7 5V4H13V5C13 5.55228 13.4477 6 14 6C14.5523 6 15 5.55228 15 5V4H16C17.1046 4 18 4.89543 18 6V11C18 11.5523 18.4477 12 19 12C19.5523 12 20 11.5523 20 11V6C20 3.79086 18.2091 2 16 2H15V1C15 0.447715 14.5523 0 14 0C13.4477 0 13 0.447715 13 1V2H7V1ZM10 10C10.5523 10 11 9.55229 11 9C11 8.44771 10.5523 8 10 8C9.44771 8 9 8.44771 9 9C9 9.55229 9.44771 10 10 10ZM11 13C11 13.5523 10.5523 14 10 14C9.44771 14 9 13.5523 9 13C9 12.4477 9.44771 12 10 12C10.5523 12 11 12.4477 11 13ZM6 10C6.55228 10 7 9.55229 7 9C7 8.44771 6.55228 8 6 8C5.44772 8 5 8.44771 5 9C5 9.55229 5.44772 10 6 10ZM7 13C7 13.5523 6.55228 14 6 14C5.44772 14 5 13.5523 5 13C5 12.4477 5.44772 12 6 12C6.55228 12 7 12.4477 7 13ZM14 10C14.5523 10 15 9.55229 15 9C15 8.44771 14.5523 8 14 8C13.4477 8 13 8.44771 13 9C13 9.55229 13.4477 10 14 10Z" fill="#484848"/>
<path fill-rule="evenodd" clip-rule="evenodd" d="M18.6644 14.2526C19.0771 14.6195 19.1143 15.2516 18.7474 15.6644L16.0807 18.6644C15.891 18.8779 15.619 19 15.3333 19C15.0477 19 14.7757 18.8779 14.5859 18.6644L13.2526 17.1644C12.8857 16.7516 12.9229 16.1195 13.3356 15.7526C13.7484 15.3857 14.3805 15.4229 14.7474 15.8356L15.3333 16.4948L17.2526 14.3356C17.6195 13.9229 18.2516 13.8857 18.6644 14.2526Z" fill="#484848"/>
</svg>
