<svg width="24" height="24" viewBox="0 0 24 24" fill="none" xmlns="http://www.w3.org/2000/svg">
<path fill-rule="evenodd" clip-rule="evenodd" d="M14 6H10C8.05784 6 6.80242 6.00425 5.87741 6.12861C5.00993 6.24524 4.73803 6.43354 4.58579 6.58579C4.43354 6.73803 4.24524 7.00993 4.12861 7.87741C4.00425 8.80242 4 10.0578 4 12V14C4 15.9422 4.00425 17.1976 4.12861 18.1226C4.24524 18.9901 4.43354 19.262 4.58579 19.4142C4.73803 19.5665 5.00993 19.7548 5.87741 19.8714C6.80242 19.9958 8.05784 20 10 20H14C15.9422 20 17.1976 19.9958 18.1226 19.8714C18.9901 19.7548 19.262 19.5665 19.4142 19.4142C19.5665 19.262 19.7548 18.9901 19.8714 18.1226C19.9958 17.1976 20 15.9422 20 14V12C20 10.0578 19.9958 8.80242 19.8714 7.87741C19.7548 7.00993 19.5665 6.73803 19.4142 6.58579C19.262 6.43354 18.9901 6.24524 18.1226 6.12861C17.1976 6.00425 15.9422 6 14 6ZM3.17157 5.17157C2 6.34315 2 8.22876 2 12V14C2 17.7712 2 19.6569 3.17157 20.8284C4.34315 22 6.22876 22 10 22H14C17.7712 22 19.6569 22 20.8284 20.8284C22 19.6569 22 17.7712 22 14V12C22 8.22876 22 6.34315 20.8284 5.17157C19.6569 4 17.7712 4 14 4H10C6.22876 4 4.34315 4 3.17157 5.17157Z" fill="#484848"/>
<path fill-rule="evenodd" clip-rule="evenodd" d="M8 2C8.55228 2 9 2.44772 9 3V7C9 7.55228 8.55228 8 8 8C7.44772 8 7 7.55228 7 7V3C7 2.44772 7.44772 2 8 2Z" fill="#484848"/>
<path fill-rule="evenodd" clip-rule="evenodd" d="M16 2C16.5523 2 17 2.44772 17 3V7C17 7.55228 16.5523 8 16 8C15.4477 8 15 7.55228 15 7V3C15 2.44772 15.4477 2 16 2Z" fill="#484848"/>
<path d="M13 11C13 11.5523 12.5523 12 12 12C11.4477 12 11 11.5523 11 11C11 10.4477 11.4477 10 12 10C12.5523 10 13 10.4477 13 11Z" fill="#484848"/>
<path d="M13 15C13 15.5523 12.5523 16 12 16C11.4477 16 11 15.5523 11 15C11 14.4477 11.4477 14 12 14C12.5523 14 13 14.4477 13 15Z" fill="#484848"/>
<path d="M9 11C9 11.5523 8.55228 12 8 12C7.44772 12 7 11.5523 7 11C7 10.4477 7.44772 10 8 10C8.55228 10 9 10.4477 9 11Z" fill="#484848"/>
<path d="M9 15C9 15.5523 8.55228 16 8 16C7.44772 16 7 15.5523 7 15C7 14.4477 7.44772 14 8 14C8.55228 14 9 14.4477 9 15Z" fill="#484848"/>
<path d="M17 11C17 11.5523 16.5523 12 16 12C15.4477 12 15 11.5523 15 11C15 10.4477 15.4477 10 16 10C16.5523 10 17 10.4477 17 11Z" fill="#484848"/>
</svg>
