<svg width="20" height="20" viewBox="0 0 20 20" fill="none" xmlns="http://www.w3.org/2000/svg">
<path fill-rule="evenodd" clip-rule="evenodd" d="M12 4H8C6.05784 4 4.80242 4.00425 3.87741 4.12861C3.00993 4.24524 2.73803 4.43354 2.58579 4.58579C2.43354 4.73804 2.24524 5.00993 2.12861 5.87741C2.00425 6.80242 2 8.05784 2 10V12C2 13.9422 2.00425 15.1976 2.12861 16.1226C2.24524 16.9901 2.43354 17.262 2.58579 17.4142C2.73803 17.5665 3.00993 17.7548 3.87741 17.8714C4.80242 17.9958 6.05784 18 8 18H12C13.9422 18 15.1976 17.9958 16.1226 17.8714C16.9901 17.7548 17.262 17.5665 17.4142 17.4142C17.5665 17.262 17.7548 16.9901 17.8714 16.1226C17.9958 15.1976 18 13.9422 18 12V10C18 8.05784 17.9958 6.80242 17.8714 5.87741C17.7548 5.00993 17.5665 4.73804 17.4142 4.58579C17.262 4.43354 16.9901 4.24524 16.1226 4.12861C15.1976 4.00425 13.9422 4 12 4ZM1.17157 3.17157C0 4.34315 0 6.22876 0 10V12C0 15.7712 0 17.6569 1.17157 18.8284C2.34315 20 4.22876 20 8 20H12C15.7712 20 17.6569 20 18.8284 18.8284C20 17.6569 20 15.7712 20 12V10C20 6.22876 20 4.34315 18.8284 3.17157C17.6569 2 15.7712 2 12 2H8C4.22876 2 2.34315 2 1.17157 3.17157Z" fill="#484848"/>
<path fill-rule="evenodd" clip-rule="evenodd" d="M6 0C6.55228 0 7 0.447715 7 1V5C7 5.55228 6.55228 6 6 6C5.44772 6 5 5.55228 5 5V1C5 0.447715 5.44772 0 6 0Z" fill="#484848"/>
<path fill-rule="evenodd" clip-rule="evenodd" d="M14 0C14.5523 0 15 0.447715 15 1V5C15 5.55228 14.5523 6 14 6C13.4477 6 13 5.55228 13 5V1C13 0.447715 13.4477 0 14 0Z" fill="#484848"/>
<path d="M11 9C11 9.55228 10.5523 10 10 10C9.44772 10 9 9.55228 9 9C9 8.44772 9.44772 8 10 8C10.5523 8 11 8.44772 11 9Z" fill="#484848"/>
<path d="M11 13C11 13.5523 10.5523 14 10 14C9.44772 14 9 13.5523 9 13C9 12.4477 9.44772 12 10 12C10.5523 12 11 12.4477 11 13Z" fill="#484848"/>
<path d="M7 9C7 9.55228 6.55228 10 6 10C5.44772 10 5 9.55228 5 9C5 8.44772 5.44772 8 6 8C6.55228 8 7 8.44772 7 9Z" fill="#484848"/>
<path d="M7 13C7 13.5523 6.55228 14 6 14C5.44772 14 5 13.5523 5 13C5 12.4477 5.44772 12 6 12C6.55228 12 7 12.4477 7 13Z" fill="#484848"/>
<path d="M15 9C15 9.55228 14.5523 10 14 10C13.4477 10 13 9.55228 13 9C13 8.44772 13.4477 8 14 8C14.5523 8 15 8.44772 15 9Z" fill="#484848"/>
</svg>
