<svg width="20" height="20" viewBox="0 0 20 20" fill="none" xmlns="http://www.w3.org/2000/svg">
<path fill-rule="evenodd" clip-rule="evenodd" d="M12.3345 0.276313C10.0192 -0.279526 7.58161 0.00898278 5.4601 1.08995C3.33858 2.17091 1.67239 3.97339 0.761206 6.17317C-0.149974 8.37295 -0.246343 10.8257 0.489438 13.0902C1.22522 15.3547 2.74485 17.2823 4.77502 18.5264C6.80518 19.7705 9.21263 20.2493 11.5643 19.8769C13.9161 19.5044 16.0577 18.305 17.6041 16.4945C19.1504 14.6839 20 12.381 20 10C20 9.44771 19.5523 9 19 9C18.4477 9 18 9.44771 18 10C18 11.9048 17.3203 13.7471 16.0833 15.1956C14.8462 16.644 13.1329 17.6035 11.2515 17.9015C9.3701 18.1995 7.44414 17.8164 5.82001 16.8211C4.19588 15.8258 2.98017 14.2837 2.39155 12.4721C1.80293 10.6605 1.88002 8.69836 2.60897 6.93854C3.33791 5.17871 4.67086 3.73673 6.36808 2.87196C8.06529 2.00719 10.0154 1.77638 11.8676 2.22105C13.7198 2.66572 15.3525 3.75669 16.4721 5.29772L18.0902 4.12215C16.6906 2.19586 14.6497 0.832153 12.3345 0.276313Z" fill="#484848"/>
<path fill-rule="evenodd" clip-rule="evenodd" d="M10 6C10.5523 6 11 6.44772 11 7L11 8.99998L13 8.99995C13.5523 8.99994 14 9.44764 14 9.99993C14 10.5522 13.5523 10.9999 13 10.9999L10 11C9.7348 11 9.48044 10.8947 9.2929 10.7071C9.10536 10.5196 9 10.2652 9 10L9.00001 7C9.00001 6.44771 9.44773 6 10 6Z" fill="#484848"/>
<path fill-rule="evenodd" clip-rule="evenodd" d="M18 1.44225e-06C17.4477 3.3496e-06 17 0.44772 17 1L17 3.99997L14 3.99992C13.4477 3.99991 13 4.44762 13 4.9999C13 5.55218 13.4477 5.99991 14 5.99992L18 5.99999C18.2652 6 18.5196 5.89464 18.7071 5.70711C18.8946 5.51957 19 5.26521 19 4.99999L19 0.999998C19 0.447713 18.5523 -4.65095e-07 18 1.44225e-06Z" fill="#484848"/>
</svg>
