<svg width="24" height="24" viewBox="0 0 24 24" fill="none" xmlns="http://www.w3.org/2000/svg">
<path fill-rule="evenodd" clip-rule="evenodd" d="M12 20C16.4183 20 20 16.4183 20 12C20 7.58172 16.4183 4 12 4C7.58172 4 4 7.58172 4 12C4 16.4183 7.58172 20 12 20ZM12 22C17.5228 22 22 17.5228 22 12C22 6.47715 17.5228 2 12 2C6.47715 2 2 6.47715 2 12C2 17.5228 6.47715 22 12 22Z" fill="#484848"/>
<path fill-rule="evenodd" clip-rule="evenodd" d="M12 7C12.5523 7 13 7.44772 13 8L13 10.6126L14.6838 10.0513C15.2077 9.87667 15.774 10.1598 15.9487 10.6838C16.1233 11.2077 15.8402 11.774 15.3162 11.9487L12.3162 12.9487C12.0113 13.0503 11.6761 12.9992 11.4153 12.8112C11.1545 12.6233 11 12.3214 11 12L11 8C11 7.44771 11.4477 7 12 7Z" fill="#484848"/>
</svg>
