<svg width="24" height="24" viewBox="0 0 24 24" fill="none" xmlns="http://www.w3.org/2000/svg">
<path fill-rule="evenodd" clip-rule="evenodd" d="M14.3345 2.27631C12.0192 1.72047 9.58161 2.00898 7.4601 3.08995C5.33858 4.17091 3.67239 5.97339 2.76121 8.17317C1.85003 10.373 1.75366 12.8257 2.48944 15.0902C3.22522 17.3547 4.74485 19.2823 6.77502 20.5264C8.80518 21.7705 11.2126 22.2493 13.5643 21.8769C15.9161 21.5044 18.0577 20.305 19.6041 18.4945C21.1504 16.6839 22 14.381 22 12C22 11.4477 21.5523 11 21 11C20.4477 11 20 11.4477 20 12C20 13.9048 19.3203 15.7471 18.0833 17.1956C16.8462 18.644 15.1329 19.6035 13.2515 19.9015C11.3701 20.1995 9.44414 19.8164 7.82001 18.8211C6.19588 17.8258 4.98017 16.2837 4.39155 14.4721C3.80293 12.6605 3.88002 10.6984 4.60897 8.93854C5.33791 7.17871 6.67086 5.73673 8.36808 4.87196C10.0653 4.00719 12.0154 3.77638 13.8676 4.22105C15.7198 4.66572 17.3525 5.75669 18.4721 7.29772L20.0902 6.12215C18.6906 4.19586 16.6497 2.83215 14.3345 2.27631Z" fill="#484848"/>
<path fill-rule="evenodd" clip-rule="evenodd" d="M12 8C12.5523 8 13 8.44772 13 9L13 11L15 10.9999C15.5523 10.9999 16 11.4476 16 11.9999C16 12.5522 15.5523 12.9999 15 12.9999L12 13C11.7348 13 11.4804 12.8947 11.2929 12.7071C11.1054 12.5196 11 12.2652 11 12L11 9C11 8.44771 11.4477 8 12 8Z" fill="#484848"/>
<path fill-rule="evenodd" clip-rule="evenodd" d="M20 2C19.4477 2 19 2.44772 19 3L19 5.99997L16 5.99992C15.4477 5.99991 15 6.44762 15 6.9999C15 7.55218 15.4477 7.99991 16 7.99992L20 7.99999C20.2652 8 20.5196 7.89464 20.7071 7.70711C20.8946 7.51957 21 7.26521 21 6.99999L21 3C21 2.44771 20.5523 2 20 2Z" fill="#484848"/>
</svg>
