<svg width="20" height="20" viewBox="0 0 20 20" fill="none" xmlns="http://www.w3.org/2000/svg">
<path fill-rule="evenodd" clip-rule="evenodd" d="M10 18C14.4183 18 18 14.4183 18 10C18 5.58172 14.4183 2 10 2C5.58172 2 2 5.58172 2 10C2 14.4183 5.58172 18 10 18ZM10 20C15.5228 20 20 15.5228 20 10C20 4.47715 15.5228 0 10 0C4.47715 0 0 4.47715 0 10C0 15.5228 4.47715 20 10 20Z" fill="#484848"/>
<path fill-rule="evenodd" clip-rule="evenodd" d="M10 5C10.5523 5 11 5.44772 11 6L11 8.61257L12.6838 8.05132C13.2077 7.87667 13.774 8.15983 13.9487 8.68377C14.1233 9.20772 13.8402 9.77403 13.3162 9.94868L10.3162 10.9487C10.0113 11.0503 9.67606 10.9992 9.41529 10.8112C9.15452 10.6233 9 10.3214 9 10L9.00001 6C9.00002 5.44771 9.44773 5 10 5Z" fill="#484848"/>
</svg>
