<svg width="20" height="20" viewBox="0 0 20 20" fill="none" xmlns="http://www.w3.org/2000/svg">
<path fill-rule="evenodd" clip-rule="evenodd" d="M10 14C12.2091 14 14 12.2091 14 10C14 7.79086 12.2091 6 10 6C7.79086 6 6 7.79086 6 10C6 12.2091 7.79086 14 10 14ZM10 16C13.3137 16 16 13.3137 16 10C16 6.68629 13.3137 4 10 4C6.68629 4 4 6.68629 4 10C4 13.3137 6.68629 16 10 16Z" fill="#484848"/>
<path fill-rule="evenodd" clip-rule="evenodd" d="M3 10C3 10.5523 2.55228 11 2 11H1C0.447715 11 0 10.5523 0 10C0 9.44771 0.447715 9 1 9H2C2.55228 9 3 9.44771 3 10Z" fill="#484848"/>
<path fill-rule="evenodd" clip-rule="evenodd" d="M20 10C20 10.5523 19.5523 11 19 11H18C17.4477 11 17 10.5523 17 10C17 9.44771 17.4477 9 18 9H19C19.5523 9 20 9.44771 20 10Z" fill="#484848"/>
<path fill-rule="evenodd" clip-rule="evenodd" d="M10 3C9.44772 3 9 2.55228 9 2V1C9 0.447715 9.44772 -4.82823e-08 10 0C10.5523 4.82823e-08 11 0.447715 11 1V2C11 2.55228 10.5523 3 10 3Z" fill="#484848"/>
<path fill-rule="evenodd" clip-rule="evenodd" d="M10 20C9.44772 20 9 19.5523 9 19V18C9 17.4477 9.44772 17 10 17C10.5523 17 11 17.4477 11 18V19C11 19.5523 10.5523 20 10 20Z" fill="#484848"/>
<path fill-rule="evenodd" clip-rule="evenodd" d="M2.29289 17.7071C1.90237 17.3166 1.90237 16.6834 2.29289 16.2929L3.29289 15.2929C3.68342 14.9024 4.31658 14.9024 4.70711 15.2929C5.09763 15.6834 5.09763 16.3166 4.70711 16.7071L3.70711 17.7071C3.31658 18.0976 2.68342 18.0976 2.29289 17.7071Z" fill="#484848"/>
<path fill-rule="evenodd" clip-rule="evenodd" d="M15.2929 4.70711C14.9024 4.31658 14.9024 3.68342 15.2929 3.29289L16.2929 2.29289C16.6834 1.90237 17.3166 1.90237 17.7071 2.29289C18.0976 2.68342 18.0976 3.31658 17.7071 3.70711L16.7071 4.70711C16.3166 5.09763 15.6834 5.09763 15.2929 4.70711Z" fill="#484848"/>
<path fill-rule="evenodd" clip-rule="evenodd" d="M2.29289 2.29289C2.68342 1.90237 3.31658 1.90237 3.70711 2.29289L4.70711 3.29289C5.09763 3.68342 5.09763 4.31658 4.70711 4.70711C4.31658 5.09763 3.68342 5.09763 3.29289 4.70711L2.29289 3.70711C1.90237 3.31658 1.90237 2.68342 2.29289 2.29289Z" fill="#484848"/>
<path fill-rule="evenodd" clip-rule="evenodd" d="M15.2929 15.2929C15.6834 14.9024 16.3166 14.9024 16.7071 15.2929L17.7071 16.2929C18.0976 16.6834 18.0976 17.3166 17.7071 17.7071C17.3166 18.0976 16.6834 18.0976 16.2929 17.7071L15.2929 16.7071C14.9024 16.3166 14.9024 15.6834 15.2929 15.2929Z" fill="#484848"/>
</svg>
