<svg width="24" height="24" viewBox="0 0 24 24" fill="none" xmlns="http://www.w3.org/2000/svg">
<path fill-rule="evenodd" clip-rule="evenodd" d="M20.062 12.4159C20.0367 12.4392 20.0112 12.4623 19.9855 12.4851C18.9258 13.4275 17.5297 14 16 14C12.6863 14 10 11.3137 10 8C10 6.47026 10.5725 5.07423 11.5149 4.01447C11.5377 3.98876 11.5608 3.96327 11.5841 3.93796C11.716 3.79462 11.8548 3.65772 12 3.52779C12.083 3.4535 12.1681 3.3815 12.2551 3.31186C12.741 2.92323 12.6222 2 12 2C11.7407 2 11.4836 2.00987 11.2293 2.02926C11.0561 2.04246 10.8841 2.06008 10.7135 2.08199C10.6757 2.08684 10.638 2.09191 10.6003 2.09718C5.74009 2.77791 2 6.95218 2 12C2 17.5228 6.47715 22 12 22C17.0478 22 21.2221 18.2599 21.9028 13.3997C21.9081 13.362 21.9132 13.3243 21.918 13.2865C21.9399 13.1159 21.9575 12.9439 21.9707 12.7707C21.9901 12.5164 22 12.2593 22 12C22 11.3778 21.0768 11.259 20.6881 11.7449C20.6185 11.8319 20.5465 11.917 20.4722 12C20.3423 12.1452 20.2054 12.284 20.062 12.4159ZM19.2933 15.2924C18.0381 18.0684 15.2446 20 12 20C7.58172 20 4 16.4183 4 12C4 8.75536 5.93161 5.96187 8.70763 4.70673C8.25337 5.71094 8 6.82603 8 8C8 12.4183 11.5817 16 16 16C17.174 16 18.2891 15.7466 19.2933 15.2924Z" fill="#484848"/>
</svg>
