<svg width="20" height="20" viewBox="0 0 20 20" fill="none" xmlns="http://www.w3.org/2000/svg">
<path fill-rule="evenodd" clip-rule="evenodd" d="M18.062 10.4159C18.0367 10.4392 18.0112 10.4623 17.9855 10.4851C16.9258 11.4275 15.5297 12 14 12C10.6863 12 8 9.31371 8 6C8 4.47026 8.57248 3.07423 9.51488 2.01447C9.53774 1.98876 9.56081 1.96327 9.5841 1.93796C9.71602 1.79462 9.85483 1.65772 10 1.52779C10.083 1.4535 10.1681 1.3815 10.2551 1.31186C10.741 0.923235 10.6222 0 10 0C9.74066 0 9.48363 0.0098721 9.22926 0.029261C9.05606 0.0424624 8.8841 0.0600768 8.71348 0.0819898C8.67569 0.0868441 8.63796 0.0919094 8.6003 0.0971844C3.74009 0.777915 0 4.95218 0 10C0 15.5228 4.47715 20 10 20C15.0478 20 19.2221 16.2599 19.9028 11.3997C19.9081 11.362 19.9132 11.3243 19.918 11.2865C19.9399 11.1159 19.9575 10.9439 19.9707 10.7707C19.9901 10.5164 20 10.2593 20 10C20 9.37782 19.0768 9.25899 18.6881 9.74487C18.6185 9.83193 18.5465 9.917 18.4722 10C18.3423 10.1452 18.2054 10.284 18.062 10.4159ZM17.2933 13.2924C16.0381 16.0684 13.2446 18 10 18C5.58172 18 2 14.4183 2 10C2 6.75536 3.93161 3.96187 6.70763 2.70673C6.25337 3.71094 6 4.82603 6 6C6 10.4183 9.58172 14 14 14C15.174 14 16.2891 13.7466 17.2933 13.2924Z" fill="#484848"/>
</svg>
