<svg width="18" height="20" viewBox="0 0 18 20" fill="none" xmlns="http://www.w3.org/2000/svg">
<path fill-rule="evenodd" clip-rule="evenodd" d="M6 1C6 0.447715 6.44772 0 7 0H11C11.5523 0 12 0.447715 12 1C12 1.55228 11.5523 2 11 2H7C6.44772 2 6 1.55228 6 1Z" fill="#484848"/>
<path fill-rule="evenodd" clip-rule="evenodd" d="M14.2929 1.29289C13.9024 1.68342 13.9024 2.31658 14.2929 2.70711L16.2929 4.70711C16.6834 5.09763 17.3166 5.09763 17.7071 4.70711C18.0976 4.31658 18.0976 3.68342 17.7071 3.29289L15.7071 1.29289C15.3166 0.902369 14.6834 0.902369 14.2929 1.29289Z" fill="#484848"/>
<path fill-rule="evenodd" clip-rule="evenodd" d="M9 18C12.866 18 16 14.866 16 11C16 7.13401 12.866 4 9 4C5.13401 4 2 7.13401 2 11C2 14.866 5.13401 18 9 18ZM9 20C13.9706 20 18 15.9706 18 11C18 6.02944 13.9706 2 9 2C4.02944 2 0 6.02944 0 11C0 15.9706 4.02944 20 9 20Z" fill="#484848"/>
<path fill-rule="evenodd" clip-rule="evenodd" d="M9.00002 7C9.5523 7 10 7.44772 10 8L10 10.6126L11.6838 10.0513C12.2077 9.87667 12.774 10.1598 12.9487 10.6838C13.1233 11.2077 12.8402 11.774 12.3162 11.9487L9.31623 12.9487C9.01128 13.0503 8.67606 12.9992 8.41529 12.8112C8.15452 12.6233 8 12.3214 8 12L8.00001 8C8.00002 7.44771 8.44773 7 9.00002 7Z" fill="#484848"/>
</svg>
