<svg width="24" height="24" viewBox="0 0 24 24" fill="none" xmlns="http://www.w3.org/2000/svg">
<path fill-rule="evenodd" clip-rule="evenodd" d="M9 3C9 2.44772 9.44772 2 10 2H14C14.5523 2 15 2.44772 15 3C15 3.55228 14.5523 4 14 4H10C9.44772 4 9 3.55228 9 3Z" fill="#484848"/>
<path fill-rule="evenodd" clip-rule="evenodd" d="M17.2929 3.29289C16.9024 3.68342 16.9024 4.31658 17.2929 4.70711L19.2929 6.70711C19.6834 7.09763 20.3166 7.09763 20.7071 6.70711C21.0976 6.31658 21.0976 5.68342 20.7071 5.29289L18.7071 3.29289C18.3166 2.90237 17.6834 2.90237 17.2929 3.29289Z" fill="#484848"/>
<path fill-rule="evenodd" clip-rule="evenodd" d="M12 20C15.866 20 19 16.866 19 13C19 9.13401 15.866 6 12 6C8.13401 6 5 9.13401 5 13C5 16.866 8.13401 20 12 20ZM12 22C16.9706 22 21 17.9706 21 13C21 8.02944 16.9706 4 12 4C7.02944 4 3 8.02944 3 13C3 17.9706 7.02944 22 12 22Z" fill="#484848"/>
<path fill-rule="evenodd" clip-rule="evenodd" d="M12 9C12.5523 9 13 9.44772 13 10L13 12.6126L14.6838 12.0513C15.2077 11.8767 15.774 12.1598 15.9487 12.6838C16.1233 13.2077 15.8402 13.774 15.3162 13.9487L12.3162 14.9487C12.0113 15.0503 11.6761 14.9992 11.4153 14.8112C11.1545 14.6233 11 14.3214 11 14L11 10C11 9.44771 11.4477 9 12 9Z" fill="#484848"/>
</svg>
