<svg width="24" height="24" viewBox="0 0 24 24" fill="none" xmlns="http://www.w3.org/2000/svg">
<path fill-rule="evenodd" clip-rule="evenodd" d="M7.00618 13.3295C8.02715 15.584 9.63183 17.8024 11.0193 19.4848C11.5858 20.1717 12.4142 20.1717 12.9807 19.4848C14.3682 17.8024 15.9729 15.584 16.9938 13.3295C18.0445 11.0095 18.2818 9.09177 17.6578 7.70158C15.4425 2.76614 8.55746 2.76614 6.34218 7.70158C5.71819 9.09177 5.95552 11.0095 7.00618 13.3295ZM9.47634 20.7573C10.8428 22.4142 13.1572 22.4142 14.5237 20.7573C17.3945 17.2763 21.4454 11.2559 19.4824 6.8826C16.5604 0.372468 7.43963 0.372467 4.51755 6.8826C2.5546 11.2559 6.60554 17.2763 9.47634 20.7573Z" fill="#484848"/>
<path fill-rule="evenodd" clip-rule="evenodd" d="M12 11C12.5523 11 13 10.5523 13 10C13 9.44772 12.5523 9 12 9C11.4477 9 11 9.44772 11 10C11 10.5523 11.4477 11 12 11ZM12 13C13.6569 13 15 11.6569 15 10C15 8.34315 13.6569 7 12 7C10.3431 7 9 8.34315 9 10C9 11.6569 10.3431 13 12 13Z" fill="#484848"/>
</svg>
