<svg width="24" height="24" viewBox="0 0 24 24" fill="none" xmlns="http://www.w3.org/2000/svg">
<path fill-rule="evenodd" clip-rule="evenodd" d="M7.2346 13.8139C7.15565 13.6527 7.07941 13.4912 7.00618 13.3295C5.95552 11.0095 5.71819 9.09177 6.34218 7.70158C8.10031 3.78463 12.7998 2.97632 15.7718 5.27664L17.1984 3.8501C13.283 0.613004 6.87795 1.62384 4.51755 6.8826C3.384 9.40805 4.25593 12.4828 5.74796 15.3006L7.2346 13.8139ZM13.5918 7.45667C13.1305 7.16731 12.5848 7 12 7C10.3431 7 9 8.34315 9 10C9 10.5848 9.16731 11.1305 9.45668 11.5918L11.0011 10.0474C11.0004 10.0317 11 10.0159 11 10C11 9.44771 11.4477 9 12 9C12.0159 9 12.0317 9.00037 12.0474 9.0011L13.5918 7.45667ZM9.36907 17.3363L7.93589 18.7695C8.4599 19.4924 8.98538 20.162 9.47634 20.7573C10.8428 22.4142 13.1572 22.4142 14.5237 20.7573C17.3424 17.3394 21.2989 11.4733 19.5833 7.12202L17.9535 8.75183C18.1281 10.0025 17.8009 11.5473 16.9938 13.3295C15.9729 15.584 14.3682 17.8024 12.9807 19.4848C12.4142 20.1717 11.5858 20.1717 11.0193 19.4848C10.4862 18.8384 9.92093 18.1127 9.36907 17.3363Z" fill="#484848"/>
<path fill-rule="evenodd" clip-rule="evenodd" d="M4.29289 19.7071C3.90237 19.3166 3.90237 18.6834 4.29289 18.2929L19.2929 3.29295C19.6834 2.90242 20.3166 2.90242 20.7071 3.29295C21.0976 3.68348 21.0976 4.31664 20.7071 4.70716L5.70711 19.7071C5.31658 20.0976 4.68342 20.0976 4.29289 19.7071Z" fill="#484848"/>
</svg>
