<svg width="24" height="24" viewBox="0 0 24 24" fill="none" xmlns="http://www.w3.org/2000/svg">
<path fill-rule="evenodd" clip-rule="evenodd" d="M5.31731 11.0562C5.84003 11.2383 6.11581 11.8086 5.93327 12.33L4.06356 17.6706C3.83598 18.3206 4.31974 19.0003 5.01003 19.0003H18.99C19.6797 19.0003 20.1634 18.3218 19.9369 17.672L18.0751 12.3286C17.8933 11.8069 18.1699 11.237 18.6929 11.0557C19.2159 10.8744 19.7872 11.1503 19.969 11.672L21.8309 17.0154C22.5101 18.9648 21.059 21.0003 18.99 21.0003H5.01003C2.93917 21.0003 1.48788 18.9614 2.17062 17.0112L4.04033 11.6706C4.22287 11.1492 4.79459 10.8741 5.31731 11.0562Z" fill="#484848"/>
<path d="M13 8C13 8.55228 12.5523 9 12 9C11.4477 9 11 8.55228 11 8C11 7.44772 11.4477 7 12 7C12.5523 7 13 7.44772 13 8Z" fill="#484848"/>
<path fill-rule="evenodd" clip-rule="evenodd" d="M9.54902 9.43945C10.1416 10.6957 11.0912 11.9633 11.9398 12.9511C11.9696 12.9858 11.9899 12.9958 11.9944 12.9979C12.0002 13.0006 12 13 12 13C12 13 11.9999 13.0006 12.0056 12.9979C12.0101 12.9958 12.0304 12.9858 12.0602 12.9511C12.9088 11.9633 13.8584 10.6957 14.451 9.43945C15.0756 8.11538 15.0931 7.26495 14.8648 6.77665C13.7572 4.40778 10.2428 4.40778 9.13522 6.77665C8.90691 7.26495 8.92442 8.11538 9.54902 9.43945ZM10.4227 14.2544C11.2767 15.2485 12.7233 15.2485 13.5773 14.2544C15.3715 12.1658 17.9034 8.55353 16.6765 5.92956C14.8502 2.02348 9.14977 2.02348 7.32347 5.92956C6.09662 8.55353 8.62847 12.1658 10.4227 14.2544Z" fill="#484848"/>
</svg>
