<svg width="24" height="24" viewBox="0 0 24 24" fill="none" xmlns="http://www.w3.org/2000/svg">
<path fill-rule="evenodd" clip-rule="evenodd" d="M8.5528 2.10557C8.83433 1.96481 9.1657 1.96481 9.44723 2.10557L15 4.88197L17.6584 3.55279C17.6795 3.54223 17.7005 3.53169 17.7215 3.52119C18.3156 3.22409 18.8584 2.95258 19.3133 2.80373C19.7983 2.64503 20.4389 2.53813 21.0515 2.91673C21.6641 3.29533 21.8549 3.91611 21.9299 4.42087C22.0002 4.89431 22.0001 5.50126 22 6.16542C22 6.1889 22 6.21245 22 6.23607L22 16.8014C22.0001 17.0695 22.0001 17.3407 21.976 17.5736C21.9485 17.8404 21.8832 18.1391 21.7013 18.4334C21.5194 18.7277 21.2814 18.9197 21.0551 19.0637C20.8575 19.1894 20.615 19.3106 20.3752 19.4304L15.4472 21.8944C15.1657 22.0352 14.8343 22.0352 14.5528 21.8944L9.00001 19.118L6.27846 20.4788C5.68446 20.7759 5.14162 21.0474 4.68673 21.1963C4.20173 21.355 3.56114 21.4619 2.94855 21.0833C2.33596 20.7047 2.1451 20.0839 2.07014 19.5791C1.99984 19.1057 1.99992 18.4987 2.00001 17.8346C2.00001 17.8111 2.00001 17.7875 2.00001 17.7639V7.23607C2.00001 7.22359 2.00001 7.2111 2.00001 7.1986C1.99995 6.93053 1.9999 6.65934 2.02398 6.42643C2.05157 6.15961 2.11681 5.86089 2.29871 5.56657C2.48061 5.27225 2.71862 5.08031 2.94493 4.93631C3.14249 4.81061 3.38506 4.68938 3.62486 4.56954C3.63604 4.56395 3.64721 4.55837 3.65837 4.55279L8.5528 2.10557ZM10 17.382L14 19.382V6.61803L10 4.61803V17.382ZM8.00001 4.61803V17.382L5.44723 18.6584C4.76867 18.9976 4.36097 19.1985 4.06475 19.2954C4.05996 19.297 4.05526 19.2985 4.05067 19.3C4.04993 19.2952 4.04919 19.2904 4.04845 19.2854C4.00267 18.9771 4.00001 18.5226 4.00001 17.7639V7.23607C4.00001 6.91483 4.00125 6.74947 4.01338 6.63212L4.01396 6.62665L4.01859 6.62369C4.11812 6.56036 4.26548 6.4853 4.5528 6.34164L8.00001 4.61803ZM16 6.61803V19.382L19.4472 17.6584C19.7345 17.5147 19.8819 17.4396 19.9814 17.3763L19.9861 17.3733L19.9866 17.3679C19.9988 17.2505 20 17.0852 20 16.7639V6.23607C20 5.47741 19.9974 5.02292 19.9516 4.71463C19.9508 4.70964 19.9501 4.70477 19.9493 4.70001C19.9448 4.70147 19.9401 4.70299 19.9353 4.70456C19.6391 4.80148 19.2314 5.00236 18.5528 5.34164L16 6.61803Z" fill="#484848"/>
</svg>
