<svg width="24" height="24" viewBox="0 0 24 24" fill="none" xmlns="http://www.w3.org/2000/svg">
<path fill-rule="evenodd" clip-rule="evenodd" d="M10 15.0081C9.35644 14.272 8.64356 13.3852 8 12.4232V17.533L4 19.4219L4 7.46701L6.05383 6.49714C6.11273 6.12544 6.22157 5.76425 6.38816 5.41782C6.79425 4.57342 7.35995 3.88548 8.02612 3.354L3.14599 5.65851C2.44632 5.98891 2 6.69325 2 7.46701V19.4219C2 20.8891 3.52731 21.8569 4.85401 21.2304L9 19.2726L14.573 21.9043C14.8434 22.0319 15.1566 22.0319 15.427 21.9043L20.854 19.3415C21.5537 19.0111 22 18.3068 22 17.533V5.57812C22 4.11093 20.4727 3.14312 19.146 3.76962L17.1979 4.68956C17.3496 4.91779 17.4881 5.16055 17.6118 5.41782C17.7855 5.77896 17.8964 6.15615 17.9534 6.54456L20 5.57812V17.533L16 19.4219V12.4232C15.3564 13.3852 14.6436 14.272 14 15.0081V19.4219L10 17.533V15.0081Z" fill="#484848"/>
<path d="M13 8C13 8.55228 12.5523 9 12 9C11.4477 9 11 8.55228 11 8C11 7.44772 11.4477 7 12 7C12.5523 7 13 7.44772 13 8Z" fill="#484848"/>
<path fill-rule="evenodd" clip-rule="evenodd" d="M9.54902 9.43945C10.1416 10.6957 11.0912 11.9633 11.9398 12.9511C11.9696 12.9858 11.9899 12.9958 11.9944 12.9979C12.0002 13.0006 12 13 12 13C12 13 11.9999 13.0006 12.0056 12.9979C12.0101 12.9958 12.0304 12.9858 12.0602 12.9511C12.9088 11.9633 13.8584 10.6957 14.451 9.43945C15.0756 8.11538 15.0931 7.26495 14.8648 6.77665C13.7572 4.40778 10.2428 4.40778 9.13522 6.77665C8.90691 7.26495 8.92442 8.11538 9.54902 9.43945ZM10.4227 14.2544C11.2767 15.2485 12.7233 15.2485 13.5773 14.2544C15.3715 12.1658 17.9034 8.55353 16.6765 5.92956C14.8502 2.02348 9.14977 2.02348 7.32347 5.92956C6.09662 8.55353 8.62847 12.1658 10.4227 14.2544Z" fill="#484848"/>
</svg>
