<svg width="24" height="24" viewBox="0 0 24 24" fill="none" xmlns="http://www.w3.org/2000/svg">
<path fill-rule="evenodd" clip-rule="evenodd" d="M20 12V8C20 7.00065 19.9957 6.45234 19.9446 6.07195C19.9439 6.067 19.9433 6.06214 19.9426 6.05739C19.9378 6.05672 19.933 6.05606 19.928 6.05539C19.5476 6.00425 18.9993 6 18 6C17.0006 6 16.4523 6.00425 16.0719 6.05539C16.067 6.05606 16.0621 6.05672 16.0574 6.05739C16.0567 6.06214 16.056 6.067 16.0554 6.07195C16.0042 6.45234 16 7.00065 16 8V12C16 12.9993 16.0042 13.5477 16.0554 13.928C16.056 13.933 16.0567 13.9379 16.0574 13.9426C16.0621 13.9433 16.067 13.9439 16.0719 13.9446C16.4523 13.9958 17.0006 14 18 14C18.9993 14 19.5476 13.9958 19.928 13.9446C19.933 13.9439 19.9378 13.9433 19.9426 13.9426C19.9433 13.9379 19.9439 13.933 19.9446 13.928C19.9957 13.5477 20 12.9993 20 12ZM19.9032 14.1381L19.9038 14.1363ZM16.0968 14.1381L16.0961 14.1363ZM15.8619 6.09681L15.8637 6.09614ZM20.1381 6.09681L20.1363 6.09614ZM19.9038 5.86368L19.9032 5.86187ZM14.5858 4.58579C14 5.17157 14 6.11438 14 8V12C14 13.8856 14 14.8284 14.5858 15.4142C15.1716 16 16.1144 16 18 16C19.8856 16 20.8284 16 21.4142 15.4142C22 14.8284 22 13.8856 22 12V8C22 6.11438 22 5.17157 21.4142 4.58579C20.8284 4 19.8856 4 18 4C16.1144 4 15.1716 4 14.5858 4.58579Z" fill="#484848"/>
<path fill-rule="evenodd" clip-rule="evenodd" d="M9.28076 21.8301C8.04098 21.3498 7.32627 19.9093 7.56245 18.6232L7.98239 15.5754C7.98348 15.566 7.98418 15.5574 7.98458 15.5496H4.73042C3.77052 15.5496 2.93868 15.102 2.44906 14.3485C1.96874 13.6093 1.8762 12.6713 2.16035 11.7585L4.18606 4.77125C4.54975 3.20142 6.02782 2 7.53121 2H10.7564C11.1209 2 11.543 2.06621 11.9345 2.19306C12.2885 2.30774 12.7323 2.50879 13.0679 2.86039L15.6597 5.13591L14.3402 6.63887L11.6612 4.2868L11.6189 4.23888C11.6117 4.23289 11.5282 4.16376 11.3181 4.09568C11.1155 4.03003 10.9011 4 10.7564 4H7.53121C7.0087 4 6.29076 4.51331 6.13134 5.23646L6.12432 5.2683L4.07511 12.3366L4.07166 12.3475C3.93592 12.7786 4.0144 13.0869 4.12613 13.2588C4.23061 13.4196 4.41724 13.5496 4.73042 13.5496H8.12532C9.35699 13.5496 10.1104 14.6849 9.9662 15.8295L9.96475 15.841L9.53646 18.9489L9.53102 18.9767C9.44635 19.4087 9.74022 19.8657 10.0066 19.9664L10.0256 19.9736L10.0444 19.9816C10.0929 20.0022 10.198 20.0176 10.3507 19.9581C10.508 19.8968 10.6161 19.7927 10.6581 19.7213L10.66 19.7182L14.1397 13.8472L15.8602 14.8669L12.3823 20.7349L12.3812 20.7367C12.0837 21.2418 11.5982 21.6184 11.0771 21.8215C10.5562 22.0246 9.90543 22.0889 9.28076 21.8301Z" fill="#484848"/>
</svg>
