<svg width="24" height="24" viewBox="0 0 24 24" fill="none" xmlns="http://www.w3.org/2000/svg">
<path fill-rule="evenodd" clip-rule="evenodd" d="M19 8H5C4.50669 8 4.23688 8.00108 4.04183 8.01439C4.03276 8.01501 4.02424 8.01564 4.01626 8.01626C4.01564 8.02424 4.01501 8.03276 4.01439 8.04183C4.00108 8.23688 4 8.50669 4 9C4 9.49331 4.00108 9.76312 4.01439 9.95817C4.01501 9.96724 4.01564 9.97576 4.01626 9.98374C4.02424 9.98436 4.03276 9.98499 4.04183 9.98561C4.23688 9.99892 4.50669 10 5 10H19C19.4933 10 19.7631 9.99892 19.9582 9.98561C19.9672 9.98499 19.9758 9.98436 19.9837 9.98373C19.9844 9.97575 19.985 9.96724 19.9856 9.95817C19.9989 9.76312 20 9.49331 20 9C20 8.50669 19.9989 8.23688 19.9856 8.04183C19.985 8.03276 19.9844 8.02424 19.9837 8.01626C19.9758 8.01564 19.9672 8.01501 19.9582 8.01439C19.7631 8.00108 19.4933 8 19 8ZM2.15224 7.23463C2 7.60218 2 8.06812 2 9C2 9.93188 2 10.3978 2.15224 10.7654C2.35523 11.2554 2.74458 11.6448 3.23463 11.8478C3.60218 12 4.06812 12 5 12H19C19.9319 12 20.3978 12 20.7654 11.8478C21.2554 11.6448 21.6448 11.2554 21.8478 10.7654C22 10.3978 22 9.93188 22 9C22 8.06812 22 7.60218 21.8478 7.23463C21.6448 6.74458 21.2554 6.35523 20.7654 6.15224C20.3978 6 19.9319 6 19 6H5C4.06812 6 3.60218 6 3.23463 6.15224C2.74458 6.35523 2.35523 6.74458 2.15224 7.23463Z" fill="#484848"/>
<path fill-rule="evenodd" clip-rule="evenodd" d="M5 11V15C5 16.4425 5.00212 17.4237 5.10092 18.1586C5.19584 18.8646 5.36322 19.1916 5.58579 19.4142C5.80836 19.6368 6.13538 19.8042 6.84143 19.8991C7.57625 19.9979 8.55752 20 10 20H14C15.4425 20 16.4237 19.9979 17.1586 19.8991C17.8646 19.8042 18.1916 19.6368 18.4142 19.4142C18.6368 19.1916 18.8042 18.8646 18.8991 18.1586C18.9979 17.4237 19 16.4425 19 15V11H21V15.0705C21 16.4247 21.0001 17.5413 20.8812 18.4251C20.7565 19.3529 20.4845 20.1723 19.8284 20.8284C19.1723 21.4845 18.3529 21.7565 17.4251 21.8812C16.5413 22.0001 15.4247 22 14.0706 22H9.92943C8.57531 22 7.45869 22.0001 6.57494 21.8812C5.64711 21.7565 4.82768 21.4845 4.17157 20.8284C3.51546 20.1723 3.2435 19.3529 3.11875 18.4251C2.99993 17.5413 2.99996 16.4247 3 15.0706L3 11H5Z" fill="#484848"/>
<path fill-rule="evenodd" clip-rule="evenodd" d="M11 21V8H13V21H11Z" fill="#484848"/>
<path fill-rule="evenodd" clip-rule="evenodd" d="M8.42857 4H8C7.44772 4 7 4.44772 7 5C7 5.55228 7.44772 6 8 6H10.9975C10.9955 5.87466 10.9923 5.81951 10.9874 5.77607C10.8829 4.84883 10.1512 4.11705 9.22393 4.01258C9.14045 4.00317 9.01371 4 8.42857 4ZM12.9978 6C12.995 5.81246 12.9888 5.67583 12.9748 5.55214C12.7659 3.69766 11.3023 2.2341 9.44786 2.02515C9.22464 2 8.95928 2 8.42857 2H8C6.34315 2 5 3.34315 5 5C5 6.65685 6.34315 8 8 8H13V6.57143C13 6.33479 13 6.15091 12.9978 6Z" fill="#484848"/>
<path fill-rule="evenodd" clip-rule="evenodd" d="M15.5714 4H16C16.5523 4 17 4.44772 17 5C17 5.55228 16.5523 6 16 6H13.0025C13.0045 5.87466 13.0077 5.81951 13.0126 5.77607C13.1171 4.84883 13.8488 4.11705 14.7761 4.01258C14.8595 4.00317 14.9863 4 15.5714 4ZM11.0022 6C11.005 5.81246 11.0112 5.67583 11.0252 5.55214C11.2341 3.69766 12.6977 2.2341 14.5521 2.02515C14.7754 2 15.0407 2 15.5714 2H16C17.6569 2 19 3.34315 19 5C19 6.65685 17.6569 8 16 8H11V6.57143C11 6.33479 11 6.15091 11.0022 6Z" fill="#484848"/>
</svg>
