<svg width="24" height="24" viewBox="0 0 24 24" fill="none" xmlns="http://www.w3.org/2000/svg">
<path fill-rule="evenodd" clip-rule="evenodd" d="M8 16.0001V12.0001C8 11.0007 7.99575 10.4524 7.94461 10.072C7.94394 10.067 7.94328 10.0622 7.94261 10.0574C7.93786 10.0568 7.933 10.0561 7.92805 10.0554C7.54766 10.0043 6.99935 10.0001 6 10.0001C5.00065 10.0001 4.45234 10.0043 4.07195 10.0554C4.067 10.0561 4.06214 10.0568 4.05739 10.0574C4.05672 10.0622 4.05606 10.067 4.05539 10.072C4.00425 10.4524 4 11.0007 4 12.0001V16.0001C4 16.9994 4.00425 17.5477 4.05539 17.9281C4.05606 17.9331 4.05672 17.9379 4.05739 17.9427C4.06214 17.9433 4.067 17.944 4.07195 17.9447C4.45234 17.9958 5.00065 18.0001 6 18.0001C6.99935 18.0001 7.54766 17.9958 7.92805 17.9447C7.933 17.944 7.93786 17.9433 7.94261 17.9427C7.94328 17.9379 7.94394 17.9331 7.94461 17.9281C7.99575 17.5477 8 16.9994 8 16.0001ZM7.90319 18.1382L7.90386 18.1364ZM4.09681 18.1382L4.09614 18.1364ZM3.86187 10.0969L3.86368 10.0962ZM8.13813 10.0969L8.13632 10.0962ZM7.90386 9.86374L7.90319 9.86193ZM2.58579 8.58584C2 9.17163 2 10.1144 2 12.0001V16.0001C2 17.8857 2 18.8285 2.58579 19.4143C3.17157 20.0001 4.11438 20.0001 6 20.0001C7.88562 20.0001 8.82843 20.0001 9.41421 19.4143C10 18.8285 10 17.8857 10 16.0001V12.0001C10 10.1144 10 9.17163 9.41421 8.58584C8.82843 8.00005 7.88562 8.00005 6 8.00005C4.11438 8.00005 3.17157 8.00005 2.58579 8.58584Z" fill="#484848"/>
<path fill-rule="evenodd" clip-rule="evenodd" d="M14.7192 2.16999C15.959 2.65027 16.6737 4.09072 16.4375 5.3769L16.0176 8.42467C16.0165 8.43403 16.0158 8.44263 16.0154 8.4505H19.2696C20.2295 8.4505 21.0613 8.89802 21.5509 9.65156C22.0312 10.3908 22.1238 11.3288 21.8396 12.2415L19.8139 19.2288C19.4502 20.7986 17.9722 22.0001 16.4688 22.0001H13.2436C12.8791 22.0001 12.4569 21.9338 12.0654 21.807C11.7115 21.6923 11.2677 21.4913 10.9321 21.1397L8.34024 18.8641L9.65976 17.3612L12.3388 19.7133L12.3811 19.7612V19.7612C12.3883 19.7672 12.4718 19.8363 12.6819 19.9044C12.8845 19.97 13.0989 20.0001 13.2436 20.0001H16.4688C16.9913 20.0001 17.7092 19.4867 17.8686 18.7636L17.8757 18.7318L19.9249 11.6634L19.9283 11.6525C20.0641 11.2215 19.9856 10.9132 19.8739 10.7413C19.7694 10.5805 19.5827 10.4505 19.2696 10.4505H15.8747C14.643 10.4505 13.8896 9.31517 14.0338 8.17056L14.0352 8.15904L14.4635 5.05113L14.469 5.02336C14.5536 4.59132 14.2598 4.13434 13.9934 4.03365L13.9743 4.02645L13.9556 4.01849C13.9071 3.99787 13.802 3.98246 13.6493 4.04199C13.492 4.10329 13.3838 4.20732 13.3418 4.27876L13.34 4.28184L9.86025 10.1529L8.13975 9.13312L11.6177 3.26517L11.6187 3.2634C11.9163 2.75826 12.4018 2.3817 12.9229 2.17856C13.4438 1.97548 14.0946 1.91118 14.7192 2.16999Z" fill="#484848"/>
</svg>
