<svg width="24" height="24" viewBox="0 0 24 24" fill="none" xmlns="http://www.w3.org/2000/svg">
<path fill-rule="evenodd" clip-rule="evenodd" d="M15 8H9C7.55391 8 6.61989 8.00242 5.91626 8.074C5.24605 8.14217 5.00991 8.25618 4.88886 8.33706C4.67048 8.48298 4.48298 8.67048 4.33706 8.88886C4.25618 9.00991 4.14217 9.24605 4.074 9.91626C4.00242 10.6199 4 11.5539 4 13C4 14.4461 4.00242 15.3801 4.074 16.0837C4.14217 16.7539 4.25618 16.9901 4.33706 17.1111C4.48298 17.3295 4.67048 17.517 4.88886 17.6629C5.00991 17.7438 5.24605 17.8578 5.91626 17.926C6.61989 17.9976 7.55391 18 9 18H15C16.4461 18 17.3801 17.9976 18.0837 17.926C18.7539 17.8578 18.9901 17.7438 19.1111 17.6629C19.3295 17.517 19.517 17.3295 19.6629 17.1111C19.7438 16.9901 19.8578 16.7539 19.926 16.0837C19.9976 15.3801 20 14.4461 20 13C20 11.5539 19.9976 10.6199 19.926 9.91626C19.8578 9.24605 19.7438 9.00991 19.6629 8.88886C19.517 8.67048 19.3295 8.48298 19.1111 8.33706C18.9901 8.25618 18.7539 8.14217 18.0837 8.074C17.3801 8.00242 16.4461 8 15 8ZM2.67412 7.77772C2 8.78661 2 10.1911 2 13C2 15.8089 2 17.2134 2.67412 18.2223C2.96596 18.659 3.34096 19.034 3.77772 19.3259C4.78661 20 6.19108 20 9 20H15C17.8089 20 19.2134 20 20.2223 19.3259C20.659 19.034 21.034 18.659 21.3259 18.2223C22 17.2134 22 15.8089 22 13C22 10.1911 22 8.78661 21.3259 7.77772C21.034 7.34096 20.659 6.96596 20.2223 6.67412C19.2134 6 17.8089 6 15 6H9C6.19108 6 4.78661 6 3.77772 6.67412C3.34096 6.96596 2.96596 7.34096 2.67412 7.77772Z" fill="#484848"/>
<path d="M7.56794 10.7418C7.76081 10.4107 8.23919 10.4107 8.43206 10.7418L8.85895 11.4747C8.9296 11.596 9.04799 11.682 9.18519 11.7118L10.0142 11.8913C10.3887 11.9724 10.5365 12.4273 10.2812 12.7131L9.71605 13.3456C9.62252 13.4503 9.5773 13.5894 9.59144 13.7291L9.67688 14.573C9.71548 14.9542 9.32847 15.2354 8.9778 15.0809L8.20162 14.7388C8.07317 14.6822 7.92683 14.6822 7.79838 14.7388L7.0222 15.0809C6.67153 15.2354 6.28452 14.9542 6.32312 14.573L6.40856 13.7291C6.4227 13.5894 6.37748 13.4503 6.28395 13.3456L5.71881 12.7131C5.46348 12.4273 5.61131 11.9724 5.98583 11.8913L6.81481 11.7118C6.95201 11.682 7.0704 11.596 7.14105 11.4747L7.56794 10.7418Z" fill="#484848"/>
<path fill-rule="evenodd" clip-rule="evenodd" d="M12 11C12 10.4477 12.4477 10 13 10H17C17.5523 10 18 10.4477 18 11C18 11.5523 17.5523 12 17 12H13C12.4477 12 12 11.5523 12 11Z" fill="#484848"/>
<path fill-rule="evenodd" clip-rule="evenodd" d="M12 15C12 14.4477 12.4477 14 13 14H15C15.5523 14 16 14.4477 16 15C16 15.5523 15.5523 16 15 16H13C12.4477 16 12 15.5523 12 15Z" fill="#484848"/>
<path d="M11 5C11 4.44772 11.4477 4 12 4C12.5523 4 13 4.44772 13 5V7C13 7.55228 12.5523 8 12 8C11.4477 8 11 7.55228 11 7V5Z" fill="#484848"/>
</svg>
