<svg width="64" height="108" viewBox="0 0 64 108" fill="none" xmlns="http://www.w3.org/2000/svg">
<rect x="0.5" y="0.5" width="63" height="107" rx="4.5" stroke="#9747FF" stroke-dasharray="10 5"/>
<path fill-rule="evenodd" clip-rule="evenodd" d="M31.9819 26.2889C31.7488 26.6984 31.4871 27.3464 31.0845 28.3536L31.0203 28.5143C31.0156 28.526 31.0109 28.5378 31.0062 28.5496C30.9053 28.8021 30.8032 29.0577 30.6937 29.268C30.5683 29.509 30.3971 29.7653 30.1224 29.973C29.8477 30.1807 29.5604 30.2709 29.3014 30.3206C29.0754 30.3639 28.8102 30.386 28.5482 30.4078C28.536 30.4088 28.5238 30.4098 28.5116 30.4108L28.3449 30.4247C27.2999 30.5119 26.6267 30.5706 26.1804 30.6748C26.1686 30.6775 26.1571 30.6802 26.1461 30.683C26.1535 30.6919 26.1612 30.7011 26.1692 30.7105C26.4714 31.0677 26.9829 31.527 27.7791 32.2366L27.9061 32.3498C27.9154 32.3581 27.9247 32.3664 27.934 32.3747C28.1336 32.5525 28.3357 32.7326 28.4941 32.9059C28.6756 33.1045 28.857 33.3532 28.9619 33.6892C29.0668 34.0252 29.0606 34.3373 29.0259 34.609C28.9957 34.8461 28.9339 35.1153 28.8729 35.3813C28.87 35.3937 28.8672 35.4061 28.8643 35.4185L28.8255 35.5877C28.5823 36.6488 28.4279 37.3331 28.3852 37.807C28.3841 37.8195 28.383 37.8317 28.3821 37.8434C28.3926 37.8388 28.4033 37.8341 28.4144 37.8291C28.8343 37.6404 29.4121 37.2762 30.3068 36.7075L30.4809 36.5969C30.7051 36.4543 30.9321 36.31 31.1395 36.2068C31.3771 36.0886 31.6605 35.9859 32 35.9859C32.3395 35.9859 32.6229 36.0886 32.8605 36.2068C33.0679 36.31 33.2949 36.4543 33.5191 36.5969C33.5296 36.6036 33.54 36.6102 33.5505 36.6169L33.6932 36.7075C34.5879 37.2762 35.1657 37.6404 35.5856 37.8291C35.5967 37.8341 35.6074 37.8388 35.6179 37.8434C35.617 37.8317 35.6159 37.8195 35.6148 37.807C35.5721 37.3331 35.4177 36.6488 35.1745 35.5877L35.1357 35.4185C35.1328 35.4061 35.13 35.3937 35.1271 35.3813C35.0661 35.1153 35.0043 34.8461 34.9741 34.609C34.9394 34.3373 34.9332 34.0252 35.0381 33.6892C35.143 33.3532 35.3244 33.1045 35.5059 32.9059C35.6643 32.7326 35.8664 32.5526 36.066 32.3747C36.0753 32.3664 36.0846 32.3581 36.0939 32.3498L36.2209 32.2366C37.0171 31.527 37.5286 31.0677 37.8308 30.7105C37.8388 30.7011 37.8465 30.6919 37.8539 30.683C37.8429 30.6802 37.8314 30.6775 37.8196 30.6748C37.3733 30.5706 36.7001 30.5119 35.6551 30.4247L35.4884 30.4108C35.4762 30.4098 35.464 30.4088 35.4518 30.4078C35.1898 30.386 34.9246 30.3639 34.6986 30.3206C34.4396 30.2709 34.1523 30.1807 33.8776 29.973C33.6029 29.7653 33.4317 29.509 33.3063 29.268C33.1968 29.0577 33.0947 28.8021 32.9938 28.5496L32.9155 28.3536C32.5129 27.3464 32.2512 26.6984 32.0181 26.2889C32.0119 26.2781 32.0059 26.2676 32 26.2576C31.9941 26.2676 31.9881 26.2781 31.9819 26.2889ZM32.1763 26.0098C32.1763 26.0098 32.1733 26.0132 32.1672 26.0175C32.1733 26.0116 32.1763 26.0098 32.1763 26.0098ZM31.8328 26.0175C31.8267 26.0132 31.8237 26.0098 31.8237 26.0098C31.8237 26.0098 31.8267 26.0116 31.8328 26.0175ZM38.1348 30.7808C38.1348 30.7808 38.1308 30.7789 38.1249 30.7743C38.1323 30.7784 38.1348 30.7808 38.1348 30.7808ZM38.0216 30.4433C38.0237 30.436 38.0259 30.4319 38.0259 30.4319C38.0259 30.4319 38.0252 30.4355 38.0216 30.4433ZM35.6152 38.1517C35.6152 38.1517 35.6158 38.1471 35.6182 38.1399C35.6167 38.1484 35.6152 38.1517 35.6152 38.1517ZM35.8888 37.9353C35.8961 37.9351 35.9005 37.936 35.9005 37.936C35.9005 37.936 35.897 37.9364 35.8888 37.9353ZM28.0995 37.936C28.0995 37.936 28.1039 37.9351 28.1112 37.9353C28.103 37.9364 28.0995 37.936 28.0995 37.936ZM28.3818 38.1399C28.3842 38.1471 28.3848 38.1517 28.3848 38.1517C28.3848 38.1517 28.3833 38.1484 28.3818 38.1399ZM25.9741 30.4319C25.9741 30.4319 25.9763 30.436 25.9784 30.4433C25.9748 30.4355 25.9741 30.4319 25.9741 30.4319ZM25.8751 30.7743C25.8692 30.7789 25.8652 30.7808 25.8652 30.7808C25.8652 30.7808 25.8677 30.7784 25.8751 30.7743ZM30.2758 25.2373C30.5784 24.7058 31.0972 24 32 24C32.9028 24 33.4216 24.7058 33.7242 25.2373C34.0379 25.7882 34.3524 26.5753 34.7168 27.4871L34.8107 27.7219C34.9316 28.0245 34.9949 28.1796 35.05 28.2854L35.0526 28.2903L35.0579 28.2914C35.1716 28.3131 35.3329 28.3279 35.6469 28.3541L35.8905 28.3744C36.8365 28.4532 37.6531 28.5213 38.2536 28.6614C38.8329 28.7966 39.6384 29.092 39.9173 29.9853C40.1963 30.8787 39.7116 31.6103 39.3192 32.074C38.9126 32.5546 38.2904 33.109 37.5696 33.7514L37.384 33.9168C37.1448 34.1301 37.0226 34.2407 36.9429 34.3278L36.9392 34.3319L36.9399 34.3375C36.9551 34.4567 36.9915 34.6209 37.0646 34.9397L37.1213 35.1871C37.3416 36.1476 37.5317 36.9767 37.5892 37.6142C37.6446 38.2293 37.6235 39.1177 36.8932 39.6698C36.1628 40.2219 35.3444 39.9683 34.7993 39.7233C34.2344 39.4694 33.5353 39.0251 32.7254 38.5103L32.5168 38.3777C32.248 38.2069 32.1092 38.1201 32.0049 38.0682L32 38.0658L31.9951 38.0682C31.8908 38.1201 31.752 38.2069 31.4832 38.3777L31.2746 38.5103C30.4647 39.0251 29.7656 39.4694 29.2007 39.7233C28.6556 39.9683 27.8372 40.2219 27.1068 39.6698C26.3765 39.1177 26.3554 38.2293 26.4108 37.6142C26.4683 36.9767 26.6584 36.1476 26.8787 35.1871L26.9354 34.9397C27.0085 34.6209 27.0449 34.4567 27.0601 34.3375L27.0608 34.3319L27.0571 34.3278C26.9774 34.2407 26.8552 34.1301 26.616 33.9168L26.489 33.8037C26.4694 33.7862 26.4499 33.7688 26.4304 33.7514C25.7096 33.1091 25.0874 32.5546 24.6808 32.074C24.2884 31.6103 23.8037 30.8787 24.0827 29.9853C24.3616 29.092 25.1671 28.7966 25.7464 28.6614C26.3469 28.5213 27.1635 28.4532 28.1095 28.3744C28.135 28.3722 28.1607 28.3701 28.1864 28.368L28.3531 28.3541C28.6671 28.3279 28.8284 28.3131 28.9421 28.2914L28.9474 28.2903L28.95 28.2854C29.0051 28.1796 29.0684 28.0245 29.1893 27.7219L29.2535 27.5612C29.2635 27.5364 29.2733 27.5117 29.2832 27.4871C29.6476 26.5753 29.9621 25.7882 30.2758 25.2373Z" fill="#484848"/>
<path fill-rule="evenodd" clip-rule="evenodd" d="M30.3584 69.2373C30.661 68.7058 31.1799 68 32.0827 68C32.9855 68 33.5043 68.7058 33.8069 69.2373C34.1205 69.7882 34.4351 70.5753 34.7995 71.4871L34.8933 71.7219C35.0143 72.0245 35.0776 72.1796 35.1327 72.2854L35.1352 72.2903L35.1406 72.2914C35.2543 72.3131 35.4156 72.3279 35.7296 72.3541L35.9732 72.3744C36.9192 72.4532 37.7358 72.5213 38.3363 72.6614C38.9156 72.7966 39.721 73.092 40 73.9853C40.279 74.8787 39.7942 75.6103 39.4019 76.074C38.9953 76.5546 38.3731 77.109 37.6523 77.7514L37.4667 77.9168C37.2274 78.1301 37.1052 78.2407 37.0256 78.3278L37.0218 78.3319L37.0225 78.3375C37.0378 78.4567 37.0742 78.6209 37.1473 78.9397L37.204 79.1871C37.4242 80.1476 37.6144 80.9767 37.6718 81.6142C37.7273 82.2294 37.7062 83.1177 36.9759 83.6698C36.2455 84.2219 35.427 83.9683 34.882 83.7233C34.317 83.4694 33.6179 83.0251 32.808 82.5103L32.5995 82.3777C32.3307 82.2069 32.1918 82.1201 32.0876 82.0682L32.0827 82.0658L32.0778 82.0682C31.9735 82.1201 31.8347 82.2069 31.5658 82.3777L31.3573 82.5103C30.5474 83.0251 29.8483 83.4694 29.2834 83.7233C28.7383 83.9683 27.9199 84.2219 27.1895 83.6698C26.4591 83.1177 26.4381 82.2294 26.4935 81.6142C26.551 80.9767 26.7411 80.1476 26.9614 79.1871L27.0181 78.9397C27.0912 78.6209 27.1276 78.4567 27.1428 78.3375L27.1435 78.3319L27.1398 78.3278C27.0601 78.2407 26.9379 78.1301 26.6987 77.9168L26.5717 77.8037C26.5521 77.7862 26.5326 77.7688 26.5131 77.7514C25.7923 77.1091 25.1701 76.5546 24.7635 76.074C24.3711 75.6103 23.8864 74.8787 24.1653 73.9853C24.4443 73.092 25.2497 72.7966 25.8291 72.6614C26.4295 72.5213 27.2461 72.4532 28.1922 72.3744C28.2177 72.3722 28.2434 72.3701 28.2691 72.368L28.4358 72.3541C28.7497 72.3279 28.9111 72.3131 29.0248 72.2914L29.0301 72.2903L29.0327 72.2854C29.0877 72.1796 29.151 72.0245 29.272 71.7219L29.3362 71.5612C29.3461 71.5364 29.356 71.5117 29.3659 71.4871C29.7303 70.5753 30.0448 69.7882 30.3584 69.2373Z" fill="#484848"/>
</svg>
