<svg width="24" height="24" viewBox="0 0 24 24" fill="none" xmlns="http://www.w3.org/2000/svg">
<path fill-rule="evenodd" clip-rule="evenodd" d="M9 17C9.53043 17 10.0391 17.2107 10.4142 17.5858L12 19.1716L13.5858 17.5858C13.9609 17.2107 14.4696 17 15 17H15.08C16.0006 17 16.5949 16.999 17.0502 16.9692C17.4885 16.9404 17.6562 16.8912 17.7362 16.8596C18.2497 16.6563 18.6563 16.2497 18.8596 15.7362C18.8912 15.6562 18.9404 15.4885 18.9692 15.0502C18.999 14.5949 19 14.0006 19 13.08V7.92C19 6.99941 18.999 6.40511 18.9692 5.94981C18.9404 5.5115 18.8912 5.34378 18.8596 5.26375C18.6563 4.75029 18.2497 4.34374 17.7362 4.14045C17.6562 4.10876 17.4885 4.05955 17.0502 4.03083C16.5949 4.001 16.0006 4 15.08 4H8.92C7.99941 4 7.40511 4.001 6.94981 4.03083C6.5115 4.05955 6.34378 4.10876 6.26375 4.14045C5.75029 4.34374 5.34374 4.75029 5.14045 5.26375C5.10876 5.34378 5.05955 5.5115 5.03083 5.94981C5.001 6.40511 5 6.99941 5 7.92V13.08C5 14.0006 5.001 14.5949 5.03083 15.0502C5.05955 15.4885 5.10876 15.6562 5.14045 15.7362C5.34374 16.2497 5.75029 16.6563 6.26375 16.8596C6.34378 16.8912 6.5115 16.9404 6.94981 16.9692C7.40511 16.999 7.99941 17 8.92 17H9ZM15 19H15.08C16.8687 19 17.763 19 18.4725 18.7191C19.4994 18.3125 20.3125 17.4994 20.7191 16.4725C21 15.763 21 14.8687 21 13.08V7.92C21 6.13131 21 5.23696 20.7191 4.5275C20.3125 3.50058 19.4994 2.68748 18.4725 2.28089C17.763 2 16.8687 2 15.08 2H8.92C7.13131 2 6.23696 2 5.5275 2.28089C4.50058 2.68748 3.68748 3.50058 3.28089 4.5275C3 5.23696 3 6.13131 3 7.92V13.08C3 14.8687 3 15.763 3.28089 16.4725C3.68748 17.4994 4.50058 18.3125 5.5275 18.7191C6.23696 19 7.13131 19 8.92 19H9L10.9535 20.9535C11.2697 21.2697 11.4278 21.4278 11.6029 21.5035C11.8563 21.6132 12.1437 21.6132 12.3971 21.5035C12.5722 21.4278 12.7303 21.2697 13.0465 20.9535L15 19Z" fill="#484848"/>
<path fill-rule="evenodd" clip-rule="evenodd" d="M7 19C7.55229 19 8 18.5523 8 18C8 16.3431 9.34315 15 11 15H13C14.6569 15 16 16.3431 16 18C16 18.5523 16.4477 19 17 19C17.5523 19 18 18.5523 18 18C18 15.2386 15.7614 13 13 13H11C8.23858 13 6 15.2386 6 18C6 18.5523 6.44772 19 7 19Z" fill="#484848"/>
<path fill-rule="evenodd" clip-rule="evenodd" d="M12 10C12.5523 10 13 9.55228 13 9C13 8.44772 12.5523 8 12 8C11.4477 8 11 8.44772 11 9C11 9.55228 11.4477 10 12 10ZM12 12C13.6569 12 15 10.6569 15 9C15 7.34315 13.6569 6 12 6C10.3431 6 9 7.34315 9 9C9 10.6569 10.3431 12 12 12Z" fill="#484848"/>
</svg>
