<svg width="24" height="24" viewBox="0 0 24 24" fill="none" xmlns="http://www.w3.org/2000/svg">
<path fill-rule="evenodd" clip-rule="evenodd" d="M14 4H10C8.05784 4 6.80242 4.00425 5.87741 4.12861C5.00993 4.24524 4.73803 4.43354 4.58579 4.58579C4.43354 4.73803 4.24524 5.00993 4.12861 5.87741C4.00425 6.80242 4 8.05784 4 10V14C4 15.9422 4.00425 17.1976 4.12861 18.1226C4.24524 18.9901 4.43354 19.262 4.58579 19.4142C4.73803 19.5665 5.00993 19.7548 5.87741 19.8714C6.80242 19.9958 8.05784 20 10 20H14C15.9422 20 17.1976 19.9958 18.1226 19.8714C18.9901 19.7548 19.262 19.5665 19.4142 19.4142C19.5665 19.262 19.7548 18.9901 19.8714 18.1226C19.9958 17.1976 20 15.9422 20 14V10C20 8.05784 19.9958 6.80242 19.8714 5.87741C19.7548 5.00993 19.5665 4.73803 19.4142 4.58579C19.262 4.43354 18.9901 4.24524 18.1226 4.12861C17.1976 4.00425 15.9422 4 14 4ZM3.17157 3.17157C2 4.34315 2 6.22876 2 10V14C2 17.7712 2 19.6569 3.17157 20.8284C4.34315 22 6.22876 22 10 22H14C17.7712 22 19.6569 22 20.8284 20.8284C22 19.6569 22 17.7712 22 14V10C22 6.22876 22 4.34315 20.8284 3.17157C19.6569 2 17.7712 2 14 2H10C6.22876 2 4.34315 2 3.17157 3.17157Z" fill="#484848"/>
<path fill-rule="evenodd" clip-rule="evenodd" d="M17 22C17.5523 22 18 21.5523 18 21V19C18 15.6863 15.3137 13 12 13C8.68629 13 6 15.6863 6 19L6 21C6 21.5523 6.44771 22 7 22C7.55228 22 8 21.5523 8 21L8 19C8 16.7909 9.79086 15 12 15C14.2091 15 16 16.7909 16 19V21C16 21.5523 16.4477 22 17 22Z" fill="#484848"/>
<path fill-rule="evenodd" clip-rule="evenodd" d="M12 10C12.5523 10 13 9.55228 13 9C13 8.44772 12.5523 8 12 8C11.4477 8 11 8.44772 11 9C11 9.55228 11.4477 10 12 10ZM12 12C13.6569 12 15 10.6569 15 9C15 7.34315 13.6569 6 12 6C10.3431 6 9 7.34315 9 9C9 10.6569 10.3431 12 12 12Z" fill="#484848"/>
</svg>
