<svg width="24" height="24" viewBox="0 0 24 24" fill="none" xmlns="http://www.w3.org/2000/svg">
<path fill-rule="evenodd" clip-rule="evenodd" d="M17 22C17.5523 22 18 21.5523 18 21V20C18 15.5817 14.4183 12 10 12C5.58172 12 2 15.5817 2 20L2 21C2 21.5523 2.44771 22 3 22C3.55228 22 4 21.5523 4 21L4 20C4 16.6863 6.68629 14 10 14C13.3137 14 16 16.6863 16 20V21C16 21.5523 16.4477 22 17 22Z" fill="#484848"/>
<path fill-rule="evenodd" clip-rule="evenodd" d="M10 8C11.1046 8 12 7.10457 12 6C12 4.89543 11.1046 4 10 4C8.89543 4 8 4.89543 8 6C8 7.10457 8.89543 8 10 8ZM10 10C12.2091 10 14 8.20914 14 6C14 3.79086 12.2091 2 10 2C7.79086 2 6 3.79086 6 6C6 8.20914 7.79086 10 10 10Z" fill="#484848"/>
<path fill-rule="evenodd" clip-rule="evenodd" d="M21.7071 7.29289C22.0976 7.68342 22.0976 8.31658 21.7071 8.70711L18.4142 12C17.6332 12.781 16.3668 12.781 15.5858 12L14.2929 10.7071C13.9024 10.3166 13.9024 9.68342 14.2929 9.29289C14.6834 8.90237 15.3166 8.90237 15.7071 9.29289L17 10.5858L20.2929 7.29289C20.6834 6.90237 21.3166 6.90237 21.7071 7.29289Z" fill="#484848"/>
</svg>
