<svg width="18" height="20" viewBox="0 0 18 20" fill="none" xmlns="http://www.w3.org/2000/svg">
<path fill-rule="evenodd" clip-rule="evenodd" d="M6 15C6.53043 15 7.03914 15.2107 7.41421 15.5858L9 17.1716L10.5858 15.5858C10.9609 15.2107 11.4696 15 12 15H12.08C13.0006 15 13.5949 14.999 14.0502 14.9692C14.4885 14.9404 14.6562 14.8912 14.7362 14.8596C15.2497 14.6563 15.6563 14.2497 15.8596 13.7362C15.8912 13.6562 15.9404 13.4885 15.9692 13.0502C15.999 12.5949 16 12.0006 16 11.08V5.92C16 4.99941 15.999 4.40511 15.9692 3.94981C15.9404 3.5115 15.8912 3.34378 15.8596 3.26375C15.6563 2.75029 15.2497 2.34374 14.7362 2.14045C14.6562 2.10876 14.4885 2.05955 14.0502 2.03083C13.5949 2.001 13.0006 2 12.08 2H5.92C4.99941 2 4.40511 2.001 3.94981 2.03083C3.5115 2.05955 3.34378 2.10876 3.26375 2.14045C2.75029 2.34374 2.34374 2.75029 2.14045 3.26375C2.10876 3.34378 2.05955 3.5115 2.03083 3.94981C2.001 4.40511 2 4.99941 2 5.92V11.08C2 12.0006 2.001 12.5949 2.03083 13.0502C2.05955 13.4885 2.10876 13.6562 2.14045 13.7362C2.34374 14.2497 2.75029 14.6563 3.26375 14.8596C3.34378 14.8912 3.5115 14.9404 3.94981 14.9692C4.40511 14.999 4.99941 15 5.92 15H6ZM12 17H12.08C13.8687 17 14.763 17 15.4725 16.7191C16.4994 16.3125 17.3125 15.4994 17.7191 14.4725C18 13.763 18 12.8687 18 11.08V5.92C18 4.13131 18 3.23696 17.7191 2.5275C17.3125 1.50058 16.4994 0.68748 15.4725 0.280894C14.763 0 13.8687 0 12.08 0H5.92C4.13131 0 3.23696 0 2.5275 0.280894C1.50058 0.68748 0.68748 1.50058 0.280894 2.5275C0 3.23696 0 4.13131 0 5.92V11.08C0 12.8687 0 13.763 0.280894 14.4725C0.68748 15.4994 1.50058 16.3125 2.5275 16.7191C3.23696 17 4.13131 17 5.92 17H6L7.95348 18.9535C8.26968 19.2697 8.42778 19.4278 8.60285 19.5035C8.85626 19.6132 9.14374 19.6132 9.39715 19.5035C9.57222 19.4278 9.73032 19.2697 10.0465 18.9535L12 17Z" fill="#484848"/>
<path fill-rule="evenodd" clip-rule="evenodd" d="M4 17C4.55229 17 5 16.5523 5 16C5 14.3431 6.34315 13 8 13H10C11.6569 13 13 14.3431 13 16C13 16.5523 13.4477 17 14 17C14.5523 17 15 16.5523 15 16C15 13.2386 12.7614 11 10 11H8C5.23858 11 3 13.2386 3 16C3 16.5523 3.44772 17 4 17Z" fill="#484848"/>
<path fill-rule="evenodd" clip-rule="evenodd" d="M9 8C9.55228 8 10 7.55228 10 7C10 6.44772 9.55228 6 9 6C8.44772 6 8 6.44772 8 7C8 7.55228 8.44772 8 9 8ZM9 10C10.6569 10 12 8.65685 12 7C12 5.34315 10.6569 4 9 4C7.34315 4 6 5.34315 6 7C6 8.65685 7.34315 10 9 10Z" fill="#484848"/>
</svg>
