<svg width="24" height="24" viewBox="0 0 24 24" fill="none" xmlns="http://www.w3.org/2000/svg">
<path fill-rule="evenodd" clip-rule="evenodd" d="M10 4C8.89543 4 8 4.89543 8 6C8 7.10457 8.89543 8 10 8C11.1046 8 12 7.10457 12 6C12 4.89543 11.1046 4 10 4ZM6 6C6 3.79086 7.79086 2 10 2C12.2091 2 14 3.79086 14 6C14 8.20914 12.2091 10 10 10C7.79086 10 6 8.20914 6 6ZM19 8C19.5523 8 20 8.44772 20 9V10L21 10C21.5523 10 22 10.4477 22 11C22 11.5523 21.5523 12 21 12L20 12V13C20 13.5523 19.5523 14 19 14C18.4477 14 18 13.5523 18 13V12L17 12C16.4477 12 16 11.5523 16 11C16 10.4477 16.4477 10 17 10L18 10V9C18 8.44772 18.4477 8 19 8ZM10 14C6.68629 14 4 16.6863 4 20V21C4 21.5523 3.55228 22 3 22C2.44772 22 2 21.5523 2 21L2 20C2 15.5817 5.58172 12 10 12C14.4183 12 18 15.5817 18 20V21C18 21.5523 17.5523 22 17 22C16.4477 22 16 21.5523 16 21V20C16 16.6863 13.3137 14 10 14Z" fill="#484848"/>
</svg>
