<svg width="20" height="20" viewBox="0 0 20 20" fill="none" xmlns="http://www.w3.org/2000/svg">
<path fill-rule="evenodd" clip-rule="evenodd" d="M10 18C14.4183 18 18 14.4183 18 10C18 5.58172 14.4183 2 10 2C5.58172 2 2 5.58172 2 10C2 14.4183 5.58172 18 10 18ZM10 20C15.5228 20 20 15.5228 20 10C20 4.47715 15.5228 0 10 0C4.47715 0 0 4.47715 0 10C0 15.5228 4.47715 20 10 20Z" fill="#484848"/>
<path fill-rule="evenodd" clip-rule="evenodd" d="M15 18C15.5523 18 16 17.5523 16 17C16 13.6863 13.3137 11 10 11C6.68629 11 4 13.6863 4 17C4 17.5523 4.44771 18 5 18C5.55228 18 6 17.5523 6 17C6 14.7909 7.79086 13 10 13C12.2091 13 14 14.7909 14 17C14 17.5523 14.4477 18 15 18Z" fill="#484848"/>
<path fill-rule="evenodd" clip-rule="evenodd" d="M10 8C10.5523 8 11 7.55228 11 7C11 6.44772 10.5523 6 10 6C9.44772 6 9 6.44772 9 7C9 7.55228 9.44772 8 10 8ZM10 10C11.6569 10 13 8.65685 13 7C13 5.34315 11.6569 4 10 4C8.34315 4 7 5.34315 7 7C7 8.65685 8.34315 10 10 10Z" fill="#484848"/>
</svg>
