<svg width="24" height="24" viewBox="0 0 24 24" fill="none" xmlns="http://www.w3.org/2000/svg">
<path fill-rule="evenodd" clip-rule="evenodd" d="M17 22C17.5523 22 18 21.5523 18 21V20C18 15.5817 14.4183 12 10 12C5.58172 12 2 15.5817 2 20L2 21C2 21.5523 2.44771 22 3 22C3.55228 22 4 21.5523 4 21L4 20C4 16.6863 6.68629 14 10 14C13.3137 14 16 16.6863 16 20V21C16 21.5523 16.4477 22 17 22Z" fill="#484848"/>
<path fill-rule="evenodd" clip-rule="evenodd" d="M10 8C11.1046 8 12 7.10457 12 6C12 4.89543 11.1046 4 10 4C8.89543 4 8 4.89543 8 6C8 7.10457 8.89543 8 10 8ZM10 10C12.2091 10 14 8.20914 14 6C14 3.79086 12.2091 2 10 2C7.79086 2 6 3.79086 6 6C6 8.20914 7.79086 10 10 10Z" fill="#484848"/>
<path fill-rule="evenodd" clip-rule="evenodd" d="M22 11C22 11.5523 21.5523 12 21 12L17 12C16.4477 12 16 11.5523 16 11C16 10.4477 16.4477 10 17 10L21 10C21.5523 10 22 10.4477 22 11Z" fill="#484848"/>
</svg>
