<svg width="16" height="20" viewBox="0 0 16 20" fill="none" xmlns="http://www.w3.org/2000/svg">
<path fill-rule="evenodd" clip-rule="evenodd" d="M15 20C15.5523 20 16 19.5523 16 19V18C16 13.5817 12.4183 10 8 10C3.58172 10 3.29681e-06 13.5817 6.32473e-07 18L0 19C-3.77745e-07 19.5523 0.447715 20 1 20C1.55228 20 2 19.5523 2 19L2 18C2 14.6863 4.68629 12 8 12C11.3137 12 14 14.6863 14 18V19C14 19.5523 14.4477 20 15 20Z" fill="#484848"/>
<path fill-rule="evenodd" clip-rule="evenodd" d="M8 6C9.10457 6 10 5.10457 10 4C10 2.89543 9.10457 2 8 2C6.89543 2 6 2.89543 6 4C6 5.10457 6.89543 6 8 6ZM8 8C10.2091 8 12 6.20914 12 4C12 1.79086 10.2091 0 8 0C5.79086 0 4 1.79086 4 4C4 6.20914 5.79086 8 8 8Z" fill="#484848"/>
</svg>
