<svg width="64" height="108" viewBox="0 0 64 108" fill="none" xmlns="http://www.w3.org/2000/svg">
<rect x="0.5" y="0.5" width="63" height="107" rx="4.5" stroke="#9747FF" stroke-dasharray="10 5"/>
<path fill-rule="evenodd" clip-rule="evenodd" d="M39 42C39.5523 42 40 41.5523 40 41V40C40 35.5817 36.4183 32 32 32C27.5817 32 24 35.5817 24 40L24 41C24 41.5523 24.4477 42 25 42C25.5523 42 26 41.5523 26 41L26 40C26 36.6863 28.6863 34 32 34C35.3137 34 38 36.6863 38 40V41C38 41.5523 38.4477 42 39 42Z" fill="#484848"/>
<path fill-rule="evenodd" clip-rule="evenodd" d="M32 28C33.1046 28 34 27.1046 34 26C34 24.8954 33.1046 24 32 24C30.8954 24 30 24.8954 30 26C30 27.1046 30.8954 28 32 28ZM32 30C34.2091 30 36 28.2091 36 26C36 23.7909 34.2091 22 32 22C29.7909 22 28 23.7909 28 26C28 28.2091 29.7909 30 32 30Z" fill="#484848"/>
<path d="M24 84L24 84.8235C24 85.4733 24.5267 86 25.1765 86L38.8235 86C39.4733 86 40 85.4733 40 84.8235V84C40 79.5817 36.4183 76 32 76C27.5817 76 24 79.5817 24 84Z" fill="#484848"/>
<path d="M36 70C36 72.2091 34.2091 74 32 74C29.7909 74 28 72.2091 28 70C28 67.7909 29.7909 66 32 66C34.2091 66 36 67.7909 36 70Z" fill="#484848"/>
</svg>
