<svg width="20" height="20" viewBox="0 0 20 20" fill="none" xmlns="http://www.w3.org/2000/svg">
<path fill-rule="evenodd" clip-rule="evenodd" d="M8 2C6.89543 2 6 2.89543 6 4C6 5.10457 6.89543 6 8 6C9.10457 6 10 5.10457 10 4C10 2.89543 9.10457 2 8 2ZM4 4C4 1.79086 5.79086 0 8 0C10.2091 0 12 1.79086 12 4C12 6.20914 10.2091 8 8 8C5.79086 8 4 6.20914 4 4ZM17 6C17.5523 6 18 6.44772 18 7V8L19 8C19.5523 8 20 8.44772 20 9C20 9.55229 19.5523 10 19 10L18 10V11C18 11.5523 17.5523 12 17 12C16.4477 12 16 11.5523 16 11V10L15 10C14.4477 10 14 9.55228 14 9C14 8.44771 14.4477 8 15 8L16 8V7C16 6.44772 16.4477 6 17 6ZM8 12C4.68629 12 2 14.6863 2 18V19C2 19.5523 1.55228 20 1 20C0.447715 20 0 19.5523 0 19L5.96046e-08 18C3.39746e-06 13.5817 3.58172 10 8 10C12.4183 10 16 13.5817 16 18V19C16 19.5523 15.5523 20 15 20C14.4477 20 14 19.5523 14 19V18C14 14.6863 11.3137 12 8 12Z" fill="#484848"/>
</svg>
