<svg width="20" height="16" viewBox="0 0 20 16" fill="none" xmlns="http://www.w3.org/2000/svg">
<path fill-rule="evenodd" clip-rule="evenodd" d="M15 16C15.5523 16 16 15.5523 16 15V14C16 10.6863 13.3137 8 10 8C6.68629 8 4 10.6863 4 14L4 15C4 15.5523 4.44771 16 5 16C5.55228 16 6 15.5523 6 15L6 14C6 11.7909 7.79086 10 10 10C12.2091 10 14 11.7909 14 14V15C14 15.5523 14.4477 16 15 16Z" fill="#484848"/>
<path fill-rule="evenodd" clip-rule="evenodd" d="M19 13C19.5523 13 20 12.5523 20 12C20 9.23858 17.7614 7 15 7C14.4477 7 14 7.44772 14 8C14 8.55228 14.4477 9 15 9C16.6569 9 18 10.3431 18 12C18 12.5523 18.4477 13 19 13Z" fill="#484848"/>
<path fill-rule="evenodd" clip-rule="evenodd" d="M1 13C0.447715 13 2.01176e-08 12.5523 0 12C-1.00588e-07 9.23858 2.23858 7 5 7C5.55228 7 6 7.44772 6 8C6 8.55228 5.55228 9 5 9C3.34315 9 2 10.3431 2 12C2 12.5523 1.55228 13 1 13Z" fill="#484848"/>
<path fill-rule="evenodd" clip-rule="evenodd" d="M10 5C10.5523 5 11 4.55228 11 4C11 3.44772 10.5523 3 10 3C9.44772 3 9 3.44772 9 4C9 4.55228 9.44772 5 10 5ZM10 7C11.6569 7 13 5.65685 13 4C13 2.34315 11.6569 1 10 1C8.34315 1 7 2.34315 7 4C7 5.65685 8.34315 7 10 7Z" fill="#484848"/>
<path fill-rule="evenodd" clip-rule="evenodd" d="M15.2377 3.97712C15.2124 3.98777 15.1872 3.99917 15.1623 4.01135C14.9573 4.11195 14.7768 4.26555 14.7383 4.4844L14.6529 4.96857C14.5569 5.51304 14.9296 6.0497 15.4755 5.96208C15.6495 5.93415 15.8214 5.89082 15.9891 5.83227C16.4737 5.66304 16.9067 5.3723 17.2469 4.98786C17.587 4.60342 17.8228 4.13814 17.9317 3.63653C18.0406 3.13492 18.019 2.61375 17.8689 2.12288C17.7188 1.63201 17.4453 1.18786 17.0745 0.832908C16.7038 0.477955 16.2481 0.224077 15.7511 0.095557C15.2542 -0.0329627 14.7326 -0.0318247 14.2362 0.0988623C14.0645 0.144078 13.8977 0.204277 13.7378 0.278447C13.2362 0.511061 13.2274 1.16438 13.6114 1.56208L13.9529 1.91574C14.1073 2.0756 14.3428 2.10202 14.569 2.07077C14.5964 2.06699 14.6237 2.06236 14.6507 2.05702C14.6659 2.054 14.6811 2.05075 14.6961 2.04729C14.7129 2.04344 14.7295 2.03933 14.7459 2.03501C14.911 1.99154 15.0846 1.99116 15.2498 2.03391C15.4151 2.07666 15.5667 2.1611 15.69 2.27917C15.8134 2.39724 15.9044 2.54497 15.9543 2.70825C16.0042 2.87153 16.0114 3.04488 15.9752 3.21173C15.9389 3.37858 15.8605 3.53334 15.7474 3.66121C15.6342 3.78909 15.4902 3.88579 15.329 3.94208C15.313 3.94768 15.2969 3.95358 15.2808 3.95976C15.2664 3.96531 15.252 3.97109 15.2377 3.97712ZM15.9884 5.83026C15.9881 5.83035 15.9885 5.8302 15.9884 5.83026V5.83026Z" fill="#484848"/>
<path fill-rule="evenodd" clip-rule="evenodd" d="M4.76231 3.97712C4.78765 3.98777 4.81283 3.99917 4.83766 4.01135C5.04269 4.11195 5.22315 4.26555 5.26174 4.4844L5.34711 4.96857C5.44312 5.51304 5.07042 6.0497 4.52454 5.96208C4.35048 5.93415 4.17859 5.89082 4.01093 5.83227C3.52633 5.66304 3.09326 5.3723 2.75313 4.98786C2.41301 4.60342 2.17722 4.13814 2.06831 3.63653C1.9594 3.13492 1.98101 2.61375 2.13109 2.12288C2.28116 1.63201 2.55467 1.18786 2.92546 0.832908C3.29625 0.477955 3.75191 0.224077 4.24886 0.095557C4.74581 -0.0329627 5.26742 -0.0318247 5.76381 0.0988623C5.93555 0.144078 6.10228 0.204277 6.2622 0.278447C6.76376 0.511061 6.77264 1.16438 6.38858 1.56208L6.04705 1.91574C5.89268 2.0756 5.65718 2.10202 5.43095 2.07077C5.40356 2.06699 5.3763 2.06236 5.34934 2.05702C5.33409 2.054 5.31893 2.05075 5.3039 2.04729C5.28712 2.04344 5.27049 2.03933 5.25406 2.03501C5.08895 1.99154 4.91545 1.99116 4.75015 2.03391C4.58485 2.07666 4.43329 2.1611 4.30996 2.27917C4.18662 2.39724 4.09565 2.54497 4.04573 2.70825C3.99581 2.87153 3.98862 3.04488 4.02485 3.21173C4.06107 3.37858 4.1395 3.53334 4.25264 3.66121C4.36577 3.78909 4.50982 3.88579 4.67101 3.94208C4.68705 3.94768 4.70313 3.95358 4.71919 3.95976C4.73359 3.96531 4.74797 3.97109 4.76231 3.97712ZM4.01163 5.83026C4.01147 5.8302 4.01189 5.83035 4.01163 5.83026V5.83026Z" fill="#484848"/>
</svg>
