<svg width="24" height="24" viewBox="0 0 24 24" fill="none" xmlns="http://www.w3.org/2000/svg">
<path fill-rule="evenodd" clip-rule="evenodd" d="M17 20C17.5523 20 18 19.5523 18 19V18C18 14.6863 15.3137 12 12 12C8.68629 12 6 14.6863 6 18L6 19C6 19.5523 6.44771 20 7 20C7.55228 20 8 19.5523 8 19L8 18C8 15.7909 9.79086 14 12 14C14.2091 14 16 15.7909 16 18V19C16 19.5523 16.4477 20 17 20Z" fill="#484848"/>
<path fill-rule="evenodd" clip-rule="evenodd" d="M21 17C21.5523 17 22 16.5523 22 16C22 13.2386 19.7614 11 17 11C16.4477 11 16 11.4477 16 12C16 12.5523 16.4477 13 17 13C18.6569 13 20 14.3431 20 16C20 16.5523 20.4477 17 21 17Z" fill="#484848"/>
<path fill-rule="evenodd" clip-rule="evenodd" d="M3 17C2.44772 17 2 16.5523 2 16C2 13.2386 4.23858 11 7 11C7.55228 11 8 11.4477 8 12C8 12.5523 7.55228 13 7 13C5.34315 13 4 14.3431 4 16C4 16.5523 3.55228 17 3 17Z" fill="#484848"/>
<path fill-rule="evenodd" clip-rule="evenodd" d="M12 9C12.5523 9 13 8.55228 13 8C13 7.44772 12.5523 7 12 7C11.4477 7 11 7.44772 11 8C11 8.55228 11.4477 9 12 9ZM12 11C13.6569 11 15 9.65685 15 8C15 6.34315 13.6569 5 12 5C10.3431 5 9 6.34315 9 8C9 9.65685 10.3431 11 12 11Z" fill="#484848"/>
<path fill-rule="evenodd" clip-rule="evenodd" d="M17.2377 7.97712C17.2124 7.98777 17.1872 7.99917 17.1623 8.01135C16.9573 8.11195 16.7768 8.26555 16.7383 8.4844L16.6529 8.96857C16.5569 9.51304 16.9296 10.0497 17.4755 9.96208C17.6495 9.93415 17.8214 9.89082 17.9891 9.83227C18.4737 9.66304 18.9067 9.3723 19.2469 8.98786C19.587 8.60342 19.8228 8.13814 19.9317 7.63653C20.0406 7.13492 20.019 6.61375 19.8689 6.12288C19.7188 5.63201 19.4453 5.18786 19.0745 4.83291C18.7038 4.47796 18.2481 4.22408 17.7511 4.09556C17.2542 3.96704 16.7326 3.96818 16.2362 4.09886C16.0645 4.14408 15.8977 4.20428 15.7378 4.27845C15.2362 4.51106 15.2274 5.16438 15.6114 5.56208L15.9529 5.91574C16.1073 6.0756 16.3428 6.10202 16.569 6.07077C16.5964 6.06699 16.6237 6.06236 16.6507 6.05702C16.6659 6.054 16.6811 6.05075 16.6961 6.04729C16.7129 6.04344 16.7295 6.03933 16.7459 6.03501C16.911 5.99154 17.0846 5.99116 17.2498 6.03391C17.4151 6.07666 17.5667 6.1611 17.69 6.27917C17.8134 6.39724 17.9044 6.54497 17.9543 6.70825C18.0042 6.87153 18.0114 7.04488 17.9752 7.21173C17.9389 7.37858 17.8605 7.53334 17.7474 7.66121C17.6342 7.78909 17.4902 7.88579 17.329 7.94208C17.313 7.94768 17.2969 7.95358 17.2808 7.95976C17.2664 7.96531 17.252 7.97109 17.2377 7.97712ZM17.9884 9.83026C17.9885 9.8302 17.9881 9.83035 17.9884 9.83026Z" fill="#484848"/>
<path fill-rule="evenodd" clip-rule="evenodd" d="M6.76231 7.97712C6.78765 7.98777 6.81283 7.99917 6.83766 8.01135C7.04269 8.11195 7.22315 8.26555 7.26174 8.4844L7.34711 8.96857C7.44312 9.51304 7.07042 10.0497 6.52454 9.96208C6.35048 9.93415 6.17859 9.89082 6.01093 9.83227C5.52633 9.66304 5.09326 9.3723 4.75313 8.98786C4.41301 8.60342 4.17722 8.13814 4.06831 7.63653C3.9594 7.13492 3.98101 6.61375 4.13109 6.12288C4.28116 5.63201 4.55467 5.18786 4.92546 4.83291C5.29625 4.47796 5.75191 4.22408 6.24886 4.09556C6.74581 3.96704 7.26742 3.96818 7.76381 4.09886C7.93555 4.14408 8.10228 4.20428 8.2622 4.27845C8.76376 4.51106 8.77264 5.16438 8.38858 5.56208L8.04705 5.91574C7.89269 6.0756 7.65718 6.10202 7.43095 6.07077C7.40356 6.06699 7.3763 6.06236 7.34934 6.05702C7.33409 6.054 7.31893 6.05075 7.3039 6.04729C7.28712 6.04344 7.27049 6.03933 7.25406 6.03501C7.08895 5.99154 6.91545 5.99116 6.75015 6.03391C6.58485 6.07666 6.43329 6.1611 6.30996 6.27917C6.18662 6.39724 6.09565 6.54497 6.04573 6.70825C5.99581 6.87153 5.98862 7.04488 6.02485 7.21173C6.06107 7.37858 6.1395 7.53334 6.25264 7.66121C6.36577 7.78909 6.50982 7.88579 6.67101 7.94208C6.68705 7.94768 6.70313 7.95358 6.71919 7.95976C6.73359 7.96531 6.74797 7.97109 6.76231 7.97712ZM6.01163 9.83026C6.01147 9.8302 6.01189 9.83035 6.01163 9.83026Z" fill="#484848"/>
</svg>
