<svg width="64" height="108" viewBox="0 0 64 108" fill="none" xmlns="http://www.w3.org/2000/svg">
<rect x="0.5" y="0.5" width="63" height="107" rx="4.5" stroke="#9747FF" stroke-dasharray="10 5"/>
<path fill-rule="evenodd" clip-rule="evenodd" d="M34 26H30C28.0578 26 26.8024 26.0042 25.8774 26.1286C25.0099 26.2452 24.738 26.4335 24.5858 26.5858C24.4335 26.738 24.2452 27.0099 24.1286 27.8774C24.0042 28.8024 24 30.0578 24 32C24 33.9422 24.0042 35.1976 24.1286 36.1226C24.2452 36.9901 24.4335 37.262 24.5858 37.4142C24.738 37.5665 25.0099 37.7548 25.8774 37.8714C26.8024 37.9958 28.0578 38 30 38H34C35.9422 38 37.1976 37.9958 38.1226 37.8714C38.9901 37.7548 39.262 37.5665 39.4142 37.4142C39.5665 37.262 39.7548 36.9901 39.8714 36.1226C39.9958 35.1976 40 33.9422 40 32C40 30.0578 39.9958 28.8024 39.8714 27.8774C39.7548 27.0099 39.5665 26.738 39.4142 26.5858C39.262 26.4335 38.9901 26.2452 38.1226 26.1286C37.1976 26.0042 35.9422 26 34 26ZM23.1716 25.1716C22 26.3431 22 28.2288 22 32C22 35.7712 22 37.6569 23.1716 38.8284C24.3431 40 26.2288 40 30 40H34C37.7712 40 39.6569 40 40.8284 38.8284C42 37.6569 42 35.7712 42 32C42 28.2288 42 26.3431 40.8284 25.1716C39.6569 24 37.7712 24 34 24H30C26.2288 24 24.3431 24 23.1716 25.1716Z" fill="#484848"/>
<path fill-rule="evenodd" clip-rule="evenodd" d="M22.5 29C22.5 28.4477 22.9477 28 23.5 28H40.5C41.0523 28 41.5 28.4477 41.5 29C41.5 29.5523 41.0523 30 40.5 30H23.5C22.9477 30 22.5 29.5523 22.5 29Z" fill="#484848"/>
<path fill-rule="evenodd" clip-rule="evenodd" d="M26 33C26 32.4477 26.4477 32 27 32H31C31.5523 32 32 32.4477 32 33C32 33.5523 31.5523 34 31 34H27C26.4477 34 26 33.5523 26 33Z" fill="#484848"/>
<path fill-rule="evenodd" clip-rule="evenodd" d="M22 76C22 75.2645 22 74.6007 22.0087 74H41.9913C42 74.6007 42 75.2645 42 76C42 79.7712 42 81.6569 40.8284 82.8284C39.6569 84 37.7712 84 34 84H30C26.2288 84 24.3431 84 23.1716 82.8284C22 81.6569 22 79.7712 22 76ZM27 76C26.4477 76 26 76.4477 26 77C26 77.5523 26.4477 78 27 78H31C31.5523 78 32 77.5523 32 77C32 76.4477 31.5523 76 31 76H27Z" fill="#484848"/>
<path d="M41.8985 72H22.1015C22.2294 70.6999 22.5184 69.8248 23.1716 69.1716C24.3431 68 26.2288 68 30 68H34C37.7712 68 39.6569 68 40.8284 69.1716C41.4816 69.8248 41.7706 70.6999 41.8985 72Z" fill="#484848"/>
</svg>
