<svg width="64" height="108" viewBox="0 0 64 108" fill="none" xmlns="http://www.w3.org/2000/svg">
<rect x="0.5" y="0.5" width="63" height="107" rx="4.5" stroke="#9747FF" stroke-dasharray="10 5"/>
<path fill-rule="evenodd" clip-rule="evenodd" d="M34 26H30C28.0578 26 26.8024 26.0042 25.8774 26.1286C25.0099 26.2452 24.738 26.4335 24.5858 26.5858C24.4335 26.738 24.2452 27.0099 24.1286 27.8774C24.0042 28.8024 24 30.0578 24 32C24 33.9422 24.0042 35.1976 24.1286 36.1226C24.2452 36.9901 24.4335 37.262 24.5858 37.4142C24.738 37.5665 25.0099 37.7548 25.8774 37.8714C26.8024 37.9958 28.0578 38 30 38H34C35.9422 38 37.1976 37.9958 38.1226 37.8714C38.9901 37.7548 39.262 37.5665 39.4142 37.4142C39.5665 37.262 39.7548 36.9901 39.8714 36.1226C39.9958 35.1976 40 33.9422 40 32C40 30.0578 39.9958 28.8024 39.8714 27.8774C39.7548 27.0099 39.5665 26.738 39.4142 26.5858C39.262 26.4335 38.9901 26.2452 38.1226 26.1286C37.1976 26.0042 35.9422 26 34 26ZM23.1716 25.1716C22 26.3431 22 28.2288 22 32C22 35.7712 22 37.6569 23.1716 38.8284C24.3431 40 26.2288 40 30 40H34C37.7712 40 39.6569 40 40.8284 38.8284C42 37.6569 42 35.7712 42 32C42 28.2288 42 26.3431 40.8284 25.1716C39.6569 24 37.7712 24 34 24H30C26.2288 24 24.3431 24 23.1716 25.1716Z" fill="#484848"/>
<path fill-rule="evenodd" clip-rule="evenodd" d="M32 33C32.5523 33 33 32.5523 33 32C33 31.4477 32.5523 31 32 31C31.4477 31 31 31.4477 31 32C31 32.5523 31.4477 33 32 33ZM32 35C33.6569 35 35 33.6569 35 32C35 30.3431 33.6569 29 32 29C30.3431 29 29 30.3431 29 32C29 33.6569 30.3431 35 32 35Z" fill="#484848"/>
<path d="M30 69H34C35.9139 69 37.2487 69.0023 38.2559 69.1377C39.2342 69.2692 39.7521 69.5099 40.1211 69.8789C40.4901 70.2479 40.7308 70.7658 40.8623 71.7441C40.9977 72.7513 41 74.0861 41 76C41 77.9139 40.9977 79.2487 40.8623 80.2559C40.7308 81.2342 40.4901 81.7521 40.1211 82.1211C39.7521 82.4901 39.2342 82.7308 38.2559 82.8623C37.2487 82.9977 35.9139 83 34 83H30C28.0861 83 26.7513 82.9977 25.7441 82.8623C24.7658 82.7308 24.2479 82.4901 23.8789 82.1211C23.5099 81.7521 23.2692 81.2342 23.1377 80.2559C23.0023 79.2487 23 77.9139 23 76C23 74.0861 23.0023 72.7513 23.1377 71.7441C23.2692 70.7658 23.5099 70.2479 23.8789 69.8789C24.2479 69.5099 24.7658 69.2692 25.7441 69.1377C26.7513 69.0023 28.0861 69 30 69ZM32 73C30.3431 73 29 74.3431 29 76C29 77.6569 30.3431 79 32 79C33.6569 79 35 77.6569 35 76C35 74.3431 33.6569 73 32 73Z" fill="#484848" stroke="#484848" stroke-width="2"/>
</svg>
