<svg width="64" height="108" viewBox="0 0 64 108" fill="none" xmlns="http://www.w3.org/2000/svg">
<rect x="0.5" y="0.5" width="63" height="107" rx="4.5" stroke="#9747FF" stroke-dasharray="10 5"/>
<path fill-rule="evenodd" clip-rule="evenodd" d="M30.1057 22.6977C31.1973 21.7674 32.8027 21.7674 33.8943 22.6977L35.1153 23.7382C35.2627 23.8638 35.446 23.9398 35.6391 23.9552L37.2382 24.0828C38.6679 24.1969 39.8031 25.3321 39.9172 26.7618L40.0448 28.3609C40.0602 28.554 40.1362 28.7373 40.2618 28.8847L41.3023 30.1057C42.2326 31.1973 42.2326 32.8027 41.3023 33.8943L40.2618 35.1153C40.1362 35.2627 40.0602 35.446 40.0448 35.6391L39.9172 37.2382C39.8031 38.6679 38.6679 39.8031 37.2382 39.9172L35.6391 40.0448C35.446 40.0602 35.2627 40.1362 35.1153 40.2618L33.8943 41.3023C32.8027 42.2326 31.1973 42.2326 30.1057 41.3023L28.8847 40.2618C28.7373 40.1362 28.554 40.0602 28.3609 40.0448L26.7618 39.9172C25.3321 39.8031 24.1969 38.6679 24.0828 37.2382L23.9552 35.6391C23.9398 35.446 23.8638 35.2627 23.7382 35.1153L22.6977 33.8943C21.7674 32.8027 21.7674 31.1973 22.6977 30.1057L23.7382 28.8847C23.8638 28.7373 23.9398 28.554 23.9552 28.3608L24.0828 26.7618C24.1969 25.3321 25.3321 24.1969 26.7618 24.0828L28.3609 23.9552C28.554 23.9398 28.7373 23.8638 28.8847 23.7382L30.1057 22.6977ZM32.5971 24.2199C32.253 23.9267 31.747 23.9267 31.4029 24.2199L30.1819 25.2604C29.7142 25.659 29.1326 25.8999 28.5199 25.9488L26.9209 26.0764C26.4702 26.1124 26.1124 26.4702 26.0764 26.9209L25.9488 28.5199C25.8999 29.1326 25.659 29.7142 25.2604 30.1819L24.2199 31.4029C23.9267 31.747 23.9267 32.253 24.2199 32.5971L25.2604 33.8181C25.659 34.2858 25.8999 34.8674 25.9488 35.4801L26.0764 37.0791C26.1124 37.5298 26.4702 37.8876 26.9208 37.9236L28.5199 38.0512C29.1326 38.1001 29.7142 38.341 30.1819 38.7396L31.4029 39.7801C31.747 40.0733 32.253 40.0733 32.5971 39.7801L33.8181 38.7396C34.2858 38.341 34.8674 38.1001 35.4801 38.0512L37.0791 37.9236C37.5298 37.8876 37.8876 37.5298 37.9236 37.0791L38.0512 35.4801C38.1001 34.8674 38.341 34.2858 38.7396 33.8181L39.7801 32.5971C40.0733 32.253 40.0733 31.747 39.7801 31.4029L38.7396 30.1819C38.341 29.7142 38.1001 29.1326 38.0512 28.5199L37.9236 26.9208C37.8876 26.4702 37.5298 26.1124 37.0791 26.0764L35.4801 25.9488C34.8674 25.8999 34.2858 25.659 33.8181 25.2604L32.5971 24.2199Z" fill="#484848"/>
<path d="M31 30C31 30.5523 30.5523 31 30 31C29.4477 31 29 30.5523 29 30C29 29.4477 29.4477 29 30 29C30.5523 29 31 29.4477 31 30Z" fill="#484848"/>
<path d="M35 34C35 34.5523 34.5523 35 34 35C33.4477 35 33 34.5523 33 34C33 33.4477 33.4477 33 34 33C34.5523 33 35 33.4477 35 34Z" fill="#484848"/>
<path fill-rule="evenodd" clip-rule="evenodd" d="M28.2929 35.7071C27.9024 35.3166 27.9024 34.6834 28.2929 34.2929L34.2929 28.2929C34.6834 27.9024 35.3166 27.9024 35.7071 28.2929C36.0976 28.6834 36.0976 29.3166 35.7071 29.7071L29.7071 35.7071C29.3166 36.0976 28.6834 36.0976 28.2929 35.7071Z" fill="#484848"/>
<path fill-rule="evenodd" clip-rule="evenodd" d="M33.3841 66.5098C32.5865 65.8301 31.4135 65.8301 30.6159 66.5098L29.2593 67.6659C28.9175 67.9571 28.4925 68.1332 28.0449 68.1689L26.2681 68.3107C25.2235 68.394 24.394 69.2235 24.3107 70.2681L24.1689 72.0449C24.1332 72.4925 23.9571 72.9175 23.6659 73.2593L22.5098 74.6159C21.8301 75.4135 21.8301 76.5865 22.5098 77.3841L23.6659 78.7407C23.9571 79.0825 24.1332 79.5075 24.1689 79.9551L24.3107 81.7319C24.394 82.7765 25.2235 83.606 26.2681 83.6893L28.0449 83.8311C28.4925 83.8668 28.9175 84.0429 29.2593 84.3341L30.6159 85.4902C31.4135 86.1699 32.5865 86.1699 33.3841 85.4902L34.7407 84.3341C35.0825 84.0429 35.5075 83.8668 35.9551 83.8311L37.7319 83.6893C38.7765 83.606 39.606 82.7765 39.6893 81.7319L39.8311 79.9551C39.8668 79.5075 40.0429 79.0825 40.3341 78.7407L41.4902 77.3841C42.1699 76.5865 42.1699 75.4135 41.4902 74.6159L40.3341 73.2593C40.0429 72.9175 39.8668 72.4925 39.8311 72.0449L39.6893 70.2681C39.606 69.2235 38.7765 68.394 37.7319 68.3107L35.9551 68.1689C35.5075 68.1332 35.0825 67.9571 34.7407 67.6659L33.3841 66.5098ZM29.5 74.5C30.0523 74.5 30.5 74.0523 30.5 73.5C30.5 72.9477 30.0523 72.5 29.5 72.5C28.9477 72.5 28.5 72.9477 28.5 73.5C28.5 74.0523 28.9477 74.5 29.5 74.5ZM35.5 78.5C35.5 79.0523 35.0523 79.5 34.5 79.5C33.9477 79.5 33.5 79.0523 33.5 78.5C33.5 77.9477 33.9477 77.5 34.5 77.5C35.0523 77.5 35.5 77.9477 35.5 78.5ZM28.2929 78.2929C27.9024 78.6834 27.9024 79.3166 28.2929 79.7071C28.6834 80.0976 29.3166 80.0976 29.7071 79.7071L35.7071 73.7071C36.0976 73.3166 36.0976 72.6834 35.7071 72.2929C35.3166 71.9023 34.6834 71.9023 34.2929 72.2929L28.2929 78.2929Z" fill="#484848"/>
</svg>
