<svg width="24" height="24" viewBox="0 0 24 24" fill="none" xmlns="http://www.w3.org/2000/svg">
<path fill-rule="evenodd" clip-rule="evenodd" d="M17.1849 6.07913C16.419 6.00121 15.4253 6 14 6H13C12.4477 6 12 5.55229 12 5C12 4.44772 12.4477 4 13 4H14C14.018 4 14.036 4 14.0539 4C15.4126 3.99999 16.5083 3.99997 17.3874 4.0894C18.2948 4.18171 19.0817 4.3775 19.7779 4.84265C20.3238 5.20745 20.7926 5.6762 21.1573 6.22215C21.6225 6.91829 21.8183 7.70523 21.9106 8.61264C22 9.49174 22 10.5874 22 11.9461V12.0539C22 13.4126 22 14.5083 21.9106 15.3874C21.8183 16.2948 21.6225 17.0817 21.1573 17.7779C20.7926 18.3238 20.3238 18.7926 19.7779 19.1573C19.0817 19.6225 18.2948 19.8183 17.3874 19.9106C16.5083 20 15.4126 20 14.054 20H13C12.4477 20 12 19.5523 12 19C12 18.4477 12.4477 18 13 18H14C15.4253 18 16.419 17.9988 17.1849 17.9209C17.9342 17.8446 18.354 17.7034 18.6667 17.4944C18.9943 17.2755 19.2755 16.9943 19.4944 16.6667C19.7034 16.354 19.8446 15.9342 19.9209 15.1849C19.9988 14.419 20 13.4253 20 12C20 10.5747 19.9988 9.58104 19.9209 8.81505C19.8446 8.06578 19.7034 7.64604 19.4944 7.33329C19.2755 7.00572 18.9943 6.72447 18.6667 6.50559C18.354 6.29662 17.9342 6.15535 17.1849 6.07913Z" fill="#484848"/>
<path fill-rule="evenodd" clip-rule="evenodd" d="M12 13C12.5523 13 13 12.5523 13 12C13 11.4477 12.5523 11 12 11C11.4477 11 11 11.4477 11 12C11 12.5523 11.4477 13 12 13ZM12 15C13.6569 15 15 13.6569 15 12C15 10.3431 13.6569 9 12 9C10.3431 9 9 10.3431 9 12C9 13.6569 10.3431 15 12 15Z" fill="#484848"/>
<path fill-rule="evenodd" clip-rule="evenodd" d="M11 5C11 5.55229 10.5523 6 10 6H8C7.44771 6 7 5.55229 7 5C7 4.44772 7.44771 4 8 4H10C10.5523 4 11 4.44772 11 5Z" fill="#484848"/>
<path fill-rule="evenodd" clip-rule="evenodd" d="M6 5C6 5.55229 5.55228 6 5 6C4.44772 6 4 6.44772 4 7C4 7.55229 3.55228 8 3 8C2.44772 8 2 7.55229 2 7C2 5.34315 3.34315 4 5 4C5.55228 4 6 4.44772 6 5Z" fill="#484848"/>
<path fill-rule="evenodd" clip-rule="evenodd" d="M6 19C6 18.4477 5.55228 18 5 18C4.44772 18 4 17.5523 4 17C4 16.4477 3.55228 16 3 16C2.44772 16 2 16.4477 2 17C2 18.6569 3.34315 20 5 20C5.55228 20 6 19.5523 6 19Z" fill="#484848"/>
<path fill-rule="evenodd" clip-rule="evenodd" d="M11 19C11 19.5523 10.5523 20 10 20H8C7.44771 20 7 19.5523 7 19C7 18.4477 7.44771 18 8 18H10C10.5523 18 11 18.4477 11 19Z" fill="#484848"/>
<path fill-rule="evenodd" clip-rule="evenodd" d="M3 10C3.55228 10 4 10.4477 4 11L4 13C4 13.5523 3.55228 14 3 14C2.44772 14 2 13.5523 2 13L2 11C2 10.4477 2.44772 10 3 10Z" fill="#484848"/>
</svg>
