<svg width="64" height="108" viewBox="0 0 64 108" fill="none" xmlns="http://www.w3.org/2000/svg">
<rect x="0.5" y="0.5" width="63" height="107" rx="4.5" stroke="#9747FF" stroke-dasharray="10 5"/>
<path fill-rule="evenodd" clip-rule="evenodd" d="M32 29.168L31.3953 30.2738C31.12 30.7771 30.7061 31.191 30.2027 31.4663L29.097 32.0711L30.2027 32.6758C30.7061 32.9511 31.12 33.365 31.3953 33.8684L32 34.9741L32.6047 33.8684C32.88 33.365 33.2939 32.9511 33.7973 32.6758L34.903 32.0711L33.7973 31.4663C33.2939 31.191 32.88 30.7771 32.6047 30.2738L32 29.168ZM32.8774 26.6042C32.498 25.9106 31.502 25.9106 31.1226 26.6042L29.6405 29.3141C29.5488 29.4819 29.4108 29.6198 29.243 29.7116L26.5331 31.1937C25.8396 31.573 25.8396 32.5691 26.5331 32.9484L29.243 34.4305C29.4108 34.5223 29.5488 34.6602 29.6405 34.828L31.1226 37.538C31.502 38.2315 32.498 38.2315 32.8774 37.538L34.3595 34.828C34.4512 34.6602 34.5892 34.5223 34.757 34.4305L37.4669 32.9484C38.1604 32.5691 38.1604 31.573 37.4669 31.1937L34.757 29.7116C34.5892 29.6198 34.4512 29.4819 34.3595 29.3141L32.8774 26.6042Z" fill="#484848"/>
<path fill-rule="evenodd" clip-rule="evenodd" d="M32 40C36.4183 40 40 36.4183 40 32C40 27.5817 36.4183 24 32 24C27.5817 24 24 27.5817 24 32C24 36.4183 27.5817 40 32 40ZM32 42C37.5228 42 42 37.5228 42 32C42 26.4772 37.5228 22 32 22C26.4772 22 22 26.4772 22 32C22 37.5228 26.4772 42 32 42Z" fill="#484848"/>
<path fill-rule="evenodd" clip-rule="evenodd" d="M32 86C37.5228 86 42 81.5228 42 76C42 70.4772 37.5228 66 32 66C26.4772 66 22 70.4772 22 76C22 81.5228 26.4772 86 32 86ZM34.3595 73.3141L32.8774 70.6042C32.498 69.9106 31.502 69.9106 31.1226 70.6042L29.6405 73.3141C29.5488 73.4819 29.4108 73.6198 29.243 73.7116L26.5331 75.1937C25.8396 75.573 25.8396 76.5691 26.5331 76.9484L29.243 78.4305C29.4108 78.5223 29.5488 78.6602 29.6405 78.828L31.1226 81.538C31.502 82.2315 32.498 82.2315 32.8774 81.538L34.3595 78.828C34.4512 78.6602 34.5892 78.5223 34.757 78.4305L37.4669 76.9484C38.1604 76.5691 38.1604 75.573 37.4669 75.1937L34.757 73.7116C34.5892 73.6198 34.4512 73.4819 34.3595 73.3141Z" fill="#484848"/>
</svg>
