<svg width="64" height="108" viewBox="0 0 64 108" fill="none" xmlns="http://www.w3.org/2000/svg">
<rect x="0.5" y="0.5" width="63" height="107" rx="4.5" stroke="#9747FF" stroke-dasharray="10 5"/>
<path fill-rule="evenodd" clip-rule="evenodd" d="M40.8442 25.1716C39.6727 24 37.787 24 34.0158 24H29.9843C26.2131 24 24.3275 24 23.1559 25.1716C22.2786 26.0489 22.0582 27.3265 22.0029 29.4964C21.9973 29.7147 21.9945 29.8239 22.0467 29.8934C22.0988 29.9629 22.2294 29.9974 22.4906 30.0665C23.3478 30.293 23.9797 31.0728 23.9797 32C23.9797 32.9272 23.3478 33.707 22.4906 33.9335C22.2294 34.0026 22.0988 34.0371 22.0467 34.1066C21.9945 34.1761 21.9973 34.2853 22.0029 34.5036C22.0582 36.6735 22.2786 37.9511 23.1559 38.8284C24.3275 40 26.2131 40 29.9843 40H34.0158C37.787 40 39.6727 40 40.8442 38.8284C41.721 37.9517 41.9416 36.675 41.9971 34.5075C42.0028 34.2877 42.0056 34.1778 41.953 34.1081C41.9004 34.0384 41.7687 34.0045 41.5053 33.9365C40.6423 33.7138 40.0049 32.9312 40.0049 32C40.0049 31.0688 40.6423 30.2862 41.5053 30.0635C41.7687 29.9955 41.9004 29.9616 41.953 29.8919C42.0056 29.8222 42.0028 29.7123 41.9971 29.4925C41.9416 27.325 41.721 26.0483 40.8442 25.1716ZM24.0464 28.5762C25.2038 29.276 25.9797 30.545 25.9797 32C25.9797 33.455 25.2038 34.724 24.0464 35.4238C24.1453 36.8336 24.3614 37.2055 24.5701 37.4142C24.7223 37.5665 24.9942 37.7548 25.8617 37.8714C26.7867 37.9958 28.0422 38 29.9843 38H34.0158C35.958 38 37.2134 37.9958 38.1384 37.8714C39.0059 37.7548 39.2778 37.5665 39.43 37.4142C39.6382 37.2061 39.8539 36.8353 39.9531 35.4328C38.7874 34.7349 38.0049 33.4612 38.0049 32C38.0049 30.5388 38.7874 29.2651 39.9531 28.5672C39.8539 27.1647 39.6382 26.7939 39.43 26.5858C39.2778 26.4335 39.0059 26.2452 38.1384 26.1286C37.2134 26.0042 35.958 26 34.0158 26H29.9843C28.0422 26 26.7867 26.0042 25.8617 26.1286C24.9942 26.2452 24.7223 26.4335 24.5701 26.5858C24.3614 26.7945 24.1453 27.1664 24.0464 28.5762Z" fill="#484848"/>
<path d="M31.5679 28.7418C31.7608 28.4107 32.2392 28.4107 32.4321 28.7418L33.1822 30.0298C33.2529 30.1511 33.3713 30.2371 33.5085 30.2668L34.9652 30.5822C35.3398 30.6634 35.4876 31.1183 35.2323 31.4041L34.2391 32.5155C34.1456 32.6202 34.1004 32.7594 34.1145 32.899L34.2647 34.382C34.3033 34.7632 33.9163 35.0444 33.5656 34.8899L32.2016 34.2888C32.0732 34.2322 31.9268 34.2322 31.7984 34.2888L30.4344 34.8899C30.0837 35.0444 29.6967 34.7632 29.7353 34.382L29.8855 32.899C29.8996 32.7594 29.8544 32.6202 29.7609 32.5155L28.7677 31.4041C28.5124 31.1183 28.6602 30.6634 29.0348 30.5822L30.4915 30.2668C30.6287 30.2371 30.7471 30.1511 30.8178 30.0298L31.5679 28.7418Z" fill="#484848"/>
<path d="M29.9844 69H34.0156C35.9294 69 37.2644 69.0023 38.2715 69.1377C39.2498 69.2692 39.7677 69.5099 40.1367 69.8789C40.6702 70.4124 40.9112 71.2301 40.9834 73.1797C39.8306 73.5979 39.0049 74.7008 39.0049 76C39.0049 77.2991 39.8307 78.4011 40.9834 78.8193C40.9113 80.7696 40.6703 81.5876 40.1367 82.1211C39.7677 82.4901 39.2498 82.7308 38.2715 82.8623C37.2644 82.9977 35.9294 83 34.0156 83H29.9844C28.0705 83 26.7356 82.9977 25.7285 82.8623C24.7502 82.7308 24.2323 82.4901 23.8633 82.1211C23.3292 81.587 23.0875 80.7679 23.0156 78.8135C24.1606 78.3912 24.9795 77.2936 24.9795 76C24.9795 74.7063 24.1608 73.6077 23.0156 73.1855C23.0875 71.2318 23.3292 70.4129 23.8633 69.8789C24.2323 69.5099 24.7502 69.2692 25.7285 69.1377C26.7356 69.0023 28.0705 69 29.9844 69ZM33.2959 72.2383C32.7535 71.3074 31.4589 71.2491 30.8223 72.0635L30.7041 72.2383L30.0645 73.335L28.8232 73.6045C27.6997 73.8478 27.2565 75.2131 28.0225 76.0703L28.8682 77.0166L28.7402 78.2812C28.6244 79.425 29.7859 80.2683 30.8379 79.8047L32 79.292L33.1621 79.8047C34.2141 80.2683 35.3756 79.425 35.2598 78.2812L35.1309 77.0166L35.9775 76.0703C36.7435 75.213 36.3003 73.8478 35.1768 73.6045L33.9346 73.335L33.2959 72.2383Z" fill="#484848" stroke="#484848" stroke-width="2"/>
</svg>
