<svg width="64" height="108" viewBox="0 0 64 108" fill="none" xmlns="http://www.w3.org/2000/svg">
<rect x="0.5" y="0.5" width="63" height="107" rx="4.5" stroke="#9747FF" stroke-dasharray="10 5"/>
<path fill-rule="evenodd" clip-rule="evenodd" d="M40.8442 25.1716C39.6727 24 37.787 24 34.0158 24H29.9843C26.2131 24 24.3275 24 23.1559 25.1716C22.2786 26.0489 22.0582 27.3265 22.0029 29.4964C21.9973 29.7147 21.9945 29.8239 22.0467 29.8934C22.0988 29.9629 22.2294 29.9974 22.4906 30.0665C23.3478 30.293 23.9797 31.0728 23.9797 32C23.9797 32.9272 23.3478 33.707 22.4906 33.9335C22.2294 34.0026 22.0988 34.0371 22.0467 34.1066C21.9945 34.1761 21.9973 34.2853 22.0029 34.5036C22.0582 36.6735 22.2786 37.9511 23.1559 38.8284C24.3275 40 26.2131 40 29.9843 40H34.0158C37.787 40 39.6727 40 40.8442 38.8284C41.721 37.9517 41.9416 36.675 41.9971 34.5075C42.0028 34.2877 42.0056 34.1778 41.953 34.1081C41.9004 34.0384 41.7687 34.0045 41.5053 33.9365C40.6423 33.7138 40.0049 32.9312 40.0049 32C40.0049 31.0688 40.6423 30.2862 41.5053 30.0635C41.7687 29.9955 41.9004 29.9616 41.953 29.8919C42.0056 29.8222 42.0028 29.7123 41.9971 29.4925C41.9416 27.325 41.721 26.0483 40.8442 25.1716ZM24.0464 28.5762C25.2038 29.276 25.9797 30.545 25.9797 32C25.9797 33.455 25.2038 34.724 24.0464 35.4238C24.1453 36.8336 24.3614 37.2055 24.5701 37.4142C24.7223 37.5665 24.9942 37.7548 25.8617 37.8714C26.7867 37.9958 28.0422 38 29.9843 38H34.0158C35.958 38 37.2134 37.9958 38.1384 37.8714C39.0059 37.7548 39.2778 37.5665 39.43 37.4142C39.6382 37.2061 39.8539 36.8353 39.9531 35.4328C38.7874 34.7349 38.0049 33.4612 38.0049 32C38.0049 30.5388 38.7874 29.2651 39.9531 28.5672C39.8539 27.1647 39.6382 26.7939 39.43 26.5858C39.2778 26.4335 39.0059 26.2452 38.1384 26.1286C37.2134 26.0042 35.958 26 34.0158 26H29.9843C28.0422 26 26.7867 26.0042 25.8617 26.1286C24.9942 26.2452 24.7223 26.4335 24.5701 26.5858C24.3614 26.7945 24.1453 27.1664 24.0464 28.5762Z" fill="#484848"/>
<path fill-rule="evenodd" clip-rule="evenodd" d="M30 24C30.5523 24 31 24.4477 31 25V26.75C31 27.3023 30.5523 27.75 30 27.75C29.4477 27.75 29 27.3023 29 26.75V25C29 24.4477 29.4477 24 30 24ZM30 29.25C30.5523 29.25 31 29.6977 31 30.25V33.75C31 34.3023 30.5523 34.75 30 34.75C29.4477 34.75 29 34.3023 29 33.75V30.25C29 29.6977 29.4477 29.25 30 29.25ZM30 36.25C30.5523 36.25 31 36.6977 31 37.25V39C31 39.5523 30.5523 40 30 40C29.4477 40 29 39.5523 29 39V37.25C29 36.6977 29.4477 36.25 30 36.25Z" fill="#484848"/>
<path d="M34.0156 69C35.9294 69 37.2644 69.0023 38.2715 69.1377C39.2498 69.2692 39.7677 69.5099 40.1367 69.8789C40.6702 70.4124 40.9112 71.2301 40.9834 73.1797C39.8306 73.5979 39.0049 74.7008 39.0049 76C39.0049 77.2991 39.8307 78.4011 40.9834 78.8193C40.9113 80.7696 40.6703 81.5876 40.1367 82.1211C39.7677 82.4901 39.2498 82.7308 38.2715 82.8623C37.2644 82.9977 35.9294 83 34.0156 83H32V81.25C32 80.4963 31.5826 79.8409 30.9668 79.5C31.5826 79.1591 32 78.5037 32 77.75V74.25C32 73.4963 31.5826 72.8409 30.9668 72.5C31.5826 72.1591 32 71.5037 32 70.75V69H34.0156ZM28 70.75C28 71.5034 28.4169 72.159 29.0322 72.5C28.4169 72.841 28 73.4966 28 74.25V77.75C28 78.5034 28.4169 79.159 29.0322 79.5C28.4169 79.841 28 80.4966 28 81.25V82.9902C26.9367 82.9748 26.1241 82.9343 25.4727 82.8242C24.6592 82.6867 24.2 82.4578 23.8633 82.1211C23.3292 81.587 23.0875 80.7679 23.0156 78.8135C24.1606 78.3912 24.9795 77.2936 24.9795 76C24.9795 74.7063 24.1608 73.6077 23.0156 73.1855C23.0875 71.2318 23.3292 70.4129 23.8633 69.8789C24.2 69.5422 24.6592 69.3133 25.4727 69.1758C26.1241 69.0657 26.9367 69.0242 28 69.0088V70.75Z" fill="#484848" stroke="#484848" stroke-width="2"/>
</svg>
