<svg width="64" height="108" viewBox="0 0 64 108" fill="none" xmlns="http://www.w3.org/2000/svg">
<rect x="0.5" y="0.5" width="63" height="107" rx="4.5" stroke="#9747FF" stroke-dasharray="10 5"/>
<path fill-rule="evenodd" clip-rule="evenodd" d="M40.8442 25.1716C39.6727 24 37.787 24 34.0158 24H29.9843C26.2131 24 24.3275 24 23.1559 25.1716C22.2786 26.0489 22.0582 27.3265 22.0029 29.4964C21.9973 29.7147 21.9945 29.8239 22.0467 29.8934C22.0988 29.9629 22.2294 29.9974 22.4906 30.0665C23.3478 30.293 23.9797 31.0728 23.9797 32C23.9797 32.9272 23.3478 33.707 22.4906 33.9335C22.2294 34.0026 22.0988 34.0371 22.0467 34.1066C21.9945 34.1761 21.9973 34.2853 22.0029 34.5036C22.0582 36.6735 22.2786 37.9511 23.1559 38.8284C24.3275 40 26.2131 40 29.9843 40H34.0158C37.787 40 39.6727 40 40.8442 38.8284C41.721 37.9517 41.9416 36.675 41.9971 34.5075C42.0028 34.2877 42.0056 34.1778 41.953 34.1081C41.9004 34.0384 41.7687 34.0045 41.5053 33.9365C40.6423 33.7138 40.0049 32.9312 40.0049 32C40.0049 31.0688 40.6423 30.2862 41.5053 30.0635C41.7687 29.9955 41.9004 29.9616 41.953 29.8919C42.0056 29.8222 42.0028 29.7123 41.9971 29.4925C41.9416 27.325 41.721 26.0483 40.8442 25.1716ZM24.0464 28.5762C25.2038 29.276 25.9797 30.545 25.9797 32C25.9797 33.455 25.2038 34.724 24.0464 35.4238C24.1453 36.8336 24.3614 37.2055 24.5701 37.4142C24.7223 37.5665 24.9942 37.7548 25.8617 37.8714C26.7867 37.9958 28.0422 38 29.9843 38H34.0158C35.958 38 37.2134 37.9958 38.1384 37.8714C39.0059 37.7548 39.2778 37.5665 39.43 37.4142C39.6382 37.2061 39.8539 36.8353 39.9531 35.4328C38.7874 34.7349 38.0049 33.4612 38.0049 32C38.0049 30.5388 38.7874 29.2651 39.9531 28.5672C39.8539 27.1647 39.6382 26.7939 39.43 26.5858C39.2778 26.4335 39.0059 26.2452 38.1384 26.1286C37.2134 26.0042 35.958 26 34.0158 26H29.9843C28.0422 26 26.7867 26.0042 25.8617 26.1286C24.9942 26.2452 24.7223 26.4335 24.5701 26.5858C24.3614 26.7945 24.1453 27.1664 24.0464 28.5762Z" fill="#484848"/>
<path fill-rule="evenodd" clip-rule="evenodd" d="M35.7071 28.2929C36.0976 28.6834 36.0976 29.3166 35.7071 29.7071L29.7071 35.7071C29.3166 36.0976 28.6834 36.0976 28.2929 35.7071C27.9024 35.3166 27.9024 34.6834 28.2929 34.2929L34.2929 28.2929C34.6834 27.9024 35.3166 27.9024 35.7071 28.2929Z" fill="#484848"/>
<path d="M31 30C31 30.5523 30.5523 31 30 31C29.4477 31 29 30.5523 29 30C29 29.4477 29.4477 29 30 29C30.5523 29 31 29.4477 31 30Z" fill="#484848"/>
<path d="M35 34C35 34.5523 34.5523 35 34 35C33.4477 35 33 34.5523 33 34C33 33.4477 33.4477 33 34 33C34.5523 33 35 33.4477 35 34Z" fill="#484848"/>
<path fill-rule="evenodd" clip-rule="evenodd" d="M22.0467 73.8934C21.9945 73.8239 21.9973 73.7147 22.0029 73.4964C22.0582 71.3265 22.2786 70.0489 23.1559 69.1716C24.3275 68 26.2131 68 29.9843 68H34.0158C37.787 68 39.6727 68 40.8442 69.1716C41.721 70.0483 41.9416 71.325 41.9971 73.4925C42.0028 73.7123 42.0056 73.8222 41.953 73.8919C41.9004 73.9616 41.7687 73.9955 41.5053 74.0635C40.6423 74.2862 40.0049 75.0688 40.0049 76C40.0049 76.9312 40.6423 77.7138 41.5053 77.9365C41.7687 78.0045 41.9004 78.0384 41.953 78.1081C42.0056 78.1778 42.0028 78.2877 41.9971 78.5075C41.9416 80.675 41.721 81.9517 40.8442 82.8284C39.6727 84 37.787 84 34.0158 84H29.9843C26.2131 84 24.3275 84 23.1559 82.8284C22.2786 81.9511 22.0582 80.6735 22.0029 78.5036C21.9973 78.2853 21.9945 78.1761 22.0467 78.1066C22.0988 78.0371 22.2294 78.0026 22.4905 77.9335C23.3478 77.707 23.9797 76.9272 23.9797 76C23.9797 75.0728 23.3478 74.293 22.4906 74.0665C22.2294 73.9974 22.0988 73.9629 22.0467 73.8934ZM35.7071 72.2929C35.3166 71.9024 34.6834 71.9024 34.2929 72.2929L28.2929 78.2929C27.9024 78.6834 27.9024 79.3166 28.2929 79.7071C28.6834 80.0976 29.3166 80.0976 29.7071 79.7071L35.7071 73.7071C36.0976 73.3166 36.0976 72.6834 35.7071 72.2929ZM31 74C31 74.5523 30.5523 75 30 75C29.4477 75 29 74.5523 29 74C29 73.4477 29.4477 73 30 73C30.5523 73 31 73.4477 31 74ZM34 79C34.5523 79 35 78.5523 35 78C35 77.4477 34.5523 77 34 77C33.4477 77 33 77.4477 33 78C33 78.5523 33.4477 79 34 79Z" fill="#484848"/>
</svg>
