<svg width="64" height="108" viewBox="0 0 64 108" fill="none" xmlns="http://www.w3.org/2000/svg">
<rect x="0.5" y="0.5" width="63" height="107" rx="4.5" stroke="#9747FF" stroke-dasharray="10 5"/>
<path fill-rule="evenodd" clip-rule="evenodd" d="M30.9268 23L36 23C38.2091 23 40 24.7909 40 27C40.5818 27.4363 41.0639 27.9963 41.4096 28.643C41.7364 29.2544 41.8728 29.9196 41.9374 30.6783C42 31.415 42 32.3259 42 33.4554V33.5446C42 34.6741 42 35.585 41.9374 36.3217C41.8728 37.0804 41.7364 37.7456 41.4096 38.357C40.9434 39.2291 40.2291 39.9434 39.357 40.4096C38.7456 40.7364 38.0804 40.8728 37.3217 40.9374C36.585 41 35.6741 41 34.5446 41H30.9269C29.1034 41 27.6336 41.0001 26.4777 40.8446C25.2775 40.6833 24.267 40.3381 23.4645 39.5355C22.6619 38.733 22.3167 37.7225 22.1554 36.5223C21.9999 35.3664 22 33.8966 22 32.0732V31.9268C22 30.1034 21.9999 28.6336 22.1554 27.4777C22.3167 26.2775 22.6619 25.267 23.4645 24.4645C24.267 23.6619 25.2775 23.3167 26.4777 23.1554C27.6336 23 29.1034 23 30.9268 23ZM24 32C24 33.9139 24.0021 35.2487 24.1375 36.2558C24.2691 37.2342 24.5097 37.7523 24.8787 38.1213C25.2477 38.4903 25.7658 38.7309 26.7442 38.8625C27.7513 38.9979 29.0861 39 31 39H34.5C35.6845 39 36.5103 38.9992 37.1522 38.9446C37.7816 38.891 38.1419 38.7913 38.4142 38.6458C38.9375 38.3661 39.3661 37.9375 39.6458 37.4142C39.7913 37.1419 39.891 36.7816 39.9446 36.1522C39.9992 35.5103 40 34.6845 40 33.5C40 32.3155 39.9992 31.4897 39.9446 30.8478C39.891 30.2184 39.7913 29.8581 39.6458 29.5858C39.3661 29.0625 38.9375 28.6339 38.4142 28.3542C38.1419 28.2087 37.7816 28.109 37.1522 28.0554C36.5103 28.0008 35.6845 28 34.5 28H28C27.4477 28 27 27.5523 27 27C27 26.4477 27.4477 26 28 26L34.5446 26C35.6741 26 36.585 26 37.3217 26.0626C37.4832 26.0764 37.6405 26.0934 37.7939 26.1148C37.4674 25.4543 36.7867 25 36 25H31C29.0861 25 27.7513 25.0021 26.7442 25.1375C25.7658 25.2691 25.2477 25.5097 24.8787 25.8787C24.5097 26.2477 24.2691 26.7658 24.1375 27.7442C24.0021 28.7513 24 30.0861 24 32Z" fill="#484848"/>
<path fill-rule="evenodd" clip-rule="evenodd" d="M33 34C33 33.4477 33.4477 33 34 33H38C38.5523 33 39 33.4477 39 34C39 34.5523 38.5523 35 38 35H34C33.4477 35 33 34.5523 33 34Z" fill="#484848"/>
<path fill-rule="evenodd" clip-rule="evenodd" d="M33.8947 85H31C27.7308 85 26.0962 85 24.8641 84.3272C23.9387 83.8219 23.1781 83.0613 22.6728 82.1359C22 80.9038 22 79.2692 22 76V75.6087C22 72.7087 22 71.2588 22.5331 70.1378C23.0761 68.996 23.996 68.0761 25.1378 67.5331C26.2588 67 27.7087 67 30.6087 67H36C37.8638 67 39.4299 68.2748 39.874 70H28C27.4477 70 27 70.4477 27 71C27 71.5523 27.4477 72 28 72H40.6458C41.1191 72.4175 41.4921 72.9456 41.7264 73.546C42 74.2472 42 75.153 42 76.9646C42 79.3449 42 80.5351 41.6238 81.4993C41.0648 82.9317 39.9317 84.0648 38.4993 84.6238C37.5351 85 36.3216 85 33.8947 85ZM34 77C33.4477 77 33 77.4477 33 78C33 78.5523 33.4477 79 34 79H38C38.5523 79 39 78.5523 39 78C39 77.4477 38.5523 77 38 77H34Z" fill="#484848"/>
</svg>
