<svg width="20" height="18" viewBox="0 0 20 18" fill="none" xmlns="http://www.w3.org/2000/svg">
<path fill-rule="evenodd" clip-rule="evenodd" d="M2.04434 11.2077L10 12.9756L17.9557 11.2077C17.5622 7.71472 14.5981 5 11 5H9C5.40189 5 2.43784 7.71472 2.04434 11.2077ZM2.7818e-08 12C2.7818e-08 7.02944 4.02944 3 9 3H11C15.9706 3 20 7.02944 20 12C20 12.4687 19.6745 12.8745 19.2169 12.9762L10.2169 14.9762C10.0741 15.0079 9.92595 15.0079 9.78307 14.9762L0.78307 12.9762C0.325532 12.8745 2.7818e-08 12.4687 2.7818e-08 12Z" fill="#484848"/>
<path fill-rule="evenodd" clip-rule="evenodd" d="M7 1C7 0.447715 7.44772 0 8 0H12C12.5523 0 13 0.447715 13 1C13 1.55228 12.5523 2 12 2H8C7.44772 2 7 1.55228 7 1Z" fill="#484848"/>
<path fill-rule="evenodd" clip-rule="evenodd" d="M7 1C7 0.447715 7.44772 0 8 0H12C12.5523 0 13 0.447715 13 1C13 1.55228 12.5523 2 12 2H8C7.44772 2 7 1.55228 7 1Z" fill="#484848"/>
<path fill-rule="evenodd" clip-rule="evenodd" d="M0 17C4.82823e-08 16.4477 0.447715 16 1 16L19 16C19.5523 16 20 16.4477 20 17C20 17.5523 19.5523 18 19 18L1 18C0.447715 18 -4.82823e-08 17.5523 0 17Z" fill="#484848"/>
</svg>
