<svg width="20" height="18" viewBox="0 0 20 18" fill="none" xmlns="http://www.w3.org/2000/svg">
<path d="M9.03044 3C4.04307 3 0 7.04306 0 12.0304C0 12.3645 0.229018 12.655 0.553839 12.7329L9.51714 14.8841C9.83454 14.9603 10.1655 14.9603 10.4829 14.8841L19.4462 12.7329C19.771 12.655 20 12.3645 20 12.0304C20 7.04306 15.9569 3 10.9696 3H9.03044Z" fill="#484848"/>
<path fill-rule="evenodd" clip-rule="evenodd" d="M7 1C7 0.447715 7.44772 0 8 0H12C12.5523 0 13 0.447715 13 1C13 1.55228 12.5523 2 12 2H8C7.44772 2 7 1.55228 7 1Z" fill="#484848"/>
<path fill-rule="evenodd" clip-rule="evenodd" d="M7 1C7 0.447715 7.44772 0 8 0H12C12.5523 0 13 0.447715 13 1C13 1.55228 12.5523 2 12 2H8C7.44772 2 7 1.55228 7 1Z" fill="#484848"/>
<path fill-rule="evenodd" clip-rule="evenodd" d="M0 17C4.82825e-08 16.4477 0.447715 16 1 16L19 16C19.5523 16 20 16.4477 20 17C20 17.5523 19.5523 18 19 18L1 18C0.447715 18 -4.8282e-08 17.5523 0 17Z" fill="#484848"/>
</svg>
