<svg width="64" height="108" viewBox="0 0 64 108" fill="none" xmlns="http://www.w3.org/2000/svg">
<rect x="0.5" y="0.5" width="63" height="107" rx="4.5" stroke="#9747FF" stroke-dasharray="10 5"/>
<path fill-rule="evenodd" clip-rule="evenodd" d="M24.0443 34.2077L32 35.9756L39.9557 34.2077C39.5622 30.7147 36.5981 28 33 28H31C27.4019 28 24.4378 30.7147 24.0443 34.2077ZM22 35C22 30.0294 26.0294 26 31 26H33C37.9706 26 42 30.0294 42 35C42 35.4687 41.6745 35.8745 41.2169 35.9762L32.2169 37.9762C32.0741 38.0079 31.9259 38.0079 31.7831 37.9762L22.7831 35.9762C22.3255 35.8745 22 35.4687 22 35Z" fill="#484848"/>
<path fill-rule="evenodd" clip-rule="evenodd" d="M29 24C29 23.4477 29.4477 23 30 23H34C34.5523 23 35 23.4477 35 24C35 24.5523 34.5523 25 34 25H30C29.4477 25 29 24.5523 29 24Z" fill="#484848"/>
<path fill-rule="evenodd" clip-rule="evenodd" d="M29 24C29 23.4477 29.4477 23 30 23H34C34.5523 23 35 23.4477 35 24C35 24.5523 34.5523 25 34 25H30C29.4477 25 29 24.5523 29 24Z" fill="#484848"/>
<path fill-rule="evenodd" clip-rule="evenodd" d="M22 40C22 39.4477 22.4477 39 23 39L41 39C41.5523 39 42 39.4477 42 40C42 40.5523 41.5523 41 41 41L23 41C22.4477 41 22 40.5523 22 40Z" fill="#484848"/>
<path d="M31.0304 70C26.0431 70 22 74.0431 22 79.0304C22 79.3645 22.229 79.655 22.5538 79.7329L31.5171 81.8841C31.8345 81.9603 32.1655 81.9603 32.4829 81.8841L41.4462 79.7329C41.771 79.655 42 79.3645 42 79.0304C42 74.0431 37.9569 70 32.9696 70H31.0304Z" fill="#484848"/>
<path fill-rule="evenodd" clip-rule="evenodd" d="M29 68C29 67.4477 29.4477 67 30 67H34C34.5523 67 35 67.4477 35 68C35 68.5523 34.5523 69 34 69H30C29.4477 69 29 68.5523 29 68Z" fill="#484848"/>
<path fill-rule="evenodd" clip-rule="evenodd" d="M29 68C29 67.4477 29.4477 67 30 67H34C34.5523 67 35 67.4477 35 68C35 68.5523 34.5523 69 34 69H30C29.4477 69 29 68.5523 29 68Z" fill="#484848"/>
<path fill-rule="evenodd" clip-rule="evenodd" d="M22 84C22 83.4477 22.4477 83 23 83L41 83C41.5523 83 42 83.4477 42 84C42 84.5523 41.5523 85 41 85L23 85C22.4477 85 22 84.5523 22 84Z" fill="#484848"/>
</svg>
