<svg width="64" height="108" viewBox="0 0 64 108" fill="none" xmlns="http://www.w3.org/2000/svg">
<rect x="0.5" y="0.5" width="63" height="107" rx="4.5" stroke="#9747FF" stroke-dasharray="10 5"/>
<path fill-rule="evenodd" clip-rule="evenodd" d="M28 36C28.6291 36 29.2216 36.296 29.5994 36.7992L32 39.9965L34.4006 36.7992C34.7784 36.296 35.3709 36 36 36H38C39.1046 36 40 35.1046 40 34V26C40 24.8954 39.1046 24 38 24H26C24.8954 24 24 24.8954 24 26V34C24 35.1046 24.8954 36 26 36H28ZM36 38H38C40.2091 38 42 36.2091 42 34V26C42 23.7909 40.2091 22 38 22H26C23.7909 22 22 23.7909 22 26V34C22 36.2091 23.7909 38 26 38H28L30.4006 41.1974C31.2007 42.2629 32.7993 42.2629 33.5994 41.1974L36 38Z" fill="#484848"/>
<path d="M22 70C22 67.7909 23.7909 66 26 66H38C40.2091 66 42 67.7909 42 70V78C42 80.2091 40.2091 82 38 82H36L33.5994 85.1974C32.7993 86.2629 31.2007 86.2629 30.4006 85.1974L28 82H26C23.7909 82 22 80.2091 22 78V70Z" fill="#484848"/>
<path fill-rule="evenodd" clip-rule="evenodd" d="M28.9994 80L32 83.9965L35.0006 80H38C39.1046 80 40 79.1046 40 78V70C40 68.8954 39.1046 68 38 68H26C24.8954 68 24 68.8954 24 70V78C24 79.1046 24.8954 80 26 80H28.9994ZM36 82H38C40.2091 82 42 80.2091 42 78V70C42 67.7909 40.2091 66 38 66H26C23.7909 66 22 67.7909 22 70V78C22 80.2091 23.7909 82 26 82H28L30.4006 85.1974C31.2007 86.2629 32.7993 86.2629 33.5994 85.1974L36 82Z" fill="#484848"/>
</svg>
