<svg width="20" height="20" viewBox="0 0 20 20" fill="none" xmlns="http://www.w3.org/2000/svg">
<path fill-rule="evenodd" clip-rule="evenodd" d="M6 14C6.62915 14 7.22163 14.296 7.59938 14.7992L10 17.9965L12.4006 14.7992C12.7784 14.296 13.3709 14 14 14H16C17.1046 14 18 13.1046 18 12V4C18 2.89543 17.1046 2 16 2H4C2.89543 2 2 2.89543 2 4V12C2 13.1046 2.89543 14 4 14H6ZM14 16H16C18.2091 16 20 14.2091 20 12V4C20 1.79086 18.2091 0 16 0H4C1.79086 0 0 1.79086 0 4V12C0 14.2091 1.79086 16 4 16H6L8.40062 19.1974C9.20066 20.2629 10.7993 20.2629 11.5994 19.1974L14 16Z" fill="#484848"/>
</svg>
