<svg width="64" height="108" viewBox="0 0 64 108" fill="none" xmlns="http://www.w3.org/2000/svg">
<rect x="0.5" y="0.5" width="63" height="107" rx="4.5" stroke="#9747FF" stroke-dasharray="10 5"/>
<path fill-rule="evenodd" clip-rule="evenodd" d="M28 36C28.6291 36 29.2216 36.296 29.5994 36.7992L32 39.9965L34.4006 36.7992C34.7784 36.296 35.3709 36 36 36H38C39.1046 36 40 35.1046 40 34V26C40 24.8954 39.1046 24 38 24H26C24.8954 24 24 24.8954 24 26V34C24 35.1046 24.8954 36 26 36H28ZM36 38H38C40.2091 38 42 36.2091 42 34V26C42 23.7909 40.2091 22 38 22H26C23.7909 22 22 23.7909 22 26V34C22 36.2091 23.7909 38 26 38H28L30.4006 41.1974C31.2007 42.2629 32.7993 42.2629 33.5994 41.1974L36 38Z" fill="#484848"/>
<path d="M33 30C33 30.5523 32.5523 31 32 31C31.4477 31 31 30.5523 31 30C31 29.4477 31.4477 29 32 29C32.5523 29 33 29.4477 33 30Z" fill="#484848"/>
<path d="M37 30C37 30.5523 36.5523 31 36 31C35.4477 31 35 30.5523 35 30C35 29.4477 35.4477 29 36 29C36.5523 29 37 29.4477 37 30Z" fill="#484848"/>
<path d="M29 30C29 30.5523 28.5523 31 28 31C27.4477 31 27 30.5523 27 30C27 29.4477 27.4477 29 28 29C28.5523 29 29 29.4477 29 30Z" fill="#484848"/>
<path fill-rule="evenodd" clip-rule="evenodd" d="M26 66C23.7909 66 22 67.7909 22 70V78C22 80.2091 23.7909 82 26 82H28L30.4006 85.1974C31.2007 86.2629 32.7993 86.2629 33.5994 85.1974L36 82H38C40.2091 82 42 80.2091 42 78V70C42 67.7909 40.2091 66 38 66H26ZM28 75C28.5523 75 29 74.5523 29 74C29 73.4477 28.5523 73 28 73C27.4477 73 27 73.4477 27 74C27 74.5523 27.4477 75 28 75ZM33 74C33 74.5523 32.5523 75 32 75C31.4477 75 31 74.5523 31 74C31 73.4477 31.4477 73 32 73C32.5523 73 33 73.4477 33 74ZM37 74C37 74.5523 36.5523 75 36 75C35.4477 75 35 74.5523 35 74C35 73.4477 35.4477 73 36 73C36.5523 73 37 73.4477 37 74Z" fill="#484848"/>
<path fill-rule="evenodd" clip-rule="evenodd" d="M28.9994 80L32 83.9965L35.0006 80H38C39.1046 80 40 79.1046 40 78V70C40 68.8954 39.1046 68 38 68H26C24.8954 68 24 68.8954 24 70V78C24 79.1046 24.8954 80 26 80H28.9994ZM28 73C27.4477 73 27 73.4477 27 74C27 74.5523 27.4477 75 28 75C28.5523 75 29 74.5523 29 74C29 73.4477 28.5523 73 28 73ZM30 71.7639C29.4692 71.2889 28.7684 71 28 71C26.3431 71 25 72.3431 25 74C25 75.6569 26.3431 77 28 77C28.7684 77 29.4692 76.7111 30 76.2361C30.5308 76.7111 31.2316 77 32 77C32.7684 77 33.4692 76.7111 34 76.2361C34.5308 76.7111 35.2316 77 36 77C37.6569 77 39 75.6569 39 74C39 72.3431 37.6569 71 36 71C35.2316 71 34.5308 71.2889 34 71.7639C33.4692 71.2889 32.7684 71 32 71C31.2316 71 30.5308 71.2889 30 71.7639ZM32 73C31.4477 73 31 73.4477 31 74C31 74.5523 31.4477 75 32 75C32.5523 75 33 74.5523 33 74C33 73.4477 32.5523 73 32 73ZM36 73C35.4477 73 35 73.4477 35 74C35 74.5523 35.4477 75 36 75C36.5523 75 37 74.5523 37 74C37 73.4477 36.5523 73 36 73ZM22 70C22 67.7909 23.7909 66 26 66H38C40.2091 66 42 67.7909 42 70V78C42 80.2091 40.2091 82 38 82H36L33.5994 85.1974C32.7993 86.2629 31.2007 86.2629 30.4006 85.1974L28 82H26C23.7909 82 22 80.2091 22 78V70Z" fill="#484848"/>
</svg>
