<svg width="20" height="20" viewBox="0 0 20 20" fill="none" xmlns="http://www.w3.org/2000/svg">
<path fill-rule="evenodd" clip-rule="evenodd" d="M4 0C1.79086 0 0 1.79086 0 4V12C0 14.2091 1.79086 16 4 16H6L8.40062 19.1974C9.20066 20.2629 10.7993 20.2629 11.5994 19.1974L14 16H16C18.2091 16 20 14.2091 20 12V4C20 1.79086 18.2091 0 16 0H4ZM6 9C6.55228 9 7 8.55229 7 8C7 7.44772 6.55228 7 6 7C5.44772 7 5 7.44772 5 8C5 8.55229 5.44772 9 6 9ZM11 8C11 8.55229 10.5523 9 10 9C9.44771 9 9 8.55229 9 8C9 7.44772 9.44771 7 10 7C10.5523 7 11 7.44772 11 8ZM15 8C15 8.55229 14.5523 9 14 9C13.4477 9 13 8.55229 13 8C13 7.44772 13.4477 7 14 7C14.5523 7 15 7.44772 15 8Z" fill="#484848"/>
<path fill-rule="evenodd" clip-rule="evenodd" d="M6.99935 14L10 17.9965L13.0006 14H16C17.1046 14 18 13.1046 18 12V4C18 2.89543 17.1046 2 16 2H4C2.89543 2 2 2.89543 2 4V12C2 13.1046 2.89543 14 4 14H6.99935ZM6 7C5.44772 7 5 7.44772 5 8C5 8.55229 5.44772 9 6 9C6.55228 9 7 8.55229 7 8C7 7.44772 6.55228 7 6 7ZM8 5.7639C7.46924 5.28885 6.76836 5 6 5C4.34315 5 3 6.34315 3 8C3 9.65686 4.34315 11 6 11C6.76836 11 7.46925 10.7111 8 10.2361C8.53076 10.7111 9.23164 11 10 11C10.7684 11 11.4692 10.7111 12 10.2361C12.5308 10.7111 13.2316 11 14 11C15.6569 11 17 9.65685 17 8C17 6.34315 15.6569 5 14 5C13.2316 5 12.5308 5.28885 12 5.7639C11.4692 5.28885 10.7684 5 10 5C9.23164 5 8.53076 5.28885 8 5.7639ZM10 7C9.44771 7 9 7.44772 9 8C9 8.55229 9.44771 9 10 9C10.5523 9 11 8.55229 11 8C11 7.44772 10.5523 7 10 7ZM14 7C13.4477 7 13 7.44772 13 8C13 8.55229 13.4477 9 14 9C14.5523 9 15 8.55229 15 8C15 7.44772 14.5523 7 14 7ZM0 4C0 1.79086 1.79086 0 4 0H16C18.2091 0 20 1.79086 20 4V12C20 14.2091 18.2091 16 16 16H14L11.5994 19.1974C10.7993 20.2629 9.20066 20.2629 8.40062 19.1974L6 16H4C1.79086 16 0 14.2091 0 12V4Z" fill="#484848"/>
</svg>
