<svg width="20" height="16" viewBox="0 0 20 16" fill="none" xmlns="http://www.w3.org/2000/svg">
<path fill-rule="evenodd" clip-rule="evenodd" d="M12 2H8C6.05784 2 4.80242 2.00425 3.87741 2.12861C3.00993 2.24524 2.73803 2.43354 2.58579 2.58579C2.43354 2.73803 2.24524 3.00993 2.12861 3.87741C2.00425 4.80242 2 6.05784 2 8C2 9.94216 2.00425 11.1976 2.12861 12.1226C2.24524 12.9901 2.43354 13.262 2.58579 13.4142C2.73803 13.5665 3.00993 13.7548 3.87741 13.8714C4.80242 13.9958 6.05784 14 8 14H12C13.9422 14 15.1976 13.9958 16.1226 13.8714C16.9901 13.7548 17.262 13.5665 17.4142 13.4142C17.5665 13.262 17.7548 12.9901 17.8714 12.1226C17.9958 11.1976 18 9.94216 18 8C18 6.05784 17.9958 4.80242 17.8714 3.87741C17.7548 3.00993 17.5665 2.73803 17.4142 2.58579C17.262 2.43354 16.9901 2.24524 16.1226 2.12861C15.1976 2.00425 13.9422 2 12 2ZM1.17157 1.17157C0 2.34315 0 4.22876 0 8C0 11.7712 0 13.6569 1.17157 14.8284C2.34315 16 4.22876 16 8 16H12C15.7712 16 17.6569 16 18.8284 14.8284C20 13.6569 20 11.7712 20 8C20 4.22876 20 2.34315 18.8284 1.17157C17.6569 0 15.7712 0 12 0H8C4.22876 0 2.34315 0 1.17157 1.17157Z" fill="#484848"/>
<path fill-rule="evenodd" clip-rule="evenodd" d="M4.14251 4.4855C4.42666 4.01192 5.04092 3.85836 5.5145 4.14251L8.45651 5.90772C8.97505 6.21884 9.30116 6.41312 9.56473 6.53704C9.8078 6.65131 9.92166 6.66762 10 6.66762C10.0783 6.66762 10.1922 6.65131 10.4353 6.53704C10.6988 6.41312 11.025 6.21884 11.5435 5.90772L14.4855 4.14251C14.9591 3.85836 15.5733 4.01192 15.8575 4.4855C16.1416 4.95908 15.9881 5.57334 15.5145 5.85749L12.5337 7.64599C12.0655 7.9269 11.6523 8.17485 11.2862 8.347C10.8894 8.53353 10.4756 8.66762 10 8.66762C9.52437 8.66762 9.11058 8.53353 8.71382 8.347C8.34765 8.17485 7.93445 7.9269 7.46632 7.64598C7.45343 7.63825 7.44049 7.63049 7.42752 7.6227L4.4855 5.85749C4.01192 5.57334 3.85836 4.95908 4.14251 4.4855Z" fill="#484848"/>
</svg>
