<svg width="20" height="16" viewBox="0 0 20 16" fill="none" xmlns="http://www.w3.org/2000/svg">
<path fill-rule="evenodd" clip-rule="evenodd" d="M1.17157 1.17157C0 2.34315 0 4.22876 0 8C0 11.7712 0 13.6569 1.17157 14.8284C2.34315 16 4.22876 16 8 16H12C15.7712 16 17.6569 16 18.8284 14.8284C20 13.6569 20 11.7712 20 8C20 4.22876 20 2.34315 18.8284 1.17157C17.6569 0 15.7712 0 12 0H8C4.22876 0 2.34315 0 1.17157 1.17157ZM4.44721 4.10557C3.95324 3.85858 3.35256 4.05881 3.10557 4.55279C2.85858 5.04676 3.05881 5.64744 3.55279 5.89443L7.76393 8L7.91375 8.07514C8.63973 8.43977 9.28513 8.76393 10 8.76393C10.7149 8.76393 11.3603 8.43977 12.0862 8.07514L12.2361 8L16.4472 5.89443C16.9412 5.64744 17.1414 5.04676 16.8944 4.55279C16.6474 4.05881 16.0468 3.85858 15.5528 4.10557L11.3416 6.21115C10.374 6.69495 10.1806 6.76393 10 6.76393C9.81939 6.76393 9.62596 6.69495 8.65836 6.21115L4.44721 4.10557Z" fill="#484848"/>
</svg>
