<svg width="64" height="108" viewBox="0 0 64 108" fill="none" xmlns="http://www.w3.org/2000/svg">
<rect x="0.5" y="0.5" width="63" height="107" rx="4.5" stroke="#9747FF" stroke-dasharray="10 5"/>
<path fill-rule="evenodd" clip-rule="evenodd" d="M34 26H30C28.0578 26 26.8024 26.0042 25.8774 26.1286C25.0099 26.2452 24.738 26.4335 24.5858 26.5858C24.4335 26.738 24.2452 27.0099 24.1286 27.8774C24.0042 28.8024 24 30.0578 24 32C24 33.9422 24.0042 35.1976 24.1286 36.1226C24.2452 36.9901 24.4335 37.262 24.5858 37.4142C24.738 37.5665 25.0099 37.7548 25.8774 37.8714C26.8024 37.9958 28.0578 38 30 38H34C35.9422 38 37.1976 37.9958 38.1226 37.8714C38.9901 37.7548 39.262 37.5665 39.4142 37.4142C39.5665 37.262 39.7548 36.9901 39.8714 36.1226C39.9958 35.1976 40 33.9422 40 32C40 30.0578 39.9958 28.8024 39.8714 27.8774C39.7548 27.0099 39.5665 26.738 39.4142 26.5858C39.262 26.4335 38.9901 26.2452 38.1226 26.1286C37.1976 26.0042 35.9422 26 34 26ZM23.1716 25.1716C22 26.3431 22 28.2288 22 32C22 35.7712 22 37.6569 23.1716 38.8284C24.3431 40 26.2288 40 30 40H34C37.7712 40 39.6569 40 40.8284 38.8284C42 37.6569 42 35.7712 42 32C42 28.2288 42 26.3431 40.8284 25.1716C39.6569 24 37.7712 24 34 24H30C26.2288 24 24.3431 24 23.1716 25.1716Z" fill="#484848"/>
<path fill-rule="evenodd" clip-rule="evenodd" d="M26.1425 28.4855C26.4267 28.0119 27.0409 27.8584 27.5145 28.1425L30.4565 29.9077C30.975 30.2188 31.3012 30.4131 31.5647 30.537C31.8078 30.6513 31.9217 30.6676 32 30.6676C32.0783 30.6676 32.1922 30.6513 32.4353 30.537C32.6988 30.4131 33.025 30.2188 33.5435 29.9077L36.4855 28.1425C36.9591 27.8584 37.5733 28.0119 37.8575 28.4855C38.1416 28.9591 37.9881 29.5733 37.5145 29.8575L34.5337 31.646C34.0655 31.9269 33.6523 32.1748 33.2862 32.347C32.8894 32.5335 32.4756 32.6676 32 32.6676C31.5244 32.6676 31.1106 32.5335 30.7138 32.347C30.3476 32.1748 29.9345 31.9269 29.4663 31.646C29.4534 31.6382 29.4405 31.6305 29.4275 31.6227L26.4855 29.8575C26.0119 29.5733 25.8584 28.9591 26.1425 28.4855Z" fill="#484848"/>
<path fill-rule="evenodd" clip-rule="evenodd" d="M23.1716 69.1716C22 70.3431 22 72.2288 22 76C22 79.7712 22 81.6569 23.1716 82.8284C24.3431 84 26.2288 84 30 84H34C37.7712 84 39.6569 84 40.8284 82.8284C42 81.6569 42 79.7712 42 76C42 72.2288 42 70.3431 40.8284 69.1716C39.6569 68 37.7712 68 34 68H30C26.2288 68 24.3431 68 23.1716 69.1716ZM26.4472 72.1056C25.9532 71.8586 25.3526 72.0588 25.1056 72.5528C24.8586 73.0468 25.0588 73.6474 25.5528 73.8944L29.7639 76L29.9138 76.0751C30.6397 76.4398 31.2851 76.7639 32 76.7639C32.7149 76.7639 33.3603 76.4398 34.0862 76.0751L34.2361 76L38.4472 73.8944C38.9412 73.6474 39.1414 73.0468 38.8944 72.5528C38.6474 72.0588 38.0468 71.8586 37.5528 72.1056L33.3416 74.2111C32.374 74.6949 32.1806 74.7639 32 74.7639C31.8194 74.7639 31.626 74.6949 30.6584 74.2111L26.4472 72.1056Z" fill="#484848"/>
</svg>
