<svg width="18" height="20" viewBox="0 0 18 20" fill="none" xmlns="http://www.w3.org/2000/svg">
<path fill-rule="evenodd" clip-rule="evenodd" d="M6.00225 17.1173C6.06388 18.7198 7.38243 20 9 20C10.6569 20 12 18.6569 12 17H16C16.5523 17 17 16.5523 17 16C17 15.4477 16.5523 15 16 15V9C16 8.42159 15.9298 7.85956 15.7976 7.32197L14 9.11956V15L8.11958 15L6.00225 17.1173ZM10.4275 4.20675C9.97518 4.07223 9.49603 4 9 4C6.23857 4 4 6.23857 4 9L4 10.6343L2 12.6343L2 9C2 5.47352 4.6077 2.55612 8 2.07089V1C8 0.447715 8.44771 0 9 0C9.55228 0 10 0.447715 10 1V2.07089C10.696 2.17045 11.359 2.3724 11.9733 2.661L10.4275 4.20675ZM9 18C8.44771 18 8 17.5523 8 17H10C10 17.5523 9.55228 18 9 18Z" fill="#484848"/>
<path fill-rule="evenodd" clip-rule="evenodd" d="M0.292893 18.7071C-0.0976311 18.3165 -0.0976312 17.6834 0.292893 17.2928L16.2929 1.29285C16.6834 0.902323 17.3166 0.902324 17.7071 1.29285C18.0976 1.68337 18.0976 2.31654 17.7071 2.70706L1.70711 18.7071C1.31658 19.0976 0.683418 19.0976 0.292893 18.7071Z" fill="#484848"/>
</svg>
