<svg width="64" height="108" viewBox="0 0 64 108" fill="none" xmlns="http://www.w3.org/2000/svg">
<rect x="0.5" y="0.5" width="63" height="107" rx="4.5" stroke="#9747FF" stroke-dasharray="10 5"/>
<path fill-rule="evenodd" clip-rule="evenodd" d="M38 38C38.5523 38 39 37.5523 39 37V31C39 27.134 35.866 24 32 24C28.134 24 25 27.134 25 31L25 37C25 37.5523 25.4477 38 26 38C26.5523 38 27 37.5523 27 37L27 31C27 28.2386 29.2386 26 32 26C34.7614 26 37 28.2386 37 31L37 37C37 37.5523 37.4477 38 38 38Z" fill="#484848"/>
<path fill-rule="evenodd" clip-rule="evenodd" d="M34 38C34.5523 38 35 38.4477 35 39C35 40.6569 33.6568 42 32 42C30.3431 42 29 40.6569 29 39C29 38.4477 29.4477 38 30 38C30.5523 38 31 38.4477 31 39C31 39.5523 31.4477 40 32 40C32.5523 40 33 39.5523 33 39C33 38.4477 33.4477 38 34 38Z" fill="#484848"/>
<path fill-rule="evenodd" clip-rule="evenodd" d="M40 38C40 38.5523 39.5523 39 39 39H25C24.4477 39 24 38.5523 24 38C24 37.4477 24.4477 37 25 37L39 37C39.5523 37 40 37.4477 40 38Z" fill="#484848"/>
<path fill-rule="evenodd" clip-rule="evenodd" d="M32 22C32.5523 22 33 22.4477 33 23V25C33 25.5523 32.5523 26 32 26C31.4477 26 31 25.5523 31 25V23C31 22.4477 31.4477 22 32 22Z" fill="#484848"/>
<path fill-rule="evenodd" clip-rule="evenodd" d="M35.0298 22.7575C35.1638 22.2217 35.7067 21.8959 36.2425 22.0299C39.0629 22.7349 41.265 24.9371 41.9701 27.7575C42.1041 28.2933 41.7783 28.8362 41.2425 28.9701C40.7067 29.1041 40.1638 28.7783 40.0299 28.2425C39.5039 26.1387 37.8612 24.4961 35.7574 23.9701C35.2216 23.8362 34.8959 23.2933 35.0298 22.7575Z" fill="#484848"/>
<path fill-rule="evenodd" clip-rule="evenodd" d="M28.9701 22.7575C28.8362 22.2217 28.2933 21.8959 27.7575 22.0299C24.9371 22.7349 22.7349 24.9371 22.0298 27.7575C21.8959 28.2933 22.2217 28.8362 22.7575 28.9701C23.2933 29.1041 23.8362 28.7783 23.9701 28.2425C24.4961 26.1387 26.1387 24.4961 28.2425 23.9701C28.7783 23.8362 29.1041 23.2933 28.9701 22.7575Z" fill="#484848"/>
<path d="M25.0056 75.1947L25.0056 80.8352C25.0056 80.9295 25.0802 81.006 25.1722 81.006L38.8278 81.006C38.9198 81.006 38.9944 80.9295 38.9944 80.8352V75.1947C38.9944 71.2331 35.8629 68.0217 32 68.0217C28.1371 68.0217 25.0056 71.2331 25.0056 75.1947Z" fill="#484848"/>
<path d="M32.1143 86H31.8858C30.2933 86 29.0024 84.6761 29.0024 83.043C29.0024 83.0213 29.0196 83.0036 29.0409 83.0036L34.9592 83.0036C34.9804 83.0036 34.9976 83.0213 34.9976 83.043C34.9976 84.6761 33.7067 86 32.1143 86Z" fill="#484848"/>
<path fill-rule="evenodd" clip-rule="evenodd" d="M32 66C32.5508 66 32.9974 66.458 32.9974 67.0229V69.0205C32.9974 69.5854 32.5508 70.0433 32 70.0433C31.4491 70.0433 31.0026 69.5854 31.0026 69.0205V67.0229C31.0026 66.458 31.4491 66 32 66Z" fill="#484848"/>
<path fill-rule="evenodd" clip-rule="evenodd" d="M35.0171 66.778C35.1455 66.2352 35.6882 65.9047 36.2293 66.0399C39.0331 66.7406 41.2623 68.9537 41.9692 71.7799C42.1052 72.3239 41.7784 72.8709 41.2392 73.0018C40.6999 73.1326 40.1525 72.7977 40.0165 72.2538C39.4952 70.1696 37.8451 68.5258 35.7643 68.0058C35.2232 67.8706 34.8887 67.3209 35.0171 66.778Z" fill="#484848"/>
<path fill-rule="evenodd" clip-rule="evenodd" d="M28.9829 66.778C28.8545 66.2352 28.3118 65.9047 27.7707 66.0399C24.9669 66.7406 22.7377 68.9537 22.0308 71.78C21.8948 72.3239 22.2216 72.8709 22.7609 73.0018C23.3001 73.1326 23.8475 72.7977 23.9835 72.2538C24.5048 70.1696 26.1549 68.5258 28.2357 68.0058C28.7768 67.8706 29.1113 67.3209 28.9829 66.778Z" fill="#484848"/>
<path fill-rule="evenodd" clip-rule="evenodd" d="M39.9918 81.006C39.9918 81.5709 39.5452 82.0289 38.9944 82.0289H25.0056C24.4547 82.0289 24.0082 81.5709 24.0082 81.006C24.0082 80.4411 24.4547 79.9831 25.0056 79.9831H38.9944C39.5452 79.9831 39.9918 80.4411 39.9918 81.006Z" fill="#484848"/>
</svg>
