<svg width="16" height="20" viewBox="0 0 16 20" fill="none" xmlns="http://www.w3.org/2000/svg">
<path fill-rule="evenodd" clip-rule="evenodd" d="M14 16C14.5523 16 15 15.5523 15 15V9C15 5.13401 11.866 2 8 2C4.13401 2 1 5.134 1 9L1 15C1 15.5523 1.44771 16 2 16C2.55228 16 3 15.5523 3 15L3 9C3 6.23857 5.23858 4 8 4C10.7614 4 13 6.23858 13 9V15C13 15.5523 13.4477 16 14 16Z" fill="#484848"/>
<path fill-rule="evenodd" clip-rule="evenodd" d="M10 16C10.5523 16 11 16.4477 11 17C11 18.6569 9.65685 20 8 20C6.34315 20 5 18.6569 5 17C5 16.4477 5.44771 16 6 16C6.55228 16 7 16.4477 7 17C7 17.5523 7.44772 18 8 18C8.55228 18 9 17.5523 9 17C9 16.4477 9.44772 16 10 16Z" fill="#484848"/>
<path fill-rule="evenodd" clip-rule="evenodd" d="M16 16C16 16.5523 15.5523 17 15 17H1C0.447715 17 0 16.5523 0 16C0 15.4477 0.447715 15 1 15L15 15C15.5523 15 16 15.4477 16 16Z" fill="#484848"/>
<path fill-rule="evenodd" clip-rule="evenodd" d="M8 0C8.55229 0 9 0.447715 9 1V3C9 3.55228 8.55229 4 8 4C7.44772 4 7 3.55228 7 3V1C7 0.447715 7.44772 0 8 0Z" fill="#484848"/>
</svg>
