<svg width="20" height="20" viewBox="0 0 20 20" fill="none" xmlns="http://www.w3.org/2000/svg">
<path d="M3.00561 9.19465L3.00561 14.8352C3.00561 14.9295 3.08019 15.006 3.1722 15.006L16.8278 15.006C16.9198 15.006 16.9944 14.9295 16.9944 14.8352V9.19465C16.9944 5.23312 13.8629 2.02167 10 2.02167C6.13711 2.02167 3.00561 5.23312 3.00561 9.19465Z" fill="#484848"/>
<path d="M10.1143 20H9.88577C8.29334 20 7.00242 18.6761 7.00242 17.043C7.00242 17.0213 7.01963 17.0036 7.04086 17.0036L12.9592 17.0036C12.9804 17.0036 12.9976 17.0213 12.9976 17.043C12.9976 18.6761 11.7067 20 10.1143 20Z" fill="#484848"/>
<path fill-rule="evenodd" clip-rule="evenodd" d="M9.99999 0C10.5508 0 10.9974 0.457954 10.9974 1.02287V3.02046C10.9974 3.58538 10.5508 4.04333 9.99999 4.04333C9.44914 4.04333 9.00259 3.58538 9.00259 3.02046V1.02287C9.00259 0.457954 9.44914 0 9.99999 0Z" fill="#484848"/>
<path fill-rule="evenodd" clip-rule="evenodd" d="M13.0171 0.778037C13.1455 0.23516 13.6882 -0.0953132 14.2293 0.0399041C17.0331 0.740561 19.2623 2.95373 19.9692 5.77995C20.1052 6.3239 19.7784 6.87092 19.2392 7.00176C18.6999 7.1326 18.1525 6.79771 18.0165 6.25376C17.4952 4.16956 15.8451 2.52583 13.7643 2.00584C13.2232 1.87062 12.8887 1.32091 13.0171 0.778037Z" fill="#484848"/>
<path fill-rule="evenodd" clip-rule="evenodd" d="M6.98291 0.778037C6.85449 0.23516 6.31175 -0.0953132 5.77066 0.0399041C2.96691 0.74056 0.737673 2.95374 0.0308339 5.77995C-0.105209 6.3239 0.221633 6.87092 0.760854 7.00176C1.30008 7.1326 1.84748 6.7977 1.98353 6.25375C2.50479 4.16956 4.15489 2.52583 6.2357 2.00584C6.77679 1.87062 7.11133 1.32091 6.98291 0.778037Z" fill="#484848"/>
<path fill-rule="evenodd" clip-rule="evenodd" d="M17.9918 15.006C17.9918 15.5709 17.5452 16.0289 16.9944 16.0289H3.00557C2.45472 16.0289 2.00816 15.5709 2.00816 15.006C2.00816 14.4411 2.45472 13.9831 3.00557 13.9831H16.9944C17.5452 13.9831 17.9918 14.4411 17.9918 15.006Z" fill="#484848"/>
</svg>
