<svg width="24" height="24" viewBox="0 0 24 24" fill="none" xmlns="http://www.w3.org/2000/svg">
<path fill-rule="evenodd" clip-rule="evenodd" d="M9.00225 19.1174C9.06388 20.7199 10.3824 22 12 22C13.6569 22 15 20.6569 15 19H19C19.5523 19 20 18.5523 20 18C20 17.4478 19.5523 17 19 17V11C19 10.4216 18.9298 9.85961 18.7976 9.32201L17 11.1196V17L11.1196 17L9.00225 19.1174ZM13.4275 6.20679C12.9752 6.07228 12.496 6.00005 12 6.00005C9.23857 6.00005 7 8.23862 7 11L7 12.6343L5 14.6343L5 11C5 7.47357 7.6077 4.55616 11 4.07093V3.00005C11 2.44776 11.4477 2.00005 12 2.00005C12.5523 2.00005 13 2.44776 13 3.00005V4.07093C13.696 4.17049 14.359 4.37245 14.9733 4.66105L13.4275 6.20679ZM12 20C11.4477 20 11 19.5523 11 19H13C13 19.5523 12.5523 20 12 20Z" fill="#484848"/>
<path fill-rule="evenodd" clip-rule="evenodd" d="M3.29289 20.7071C2.90237 20.3166 2.90237 19.6834 3.29289 19.2929L19.2929 3.29289C19.6834 2.90237 20.3166 2.90237 20.7071 3.29289C21.0976 3.68342 21.0976 4.31658 20.7071 4.70711L4.70711 20.7071C4.31658 21.0976 3.68342 21.0976 3.29289 20.7071Z" fill="#484848"/>
</svg>
