<svg width="20" height="20" viewBox="0 0 20 20" fill="none" xmlns="http://www.w3.org/2000/svg">
<path fill-rule="evenodd" clip-rule="evenodd" d="M16.0002 16.0002C16.5525 16.0002 17.0002 15.5525 17.0002 15.0002V9.00024C17.0002 5.13425 13.8662 2.00024 10.0002 2.00024C6.13425 2.00024 3.00024 5.13424 3.00024 9.00023L3.00024 15.0002C3.00024 15.5525 3.44795 16.0002 4.00024 16.0002C4.55252 16.0002 5.00024 15.5525 5.00024 15.0002L5.00024 9.00023C5.00024 6.23881 7.23881 4.00024 10.0002 4.00024C12.7617 4.00024 15.0002 6.23881 15.0002 9.00024L15.0002 15.0002C15.0002 15.5525 15.448 16.0002 16.0002 16.0002Z" fill="#484848"/>
<path fill-rule="evenodd" clip-rule="evenodd" d="M12.0002 16.0002C12.5525 16.0002 13.0002 16.448 13.0002 17.0002C13.0002 18.6571 11.6571 20.0002 10.0002 20.0002C8.34338 20.0002 7.00024 18.6571 7.00024 17.0002C7.00024 16.448 7.44795 16.0002 8.00024 16.0002C8.55252 16.0002 9.00024 16.448 9.00024 17.0002C9.00024 17.5525 9.44795 18.0002 10.0002 18.0002C10.5525 18.0002 11.0002 17.5525 11.0002 17.0002C11.0002 16.448 11.448 16.0002 12.0002 16.0002Z" fill="#484848"/>
<path fill-rule="evenodd" clip-rule="evenodd" d="M18.0002 16.0002C18.0002 16.5525 17.5525 17.0002 17.0002 17.0002H3.00024C2.44795 17.0002 2.00024 16.5525 2.00024 16.0002C2.00024 15.448 2.44795 15.0002 3.00024 15.0002L17.0002 15.0002C17.5525 15.0002 18.0002 15.448 18.0002 16.0002Z" fill="#484848"/>
<path fill-rule="evenodd" clip-rule="evenodd" d="M10.0002 0.000236523C10.5525 0.000236523 11.0002 0.447952 11.0002 1.00024V3.00024C11.0002 3.55252 10.5525 4.00024 10.0002 4.00024C9.44795 4.00024 9.00024 3.55252 9.00024 3.00024V1.00024C9.00024 0.447952 9.44795 0.000236523 10.0002 0.000236523Z" fill="#484848"/>
<path fill-rule="evenodd" clip-rule="evenodd" d="M13.0301 0.757701C13.164 0.221906 13.707 -0.103855 14.2428 0.0300941C17.0631 0.735186 19.2653 2.93734 19.9704 5.7577C20.1043 6.29349 19.7786 6.83643 19.2428 6.97038C18.707 7.10433 18.164 6.77857 18.0301 6.24278C17.5041 4.13898 15.8615 2.49633 13.7577 1.97038C13.2219 1.83643 12.8961 1.2935 13.0301 0.757701Z" fill="#484848"/>
<path fill-rule="evenodd" clip-rule="evenodd" d="M6.97038 0.757701C6.83643 0.221906 6.2935 -0.103855 5.7577 0.0300941C2.93734 0.735186 0.735185 2.93733 0.0300941 5.7577C-0.103855 6.2935 0.221906 6.83643 0.757701 6.97038C1.2935 7.10433 1.83643 6.77857 1.97038 6.24277C2.49633 4.13898 4.13898 2.49633 6.24277 1.97038C6.77857 1.83643 7.10433 1.2935 6.97038 0.757701Z" fill="#484848"/>
</svg>
