<svg width="16" height="20" viewBox="0 0 16 20" fill="none" xmlns="http://www.w3.org/2000/svg">
<path d="M1 9.00002L1 14.8289C1 14.9234 1.07658 15 1.17105 15L14.8289 15C14.9234 15 15 14.9234 15 14.829V9.00002C15 5.13402 11.866 2 8 2C4.13401 2 1 5.13402 1 9.00002Z" fill="#484848"/>
<path d="M8.03948 20H7.96053C6.32547 20 5 18.6745 5 17.0395C5 17.0177 5.01767 17 5.03947 17L10.9605 17C10.9823 17 11 17.0177 11 17.0395C11 18.6745 9.67453 20 8.03948 20Z" fill="#484848"/>
<path fill-rule="evenodd" clip-rule="evenodd" d="M8 0C8.55228 0 9 0.447715 9 1V3C9 3.55228 8.55228 4 8 4C7.44771 4 7 3.55228 7 3V1C7 0.447715 7.44771 0 8 0Z" fill="#484848"/>
<path fill-rule="evenodd" clip-rule="evenodd" d="M16 15C16 15.5523 15.5523 16 15 16H1C0.447715 16 0 15.5523 0 15C0 14.4477 0.447715 14 1 14H15C15.5523 14 16 14.4477 16 15Z" fill="#484848"/>
</svg>
