<svg width="64" height="108" viewBox="0 0 64 108" fill="none" xmlns="http://www.w3.org/2000/svg">
<rect x="0.5" y="0.5" width="63" height="107" rx="4.5" stroke="#9747FF" stroke-dasharray="10 5"/>
<path fill-rule="evenodd" clip-rule="evenodd" d="M38 38C38.5523 38 39 37.5523 39 37V31C39 27.134 35.866 24 32 24C28.134 24 25 27.134 25 31L25 37C25 37.5523 25.4477 38 26 38C26.5523 38 27 37.5523 27 37L27 31C27 28.2386 29.2386 26 32 26C34.7614 26 37 28.2386 37 31V37C37 37.5523 37.4477 38 38 38Z" fill="#484848"/>
<path fill-rule="evenodd" clip-rule="evenodd" d="M34 38C34.5523 38 35 38.4477 35 39C35 40.6569 33.6569 42 32 42C30.3431 42 29 40.6569 29 39C29 38.4477 29.4477 38 30 38C30.5523 38 31 38.4477 31 39C31 39.5523 31.4477 40 32 40C32.5523 40 33 39.5523 33 39C33 38.4477 33.4477 38 34 38Z" fill="#484848"/>
<path fill-rule="evenodd" clip-rule="evenodd" d="M40 38C40 38.5523 39.5523 39 39 39H25C24.4477 39 24 38.5523 24 38C24 37.4477 24.4477 37 25 37L39 37C39.5523 37 40 37.4477 40 38Z" fill="#484848"/>
<path fill-rule="evenodd" clip-rule="evenodd" d="M32 22C32.5523 22 33 22.4477 33 23V25C33 25.5523 32.5523 26 32 26C31.4477 26 31 25.5523 31 25V23C31 22.4477 31.4477 22 32 22Z" fill="#484848"/>
<path d="M25 75L25 80.8289C25 80.9234 25.0766 81 25.1711 81L38.8289 81C38.9234 81 39 80.9234 39 80.8289V75C39 71.134 35.866 68 32 68C28.134 68 25 71.134 25 75Z" fill="#484848"/>
<path d="M32.0395 86H31.9605C30.3255 86 29 84.6745 29 83.0395C29 83.0177 29.0177 83 29.0395 83L34.9605 83C34.9823 83 35 83.0177 35 83.0395C35 84.6745 33.6745 86 32.0395 86Z" fill="#484848"/>
<path fill-rule="evenodd" clip-rule="evenodd" d="M32 66C32.5523 66 33 66.4477 33 67V69C33 69.5523 32.5523 70 32 70C31.4477 70 31 69.5523 31 69V67C31 66.4477 31.4477 66 32 66Z" fill="#484848"/>
<path fill-rule="evenodd" clip-rule="evenodd" d="M40 81C40 81.5523 39.5523 82 39 82H25C24.4477 82 24 81.5523 24 81C24 80.4477 24.4477 80 25 80H39C39.5523 80 40 80.4477 40 81Z" fill="#484848"/>
</svg>
