<svg width="64" height="108" viewBox="0 0 64 108" fill="none" xmlns="http://www.w3.org/2000/svg">
<rect x="0.5" y="0.5" width="63" height="107" rx="4.5" stroke="#9747FF" stroke-dasharray="10 5"/>
<path fill-rule="evenodd" clip-rule="evenodd" d="M37.9023 22.1813C40.3363 21.3159 42.6841 23.6637 41.8187 26.0977L36.8895 39.9609C35.9343 42.6475 32.1501 42.6899 31.135 40.0253L31.13 40.0122L29.2201 34.7799L23.9747 32.8651C21.3101 31.85 21.3524 28.0657 24.0391 27.1105L37.9023 22.1813ZM39.9342 25.4277C40.2352 24.5813 39.4187 23.7648 38.5723 24.0657L24.7091 28.9949C23.7767 29.3264 23.7602 30.6378 24.6812 30.9939L30.3429 33.0606C30.6199 33.1618 30.8382 33.38 30.9394 33.6571L33.0061 39.3188C33.3622 40.2398 34.6736 40.2233 35.0051 39.2909L39.9342 25.4277Z" fill="#484848"/>
<path fill-rule="evenodd" clip-rule="evenodd" d="M29.2929 34.7071C28.9024 34.3165 28.9024 33.6834 29.2929 33.2928L33.2929 29.2929C33.6834 28.9024 34.3166 28.9024 34.7071 29.2929C35.0976 29.6834 35.0976 30.3166 34.7071 30.7071L30.7071 34.7071C30.3166 35.0976 29.6834 35.0976 29.2929 34.7071Z" fill="#484848"/>
<path fill-rule="evenodd" clip-rule="evenodd" d="M41.8187 70.0977C42.6841 67.6638 40.3363 65.3159 37.9023 66.1814L24.0391 71.1105C21.3525 72.0658 21.3101 75.8501 23.9747 76.8652L28.1955 78.4059C28.2247 78.3664 28.2571 78.3286 28.2929 78.2929L33.2929 73.2929C33.6834 72.9024 34.3166 72.9024 34.7071 73.2929C35.0976 73.6834 35.0976 74.3166 34.7071 74.7071L29.7071 79.7071C29.6714 79.7428 29.6336 79.7753 29.5942 79.8045L31.13 84.0123L31.135 84.0253C32.1501 86.6899 35.9343 86.6476 36.8896 83.961L41.8187 70.0977Z" fill="#484848"/>
</svg>
