<svg width="20" height="20" viewBox="0 0 20 20" fill="none" xmlns="http://www.w3.org/2000/svg">
<path fill-rule="evenodd" clip-rule="evenodd" d="M15.9023 0.181362C18.3363 -0.684055 20.6841 1.66376 19.8187 4.09774L14.8896 17.961C13.9343 20.6476 10.1501 20.6899 9.135 18.0253L9.13003 18.0123L7.22016 12.7799L1.9747 10.8652C-0.689875 9.85009 -0.647525 6.06576 2.03909 5.11052L15.9023 0.181362ZM17.9343 3.42772C18.2352 2.5813 17.4188 1.76484 16.5723 2.06579L2.70912 6.99495C1.77671 7.32647 1.76018 8.63786 2.68119 8.99399L8.34292 11.0607C8.61997 11.1618 8.83826 11.3801 8.93939 11.6571L11.0061 17.3188C11.3622 18.2399 12.6736 18.2234 13.0051 17.2909L17.9343 3.42772Z" fill="#484848"/>
<path fill-rule="evenodd" clip-rule="evenodd" d="M7.29296 12.7071C6.90243 12.3166 6.90243 11.6834 7.29296 11.2929L11.2929 7.29294C11.6834 6.90242 12.3166 6.90242 12.7071 7.29294C13.0977 7.68347 13.0977 8.31664 12.7071 8.70716L8.70717 12.7071C8.31664 13.0976 7.68348 13.0976 7.29296 12.7071Z" fill="#484848"/>
</svg>
