<svg width="20" height="20" viewBox="0 0 20 20" fill="none" xmlns="http://www.w3.org/2000/svg">
<path fill-rule="evenodd" clip-rule="evenodd" d="M19.8187 4.09774C20.6841 1.66376 18.3363 -0.684055 15.9023 0.181362L2.03909 5.11052C-0.647525 6.06576 -0.689875 9.85009 1.9747 10.8652L6.19546 12.4059C6.22467 12.3664 6.25714 12.3286 6.29289 12.2929L11.2929 7.29289C11.6834 6.90237 12.3166 6.90236 12.7071 7.29289C13.0976 7.68341 13.0976 8.31658 12.7071 8.7071L7.70711 13.7071C7.67136 13.7428 7.63359 13.7753 7.59415 13.8045L9.13003 18.0123L9.135 18.0253C10.1501 20.6899 13.9343 20.6476 14.8896 17.961L19.8187 4.09774Z" fill="#484848"/>
</svg>
