<svg width="64" height="108" viewBox="0 0 64 108" fill="none" xmlns="http://www.w3.org/2000/svg">
<rect x="0.5" y="0.5" width="63" height="107" rx="4.5" stroke="#9747FF" stroke-dasharray="10 5"/>
<path fill-rule="evenodd" clip-rule="evenodd" d="M28.0294 28.7041L29.6399 27.2746L28.4469 24.2205L25.3584 24.6957C24.4365 24.8375 23.9921 25.4864 24.0091 26.0615C24.095 28.9606 24.8244 33.1907 27.8122 36.1789C30.7946 39.1617 35.0184 39.8985 37.9215 39.9897C38.5001 40.0079 39.1528 39.5598 39.2906 38.632L39.7457 35.5674L36.0087 34.7721L35.4857 35.6269C34.8828 36.6123 33.6278 37.0097 32.5575 36.5119C31.3898 35.9688 30.4229 35.3925 29.5746 34.5331C28.7447 33.6924 28.1356 32.6879 27.5113 31.4756C27.0287 30.5385 27.2471 29.3984 28.0294 28.7041ZM25.0542 22.7189L28.1427 22.2437C29.0684 22.1013 29.969 22.6203 30.3098 23.4927L31.5029 26.5469C31.8076 27.327 31.594 28.2145 30.9675 28.7704L29.357 30.1999C29.255 30.2904 29.227 30.4387 29.2894 30.5599C30.482 32.8757 31.2823 33.713 33.401 34.6985C33.538 34.7622 33.7009 34.712 33.7797 34.5831L34.3027 33.7283C34.7452 33.005 35.5957 32.6394 36.425 32.8159L40.162 33.6112C41.1951 33.8311 41.8791 34.8164 41.724 35.8612L41.2689 38.9258C41.0091 40.675 39.6261 42.0443 37.8586 41.9887C34.7746 41.8918 29.919 41.1146 26.3979 37.5931C22.87 34.0647 22.1012 29.201 22.01 26.1207C21.9579 24.3628 23.3161 22.9864 25.0542 22.7189Z" fill="#484848"/>
<path d="M27.9217 67.4014C28.4087 67.2779 28.9123 67.535 29.0975 68.002L30.2577 70.9307C30.4457 71.4049 30.2467 71.9441 29.7958 72.1826L28.2928 72.9785C27.6679 73.3094 27.4157 74.0859 27.7469 74.7236C28.9734 77.0839 30.4182 79.1021 32.7967 80.2744C33.4557 80.599 34.2177 80.3033 34.5243 79.6855L35.0438 78.6396C35.2451 78.234 35.6937 78.0137 36.1376 78.1035L39.8632 78.8584C40.4001 78.9671 40.7499 79.4873 40.6473 80.0254L40.1317 82.7324C39.8681 84.1157 38.7396 84.9952 37.5223 84.8477C34.6203 84.4959 30.3428 83.4211 27.2069 80.292C24.0996 77.1914 23.0226 73.3482 22.662 70.7686C22.5057 69.6501 23.2806 68.5795 24.5741 68.251L27.9217 67.4014Z" fill="#484848" stroke="#484848" stroke-width="2" stroke-linecap="round"/>
</svg>
