<svg width="21" height="20" viewBox="0 0 21 20" fill="none" xmlns="http://www.w3.org/2000/svg">
<path d="M6.92188 1.40137C7.40885 1.27793 7.91239 1.53498 8.09766 2.00195L9.25781 4.93066C9.44583 5.40488 9.24682 5.94407 8.7959 6.18262L7.29297 6.97852C6.66802 7.30936 6.4158 8.08591 6.74707 8.72363C7.97357 11.0839 9.41832 13.1021 11.7969 14.2744C12.4559 14.599 13.2178 14.3033 13.5244 13.6855L14.0439 12.6396C14.2453 12.234 14.6938 12.0137 15.1377 12.1035L18.8633 12.8584C19.4002 12.9671 19.75 13.4873 19.6475 14.0254L19.1318 16.7324C18.8682 18.1157 17.7398 18.9952 16.5225 18.8477C13.6205 18.4959 9.34291 17.4211 6.20703 14.292C3.09976 11.1914 2.0227 7.34821 1.66211 4.76855C1.50578 3.65006 2.28074 2.57945 3.57422 2.25098L6.92188 1.40137Z" fill="#484848" stroke="#484848" stroke-width="2" stroke-linecap="round"/>
</svg>
