<svg width="20" height="20" viewBox="0 0 20 20" fill="none" xmlns="http://www.w3.org/2000/svg">
<path fill-rule="evenodd" clip-rule="evenodd" d="M6.02963 6.70397L7.64021 5.27451L6.44715 2.22035L3.35862 2.69557C2.43674 2.83742 1.99233 3.48625 2.00936 4.06137C2.09523 6.96049 2.82464 11.1906 5.81247 14.1788C8.79483 17.1616 13.0187 17.8984 15.9217 17.9896C16.5003 18.0078 17.153 17.5597 17.2908 16.6319L17.7459 13.5673L14.009 12.772L13.486 13.6268C12.8831 14.6122 11.628 15.0096 10.5577 14.5118C9.3901 13.9687 8.4232 13.3924 7.57482 12.533C6.74493 11.6923 6.13589 10.6878 5.51159 9.4755C5.02897 8.53836 5.24733 7.39829 6.02963 6.70397ZM3.05447 0.718837L6.143 0.243617C7.0687 0.101182 7.96928 0.620242 8.31006 1.49264L9.50312 4.5468C9.80787 5.32695 9.59423 6.21436 8.96781 6.77033L7.35723 8.19979C7.25529 8.29026 7.22726 8.43865 7.28966 8.55982C8.48223 10.8756 9.28256 11.7129 11.4012 12.6984C11.5382 12.7621 11.7011 12.7119 11.78 12.583L12.303 11.7282C12.7455 11.0049 13.596 10.6393 14.4253 10.8158L18.1623 11.6111C19.1954 11.831 19.8794 12.8163 19.7242 13.8611L19.2691 16.9257C19.0094 18.6749 17.6264 20.0442 15.8589 19.9886C12.7748 19.8917 7.91925 19.1145 4.39816 15.593C0.870253 12.0646 0.101468 7.20087 0.0102372 4.12058C-0.0418259 2.36275 1.31632 0.98628 3.05447 0.718837Z" fill="#484848"/>
</svg>
