<svg width="160" height="115" viewBox="0 0 160 115" fill="none" xmlns="http://www.w3.org/2000/svg">
<path d="M81.1693 106.555C116.774 106.555 145.637 85.9174 145.637 60.4593C145.637 35.0012 116.774 14.3633 81.1693 14.3633C45.5648 14.3633 16.7017 35.0012 16.7017 60.4593C16.7017 85.9174 45.5648 106.555 81.1693 106.555Z" fill="#F2F2F2"/>
<path d="M82.6106 105.823C106.841 105.823 126.484 104.151 126.484 102.088C126.484 100.026 106.841 98.3535 82.6106 98.3535C58.3798 98.3535 38.7368 100.026 38.7368 102.088C38.7368 104.151 58.3798 105.823 82.6106 105.823Z" fill="#F2F2F2"/>
<path d="M40.7047 39.8608C40.7047 39.8608 39.8928 44.5713 33.977 50.6346C33.977 50.6346 33.3233 49.8258 34.4545 46.4747C35.5854 43.1237 40.3674 38.7198 40.7047 39.8608Z" fill="#BABABA"/>
<path d="M40.7048 39.8604C40.7048 39.8604 35.3813 43.6665 33.977 50.6341C33.977 50.6341 33.7048 53.0235 34.524 55.094" stroke="#A6A6A6" stroke-miterlimit="10" stroke-linecap="round"/>
<path d="M26.3962 43.6657C26.3962 43.6657 27.8897 42.5345 25.3203 39.7094C22.8796 37.0255 20.2956 34.6192 15.2451 33.7373C15.2451 33.7373 16.7695 40.5754 20.0604 42.2053C23.3514 43.8353 26.3962 43.6657 26.3962 43.6657Z" fill="#BABABA"/>
<path d="M14.1374 48.6943C14.1374 48.6943 19.4067 49.8433 28.3436 46.8621C28.3436 46.8621 27.7895 45.9386 23.7962 45.6281C19.8028 45.3174 13.0974 47.9268 14.1374 48.6943Z" fill="#BABABA"/>
<path d="M14.1372 48.6938C14.1372 48.6938 20.4593 45.3485 28.3434 46.8617C28.3434 46.8617 29.1543 47.0646 29.9802 48.1672" stroke="#A6A6A6" stroke-miterlimit="10" stroke-linecap="round"/>
<path d="M18.5049 53.4661C18.5049 53.4661 24.1438 57.1763 33.0804 54.1954C33.0804 54.1954 31.3424 51.0527 27.3492 50.7419C23.3559 50.4312 17.4647 52.6986 18.5049 53.4661Z" fill="#BABABA"/>
<path d="M18.5049 53.4662C18.5049 53.4662 24.5826 50.6315 33.0804 54.1955C33.0804 54.1955 34.0797 54.6401 34.9056 55.7427" stroke="#A6A6A6" stroke-miterlimit="10" stroke-linecap="round"/>
<path d="M37.5917 35.4003C37.5917 35.4003 39.2559 35.201 35.1949 38.956C31.3601 42.502 31.8477 42.5296 31.8477 42.5296C31.8477 42.5296 33.3028 37.2237 37.5917 35.4003Z" fill="#A6A6A6"/>
<path d="M29.0581 44.3258C29.0581 44.3258 30.3011 44.8049 32.5429 42.7484C34.7847 40.6919 35.6204 36.1087 37.5918 35.4004C37.5918 35.4004 32.646 36.9974 29.0581 44.3258Z" fill="#BABABA"/>
<path d="M37.2092 60.0728C34.6805 54.9815 31.1699 49.1974 26.3962 43.6657C26.3962 43.6657 25.2234 42.1306 21.1491 38.1508C17.0748 34.171 15.2451 33.7373 15.2451 33.7373" stroke="#A6A6A6" stroke-miterlimit="10" stroke-linecap="round"/>
<path d="M37.0076 35.6445C37.0076 35.6445 32.3013 37.6974 29.0581 44.3259C28.2725 45.9319 29.2124 47.2027 29.9806 48.1673" stroke="#A6A6A6" stroke-miterlimit="10" stroke-linecap="round"/>
<path d="M133.558 86.6275C133.558 86.6275 129.624 89.5289 120.561 87.3995C120.561 87.3995 120.585 85.9464 123.837 84.5488C127.09 83.151 134.072 85.2817 133.558 86.6275Z" fill="#BABABA"/>
<path d="M133.277 86.3628C133.277 86.3628 127.069 84.289 120.602 87.2422C120.602 87.2422 118.506 88.4246 117.311 90.3029" stroke="#A6A6A6" stroke-miterlimit="10" stroke-linecap="round"/>
<path d="M120.442 80.2447C120.442 80.2447 122.235 80.7891 123.015 77.0517C123.756 73.5012 124.189 69.9975 121.938 65.3926C121.938 65.3926 117.294 70.64 117.906 74.26C118.518 77.8802 120.442 80.2447 120.442 80.2447Z" fill="#BABABA"/>
<path d="M133.774 81.6455C133.774 81.6455 135.158 82.5914 129.628 82.7426C124.406 82.8857 124.754 83.2275 124.754 83.2275C124.754 83.2275 129.346 80.1933 133.774 81.6455Z" fill="#A6A6A6"/>
<path d="M121.472 82.7422C121.472 82.7422 122.092 83.9212 125.134 83.8499C128.176 83.7786 131.825 80.8806 133.775 81.6456C133.775 81.6456 129.001 79.5907 121.472 82.7422Z" fill="#BABABA"/>
<path d="M113.501 98.626C116.141 93.5911 118.764 87.3548 120.442 80.2447C120.442 80.2447 120.997 78.3945 121.829 72.7612C122.661 67.1279 121.938 65.3926 121.938 65.3926" stroke="#A6A6A6" stroke-miterlimit="10" stroke-linecap="round"/>
<path d="M133.174 81.4443C133.174 81.4443 128.28 79.8899 121.472 82.7418C119.822 83.4327 119.354 84.5237 118.657 86.5461" stroke="#A6A6A6" stroke-miterlimit="10" stroke-linecap="round"/>
<path d="M67.532 53.0819C66.2589 53.0819 65.0264 52.6354 64.0488 51.82L61.3368 49.5578C60.3608 48.7438 59.2015 48.3076 58.0138 48.3076H44.5539C43.3325 48.3076 42.3423 49.2974 42.3423 50.5183V53.0819V99.2269C42.3423 101.334 44.0509 103.042 46.1585 103.042H113.256C114.895 103.042 116.224 101.713 116.224 100.074V56.0491C116.224 54.4104 114.895 53.0821 113.256 53.0821H67.532V53.0819Z" fill="#A6A6A6"/>
<path d="M90.6687 15.0855C80.3583 14.4291 71.1048 21.8785 69.5854 32.0793C68.692 38.0774 70.5365 43.7773 74.1259 48.007C74.6564 48.6319 74.853 49.4718 74.6444 50.2634L72.3747 58.8682L81.956 54.4021C82.5016 54.1478 83.1224 54.0925 83.7001 54.2647C85.8846 54.9153 88.2345 55.2123 90.6977 55.0662C99.8126 54.5248 107.5 47.7319 109.147 38.7659C111.342 26.8159 102.613 15.8457 90.6687 15.0855Z" fill="#D9D9D9"/>
<path d="M89.4847 39.5052C88.4277 39.5709 87.4924 38.7653 87.5478 37.7077C87.5688 37.3066 87.6089 36.9464 87.6679 36.6272C87.8091 35.8628 88.132 35.15 88.6369 34.489C88.9272 34.0932 89.2622 33.7471 89.6428 33.4504C90.0228 33.1541 90.3709 32.8437 90.6869 32.5196C91.0022 32.1959 91.2633 31.8382 91.4703 31.4476C91.6768 31.057 91.7614 30.5589 91.7239 29.9522C91.6602 28.9279 91.3334 28.229 90.7435 27.8563C90.1537 27.4837 89.4716 27.3214 88.6982 27.3695C87.5896 27.4383 86.8457 27.7947 86.4663 28.4371C86.3493 28.6349 86.2485 28.8521 86.1638 29.0887C85.7953 30.118 85.0061 31.0309 83.915 31.0988C82.7423 31.1717 81.6882 30.2641 81.9302 29.1143C81.981 28.873 82.0442 28.6376 82.1198 28.4081C82.4021 27.5513 82.8336 26.8106 83.4142 26.1867C83.9945 25.5632 84.7088 25.0672 85.5572 24.6997C86.4047 24.3322 87.3519 24.1159 88.3976 24.0509C90.6557 23.9105 92.4664 24.2598 93.8307 25.0984C95.1942 25.9375 95.941 27.3916 96.0698 29.4616C96.1115 30.1311 96.0796 30.7206 95.9752 31.2306C95.8701 31.7408 95.6947 32.2083 95.4484 32.633C95.2017 33.0575 94.8909 33.4602 94.5161 33.84C94.1407 34.2205 93.7141 34.6139 93.2359 35.0216C92.7978 35.4058 92.4472 35.7583 92.1839 36.0786C91.9204 36.3995 91.7255 36.7319 91.6006 37.075C91.475 37.4187 91.4025 37.7752 91.3836 38.1434C91.3476 38.8293 90.8422 39.4208 90.1566 39.4634L89.4847 39.5052ZM89.8764 45.5576C88.7418 45.6281 87.7649 44.7656 87.6944 43.631C87.6238 42.4965 88.4864 41.5195 89.6209 41.449L89.7461 41.4412C90.8807 41.3707 91.8576 42.2332 91.9281 43.3677C91.9987 44.5023 91.1361 45.4792 90.0016 45.5498L89.8764 45.5576Z" fill="#909090"/>
<path d="M116.224 100.323C116.224 100.323 111.657 91.7613 111.201 90.7779L98.721 65.3641C98.4074 64.6887 97.7302 64.2567 96.9852 64.2567H50.6095C48.9235 64.2567 46.4851 63.3734 45.1905 62.2936L43.3192 60.7326C42.3432 59.9186 41.1839 59.4824 39.9962 59.4824H27.1868C25.8234 59.4824 24.8972 60.867 25.4182 62.1263L40.9075 99.5733C41.7759 101.672 43.8241 103.041 46.0963 103.041H115.386C115.838 103.041 116.255 102.655 116.255 102.203L116.224 100.323Z" fill="#CFCFCF"/>
</svg>
