<svg width="160" height="115" viewBox="0 0 160 115" fill="none" xmlns="http://www.w3.org/2000/svg">
<path d="M81.1693 106.555C116.774 106.555 145.637 85.9174 145.637 60.4593C145.637 35.0012 116.774 14.3633 81.1693 14.3633C45.5648 14.3633 16.7017 35.0012 16.7017 60.4593C16.7017 85.9174 45.5648 106.555 81.1693 106.555Z" fill="#F2F2F2"/>
<path d="M51.3937 78.9418C51.3937 78.9418 50.5818 83.6523 44.6659 89.7156C44.6659 89.7156 44.0122 88.9068 45.1434 85.5558C46.2744 82.2047 51.0563 77.8008 51.3937 78.9418Z" fill="#82CA90"/>
<path d="M51.2966 78.8056C51.3716 78.752 51.4758 78.7692 51.5295 78.8441C51.5831 78.9191 51.5659 79.0233 51.491 79.077L51.4904 79.0777C51.4899 79.0781 51.4889 79.0785 51.4878 79.0793C51.4855 79.081 51.4818 79.0836 51.477 79.0871C51.4674 79.0942 51.453 79.1048 51.4339 79.1191C51.3957 79.1479 51.3389 79.1914 51.2659 79.2493C51.12 79.3651 50.9092 79.5391 50.6514 79.7696C50.1355 80.2306 49.432 80.9179 48.685 81.8217C47.1918 83.6283 45.5275 86.2945 44.8313 89.7399L44.8294 89.7591C44.8276 89.7763 44.825 89.8021 44.8222 89.8358C44.8165 89.9034 44.8092 90.0029 44.8029 90.129C44.7904 90.3813 44.7821 90.7396 44.799 91.1618C44.833 92.0082 44.9682 93.1026 45.3682 94.1136C45.4021 94.1993 45.36 94.2962 45.2743 94.3302C45.1886 94.3641 45.0917 94.3222 45.0577 94.2365C44.6385 93.1771 44.5001 92.0414 44.4653 91.1755C44.4479 90.7416 44.4566 90.3728 44.4696 90.1124C44.476 89.9822 44.4835 89.8788 44.4895 89.8077C44.4924 89.7722 44.4951 89.7446 44.497 89.7258C44.4979 89.7165 44.4987 89.7093 44.4992 89.7043C44.4995 89.7018 44.4997 89.6998 44.4999 89.6984V89.6962L44.5009 89.689L44.5022 89.6821C45.2113 86.1639 46.9093 83.446 48.4277 81.609C49.1871 80.6903 49.9024 79.9907 50.4286 79.5203C50.6917 79.2851 50.9078 79.1072 51.0585 78.9877C51.1338 78.9279 51.1929 78.8827 51.2333 78.8523C51.2535 78.8371 51.269 78.8255 51.2796 78.8177C51.285 78.8138 51.2892 78.8109 51.292 78.8089C51.2934 78.8079 51.2945 78.8072 51.2953 78.8066L51.2963 78.8056H51.2966Z" fill="#2A6335"/>
<path d="M37.0852 82.7468C37.0852 82.7468 38.5787 81.6156 36.0093 78.7905C33.5686 76.1066 30.9846 73.7003 25.9341 72.8184C25.9341 72.8184 27.4584 79.6564 30.7494 81.2864C34.0404 82.9163 37.0852 82.7468 37.0852 82.7468Z" fill="#82CA90"/>
<path d="M24.8264 87.7743C24.8264 87.7743 30.0957 88.9233 39.0326 85.9422C39.0326 85.9422 38.4785 85.0187 34.4851 84.7082C30.4918 84.3975 23.7864 87.0069 24.8264 87.7743Z" fill="#82CA90"/>
<path d="M24.9043 87.9227C24.8228 87.9657 24.7217 87.9347 24.6785 87.8532C24.6354 87.7717 24.6668 87.6706 24.7483 87.6275L24.9043 87.9227ZM28.9319 86.1296C31.4337 85.4986 34.869 85.0453 38.6928 85.7107L39.064 85.7789L39.0685 85.7796L39.0731 85.7809H39.0738C39.0741 85.781 39.0746 85.7811 39.0751 85.7812C39.0759 85.7814 39.0768 85.7819 39.078 85.7822C39.0805 85.7828 39.0838 85.7837 39.0878 85.7848C39.0957 85.7871 39.1067 85.7905 39.1204 85.7949C39.148 85.8038 39.1868 85.8173 39.2352 85.837C39.3321 85.8765 39.4676 85.9405 39.629 86.0399C39.9318 86.2265 40.3242 86.5375 40.723 87.0443L40.803 87.1483L40.8206 87.1773C40.8536 87.2476 40.8339 87.3339 40.7694 87.3822C40.7048 87.4305 40.6167 87.4249 40.5586 87.3734L40.5355 87.3486L40.4608 87.2511C40.0871 86.7762 39.7243 86.4912 39.4535 86.3243C39.3089 86.2352 39.19 86.1796 39.109 86.1466C39.0686 86.1301 39.0377 86.1191 39.0177 86.1126C39.0076 86.1094 39.0001 86.1073 38.9958 86.1061C38.9947 86.1058 38.9939 86.1053 38.9932 86.1051C35.0846 85.3565 31.5616 85.8109 29.0137 86.4535C27.7393 86.7749 26.7099 87.1432 26 87.4308C25.6451 87.5745 25.3702 87.6981 25.1845 87.7854C25.0917 87.829 25.0211 87.8636 24.9741 87.8872C24.9506 87.8989 24.9329 87.9079 24.9212 87.9139C24.9154 87.9169 24.911 87.9193 24.9082 87.9208C24.9068 87.9215 24.9059 87.9221 24.9052 87.9224C24.9049 87.9225 24.9047 87.9226 24.9046 87.9227H24.9043L24.7483 87.6272H24.7487C24.7489 87.627 24.7492 87.6267 24.7497 87.6265C24.7505 87.6261 24.7519 87.6254 24.7536 87.6246C24.7569 87.6228 24.7619 87.6203 24.7682 87.6171C24.781 87.6105 24.7997 87.6007 24.8244 87.5884C24.8738 87.5636 24.9468 87.5279 25.0423 87.483C25.2331 87.3933 25.5138 87.2675 25.8747 87.1212C26.5965 86.8289 27.6404 86.4553 28.9319 86.1296Z" fill="#2A6335"/>
<path d="M29.1939 92.5471C29.1939 92.5471 34.8327 96.2573 43.7694 93.2764C43.7694 93.2764 42.0314 90.1337 38.0382 89.823C34.0448 89.5123 28.1536 91.7797 29.1939 92.5471Z" fill="#82CA90"/>
<path d="M33.2779 91.4092C35.8024 91.1519 39.3278 91.3173 43.4348 92.959L43.8341 93.1224L43.8373 93.1238H43.8377L43.838 93.1241L43.8386 93.1244C43.8394 93.1247 43.8404 93.1252 43.8416 93.1257C43.844 93.1268 43.8474 93.1286 43.8517 93.1306C43.8602 93.1346 43.8724 93.1402 43.8879 93.1479C43.919 93.1633 43.9637 93.1863 44.0194 93.217C44.1306 93.2785 44.2865 93.3718 44.4685 93.5002C44.8097 93.7408 45.2443 94.106 45.6481 94.6191L45.7283 94.7234L45.7456 94.7525C45.7788 94.8227 45.7593 94.9089 45.6947 94.9573C45.6209 95.0126 45.5161 94.9976 45.4608 94.9237C45.0607 94.3895 44.6183 94.0142 44.2761 93.7729C44.1051 93.6523 43.9595 93.5656 43.8576 93.5093C43.8067 93.4812 43.7666 93.4606 43.7398 93.4473C43.7265 93.4407 43.7163 93.436 43.7098 93.433C43.7066 93.4315 43.7044 93.4304 43.7029 93.4297C43.7024 93.4295 43.7019 93.4292 43.7016 93.4291L43.7013 93.4287C39.4828 91.6602 35.8686 91.4807 33.3118 91.7413C32.0328 91.8717 31.0179 92.1126 30.3242 92.32C29.9773 92.4237 29.7108 92.519 29.5318 92.5881C29.4424 92.6226 29.3748 92.6505 29.3299 92.6697C29.3075 92.6793 29.2906 92.6867 29.2797 92.6915C29.2742 92.694 29.2701 92.6959 29.2676 92.6971C29.2664 92.6976 29.2655 92.6981 29.265 92.6984H29.2643C29.1808 92.7373 29.0815 92.7013 29.0425 92.6178C29.0035 92.5342 29.0398 92.4347 29.1234 92.3957L29.1237 92.3953C29.124 92.3952 29.1246 92.3952 29.1251 92.395C29.126 92.3946 29.1273 92.3938 29.129 92.3931C29.1323 92.3915 29.1371 92.3893 29.1433 92.3865C29.1559 92.3809 29.1746 92.3727 29.1988 92.3624C29.2471 92.3418 29.3183 92.3126 29.4115 92.2766C29.598 92.2046 29.8729 92.1063 30.2286 92C30.9399 91.7873 31.9755 91.542 33.2779 91.4092Z" fill="#2A6335"/>
<path d="M48.2806 74.4813C48.2806 74.4813 49.9449 74.2821 45.8838 78.0371C42.0491 81.583 42.5366 81.6107 42.5366 81.6107C42.5366 81.6107 43.9917 76.3048 48.2806 74.4813Z" fill="#44A156"/>
<path d="M39.7466 83.4069C39.7466 83.4069 40.9896 83.886 43.2314 81.8295C45.4732 79.7729 46.3089 75.1897 48.2803 74.4814C48.2803 74.4814 43.3345 76.0785 39.7466 83.4069Z" fill="#82CA90"/>
<path d="M25.9726 72.6559L25.9432 72.7799C25.9726 72.6558 25.9728 72.6559 25.9729 72.6559H25.9732L25.9739 72.6562C25.9744 72.6564 25.9751 72.6564 25.9758 72.6566C25.9774 72.6569 25.9796 72.6576 25.982 72.6582C25.9869 72.6595 25.9936 72.6613 26.0019 72.6637C26.0188 72.6686 26.043 72.676 26.0743 72.6866C26.1371 72.7078 26.229 72.742 26.3506 72.7952C26.5941 72.9017 26.9575 73.0843 27.447 73.3912C28.4259 74.0047 29.9111 75.1162 31.9548 77.1125C33.9938 79.1042 35.3078 80.4853 36.1128 81.3694C36.5154 81.8114 36.7907 82.1293 36.9659 82.3372C37.0534 82.4412 37.1162 82.5177 37.157 82.5685C37.1774 82.5938 37.1923 82.6128 37.2023 82.6256C37.2073 82.6319 37.2112 82.6366 37.2138 82.6399C37.2147 82.6411 37.2154 82.6421 37.216 82.6429C41.9985 88.1856 45.5151 93.98 48.0479 99.0795C48.0889 99.1621 48.0551 99.2625 47.9725 99.3036C47.8899 99.3446 47.7898 99.3107 47.7487 99.2282C45.2249 94.1466 41.7214 88.3748 36.9587 82.8559L36.9554 82.8523L36.9525 82.848L36.9518 82.8474C36.9514 82.8468 36.9505 82.8457 36.9495 82.8445C36.9474 82.8417 36.9442 82.8374 36.9398 82.8317C36.9306 82.8201 36.9163 82.8019 36.8967 82.7776C36.8575 82.7289 36.7964 82.6543 36.7104 82.5522C36.5383 82.3479 36.2658 82.0332 35.8659 81.5941C35.066 80.7157 33.7567 79.3392 31.7215 77.3512C29.691 75.3677 28.224 74.2725 27.2695 73.6743C26.7924 73.3753 26.4435 73.2004 26.2166 73.1012C26.1032 73.0516 26.0203 73.021 25.967 73.003C25.9404 72.994 25.9212 72.9881 25.9093 72.9847C25.9034 72.983 25.8992 72.9817 25.8969 72.9811L25.8949 72.9808H25.8953C25.8057 72.9594 25.7504 72.8695 25.7716 72.7799C25.7929 72.6901 25.8828 72.6346 25.9726 72.6559Z" fill="#2A6335"/>
<path d="M47.6293 74.5726L47.7631 74.8786L47.7627 74.8789C47.7623 74.8791 47.7616 74.8791 47.7608 74.8795C47.7589 74.8804 47.7558 74.8819 47.7516 74.8838C47.7434 74.8875 47.7309 74.8935 47.7141 74.9014C47.6804 74.9173 47.6296 74.9417 47.5638 74.9754C47.432 75.0429 47.2389 75.1473 46.9965 75.2932C46.5115 75.585 45.8292 76.0434 45.0458 76.7079C43.4792 78.0366 41.507 80.1893 39.8967 83.4805C39.2078 84.8889 39.9237 86.0218 40.6542 86.9594L40.8 87.1443L40.8183 87.1727C40.8535 87.2419 40.8366 87.3286 40.7736 87.3789C40.7104 87.4292 40.6218 87.4265 40.5622 87.3766L40.5387 87.3525L40.3935 87.1685C39.6572 86.2254 38.813 84.9364 39.597 83.3337C41.2299 79.9963 43.2325 77.808 44.8299 76.4531C45.6284 75.7759 46.3255 75.3069 46.8243 75.0067C47.0736 74.8567 47.2735 74.7487 47.4117 74.6779C47.4808 74.6426 47.5345 74.6167 47.5713 74.5993C47.5897 74.5906 47.6039 74.5839 47.6137 74.5794C47.6185 74.5772 47.6224 74.5757 47.6251 74.5745C47.6263 74.574 47.6273 74.5736 47.628 74.5732C47.6284 74.5731 47.6288 74.5727 47.629 74.5726H47.6293ZM47.6296 74.5726C47.7142 74.5357 47.8126 74.5742 47.8495 74.6587C47.8864 74.7432 47.8476 74.8417 47.7631 74.8786L47.6296 74.5726Z" fill="#2A6335"/>
<path d="M127.95 96.6602C127.95 96.6602 123.21 97.8525 115.615 92.501C115.615 92.501 116.185 91.1749 119.727 91.1092C123.268 91.0435 128.934 95.6164 127.95 96.6602Z" fill="#82CA90"/>
<path d="M115.712 92.2292C119.3 92.0821 122.348 93.0767 124.495 94.1059C125.57 94.6206 126.42 95.1448 127.003 95.5407C127.294 95.7386 127.519 95.9045 127.671 96.0214C127.747 96.0799 127.805 96.1264 127.844 96.1582C127.864 96.1741 127.879 96.1863 127.889 96.1947C127.894 96.1989 127.898 96.2021 127.901 96.2043C127.902 96.2054 127.903 96.2064 127.904 96.207C127.904 96.2073 127.905 96.2076 127.905 96.2078L127.905 96.2079C127.975 96.2675 127.983 96.3722 127.923 96.4417C127.871 96.5024 127.783 96.5163 127.715 96.4789L127.688 96.4596L127.687 96.4591C127.687 96.4587 127.686 96.458 127.685 96.4571C127.683 96.4553 127.679 96.4525 127.674 96.4487C127.665 96.4412 127.652 96.4296 127.633 96.4146C127.596 96.3845 127.54 96.3403 127.467 96.2837C127.319 96.1704 127.1 96.0082 126.814 95.8142C126.243 95.426 125.407 94.9106 124.35 94.4043C122.237 93.3919 119.248 92.4175 115.733 92.56C115.729 92.5606 115.723 92.5615 115.715 92.5626C115.698 92.565 115.672 92.5687 115.639 92.5739C115.572 92.5844 115.473 92.601 115.349 92.6247C115.101 92.6722 114.751 92.7487 114.344 92.8647C113.53 93.0971 112.498 93.4858 111.611 94.1098C111.536 94.1627 111.432 94.1451 111.378 94.0705C111.325 93.9959 111.343 93.8924 111.418 93.8394C112.347 93.1855 113.418 92.7841 114.251 92.5462C114.669 92.427 115.029 92.3481 115.285 92.2991C115.414 92.2746 115.516 92.2578 115.586 92.2467C115.622 92.2412 115.649 92.2372 115.668 92.2346C115.677 92.2333 115.685 92.2321 115.69 92.2315C115.692 92.2312 115.694 92.2311 115.695 92.2309C115.696 92.2308 115.696 92.2305 115.697 92.2305L115.697 92.2303L115.697 92.2304L115.705 92.2295L115.712 92.2292Z" fill="#2A6335"/>
<path d="M118.134 85.8229C118.134 85.8229 119.577 87.0059 121.696 83.8418C123.71 80.836 125.422 77.7566 125.083 72.6418C125.083 72.6418 118.848 75.7403 118.051 79.3227C117.254 82.9053 118.134 85.8229 118.134 85.8229Z" fill="#82CA90"/>
<path d="M130.015 92.1147C130.015 92.1147 130.942 93.5009 125.756 91.5742C120.86 89.7552 121.054 90.1995 121.054 90.1995C121.054 90.1995 126.454 89.1256 130.015 92.1147Z" fill="#44A156"/>
<path d="M118.193 88.531C118.193 88.531 118.323 89.8461 121.171 90.9175C124.018 91.9889 128.493 90.689 130.013 92.1208C130.013 92.1208 126.36 88.448 118.193 88.531Z" fill="#82CA90"/>
<path d="M104.99 100.402C104.92 100.462 104.816 100.453 104.757 100.382C104.698 100.312 104.707 100.206 104.777 100.147L104.99 100.402ZM125.069 72.5014C125.161 72.5007 125.236 72.5752 125.236 72.6674L125.099 72.6687C125.225 72.6678 125.235 72.6676 125.236 72.6678L125.236 72.6682L125.236 72.6688C125.236 72.6693 125.236 72.6702 125.236 72.671C125.236 72.6725 125.236 72.6745 125.236 72.677C125.236 72.682 125.236 72.689 125.236 72.6978C125.235 72.7154 125.233 72.7406 125.23 72.7736C125.225 72.8396 125.214 72.9371 125.191 73.068C125.146 73.33 125.056 73.7264 124.876 74.2751C124.516 75.3723 123.796 77.08 122.356 79.5407C120.918 81.9958 119.898 83.601 119.236 84.5935C118.905 85.0898 118.664 85.433 118.505 85.6527C118.425 85.7625 118.367 85.8415 118.327 85.8933C118.308 85.9191 118.293 85.9381 118.283 85.9509C118.278 85.9573 118.274 85.9623 118.272 85.9655C114.06 91.9322 109.307 96.728 104.99 100.402L104.884 100.274L104.777 100.147C109.077 96.4862 113.811 91.7093 118.004 85.7689L118.006 85.7647L118.009 85.7607C118.01 85.7606 118.01 85.7605 118.01 85.7602C118.01 85.7596 118.011 85.7586 118.012 85.7573C118.014 85.7546 118.018 85.7503 118.022 85.7445C118.031 85.7328 118.045 85.7147 118.064 85.6898C118.102 85.6402 118.16 85.5634 118.238 85.4555C118.394 85.2397 118.632 84.9001 118.961 84.4071C119.619 83.4209 120.636 81.821 122.07 79.3704C123.502 76.9256 124.211 75.2398 124.562 74.17C124.737 73.6352 124.823 73.2546 124.865 73.0105C124.886 72.8885 124.896 72.8006 124.9 72.7446C124.903 72.7166 124.904 72.6966 124.905 72.6842C124.905 72.6781 124.905 72.6737 124.905 72.6713L124.905 72.6693L124.908 72.6364C124.923 72.56 124.989 72.502 125.069 72.5014Z" fill="#2A6335"/>
<path d="M114.287 91.0891C114.226 91.1579 114.121 91.1647 114.051 91.1044C113.982 91.0441 113.975 90.9396 114.035 90.8708L114.287 91.0891ZM126.701 89.964C127.665 90.3719 128.396 90.7821 128.888 91.0914C129.134 91.2461 129.32 91.3757 129.445 91.4669C129.508 91.5125 129.555 91.5485 129.587 91.5734C129.603 91.5859 129.616 91.5956 129.624 91.6023C129.628 91.6056 129.631 91.6085 129.634 91.6103C129.635 91.6112 129.636 91.6119 129.636 91.6124C129.636 91.6127 129.637 91.6129 129.637 91.6131L129.637 91.6132C129.637 91.6133 129.638 91.6134 129.531 91.7406L129.638 91.6133C129.708 91.672 129.718 91.7766 129.659 91.8468C129.6 91.9171 129.495 91.9265 129.424 91.8679L129.423 91.8678C129.423 91.8675 129.422 91.867 129.422 91.8663C129.42 91.865 129.417 91.8629 129.414 91.8601C129.407 91.8544 129.396 91.8457 129.381 91.8344C129.352 91.8115 129.308 91.7776 129.248 91.7341C129.129 91.647 128.949 91.5218 128.709 91.3714C128.231 91.0706 127.515 90.6688 126.57 90.2686C124.68 89.4684 121.871 88.6741 118.206 88.7064C117.342 88.714 116.716 88.9161 116.134 89.3048C115.544 89.6992 114.993 90.2886 114.287 91.0891L114.161 90.9798L114.035 90.8708C114.738 90.0745 115.315 89.4519 115.947 89.0298C116.587 88.6021 117.278 88.3832 118.203 88.3751C121.919 88.3423 124.774 89.148 126.701 89.964Z" fill="#2A6335"/>
<path d="M79.949 106.342C104.18 106.342 123.823 104.67 123.823 102.608C123.823 100.545 104.18 98.873 79.949 98.873C55.7182 98.873 36.0752 100.545 36.0752 102.608C36.0752 104.67 55.7182 106.342 79.949 106.342Z" fill="#BABABA"/>
<mask id="mask0_250_2875" style="mask-type:alpha" maskUnits="userSpaceOnUse" x="43" y="21" width="79" height="84">
<path d="M76.7314 104.518C65.2163 104.797 51.5142 103.24 46.1025 102.427L43.0898 78.3781L57.4837 21.0439L106.021 29.5831L121.587 51.1923L111.712 102.427C104.85 103.008 88.2465 104.239 76.7314 104.518Z" fill="black"/>
</mask>
<g mask="url(#mask0_250_2875)">
<path d="M58.8135 81.0405L61.9519 78.2827L64.4236 87.5908L73.463 74.8393L74.6878 77.1552L79.8208 74.5304L94.2111 84.1426L94.5174 84.3478L100.165 81.2621L104.532 85.1873L112.497 80.0488L110.773 115.79C110.694 117.416 109.317 118.672 107.696 118.596L50.9714 115.919C49.3502 115.843 48.0991 114.462 48.1776 112.836L49.9044 77.0374L52.0707 80.1623L55.9215 75.0324L58.8135 81.0405Z" fill="#C9E8CF"/>
<path d="M55.4581 30.5877C55.6757 28.9727 57.1582 27.839 58.769 28.056L101.794 33.8497L115.933 51.7456L112.363 78.2492L103.696 82.8384L99.7252 78.5956L93.7136 81.2376L79.9203 70.189L75.0238 72.1826L73.6994 69.0489L63.9859 80.5216L62.4319 71.6448L58.7744 74.3397L56.2664 67.7216L51.7742 72.7443L50.1605 69.9243L55.4581 30.5877Z" fill="#C9E8CF"/>
<path d="M102.139 49.8684L116.466 52.0006L102.273 33.887C101.731 37.5548 100.567 45.3485 100.248 47.1801C99.9289 49.0117 101.376 49.7354 102.139 49.8684Z" fill="#82CA90"/>
<path d="M75.0555 59.43C74.393 59.7733 73.5774 59.5143 73.2342 58.8518C72.891 58.1893 73.1498 57.374 73.8123 57.0308L75.0555 59.43ZM73.8123 57.0308C76.9769 55.3913 85.072 53.2976 92.7153 57.7967C93.3583 58.1752 93.5726 59.0032 93.1942 59.6463C92.8157 60.2893 91.9875 60.504 91.3444 60.1255C84.7523 56.2451 77.6901 58.0652 75.0555 59.43L73.8123 57.0308Z" fill="#2A6335"/>
<ellipse cx="76.8323" cy="49.2947" rx="2.14356" ry="2.47334" transform="rotate(2.10954 76.8323 49.2947)" fill="#2A6335"/>
<ellipse cx="89.0808" cy="49.9832" rx="2.14356" ry="2.47334" transform="rotate(2.10954 89.0808 49.9832)" fill="#2A6335"/>
</g>
</svg>
